%TF.GenerationSoftware,KiCad,Pcbnew,9.0.1*%
%TF.CreationDate,2025-05-12T17:21:56-07:00*%
%TF.ProjectId,pcb,7063622e-6b69-4636-9164-5f7063625858,rev?*%
%TF.SameCoordinates,Original*%
%TF.FileFunction,Legend,Top*%
%TF.FilePolarity,Positive*%
%FSLAX46Y46*%
G04 Gerber Fmt 4.6, Leading zero omitted, Abs format (unit mm)*
G04 Created by KiCad (PCBNEW 9.0.1) date 2025-05-12 17:21:56*
%MOMM*%
%LPD*%
G01*
G04 APERTURE LIST*
%ADD10C,0.152400*%
%ADD11C,0.150000*%
%ADD12C,0.120000*%
G04 APERTURE END LIST*
D10*
X97755082Y-84160375D02*
X98142129Y-84160375D01*
X97677672Y-84392603D02*
X97948605Y-83579803D01*
X97948605Y-83579803D02*
X98219539Y-84392603D01*
X98451768Y-83657213D02*
X98490472Y-83618508D01*
X98490472Y-83618508D02*
X98567882Y-83579803D01*
X98567882Y-83579803D02*
X98761406Y-83579803D01*
X98761406Y-83579803D02*
X98838815Y-83618508D01*
X98838815Y-83618508D02*
X98877520Y-83657213D01*
X98877520Y-83657213D02*
X98916225Y-83734622D01*
X98916225Y-83734622D02*
X98916225Y-83812032D01*
X98916225Y-83812032D02*
X98877520Y-83928146D01*
X98877520Y-83928146D02*
X98413063Y-84392603D01*
X98413063Y-84392603D02*
X98916225Y-84392603D01*
X154719539Y-51618508D02*
X154642129Y-51579803D01*
X154642129Y-51579803D02*
X154526015Y-51579803D01*
X154526015Y-51579803D02*
X154409901Y-51618508D01*
X154409901Y-51618508D02*
X154332491Y-51695918D01*
X154332491Y-51695918D02*
X154293786Y-51773327D01*
X154293786Y-51773327D02*
X154255082Y-51928146D01*
X154255082Y-51928146D02*
X154255082Y-52044260D01*
X154255082Y-52044260D02*
X154293786Y-52199079D01*
X154293786Y-52199079D02*
X154332491Y-52276489D01*
X154332491Y-52276489D02*
X154409901Y-52353899D01*
X154409901Y-52353899D02*
X154526015Y-52392603D01*
X154526015Y-52392603D02*
X154603424Y-52392603D01*
X154603424Y-52392603D02*
X154719539Y-52353899D01*
X154719539Y-52353899D02*
X154758243Y-52315194D01*
X154758243Y-52315194D02*
X154758243Y-52044260D01*
X154758243Y-52044260D02*
X154603424Y-52044260D01*
X155106586Y-51850737D02*
X155106586Y-52392603D01*
X155106586Y-51928146D02*
X155145291Y-51889441D01*
X155145291Y-51889441D02*
X155222701Y-51850737D01*
X155222701Y-51850737D02*
X155338815Y-51850737D01*
X155338815Y-51850737D02*
X155416224Y-51889441D01*
X155416224Y-51889441D02*
X155454929Y-51966851D01*
X155454929Y-51966851D02*
X155454929Y-52392603D01*
X156190319Y-52392603D02*
X156190319Y-51579803D01*
X156190319Y-52353899D02*
X156112910Y-52392603D01*
X156112910Y-52392603D02*
X155958091Y-52392603D01*
X155958091Y-52392603D02*
X155880681Y-52353899D01*
X155880681Y-52353899D02*
X155841976Y-52315194D01*
X155841976Y-52315194D02*
X155803272Y-52237784D01*
X155803272Y-52237784D02*
X155803272Y-52005556D01*
X155803272Y-52005556D02*
X155841976Y-51928146D01*
X155841976Y-51928146D02*
X155880681Y-51889441D01*
X155880681Y-51889441D02*
X155958091Y-51850737D01*
X155958091Y-51850737D02*
X156112910Y-51850737D01*
X156112910Y-51850737D02*
X156190319Y-51889441D01*
X146448605Y-51079803D02*
X146603424Y-51079803D01*
X146603424Y-51079803D02*
X146680834Y-51118508D01*
X146680834Y-51118508D02*
X146758243Y-51195918D01*
X146758243Y-51195918D02*
X146796948Y-51350737D01*
X146796948Y-51350737D02*
X146796948Y-51621670D01*
X146796948Y-51621670D02*
X146758243Y-51776489D01*
X146758243Y-51776489D02*
X146680834Y-51853899D01*
X146680834Y-51853899D02*
X146603424Y-51892603D01*
X146603424Y-51892603D02*
X146448605Y-51892603D01*
X146448605Y-51892603D02*
X146371196Y-51853899D01*
X146371196Y-51853899D02*
X146293786Y-51776489D01*
X146293786Y-51776489D02*
X146255082Y-51621670D01*
X146255082Y-51621670D02*
X146255082Y-51350737D01*
X146255082Y-51350737D02*
X146293786Y-51195918D01*
X146293786Y-51195918D02*
X146371196Y-51118508D01*
X146371196Y-51118508D02*
X146448605Y-51079803D01*
X147493634Y-51350737D02*
X147493634Y-51892603D01*
X147145291Y-51350737D02*
X147145291Y-51776489D01*
X147145291Y-51776489D02*
X147183996Y-51853899D01*
X147183996Y-51853899D02*
X147261406Y-51892603D01*
X147261406Y-51892603D02*
X147377520Y-51892603D01*
X147377520Y-51892603D02*
X147454929Y-51853899D01*
X147454929Y-51853899D02*
X147493634Y-51815194D01*
X147764567Y-51350737D02*
X148074205Y-51350737D01*
X147880681Y-51079803D02*
X147880681Y-51776489D01*
X147880681Y-51776489D02*
X147919386Y-51853899D01*
X147919386Y-51853899D02*
X147996796Y-51892603D01*
X147996796Y-51892603D02*
X148074205Y-51892603D01*
X97293786Y-119392603D02*
X97293786Y-118579803D01*
X97293786Y-118579803D02*
X97564720Y-119160375D01*
X97564720Y-119160375D02*
X97835653Y-118579803D01*
X97835653Y-118579803D02*
X97835653Y-119392603D01*
X98183996Y-118657213D02*
X98222700Y-118618508D01*
X98222700Y-118618508D02*
X98300110Y-118579803D01*
X98300110Y-118579803D02*
X98493634Y-118579803D01*
X98493634Y-118579803D02*
X98571043Y-118618508D01*
X98571043Y-118618508D02*
X98609748Y-118657213D01*
X98609748Y-118657213D02*
X98648453Y-118734622D01*
X98648453Y-118734622D02*
X98648453Y-118812032D01*
X98648453Y-118812032D02*
X98609748Y-118928146D01*
X98609748Y-118928146D02*
X98145291Y-119392603D01*
X98145291Y-119392603D02*
X98648453Y-119392603D01*
X98996795Y-119082965D02*
X99616072Y-119082965D01*
X155719539Y-140618508D02*
X155642129Y-140579803D01*
X155642129Y-140579803D02*
X155526015Y-140579803D01*
X155526015Y-140579803D02*
X155409901Y-140618508D01*
X155409901Y-140618508D02*
X155332491Y-140695918D01*
X155332491Y-140695918D02*
X155293786Y-140773327D01*
X155293786Y-140773327D02*
X155255082Y-140928146D01*
X155255082Y-140928146D02*
X155255082Y-141044260D01*
X155255082Y-141044260D02*
X155293786Y-141199079D01*
X155293786Y-141199079D02*
X155332491Y-141276489D01*
X155332491Y-141276489D02*
X155409901Y-141353899D01*
X155409901Y-141353899D02*
X155526015Y-141392603D01*
X155526015Y-141392603D02*
X155603424Y-141392603D01*
X155603424Y-141392603D02*
X155719539Y-141353899D01*
X155719539Y-141353899D02*
X155758243Y-141315194D01*
X155758243Y-141315194D02*
X155758243Y-141044260D01*
X155758243Y-141044260D02*
X155603424Y-141044260D01*
X156106586Y-140850737D02*
X156106586Y-141392603D01*
X156106586Y-140928146D02*
X156145291Y-140889441D01*
X156145291Y-140889441D02*
X156222701Y-140850737D01*
X156222701Y-140850737D02*
X156338815Y-140850737D01*
X156338815Y-140850737D02*
X156416224Y-140889441D01*
X156416224Y-140889441D02*
X156454929Y-140966851D01*
X156454929Y-140966851D02*
X156454929Y-141392603D01*
X157190319Y-141392603D02*
X157190319Y-140579803D01*
X157190319Y-141353899D02*
X157112910Y-141392603D01*
X157112910Y-141392603D02*
X156958091Y-141392603D01*
X156958091Y-141392603D02*
X156880681Y-141353899D01*
X156880681Y-141353899D02*
X156841976Y-141315194D01*
X156841976Y-141315194D02*
X156803272Y-141237784D01*
X156803272Y-141237784D02*
X156803272Y-141005556D01*
X156803272Y-141005556D02*
X156841976Y-140928146D01*
X156841976Y-140928146D02*
X156880681Y-140889441D01*
X156880681Y-140889441D02*
X156958091Y-140850737D01*
X156958091Y-140850737D02*
X157112910Y-140850737D01*
X157112910Y-140850737D02*
X157190319Y-140889441D01*
X98064720Y-88966851D02*
X98180834Y-89005556D01*
X98180834Y-89005556D02*
X98219539Y-89044260D01*
X98219539Y-89044260D02*
X98258243Y-89121670D01*
X98258243Y-89121670D02*
X98258243Y-89237784D01*
X98258243Y-89237784D02*
X98219539Y-89315194D01*
X98219539Y-89315194D02*
X98180834Y-89353899D01*
X98180834Y-89353899D02*
X98103424Y-89392603D01*
X98103424Y-89392603D02*
X97793786Y-89392603D01*
X97793786Y-89392603D02*
X97793786Y-88579803D01*
X97793786Y-88579803D02*
X98064720Y-88579803D01*
X98064720Y-88579803D02*
X98142129Y-88618508D01*
X98142129Y-88618508D02*
X98180834Y-88657213D01*
X98180834Y-88657213D02*
X98219539Y-88734622D01*
X98219539Y-88734622D02*
X98219539Y-88812032D01*
X98219539Y-88812032D02*
X98180834Y-88889441D01*
X98180834Y-88889441D02*
X98142129Y-88928146D01*
X98142129Y-88928146D02*
X98064720Y-88966851D01*
X98064720Y-88966851D02*
X97793786Y-88966851D01*
X99032339Y-89392603D02*
X98567882Y-89392603D01*
X98800110Y-89392603D02*
X98800110Y-88579803D01*
X98800110Y-88579803D02*
X98722701Y-88695918D01*
X98722701Y-88695918D02*
X98645291Y-88773327D01*
X98645291Y-88773327D02*
X98567882Y-88812032D01*
X112219539Y-142618508D02*
X112142129Y-142579803D01*
X112142129Y-142579803D02*
X112026015Y-142579803D01*
X112026015Y-142579803D02*
X111909901Y-142618508D01*
X111909901Y-142618508D02*
X111832491Y-142695918D01*
X111832491Y-142695918D02*
X111793786Y-142773327D01*
X111793786Y-142773327D02*
X111755082Y-142928146D01*
X111755082Y-142928146D02*
X111755082Y-143044260D01*
X111755082Y-143044260D02*
X111793786Y-143199079D01*
X111793786Y-143199079D02*
X111832491Y-143276489D01*
X111832491Y-143276489D02*
X111909901Y-143353899D01*
X111909901Y-143353899D02*
X112026015Y-143392603D01*
X112026015Y-143392603D02*
X112103424Y-143392603D01*
X112103424Y-143392603D02*
X112219539Y-143353899D01*
X112219539Y-143353899D02*
X112258243Y-143315194D01*
X112258243Y-143315194D02*
X112258243Y-143044260D01*
X112258243Y-143044260D02*
X112103424Y-143044260D01*
X112606586Y-142850737D02*
X112606586Y-143392603D01*
X112606586Y-142928146D02*
X112645291Y-142889441D01*
X112645291Y-142889441D02*
X112722701Y-142850737D01*
X112722701Y-142850737D02*
X112838815Y-142850737D01*
X112838815Y-142850737D02*
X112916224Y-142889441D01*
X112916224Y-142889441D02*
X112954929Y-142966851D01*
X112954929Y-142966851D02*
X112954929Y-143392603D01*
X113690319Y-143392603D02*
X113690319Y-142579803D01*
X113690319Y-143353899D02*
X113612910Y-143392603D01*
X113612910Y-143392603D02*
X113458091Y-143392603D01*
X113458091Y-143392603D02*
X113380681Y-143353899D01*
X113380681Y-143353899D02*
X113341976Y-143315194D01*
X113341976Y-143315194D02*
X113303272Y-143237784D01*
X113303272Y-143237784D02*
X113303272Y-143005556D01*
X113303272Y-143005556D02*
X113341976Y-142928146D01*
X113341976Y-142928146D02*
X113380681Y-142889441D01*
X113380681Y-142889441D02*
X113458091Y-142850737D01*
X113458091Y-142850737D02*
X113612910Y-142850737D01*
X113612910Y-142850737D02*
X113690319Y-142889441D01*
X129448605Y-51079803D02*
X129603424Y-51079803D01*
X129603424Y-51079803D02*
X129680834Y-51118508D01*
X129680834Y-51118508D02*
X129758243Y-51195918D01*
X129758243Y-51195918D02*
X129796948Y-51350737D01*
X129796948Y-51350737D02*
X129796948Y-51621670D01*
X129796948Y-51621670D02*
X129758243Y-51776489D01*
X129758243Y-51776489D02*
X129680834Y-51853899D01*
X129680834Y-51853899D02*
X129603424Y-51892603D01*
X129603424Y-51892603D02*
X129448605Y-51892603D01*
X129448605Y-51892603D02*
X129371196Y-51853899D01*
X129371196Y-51853899D02*
X129293786Y-51776489D01*
X129293786Y-51776489D02*
X129255082Y-51621670D01*
X129255082Y-51621670D02*
X129255082Y-51350737D01*
X129255082Y-51350737D02*
X129293786Y-51195918D01*
X129293786Y-51195918D02*
X129371196Y-51118508D01*
X129371196Y-51118508D02*
X129448605Y-51079803D01*
X130493634Y-51350737D02*
X130493634Y-51892603D01*
X130145291Y-51350737D02*
X130145291Y-51776489D01*
X130145291Y-51776489D02*
X130183996Y-51853899D01*
X130183996Y-51853899D02*
X130261406Y-51892603D01*
X130261406Y-51892603D02*
X130377520Y-51892603D01*
X130377520Y-51892603D02*
X130454929Y-51853899D01*
X130454929Y-51853899D02*
X130493634Y-51815194D01*
X130764567Y-51350737D02*
X131074205Y-51350737D01*
X130880681Y-51079803D02*
X130880681Y-51776489D01*
X130880681Y-51776489D02*
X130919386Y-51853899D01*
X130919386Y-51853899D02*
X130996796Y-51892603D01*
X130996796Y-51892603D02*
X131074205Y-51892603D01*
X97293786Y-109892603D02*
X97293786Y-109079803D01*
X97293786Y-109079803D02*
X97564720Y-109660375D01*
X97564720Y-109660375D02*
X97835653Y-109079803D01*
X97835653Y-109079803D02*
X97835653Y-109892603D01*
X98648453Y-109892603D02*
X98183996Y-109892603D01*
X98416224Y-109892603D02*
X98416224Y-109079803D01*
X98416224Y-109079803D02*
X98338815Y-109195918D01*
X98338815Y-109195918D02*
X98261405Y-109273327D01*
X98261405Y-109273327D02*
X98183996Y-109312032D01*
X98996795Y-109582965D02*
X99616072Y-109582965D01*
X97177672Y-60079803D02*
X97448605Y-60892603D01*
X97448605Y-60892603D02*
X97719539Y-60079803D01*
X97990472Y-60892603D02*
X97990472Y-60079803D01*
X97990472Y-60079803D02*
X98183996Y-60079803D01*
X98183996Y-60079803D02*
X98300110Y-60118508D01*
X98300110Y-60118508D02*
X98377520Y-60195918D01*
X98377520Y-60195918D02*
X98416225Y-60273327D01*
X98416225Y-60273327D02*
X98454929Y-60428146D01*
X98454929Y-60428146D02*
X98454929Y-60544260D01*
X98454929Y-60544260D02*
X98416225Y-60699079D01*
X98416225Y-60699079D02*
X98377520Y-60776489D01*
X98377520Y-60776489D02*
X98300110Y-60853899D01*
X98300110Y-60853899D02*
X98183996Y-60892603D01*
X98183996Y-60892603D02*
X97990472Y-60892603D01*
X98609749Y-60970013D02*
X99229025Y-60970013D01*
X99538663Y-60892603D02*
X99461253Y-60853899D01*
X99461253Y-60853899D02*
X99422548Y-60815194D01*
X99422548Y-60815194D02*
X99383844Y-60737784D01*
X99383844Y-60737784D02*
X99383844Y-60505556D01*
X99383844Y-60505556D02*
X99422548Y-60428146D01*
X99422548Y-60428146D02*
X99461253Y-60389441D01*
X99461253Y-60389441D02*
X99538663Y-60350737D01*
X99538663Y-60350737D02*
X99654777Y-60350737D01*
X99654777Y-60350737D02*
X99732186Y-60389441D01*
X99732186Y-60389441D02*
X99770891Y-60428146D01*
X99770891Y-60428146D02*
X99809596Y-60505556D01*
X99809596Y-60505556D02*
X99809596Y-60737784D01*
X99809596Y-60737784D02*
X99770891Y-60815194D01*
X99770891Y-60815194D02*
X99732186Y-60853899D01*
X99732186Y-60853899D02*
X99654777Y-60892603D01*
X99654777Y-60892603D02*
X99538663Y-60892603D01*
X119219539Y-143392603D02*
X118755082Y-143392603D01*
X118987310Y-143392603D02*
X118987310Y-142579803D01*
X118987310Y-142579803D02*
X118909901Y-142695918D01*
X118909901Y-142695918D02*
X118832491Y-142773327D01*
X118832491Y-142773327D02*
X118755082Y-142812032D01*
X119529177Y-142657213D02*
X119567881Y-142618508D01*
X119567881Y-142618508D02*
X119645291Y-142579803D01*
X119645291Y-142579803D02*
X119838815Y-142579803D01*
X119838815Y-142579803D02*
X119916224Y-142618508D01*
X119916224Y-142618508D02*
X119954929Y-142657213D01*
X119954929Y-142657213D02*
X119993634Y-142734622D01*
X119993634Y-142734622D02*
X119993634Y-142812032D01*
X119993634Y-142812032D02*
X119954929Y-142928146D01*
X119954929Y-142928146D02*
X119490472Y-143392603D01*
X119490472Y-143392603D02*
X119993634Y-143392603D01*
X120225862Y-142579803D02*
X120496795Y-143392603D01*
X120496795Y-143392603D02*
X120767729Y-142579803D01*
X165255082Y-140657213D02*
X165293786Y-140618508D01*
X165293786Y-140618508D02*
X165371196Y-140579803D01*
X165371196Y-140579803D02*
X165564720Y-140579803D01*
X165564720Y-140579803D02*
X165642129Y-140618508D01*
X165642129Y-140618508D02*
X165680834Y-140657213D01*
X165680834Y-140657213D02*
X165719539Y-140734622D01*
X165719539Y-140734622D02*
X165719539Y-140812032D01*
X165719539Y-140812032D02*
X165680834Y-140928146D01*
X165680834Y-140928146D02*
X165216377Y-141392603D01*
X165216377Y-141392603D02*
X165719539Y-141392603D01*
X166222700Y-140579803D02*
X166300110Y-140579803D01*
X166300110Y-140579803D02*
X166377519Y-140618508D01*
X166377519Y-140618508D02*
X166416224Y-140657213D01*
X166416224Y-140657213D02*
X166454929Y-140734622D01*
X166454929Y-140734622D02*
X166493634Y-140889441D01*
X166493634Y-140889441D02*
X166493634Y-141082965D01*
X166493634Y-141082965D02*
X166454929Y-141237784D01*
X166454929Y-141237784D02*
X166416224Y-141315194D01*
X166416224Y-141315194D02*
X166377519Y-141353899D01*
X166377519Y-141353899D02*
X166300110Y-141392603D01*
X166300110Y-141392603D02*
X166222700Y-141392603D01*
X166222700Y-141392603D02*
X166145291Y-141353899D01*
X166145291Y-141353899D02*
X166106586Y-141315194D01*
X166106586Y-141315194D02*
X166067881Y-141237784D01*
X166067881Y-141237784D02*
X166029177Y-141082965D01*
X166029177Y-141082965D02*
X166029177Y-140889441D01*
X166029177Y-140889441D02*
X166067881Y-140734622D01*
X166067881Y-140734622D02*
X166106586Y-140657213D01*
X166106586Y-140657213D02*
X166145291Y-140618508D01*
X166145291Y-140618508D02*
X166222700Y-140579803D01*
X98064720Y-93966851D02*
X98180834Y-94005556D01*
X98180834Y-94005556D02*
X98219539Y-94044260D01*
X98219539Y-94044260D02*
X98258243Y-94121670D01*
X98258243Y-94121670D02*
X98258243Y-94237784D01*
X98258243Y-94237784D02*
X98219539Y-94315194D01*
X98219539Y-94315194D02*
X98180834Y-94353899D01*
X98180834Y-94353899D02*
X98103424Y-94392603D01*
X98103424Y-94392603D02*
X97793786Y-94392603D01*
X97793786Y-94392603D02*
X97793786Y-93579803D01*
X97793786Y-93579803D02*
X98064720Y-93579803D01*
X98064720Y-93579803D02*
X98142129Y-93618508D01*
X98142129Y-93618508D02*
X98180834Y-93657213D01*
X98180834Y-93657213D02*
X98219539Y-93734622D01*
X98219539Y-93734622D02*
X98219539Y-93812032D01*
X98219539Y-93812032D02*
X98180834Y-93889441D01*
X98180834Y-93889441D02*
X98142129Y-93928146D01*
X98142129Y-93928146D02*
X98064720Y-93966851D01*
X98064720Y-93966851D02*
X97793786Y-93966851D01*
X98567882Y-93657213D02*
X98606586Y-93618508D01*
X98606586Y-93618508D02*
X98683996Y-93579803D01*
X98683996Y-93579803D02*
X98877520Y-93579803D01*
X98877520Y-93579803D02*
X98954929Y-93618508D01*
X98954929Y-93618508D02*
X98993634Y-93657213D01*
X98993634Y-93657213D02*
X99032339Y-93734622D01*
X99032339Y-93734622D02*
X99032339Y-93812032D01*
X99032339Y-93812032D02*
X98993634Y-93928146D01*
X98993634Y-93928146D02*
X98529177Y-94392603D01*
X98529177Y-94392603D02*
X99032339Y-94392603D01*
X97448605Y-54579803D02*
X97603424Y-54579803D01*
X97603424Y-54579803D02*
X97680834Y-54618508D01*
X97680834Y-54618508D02*
X97758243Y-54695918D01*
X97758243Y-54695918D02*
X97796948Y-54850737D01*
X97796948Y-54850737D02*
X97796948Y-55121670D01*
X97796948Y-55121670D02*
X97758243Y-55276489D01*
X97758243Y-55276489D02*
X97680834Y-55353899D01*
X97680834Y-55353899D02*
X97603424Y-55392603D01*
X97603424Y-55392603D02*
X97448605Y-55392603D01*
X97448605Y-55392603D02*
X97371196Y-55353899D01*
X97371196Y-55353899D02*
X97293786Y-55276489D01*
X97293786Y-55276489D02*
X97255082Y-55121670D01*
X97255082Y-55121670D02*
X97255082Y-54850737D01*
X97255082Y-54850737D02*
X97293786Y-54695918D01*
X97293786Y-54695918D02*
X97371196Y-54618508D01*
X97371196Y-54618508D02*
X97448605Y-54579803D01*
X98493634Y-54850737D02*
X98493634Y-55392603D01*
X98145291Y-54850737D02*
X98145291Y-55276489D01*
X98145291Y-55276489D02*
X98183996Y-55353899D01*
X98183996Y-55353899D02*
X98261406Y-55392603D01*
X98261406Y-55392603D02*
X98377520Y-55392603D01*
X98377520Y-55392603D02*
X98454929Y-55353899D01*
X98454929Y-55353899D02*
X98493634Y-55315194D01*
X98764567Y-54850737D02*
X99074205Y-54850737D01*
X98880681Y-54579803D02*
X98880681Y-55276489D01*
X98880681Y-55276489D02*
X98919386Y-55353899D01*
X98919386Y-55353899D02*
X98996796Y-55392603D01*
X98996796Y-55392603D02*
X99074205Y-55392603D01*
X97293786Y-124892603D02*
X97293786Y-124079803D01*
X97293786Y-124079803D02*
X97564720Y-124660375D01*
X97564720Y-124660375D02*
X97835653Y-124079803D01*
X97835653Y-124079803D02*
X97835653Y-124892603D01*
X98145291Y-124079803D02*
X98648453Y-124079803D01*
X98648453Y-124079803D02*
X98377519Y-124389441D01*
X98377519Y-124389441D02*
X98493634Y-124389441D01*
X98493634Y-124389441D02*
X98571043Y-124428146D01*
X98571043Y-124428146D02*
X98609748Y-124466851D01*
X98609748Y-124466851D02*
X98648453Y-124544260D01*
X98648453Y-124544260D02*
X98648453Y-124737784D01*
X98648453Y-124737784D02*
X98609748Y-124815194D01*
X98609748Y-124815194D02*
X98571043Y-124853899D01*
X98571043Y-124853899D02*
X98493634Y-124892603D01*
X98493634Y-124892603D02*
X98261405Y-124892603D01*
X98261405Y-124892603D02*
X98183996Y-124853899D01*
X98183996Y-124853899D02*
X98145291Y-124815194D01*
X98996795Y-124582965D02*
X99616072Y-124582965D01*
X99306433Y-124892603D02*
X99306433Y-124273327D01*
X97293786Y-129892603D02*
X97293786Y-129079803D01*
X97293786Y-129079803D02*
X97564720Y-129660375D01*
X97564720Y-129660375D02*
X97835653Y-129079803D01*
X97835653Y-129079803D02*
X97835653Y-129892603D01*
X98145291Y-129079803D02*
X98648453Y-129079803D01*
X98648453Y-129079803D02*
X98377519Y-129389441D01*
X98377519Y-129389441D02*
X98493634Y-129389441D01*
X98493634Y-129389441D02*
X98571043Y-129428146D01*
X98571043Y-129428146D02*
X98609748Y-129466851D01*
X98609748Y-129466851D02*
X98648453Y-129544260D01*
X98648453Y-129544260D02*
X98648453Y-129737784D01*
X98648453Y-129737784D02*
X98609748Y-129815194D01*
X98609748Y-129815194D02*
X98571043Y-129853899D01*
X98571043Y-129853899D02*
X98493634Y-129892603D01*
X98493634Y-129892603D02*
X98261405Y-129892603D01*
X98261405Y-129892603D02*
X98183996Y-129853899D01*
X98183996Y-129853899D02*
X98145291Y-129815194D01*
X98996795Y-129582965D02*
X99616072Y-129582965D01*
X137219539Y-51118508D02*
X137142129Y-51079803D01*
X137142129Y-51079803D02*
X137026015Y-51079803D01*
X137026015Y-51079803D02*
X136909901Y-51118508D01*
X136909901Y-51118508D02*
X136832491Y-51195918D01*
X136832491Y-51195918D02*
X136793786Y-51273327D01*
X136793786Y-51273327D02*
X136755082Y-51428146D01*
X136755082Y-51428146D02*
X136755082Y-51544260D01*
X136755082Y-51544260D02*
X136793786Y-51699079D01*
X136793786Y-51699079D02*
X136832491Y-51776489D01*
X136832491Y-51776489D02*
X136909901Y-51853899D01*
X136909901Y-51853899D02*
X137026015Y-51892603D01*
X137026015Y-51892603D02*
X137103424Y-51892603D01*
X137103424Y-51892603D02*
X137219539Y-51853899D01*
X137219539Y-51853899D02*
X137258243Y-51815194D01*
X137258243Y-51815194D02*
X137258243Y-51544260D01*
X137258243Y-51544260D02*
X137103424Y-51544260D01*
X137606586Y-51350737D02*
X137606586Y-51892603D01*
X137606586Y-51428146D02*
X137645291Y-51389441D01*
X137645291Y-51389441D02*
X137722701Y-51350737D01*
X137722701Y-51350737D02*
X137838815Y-51350737D01*
X137838815Y-51350737D02*
X137916224Y-51389441D01*
X137916224Y-51389441D02*
X137954929Y-51466851D01*
X137954929Y-51466851D02*
X137954929Y-51892603D01*
X138690319Y-51892603D02*
X138690319Y-51079803D01*
X138690319Y-51853899D02*
X138612910Y-51892603D01*
X138612910Y-51892603D02*
X138458091Y-51892603D01*
X138458091Y-51892603D02*
X138380681Y-51853899D01*
X138380681Y-51853899D02*
X138341976Y-51815194D01*
X138341976Y-51815194D02*
X138303272Y-51737784D01*
X138303272Y-51737784D02*
X138303272Y-51505556D01*
X138303272Y-51505556D02*
X138341976Y-51428146D01*
X138341976Y-51428146D02*
X138380681Y-51389441D01*
X138380681Y-51389441D02*
X138458091Y-51350737D01*
X138458091Y-51350737D02*
X138612910Y-51350737D01*
X138612910Y-51350737D02*
X138690319Y-51389441D01*
X119719539Y-51118508D02*
X119642129Y-51079803D01*
X119642129Y-51079803D02*
X119526015Y-51079803D01*
X119526015Y-51079803D02*
X119409901Y-51118508D01*
X119409901Y-51118508D02*
X119332491Y-51195918D01*
X119332491Y-51195918D02*
X119293786Y-51273327D01*
X119293786Y-51273327D02*
X119255082Y-51428146D01*
X119255082Y-51428146D02*
X119255082Y-51544260D01*
X119255082Y-51544260D02*
X119293786Y-51699079D01*
X119293786Y-51699079D02*
X119332491Y-51776489D01*
X119332491Y-51776489D02*
X119409901Y-51853899D01*
X119409901Y-51853899D02*
X119526015Y-51892603D01*
X119526015Y-51892603D02*
X119603424Y-51892603D01*
X119603424Y-51892603D02*
X119719539Y-51853899D01*
X119719539Y-51853899D02*
X119758243Y-51815194D01*
X119758243Y-51815194D02*
X119758243Y-51544260D01*
X119758243Y-51544260D02*
X119603424Y-51544260D01*
X120106586Y-51350737D02*
X120106586Y-51892603D01*
X120106586Y-51428146D02*
X120145291Y-51389441D01*
X120145291Y-51389441D02*
X120222701Y-51350737D01*
X120222701Y-51350737D02*
X120338815Y-51350737D01*
X120338815Y-51350737D02*
X120416224Y-51389441D01*
X120416224Y-51389441D02*
X120454929Y-51466851D01*
X120454929Y-51466851D02*
X120454929Y-51892603D01*
X121190319Y-51892603D02*
X121190319Y-51079803D01*
X121190319Y-51853899D02*
X121112910Y-51892603D01*
X121112910Y-51892603D02*
X120958091Y-51892603D01*
X120958091Y-51892603D02*
X120880681Y-51853899D01*
X120880681Y-51853899D02*
X120841976Y-51815194D01*
X120841976Y-51815194D02*
X120803272Y-51737784D01*
X120803272Y-51737784D02*
X120803272Y-51505556D01*
X120803272Y-51505556D02*
X120841976Y-51428146D01*
X120841976Y-51428146D02*
X120880681Y-51389441D01*
X120880681Y-51389441D02*
X120958091Y-51350737D01*
X120958091Y-51350737D02*
X121112910Y-51350737D01*
X121112910Y-51350737D02*
X121190319Y-51389441D01*
X141216377Y-51079803D02*
X141719539Y-51079803D01*
X141719539Y-51079803D02*
X141448605Y-51389441D01*
X141448605Y-51389441D02*
X141564720Y-51389441D01*
X141564720Y-51389441D02*
X141642129Y-51428146D01*
X141642129Y-51428146D02*
X141680834Y-51466851D01*
X141680834Y-51466851D02*
X141719539Y-51544260D01*
X141719539Y-51544260D02*
X141719539Y-51737784D01*
X141719539Y-51737784D02*
X141680834Y-51815194D01*
X141680834Y-51815194D02*
X141642129Y-51853899D01*
X141642129Y-51853899D02*
X141564720Y-51892603D01*
X141564720Y-51892603D02*
X141332491Y-51892603D01*
X141332491Y-51892603D02*
X141255082Y-51853899D01*
X141255082Y-51853899D02*
X141216377Y-51815194D01*
X141990472Y-51350737D02*
X142183996Y-51892603D01*
X142183996Y-51892603D02*
X142377519Y-51350737D01*
X142609748Y-51079803D02*
X143112910Y-51079803D01*
X143112910Y-51079803D02*
X142841976Y-51389441D01*
X142841976Y-51389441D02*
X142958091Y-51389441D01*
X142958091Y-51389441D02*
X143035500Y-51428146D01*
X143035500Y-51428146D02*
X143074205Y-51466851D01*
X143074205Y-51466851D02*
X143112910Y-51544260D01*
X143112910Y-51544260D02*
X143112910Y-51737784D01*
X143112910Y-51737784D02*
X143074205Y-51815194D01*
X143074205Y-51815194D02*
X143035500Y-51853899D01*
X143035500Y-51853899D02*
X142958091Y-51892603D01*
X142958091Y-51892603D02*
X142725862Y-51892603D01*
X142725862Y-51892603D02*
X142648453Y-51853899D01*
X142648453Y-51853899D02*
X142609748Y-51815194D01*
X164948605Y-51579803D02*
X165103424Y-51579803D01*
X165103424Y-51579803D02*
X165180834Y-51618508D01*
X165180834Y-51618508D02*
X165258243Y-51695918D01*
X165258243Y-51695918D02*
X165296948Y-51850737D01*
X165296948Y-51850737D02*
X165296948Y-52121670D01*
X165296948Y-52121670D02*
X165258243Y-52276489D01*
X165258243Y-52276489D02*
X165180834Y-52353899D01*
X165180834Y-52353899D02*
X165103424Y-52392603D01*
X165103424Y-52392603D02*
X164948605Y-52392603D01*
X164948605Y-52392603D02*
X164871196Y-52353899D01*
X164871196Y-52353899D02*
X164793786Y-52276489D01*
X164793786Y-52276489D02*
X164755082Y-52121670D01*
X164755082Y-52121670D02*
X164755082Y-51850737D01*
X164755082Y-51850737D02*
X164793786Y-51695918D01*
X164793786Y-51695918D02*
X164871196Y-51618508D01*
X164871196Y-51618508D02*
X164948605Y-51579803D01*
X165993634Y-51850737D02*
X165993634Y-52392603D01*
X165645291Y-51850737D02*
X165645291Y-52276489D01*
X165645291Y-52276489D02*
X165683996Y-52353899D01*
X165683996Y-52353899D02*
X165761406Y-52392603D01*
X165761406Y-52392603D02*
X165877520Y-52392603D01*
X165877520Y-52392603D02*
X165954929Y-52353899D01*
X165954929Y-52353899D02*
X165993634Y-52315194D01*
X166264567Y-51850737D02*
X166574205Y-51850737D01*
X166380681Y-51579803D02*
X166380681Y-52276489D01*
X166380681Y-52276489D02*
X166419386Y-52353899D01*
X166419386Y-52353899D02*
X166496796Y-52392603D01*
X166496796Y-52392603D02*
X166574205Y-52392603D01*
X97293786Y-103892603D02*
X97293786Y-103079803D01*
X97293786Y-103079803D02*
X97564720Y-103660375D01*
X97564720Y-103660375D02*
X97835653Y-103079803D01*
X97835653Y-103079803D02*
X97835653Y-103892603D01*
X98648453Y-103892603D02*
X98183996Y-103892603D01*
X98416224Y-103892603D02*
X98416224Y-103079803D01*
X98416224Y-103079803D02*
X98338815Y-103195918D01*
X98338815Y-103195918D02*
X98261405Y-103273327D01*
X98261405Y-103273327D02*
X98183996Y-103312032D01*
X98996795Y-103582965D02*
X99616072Y-103582965D01*
X99306433Y-103892603D02*
X99306433Y-103273327D01*
X97677672Y-70079803D02*
X98142129Y-70079803D01*
X97909901Y-70892603D02*
X97909901Y-70079803D01*
X98413062Y-70582965D02*
X99032339Y-70582965D01*
X98722700Y-70892603D02*
X98722700Y-70273327D01*
X172255082Y-124660375D02*
X172642129Y-124660375D01*
X172177672Y-124892603D02*
X172448605Y-124079803D01*
X172448605Y-124079803D02*
X172719539Y-124892603D01*
X173416225Y-124892603D02*
X172951768Y-124892603D01*
X173183996Y-124892603D02*
X173183996Y-124079803D01*
X173183996Y-124079803D02*
X173106587Y-124195918D01*
X173106587Y-124195918D02*
X173029177Y-124273327D01*
X173029177Y-124273327D02*
X172951768Y-124312032D01*
X172064720Y-109466851D02*
X172180834Y-109505556D01*
X172180834Y-109505556D02*
X172219539Y-109544260D01*
X172219539Y-109544260D02*
X172258243Y-109621670D01*
X172258243Y-109621670D02*
X172258243Y-109737784D01*
X172258243Y-109737784D02*
X172219539Y-109815194D01*
X172219539Y-109815194D02*
X172180834Y-109853899D01*
X172180834Y-109853899D02*
X172103424Y-109892603D01*
X172103424Y-109892603D02*
X171793786Y-109892603D01*
X171793786Y-109892603D02*
X171793786Y-109079803D01*
X171793786Y-109079803D02*
X172064720Y-109079803D01*
X172064720Y-109079803D02*
X172142129Y-109118508D01*
X172142129Y-109118508D02*
X172180834Y-109157213D01*
X172180834Y-109157213D02*
X172219539Y-109234622D01*
X172219539Y-109234622D02*
X172219539Y-109312032D01*
X172219539Y-109312032D02*
X172180834Y-109389441D01*
X172180834Y-109389441D02*
X172142129Y-109428146D01*
X172142129Y-109428146D02*
X172064720Y-109466851D01*
X172064720Y-109466851D02*
X171793786Y-109466851D01*
X172567882Y-109157213D02*
X172606586Y-109118508D01*
X172606586Y-109118508D02*
X172683996Y-109079803D01*
X172683996Y-109079803D02*
X172877520Y-109079803D01*
X172877520Y-109079803D02*
X172954929Y-109118508D01*
X172954929Y-109118508D02*
X172993634Y-109157213D01*
X172993634Y-109157213D02*
X173032339Y-109234622D01*
X173032339Y-109234622D02*
X173032339Y-109312032D01*
X173032339Y-109312032D02*
X172993634Y-109428146D01*
X172993634Y-109428146D02*
X172529177Y-109892603D01*
X172529177Y-109892603D02*
X173032339Y-109892603D01*
X150216377Y-140079803D02*
X150719539Y-140079803D01*
X150719539Y-140079803D02*
X150448605Y-140389441D01*
X150448605Y-140389441D02*
X150564720Y-140389441D01*
X150564720Y-140389441D02*
X150642129Y-140428146D01*
X150642129Y-140428146D02*
X150680834Y-140466851D01*
X150680834Y-140466851D02*
X150719539Y-140544260D01*
X150719539Y-140544260D02*
X150719539Y-140737784D01*
X150719539Y-140737784D02*
X150680834Y-140815194D01*
X150680834Y-140815194D02*
X150642129Y-140853899D01*
X150642129Y-140853899D02*
X150564720Y-140892603D01*
X150564720Y-140892603D02*
X150332491Y-140892603D01*
X150332491Y-140892603D02*
X150255082Y-140853899D01*
X150255082Y-140853899D02*
X150216377Y-140815194D01*
X150990472Y-140350737D02*
X151183996Y-140892603D01*
X151183996Y-140892603D02*
X151377519Y-140350737D01*
X151609748Y-140079803D02*
X152112910Y-140079803D01*
X152112910Y-140079803D02*
X151841976Y-140389441D01*
X151841976Y-140389441D02*
X151958091Y-140389441D01*
X151958091Y-140389441D02*
X152035500Y-140428146D01*
X152035500Y-140428146D02*
X152074205Y-140466851D01*
X152074205Y-140466851D02*
X152112910Y-140544260D01*
X152112910Y-140544260D02*
X152112910Y-140737784D01*
X152112910Y-140737784D02*
X152074205Y-140815194D01*
X152074205Y-140815194D02*
X152035500Y-140853899D01*
X152035500Y-140853899D02*
X151958091Y-140892603D01*
X151958091Y-140892603D02*
X151725862Y-140892603D01*
X151725862Y-140892603D02*
X151648453Y-140853899D01*
X151648453Y-140853899D02*
X151609748Y-140815194D01*
X159716377Y-51579803D02*
X160219539Y-51579803D01*
X160219539Y-51579803D02*
X159948605Y-51889441D01*
X159948605Y-51889441D02*
X160064720Y-51889441D01*
X160064720Y-51889441D02*
X160142129Y-51928146D01*
X160142129Y-51928146D02*
X160180834Y-51966851D01*
X160180834Y-51966851D02*
X160219539Y-52044260D01*
X160219539Y-52044260D02*
X160219539Y-52237784D01*
X160219539Y-52237784D02*
X160180834Y-52315194D01*
X160180834Y-52315194D02*
X160142129Y-52353899D01*
X160142129Y-52353899D02*
X160064720Y-52392603D01*
X160064720Y-52392603D02*
X159832491Y-52392603D01*
X159832491Y-52392603D02*
X159755082Y-52353899D01*
X159755082Y-52353899D02*
X159716377Y-52315194D01*
X160490472Y-51850737D02*
X160683996Y-52392603D01*
X160683996Y-52392603D02*
X160877519Y-51850737D01*
X161109748Y-51579803D02*
X161612910Y-51579803D01*
X161612910Y-51579803D02*
X161341976Y-51889441D01*
X161341976Y-51889441D02*
X161458091Y-51889441D01*
X161458091Y-51889441D02*
X161535500Y-51928146D01*
X161535500Y-51928146D02*
X161574205Y-51966851D01*
X161574205Y-51966851D02*
X161612910Y-52044260D01*
X161612910Y-52044260D02*
X161612910Y-52237784D01*
X161612910Y-52237784D02*
X161574205Y-52315194D01*
X161574205Y-52315194D02*
X161535500Y-52353899D01*
X161535500Y-52353899D02*
X161458091Y-52392603D01*
X161458091Y-52392603D02*
X161225862Y-52392603D01*
X161225862Y-52392603D02*
X161148453Y-52353899D01*
X161148453Y-52353899D02*
X161109748Y-52315194D01*
X173216377Y-72579803D02*
X173719539Y-72579803D01*
X173719539Y-72579803D02*
X173448605Y-72889441D01*
X173448605Y-72889441D02*
X173564720Y-72889441D01*
X173564720Y-72889441D02*
X173642129Y-72928146D01*
X173642129Y-72928146D02*
X173680834Y-72966851D01*
X173680834Y-72966851D02*
X173719539Y-73044260D01*
X173719539Y-73044260D02*
X173719539Y-73237784D01*
X173719539Y-73237784D02*
X173680834Y-73315194D01*
X173680834Y-73315194D02*
X173642129Y-73353899D01*
X173642129Y-73353899D02*
X173564720Y-73392603D01*
X173564720Y-73392603D02*
X173332491Y-73392603D01*
X173332491Y-73392603D02*
X173255082Y-73353899D01*
X173255082Y-73353899D02*
X173216377Y-73315194D01*
X173990472Y-72850737D02*
X174183996Y-73392603D01*
X174183996Y-73392603D02*
X174377519Y-72850737D01*
X174609748Y-72579803D02*
X175112910Y-72579803D01*
X175112910Y-72579803D02*
X174841976Y-72889441D01*
X174841976Y-72889441D02*
X174958091Y-72889441D01*
X174958091Y-72889441D02*
X175035500Y-72928146D01*
X175035500Y-72928146D02*
X175074205Y-72966851D01*
X175074205Y-72966851D02*
X175112910Y-73044260D01*
X175112910Y-73044260D02*
X175112910Y-73237784D01*
X175112910Y-73237784D02*
X175074205Y-73315194D01*
X175074205Y-73315194D02*
X175035500Y-73353899D01*
X175035500Y-73353899D02*
X174958091Y-73392603D01*
X174958091Y-73392603D02*
X174725862Y-73392603D01*
X174725862Y-73392603D02*
X174648453Y-73353899D01*
X174648453Y-73353899D02*
X174609748Y-73315194D01*
X97755082Y-79160375D02*
X98142129Y-79160375D01*
X97677672Y-79392603D02*
X97948605Y-78579803D01*
X97948605Y-78579803D02*
X98219539Y-79392603D01*
X98916225Y-79392603D02*
X98451768Y-79392603D01*
X98683996Y-79392603D02*
X98683996Y-78579803D01*
X98683996Y-78579803D02*
X98606587Y-78695918D01*
X98606587Y-78695918D02*
X98529177Y-78773327D01*
X98529177Y-78773327D02*
X98451768Y-78812032D01*
X172255082Y-120160375D02*
X172642129Y-120160375D01*
X172177672Y-120392603D02*
X172448605Y-119579803D01*
X172448605Y-119579803D02*
X172719539Y-120392603D01*
X172951768Y-119657213D02*
X172990472Y-119618508D01*
X172990472Y-119618508D02*
X173067882Y-119579803D01*
X173067882Y-119579803D02*
X173261406Y-119579803D01*
X173261406Y-119579803D02*
X173338815Y-119618508D01*
X173338815Y-119618508D02*
X173377520Y-119657213D01*
X173377520Y-119657213D02*
X173416225Y-119734622D01*
X173416225Y-119734622D02*
X173416225Y-119812032D01*
X173416225Y-119812032D02*
X173377520Y-119928146D01*
X173377520Y-119928146D02*
X172913063Y-120392603D01*
X172913063Y-120392603D02*
X173416225Y-120392603D01*
X173719539Y-65618508D02*
X173642129Y-65579803D01*
X173642129Y-65579803D02*
X173526015Y-65579803D01*
X173526015Y-65579803D02*
X173409901Y-65618508D01*
X173409901Y-65618508D02*
X173332491Y-65695918D01*
X173332491Y-65695918D02*
X173293786Y-65773327D01*
X173293786Y-65773327D02*
X173255082Y-65928146D01*
X173255082Y-65928146D02*
X173255082Y-66044260D01*
X173255082Y-66044260D02*
X173293786Y-66199079D01*
X173293786Y-66199079D02*
X173332491Y-66276489D01*
X173332491Y-66276489D02*
X173409901Y-66353899D01*
X173409901Y-66353899D02*
X173526015Y-66392603D01*
X173526015Y-66392603D02*
X173603424Y-66392603D01*
X173603424Y-66392603D02*
X173719539Y-66353899D01*
X173719539Y-66353899D02*
X173758243Y-66315194D01*
X173758243Y-66315194D02*
X173758243Y-66044260D01*
X173758243Y-66044260D02*
X173603424Y-66044260D01*
X174106586Y-65850737D02*
X174106586Y-66392603D01*
X174106586Y-65928146D02*
X174145291Y-65889441D01*
X174145291Y-65889441D02*
X174222701Y-65850737D01*
X174222701Y-65850737D02*
X174338815Y-65850737D01*
X174338815Y-65850737D02*
X174416224Y-65889441D01*
X174416224Y-65889441D02*
X174454929Y-65966851D01*
X174454929Y-65966851D02*
X174454929Y-66392603D01*
X175190319Y-66392603D02*
X175190319Y-65579803D01*
X175190319Y-66353899D02*
X175112910Y-66392603D01*
X175112910Y-66392603D02*
X174958091Y-66392603D01*
X174958091Y-66392603D02*
X174880681Y-66353899D01*
X174880681Y-66353899D02*
X174841976Y-66315194D01*
X174841976Y-66315194D02*
X174803272Y-66237784D01*
X174803272Y-66237784D02*
X174803272Y-66005556D01*
X174803272Y-66005556D02*
X174841976Y-65928146D01*
X174841976Y-65928146D02*
X174880681Y-65889441D01*
X174880681Y-65889441D02*
X174958091Y-65850737D01*
X174958091Y-65850737D02*
X175112910Y-65850737D01*
X175112910Y-65850737D02*
X175190319Y-65889441D01*
X97293786Y-114392603D02*
X97293786Y-113579803D01*
X97293786Y-113579803D02*
X97564720Y-114160375D01*
X97564720Y-114160375D02*
X97835653Y-113579803D01*
X97835653Y-113579803D02*
X97835653Y-114392603D01*
X98183996Y-113657213D02*
X98222700Y-113618508D01*
X98222700Y-113618508D02*
X98300110Y-113579803D01*
X98300110Y-113579803D02*
X98493634Y-113579803D01*
X98493634Y-113579803D02*
X98571043Y-113618508D01*
X98571043Y-113618508D02*
X98609748Y-113657213D01*
X98609748Y-113657213D02*
X98648453Y-113734622D01*
X98648453Y-113734622D02*
X98648453Y-113812032D01*
X98648453Y-113812032D02*
X98609748Y-113928146D01*
X98609748Y-113928146D02*
X98145291Y-114392603D01*
X98145291Y-114392603D02*
X98648453Y-114392603D01*
X98996795Y-114082965D02*
X99616072Y-114082965D01*
X99306433Y-114392603D02*
X99306433Y-113773327D01*
X173448605Y-77579803D02*
X173603424Y-77579803D01*
X173603424Y-77579803D02*
X173680834Y-77618508D01*
X173680834Y-77618508D02*
X173758243Y-77695918D01*
X173758243Y-77695918D02*
X173796948Y-77850737D01*
X173796948Y-77850737D02*
X173796948Y-78121670D01*
X173796948Y-78121670D02*
X173758243Y-78276489D01*
X173758243Y-78276489D02*
X173680834Y-78353899D01*
X173680834Y-78353899D02*
X173603424Y-78392603D01*
X173603424Y-78392603D02*
X173448605Y-78392603D01*
X173448605Y-78392603D02*
X173371196Y-78353899D01*
X173371196Y-78353899D02*
X173293786Y-78276489D01*
X173293786Y-78276489D02*
X173255082Y-78121670D01*
X173255082Y-78121670D02*
X173255082Y-77850737D01*
X173255082Y-77850737D02*
X173293786Y-77695918D01*
X173293786Y-77695918D02*
X173371196Y-77618508D01*
X173371196Y-77618508D02*
X173448605Y-77579803D01*
X174493634Y-77850737D02*
X174493634Y-78392603D01*
X174145291Y-77850737D02*
X174145291Y-78276489D01*
X174145291Y-78276489D02*
X174183996Y-78353899D01*
X174183996Y-78353899D02*
X174261406Y-78392603D01*
X174261406Y-78392603D02*
X174377520Y-78392603D01*
X174377520Y-78392603D02*
X174454929Y-78353899D01*
X174454929Y-78353899D02*
X174493634Y-78315194D01*
X174764567Y-77850737D02*
X175074205Y-77850737D01*
X174880681Y-77579803D02*
X174880681Y-78276489D01*
X174880681Y-78276489D02*
X174919386Y-78353899D01*
X174919386Y-78353899D02*
X174996796Y-78392603D01*
X174996796Y-78392603D02*
X175074205Y-78392603D01*
X123716377Y-51079803D02*
X124219539Y-51079803D01*
X124219539Y-51079803D02*
X123948605Y-51389441D01*
X123948605Y-51389441D02*
X124064720Y-51389441D01*
X124064720Y-51389441D02*
X124142129Y-51428146D01*
X124142129Y-51428146D02*
X124180834Y-51466851D01*
X124180834Y-51466851D02*
X124219539Y-51544260D01*
X124219539Y-51544260D02*
X124219539Y-51737784D01*
X124219539Y-51737784D02*
X124180834Y-51815194D01*
X124180834Y-51815194D02*
X124142129Y-51853899D01*
X124142129Y-51853899D02*
X124064720Y-51892603D01*
X124064720Y-51892603D02*
X123832491Y-51892603D01*
X123832491Y-51892603D02*
X123755082Y-51853899D01*
X123755082Y-51853899D02*
X123716377Y-51815194D01*
X124490472Y-51350737D02*
X124683996Y-51892603D01*
X124683996Y-51892603D02*
X124877519Y-51350737D01*
X125109748Y-51079803D02*
X125612910Y-51079803D01*
X125612910Y-51079803D02*
X125341976Y-51389441D01*
X125341976Y-51389441D02*
X125458091Y-51389441D01*
X125458091Y-51389441D02*
X125535500Y-51428146D01*
X125535500Y-51428146D02*
X125574205Y-51466851D01*
X125574205Y-51466851D02*
X125612910Y-51544260D01*
X125612910Y-51544260D02*
X125612910Y-51737784D01*
X125612910Y-51737784D02*
X125574205Y-51815194D01*
X125574205Y-51815194D02*
X125535500Y-51853899D01*
X125535500Y-51853899D02*
X125458091Y-51892603D01*
X125458091Y-51892603D02*
X125225862Y-51892603D01*
X125225862Y-51892603D02*
X125148453Y-51853899D01*
X125148453Y-51853899D02*
X125109748Y-51815194D01*
X97677672Y-64579803D02*
X98142129Y-64579803D01*
X97909901Y-65392603D02*
X97909901Y-64579803D01*
X98413062Y-65082965D02*
X99032339Y-65082965D01*
X160755082Y-140657213D02*
X160793786Y-140618508D01*
X160793786Y-140618508D02*
X160871196Y-140579803D01*
X160871196Y-140579803D02*
X161064720Y-140579803D01*
X161064720Y-140579803D02*
X161142129Y-140618508D01*
X161142129Y-140618508D02*
X161180834Y-140657213D01*
X161180834Y-140657213D02*
X161219539Y-140734622D01*
X161219539Y-140734622D02*
X161219539Y-140812032D01*
X161219539Y-140812032D02*
X161180834Y-140928146D01*
X161180834Y-140928146D02*
X160716377Y-141392603D01*
X160716377Y-141392603D02*
X161219539Y-141392603D01*
X161993634Y-141392603D02*
X161529177Y-141392603D01*
X161761405Y-141392603D02*
X161761405Y-140579803D01*
X161761405Y-140579803D02*
X161683996Y-140695918D01*
X161683996Y-140695918D02*
X161606586Y-140773327D01*
X161606586Y-140773327D02*
X161529177Y-140812032D01*
X172564720Y-114966851D02*
X172680834Y-115005556D01*
X172680834Y-115005556D02*
X172719539Y-115044260D01*
X172719539Y-115044260D02*
X172758243Y-115121670D01*
X172758243Y-115121670D02*
X172758243Y-115237784D01*
X172758243Y-115237784D02*
X172719539Y-115315194D01*
X172719539Y-115315194D02*
X172680834Y-115353899D01*
X172680834Y-115353899D02*
X172603424Y-115392603D01*
X172603424Y-115392603D02*
X172293786Y-115392603D01*
X172293786Y-115392603D02*
X172293786Y-114579803D01*
X172293786Y-114579803D02*
X172564720Y-114579803D01*
X172564720Y-114579803D02*
X172642129Y-114618508D01*
X172642129Y-114618508D02*
X172680834Y-114657213D01*
X172680834Y-114657213D02*
X172719539Y-114734622D01*
X172719539Y-114734622D02*
X172719539Y-114812032D01*
X172719539Y-114812032D02*
X172680834Y-114889441D01*
X172680834Y-114889441D02*
X172642129Y-114928146D01*
X172642129Y-114928146D02*
X172564720Y-114966851D01*
X172564720Y-114966851D02*
X172293786Y-114966851D01*
X173532339Y-115392603D02*
X173067882Y-115392603D01*
X173300110Y-115392603D02*
X173300110Y-114579803D01*
X173300110Y-114579803D02*
X173222701Y-114695918D01*
X173222701Y-114695918D02*
X173145291Y-114773327D01*
X173145291Y-114773327D02*
X173067882Y-114812032D01*
D11*
X110773809Y-67538152D02*
X111011904Y-68204819D01*
X111011904Y-68204819D02*
X111249999Y-67538152D01*
X112059523Y-68204819D02*
X112059523Y-67204819D01*
X112059523Y-68157200D02*
X111964285Y-68204819D01*
X111964285Y-68204819D02*
X111773809Y-68204819D01*
X111773809Y-68204819D02*
X111678571Y-68157200D01*
X111678571Y-68157200D02*
X111630952Y-68109580D01*
X111630952Y-68109580D02*
X111583333Y-68014342D01*
X111583333Y-68014342D02*
X111583333Y-67728628D01*
X111583333Y-67728628D02*
X111630952Y-67633390D01*
X111630952Y-67633390D02*
X111678571Y-67585771D01*
X111678571Y-67585771D02*
X111773809Y-67538152D01*
X111773809Y-67538152D02*
X111964285Y-67538152D01*
X111964285Y-67538152D02*
X112059523Y-67585771D01*
X112297619Y-68300057D02*
X113059523Y-68300057D01*
X113726190Y-68157200D02*
X113630952Y-68204819D01*
X113630952Y-68204819D02*
X113440476Y-68204819D01*
X113440476Y-68204819D02*
X113345238Y-68157200D01*
X113345238Y-68157200D02*
X113297619Y-68109580D01*
X113297619Y-68109580D02*
X113250000Y-68014342D01*
X113250000Y-68014342D02*
X113250000Y-67728628D01*
X113250000Y-67728628D02*
X113297619Y-67633390D01*
X113297619Y-67633390D02*
X113345238Y-67585771D01*
X113345238Y-67585771D02*
X113440476Y-67538152D01*
X113440476Y-67538152D02*
X113630952Y-67538152D01*
X113630952Y-67538152D02*
X113726190Y-67585771D01*
X114107143Y-67300057D02*
X114154762Y-67252438D01*
X114154762Y-67252438D02*
X114250000Y-67204819D01*
X114250000Y-67204819D02*
X114488095Y-67204819D01*
X114488095Y-67204819D02*
X114583333Y-67252438D01*
X114583333Y-67252438D02*
X114630952Y-67300057D01*
X114630952Y-67300057D02*
X114678571Y-67395295D01*
X114678571Y-67395295D02*
X114678571Y-67490533D01*
X114678571Y-67490533D02*
X114630952Y-67633390D01*
X114630952Y-67633390D02*
X114059524Y-68204819D01*
X114059524Y-68204819D02*
X114678571Y-68204819D01*
X137323094Y-143429819D02*
X136989761Y-142953628D01*
X136751666Y-143429819D02*
X136751666Y-142429819D01*
X136751666Y-142429819D02*
X137132618Y-142429819D01*
X137132618Y-142429819D02*
X137227856Y-142477438D01*
X137227856Y-142477438D02*
X137275475Y-142525057D01*
X137275475Y-142525057D02*
X137323094Y-142620295D01*
X137323094Y-142620295D02*
X137323094Y-142763152D01*
X137323094Y-142763152D02*
X137275475Y-142858390D01*
X137275475Y-142858390D02*
X137227856Y-142906009D01*
X137227856Y-142906009D02*
X137132618Y-142953628D01*
X137132618Y-142953628D02*
X136751666Y-142953628D01*
X138132618Y-143382200D02*
X138037380Y-143429819D01*
X138037380Y-143429819D02*
X137846904Y-143429819D01*
X137846904Y-143429819D02*
X137751666Y-143382200D01*
X137751666Y-143382200D02*
X137704047Y-143286961D01*
X137704047Y-143286961D02*
X137704047Y-142906009D01*
X137704047Y-142906009D02*
X137751666Y-142810771D01*
X137751666Y-142810771D02*
X137846904Y-142763152D01*
X137846904Y-142763152D02*
X138037380Y-142763152D01*
X138037380Y-142763152D02*
X138132618Y-142810771D01*
X138132618Y-142810771D02*
X138180237Y-142906009D01*
X138180237Y-142906009D02*
X138180237Y-143001247D01*
X138180237Y-143001247D02*
X137704047Y-143096485D01*
X139037380Y-142763152D02*
X139037380Y-143572676D01*
X139037380Y-143572676D02*
X138989761Y-143667914D01*
X138989761Y-143667914D02*
X138942142Y-143715533D01*
X138942142Y-143715533D02*
X138846904Y-143763152D01*
X138846904Y-143763152D02*
X138704047Y-143763152D01*
X138704047Y-143763152D02*
X138608809Y-143715533D01*
X139037380Y-143382200D02*
X138942142Y-143429819D01*
X138942142Y-143429819D02*
X138751666Y-143429819D01*
X138751666Y-143429819D02*
X138656428Y-143382200D01*
X138656428Y-143382200D02*
X138608809Y-143334580D01*
X138608809Y-143334580D02*
X138561190Y-143239342D01*
X138561190Y-143239342D02*
X138561190Y-142953628D01*
X138561190Y-142953628D02*
X138608809Y-142858390D01*
X138608809Y-142858390D02*
X138656428Y-142810771D01*
X138656428Y-142810771D02*
X138751666Y-142763152D01*
X138751666Y-142763152D02*
X138942142Y-142763152D01*
X138942142Y-142763152D02*
X139037380Y-142810771D01*
X139942142Y-142763152D02*
X139942142Y-143429819D01*
X139513571Y-142763152D02*
X139513571Y-143286961D01*
X139513571Y-143286961D02*
X139561190Y-143382200D01*
X139561190Y-143382200D02*
X139656428Y-143429819D01*
X139656428Y-143429819D02*
X139799285Y-143429819D01*
X139799285Y-143429819D02*
X139894523Y-143382200D01*
X139894523Y-143382200D02*
X139942142Y-143334580D01*
X140561190Y-143429819D02*
X140465952Y-143382200D01*
X140465952Y-143382200D02*
X140418333Y-143286961D01*
X140418333Y-143286961D02*
X140418333Y-142429819D01*
X141370714Y-143429819D02*
X141370714Y-142906009D01*
X141370714Y-142906009D02*
X141323095Y-142810771D01*
X141323095Y-142810771D02*
X141227857Y-142763152D01*
X141227857Y-142763152D02*
X141037381Y-142763152D01*
X141037381Y-142763152D02*
X140942143Y-142810771D01*
X141370714Y-143382200D02*
X141275476Y-143429819D01*
X141275476Y-143429819D02*
X141037381Y-143429819D01*
X141037381Y-143429819D02*
X140942143Y-143382200D01*
X140942143Y-143382200D02*
X140894524Y-143286961D01*
X140894524Y-143286961D02*
X140894524Y-143191723D01*
X140894524Y-143191723D02*
X140942143Y-143096485D01*
X140942143Y-143096485D02*
X141037381Y-143048866D01*
X141037381Y-143048866D02*
X141275476Y-143048866D01*
X141275476Y-143048866D02*
X141370714Y-143001247D01*
X141704048Y-142763152D02*
X142085000Y-142763152D01*
X141846905Y-142429819D02*
X141846905Y-143286961D01*
X141846905Y-143286961D02*
X141894524Y-143382200D01*
X141894524Y-143382200D02*
X141989762Y-143429819D01*
X141989762Y-143429819D02*
X142085000Y-143429819D01*
X142561191Y-143429819D02*
X142465953Y-143382200D01*
X142465953Y-143382200D02*
X142418334Y-143334580D01*
X142418334Y-143334580D02*
X142370715Y-143239342D01*
X142370715Y-143239342D02*
X142370715Y-142953628D01*
X142370715Y-142953628D02*
X142418334Y-142858390D01*
X142418334Y-142858390D02*
X142465953Y-142810771D01*
X142465953Y-142810771D02*
X142561191Y-142763152D01*
X142561191Y-142763152D02*
X142704048Y-142763152D01*
X142704048Y-142763152D02*
X142799286Y-142810771D01*
X142799286Y-142810771D02*
X142846905Y-142858390D01*
X142846905Y-142858390D02*
X142894524Y-142953628D01*
X142894524Y-142953628D02*
X142894524Y-143239342D01*
X142894524Y-143239342D02*
X142846905Y-143334580D01*
X142846905Y-143334580D02*
X142799286Y-143382200D01*
X142799286Y-143382200D02*
X142704048Y-143429819D01*
X142704048Y-143429819D02*
X142561191Y-143429819D01*
X143323096Y-143429819D02*
X143323096Y-142763152D01*
X143323096Y-142953628D02*
X143370715Y-142858390D01*
X143370715Y-142858390D02*
X143418334Y-142810771D01*
X143418334Y-142810771D02*
X143513572Y-142763152D01*
X143513572Y-142763152D02*
X143608810Y-142763152D01*
X144465953Y-143429819D02*
X143894525Y-143429819D01*
X144180239Y-143429819D02*
X144180239Y-142429819D01*
X144180239Y-142429819D02*
X144085001Y-142572676D01*
X144085001Y-142572676D02*
X143989763Y-142667914D01*
X143989763Y-142667914D02*
X143894525Y-142715533D01*
X110904166Y-126624819D02*
X110904166Y-125624819D01*
X110904166Y-125624819D02*
X111285118Y-125624819D01*
X111285118Y-125624819D02*
X111380356Y-125672438D01*
X111380356Y-125672438D02*
X111427975Y-125720057D01*
X111427975Y-125720057D02*
X111475594Y-125815295D01*
X111475594Y-125815295D02*
X111475594Y-125958152D01*
X111475594Y-125958152D02*
X111427975Y-126053390D01*
X111427975Y-126053390D02*
X111380356Y-126101009D01*
X111380356Y-126101009D02*
X111285118Y-126148628D01*
X111285118Y-126148628D02*
X110904166Y-126148628D01*
X111761309Y-125624819D02*
X112332737Y-125624819D01*
X112047023Y-126624819D02*
X112047023Y-125624819D01*
X113237499Y-126529580D02*
X113189880Y-126577200D01*
X113189880Y-126577200D02*
X113047023Y-126624819D01*
X113047023Y-126624819D02*
X112951785Y-126624819D01*
X112951785Y-126624819D02*
X112808928Y-126577200D01*
X112808928Y-126577200D02*
X112713690Y-126481961D01*
X112713690Y-126481961D02*
X112666071Y-126386723D01*
X112666071Y-126386723D02*
X112618452Y-126196247D01*
X112618452Y-126196247D02*
X112618452Y-126053390D01*
X112618452Y-126053390D02*
X112666071Y-125862914D01*
X112666071Y-125862914D02*
X112713690Y-125767676D01*
X112713690Y-125767676D02*
X112808928Y-125672438D01*
X112808928Y-125672438D02*
X112951785Y-125624819D01*
X112951785Y-125624819D02*
X113047023Y-125624819D01*
X113047023Y-125624819D02*
X113189880Y-125672438D01*
X113189880Y-125672438D02*
X113237499Y-125720057D01*
X113999404Y-126101009D02*
X113666071Y-126101009D01*
X113666071Y-126624819D02*
X113666071Y-125624819D01*
X113666071Y-125624819D02*
X114142261Y-125624819D01*
X114951785Y-125958152D02*
X114951785Y-126624819D01*
X114523214Y-125958152D02*
X114523214Y-126481961D01*
X114523214Y-126481961D02*
X114570833Y-126577200D01*
X114570833Y-126577200D02*
X114666071Y-126624819D01*
X114666071Y-126624819D02*
X114808928Y-126624819D01*
X114808928Y-126624819D02*
X114904166Y-126577200D01*
X114904166Y-126577200D02*
X114951785Y-126529580D01*
X115380357Y-126577200D02*
X115475595Y-126624819D01*
X115475595Y-126624819D02*
X115666071Y-126624819D01*
X115666071Y-126624819D02*
X115761309Y-126577200D01*
X115761309Y-126577200D02*
X115808928Y-126481961D01*
X115808928Y-126481961D02*
X115808928Y-126434342D01*
X115808928Y-126434342D02*
X115761309Y-126339104D01*
X115761309Y-126339104D02*
X115666071Y-126291485D01*
X115666071Y-126291485D02*
X115523214Y-126291485D01*
X115523214Y-126291485D02*
X115427976Y-126243866D01*
X115427976Y-126243866D02*
X115380357Y-126148628D01*
X115380357Y-126148628D02*
X115380357Y-126101009D01*
X115380357Y-126101009D02*
X115427976Y-126005771D01*
X115427976Y-126005771D02*
X115523214Y-125958152D01*
X115523214Y-125958152D02*
X115666071Y-125958152D01*
X115666071Y-125958152D02*
X115761309Y-126005771D01*
X116618452Y-126577200D02*
X116523214Y-126624819D01*
X116523214Y-126624819D02*
X116332738Y-126624819D01*
X116332738Y-126624819D02*
X116237500Y-126577200D01*
X116237500Y-126577200D02*
X116189881Y-126481961D01*
X116189881Y-126481961D02*
X116189881Y-126101009D01*
X116189881Y-126101009D02*
X116237500Y-126005771D01*
X116237500Y-126005771D02*
X116332738Y-125958152D01*
X116332738Y-125958152D02*
X116523214Y-125958152D01*
X116523214Y-125958152D02*
X116618452Y-126005771D01*
X116618452Y-126005771D02*
X116666071Y-126101009D01*
X116666071Y-126101009D02*
X116666071Y-126196247D01*
X116666071Y-126196247D02*
X116189881Y-126291485D01*
X117618452Y-126624819D02*
X117047024Y-126624819D01*
X117332738Y-126624819D02*
X117332738Y-125624819D01*
X117332738Y-125624819D02*
X117237500Y-125767676D01*
X117237500Y-125767676D02*
X117142262Y-125862914D01*
X117142262Y-125862914D02*
X117047024Y-125910533D01*
X124011905Y-125984819D02*
X124011905Y-124984819D01*
X124011905Y-124984819D02*
X124250000Y-124984819D01*
X124250000Y-124984819D02*
X124392857Y-125032438D01*
X124392857Y-125032438D02*
X124488095Y-125127676D01*
X124488095Y-125127676D02*
X124535714Y-125222914D01*
X124535714Y-125222914D02*
X124583333Y-125413390D01*
X124583333Y-125413390D02*
X124583333Y-125556247D01*
X124583333Y-125556247D02*
X124535714Y-125746723D01*
X124535714Y-125746723D02*
X124488095Y-125841961D01*
X124488095Y-125841961D02*
X124392857Y-125937200D01*
X124392857Y-125937200D02*
X124250000Y-125984819D01*
X124250000Y-125984819D02*
X124011905Y-125984819D01*
X125535714Y-125984819D02*
X124964286Y-125984819D01*
X125250000Y-125984819D02*
X125250000Y-124984819D01*
X125250000Y-124984819D02*
X125154762Y-125127676D01*
X125154762Y-125127676D02*
X125059524Y-125222914D01*
X125059524Y-125222914D02*
X124964286Y-125270533D01*
X119408095Y-126354819D02*
X119408095Y-125354819D01*
X119979523Y-126354819D02*
X119550952Y-125783390D01*
X119979523Y-125354819D02*
X119408095Y-125926247D01*
X117834819Y-121547618D02*
X117168152Y-121547618D01*
X117263390Y-121547618D02*
X117215771Y-121499999D01*
X117215771Y-121499999D02*
X117168152Y-121404761D01*
X117168152Y-121404761D02*
X117168152Y-121261904D01*
X117168152Y-121261904D02*
X117215771Y-121166666D01*
X117215771Y-121166666D02*
X117311009Y-121119047D01*
X117311009Y-121119047D02*
X117834819Y-121119047D01*
X117311009Y-121119047D02*
X117215771Y-121071428D01*
X117215771Y-121071428D02*
X117168152Y-120976190D01*
X117168152Y-120976190D02*
X117168152Y-120833333D01*
X117168152Y-120833333D02*
X117215771Y-120738094D01*
X117215771Y-120738094D02*
X117311009Y-120690475D01*
X117311009Y-120690475D02*
X117834819Y-120690475D01*
X117834819Y-120214285D02*
X117168152Y-120214285D01*
X116834819Y-120214285D02*
X116882438Y-120261904D01*
X116882438Y-120261904D02*
X116930057Y-120214285D01*
X116930057Y-120214285D02*
X116882438Y-120166666D01*
X116882438Y-120166666D02*
X116834819Y-120214285D01*
X116834819Y-120214285D02*
X116930057Y-120214285D01*
X117834819Y-119833333D02*
X117168152Y-119309524D01*
X117168152Y-119833333D02*
X117834819Y-119309524D01*
X117834819Y-118404762D02*
X117834819Y-118976190D01*
X117834819Y-118690476D02*
X116834819Y-118690476D01*
X116834819Y-118690476D02*
X116977676Y-118785714D01*
X116977676Y-118785714D02*
X117072914Y-118880952D01*
X117072914Y-118880952D02*
X117120533Y-118976190D01*
X110240057Y-104865238D02*
X110192438Y-104960476D01*
X110192438Y-104960476D02*
X110097200Y-105055714D01*
X110097200Y-105055714D02*
X109954342Y-105198571D01*
X109954342Y-105198571D02*
X109906723Y-105293809D01*
X109906723Y-105293809D02*
X109906723Y-105389047D01*
X110144819Y-105341428D02*
X110097200Y-105436666D01*
X110097200Y-105436666D02*
X110001961Y-105531904D01*
X110001961Y-105531904D02*
X109811485Y-105579523D01*
X109811485Y-105579523D02*
X109478152Y-105579523D01*
X109478152Y-105579523D02*
X109287676Y-105531904D01*
X109287676Y-105531904D02*
X109192438Y-105436666D01*
X109192438Y-105436666D02*
X109144819Y-105341428D01*
X109144819Y-105341428D02*
X109144819Y-105150952D01*
X109144819Y-105150952D02*
X109192438Y-105055714D01*
X109192438Y-105055714D02*
X109287676Y-104960476D01*
X109287676Y-104960476D02*
X109478152Y-104912857D01*
X109478152Y-104912857D02*
X109811485Y-104912857D01*
X109811485Y-104912857D02*
X110001961Y-104960476D01*
X110001961Y-104960476D02*
X110097200Y-105055714D01*
X110097200Y-105055714D02*
X110144819Y-105150952D01*
X110144819Y-105150952D02*
X110144819Y-105341428D01*
X109144819Y-104579523D02*
X109144819Y-103960476D01*
X109144819Y-103960476D02*
X109525771Y-104293809D01*
X109525771Y-104293809D02*
X109525771Y-104150952D01*
X109525771Y-104150952D02*
X109573390Y-104055714D01*
X109573390Y-104055714D02*
X109621009Y-104008095D01*
X109621009Y-104008095D02*
X109716247Y-103960476D01*
X109716247Y-103960476D02*
X109954342Y-103960476D01*
X109954342Y-103960476D02*
X110049580Y-104008095D01*
X110049580Y-104008095D02*
X110097200Y-104055714D01*
X110097200Y-104055714D02*
X110144819Y-104150952D01*
X110144819Y-104150952D02*
X110144819Y-104436666D01*
X110144819Y-104436666D02*
X110097200Y-104531904D01*
X110097200Y-104531904D02*
X110049580Y-104579523D01*
X159366319Y-118150033D02*
X160080604Y-118150033D01*
X160080604Y-118150033D02*
X160223461Y-118197652D01*
X160223461Y-118197652D02*
X160318700Y-118292890D01*
X160318700Y-118292890D02*
X160366319Y-118435747D01*
X160366319Y-118435747D02*
X160366319Y-118530985D01*
X159366319Y-117769080D02*
X159366319Y-117150033D01*
X159366319Y-117150033D02*
X159747271Y-117483366D01*
X159747271Y-117483366D02*
X159747271Y-117340509D01*
X159747271Y-117340509D02*
X159794890Y-117245271D01*
X159794890Y-117245271D02*
X159842509Y-117197652D01*
X159842509Y-117197652D02*
X159937747Y-117150033D01*
X159937747Y-117150033D02*
X160175842Y-117150033D01*
X160175842Y-117150033D02*
X160271080Y-117197652D01*
X160271080Y-117197652D02*
X160318700Y-117245271D01*
X160318700Y-117245271D02*
X160366319Y-117340509D01*
X160366319Y-117340509D02*
X160366319Y-117626223D01*
X160366319Y-117626223D02*
X160318700Y-117721461D01*
X160318700Y-117721461D02*
X160271080Y-117769080D01*
X137535714Y-126454819D02*
X137535714Y-125788152D01*
X137535714Y-125883390D02*
X137583333Y-125835771D01*
X137583333Y-125835771D02*
X137678571Y-125788152D01*
X137678571Y-125788152D02*
X137821428Y-125788152D01*
X137821428Y-125788152D02*
X137916666Y-125835771D01*
X137916666Y-125835771D02*
X137964285Y-125931009D01*
X137964285Y-125931009D02*
X137964285Y-126454819D01*
X137964285Y-125931009D02*
X138011904Y-125835771D01*
X138011904Y-125835771D02*
X138107142Y-125788152D01*
X138107142Y-125788152D02*
X138249999Y-125788152D01*
X138249999Y-125788152D02*
X138345238Y-125835771D01*
X138345238Y-125835771D02*
X138392857Y-125931009D01*
X138392857Y-125931009D02*
X138392857Y-126454819D01*
X139011904Y-126454819D02*
X138916666Y-126407200D01*
X138916666Y-126407200D02*
X138869047Y-126359580D01*
X138869047Y-126359580D02*
X138821428Y-126264342D01*
X138821428Y-126264342D02*
X138821428Y-125978628D01*
X138821428Y-125978628D02*
X138869047Y-125883390D01*
X138869047Y-125883390D02*
X138916666Y-125835771D01*
X138916666Y-125835771D02*
X139011904Y-125788152D01*
X139011904Y-125788152D02*
X139154761Y-125788152D01*
X139154761Y-125788152D02*
X139249999Y-125835771D01*
X139249999Y-125835771D02*
X139297618Y-125883390D01*
X139297618Y-125883390D02*
X139345237Y-125978628D01*
X139345237Y-125978628D02*
X139345237Y-126264342D01*
X139345237Y-126264342D02*
X139297618Y-126359580D01*
X139297618Y-126359580D02*
X139249999Y-126407200D01*
X139249999Y-126407200D02*
X139154761Y-126454819D01*
X139154761Y-126454819D02*
X139011904Y-126454819D01*
X139630952Y-125788152D02*
X140011904Y-125788152D01*
X139773809Y-125454819D02*
X139773809Y-126311961D01*
X139773809Y-126311961D02*
X139821428Y-126407200D01*
X139821428Y-126407200D02*
X139916666Y-126454819D01*
X139916666Y-126454819D02*
X140011904Y-126454819D01*
X140488095Y-126454819D02*
X140392857Y-126407200D01*
X140392857Y-126407200D02*
X140345238Y-126359580D01*
X140345238Y-126359580D02*
X140297619Y-126264342D01*
X140297619Y-126264342D02*
X140297619Y-125978628D01*
X140297619Y-125978628D02*
X140345238Y-125883390D01*
X140345238Y-125883390D02*
X140392857Y-125835771D01*
X140392857Y-125835771D02*
X140488095Y-125788152D01*
X140488095Y-125788152D02*
X140630952Y-125788152D01*
X140630952Y-125788152D02*
X140726190Y-125835771D01*
X140726190Y-125835771D02*
X140773809Y-125883390D01*
X140773809Y-125883390D02*
X140821428Y-125978628D01*
X140821428Y-125978628D02*
X140821428Y-126264342D01*
X140821428Y-126264342D02*
X140773809Y-126359580D01*
X140773809Y-126359580D02*
X140726190Y-126407200D01*
X140726190Y-126407200D02*
X140630952Y-126454819D01*
X140630952Y-126454819D02*
X140488095Y-126454819D01*
X141250000Y-126454819D02*
X141250000Y-125788152D01*
X141250000Y-125978628D02*
X141297619Y-125883390D01*
X141297619Y-125883390D02*
X141345238Y-125835771D01*
X141345238Y-125835771D02*
X141440476Y-125788152D01*
X141440476Y-125788152D02*
X141535714Y-125788152D01*
X141630953Y-126550057D02*
X142392857Y-126550057D01*
X143059524Y-126407200D02*
X142964286Y-126454819D01*
X142964286Y-126454819D02*
X142773810Y-126454819D01*
X142773810Y-126454819D02*
X142678572Y-126407200D01*
X142678572Y-126407200D02*
X142630953Y-126359580D01*
X142630953Y-126359580D02*
X142583334Y-126264342D01*
X142583334Y-126264342D02*
X142583334Y-125978628D01*
X142583334Y-125978628D02*
X142630953Y-125883390D01*
X142630953Y-125883390D02*
X142678572Y-125835771D01*
X142678572Y-125835771D02*
X142773810Y-125788152D01*
X142773810Y-125788152D02*
X142964286Y-125788152D01*
X142964286Y-125788152D02*
X143059524Y-125835771D01*
X144011905Y-126454819D02*
X143440477Y-126454819D01*
X143726191Y-126454819D02*
X143726191Y-125454819D01*
X143726191Y-125454819D02*
X143630953Y-125597676D01*
X143630953Y-125597676D02*
X143535715Y-125692914D01*
X143535715Y-125692914D02*
X143440477Y-125740533D01*
X117238152Y-70226190D02*
X117904819Y-69988095D01*
X117904819Y-69988095D02*
X117238152Y-69750000D01*
X117904819Y-68940476D02*
X116904819Y-68940476D01*
X117857200Y-68940476D02*
X117904819Y-69035714D01*
X117904819Y-69035714D02*
X117904819Y-69226190D01*
X117904819Y-69226190D02*
X117857200Y-69321428D01*
X117857200Y-69321428D02*
X117809580Y-69369047D01*
X117809580Y-69369047D02*
X117714342Y-69416666D01*
X117714342Y-69416666D02*
X117428628Y-69416666D01*
X117428628Y-69416666D02*
X117333390Y-69369047D01*
X117333390Y-69369047D02*
X117285771Y-69321428D01*
X117285771Y-69321428D02*
X117238152Y-69226190D01*
X117238152Y-69226190D02*
X117238152Y-69035714D01*
X117238152Y-69035714D02*
X117285771Y-68940476D01*
X118000057Y-68702381D02*
X118000057Y-67940476D01*
X117857200Y-67273809D02*
X117904819Y-67369047D01*
X117904819Y-67369047D02*
X117904819Y-67559523D01*
X117904819Y-67559523D02*
X117857200Y-67654761D01*
X117857200Y-67654761D02*
X117809580Y-67702380D01*
X117809580Y-67702380D02*
X117714342Y-67749999D01*
X117714342Y-67749999D02*
X117428628Y-67749999D01*
X117428628Y-67749999D02*
X117333390Y-67702380D01*
X117333390Y-67702380D02*
X117285771Y-67654761D01*
X117285771Y-67654761D02*
X117238152Y-67559523D01*
X117238152Y-67559523D02*
X117238152Y-67369047D01*
X117238152Y-67369047D02*
X117285771Y-67273809D01*
X117904819Y-66321428D02*
X117904819Y-66892856D01*
X117904819Y-66607142D02*
X116904819Y-66607142D01*
X116904819Y-66607142D02*
X117047676Y-66702380D01*
X117047676Y-66702380D02*
X117142914Y-66797618D01*
X117142914Y-66797618D02*
X117190533Y-66892856D01*
X116785714Y-62954819D02*
X116785714Y-61954819D01*
X116785714Y-61954819D02*
X117119047Y-62669104D01*
X117119047Y-62669104D02*
X117452380Y-61954819D01*
X117452380Y-61954819D02*
X117452380Y-62954819D01*
X118071428Y-62954819D02*
X117976190Y-62907200D01*
X117976190Y-62907200D02*
X117928571Y-62859580D01*
X117928571Y-62859580D02*
X117880952Y-62764342D01*
X117880952Y-62764342D02*
X117880952Y-62478628D01*
X117880952Y-62478628D02*
X117928571Y-62383390D01*
X117928571Y-62383390D02*
X117976190Y-62335771D01*
X117976190Y-62335771D02*
X118071428Y-62288152D01*
X118071428Y-62288152D02*
X118214285Y-62288152D01*
X118214285Y-62288152D02*
X118309523Y-62335771D01*
X118309523Y-62335771D02*
X118357142Y-62383390D01*
X118357142Y-62383390D02*
X118404761Y-62478628D01*
X118404761Y-62478628D02*
X118404761Y-62764342D01*
X118404761Y-62764342D02*
X118357142Y-62859580D01*
X118357142Y-62859580D02*
X118309523Y-62907200D01*
X118309523Y-62907200D02*
X118214285Y-62954819D01*
X118214285Y-62954819D02*
X118071428Y-62954819D01*
X118738095Y-62288152D02*
X118976190Y-62954819D01*
X118976190Y-62954819D02*
X119214285Y-62288152D01*
X119595238Y-62954819D02*
X119595238Y-62288152D01*
X119595238Y-61954819D02*
X119547619Y-62002438D01*
X119547619Y-62002438D02*
X119595238Y-62050057D01*
X119595238Y-62050057D02*
X119642857Y-62002438D01*
X119642857Y-62002438D02*
X119595238Y-61954819D01*
X119595238Y-61954819D02*
X119595238Y-62050057D01*
X120071428Y-62288152D02*
X120071428Y-62954819D01*
X120071428Y-62383390D02*
X120119047Y-62335771D01*
X120119047Y-62335771D02*
X120214285Y-62288152D01*
X120214285Y-62288152D02*
X120357142Y-62288152D01*
X120357142Y-62288152D02*
X120452380Y-62335771D01*
X120452380Y-62335771D02*
X120499999Y-62431009D01*
X120499999Y-62431009D02*
X120499999Y-62954819D01*
X121404761Y-62288152D02*
X121404761Y-63097676D01*
X121404761Y-63097676D02*
X121357142Y-63192914D01*
X121357142Y-63192914D02*
X121309523Y-63240533D01*
X121309523Y-63240533D02*
X121214285Y-63288152D01*
X121214285Y-63288152D02*
X121071428Y-63288152D01*
X121071428Y-63288152D02*
X120976190Y-63240533D01*
X121404761Y-62907200D02*
X121309523Y-62954819D01*
X121309523Y-62954819D02*
X121119047Y-62954819D01*
X121119047Y-62954819D02*
X121023809Y-62907200D01*
X121023809Y-62907200D02*
X120976190Y-62859580D01*
X120976190Y-62859580D02*
X120928571Y-62764342D01*
X120928571Y-62764342D02*
X120928571Y-62478628D01*
X120928571Y-62478628D02*
X120976190Y-62383390D01*
X120976190Y-62383390D02*
X121023809Y-62335771D01*
X121023809Y-62335771D02*
X121119047Y-62288152D01*
X121119047Y-62288152D02*
X121309523Y-62288152D01*
X121309523Y-62288152D02*
X121404761Y-62335771D01*
X122214285Y-62431009D02*
X122357142Y-62478628D01*
X122357142Y-62478628D02*
X122404761Y-62526247D01*
X122404761Y-62526247D02*
X122452380Y-62621485D01*
X122452380Y-62621485D02*
X122452380Y-62764342D01*
X122452380Y-62764342D02*
X122404761Y-62859580D01*
X122404761Y-62859580D02*
X122357142Y-62907200D01*
X122357142Y-62907200D02*
X122261904Y-62954819D01*
X122261904Y-62954819D02*
X121880952Y-62954819D01*
X121880952Y-62954819D02*
X121880952Y-61954819D01*
X121880952Y-61954819D02*
X122214285Y-61954819D01*
X122214285Y-61954819D02*
X122309523Y-62002438D01*
X122309523Y-62002438D02*
X122357142Y-62050057D01*
X122357142Y-62050057D02*
X122404761Y-62145295D01*
X122404761Y-62145295D02*
X122404761Y-62240533D01*
X122404761Y-62240533D02*
X122357142Y-62335771D01*
X122357142Y-62335771D02*
X122309523Y-62383390D01*
X122309523Y-62383390D02*
X122214285Y-62431009D01*
X122214285Y-62431009D02*
X121880952Y-62431009D01*
X123309523Y-62288152D02*
X123309523Y-62954819D01*
X122880952Y-62288152D02*
X122880952Y-62811961D01*
X122880952Y-62811961D02*
X122928571Y-62907200D01*
X122928571Y-62907200D02*
X123023809Y-62954819D01*
X123023809Y-62954819D02*
X123166666Y-62954819D01*
X123166666Y-62954819D02*
X123261904Y-62907200D01*
X123261904Y-62907200D02*
X123309523Y-62859580D01*
X123785714Y-62954819D02*
X123785714Y-62288152D01*
X123785714Y-62383390D02*
X123833333Y-62335771D01*
X123833333Y-62335771D02*
X123928571Y-62288152D01*
X123928571Y-62288152D02*
X124071428Y-62288152D01*
X124071428Y-62288152D02*
X124166666Y-62335771D01*
X124166666Y-62335771D02*
X124214285Y-62431009D01*
X124214285Y-62431009D02*
X124214285Y-62954819D01*
X124214285Y-62431009D02*
X124261904Y-62335771D01*
X124261904Y-62335771D02*
X124357142Y-62288152D01*
X124357142Y-62288152D02*
X124499999Y-62288152D01*
X124499999Y-62288152D02*
X124595238Y-62335771D01*
X124595238Y-62335771D02*
X124642857Y-62431009D01*
X124642857Y-62431009D02*
X124642857Y-62954819D01*
X125119047Y-62288152D02*
X125119047Y-63288152D01*
X125119047Y-62335771D02*
X125214285Y-62288152D01*
X125214285Y-62288152D02*
X125404761Y-62288152D01*
X125404761Y-62288152D02*
X125499999Y-62335771D01*
X125499999Y-62335771D02*
X125547618Y-62383390D01*
X125547618Y-62383390D02*
X125595237Y-62478628D01*
X125595237Y-62478628D02*
X125595237Y-62764342D01*
X125595237Y-62764342D02*
X125547618Y-62859580D01*
X125547618Y-62859580D02*
X125499999Y-62907200D01*
X125499999Y-62907200D02*
X125404761Y-62954819D01*
X125404761Y-62954819D02*
X125214285Y-62954819D01*
X125214285Y-62954819D02*
X125119047Y-62907200D01*
X126404761Y-62907200D02*
X126309523Y-62954819D01*
X126309523Y-62954819D02*
X126119047Y-62954819D01*
X126119047Y-62954819D02*
X126023809Y-62907200D01*
X126023809Y-62907200D02*
X125976190Y-62811961D01*
X125976190Y-62811961D02*
X125976190Y-62431009D01*
X125976190Y-62431009D02*
X126023809Y-62335771D01*
X126023809Y-62335771D02*
X126119047Y-62288152D01*
X126119047Y-62288152D02*
X126309523Y-62288152D01*
X126309523Y-62288152D02*
X126404761Y-62335771D01*
X126404761Y-62335771D02*
X126452380Y-62431009D01*
X126452380Y-62431009D02*
X126452380Y-62526247D01*
X126452380Y-62526247D02*
X125976190Y-62621485D01*
X126880952Y-62954819D02*
X126880952Y-62288152D01*
X126880952Y-62478628D02*
X126928571Y-62383390D01*
X126928571Y-62383390D02*
X126976190Y-62335771D01*
X126976190Y-62335771D02*
X127071428Y-62288152D01*
X127071428Y-62288152D02*
X127166666Y-62288152D01*
X127261905Y-63050057D02*
X128023809Y-63050057D01*
X128261905Y-62954819D02*
X128261905Y-61954819D01*
X128261905Y-62335771D02*
X128357143Y-62288152D01*
X128357143Y-62288152D02*
X128547619Y-62288152D01*
X128547619Y-62288152D02*
X128642857Y-62335771D01*
X128642857Y-62335771D02*
X128690476Y-62383390D01*
X128690476Y-62383390D02*
X128738095Y-62478628D01*
X128738095Y-62478628D02*
X128738095Y-62764342D01*
X128738095Y-62764342D02*
X128690476Y-62859580D01*
X128690476Y-62859580D02*
X128642857Y-62907200D01*
X128642857Y-62907200D02*
X128547619Y-62954819D01*
X128547619Y-62954819D02*
X128357143Y-62954819D01*
X128357143Y-62954819D02*
X128261905Y-62907200D01*
X129595238Y-62954819D02*
X129595238Y-62431009D01*
X129595238Y-62431009D02*
X129547619Y-62335771D01*
X129547619Y-62335771D02*
X129452381Y-62288152D01*
X129452381Y-62288152D02*
X129261905Y-62288152D01*
X129261905Y-62288152D02*
X129166667Y-62335771D01*
X129595238Y-62907200D02*
X129500000Y-62954819D01*
X129500000Y-62954819D02*
X129261905Y-62954819D01*
X129261905Y-62954819D02*
X129166667Y-62907200D01*
X129166667Y-62907200D02*
X129119048Y-62811961D01*
X129119048Y-62811961D02*
X129119048Y-62716723D01*
X129119048Y-62716723D02*
X129166667Y-62621485D01*
X129166667Y-62621485D02*
X129261905Y-62573866D01*
X129261905Y-62573866D02*
X129500000Y-62573866D01*
X129500000Y-62573866D02*
X129595238Y-62526247D01*
X130500000Y-62907200D02*
X130404762Y-62954819D01*
X130404762Y-62954819D02*
X130214286Y-62954819D01*
X130214286Y-62954819D02*
X130119048Y-62907200D01*
X130119048Y-62907200D02*
X130071429Y-62859580D01*
X130071429Y-62859580D02*
X130023810Y-62764342D01*
X130023810Y-62764342D02*
X130023810Y-62478628D01*
X130023810Y-62478628D02*
X130071429Y-62383390D01*
X130071429Y-62383390D02*
X130119048Y-62335771D01*
X130119048Y-62335771D02*
X130214286Y-62288152D01*
X130214286Y-62288152D02*
X130404762Y-62288152D01*
X130404762Y-62288152D02*
X130500000Y-62335771D01*
X130928572Y-62954819D02*
X130928572Y-61954819D01*
X131023810Y-62573866D02*
X131309524Y-62954819D01*
X131309524Y-62288152D02*
X130928572Y-62669104D01*
X132261905Y-62954819D02*
X131690477Y-62954819D01*
X131976191Y-62954819D02*
X131976191Y-61954819D01*
X131976191Y-61954819D02*
X131880953Y-62097676D01*
X131880953Y-62097676D02*
X131785715Y-62192914D01*
X131785715Y-62192914D02*
X131690477Y-62240533D01*
X134885994Y-63255219D02*
X134885994Y-62255219D01*
X134885994Y-62255219D02*
X135219327Y-62969504D01*
X135219327Y-62969504D02*
X135552660Y-62255219D01*
X135552660Y-62255219D02*
X135552660Y-63255219D01*
X136171708Y-63255219D02*
X136076470Y-63207600D01*
X136076470Y-63207600D02*
X136028851Y-63159980D01*
X136028851Y-63159980D02*
X135981232Y-63064742D01*
X135981232Y-63064742D02*
X135981232Y-62779028D01*
X135981232Y-62779028D02*
X136028851Y-62683790D01*
X136028851Y-62683790D02*
X136076470Y-62636171D01*
X136076470Y-62636171D02*
X136171708Y-62588552D01*
X136171708Y-62588552D02*
X136314565Y-62588552D01*
X136314565Y-62588552D02*
X136409803Y-62636171D01*
X136409803Y-62636171D02*
X136457422Y-62683790D01*
X136457422Y-62683790D02*
X136505041Y-62779028D01*
X136505041Y-62779028D02*
X136505041Y-63064742D01*
X136505041Y-63064742D02*
X136457422Y-63159980D01*
X136457422Y-63159980D02*
X136409803Y-63207600D01*
X136409803Y-63207600D02*
X136314565Y-63255219D01*
X136314565Y-63255219D02*
X136171708Y-63255219D01*
X136838375Y-62588552D02*
X137076470Y-63255219D01*
X137076470Y-63255219D02*
X137314565Y-62588552D01*
X137695518Y-63255219D02*
X137695518Y-62588552D01*
X137695518Y-62255219D02*
X137647899Y-62302838D01*
X137647899Y-62302838D02*
X137695518Y-62350457D01*
X137695518Y-62350457D02*
X137743137Y-62302838D01*
X137743137Y-62302838D02*
X137695518Y-62255219D01*
X137695518Y-62255219D02*
X137695518Y-62350457D01*
X138171708Y-62588552D02*
X138171708Y-63255219D01*
X138171708Y-62683790D02*
X138219327Y-62636171D01*
X138219327Y-62636171D02*
X138314565Y-62588552D01*
X138314565Y-62588552D02*
X138457422Y-62588552D01*
X138457422Y-62588552D02*
X138552660Y-62636171D01*
X138552660Y-62636171D02*
X138600279Y-62731409D01*
X138600279Y-62731409D02*
X138600279Y-63255219D01*
X139505041Y-62588552D02*
X139505041Y-63398076D01*
X139505041Y-63398076D02*
X139457422Y-63493314D01*
X139457422Y-63493314D02*
X139409803Y-63540933D01*
X139409803Y-63540933D02*
X139314565Y-63588552D01*
X139314565Y-63588552D02*
X139171708Y-63588552D01*
X139171708Y-63588552D02*
X139076470Y-63540933D01*
X139505041Y-63207600D02*
X139409803Y-63255219D01*
X139409803Y-63255219D02*
X139219327Y-63255219D01*
X139219327Y-63255219D02*
X139124089Y-63207600D01*
X139124089Y-63207600D02*
X139076470Y-63159980D01*
X139076470Y-63159980D02*
X139028851Y-63064742D01*
X139028851Y-63064742D02*
X139028851Y-62779028D01*
X139028851Y-62779028D02*
X139076470Y-62683790D01*
X139076470Y-62683790D02*
X139124089Y-62636171D01*
X139124089Y-62636171D02*
X139219327Y-62588552D01*
X139219327Y-62588552D02*
X139409803Y-62588552D01*
X139409803Y-62588552D02*
X139505041Y-62636171D01*
X140314565Y-62731409D02*
X140457422Y-62779028D01*
X140457422Y-62779028D02*
X140505041Y-62826647D01*
X140505041Y-62826647D02*
X140552660Y-62921885D01*
X140552660Y-62921885D02*
X140552660Y-63064742D01*
X140552660Y-63064742D02*
X140505041Y-63159980D01*
X140505041Y-63159980D02*
X140457422Y-63207600D01*
X140457422Y-63207600D02*
X140362184Y-63255219D01*
X140362184Y-63255219D02*
X139981232Y-63255219D01*
X139981232Y-63255219D02*
X139981232Y-62255219D01*
X139981232Y-62255219D02*
X140314565Y-62255219D01*
X140314565Y-62255219D02*
X140409803Y-62302838D01*
X140409803Y-62302838D02*
X140457422Y-62350457D01*
X140457422Y-62350457D02*
X140505041Y-62445695D01*
X140505041Y-62445695D02*
X140505041Y-62540933D01*
X140505041Y-62540933D02*
X140457422Y-62636171D01*
X140457422Y-62636171D02*
X140409803Y-62683790D01*
X140409803Y-62683790D02*
X140314565Y-62731409D01*
X140314565Y-62731409D02*
X139981232Y-62731409D01*
X141409803Y-62588552D02*
X141409803Y-63255219D01*
X140981232Y-62588552D02*
X140981232Y-63112361D01*
X140981232Y-63112361D02*
X141028851Y-63207600D01*
X141028851Y-63207600D02*
X141124089Y-63255219D01*
X141124089Y-63255219D02*
X141266946Y-63255219D01*
X141266946Y-63255219D02*
X141362184Y-63207600D01*
X141362184Y-63207600D02*
X141409803Y-63159980D01*
X141885994Y-63255219D02*
X141885994Y-62588552D01*
X141885994Y-62683790D02*
X141933613Y-62636171D01*
X141933613Y-62636171D02*
X142028851Y-62588552D01*
X142028851Y-62588552D02*
X142171708Y-62588552D01*
X142171708Y-62588552D02*
X142266946Y-62636171D01*
X142266946Y-62636171D02*
X142314565Y-62731409D01*
X142314565Y-62731409D02*
X142314565Y-63255219D01*
X142314565Y-62731409D02*
X142362184Y-62636171D01*
X142362184Y-62636171D02*
X142457422Y-62588552D01*
X142457422Y-62588552D02*
X142600279Y-62588552D01*
X142600279Y-62588552D02*
X142695518Y-62636171D01*
X142695518Y-62636171D02*
X142743137Y-62731409D01*
X142743137Y-62731409D02*
X142743137Y-63255219D01*
X143219327Y-62588552D02*
X143219327Y-63588552D01*
X143219327Y-62636171D02*
X143314565Y-62588552D01*
X143314565Y-62588552D02*
X143505041Y-62588552D01*
X143505041Y-62588552D02*
X143600279Y-62636171D01*
X143600279Y-62636171D02*
X143647898Y-62683790D01*
X143647898Y-62683790D02*
X143695517Y-62779028D01*
X143695517Y-62779028D02*
X143695517Y-63064742D01*
X143695517Y-63064742D02*
X143647898Y-63159980D01*
X143647898Y-63159980D02*
X143600279Y-63207600D01*
X143600279Y-63207600D02*
X143505041Y-63255219D01*
X143505041Y-63255219D02*
X143314565Y-63255219D01*
X143314565Y-63255219D02*
X143219327Y-63207600D01*
X144505041Y-63207600D02*
X144409803Y-63255219D01*
X144409803Y-63255219D02*
X144219327Y-63255219D01*
X144219327Y-63255219D02*
X144124089Y-63207600D01*
X144124089Y-63207600D02*
X144076470Y-63112361D01*
X144076470Y-63112361D02*
X144076470Y-62731409D01*
X144076470Y-62731409D02*
X144124089Y-62636171D01*
X144124089Y-62636171D02*
X144219327Y-62588552D01*
X144219327Y-62588552D02*
X144409803Y-62588552D01*
X144409803Y-62588552D02*
X144505041Y-62636171D01*
X144505041Y-62636171D02*
X144552660Y-62731409D01*
X144552660Y-62731409D02*
X144552660Y-62826647D01*
X144552660Y-62826647D02*
X144076470Y-62921885D01*
X144981232Y-63255219D02*
X144981232Y-62588552D01*
X144981232Y-62779028D02*
X145028851Y-62683790D01*
X145028851Y-62683790D02*
X145076470Y-62636171D01*
X145076470Y-62636171D02*
X145171708Y-62588552D01*
X145171708Y-62588552D02*
X145266946Y-62588552D01*
X145362185Y-63350457D02*
X146124089Y-63350457D01*
X146219328Y-62588552D02*
X146600280Y-62588552D01*
X146362185Y-63255219D02*
X146362185Y-62398076D01*
X146362185Y-62398076D02*
X146409804Y-62302838D01*
X146409804Y-62302838D02*
X146505042Y-62255219D01*
X146505042Y-62255219D02*
X146600280Y-62255219D01*
X146933614Y-63255219D02*
X146933614Y-62588552D01*
X146933614Y-62779028D02*
X146981233Y-62683790D01*
X146981233Y-62683790D02*
X147028852Y-62636171D01*
X147028852Y-62636171D02*
X147124090Y-62588552D01*
X147124090Y-62588552D02*
X147219328Y-62588552D01*
X147695519Y-63255219D02*
X147600281Y-63207600D01*
X147600281Y-63207600D02*
X147552662Y-63159980D01*
X147552662Y-63159980D02*
X147505043Y-63064742D01*
X147505043Y-63064742D02*
X147505043Y-62779028D01*
X147505043Y-62779028D02*
X147552662Y-62683790D01*
X147552662Y-62683790D02*
X147600281Y-62636171D01*
X147600281Y-62636171D02*
X147695519Y-62588552D01*
X147695519Y-62588552D02*
X147838376Y-62588552D01*
X147838376Y-62588552D02*
X147933614Y-62636171D01*
X147933614Y-62636171D02*
X147981233Y-62683790D01*
X147981233Y-62683790D02*
X148028852Y-62779028D01*
X148028852Y-62779028D02*
X148028852Y-63064742D01*
X148028852Y-63064742D02*
X147981233Y-63159980D01*
X147981233Y-63159980D02*
X147933614Y-63207600D01*
X147933614Y-63207600D02*
X147838376Y-63255219D01*
X147838376Y-63255219D02*
X147695519Y-63255219D01*
X148457424Y-62588552D02*
X148457424Y-63255219D01*
X148457424Y-62683790D02*
X148505043Y-62636171D01*
X148505043Y-62636171D02*
X148600281Y-62588552D01*
X148600281Y-62588552D02*
X148743138Y-62588552D01*
X148743138Y-62588552D02*
X148838376Y-62636171D01*
X148838376Y-62636171D02*
X148885995Y-62731409D01*
X148885995Y-62731409D02*
X148885995Y-63255219D01*
X149219329Y-62588552D02*
X149600281Y-62588552D01*
X149362186Y-62255219D02*
X149362186Y-63112361D01*
X149362186Y-63112361D02*
X149409805Y-63207600D01*
X149409805Y-63207600D02*
X149505043Y-63255219D01*
X149505043Y-63255219D02*
X149600281Y-63255219D01*
X150457424Y-63255219D02*
X149885996Y-63255219D01*
X150171710Y-63255219D02*
X150171710Y-62255219D01*
X150171710Y-62255219D02*
X150076472Y-62398076D01*
X150076472Y-62398076D02*
X149981234Y-62493314D01*
X149981234Y-62493314D02*
X149885996Y-62540933D01*
X154095475Y-140012219D02*
X154095475Y-139012219D01*
X154095475Y-139012219D02*
X154333570Y-139012219D01*
X154333570Y-139012219D02*
X154476427Y-139059838D01*
X154476427Y-139059838D02*
X154571665Y-139155076D01*
X154571665Y-139155076D02*
X154619284Y-139250314D01*
X154619284Y-139250314D02*
X154666903Y-139440790D01*
X154666903Y-139440790D02*
X154666903Y-139583647D01*
X154666903Y-139583647D02*
X154619284Y-139774123D01*
X154619284Y-139774123D02*
X154571665Y-139869361D01*
X154571665Y-139869361D02*
X154476427Y-139964600D01*
X154476427Y-139964600D02*
X154333570Y-140012219D01*
X154333570Y-140012219D02*
X154095475Y-140012219D01*
X155476427Y-139964600D02*
X155381189Y-140012219D01*
X155381189Y-140012219D02*
X155190713Y-140012219D01*
X155190713Y-140012219D02*
X155095475Y-139964600D01*
X155095475Y-139964600D02*
X155047856Y-139869361D01*
X155047856Y-139869361D02*
X155047856Y-139488409D01*
X155047856Y-139488409D02*
X155095475Y-139393171D01*
X155095475Y-139393171D02*
X155190713Y-139345552D01*
X155190713Y-139345552D02*
X155381189Y-139345552D01*
X155381189Y-139345552D02*
X155476427Y-139393171D01*
X155476427Y-139393171D02*
X155524046Y-139488409D01*
X155524046Y-139488409D02*
X155524046Y-139583647D01*
X155524046Y-139583647D02*
X155047856Y-139678885D01*
X155952618Y-140012219D02*
X155952618Y-139012219D01*
X155952618Y-139393171D02*
X156047856Y-139345552D01*
X156047856Y-139345552D02*
X156238332Y-139345552D01*
X156238332Y-139345552D02*
X156333570Y-139393171D01*
X156333570Y-139393171D02*
X156381189Y-139440790D01*
X156381189Y-139440790D02*
X156428808Y-139536028D01*
X156428808Y-139536028D02*
X156428808Y-139821742D01*
X156428808Y-139821742D02*
X156381189Y-139916980D01*
X156381189Y-139916980D02*
X156333570Y-139964600D01*
X156333570Y-139964600D02*
X156238332Y-140012219D01*
X156238332Y-140012219D02*
X156047856Y-140012219D01*
X156047856Y-140012219D02*
X155952618Y-139964600D01*
X157285951Y-139345552D02*
X157285951Y-140012219D01*
X156857380Y-139345552D02*
X156857380Y-139869361D01*
X156857380Y-139869361D02*
X156904999Y-139964600D01*
X156904999Y-139964600D02*
X157000237Y-140012219D01*
X157000237Y-140012219D02*
X157143094Y-140012219D01*
X157143094Y-140012219D02*
X157238332Y-139964600D01*
X157238332Y-139964600D02*
X157285951Y-139916980D01*
X158190713Y-139345552D02*
X158190713Y-140155076D01*
X158190713Y-140155076D02*
X158143094Y-140250314D01*
X158143094Y-140250314D02*
X158095475Y-140297933D01*
X158095475Y-140297933D02*
X158000237Y-140345552D01*
X158000237Y-140345552D02*
X157857380Y-140345552D01*
X157857380Y-140345552D02*
X157762142Y-140297933D01*
X158190713Y-139964600D02*
X158095475Y-140012219D01*
X158095475Y-140012219D02*
X157904999Y-140012219D01*
X157904999Y-140012219D02*
X157809761Y-139964600D01*
X157809761Y-139964600D02*
X157762142Y-139916980D01*
X157762142Y-139916980D02*
X157714523Y-139821742D01*
X157714523Y-139821742D02*
X157714523Y-139536028D01*
X157714523Y-139536028D02*
X157762142Y-139440790D01*
X157762142Y-139440790D02*
X157809761Y-139393171D01*
X157809761Y-139393171D02*
X157904999Y-139345552D01*
X157904999Y-139345552D02*
X158095475Y-139345552D01*
X158095475Y-139345552D02*
X158190713Y-139393171D01*
X158428809Y-140107457D02*
X159190713Y-140107457D01*
X159428809Y-139345552D02*
X159428809Y-140345552D01*
X159428809Y-139393171D02*
X159524047Y-139345552D01*
X159524047Y-139345552D02*
X159714523Y-139345552D01*
X159714523Y-139345552D02*
X159809761Y-139393171D01*
X159809761Y-139393171D02*
X159857380Y-139440790D01*
X159857380Y-139440790D02*
X159904999Y-139536028D01*
X159904999Y-139536028D02*
X159904999Y-139821742D01*
X159904999Y-139821742D02*
X159857380Y-139916980D01*
X159857380Y-139916980D02*
X159809761Y-139964600D01*
X159809761Y-139964600D02*
X159714523Y-140012219D01*
X159714523Y-140012219D02*
X159524047Y-140012219D01*
X159524047Y-140012219D02*
X159428809Y-139964600D01*
X160476428Y-140012219D02*
X160381190Y-139964600D01*
X160381190Y-139964600D02*
X160333571Y-139916980D01*
X160333571Y-139916980D02*
X160285952Y-139821742D01*
X160285952Y-139821742D02*
X160285952Y-139536028D01*
X160285952Y-139536028D02*
X160333571Y-139440790D01*
X160333571Y-139440790D02*
X160381190Y-139393171D01*
X160381190Y-139393171D02*
X160476428Y-139345552D01*
X160476428Y-139345552D02*
X160619285Y-139345552D01*
X160619285Y-139345552D02*
X160714523Y-139393171D01*
X160714523Y-139393171D02*
X160762142Y-139440790D01*
X160762142Y-139440790D02*
X160809761Y-139536028D01*
X160809761Y-139536028D02*
X160809761Y-139821742D01*
X160809761Y-139821742D02*
X160762142Y-139916980D01*
X160762142Y-139916980D02*
X160714523Y-139964600D01*
X160714523Y-139964600D02*
X160619285Y-140012219D01*
X160619285Y-140012219D02*
X160476428Y-140012219D01*
X161238333Y-140012219D02*
X161238333Y-139345552D01*
X161238333Y-139536028D02*
X161285952Y-139440790D01*
X161285952Y-139440790D02*
X161333571Y-139393171D01*
X161333571Y-139393171D02*
X161428809Y-139345552D01*
X161428809Y-139345552D02*
X161524047Y-139345552D01*
X161714524Y-139345552D02*
X162095476Y-139345552D01*
X161857381Y-139012219D02*
X161857381Y-139869361D01*
X161857381Y-139869361D02*
X161905000Y-139964600D01*
X161905000Y-139964600D02*
X162000238Y-140012219D01*
X162000238Y-140012219D02*
X162095476Y-140012219D01*
X162381191Y-139964600D02*
X162476429Y-140012219D01*
X162476429Y-140012219D02*
X162666905Y-140012219D01*
X162666905Y-140012219D02*
X162762143Y-139964600D01*
X162762143Y-139964600D02*
X162809762Y-139869361D01*
X162809762Y-139869361D02*
X162809762Y-139821742D01*
X162809762Y-139821742D02*
X162762143Y-139726504D01*
X162762143Y-139726504D02*
X162666905Y-139678885D01*
X162666905Y-139678885D02*
X162524048Y-139678885D01*
X162524048Y-139678885D02*
X162428810Y-139631266D01*
X162428810Y-139631266D02*
X162381191Y-139536028D01*
X162381191Y-139536028D02*
X162381191Y-139488409D01*
X162381191Y-139488409D02*
X162428810Y-139393171D01*
X162428810Y-139393171D02*
X162524048Y-139345552D01*
X162524048Y-139345552D02*
X162666905Y-139345552D01*
X162666905Y-139345552D02*
X162762143Y-139393171D01*
X163762143Y-140012219D02*
X163190715Y-140012219D01*
X163476429Y-140012219D02*
X163476429Y-139012219D01*
X163476429Y-139012219D02*
X163381191Y-139155076D01*
X163381191Y-139155076D02*
X163285953Y-139250314D01*
X163285953Y-139250314D02*
X163190715Y-139297933D01*
X132954819Y-136190476D02*
X132288152Y-136190476D01*
X132478628Y-136190476D02*
X132383390Y-136142857D01*
X132383390Y-136142857D02*
X132335771Y-136095238D01*
X132335771Y-136095238D02*
X132288152Y-136000000D01*
X132288152Y-136000000D02*
X132288152Y-135904762D01*
X132907200Y-135190476D02*
X132954819Y-135285714D01*
X132954819Y-135285714D02*
X132954819Y-135476190D01*
X132954819Y-135476190D02*
X132907200Y-135571428D01*
X132907200Y-135571428D02*
X132811961Y-135619047D01*
X132811961Y-135619047D02*
X132431009Y-135619047D01*
X132431009Y-135619047D02*
X132335771Y-135571428D01*
X132335771Y-135571428D02*
X132288152Y-135476190D01*
X132288152Y-135476190D02*
X132288152Y-135285714D01*
X132288152Y-135285714D02*
X132335771Y-135190476D01*
X132335771Y-135190476D02*
X132431009Y-135142857D01*
X132431009Y-135142857D02*
X132526247Y-135142857D01*
X132526247Y-135142857D02*
X132621485Y-135619047D01*
X132288152Y-134285714D02*
X133097676Y-134285714D01*
X133097676Y-134285714D02*
X133192914Y-134333333D01*
X133192914Y-134333333D02*
X133240533Y-134380952D01*
X133240533Y-134380952D02*
X133288152Y-134476190D01*
X133288152Y-134476190D02*
X133288152Y-134619047D01*
X133288152Y-134619047D02*
X133240533Y-134714285D01*
X132907200Y-134285714D02*
X132954819Y-134380952D01*
X132954819Y-134380952D02*
X132954819Y-134571428D01*
X132954819Y-134571428D02*
X132907200Y-134666666D01*
X132907200Y-134666666D02*
X132859580Y-134714285D01*
X132859580Y-134714285D02*
X132764342Y-134761904D01*
X132764342Y-134761904D02*
X132478628Y-134761904D01*
X132478628Y-134761904D02*
X132383390Y-134714285D01*
X132383390Y-134714285D02*
X132335771Y-134666666D01*
X132335771Y-134666666D02*
X132288152Y-134571428D01*
X132288152Y-134571428D02*
X132288152Y-134380952D01*
X132288152Y-134380952D02*
X132335771Y-134285714D01*
X133050057Y-134047619D02*
X133050057Y-133285714D01*
X132907200Y-132619047D02*
X132954819Y-132714285D01*
X132954819Y-132714285D02*
X132954819Y-132904761D01*
X132954819Y-132904761D02*
X132907200Y-132999999D01*
X132907200Y-132999999D02*
X132859580Y-133047618D01*
X132859580Y-133047618D02*
X132764342Y-133095237D01*
X132764342Y-133095237D02*
X132478628Y-133095237D01*
X132478628Y-133095237D02*
X132383390Y-133047618D01*
X132383390Y-133047618D02*
X132335771Y-132999999D01*
X132335771Y-132999999D02*
X132288152Y-132904761D01*
X132288152Y-132904761D02*
X132288152Y-132714285D01*
X132288152Y-132714285D02*
X132335771Y-132619047D01*
X132954819Y-132047618D02*
X132907200Y-132142856D01*
X132907200Y-132142856D02*
X132859580Y-132190475D01*
X132859580Y-132190475D02*
X132764342Y-132238094D01*
X132764342Y-132238094D02*
X132478628Y-132238094D01*
X132478628Y-132238094D02*
X132383390Y-132190475D01*
X132383390Y-132190475D02*
X132335771Y-132142856D01*
X132335771Y-132142856D02*
X132288152Y-132047618D01*
X132288152Y-132047618D02*
X132288152Y-131904761D01*
X132288152Y-131904761D02*
X132335771Y-131809523D01*
X132335771Y-131809523D02*
X132383390Y-131761904D01*
X132383390Y-131761904D02*
X132478628Y-131714285D01*
X132478628Y-131714285D02*
X132764342Y-131714285D01*
X132764342Y-131714285D02*
X132859580Y-131761904D01*
X132859580Y-131761904D02*
X132907200Y-131809523D01*
X132907200Y-131809523D02*
X132954819Y-131904761D01*
X132954819Y-131904761D02*
X132954819Y-132047618D01*
X132954819Y-130761904D02*
X132954819Y-131333332D01*
X132954819Y-131047618D02*
X131954819Y-131047618D01*
X131954819Y-131047618D02*
X132097676Y-131142856D01*
X132097676Y-131142856D02*
X132192914Y-131238094D01*
X132192914Y-131238094D02*
X132240533Y-131333332D01*
X121384919Y-112047618D02*
X120718252Y-112047618D01*
X120813490Y-112047618D02*
X120765871Y-111999999D01*
X120765871Y-111999999D02*
X120718252Y-111904761D01*
X120718252Y-111904761D02*
X120718252Y-111761904D01*
X120718252Y-111761904D02*
X120765871Y-111666666D01*
X120765871Y-111666666D02*
X120861109Y-111619047D01*
X120861109Y-111619047D02*
X121384919Y-111619047D01*
X120861109Y-111619047D02*
X120765871Y-111571428D01*
X120765871Y-111571428D02*
X120718252Y-111476190D01*
X120718252Y-111476190D02*
X120718252Y-111333333D01*
X120718252Y-111333333D02*
X120765871Y-111238094D01*
X120765871Y-111238094D02*
X120861109Y-111190475D01*
X120861109Y-111190475D02*
X121384919Y-111190475D01*
X121384919Y-110714285D02*
X120718252Y-110714285D01*
X120384919Y-110714285D02*
X120432538Y-110761904D01*
X120432538Y-110761904D02*
X120480157Y-110714285D01*
X120480157Y-110714285D02*
X120432538Y-110666666D01*
X120432538Y-110666666D02*
X120384919Y-110714285D01*
X120384919Y-110714285D02*
X120480157Y-110714285D01*
X121384919Y-110333333D02*
X120718252Y-109809524D01*
X120718252Y-110333333D02*
X121384919Y-109809524D01*
X120480157Y-109476190D02*
X120432538Y-109428571D01*
X120432538Y-109428571D02*
X120384919Y-109333333D01*
X120384919Y-109333333D02*
X120384919Y-109095238D01*
X120384919Y-109095238D02*
X120432538Y-109000000D01*
X120432538Y-109000000D02*
X120480157Y-108952381D01*
X120480157Y-108952381D02*
X120575395Y-108904762D01*
X120575395Y-108904762D02*
X120670633Y-108904762D01*
X120670633Y-108904762D02*
X120813490Y-108952381D01*
X120813490Y-108952381D02*
X121384919Y-109523809D01*
X121384919Y-109523809D02*
X121384919Y-108904762D01*
X108607319Y-66809523D02*
X108607319Y-66238095D01*
X109607319Y-66523809D02*
X108607319Y-66523809D01*
X109607319Y-65904761D02*
X108607319Y-65904761D01*
X109607319Y-65476190D02*
X109083509Y-65476190D01*
X109083509Y-65476190D02*
X108988271Y-65523809D01*
X108988271Y-65523809D02*
X108940652Y-65619047D01*
X108940652Y-65619047D02*
X108940652Y-65761904D01*
X108940652Y-65761904D02*
X108988271Y-65857142D01*
X108988271Y-65857142D02*
X109035890Y-65904761D01*
X109559700Y-64619047D02*
X109607319Y-64714285D01*
X109607319Y-64714285D02*
X109607319Y-64904761D01*
X109607319Y-64904761D02*
X109559700Y-64999999D01*
X109559700Y-64999999D02*
X109464461Y-65047618D01*
X109464461Y-65047618D02*
X109083509Y-65047618D01*
X109083509Y-65047618D02*
X108988271Y-64999999D01*
X108988271Y-64999999D02*
X108940652Y-64904761D01*
X108940652Y-64904761D02*
X108940652Y-64714285D01*
X108940652Y-64714285D02*
X108988271Y-64619047D01*
X108988271Y-64619047D02*
X109083509Y-64571428D01*
X109083509Y-64571428D02*
X109178747Y-64571428D01*
X109178747Y-64571428D02*
X109273985Y-65047618D01*
X109607319Y-64142856D02*
X108940652Y-64142856D01*
X109131128Y-64142856D02*
X109035890Y-64095237D01*
X109035890Y-64095237D02*
X108988271Y-64047618D01*
X108988271Y-64047618D02*
X108940652Y-63952380D01*
X108940652Y-63952380D02*
X108940652Y-63857142D01*
X109607319Y-63523808D02*
X108940652Y-63523808D01*
X109035890Y-63523808D02*
X108988271Y-63476189D01*
X108988271Y-63476189D02*
X108940652Y-63380951D01*
X108940652Y-63380951D02*
X108940652Y-63238094D01*
X108940652Y-63238094D02*
X108988271Y-63142856D01*
X108988271Y-63142856D02*
X109083509Y-63095237D01*
X109083509Y-63095237D02*
X109607319Y-63095237D01*
X109083509Y-63095237D02*
X108988271Y-63047618D01*
X108988271Y-63047618D02*
X108940652Y-62952380D01*
X108940652Y-62952380D02*
X108940652Y-62809523D01*
X108940652Y-62809523D02*
X108988271Y-62714284D01*
X108988271Y-62714284D02*
X109083509Y-62666665D01*
X109083509Y-62666665D02*
X109607319Y-62666665D01*
X109607319Y-62190475D02*
X108940652Y-62190475D01*
X108607319Y-62190475D02*
X108654938Y-62238094D01*
X108654938Y-62238094D02*
X108702557Y-62190475D01*
X108702557Y-62190475D02*
X108654938Y-62142856D01*
X108654938Y-62142856D02*
X108607319Y-62190475D01*
X108607319Y-62190475D02*
X108702557Y-62190475D01*
X109559700Y-61761904D02*
X109607319Y-61666666D01*
X109607319Y-61666666D02*
X109607319Y-61476190D01*
X109607319Y-61476190D02*
X109559700Y-61380952D01*
X109559700Y-61380952D02*
X109464461Y-61333333D01*
X109464461Y-61333333D02*
X109416842Y-61333333D01*
X109416842Y-61333333D02*
X109321604Y-61380952D01*
X109321604Y-61380952D02*
X109273985Y-61476190D01*
X109273985Y-61476190D02*
X109273985Y-61619047D01*
X109273985Y-61619047D02*
X109226366Y-61714285D01*
X109226366Y-61714285D02*
X109131128Y-61761904D01*
X109131128Y-61761904D02*
X109083509Y-61761904D01*
X109083509Y-61761904D02*
X108988271Y-61714285D01*
X108988271Y-61714285D02*
X108940652Y-61619047D01*
X108940652Y-61619047D02*
X108940652Y-61476190D01*
X108940652Y-61476190D02*
X108988271Y-61380952D01*
X108940652Y-61047618D02*
X108940652Y-60666666D01*
X108607319Y-60904761D02*
X109464461Y-60904761D01*
X109464461Y-60904761D02*
X109559700Y-60857142D01*
X109559700Y-60857142D02*
X109607319Y-60761904D01*
X109607319Y-60761904D02*
X109607319Y-60666666D01*
X109607319Y-60190475D02*
X109559700Y-60285713D01*
X109559700Y-60285713D02*
X109512080Y-60333332D01*
X109512080Y-60333332D02*
X109416842Y-60380951D01*
X109416842Y-60380951D02*
X109131128Y-60380951D01*
X109131128Y-60380951D02*
X109035890Y-60333332D01*
X109035890Y-60333332D02*
X108988271Y-60285713D01*
X108988271Y-60285713D02*
X108940652Y-60190475D01*
X108940652Y-60190475D02*
X108940652Y-60047618D01*
X108940652Y-60047618D02*
X108988271Y-59952380D01*
X108988271Y-59952380D02*
X109035890Y-59904761D01*
X109035890Y-59904761D02*
X109131128Y-59857142D01*
X109131128Y-59857142D02*
X109416842Y-59857142D01*
X109416842Y-59857142D02*
X109512080Y-59904761D01*
X109512080Y-59904761D02*
X109559700Y-59952380D01*
X109559700Y-59952380D02*
X109607319Y-60047618D01*
X109607319Y-60047618D02*
X109607319Y-60190475D01*
X109607319Y-59428570D02*
X108940652Y-59428570D01*
X109131128Y-59428570D02*
X109035890Y-59380951D01*
X109035890Y-59380951D02*
X108988271Y-59333332D01*
X108988271Y-59333332D02*
X108940652Y-59238094D01*
X108940652Y-59238094D02*
X108940652Y-59142856D01*
X109607319Y-58285713D02*
X109607319Y-58857141D01*
X109607319Y-58571427D02*
X108607319Y-58571427D01*
X108607319Y-58571427D02*
X108750176Y-58666665D01*
X108750176Y-58666665D02*
X108845414Y-58761903D01*
X108845414Y-58761903D02*
X108893033Y-58857141D01*
X134454819Y-142976190D02*
X133788152Y-142976190D01*
X133978628Y-142976190D02*
X133883390Y-142928571D01*
X133883390Y-142928571D02*
X133835771Y-142880952D01*
X133835771Y-142880952D02*
X133788152Y-142785714D01*
X133788152Y-142785714D02*
X133788152Y-142690476D01*
X134407200Y-141976190D02*
X134454819Y-142071428D01*
X134454819Y-142071428D02*
X134454819Y-142261904D01*
X134454819Y-142261904D02*
X134407200Y-142357142D01*
X134407200Y-142357142D02*
X134311961Y-142404761D01*
X134311961Y-142404761D02*
X133931009Y-142404761D01*
X133931009Y-142404761D02*
X133835771Y-142357142D01*
X133835771Y-142357142D02*
X133788152Y-142261904D01*
X133788152Y-142261904D02*
X133788152Y-142071428D01*
X133788152Y-142071428D02*
X133835771Y-141976190D01*
X133835771Y-141976190D02*
X133931009Y-141928571D01*
X133931009Y-141928571D02*
X134026247Y-141928571D01*
X134026247Y-141928571D02*
X134121485Y-142404761D01*
X133788152Y-141071428D02*
X134597676Y-141071428D01*
X134597676Y-141071428D02*
X134692914Y-141119047D01*
X134692914Y-141119047D02*
X134740533Y-141166666D01*
X134740533Y-141166666D02*
X134788152Y-141261904D01*
X134788152Y-141261904D02*
X134788152Y-141404761D01*
X134788152Y-141404761D02*
X134740533Y-141499999D01*
X134407200Y-141071428D02*
X134454819Y-141166666D01*
X134454819Y-141166666D02*
X134454819Y-141357142D01*
X134454819Y-141357142D02*
X134407200Y-141452380D01*
X134407200Y-141452380D02*
X134359580Y-141499999D01*
X134359580Y-141499999D02*
X134264342Y-141547618D01*
X134264342Y-141547618D02*
X133978628Y-141547618D01*
X133978628Y-141547618D02*
X133883390Y-141499999D01*
X133883390Y-141499999D02*
X133835771Y-141452380D01*
X133835771Y-141452380D02*
X133788152Y-141357142D01*
X133788152Y-141357142D02*
X133788152Y-141166666D01*
X133788152Y-141166666D02*
X133835771Y-141071428D01*
X134550057Y-140833333D02*
X134550057Y-140071428D01*
X134407200Y-139404761D02*
X134454819Y-139499999D01*
X134454819Y-139499999D02*
X134454819Y-139690475D01*
X134454819Y-139690475D02*
X134407200Y-139785713D01*
X134407200Y-139785713D02*
X134359580Y-139833332D01*
X134359580Y-139833332D02*
X134264342Y-139880951D01*
X134264342Y-139880951D02*
X133978628Y-139880951D01*
X133978628Y-139880951D02*
X133883390Y-139833332D01*
X133883390Y-139833332D02*
X133835771Y-139785713D01*
X133835771Y-139785713D02*
X133788152Y-139690475D01*
X133788152Y-139690475D02*
X133788152Y-139499999D01*
X133788152Y-139499999D02*
X133835771Y-139404761D01*
X134454819Y-138976189D02*
X133788152Y-138976189D01*
X133454819Y-138976189D02*
X133502438Y-139023808D01*
X133502438Y-139023808D02*
X133550057Y-138976189D01*
X133550057Y-138976189D02*
X133502438Y-138928570D01*
X133502438Y-138928570D02*
X133454819Y-138976189D01*
X133454819Y-138976189D02*
X133550057Y-138976189D01*
X134454819Y-137976190D02*
X134454819Y-138547618D01*
X134454819Y-138261904D02*
X133454819Y-138261904D01*
X133454819Y-138261904D02*
X133597676Y-138357142D01*
X133597676Y-138357142D02*
X133692914Y-138452380D01*
X133692914Y-138452380D02*
X133740533Y-138547618D01*
X162846286Y-105101119D02*
X162846286Y-104101119D01*
X162846286Y-104101119D02*
X163179619Y-104815404D01*
X163179619Y-104815404D02*
X163512952Y-104101119D01*
X163512952Y-104101119D02*
X163512952Y-105101119D01*
X164132000Y-105101119D02*
X164036762Y-105053500D01*
X164036762Y-105053500D02*
X163989143Y-105005880D01*
X163989143Y-105005880D02*
X163941524Y-104910642D01*
X163941524Y-104910642D02*
X163941524Y-104624928D01*
X163941524Y-104624928D02*
X163989143Y-104529690D01*
X163989143Y-104529690D02*
X164036762Y-104482071D01*
X164036762Y-104482071D02*
X164132000Y-104434452D01*
X164132000Y-104434452D02*
X164274857Y-104434452D01*
X164274857Y-104434452D02*
X164370095Y-104482071D01*
X164370095Y-104482071D02*
X164417714Y-104529690D01*
X164417714Y-104529690D02*
X164465333Y-104624928D01*
X164465333Y-104624928D02*
X164465333Y-104910642D01*
X164465333Y-104910642D02*
X164417714Y-105005880D01*
X164417714Y-105005880D02*
X164370095Y-105053500D01*
X164370095Y-105053500D02*
X164274857Y-105101119D01*
X164274857Y-105101119D02*
X164132000Y-105101119D01*
X164798667Y-104434452D02*
X165036762Y-105101119D01*
X165036762Y-105101119D02*
X165274857Y-104434452D01*
X165655810Y-105101119D02*
X165655810Y-104434452D01*
X165655810Y-104101119D02*
X165608191Y-104148738D01*
X165608191Y-104148738D02*
X165655810Y-104196357D01*
X165655810Y-104196357D02*
X165703429Y-104148738D01*
X165703429Y-104148738D02*
X165655810Y-104101119D01*
X165655810Y-104101119D02*
X165655810Y-104196357D01*
X166132000Y-104434452D02*
X166132000Y-105101119D01*
X166132000Y-104529690D02*
X166179619Y-104482071D01*
X166179619Y-104482071D02*
X166274857Y-104434452D01*
X166274857Y-104434452D02*
X166417714Y-104434452D01*
X166417714Y-104434452D02*
X166512952Y-104482071D01*
X166512952Y-104482071D02*
X166560571Y-104577309D01*
X166560571Y-104577309D02*
X166560571Y-105101119D01*
X167465333Y-104434452D02*
X167465333Y-105243976D01*
X167465333Y-105243976D02*
X167417714Y-105339214D01*
X167417714Y-105339214D02*
X167370095Y-105386833D01*
X167370095Y-105386833D02*
X167274857Y-105434452D01*
X167274857Y-105434452D02*
X167132000Y-105434452D01*
X167132000Y-105434452D02*
X167036762Y-105386833D01*
X167465333Y-105053500D02*
X167370095Y-105101119D01*
X167370095Y-105101119D02*
X167179619Y-105101119D01*
X167179619Y-105101119D02*
X167084381Y-105053500D01*
X167084381Y-105053500D02*
X167036762Y-105005880D01*
X167036762Y-105005880D02*
X166989143Y-104910642D01*
X166989143Y-104910642D02*
X166989143Y-104624928D01*
X166989143Y-104624928D02*
X167036762Y-104529690D01*
X167036762Y-104529690D02*
X167084381Y-104482071D01*
X167084381Y-104482071D02*
X167179619Y-104434452D01*
X167179619Y-104434452D02*
X167370095Y-104434452D01*
X167370095Y-104434452D02*
X167465333Y-104482071D01*
X168465333Y-105101119D02*
X167893905Y-105101119D01*
X168179619Y-105101119D02*
X168179619Y-104101119D01*
X168179619Y-104101119D02*
X168084381Y-104243976D01*
X168084381Y-104243976D02*
X167989143Y-104339214D01*
X167989143Y-104339214D02*
X167893905Y-104386833D01*
X116129166Y-131367319D02*
X116129166Y-132081604D01*
X116129166Y-132081604D02*
X116081547Y-132224461D01*
X116081547Y-132224461D02*
X115986309Y-132319700D01*
X115986309Y-132319700D02*
X115843452Y-132367319D01*
X115843452Y-132367319D02*
X115748214Y-132367319D01*
X117129166Y-132367319D02*
X116557738Y-132367319D01*
X116843452Y-132367319D02*
X116843452Y-131367319D01*
X116843452Y-131367319D02*
X116748214Y-131510176D01*
X116748214Y-131510176D02*
X116652976Y-131605414D01*
X116652976Y-131605414D02*
X116557738Y-131653033D01*
X114658152Y-63857142D02*
X115324819Y-63619047D01*
X115324819Y-63619047D02*
X114658152Y-63380952D01*
X115324819Y-62571428D02*
X114324819Y-62571428D01*
X115277200Y-62571428D02*
X115324819Y-62666666D01*
X115324819Y-62666666D02*
X115324819Y-62857142D01*
X115324819Y-62857142D02*
X115277200Y-62952380D01*
X115277200Y-62952380D02*
X115229580Y-62999999D01*
X115229580Y-62999999D02*
X115134342Y-63047618D01*
X115134342Y-63047618D02*
X114848628Y-63047618D01*
X114848628Y-63047618D02*
X114753390Y-62999999D01*
X114753390Y-62999999D02*
X114705771Y-62952380D01*
X114705771Y-62952380D02*
X114658152Y-62857142D01*
X114658152Y-62857142D02*
X114658152Y-62666666D01*
X114658152Y-62666666D02*
X114705771Y-62571428D01*
X115420057Y-62333333D02*
X115420057Y-61571428D01*
X115324819Y-61333332D02*
X114658152Y-61333332D01*
X114848628Y-61333332D02*
X114753390Y-61285713D01*
X114753390Y-61285713D02*
X114705771Y-61238094D01*
X114705771Y-61238094D02*
X114658152Y-61142856D01*
X114658152Y-61142856D02*
X114658152Y-61047618D01*
X115324819Y-60190475D02*
X115324819Y-60761903D01*
X115324819Y-60476189D02*
X114324819Y-60476189D01*
X114324819Y-60476189D02*
X114467676Y-60571427D01*
X114467676Y-60571427D02*
X114562914Y-60666665D01*
X114562914Y-60666665D02*
X114610533Y-60761903D01*
X117334819Y-105547618D02*
X116668152Y-105547618D01*
X116763390Y-105547618D02*
X116715771Y-105499999D01*
X116715771Y-105499999D02*
X116668152Y-105404761D01*
X116668152Y-105404761D02*
X116668152Y-105261904D01*
X116668152Y-105261904D02*
X116715771Y-105166666D01*
X116715771Y-105166666D02*
X116811009Y-105119047D01*
X116811009Y-105119047D02*
X117334819Y-105119047D01*
X116811009Y-105119047D02*
X116715771Y-105071428D01*
X116715771Y-105071428D02*
X116668152Y-104976190D01*
X116668152Y-104976190D02*
X116668152Y-104833333D01*
X116668152Y-104833333D02*
X116715771Y-104738094D01*
X116715771Y-104738094D02*
X116811009Y-104690475D01*
X116811009Y-104690475D02*
X117334819Y-104690475D01*
X117334819Y-104214285D02*
X116668152Y-104214285D01*
X116334819Y-104214285D02*
X116382438Y-104261904D01*
X116382438Y-104261904D02*
X116430057Y-104214285D01*
X116430057Y-104214285D02*
X116382438Y-104166666D01*
X116382438Y-104166666D02*
X116334819Y-104214285D01*
X116334819Y-104214285D02*
X116430057Y-104214285D01*
X117334819Y-103833333D02*
X116668152Y-103309524D01*
X116668152Y-103833333D02*
X117334819Y-103309524D01*
X116334819Y-103023809D02*
X116334819Y-102404762D01*
X116334819Y-102404762D02*
X116715771Y-102738095D01*
X116715771Y-102738095D02*
X116715771Y-102595238D01*
X116715771Y-102595238D02*
X116763390Y-102500000D01*
X116763390Y-102500000D02*
X116811009Y-102452381D01*
X116811009Y-102452381D02*
X116906247Y-102404762D01*
X116906247Y-102404762D02*
X117144342Y-102404762D01*
X117144342Y-102404762D02*
X117239580Y-102452381D01*
X117239580Y-102452381D02*
X117287200Y-102500000D01*
X117287200Y-102500000D02*
X117334819Y-102595238D01*
X117334819Y-102595238D02*
X117334819Y-102880952D01*
X117334819Y-102880952D02*
X117287200Y-102976190D01*
X117287200Y-102976190D02*
X117239580Y-103023809D01*
X154261903Y-63607319D02*
X153928570Y-63131128D01*
X153690475Y-63607319D02*
X153690475Y-62607319D01*
X153690475Y-62607319D02*
X154071427Y-62607319D01*
X154071427Y-62607319D02*
X154166665Y-62654938D01*
X154166665Y-62654938D02*
X154214284Y-62702557D01*
X154214284Y-62702557D02*
X154261903Y-62797795D01*
X154261903Y-62797795D02*
X154261903Y-62940652D01*
X154261903Y-62940652D02*
X154214284Y-63035890D01*
X154214284Y-63035890D02*
X154166665Y-63083509D01*
X154166665Y-63083509D02*
X154071427Y-63131128D01*
X154071427Y-63131128D02*
X153690475Y-63131128D01*
X155071427Y-63559700D02*
X154976189Y-63607319D01*
X154976189Y-63607319D02*
X154785713Y-63607319D01*
X154785713Y-63607319D02*
X154690475Y-63559700D01*
X154690475Y-63559700D02*
X154642856Y-63464461D01*
X154642856Y-63464461D02*
X154642856Y-63083509D01*
X154642856Y-63083509D02*
X154690475Y-62988271D01*
X154690475Y-62988271D02*
X154785713Y-62940652D01*
X154785713Y-62940652D02*
X154976189Y-62940652D01*
X154976189Y-62940652D02*
X155071427Y-62988271D01*
X155071427Y-62988271D02*
X155119046Y-63083509D01*
X155119046Y-63083509D02*
X155119046Y-63178747D01*
X155119046Y-63178747D02*
X154642856Y-63273985D01*
X155547618Y-63607319D02*
X155547618Y-62607319D01*
X155976189Y-63607319D02*
X155976189Y-63083509D01*
X155976189Y-63083509D02*
X155928570Y-62988271D01*
X155928570Y-62988271D02*
X155833332Y-62940652D01*
X155833332Y-62940652D02*
X155690475Y-62940652D01*
X155690475Y-62940652D02*
X155595237Y-62988271D01*
X155595237Y-62988271D02*
X155547618Y-63035890D01*
X156357142Y-62940652D02*
X156595237Y-63607319D01*
X156833332Y-62940652D02*
X156595237Y-63607319D01*
X156595237Y-63607319D02*
X156499999Y-63845414D01*
X156499999Y-63845414D02*
X156452380Y-63893033D01*
X156452380Y-63893033D02*
X156357142Y-63940652D01*
X157642856Y-63607319D02*
X157642856Y-62607319D01*
X157642856Y-63559700D02*
X157547618Y-63607319D01*
X157547618Y-63607319D02*
X157357142Y-63607319D01*
X157357142Y-63607319D02*
X157261904Y-63559700D01*
X157261904Y-63559700D02*
X157214285Y-63512080D01*
X157214285Y-63512080D02*
X157166666Y-63416842D01*
X157166666Y-63416842D02*
X157166666Y-63131128D01*
X157166666Y-63131128D02*
X157214285Y-63035890D01*
X157214285Y-63035890D02*
X157261904Y-62988271D01*
X157261904Y-62988271D02*
X157357142Y-62940652D01*
X157357142Y-62940652D02*
X157547618Y-62940652D01*
X157547618Y-62940652D02*
X157642856Y-62988271D01*
X158119047Y-63607319D02*
X158119047Y-62940652D01*
X158119047Y-63131128D02*
X158166666Y-63035890D01*
X158166666Y-63035890D02*
X158214285Y-62988271D01*
X158214285Y-62988271D02*
X158309523Y-62940652D01*
X158309523Y-62940652D02*
X158404761Y-62940652D01*
X159166666Y-63607319D02*
X159166666Y-63083509D01*
X159166666Y-63083509D02*
X159119047Y-62988271D01*
X159119047Y-62988271D02*
X159023809Y-62940652D01*
X159023809Y-62940652D02*
X158833333Y-62940652D01*
X158833333Y-62940652D02*
X158738095Y-62988271D01*
X159166666Y-63559700D02*
X159071428Y-63607319D01*
X159071428Y-63607319D02*
X158833333Y-63607319D01*
X158833333Y-63607319D02*
X158738095Y-63559700D01*
X158738095Y-63559700D02*
X158690476Y-63464461D01*
X158690476Y-63464461D02*
X158690476Y-63369223D01*
X158690476Y-63369223D02*
X158738095Y-63273985D01*
X158738095Y-63273985D02*
X158833333Y-63226366D01*
X158833333Y-63226366D02*
X159071428Y-63226366D01*
X159071428Y-63226366D02*
X159166666Y-63178747D01*
X159500000Y-62940652D02*
X159880952Y-62940652D01*
X159642857Y-62607319D02*
X159642857Y-63464461D01*
X159642857Y-63464461D02*
X159690476Y-63559700D01*
X159690476Y-63559700D02*
X159785714Y-63607319D01*
X159785714Y-63607319D02*
X159880952Y-63607319D01*
X160214286Y-63607319D02*
X160214286Y-62940652D01*
X160214286Y-62607319D02*
X160166667Y-62654938D01*
X160166667Y-62654938D02*
X160214286Y-62702557D01*
X160214286Y-62702557D02*
X160261905Y-62654938D01*
X160261905Y-62654938D02*
X160214286Y-62607319D01*
X160214286Y-62607319D02*
X160214286Y-62702557D01*
X160833333Y-63607319D02*
X160738095Y-63559700D01*
X160738095Y-63559700D02*
X160690476Y-63512080D01*
X160690476Y-63512080D02*
X160642857Y-63416842D01*
X160642857Y-63416842D02*
X160642857Y-63131128D01*
X160642857Y-63131128D02*
X160690476Y-63035890D01*
X160690476Y-63035890D02*
X160738095Y-62988271D01*
X160738095Y-62988271D02*
X160833333Y-62940652D01*
X160833333Y-62940652D02*
X160976190Y-62940652D01*
X160976190Y-62940652D02*
X161071428Y-62988271D01*
X161071428Y-62988271D02*
X161119047Y-63035890D01*
X161119047Y-63035890D02*
X161166666Y-63131128D01*
X161166666Y-63131128D02*
X161166666Y-63416842D01*
X161166666Y-63416842D02*
X161119047Y-63512080D01*
X161119047Y-63512080D02*
X161071428Y-63559700D01*
X161071428Y-63559700D02*
X160976190Y-63607319D01*
X160976190Y-63607319D02*
X160833333Y-63607319D01*
X161595238Y-62940652D02*
X161595238Y-63607319D01*
X161595238Y-63035890D02*
X161642857Y-62988271D01*
X161642857Y-62988271D02*
X161738095Y-62940652D01*
X161738095Y-62940652D02*
X161880952Y-62940652D01*
X161880952Y-62940652D02*
X161976190Y-62988271D01*
X161976190Y-62988271D02*
X162023809Y-63083509D01*
X162023809Y-63083509D02*
X162023809Y-63607319D01*
X162261905Y-63702557D02*
X163023809Y-63702557D01*
X163119048Y-62940652D02*
X163500000Y-62940652D01*
X163261905Y-63607319D02*
X163261905Y-62750176D01*
X163261905Y-62750176D02*
X163309524Y-62654938D01*
X163309524Y-62654938D02*
X163404762Y-62607319D01*
X163404762Y-62607319D02*
X163500000Y-62607319D01*
X163833334Y-63607319D02*
X163833334Y-62940652D01*
X163833334Y-63131128D02*
X163880953Y-63035890D01*
X163880953Y-63035890D02*
X163928572Y-62988271D01*
X163928572Y-62988271D02*
X164023810Y-62940652D01*
X164023810Y-62940652D02*
X164119048Y-62940652D01*
X164595239Y-63607319D02*
X164500001Y-63559700D01*
X164500001Y-63559700D02*
X164452382Y-63512080D01*
X164452382Y-63512080D02*
X164404763Y-63416842D01*
X164404763Y-63416842D02*
X164404763Y-63131128D01*
X164404763Y-63131128D02*
X164452382Y-63035890D01*
X164452382Y-63035890D02*
X164500001Y-62988271D01*
X164500001Y-62988271D02*
X164595239Y-62940652D01*
X164595239Y-62940652D02*
X164738096Y-62940652D01*
X164738096Y-62940652D02*
X164833334Y-62988271D01*
X164833334Y-62988271D02*
X164880953Y-63035890D01*
X164880953Y-63035890D02*
X164928572Y-63131128D01*
X164928572Y-63131128D02*
X164928572Y-63416842D01*
X164928572Y-63416842D02*
X164880953Y-63512080D01*
X164880953Y-63512080D02*
X164833334Y-63559700D01*
X164833334Y-63559700D02*
X164738096Y-63607319D01*
X164738096Y-63607319D02*
X164595239Y-63607319D01*
X165357144Y-62940652D02*
X165357144Y-63607319D01*
X165357144Y-63035890D02*
X165404763Y-62988271D01*
X165404763Y-62988271D02*
X165500001Y-62940652D01*
X165500001Y-62940652D02*
X165642858Y-62940652D01*
X165642858Y-62940652D02*
X165738096Y-62988271D01*
X165738096Y-62988271D02*
X165785715Y-63083509D01*
X165785715Y-63083509D02*
X165785715Y-63607319D01*
X166119049Y-62940652D02*
X166500001Y-62940652D01*
X166261906Y-62607319D02*
X166261906Y-63464461D01*
X166261906Y-63464461D02*
X166309525Y-63559700D01*
X166309525Y-63559700D02*
X166404763Y-63607319D01*
X166404763Y-63607319D02*
X166500001Y-63607319D01*
X167357144Y-63607319D02*
X166785716Y-63607319D01*
X167071430Y-63607319D02*
X167071430Y-62607319D01*
X167071430Y-62607319D02*
X166976192Y-62750176D01*
X166976192Y-62750176D02*
X166880954Y-62845414D01*
X166880954Y-62845414D02*
X166785716Y-62893033D01*
X110740057Y-119865238D02*
X110692438Y-119960476D01*
X110692438Y-119960476D02*
X110597200Y-120055714D01*
X110597200Y-120055714D02*
X110454342Y-120198571D01*
X110454342Y-120198571D02*
X110406723Y-120293809D01*
X110406723Y-120293809D02*
X110406723Y-120389047D01*
X110644819Y-120341428D02*
X110597200Y-120436666D01*
X110597200Y-120436666D02*
X110501961Y-120531904D01*
X110501961Y-120531904D02*
X110311485Y-120579523D01*
X110311485Y-120579523D02*
X109978152Y-120579523D01*
X109978152Y-120579523D02*
X109787676Y-120531904D01*
X109787676Y-120531904D02*
X109692438Y-120436666D01*
X109692438Y-120436666D02*
X109644819Y-120341428D01*
X109644819Y-120341428D02*
X109644819Y-120150952D01*
X109644819Y-120150952D02*
X109692438Y-120055714D01*
X109692438Y-120055714D02*
X109787676Y-119960476D01*
X109787676Y-119960476D02*
X109978152Y-119912857D01*
X109978152Y-119912857D02*
X110311485Y-119912857D01*
X110311485Y-119912857D02*
X110501961Y-119960476D01*
X110501961Y-119960476D02*
X110597200Y-120055714D01*
X110597200Y-120055714D02*
X110644819Y-120150952D01*
X110644819Y-120150952D02*
X110644819Y-120341428D01*
X110644819Y-118960476D02*
X110644819Y-119531904D01*
X110644819Y-119246190D02*
X109644819Y-119246190D01*
X109644819Y-119246190D02*
X109787676Y-119341428D01*
X109787676Y-119341428D02*
X109882914Y-119436666D01*
X109882914Y-119436666D02*
X109930533Y-119531904D01*
X108074819Y-86583333D02*
X108789104Y-86583333D01*
X108789104Y-86583333D02*
X108931961Y-86630952D01*
X108931961Y-86630952D02*
X109027200Y-86726190D01*
X109027200Y-86726190D02*
X109074819Y-86869047D01*
X109074819Y-86869047D02*
X109074819Y-86964285D01*
X108170057Y-86154761D02*
X108122438Y-86107142D01*
X108122438Y-86107142D02*
X108074819Y-86011904D01*
X108074819Y-86011904D02*
X108074819Y-85773809D01*
X108074819Y-85773809D02*
X108122438Y-85678571D01*
X108122438Y-85678571D02*
X108170057Y-85630952D01*
X108170057Y-85630952D02*
X108265295Y-85583333D01*
X108265295Y-85583333D02*
X108360533Y-85583333D01*
X108360533Y-85583333D02*
X108503390Y-85630952D01*
X108503390Y-85630952D02*
X109074819Y-86202380D01*
X109074819Y-86202380D02*
X109074819Y-85583333D01*
X113368770Y-76168819D02*
X113035437Y-75692628D01*
X112797342Y-76168819D02*
X112797342Y-75168819D01*
X112797342Y-75168819D02*
X113178294Y-75168819D01*
X113178294Y-75168819D02*
X113273532Y-75216438D01*
X113273532Y-75216438D02*
X113321151Y-75264057D01*
X113321151Y-75264057D02*
X113368770Y-75359295D01*
X113368770Y-75359295D02*
X113368770Y-75502152D01*
X113368770Y-75502152D02*
X113321151Y-75597390D01*
X113321151Y-75597390D02*
X113273532Y-75645009D01*
X113273532Y-75645009D02*
X113178294Y-75692628D01*
X113178294Y-75692628D02*
X112797342Y-75692628D01*
X114178294Y-76121200D02*
X114083056Y-76168819D01*
X114083056Y-76168819D02*
X113892580Y-76168819D01*
X113892580Y-76168819D02*
X113797342Y-76121200D01*
X113797342Y-76121200D02*
X113749723Y-76025961D01*
X113749723Y-76025961D02*
X113749723Y-75645009D01*
X113749723Y-75645009D02*
X113797342Y-75549771D01*
X113797342Y-75549771D02*
X113892580Y-75502152D01*
X113892580Y-75502152D02*
X114083056Y-75502152D01*
X114083056Y-75502152D02*
X114178294Y-75549771D01*
X114178294Y-75549771D02*
X114225913Y-75645009D01*
X114225913Y-75645009D02*
X114225913Y-75740247D01*
X114225913Y-75740247D02*
X113749723Y-75835485D01*
X114654485Y-76168819D02*
X114654485Y-75168819D01*
X115083056Y-76168819D02*
X115083056Y-75645009D01*
X115083056Y-75645009D02*
X115035437Y-75549771D01*
X115035437Y-75549771D02*
X114940199Y-75502152D01*
X114940199Y-75502152D02*
X114797342Y-75502152D01*
X114797342Y-75502152D02*
X114702104Y-75549771D01*
X114702104Y-75549771D02*
X114654485Y-75597390D01*
X115464009Y-75502152D02*
X115702104Y-76168819D01*
X115940199Y-75502152D02*
X115702104Y-76168819D01*
X115702104Y-76168819D02*
X115606866Y-76406914D01*
X115606866Y-76406914D02*
X115559247Y-76454533D01*
X115559247Y-76454533D02*
X115464009Y-76502152D01*
X116749723Y-76168819D02*
X116749723Y-75168819D01*
X116749723Y-76121200D02*
X116654485Y-76168819D01*
X116654485Y-76168819D02*
X116464009Y-76168819D01*
X116464009Y-76168819D02*
X116368771Y-76121200D01*
X116368771Y-76121200D02*
X116321152Y-76073580D01*
X116321152Y-76073580D02*
X116273533Y-75978342D01*
X116273533Y-75978342D02*
X116273533Y-75692628D01*
X116273533Y-75692628D02*
X116321152Y-75597390D01*
X116321152Y-75597390D02*
X116368771Y-75549771D01*
X116368771Y-75549771D02*
X116464009Y-75502152D01*
X116464009Y-75502152D02*
X116654485Y-75502152D01*
X116654485Y-75502152D02*
X116749723Y-75549771D01*
X117225914Y-76168819D02*
X117225914Y-75502152D01*
X117225914Y-75692628D02*
X117273533Y-75597390D01*
X117273533Y-75597390D02*
X117321152Y-75549771D01*
X117321152Y-75549771D02*
X117416390Y-75502152D01*
X117416390Y-75502152D02*
X117511628Y-75502152D01*
X118273533Y-76168819D02*
X118273533Y-75645009D01*
X118273533Y-75645009D02*
X118225914Y-75549771D01*
X118225914Y-75549771D02*
X118130676Y-75502152D01*
X118130676Y-75502152D02*
X117940200Y-75502152D01*
X117940200Y-75502152D02*
X117844962Y-75549771D01*
X118273533Y-76121200D02*
X118178295Y-76168819D01*
X118178295Y-76168819D02*
X117940200Y-76168819D01*
X117940200Y-76168819D02*
X117844962Y-76121200D01*
X117844962Y-76121200D02*
X117797343Y-76025961D01*
X117797343Y-76025961D02*
X117797343Y-75930723D01*
X117797343Y-75930723D02*
X117844962Y-75835485D01*
X117844962Y-75835485D02*
X117940200Y-75787866D01*
X117940200Y-75787866D02*
X118178295Y-75787866D01*
X118178295Y-75787866D02*
X118273533Y-75740247D01*
X118606867Y-75502152D02*
X118987819Y-75502152D01*
X118749724Y-75168819D02*
X118749724Y-76025961D01*
X118749724Y-76025961D02*
X118797343Y-76121200D01*
X118797343Y-76121200D02*
X118892581Y-76168819D01*
X118892581Y-76168819D02*
X118987819Y-76168819D01*
X119321153Y-76168819D02*
X119321153Y-75502152D01*
X119321153Y-75168819D02*
X119273534Y-75216438D01*
X119273534Y-75216438D02*
X119321153Y-75264057D01*
X119321153Y-75264057D02*
X119368772Y-75216438D01*
X119368772Y-75216438D02*
X119321153Y-75168819D01*
X119321153Y-75168819D02*
X119321153Y-75264057D01*
X119940200Y-76168819D02*
X119844962Y-76121200D01*
X119844962Y-76121200D02*
X119797343Y-76073580D01*
X119797343Y-76073580D02*
X119749724Y-75978342D01*
X119749724Y-75978342D02*
X119749724Y-75692628D01*
X119749724Y-75692628D02*
X119797343Y-75597390D01*
X119797343Y-75597390D02*
X119844962Y-75549771D01*
X119844962Y-75549771D02*
X119940200Y-75502152D01*
X119940200Y-75502152D02*
X120083057Y-75502152D01*
X120083057Y-75502152D02*
X120178295Y-75549771D01*
X120178295Y-75549771D02*
X120225914Y-75597390D01*
X120225914Y-75597390D02*
X120273533Y-75692628D01*
X120273533Y-75692628D02*
X120273533Y-75978342D01*
X120273533Y-75978342D02*
X120225914Y-76073580D01*
X120225914Y-76073580D02*
X120178295Y-76121200D01*
X120178295Y-76121200D02*
X120083057Y-76168819D01*
X120083057Y-76168819D02*
X119940200Y-76168819D01*
X120702105Y-75502152D02*
X120702105Y-76168819D01*
X120702105Y-75597390D02*
X120749724Y-75549771D01*
X120749724Y-75549771D02*
X120844962Y-75502152D01*
X120844962Y-75502152D02*
X120987819Y-75502152D01*
X120987819Y-75502152D02*
X121083057Y-75549771D01*
X121083057Y-75549771D02*
X121130676Y-75645009D01*
X121130676Y-75645009D02*
X121130676Y-76168819D01*
X122130676Y-76168819D02*
X121559248Y-76168819D01*
X121844962Y-76168819D02*
X121844962Y-75168819D01*
X121844962Y-75168819D02*
X121749724Y-75311676D01*
X121749724Y-75311676D02*
X121654486Y-75406914D01*
X121654486Y-75406914D02*
X121559248Y-75454533D01*
X110240057Y-112865238D02*
X110192438Y-112960476D01*
X110192438Y-112960476D02*
X110097200Y-113055714D01*
X110097200Y-113055714D02*
X109954342Y-113198571D01*
X109954342Y-113198571D02*
X109906723Y-113293809D01*
X109906723Y-113293809D02*
X109906723Y-113389047D01*
X110144819Y-113341428D02*
X110097200Y-113436666D01*
X110097200Y-113436666D02*
X110001961Y-113531904D01*
X110001961Y-113531904D02*
X109811485Y-113579523D01*
X109811485Y-113579523D02*
X109478152Y-113579523D01*
X109478152Y-113579523D02*
X109287676Y-113531904D01*
X109287676Y-113531904D02*
X109192438Y-113436666D01*
X109192438Y-113436666D02*
X109144819Y-113341428D01*
X109144819Y-113341428D02*
X109144819Y-113150952D01*
X109144819Y-113150952D02*
X109192438Y-113055714D01*
X109192438Y-113055714D02*
X109287676Y-112960476D01*
X109287676Y-112960476D02*
X109478152Y-112912857D01*
X109478152Y-112912857D02*
X109811485Y-112912857D01*
X109811485Y-112912857D02*
X110001961Y-112960476D01*
X110001961Y-112960476D02*
X110097200Y-113055714D01*
X110097200Y-113055714D02*
X110144819Y-113150952D01*
X110144819Y-113150952D02*
X110144819Y-113341428D01*
X109240057Y-112531904D02*
X109192438Y-112484285D01*
X109192438Y-112484285D02*
X109144819Y-112389047D01*
X109144819Y-112389047D02*
X109144819Y-112150952D01*
X109144819Y-112150952D02*
X109192438Y-112055714D01*
X109192438Y-112055714D02*
X109240057Y-112008095D01*
X109240057Y-112008095D02*
X109335295Y-111960476D01*
X109335295Y-111960476D02*
X109430533Y-111960476D01*
X109430533Y-111960476D02*
X109573390Y-112008095D01*
X109573390Y-112008095D02*
X110144819Y-112579523D01*
X110144819Y-112579523D02*
X110144819Y-111960476D01*
X172307719Y-78990077D02*
X171831528Y-79323410D01*
X172307719Y-79561505D02*
X171307719Y-79561505D01*
X171307719Y-79561505D02*
X171307719Y-79180553D01*
X171307719Y-79180553D02*
X171355338Y-79085315D01*
X171355338Y-79085315D02*
X171402957Y-79037696D01*
X171402957Y-79037696D02*
X171498195Y-78990077D01*
X171498195Y-78990077D02*
X171641052Y-78990077D01*
X171641052Y-78990077D02*
X171736290Y-79037696D01*
X171736290Y-79037696D02*
X171783909Y-79085315D01*
X171783909Y-79085315D02*
X171831528Y-79180553D01*
X171831528Y-79180553D02*
X171831528Y-79561505D01*
X172260100Y-78180553D02*
X172307719Y-78275791D01*
X172307719Y-78275791D02*
X172307719Y-78466267D01*
X172307719Y-78466267D02*
X172260100Y-78561505D01*
X172260100Y-78561505D02*
X172164861Y-78609124D01*
X172164861Y-78609124D02*
X171783909Y-78609124D01*
X171783909Y-78609124D02*
X171688671Y-78561505D01*
X171688671Y-78561505D02*
X171641052Y-78466267D01*
X171641052Y-78466267D02*
X171641052Y-78275791D01*
X171641052Y-78275791D02*
X171688671Y-78180553D01*
X171688671Y-78180553D02*
X171783909Y-78132934D01*
X171783909Y-78132934D02*
X171879147Y-78132934D01*
X171879147Y-78132934D02*
X171974385Y-78609124D01*
X172307719Y-77704362D02*
X171307719Y-77704362D01*
X172307719Y-77275791D02*
X171783909Y-77275791D01*
X171783909Y-77275791D02*
X171688671Y-77323410D01*
X171688671Y-77323410D02*
X171641052Y-77418648D01*
X171641052Y-77418648D02*
X171641052Y-77561505D01*
X171641052Y-77561505D02*
X171688671Y-77656743D01*
X171688671Y-77656743D02*
X171736290Y-77704362D01*
X171641052Y-76894838D02*
X172307719Y-76656743D01*
X171641052Y-76418648D02*
X172307719Y-76656743D01*
X172307719Y-76656743D02*
X172545814Y-76751981D01*
X172545814Y-76751981D02*
X172593433Y-76799600D01*
X172593433Y-76799600D02*
X172641052Y-76894838D01*
X172307719Y-75609124D02*
X171307719Y-75609124D01*
X172260100Y-75609124D02*
X172307719Y-75704362D01*
X172307719Y-75704362D02*
X172307719Y-75894838D01*
X172307719Y-75894838D02*
X172260100Y-75990076D01*
X172260100Y-75990076D02*
X172212480Y-76037695D01*
X172212480Y-76037695D02*
X172117242Y-76085314D01*
X172117242Y-76085314D02*
X171831528Y-76085314D01*
X171831528Y-76085314D02*
X171736290Y-76037695D01*
X171736290Y-76037695D02*
X171688671Y-75990076D01*
X171688671Y-75990076D02*
X171641052Y-75894838D01*
X171641052Y-75894838D02*
X171641052Y-75704362D01*
X171641052Y-75704362D02*
X171688671Y-75609124D01*
X172307719Y-75132933D02*
X171641052Y-75132933D01*
X171831528Y-75132933D02*
X171736290Y-75085314D01*
X171736290Y-75085314D02*
X171688671Y-75037695D01*
X171688671Y-75037695D02*
X171641052Y-74942457D01*
X171641052Y-74942457D02*
X171641052Y-74847219D01*
X172307719Y-74085314D02*
X171783909Y-74085314D01*
X171783909Y-74085314D02*
X171688671Y-74132933D01*
X171688671Y-74132933D02*
X171641052Y-74228171D01*
X171641052Y-74228171D02*
X171641052Y-74418647D01*
X171641052Y-74418647D02*
X171688671Y-74513885D01*
X172260100Y-74085314D02*
X172307719Y-74180552D01*
X172307719Y-74180552D02*
X172307719Y-74418647D01*
X172307719Y-74418647D02*
X172260100Y-74513885D01*
X172260100Y-74513885D02*
X172164861Y-74561504D01*
X172164861Y-74561504D02*
X172069623Y-74561504D01*
X172069623Y-74561504D02*
X171974385Y-74513885D01*
X171974385Y-74513885D02*
X171926766Y-74418647D01*
X171926766Y-74418647D02*
X171926766Y-74180552D01*
X171926766Y-74180552D02*
X171879147Y-74085314D01*
X171641052Y-73751980D02*
X171641052Y-73371028D01*
X171307719Y-73609123D02*
X172164861Y-73609123D01*
X172164861Y-73609123D02*
X172260100Y-73561504D01*
X172260100Y-73561504D02*
X172307719Y-73466266D01*
X172307719Y-73466266D02*
X172307719Y-73371028D01*
X172307719Y-73037694D02*
X171641052Y-73037694D01*
X171307719Y-73037694D02*
X171355338Y-73085313D01*
X171355338Y-73085313D02*
X171402957Y-73037694D01*
X171402957Y-73037694D02*
X171355338Y-72990075D01*
X171355338Y-72990075D02*
X171307719Y-73037694D01*
X171307719Y-73037694D02*
X171402957Y-73037694D01*
X172307719Y-72418647D02*
X172260100Y-72513885D01*
X172260100Y-72513885D02*
X172212480Y-72561504D01*
X172212480Y-72561504D02*
X172117242Y-72609123D01*
X172117242Y-72609123D02*
X171831528Y-72609123D01*
X171831528Y-72609123D02*
X171736290Y-72561504D01*
X171736290Y-72561504D02*
X171688671Y-72513885D01*
X171688671Y-72513885D02*
X171641052Y-72418647D01*
X171641052Y-72418647D02*
X171641052Y-72275790D01*
X171641052Y-72275790D02*
X171688671Y-72180552D01*
X171688671Y-72180552D02*
X171736290Y-72132933D01*
X171736290Y-72132933D02*
X171831528Y-72085314D01*
X171831528Y-72085314D02*
X172117242Y-72085314D01*
X172117242Y-72085314D02*
X172212480Y-72132933D01*
X172212480Y-72132933D02*
X172260100Y-72180552D01*
X172260100Y-72180552D02*
X172307719Y-72275790D01*
X172307719Y-72275790D02*
X172307719Y-72418647D01*
X171641052Y-71656742D02*
X172307719Y-71656742D01*
X171736290Y-71656742D02*
X171688671Y-71609123D01*
X171688671Y-71609123D02*
X171641052Y-71513885D01*
X171641052Y-71513885D02*
X171641052Y-71371028D01*
X171641052Y-71371028D02*
X171688671Y-71275790D01*
X171688671Y-71275790D02*
X171783909Y-71228171D01*
X171783909Y-71228171D02*
X172307719Y-71228171D01*
X172402957Y-70990076D02*
X172402957Y-70228171D01*
X172307719Y-69990075D02*
X171307719Y-69990075D01*
X171688671Y-69990075D02*
X171641052Y-69894837D01*
X171641052Y-69894837D02*
X171641052Y-69704361D01*
X171641052Y-69704361D02*
X171688671Y-69609123D01*
X171688671Y-69609123D02*
X171736290Y-69561504D01*
X171736290Y-69561504D02*
X171831528Y-69513885D01*
X171831528Y-69513885D02*
X172117242Y-69513885D01*
X172117242Y-69513885D02*
X172212480Y-69561504D01*
X172212480Y-69561504D02*
X172260100Y-69609123D01*
X172260100Y-69609123D02*
X172307719Y-69704361D01*
X172307719Y-69704361D02*
X172307719Y-69894837D01*
X172307719Y-69894837D02*
X172260100Y-69990075D01*
X172307719Y-68656742D02*
X171783909Y-68656742D01*
X171783909Y-68656742D02*
X171688671Y-68704361D01*
X171688671Y-68704361D02*
X171641052Y-68799599D01*
X171641052Y-68799599D02*
X171641052Y-68990075D01*
X171641052Y-68990075D02*
X171688671Y-69085313D01*
X172260100Y-68656742D02*
X172307719Y-68751980D01*
X172307719Y-68751980D02*
X172307719Y-68990075D01*
X172307719Y-68990075D02*
X172260100Y-69085313D01*
X172260100Y-69085313D02*
X172164861Y-69132932D01*
X172164861Y-69132932D02*
X172069623Y-69132932D01*
X172069623Y-69132932D02*
X171974385Y-69085313D01*
X171974385Y-69085313D02*
X171926766Y-68990075D01*
X171926766Y-68990075D02*
X171926766Y-68751980D01*
X171926766Y-68751980D02*
X171879147Y-68656742D01*
X172260100Y-67751980D02*
X172307719Y-67847218D01*
X172307719Y-67847218D02*
X172307719Y-68037694D01*
X172307719Y-68037694D02*
X172260100Y-68132932D01*
X172260100Y-68132932D02*
X172212480Y-68180551D01*
X172212480Y-68180551D02*
X172117242Y-68228170D01*
X172117242Y-68228170D02*
X171831528Y-68228170D01*
X171831528Y-68228170D02*
X171736290Y-68180551D01*
X171736290Y-68180551D02*
X171688671Y-68132932D01*
X171688671Y-68132932D02*
X171641052Y-68037694D01*
X171641052Y-68037694D02*
X171641052Y-67847218D01*
X171641052Y-67847218D02*
X171688671Y-67751980D01*
X172307719Y-67323408D02*
X171307719Y-67323408D01*
X171926766Y-67228170D02*
X172307719Y-66942456D01*
X171641052Y-66942456D02*
X172022004Y-67323408D01*
X172307719Y-65990075D02*
X172307719Y-66561503D01*
X172307719Y-66275789D02*
X171307719Y-66275789D01*
X171307719Y-66275789D02*
X171450576Y-66371027D01*
X171450576Y-66371027D02*
X171545814Y-66466265D01*
X171545814Y-66466265D02*
X171593433Y-66561503D01*
X101904762Y-134454819D02*
X101904762Y-133454819D01*
X101904762Y-133454819D02*
X102238095Y-134169104D01*
X102238095Y-134169104D02*
X102571428Y-133454819D01*
X102571428Y-133454819D02*
X102571428Y-134454819D01*
X103047619Y-134454819D02*
X103047619Y-133788152D01*
X103047619Y-133454819D02*
X103000000Y-133502438D01*
X103000000Y-133502438D02*
X103047619Y-133550057D01*
X103047619Y-133550057D02*
X103095238Y-133502438D01*
X103095238Y-133502438D02*
X103047619Y-133454819D01*
X103047619Y-133454819D02*
X103047619Y-133550057D01*
X103428571Y-134454819D02*
X103952380Y-133788152D01*
X103428571Y-133788152D02*
X103952380Y-134454819D01*
X104333333Y-134454819D02*
X104333333Y-133788152D01*
X104333333Y-133454819D02*
X104285714Y-133502438D01*
X104285714Y-133502438D02*
X104333333Y-133550057D01*
X104333333Y-133550057D02*
X104380952Y-133502438D01*
X104380952Y-133502438D02*
X104333333Y-133454819D01*
X104333333Y-133454819D02*
X104333333Y-133550057D01*
X104809523Y-133788152D02*
X104809523Y-134454819D01*
X104809523Y-133883390D02*
X104857142Y-133835771D01*
X104857142Y-133835771D02*
X104952380Y-133788152D01*
X104952380Y-133788152D02*
X105095237Y-133788152D01*
X105095237Y-133788152D02*
X105190475Y-133835771D01*
X105190475Y-133835771D02*
X105238094Y-133931009D01*
X105238094Y-133931009D02*
X105238094Y-134454819D01*
X106142856Y-133788152D02*
X106142856Y-134597676D01*
X106142856Y-134597676D02*
X106095237Y-134692914D01*
X106095237Y-134692914D02*
X106047618Y-134740533D01*
X106047618Y-134740533D02*
X105952380Y-134788152D01*
X105952380Y-134788152D02*
X105809523Y-134788152D01*
X105809523Y-134788152D02*
X105714285Y-134740533D01*
X106142856Y-134407200D02*
X106047618Y-134454819D01*
X106047618Y-134454819D02*
X105857142Y-134454819D01*
X105857142Y-134454819D02*
X105761904Y-134407200D01*
X105761904Y-134407200D02*
X105714285Y-134359580D01*
X105714285Y-134359580D02*
X105666666Y-134264342D01*
X105666666Y-134264342D02*
X105666666Y-133978628D01*
X105666666Y-133978628D02*
X105714285Y-133883390D01*
X105714285Y-133883390D02*
X105761904Y-133835771D01*
X105761904Y-133835771D02*
X105857142Y-133788152D01*
X105857142Y-133788152D02*
X106047618Y-133788152D01*
X106047618Y-133788152D02*
X106142856Y-133835771D01*
X107142856Y-134454819D02*
X106571428Y-134454819D01*
X106857142Y-134454819D02*
X106857142Y-133454819D01*
X106857142Y-133454819D02*
X106761904Y-133597676D01*
X106761904Y-133597676D02*
X106666666Y-133692914D01*
X106666666Y-133692914D02*
X106571428Y-133740533D01*
D12*
%TO.C,vd_c2*%
X109945225Y-70025000D02*
X110445225Y-70025000D01*
X110195225Y-69775000D02*
X110195225Y-70275000D01*
X112750000Y-68920000D02*
X112750000Y-74080000D01*
X112790000Y-68920000D02*
X112790000Y-74080000D01*
X112830000Y-68921000D02*
X112830000Y-74079000D01*
X112870000Y-68923000D02*
X112870000Y-74077000D01*
X112910000Y-68925000D02*
X112910000Y-74075000D01*
X112950000Y-68928000D02*
X112950000Y-74072000D01*
X112990000Y-68931000D02*
X112990000Y-70460000D01*
X112990000Y-72540000D02*
X112990000Y-74069000D01*
X113030000Y-68935000D02*
X113030000Y-70460000D01*
X113030000Y-72540000D02*
X113030000Y-74065000D01*
X113070000Y-68940000D02*
X113070000Y-70460000D01*
X113070000Y-72540000D02*
X113070000Y-74060000D01*
X113110000Y-68945000D02*
X113110000Y-70460000D01*
X113110000Y-72540000D02*
X113110000Y-74055000D01*
X113150000Y-68951000D02*
X113150000Y-70460000D01*
X113150000Y-72540000D02*
X113150000Y-74049000D01*
X113190000Y-68957000D02*
X113190000Y-70460000D01*
X113190000Y-72540000D02*
X113190000Y-74043000D01*
X113230000Y-68964000D02*
X113230000Y-70460000D01*
X113230000Y-72540000D02*
X113230000Y-74036000D01*
X113270000Y-68972000D02*
X113270000Y-70460000D01*
X113270000Y-72540000D02*
X113270000Y-74028000D01*
X113310000Y-68981000D02*
X113310000Y-70460000D01*
X113310000Y-72540000D02*
X113310000Y-74019000D01*
X113350000Y-68990000D02*
X113350000Y-70460000D01*
X113350000Y-72540000D02*
X113350000Y-74010000D01*
X113390000Y-68999000D02*
X113390000Y-70460000D01*
X113390000Y-72540000D02*
X113390000Y-74001000D01*
X113430000Y-69010000D02*
X113430000Y-70460000D01*
X113430000Y-72540000D02*
X113430000Y-73990000D01*
X113470000Y-69021000D02*
X113470000Y-70460000D01*
X113470000Y-72540000D02*
X113470000Y-73979000D01*
X113510000Y-69033000D02*
X113510000Y-70460000D01*
X113510000Y-72540000D02*
X113510000Y-73967000D01*
X113550000Y-69045000D02*
X113550000Y-70460000D01*
X113550000Y-72540000D02*
X113550000Y-73955000D01*
X113590000Y-69058000D02*
X113590000Y-70460000D01*
X113590000Y-72540000D02*
X113590000Y-73942000D01*
X113630000Y-69072000D02*
X113630000Y-70460000D01*
X113630000Y-72540000D02*
X113630000Y-73928000D01*
X113670000Y-69087000D02*
X113670000Y-70460000D01*
X113670000Y-72540000D02*
X113670000Y-73913000D01*
X113710000Y-69102000D02*
X113710000Y-70460000D01*
X113710000Y-72540000D02*
X113710000Y-73898000D01*
X113750000Y-69118000D02*
X113750000Y-70460000D01*
X113750000Y-72540000D02*
X113750000Y-73882000D01*
X113790000Y-69135000D02*
X113790000Y-70460000D01*
X113790000Y-72540000D02*
X113790000Y-73865000D01*
X113830000Y-69153000D02*
X113830000Y-70460000D01*
X113830000Y-72540000D02*
X113830000Y-73847000D01*
X113870000Y-69171000D02*
X113870000Y-70460000D01*
X113870000Y-72540000D02*
X113870000Y-73829000D01*
X113910000Y-69191000D02*
X113910000Y-70460000D01*
X113910000Y-72540000D02*
X113910000Y-73809000D01*
X113950000Y-69211000D02*
X113950000Y-70460000D01*
X113950000Y-72540000D02*
X113950000Y-73789000D01*
X113990000Y-69232000D02*
X113990000Y-70460000D01*
X113990000Y-72540000D02*
X113990000Y-73768000D01*
X114030000Y-69254000D02*
X114030000Y-70460000D01*
X114030000Y-72540000D02*
X114030000Y-73746000D01*
X114070000Y-69277000D02*
X114070000Y-70460000D01*
X114070000Y-72540000D02*
X114070000Y-73723000D01*
X114110000Y-69301000D02*
X114110000Y-70460000D01*
X114110000Y-72540000D02*
X114110000Y-73699000D01*
X114150000Y-69325000D02*
X114150000Y-70460000D01*
X114150000Y-72540000D02*
X114150000Y-73675000D01*
X114190000Y-69351000D02*
X114190000Y-70460000D01*
X114190000Y-72540000D02*
X114190000Y-73649000D01*
X114230000Y-69378000D02*
X114230000Y-70460000D01*
X114230000Y-72540000D02*
X114230000Y-73622000D01*
X114270000Y-69406000D02*
X114270000Y-70460000D01*
X114270000Y-72540000D02*
X114270000Y-73594000D01*
X114310000Y-69435000D02*
X114310000Y-70460000D01*
X114310000Y-72540000D02*
X114310000Y-73565000D01*
X114350000Y-69465000D02*
X114350000Y-70460000D01*
X114350000Y-72540000D02*
X114350000Y-73535000D01*
X114390000Y-69497000D02*
X114390000Y-70460000D01*
X114390000Y-72540000D02*
X114390000Y-73503000D01*
X114430000Y-69530000D02*
X114430000Y-70460000D01*
X114430000Y-72540000D02*
X114430000Y-73470000D01*
X114470000Y-69564000D02*
X114470000Y-70460000D01*
X114470000Y-72540000D02*
X114470000Y-73436000D01*
X114510000Y-69599000D02*
X114510000Y-70460000D01*
X114510000Y-72540000D02*
X114510000Y-73401000D01*
X114550000Y-69636000D02*
X114550000Y-70460000D01*
X114550000Y-72540000D02*
X114550000Y-73364000D01*
X114590000Y-69675000D02*
X114590000Y-70460000D01*
X114590000Y-72540000D02*
X114590000Y-73325000D01*
X114630000Y-69715000D02*
X114630000Y-70460000D01*
X114630000Y-72540000D02*
X114630000Y-73285000D01*
X114670000Y-69757000D02*
X114670000Y-70460000D01*
X114670000Y-72540000D02*
X114670000Y-73243000D01*
X114710000Y-69801000D02*
X114710000Y-70460000D01*
X114710000Y-72540000D02*
X114710000Y-73199000D01*
X114750000Y-69848000D02*
X114750000Y-70460000D01*
X114750000Y-72540000D02*
X114750000Y-73152000D01*
X114790000Y-69896000D02*
X114790000Y-70460000D01*
X114790000Y-72540000D02*
X114790000Y-73104000D01*
X114830000Y-69947000D02*
X114830000Y-70460000D01*
X114830000Y-72540000D02*
X114830000Y-73053000D01*
X114870000Y-70001000D02*
X114870000Y-70460000D01*
X114870000Y-72540000D02*
X114870000Y-72999000D01*
X114910000Y-70057000D02*
X114910000Y-70460000D01*
X114910000Y-72540000D02*
X114910000Y-72943000D01*
X114950000Y-70117000D02*
X114950000Y-70460000D01*
X114950000Y-72540000D02*
X114950000Y-72883000D01*
X114990000Y-70181000D02*
X114990000Y-70460000D01*
X114990000Y-72540000D02*
X114990000Y-72819000D01*
X115030000Y-70249000D02*
X115030000Y-70460000D01*
X115030000Y-72540000D02*
X115030000Y-72751000D01*
X115070000Y-70323000D02*
X115070000Y-72677000D01*
X115110000Y-70402000D02*
X115110000Y-72598000D01*
X115150000Y-70489000D02*
X115150000Y-72511000D01*
X115190000Y-70586000D02*
X115190000Y-72414000D01*
X115230000Y-70695000D02*
X115230000Y-72305000D01*
X115270000Y-70823000D02*
X115270000Y-72177000D01*
X115310000Y-70983000D02*
X115310000Y-72017000D01*
X115350000Y-71217000D02*
X115350000Y-71783000D01*
X115370000Y-71500000D02*
G75*
G02*
X110130000Y-71500000I-2620000J0D01*
G01*
X110130000Y-71500000D02*
G75*
G02*
X115370000Y-71500000I2620000J0D01*
G01*
%TO.C,Regulator1*%
X137475000Y-135025000D02*
X143895000Y-135025000D01*
X137475000Y-141925000D02*
X143895000Y-141925000D01*
X143895000Y-135025000D02*
X143895000Y-135295000D01*
X143895000Y-141925000D02*
X143895000Y-141655000D01*
X145965000Y-142085000D02*
X145285000Y-142085000D01*
X145625000Y-141615000D01*
X145965000Y-142085000D01*
G36*
X145965000Y-142085000D02*
G01*
X145285000Y-142085000D01*
X145625000Y-141615000D01*
X145965000Y-142085000D01*
G37*
%TO.C,PTCFuse1*%
X111885436Y-127090000D02*
X113089564Y-127090000D01*
X111885436Y-128910000D02*
X113089564Y-128910000D01*
%TO.C,D1*%
X119260000Y-128000000D02*
X120280000Y-128000000D01*
X120280000Y-126530000D02*
X120280000Y-129470000D01*
X120280000Y-129470000D02*
X125720000Y-129470000D01*
X121060000Y-126530000D02*
X121060000Y-129470000D01*
X121180000Y-126530000D02*
X121180000Y-129470000D01*
X121300000Y-126530000D02*
X121300000Y-129470000D01*
X125720000Y-126530000D02*
X120280000Y-126530000D01*
X125720000Y-129470000D02*
X125720000Y-126530000D01*
X126740000Y-128000000D02*
X125720000Y-128000000D01*
%TO.C,mix1*%
X118380000Y-116730000D02*
X118710000Y-116730000D01*
X118380000Y-123270000D02*
X118380000Y-116730000D01*
X118710000Y-123270000D02*
X118380000Y-123270000D01*
X120790000Y-123270000D02*
X121120000Y-123270000D01*
X121120000Y-116730000D02*
X120790000Y-116730000D01*
X121120000Y-123270000D02*
X121120000Y-116730000D01*
%TO.C,Q3*%
X115100000Y-106570000D02*
X115100000Y-102970000D01*
X110650000Y-104770000D02*
G75*
G02*
X115088478Y-102931522I2600000J0D01*
G01*
X115088478Y-106608478D02*
G75*
G02*
X110649999Y-104770000I-1838478J1838478D01*
G01*
%TO.C,J3*%
X160911500Y-107446700D02*
X168951500Y-107446700D01*
X160911500Y-128186700D02*
X160911500Y-107446700D01*
X160911500Y-128186700D02*
X168951500Y-128186700D01*
X164531500Y-108254700D02*
X164531500Y-107446700D01*
X164531500Y-113254700D02*
X164531500Y-111878700D01*
X164531500Y-118254700D02*
X164531500Y-116878700D01*
X164531500Y-123186700D02*
X164531500Y-121878700D01*
X164531500Y-128186700D02*
X164531500Y-126946700D01*
X165531500Y-108254700D02*
X165531500Y-107446700D01*
X165531500Y-113254700D02*
X165531500Y-111878700D01*
X165531500Y-118254700D02*
X165531500Y-116878700D01*
X165531500Y-123186700D02*
X165531500Y-121878700D01*
X165531500Y-128186700D02*
X165531500Y-126946700D01*
X166831500Y-109523700D02*
X166831500Y-107446700D01*
X166831500Y-114523700D02*
X166831500Y-110609700D01*
X166831500Y-119523700D02*
X166831500Y-115609700D01*
X166831500Y-123186700D02*
X166831500Y-120609700D01*
X166831500Y-128186700D02*
X166831500Y-126946700D01*
X168951500Y-124766700D02*
X168951500Y-107446700D01*
X168951500Y-128186700D02*
X168951500Y-125366700D01*
X169561500Y-125506700D02*
X168951500Y-125066700D01*
X169561500Y-124626700D01*
X169561500Y-125506700D01*
G36*
X169561500Y-125506700D02*
G01*
X168951500Y-125066700D01*
X169561500Y-124626700D01*
X169561500Y-125506700D01*
G37*
%TO.C,motor_c1*%
X137249759Y-128161000D02*
X137879759Y-128161000D01*
X137564759Y-127846000D02*
X137564759Y-128476000D01*
X140750000Y-126770000D02*
X140750000Y-133230000D01*
X140790000Y-126770000D02*
X140790000Y-133230000D01*
X140830000Y-126771000D02*
X140830000Y-133229000D01*
X140870000Y-126772000D02*
X140870000Y-133228000D01*
X140910000Y-126774000D02*
X140910000Y-133226000D01*
X140950000Y-126776000D02*
X140950000Y-133224000D01*
X140990000Y-126779000D02*
X140990000Y-128960000D01*
X140990000Y-131040000D02*
X140990000Y-133221000D01*
X141030000Y-126782000D02*
X141030000Y-128960000D01*
X141030000Y-131040000D02*
X141030000Y-133218000D01*
X141070000Y-126786000D02*
X141070000Y-128960000D01*
X141070000Y-131040000D02*
X141070000Y-133214000D01*
X141110000Y-126790000D02*
X141110000Y-128960000D01*
X141110000Y-131040000D02*
X141110000Y-133210000D01*
X141150000Y-126795000D02*
X141150000Y-128960000D01*
X141150000Y-131040000D02*
X141150000Y-133205000D01*
X141190000Y-126800000D02*
X141190000Y-128960000D01*
X141190000Y-131040000D02*
X141190000Y-133200000D01*
X141230000Y-126805000D02*
X141230000Y-128960000D01*
X141230000Y-131040000D02*
X141230000Y-133195000D01*
X141270000Y-126812000D02*
X141270000Y-128960000D01*
X141270000Y-131040000D02*
X141270000Y-133188000D01*
X141310000Y-126818000D02*
X141310000Y-128960000D01*
X141310000Y-131040000D02*
X141310000Y-133182000D01*
X141350000Y-126826000D02*
X141350000Y-128960000D01*
X141350000Y-131040000D02*
X141350000Y-133174000D01*
X141390000Y-126833000D02*
X141390000Y-128960000D01*
X141390000Y-131040000D02*
X141390000Y-133167000D01*
X141430000Y-126841000D02*
X141430000Y-128960000D01*
X141430000Y-131040000D02*
X141430000Y-133159000D01*
X141470000Y-126850000D02*
X141470000Y-128960000D01*
X141470000Y-131040000D02*
X141470000Y-133150000D01*
X141510000Y-126860000D02*
X141510000Y-128960000D01*
X141510000Y-131040000D02*
X141510000Y-133140000D01*
X141550000Y-126869000D02*
X141550000Y-128960000D01*
X141550000Y-131040000D02*
X141550000Y-133131000D01*
X141590000Y-126880000D02*
X141590000Y-128960000D01*
X141590000Y-131040000D02*
X141590000Y-133120000D01*
X141630000Y-126891000D02*
X141630000Y-128960000D01*
X141630000Y-131040000D02*
X141630000Y-133109000D01*
X141670000Y-126902000D02*
X141670000Y-128960000D01*
X141670000Y-131040000D02*
X141670000Y-133098000D01*
X141710000Y-126914000D02*
X141710000Y-128960000D01*
X141710000Y-131040000D02*
X141710000Y-133086000D01*
X141750000Y-126927000D02*
X141750000Y-128960000D01*
X141750000Y-131040000D02*
X141750000Y-133073000D01*
X141790000Y-126940000D02*
X141790000Y-128960000D01*
X141790000Y-131040000D02*
X141790000Y-133060000D01*
X141830000Y-126953000D02*
X141830000Y-128960000D01*
X141830000Y-131040000D02*
X141830000Y-133047000D01*
X141870000Y-126968000D02*
X141870000Y-128960000D01*
X141870000Y-131040000D02*
X141870000Y-133032000D01*
X141910000Y-126983000D02*
X141910000Y-128960000D01*
X141910000Y-131040000D02*
X141910000Y-133017000D01*
X141950000Y-126998000D02*
X141950000Y-128960000D01*
X141950000Y-131040000D02*
X141950000Y-133002000D01*
X141990000Y-127014000D02*
X141990000Y-128960000D01*
X141990000Y-131040000D02*
X141990000Y-132986000D01*
X142030000Y-127031000D02*
X142030000Y-128960000D01*
X142030000Y-131040000D02*
X142030000Y-132969000D01*
X142070000Y-127048000D02*
X142070000Y-128960000D01*
X142070000Y-131040000D02*
X142070000Y-132952000D01*
X142110000Y-127066000D02*
X142110000Y-128960000D01*
X142110000Y-131040000D02*
X142110000Y-132934000D01*
X142150000Y-127085000D02*
X142150000Y-128960000D01*
X142150000Y-131040000D02*
X142150000Y-132915000D01*
X142190000Y-127104000D02*
X142190000Y-128960000D01*
X142190000Y-131040000D02*
X142190000Y-132896000D01*
X142230000Y-127124000D02*
X142230000Y-128960000D01*
X142230000Y-131040000D02*
X142230000Y-132876000D01*
X142270000Y-127145000D02*
X142270000Y-128960000D01*
X142270000Y-131040000D02*
X142270000Y-132855000D01*
X142310000Y-127166000D02*
X142310000Y-128960000D01*
X142310000Y-131040000D02*
X142310000Y-132834000D01*
X142350000Y-127188000D02*
X142350000Y-128960000D01*
X142350000Y-131040000D02*
X142350000Y-132812000D01*
X142390000Y-127211000D02*
X142390000Y-128960000D01*
X142390000Y-131040000D02*
X142390000Y-132789000D01*
X142430000Y-127235000D02*
X142430000Y-128960000D01*
X142430000Y-131040000D02*
X142430000Y-132765000D01*
X142470000Y-127259000D02*
X142470000Y-128960000D01*
X142470000Y-131040000D02*
X142470000Y-132741000D01*
X142510000Y-127284000D02*
X142510000Y-128960000D01*
X142510000Y-131040000D02*
X142510000Y-132716000D01*
X142550000Y-127310000D02*
X142550000Y-128960000D01*
X142550000Y-131040000D02*
X142550000Y-132690000D01*
X142590000Y-127337000D02*
X142590000Y-128960000D01*
X142590000Y-131040000D02*
X142590000Y-132663000D01*
X142630000Y-127364000D02*
X142630000Y-128960000D01*
X142630000Y-131040000D02*
X142630000Y-132636000D01*
X142670000Y-127393000D02*
X142670000Y-128960000D01*
X142670000Y-131040000D02*
X142670000Y-132607000D01*
X142710000Y-127423000D02*
X142710000Y-128960000D01*
X142710000Y-131040000D02*
X142710000Y-132577000D01*
X142750000Y-127453000D02*
X142750000Y-128960000D01*
X142750000Y-131040000D02*
X142750000Y-132547000D01*
X142790000Y-127484000D02*
X142790000Y-128960000D01*
X142790000Y-131040000D02*
X142790000Y-132516000D01*
X142830000Y-127517000D02*
X142830000Y-128960000D01*
X142830000Y-131040000D02*
X142830000Y-132483000D01*
X142870000Y-127550000D02*
X142870000Y-128960000D01*
X142870000Y-131040000D02*
X142870000Y-132450000D01*
X142910000Y-127585000D02*
X142910000Y-128960000D01*
X142910000Y-131040000D02*
X142910000Y-132415000D01*
X142950000Y-127621000D02*
X142950000Y-128960000D01*
X142950000Y-131040000D02*
X142950000Y-132379000D01*
X142990000Y-127658000D02*
X142990000Y-128960000D01*
X142990000Y-131040000D02*
X142990000Y-132342000D01*
X143030000Y-127696000D02*
X143030000Y-128960000D01*
X143030000Y-131040000D02*
X143030000Y-132304000D01*
X143070000Y-127736000D02*
X143070000Y-132264000D01*
X143110000Y-127777000D02*
X143110000Y-132223000D01*
X143150000Y-127819000D02*
X143150000Y-132181000D01*
X143190000Y-127863000D02*
X143190000Y-132137000D01*
X143230000Y-127909000D02*
X143230000Y-132091000D01*
X143270000Y-127956000D02*
X143270000Y-132044000D01*
X143310000Y-128005000D02*
X143310000Y-131995000D01*
X143350000Y-128057000D02*
X143350000Y-131943000D01*
X143390000Y-128110000D02*
X143390000Y-131890000D01*
X143430000Y-128166000D02*
X143430000Y-131834000D01*
X143470000Y-128225000D02*
X143470000Y-131775000D01*
X143510000Y-128286000D02*
X143510000Y-131714000D01*
X143550000Y-128351000D02*
X143550000Y-131649000D01*
X143590000Y-128419000D02*
X143590000Y-131581000D01*
X143630000Y-128491000D02*
X143630000Y-131509000D01*
X143670000Y-128568000D02*
X143670000Y-131432000D01*
X143710000Y-128650000D02*
X143710000Y-131350000D01*
X143750000Y-128739000D02*
X143750000Y-131261000D01*
X143790000Y-128835000D02*
X143790000Y-131165000D01*
X143830000Y-128942000D02*
X143830000Y-131058000D01*
X143870000Y-129061000D02*
X143870000Y-130939000D01*
X143910000Y-129199000D02*
X143910000Y-130801000D01*
X143950000Y-129367000D02*
X143950000Y-130633000D01*
X143990000Y-129598000D02*
X143990000Y-130402000D01*
X144020000Y-130000000D02*
G75*
G02*
X137480000Y-130000000I-3270000J0D01*
G01*
X137480000Y-130000000D02*
G75*
G02*
X144020000Y-130000000I3270000J0D01*
G01*
%TO.C,vd_c1*%
X118580000Y-69015000D02*
X118580000Y-67485000D01*
X120420000Y-69015000D02*
X120420000Y-67485000D01*
%TO.C,MovingBumper_back1*%
X116880000Y-53380000D02*
X116880000Y-61420000D01*
X116880000Y-53380000D02*
X132620000Y-53380000D01*
X116880000Y-57000000D02*
X118120000Y-57000000D01*
X116880000Y-58000000D02*
X118120000Y-58000000D01*
X116880000Y-59300000D02*
X118120000Y-59300000D01*
X116880000Y-61420000D02*
X119700000Y-61420000D01*
X120300000Y-61420000D02*
X132620000Y-61420000D01*
X121880000Y-57000000D02*
X123188000Y-57000000D01*
X121880000Y-58000000D02*
X123188000Y-58000000D01*
X121880000Y-59300000D02*
X124457000Y-59300000D01*
X125543000Y-59300000D02*
X129457000Y-59300000D01*
X126812000Y-57000000D02*
X128188000Y-57000000D01*
X126812000Y-58000000D02*
X128188000Y-58000000D01*
X130543000Y-59300000D02*
X132620000Y-59300000D01*
X131812000Y-57000000D02*
X132620000Y-57000000D01*
X131812000Y-58000000D02*
X132620000Y-58000000D01*
X132620000Y-53380000D02*
X132620000Y-61420000D01*
X120440000Y-62030000D02*
X119560000Y-62030000D01*
X120000000Y-61420000D01*
X120440000Y-62030000D01*
G36*
X120440000Y-62030000D02*
G01*
X119560000Y-62030000D01*
X120000000Y-61420000D01*
X120440000Y-62030000D01*
G37*
%TO.C,MovingBumper_front1*%
X134777900Y-61800400D02*
X134777900Y-53760400D01*
X135585900Y-57180400D02*
X134777900Y-57180400D01*
X135585900Y-58180400D02*
X134777900Y-58180400D01*
X136854900Y-55880400D02*
X134777900Y-55880400D01*
X140585900Y-57180400D02*
X139209900Y-57180400D01*
X140585900Y-58180400D02*
X139209900Y-58180400D01*
X141854900Y-55880400D02*
X137940900Y-55880400D01*
X145517900Y-55880400D02*
X142940900Y-55880400D01*
X145517900Y-57180400D02*
X144209900Y-57180400D01*
X145517900Y-58180400D02*
X144209900Y-58180400D01*
X147097900Y-53760400D02*
X134777900Y-53760400D01*
X150517900Y-53760400D02*
X147697900Y-53760400D01*
X150517900Y-55880400D02*
X149277900Y-55880400D01*
X150517900Y-57180400D02*
X149277900Y-57180400D01*
X150517900Y-58180400D02*
X149277900Y-58180400D01*
X150517900Y-61800400D02*
X134777900Y-61800400D01*
X150517900Y-61800400D02*
X150517900Y-53760400D01*
X147397900Y-53760400D02*
X146957900Y-53150400D01*
X147837900Y-53150400D01*
X147397900Y-53760400D01*
G36*
X147397900Y-53760400D02*
G01*
X146957900Y-53150400D01*
X147837900Y-53150400D01*
X147397900Y-53760400D01*
G37*
%TO.C,Debug_ports1*%
X148535000Y-138557400D02*
X148535000Y-130517400D01*
X149343000Y-133937400D02*
X148535000Y-133937400D01*
X149343000Y-134937400D02*
X148535000Y-134937400D01*
X150612000Y-132637400D02*
X148535000Y-132637400D01*
X154343000Y-133937400D02*
X152967000Y-133937400D01*
X154343000Y-134937400D02*
X152967000Y-134937400D01*
X155612000Y-132637400D02*
X151698000Y-132637400D01*
X159343000Y-133937400D02*
X157967000Y-133937400D01*
X159343000Y-134937400D02*
X157967000Y-134937400D01*
X160612000Y-132637400D02*
X156698000Y-132637400D01*
X164275000Y-132637400D02*
X161698000Y-132637400D01*
X164275000Y-133937400D02*
X162967000Y-133937400D01*
X164275000Y-134937400D02*
X162967000Y-134937400D01*
X165855000Y-130517400D02*
X148535000Y-130517400D01*
X169275000Y-130517400D02*
X166455000Y-130517400D01*
X169275000Y-132637400D02*
X168035000Y-132637400D01*
X169275000Y-133937400D02*
X168035000Y-133937400D01*
X169275000Y-134937400D02*
X168035000Y-134937400D01*
X169275000Y-138557400D02*
X148535000Y-138557400D01*
X169275000Y-138557400D02*
X169275000Y-130517400D01*
X166155000Y-130517400D02*
X165715000Y-129907400D01*
X166595000Y-129907400D01*
X166155000Y-130517400D01*
G36*
X166155000Y-130517400D02*
G01*
X165715000Y-129907400D01*
X166595000Y-129907400D01*
X166155000Y-130517400D01*
G37*
%TO.C,reg_co1*%
X126445225Y-132025000D02*
X126945225Y-132025000D01*
X126695225Y-131775000D02*
X126695225Y-132275000D01*
X129250000Y-130920000D02*
X129250000Y-136080000D01*
X129290000Y-130920000D02*
X129290000Y-136080000D01*
X129330000Y-130921000D02*
X129330000Y-136079000D01*
X129370000Y-130923000D02*
X129370000Y-136077000D01*
X129410000Y-130925000D02*
X129410000Y-136075000D01*
X129450000Y-130928000D02*
X129450000Y-136072000D01*
X129490000Y-130931000D02*
X129490000Y-132460000D01*
X129490000Y-134540000D02*
X129490000Y-136069000D01*
X129530000Y-130935000D02*
X129530000Y-132460000D01*
X129530000Y-134540000D02*
X129530000Y-136065000D01*
X129570000Y-130940000D02*
X129570000Y-132460000D01*
X129570000Y-134540000D02*
X129570000Y-136060000D01*
X129610000Y-130945000D02*
X129610000Y-132460000D01*
X129610000Y-134540000D02*
X129610000Y-136055000D01*
X129650000Y-130951000D02*
X129650000Y-132460000D01*
X129650000Y-134540000D02*
X129650000Y-136049000D01*
X129690000Y-130957000D02*
X129690000Y-132460000D01*
X129690000Y-134540000D02*
X129690000Y-136043000D01*
X129730000Y-130964000D02*
X129730000Y-132460000D01*
X129730000Y-134540000D02*
X129730000Y-136036000D01*
X129770000Y-130972000D02*
X129770000Y-132460000D01*
X129770000Y-134540000D02*
X129770000Y-136028000D01*
X129810000Y-130981000D02*
X129810000Y-132460000D01*
X129810000Y-134540000D02*
X129810000Y-136019000D01*
X129850000Y-130990000D02*
X129850000Y-132460000D01*
X129850000Y-134540000D02*
X129850000Y-136010000D01*
X129890000Y-130999000D02*
X129890000Y-132460000D01*
X129890000Y-134540000D02*
X129890000Y-136001000D01*
X129930000Y-131010000D02*
X129930000Y-132460000D01*
X129930000Y-134540000D02*
X129930000Y-135990000D01*
X129970000Y-131021000D02*
X129970000Y-132460000D01*
X129970000Y-134540000D02*
X129970000Y-135979000D01*
X130010000Y-131033000D02*
X130010000Y-132460000D01*
X130010000Y-134540000D02*
X130010000Y-135967000D01*
X130050000Y-131045000D02*
X130050000Y-132460000D01*
X130050000Y-134540000D02*
X130050000Y-135955000D01*
X130090000Y-131058000D02*
X130090000Y-132460000D01*
X130090000Y-134540000D02*
X130090000Y-135942000D01*
X130130000Y-131072000D02*
X130130000Y-132460000D01*
X130130000Y-134540000D02*
X130130000Y-135928000D01*
X130170000Y-131087000D02*
X130170000Y-132460000D01*
X130170000Y-134540000D02*
X130170000Y-135913000D01*
X130210000Y-131102000D02*
X130210000Y-132460000D01*
X130210000Y-134540000D02*
X130210000Y-135898000D01*
X130250000Y-131118000D02*
X130250000Y-132460000D01*
X130250000Y-134540000D02*
X130250000Y-135882000D01*
X130290000Y-131135000D02*
X130290000Y-132460000D01*
X130290000Y-134540000D02*
X130290000Y-135865000D01*
X130330000Y-131153000D02*
X130330000Y-132460000D01*
X130330000Y-134540000D02*
X130330000Y-135847000D01*
X130370000Y-131171000D02*
X130370000Y-132460000D01*
X130370000Y-134540000D02*
X130370000Y-135829000D01*
X130410000Y-131191000D02*
X130410000Y-132460000D01*
X130410000Y-134540000D02*
X130410000Y-135809000D01*
X130450000Y-131211000D02*
X130450000Y-132460000D01*
X130450000Y-134540000D02*
X130450000Y-135789000D01*
X130490000Y-131232000D02*
X130490000Y-132460000D01*
X130490000Y-134540000D02*
X130490000Y-135768000D01*
X130530000Y-131254000D02*
X130530000Y-132460000D01*
X130530000Y-134540000D02*
X130530000Y-135746000D01*
X130570000Y-131277000D02*
X130570000Y-132460000D01*
X130570000Y-134540000D02*
X130570000Y-135723000D01*
X130610000Y-131301000D02*
X130610000Y-132460000D01*
X130610000Y-134540000D02*
X130610000Y-135699000D01*
X130650000Y-131325000D02*
X130650000Y-132460000D01*
X130650000Y-134540000D02*
X130650000Y-135675000D01*
X130690000Y-131351000D02*
X130690000Y-132460000D01*
X130690000Y-134540000D02*
X130690000Y-135649000D01*
X130730000Y-131378000D02*
X130730000Y-132460000D01*
X130730000Y-134540000D02*
X130730000Y-135622000D01*
X130770000Y-131406000D02*
X130770000Y-132460000D01*
X130770000Y-134540000D02*
X130770000Y-135594000D01*
X130810000Y-131435000D02*
X130810000Y-132460000D01*
X130810000Y-134540000D02*
X130810000Y-135565000D01*
X130850000Y-131465000D02*
X130850000Y-132460000D01*
X130850000Y-134540000D02*
X130850000Y-135535000D01*
X130890000Y-131497000D02*
X130890000Y-132460000D01*
X130890000Y-134540000D02*
X130890000Y-135503000D01*
X130930000Y-131530000D02*
X130930000Y-132460000D01*
X130930000Y-134540000D02*
X130930000Y-135470000D01*
X130970000Y-131564000D02*
X130970000Y-132460000D01*
X130970000Y-134540000D02*
X130970000Y-135436000D01*
X131010000Y-131599000D02*
X131010000Y-132460000D01*
X131010000Y-134540000D02*
X131010000Y-135401000D01*
X131050000Y-131636000D02*
X131050000Y-132460000D01*
X131050000Y-134540000D02*
X131050000Y-135364000D01*
X131090000Y-131675000D02*
X131090000Y-132460000D01*
X131090000Y-134540000D02*
X131090000Y-135325000D01*
X131130000Y-131715000D02*
X131130000Y-132460000D01*
X131130000Y-134540000D02*
X131130000Y-135285000D01*
X131170000Y-131757000D02*
X131170000Y-132460000D01*
X131170000Y-134540000D02*
X131170000Y-135243000D01*
X131210000Y-131801000D02*
X131210000Y-132460000D01*
X131210000Y-134540000D02*
X131210000Y-135199000D01*
X131250000Y-131848000D02*
X131250000Y-132460000D01*
X131250000Y-134540000D02*
X131250000Y-135152000D01*
X131290000Y-131896000D02*
X131290000Y-132460000D01*
X131290000Y-134540000D02*
X131290000Y-135104000D01*
X131330000Y-131947000D02*
X131330000Y-132460000D01*
X131330000Y-134540000D02*
X131330000Y-135053000D01*
X131370000Y-132001000D02*
X131370000Y-132460000D01*
X131370000Y-134540000D02*
X131370000Y-134999000D01*
X131410000Y-132057000D02*
X131410000Y-132460000D01*
X131410000Y-134540000D02*
X131410000Y-134943000D01*
X131450000Y-132117000D02*
X131450000Y-132460000D01*
X131450000Y-134540000D02*
X131450000Y-134883000D01*
X131490000Y-132181000D02*
X131490000Y-132460000D01*
X131490000Y-134540000D02*
X131490000Y-134819000D01*
X131530000Y-132249000D02*
X131530000Y-132460000D01*
X131530000Y-134540000D02*
X131530000Y-134751000D01*
X131570000Y-132323000D02*
X131570000Y-134677000D01*
X131610000Y-132402000D02*
X131610000Y-134598000D01*
X131650000Y-132489000D02*
X131650000Y-134511000D01*
X131690000Y-132586000D02*
X131690000Y-134414000D01*
X131730000Y-132695000D02*
X131730000Y-134305000D01*
X131770000Y-132823000D02*
X131770000Y-134177000D01*
X131810000Y-132983000D02*
X131810000Y-134017000D01*
X131850000Y-133217000D02*
X131850000Y-133783000D01*
X131870000Y-133500000D02*
G75*
G02*
X126630000Y-133500000I-2620000J0D01*
G01*
X126630000Y-133500000D02*
G75*
G02*
X131870000Y-133500000I2620000J0D01*
G01*
%TO.C,mix2*%
X121930100Y-107230000D02*
X122260100Y-107230000D01*
X121930100Y-113770000D02*
X121930100Y-107230000D01*
X122260100Y-113770000D02*
X121930100Y-113770000D01*
X124340100Y-113770000D02*
X124670100Y-113770000D01*
X124670100Y-107230000D02*
X124340100Y-107230000D01*
X124670100Y-113770000D02*
X124670100Y-107230000D01*
%TO.C,Thermistor1*%
X100112500Y-52130000D02*
X100112500Y-54950000D01*
X100112500Y-55550000D02*
X100112500Y-72870000D01*
X102232500Y-52130000D02*
X102232500Y-53370000D01*
X102232500Y-57130000D02*
X102232500Y-59707000D01*
X102232500Y-60793000D02*
X102232500Y-64707000D01*
X102232500Y-65793000D02*
X102232500Y-69707000D01*
X102232500Y-70793000D02*
X102232500Y-72870000D01*
X103532500Y-52130000D02*
X103532500Y-53370000D01*
X103532500Y-57130000D02*
X103532500Y-58438000D01*
X103532500Y-62062000D02*
X103532500Y-63438000D01*
X103532500Y-67062000D02*
X103532500Y-68438000D01*
X103532500Y-72062000D02*
X103532500Y-72870000D01*
X104532500Y-52130000D02*
X104532500Y-53370000D01*
X104532500Y-57130000D02*
X104532500Y-58438000D01*
X104532500Y-62062000D02*
X104532500Y-63438000D01*
X104532500Y-67062000D02*
X104532500Y-68438000D01*
X104532500Y-72062000D02*
X104532500Y-72870000D01*
X108152500Y-52130000D02*
X100112500Y-52130000D01*
X108152500Y-52130000D02*
X108152500Y-72870000D01*
X108152500Y-72870000D02*
X100112500Y-72870000D01*
X100112500Y-55250000D02*
X99502500Y-55690000D01*
X99502500Y-54810000D01*
X100112500Y-55250000D01*
G36*
X100112500Y-55250000D02*
G01*
X99502500Y-55690000D01*
X99502500Y-54810000D01*
X100112500Y-55250000D01*
G37*
%TO.C,ESP32-S3*%
X128590000Y-66292500D02*
X128590000Y-125172500D01*
X128590000Y-66292500D02*
X153990000Y-66292500D01*
X128590000Y-125172500D02*
X153990000Y-125172500D01*
X153990000Y-66292500D02*
X153990000Y-125172500D01*
%TO.C,reg_ci1*%
X126249759Y-138661000D02*
X126879759Y-138661000D01*
X126564759Y-138346000D02*
X126564759Y-138976000D01*
X129750000Y-137270000D02*
X129750000Y-143730000D01*
X129790000Y-137270000D02*
X129790000Y-143730000D01*
X129830000Y-137271000D02*
X129830000Y-143729000D01*
X129870000Y-137272000D02*
X129870000Y-143728000D01*
X129910000Y-137274000D02*
X129910000Y-143726000D01*
X129950000Y-137276000D02*
X129950000Y-143724000D01*
X129990000Y-137279000D02*
X129990000Y-139460000D01*
X129990000Y-141540000D02*
X129990000Y-143721000D01*
X130030000Y-137282000D02*
X130030000Y-139460000D01*
X130030000Y-141540000D02*
X130030000Y-143718000D01*
X130070000Y-137286000D02*
X130070000Y-139460000D01*
X130070000Y-141540000D02*
X130070000Y-143714000D01*
X130110000Y-137290000D02*
X130110000Y-139460000D01*
X130110000Y-141540000D02*
X130110000Y-143710000D01*
X130150000Y-137295000D02*
X130150000Y-139460000D01*
X130150000Y-141540000D02*
X130150000Y-143705000D01*
X130190000Y-137300000D02*
X130190000Y-139460000D01*
X130190000Y-141540000D02*
X130190000Y-143700000D01*
X130230000Y-137305000D02*
X130230000Y-139460000D01*
X130230000Y-141540000D02*
X130230000Y-143695000D01*
X130270000Y-137312000D02*
X130270000Y-139460000D01*
X130270000Y-141540000D02*
X130270000Y-143688000D01*
X130310000Y-137318000D02*
X130310000Y-139460000D01*
X130310000Y-141540000D02*
X130310000Y-143682000D01*
X130350000Y-137326000D02*
X130350000Y-139460000D01*
X130350000Y-141540000D02*
X130350000Y-143674000D01*
X130390000Y-137333000D02*
X130390000Y-139460000D01*
X130390000Y-141540000D02*
X130390000Y-143667000D01*
X130430000Y-137341000D02*
X130430000Y-139460000D01*
X130430000Y-141540000D02*
X130430000Y-143659000D01*
X130470000Y-137350000D02*
X130470000Y-139460000D01*
X130470000Y-141540000D02*
X130470000Y-143650000D01*
X130510000Y-137360000D02*
X130510000Y-139460000D01*
X130510000Y-141540000D02*
X130510000Y-143640000D01*
X130550000Y-137369000D02*
X130550000Y-139460000D01*
X130550000Y-141540000D02*
X130550000Y-143631000D01*
X130590000Y-137380000D02*
X130590000Y-139460000D01*
X130590000Y-141540000D02*
X130590000Y-143620000D01*
X130630000Y-137391000D02*
X130630000Y-139460000D01*
X130630000Y-141540000D02*
X130630000Y-143609000D01*
X130670000Y-137402000D02*
X130670000Y-139460000D01*
X130670000Y-141540000D02*
X130670000Y-143598000D01*
X130710000Y-137414000D02*
X130710000Y-139460000D01*
X130710000Y-141540000D02*
X130710000Y-143586000D01*
X130750000Y-137427000D02*
X130750000Y-139460000D01*
X130750000Y-141540000D02*
X130750000Y-143573000D01*
X130790000Y-137440000D02*
X130790000Y-139460000D01*
X130790000Y-141540000D02*
X130790000Y-143560000D01*
X130830000Y-137453000D02*
X130830000Y-139460000D01*
X130830000Y-141540000D02*
X130830000Y-143547000D01*
X130870000Y-137468000D02*
X130870000Y-139460000D01*
X130870000Y-141540000D02*
X130870000Y-143532000D01*
X130910000Y-137483000D02*
X130910000Y-139460000D01*
X130910000Y-141540000D02*
X130910000Y-143517000D01*
X130950000Y-137498000D02*
X130950000Y-139460000D01*
X130950000Y-141540000D02*
X130950000Y-143502000D01*
X130990000Y-137514000D02*
X130990000Y-139460000D01*
X130990000Y-141540000D02*
X130990000Y-143486000D01*
X131030000Y-137531000D02*
X131030000Y-139460000D01*
X131030000Y-141540000D02*
X131030000Y-143469000D01*
X131070000Y-137548000D02*
X131070000Y-139460000D01*
X131070000Y-141540000D02*
X131070000Y-143452000D01*
X131110000Y-137566000D02*
X131110000Y-139460000D01*
X131110000Y-141540000D02*
X131110000Y-143434000D01*
X131150000Y-137585000D02*
X131150000Y-139460000D01*
X131150000Y-141540000D02*
X131150000Y-143415000D01*
X131190000Y-137604000D02*
X131190000Y-139460000D01*
X131190000Y-141540000D02*
X131190000Y-143396000D01*
X131230000Y-137624000D02*
X131230000Y-139460000D01*
X131230000Y-141540000D02*
X131230000Y-143376000D01*
X131270000Y-137645000D02*
X131270000Y-139460000D01*
X131270000Y-141540000D02*
X131270000Y-143355000D01*
X131310000Y-137666000D02*
X131310000Y-139460000D01*
X131310000Y-141540000D02*
X131310000Y-143334000D01*
X131350000Y-137688000D02*
X131350000Y-139460000D01*
X131350000Y-141540000D02*
X131350000Y-143312000D01*
X131390000Y-137711000D02*
X131390000Y-139460000D01*
X131390000Y-141540000D02*
X131390000Y-143289000D01*
X131430000Y-137735000D02*
X131430000Y-139460000D01*
X131430000Y-141540000D02*
X131430000Y-143265000D01*
X131470000Y-137759000D02*
X131470000Y-139460000D01*
X131470000Y-141540000D02*
X131470000Y-143241000D01*
X131510000Y-137784000D02*
X131510000Y-139460000D01*
X131510000Y-141540000D02*
X131510000Y-143216000D01*
X131550000Y-137810000D02*
X131550000Y-139460000D01*
X131550000Y-141540000D02*
X131550000Y-143190000D01*
X131590000Y-137837000D02*
X131590000Y-139460000D01*
X131590000Y-141540000D02*
X131590000Y-143163000D01*
X131630000Y-137864000D02*
X131630000Y-139460000D01*
X131630000Y-141540000D02*
X131630000Y-143136000D01*
X131670000Y-137893000D02*
X131670000Y-139460000D01*
X131670000Y-141540000D02*
X131670000Y-143107000D01*
X131710000Y-137923000D02*
X131710000Y-139460000D01*
X131710000Y-141540000D02*
X131710000Y-143077000D01*
X131750000Y-137953000D02*
X131750000Y-139460000D01*
X131750000Y-141540000D02*
X131750000Y-143047000D01*
X131790000Y-137984000D02*
X131790000Y-139460000D01*
X131790000Y-141540000D02*
X131790000Y-143016000D01*
X131830000Y-138017000D02*
X131830000Y-139460000D01*
X131830000Y-141540000D02*
X131830000Y-142983000D01*
X131870000Y-138050000D02*
X131870000Y-139460000D01*
X131870000Y-141540000D02*
X131870000Y-142950000D01*
X131910000Y-138085000D02*
X131910000Y-139460000D01*
X131910000Y-141540000D02*
X131910000Y-142915000D01*
X131950000Y-138121000D02*
X131950000Y-139460000D01*
X131950000Y-141540000D02*
X131950000Y-142879000D01*
X131990000Y-138158000D02*
X131990000Y-139460000D01*
X131990000Y-141540000D02*
X131990000Y-142842000D01*
X132030000Y-138196000D02*
X132030000Y-139460000D01*
X132030000Y-141540000D02*
X132030000Y-142804000D01*
X132070000Y-138236000D02*
X132070000Y-142764000D01*
X132110000Y-138277000D02*
X132110000Y-142723000D01*
X132150000Y-138319000D02*
X132150000Y-142681000D01*
X132190000Y-138363000D02*
X132190000Y-142637000D01*
X132230000Y-138409000D02*
X132230000Y-142591000D01*
X132270000Y-138456000D02*
X132270000Y-142544000D01*
X132310000Y-138505000D02*
X132310000Y-142495000D01*
X132350000Y-138557000D02*
X132350000Y-142443000D01*
X132390000Y-138610000D02*
X132390000Y-142390000D01*
X132430000Y-138666000D02*
X132430000Y-142334000D01*
X132470000Y-138725000D02*
X132470000Y-142275000D01*
X132510000Y-138786000D02*
X132510000Y-142214000D01*
X132550000Y-138851000D02*
X132550000Y-142149000D01*
X132590000Y-138919000D02*
X132590000Y-142081000D01*
X132630000Y-138991000D02*
X132630000Y-142009000D01*
X132670000Y-139068000D02*
X132670000Y-141932000D01*
X132710000Y-139150000D02*
X132710000Y-141850000D01*
X132750000Y-139239000D02*
X132750000Y-141761000D01*
X132790000Y-139335000D02*
X132790000Y-141665000D01*
X132830000Y-139442000D02*
X132830000Y-141558000D01*
X132870000Y-139561000D02*
X132870000Y-141439000D01*
X132910000Y-139699000D02*
X132910000Y-141301000D01*
X132950000Y-139867000D02*
X132950000Y-141133000D01*
X132990000Y-140098000D02*
X132990000Y-140902000D01*
X133020000Y-140500000D02*
G75*
G02*
X126480000Y-140500000I-3270000J0D01*
G01*
X126480000Y-140500000D02*
G75*
G02*
X133020000Y-140500000I3270000J0D01*
G01*
%TO.C,Moving1*%
X157882000Y-82926300D02*
X157882000Y-103506300D01*
X157882000Y-103506300D02*
X170712000Y-103506300D01*
X160552000Y-103506300D02*
X160552000Y-82926300D01*
X170712000Y-100836300D02*
X170712000Y-82926300D01*
X170712000Y-100836300D02*
X173382000Y-100836300D01*
X170712000Y-103506300D02*
X170712000Y-100836300D01*
X171982000Y-103506300D02*
X173382000Y-103506300D01*
X173382000Y-82926300D02*
X157882000Y-82926300D01*
X173382000Y-100836300D02*
X173382000Y-82926300D01*
X173382000Y-103506300D02*
X173382000Y-102106300D01*
%TO.C,J1*%
X111092500Y-132912500D02*
X111092500Y-140952500D01*
X111092500Y-132912500D02*
X121832500Y-132912500D01*
X111092500Y-136532500D02*
X112332500Y-136532500D01*
X111092500Y-137532500D02*
X112332500Y-137532500D01*
X111092500Y-138832500D02*
X112332500Y-138832500D01*
X111092500Y-140952500D02*
X113912500Y-140952500D01*
X114512500Y-140952500D02*
X121832500Y-140952500D01*
X116092500Y-136532500D02*
X117400500Y-136532500D01*
X116092500Y-137532500D02*
X117400500Y-137532500D01*
X116092500Y-138832500D02*
X118669500Y-138832500D01*
X119755500Y-138832500D02*
X121832500Y-138832500D01*
X121024500Y-136532500D02*
X121832500Y-136532500D01*
X121024500Y-137532500D02*
X121832500Y-137532500D01*
X121832500Y-132912500D02*
X121832500Y-140952500D01*
X114652500Y-141562500D02*
X113772500Y-141562500D01*
X114212500Y-140952500D01*
X114652500Y-141562500D01*
G36*
X114652500Y-141562500D02*
G01*
X113772500Y-141562500D01*
X114212500Y-140952500D01*
X114652500Y-141562500D01*
G37*
%TO.C,vd_r1*%
X111130000Y-58730000D02*
X111130000Y-65270000D01*
X111130000Y-65270000D02*
X111460000Y-65270000D01*
X111460000Y-58730000D02*
X111130000Y-58730000D01*
X113540000Y-58730000D02*
X113870000Y-58730000D01*
X113870000Y-58730000D02*
X113870000Y-65270000D01*
X113870000Y-65270000D02*
X113540000Y-65270000D01*
%TO.C,mix3*%
X117880000Y-100730000D02*
X118210000Y-100730000D01*
X117880000Y-107270000D02*
X117880000Y-100730000D01*
X118210000Y-107270000D02*
X117880000Y-107270000D01*
X120290000Y-107270000D02*
X120620000Y-107270000D01*
X120620000Y-100730000D02*
X120290000Y-100730000D01*
X120620000Y-107270000D02*
X120620000Y-100730000D01*
%TO.C,Rehydration_front1*%
X152630000Y-62152500D02*
X152630000Y-54112500D01*
X153438000Y-57532500D02*
X152630000Y-57532500D01*
X153438000Y-58532500D02*
X152630000Y-58532500D01*
X154707000Y-56232500D02*
X152630000Y-56232500D01*
X158438000Y-57532500D02*
X157062000Y-57532500D01*
X158438000Y-58532500D02*
X157062000Y-58532500D01*
X159707000Y-56232500D02*
X155793000Y-56232500D01*
X163370000Y-56232500D02*
X160793000Y-56232500D01*
X163370000Y-57532500D02*
X162062000Y-57532500D01*
X163370000Y-58532500D02*
X162062000Y-58532500D01*
X164950000Y-54112500D02*
X152630000Y-54112500D01*
X168370000Y-54112500D02*
X165550000Y-54112500D01*
X168370000Y-56232500D02*
X167130000Y-56232500D01*
X168370000Y-57532500D02*
X167130000Y-57532500D01*
X168370000Y-58532500D02*
X167130000Y-58532500D01*
X168370000Y-62152500D02*
X152630000Y-62152500D01*
X168370000Y-62152500D02*
X168370000Y-54112500D01*
X165250000Y-54112500D02*
X164810000Y-53502500D01*
X165690000Y-53502500D01*
X165250000Y-54112500D01*
G36*
X165250000Y-54112500D02*
G01*
X164810000Y-53502500D01*
X165690000Y-53502500D01*
X165250000Y-54112500D01*
G37*
%TO.C,Q1*%
X115600000Y-121570000D02*
X115600000Y-117970000D01*
X111150000Y-119770000D02*
G75*
G02*
X115588478Y-117931522I2600000J0D01*
G01*
X115588478Y-121608478D02*
G75*
G02*
X111149999Y-119770000I-1838478J1838478D01*
G01*
%TO.C,J2*%
X99580000Y-75880000D02*
X99580000Y-78700000D01*
X99580000Y-79300000D02*
X99580000Y-96620000D01*
X101700000Y-75880000D02*
X101700000Y-77120000D01*
X101700000Y-80880000D02*
X101700000Y-83457000D01*
X101700000Y-84543000D02*
X101700000Y-88457000D01*
X101700000Y-89543000D02*
X101700000Y-93457000D01*
X101700000Y-94543000D02*
X101700000Y-96620000D01*
X103000000Y-75880000D02*
X103000000Y-77120000D01*
X103000000Y-80880000D02*
X103000000Y-82188000D01*
X103000000Y-85812000D02*
X103000000Y-87188000D01*
X103000000Y-90812000D02*
X103000000Y-92188000D01*
X103000000Y-95812000D02*
X103000000Y-96620000D01*
X104000000Y-75880000D02*
X104000000Y-77120000D01*
X104000000Y-80880000D02*
X104000000Y-82188000D01*
X104000000Y-85812000D02*
X104000000Y-87188000D01*
X104000000Y-90812000D02*
X104000000Y-92188000D01*
X104000000Y-95812000D02*
X104000000Y-96620000D01*
X107620000Y-75880000D02*
X99580000Y-75880000D01*
X107620000Y-75880000D02*
X107620000Y-96620000D01*
X107620000Y-96620000D02*
X99580000Y-96620000D01*
X99580000Y-79000000D02*
X98970000Y-79440000D01*
X98970000Y-78560000D01*
X99580000Y-79000000D01*
G36*
X99580000Y-79000000D02*
G01*
X98970000Y-79440000D01*
X98970000Y-78560000D01*
X99580000Y-79000000D01*
G37*
%TO.C,Rehydration1*%
X109690200Y-76854000D02*
X109690200Y-78254000D01*
X109690200Y-79524000D02*
X109690200Y-97434000D01*
X109690200Y-97434000D02*
X125190200Y-97434000D01*
X111090200Y-76854000D02*
X109690200Y-76854000D01*
X112360200Y-76854000D02*
X112360200Y-79524000D01*
X112360200Y-79524000D02*
X109690200Y-79524000D01*
X112360200Y-79524000D02*
X112360200Y-97434000D01*
X122520200Y-76854000D02*
X122520200Y-97434000D01*
X125190200Y-76854000D02*
X112360200Y-76854000D01*
X125190200Y-97434000D02*
X125190200Y-76854000D01*
%TO.C,Q2*%
X115100000Y-114570000D02*
X115100000Y-110970000D01*
X110650000Y-112770000D02*
G75*
G02*
X115088478Y-110931522I2600000J0D01*
G01*
X115088478Y-114608478D02*
G75*
G02*
X110649999Y-112770000I-1838478J1838478D01*
G01*
%TO.C,Rehydration_back1*%
X162812900Y-64929600D02*
X162812900Y-67749600D01*
X162812900Y-68349600D02*
X162812900Y-80669600D01*
X164932900Y-64929600D02*
X164932900Y-66169600D01*
X164932900Y-69929600D02*
X164932900Y-72506600D01*
X164932900Y-73592600D02*
X164932900Y-77506600D01*
X164932900Y-78592600D02*
X164932900Y-80669600D01*
X166232900Y-64929600D02*
X166232900Y-66169600D01*
X166232900Y-69929600D02*
X166232900Y-71237600D01*
X166232900Y-74861600D02*
X166232900Y-76237600D01*
X166232900Y-79861600D02*
X166232900Y-80669600D01*
X167232900Y-64929600D02*
X167232900Y-66169600D01*
X167232900Y-69929600D02*
X167232900Y-71237600D01*
X167232900Y-74861600D02*
X167232900Y-76237600D01*
X167232900Y-79861600D02*
X167232900Y-80669600D01*
X170852900Y-64929600D02*
X162812900Y-64929600D01*
X170852900Y-64929600D02*
X170852900Y-80669600D01*
X170852900Y-80669600D02*
X162812900Y-80669600D01*
X162812900Y-68049600D02*
X162202900Y-68489600D01*
X162202900Y-67609600D01*
X162812900Y-68049600D01*
G36*
X162812900Y-68049600D02*
G01*
X162202900Y-68489600D01*
X162202900Y-67609600D01*
X162812900Y-68049600D01*
G37*
%TO.C,Mixing1*%
X99880000Y-101630000D02*
X107920000Y-101630000D01*
X99880000Y-132370000D02*
X99880000Y-101630000D01*
X99880000Y-132370000D02*
X107920000Y-132370000D01*
X103500000Y-102438000D02*
X103500000Y-101630000D01*
X103500000Y-107438000D02*
X103500000Y-106062000D01*
X103500000Y-112438000D02*
X103500000Y-111062000D01*
X103500000Y-117438000D02*
X103500000Y-116062000D01*
X103500000Y-122438000D02*
X103500000Y-121062000D01*
X103500000Y-127370000D02*
X103500000Y-126062000D01*
X103500000Y-132370000D02*
X103500000Y-131130000D01*
X104500000Y-102438000D02*
X104500000Y-101630000D01*
X104500000Y-107438000D02*
X104500000Y-106062000D01*
X104500000Y-112438000D02*
X104500000Y-111062000D01*
X104500000Y-117438000D02*
X104500000Y-116062000D01*
X104500000Y-122438000D02*
X104500000Y-121062000D01*
X104500000Y-127370000D02*
X104500000Y-126062000D01*
X104500000Y-132370000D02*
X104500000Y-131130000D01*
X105800000Y-103707000D02*
X105800000Y-101630000D01*
X105800000Y-108707000D02*
X105800000Y-104793000D01*
X105800000Y-113707000D02*
X105800000Y-109793000D01*
X105800000Y-118707000D02*
X105800000Y-114793000D01*
X105800000Y-123707000D02*
X105800000Y-119793000D01*
X105800000Y-127370000D02*
X105800000Y-124793000D01*
X105800000Y-132370000D02*
X105800000Y-131130000D01*
X107920000Y-128950000D02*
X107920000Y-101630000D01*
X107920000Y-132370000D02*
X107920000Y-129550000D01*
X108530000Y-129690000D02*
X107920000Y-129250000D01*
X108530000Y-128810000D01*
X108530000Y-129690000D01*
G36*
X108530000Y-129690000D02*
G01*
X107920000Y-129250000D01*
X108530000Y-128810000D01*
X108530000Y-129690000D01*
G37*
%TD*%
M02*
