%TF.GenerationSoftware,KiCad,Pcbnew,9.0.1*%
%TF.CreationDate,2025-05-12T17:21:56-07:00*%
%TF.ProjectId,pcb,7063622e-6b69-4636-9164-5f7063625858,rev?*%
%TF.SameCoordinates,Original*%
%TF.FileFunction,Copper,L2,Bot*%
%TF.FilePolarity,Positive*%
%FSLAX46Y46*%
G04 Gerber Fmt 4.6, Leading zero omitted, Abs format (unit mm)*
G04 Created by KiCad (PCBNEW 9.0.1) date 2025-05-12 17:21:56*
%MOMM*%
%LPD*%
G01*
G04 APERTURE LIST*
G04 Aperture macros list*
%AMRoundRect*
0 Rectangle with rounded corners*
0 $1 Rounding radius*
0 $2 $3 $4 $5 $6 $7 $8 $9 X,Y pos of 4 corners*
0 Add a 4 corners polygon primitive as box body*
4,1,4,$2,$3,$4,$5,$6,$7,$8,$9,$2,$3,0*
0 Add four circle primitives for the rounded corners*
1,1,$1+$1,$2,$3*
1,1,$1+$1,$4,$5*
1,1,$1+$1,$6,$7*
1,1,$1+$1,$8,$9*
0 Add four rect primitives between the rounded corners*
20,1,$1+$1,$2,$3,$4,$5,0*
20,1,$1+$1,$4,$5,$6,$7,0*
20,1,$1+$1,$6,$7,$8,$9,0*
20,1,$1+$1,$8,$9,$2,$3,0*%
G04 Aperture macros list end*
%TA.AperFunction,ComponentPad*%
%ADD10R,1.600000X1.600000*%
%TD*%
%TA.AperFunction,ComponentPad*%
%ADD11C,1.600000*%
%TD*%
%TA.AperFunction,ComponentPad*%
%ADD12R,2.200000X2.200000*%
%TD*%
%TA.AperFunction,ComponentPad*%
%ADD13O,2.200000X2.200000*%
%TD*%
%TA.AperFunction,ComponentPad*%
%ADD14O,1.600000X1.600000*%
%TD*%
%TA.AperFunction,ComponentPad*%
%ADD15R,1.500000X1.050000*%
%TD*%
%TA.AperFunction,ComponentPad*%
%ADD16O,1.500000X1.050000*%
%TD*%
%TA.AperFunction,ComponentPad*%
%ADD17RoundRect,0.250001X1.149999X-1.149999X1.149999X1.149999X-1.149999X1.149999X-1.149999X-1.149999X0*%
%TD*%
%TA.AperFunction,ComponentPad*%
%ADD18C,2.800000*%
%TD*%
%TA.AperFunction,ComponentPad*%
%ADD19RoundRect,0.250001X-1.149999X-1.149999X1.149999X-1.149999X1.149999X1.149999X-1.149999X1.149999X0*%
%TD*%
%TA.AperFunction,ComponentPad*%
%ADD20RoundRect,0.250001X1.149999X1.149999X-1.149999X1.149999X-1.149999X-1.149999X1.149999X-1.149999X0*%
%TD*%
%TA.AperFunction,ComponentPad*%
%ADD21RoundRect,0.250001X-1.149999X1.149999X-1.149999X-1.149999X1.149999X-1.149999X1.149999X1.149999X0*%
%TD*%
%TA.AperFunction,ComponentPad*%
%ADD22C,1.500000*%
%TD*%
%TA.AperFunction,ViaPad*%
%ADD23C,0.600000*%
%TD*%
%TA.AperFunction,Conductor*%
%ADD24C,0.300000*%
%TD*%
G04 APERTURE END LIST*
D10*
%TO.P,vd_c2,1*%
%TO.N,Net-(Debug_ports1-Pin_4)*%
X111500000Y-71500000D03*
D11*
%TO.P,vd_c2,2*%
%TO.N,GND*%
X114000000Y-71500000D03*
%TD*%
D12*
%TO.P,D1,1,K*%
%TO.N,+12V*%
X117920000Y-128000000D03*
D13*
%TO.P,D1,2,A*%
%TO.N,GND*%
X128080000Y-128000000D03*
%TD*%
D11*
%TO.P,mix1,1*%
%TO.N,/Mix1*%
X119750000Y-123810000D03*
D14*
%TO.P,mix1,2*%
%TO.N,Net-(Q1-G)*%
X119750000Y-116190000D03*
%TD*%
D15*
%TO.P,Q3,1,S*%
%TO.N,GND*%
X113250000Y-106040000D03*
D16*
%TO.P,Q3,2,G*%
%TO.N,Net-(Q3-G)*%
X113250000Y-104770000D03*
%TO.P,Q3,3,D*%
%TO.N,Net-(Mixing1-Pin_5)*%
X113250000Y-103500000D03*
%TD*%
D17*
%TO.P,J3,1,Pin_1*%
%TO.N,Net-(J3-Pin_1)*%
X165031500Y-125066700D03*
D18*
%TO.P,J3,2,Pin_2*%
%TO.N,Net-(J3-Pin_2)*%
X165031500Y-120066700D03*
%TO.P,J3,3,Pin_3*%
%TO.N,Net-(J3-Pin_3)*%
X165031500Y-115066700D03*
%TO.P,J3,4,Pin_4*%
%TO.N,Net-(J3-Pin_4)*%
X165031500Y-110066700D03*
%TD*%
D10*
%TO.P,motor_c1,1*%
%TO.N,GND*%
X139500000Y-130000000D03*
D11*
%TO.P,motor_c1,2*%
%TO.N,+12V*%
X142000000Y-130000000D03*
%TD*%
%TO.P,vd_c1,1*%
%TO.N,/VD_o*%
X119500000Y-69500000D03*
%TO.P,vd_c1,2*%
%TO.N,Net-(Debug_ports1-Pin_4)*%
X119500000Y-67000000D03*
%TD*%
D19*
%TO.P,MovingBumper_back1,1,Pin_1*%
%TO.N,GND*%
X120000000Y-57500000D03*
D18*
%TO.P,MovingBumper_back1,2,Pin_2*%
%TO.N,Net-(Debug_ports1-Pin_4)*%
X125000000Y-57500000D03*
%TO.P,MovingBumper_back1,3,Pin_3*%
%TO.N,/B_B*%
X130000000Y-57500000D03*
%TD*%
D20*
%TO.P,MovingBumper_front1,1,Pin_1*%
%TO.N,GND*%
X147397900Y-57680400D03*
D18*
%TO.P,MovingBumper_front1,2,Pin_2*%
%TO.N,Net-(Debug_ports1-Pin_4)*%
X142397900Y-57680400D03*
%TO.P,MovingBumper_front1,3,Pin_3*%
%TO.N,/B_F*%
X137397900Y-57680400D03*
%TD*%
D20*
%TO.P,Debug_ports1,1,Pin_1*%
%TO.N,Net-(Debug_ports1-Pin_1)*%
X166155000Y-134437400D03*
D18*
%TO.P,Debug_ports1,2,Pin_2*%
%TO.N,Net-(Debug_ports1-Pin_2)*%
X161155000Y-134437400D03*
%TO.P,Debug_ports1,3,Pin_3*%
%TO.N,Net-(Debug_ports1-Pin_3)*%
X156155000Y-134437400D03*
%TO.P,Debug_ports1,4,Pin_4*%
%TO.N,Net-(Debug_ports1-Pin_4)*%
X151155000Y-134437400D03*
%TD*%
D10*
%TO.P,reg_co1,1*%
%TO.N,GND*%
X128000000Y-133500000D03*
D11*
%TO.P,reg_co1,2*%
%TO.N,/5V*%
X130500000Y-133500000D03*
%TD*%
%TO.P,mix2,1*%
%TO.N,/Mix2*%
X123300100Y-114310000D03*
D14*
%TO.P,mix2,2*%
%TO.N,Net-(Q2-G)*%
X123300100Y-106690000D03*
%TD*%
D21*
%TO.P,Thermistor1,1,Pin_1*%
%TO.N,/Heating_pwm*%
X104032500Y-55250000D03*
D18*
%TO.P,Thermistor1,2,Pin_2*%
%TO.N,/VD_o*%
X104032500Y-60250000D03*
%TO.P,Thermistor1,3,Pin_3*%
X104032500Y-65250000D03*
%TO.P,Thermistor1,4,Pin_4*%
%TO.N,Net-(Debug_ports1-Pin_4)*%
X104032500Y-70250000D03*
%TD*%
D22*
%TO.P,ESP32-S3,1,3V3*%
%TO.N,Net-(Debug_ports1-Pin_4)*%
X128590000Y-67792500D03*
%TO.P,ESP32-S3,2,3V3*%
%TO.N,unconnected-(ESP32-S3-3V3-Pad2)*%
X128590000Y-70332500D03*
%TO.P,ESP32-S3,3,RST*%
%TO.N,unconnected-(ESP32-S3-RST-Pad3)*%
X128590000Y-72872500D03*
%TO.P,ESP32-S3,4,4*%
%TO.N,/VD_o*%
X128590000Y-75412500D03*
%TO.P,ESP32-S3,5,5*%
%TO.N,/Heating_pwm*%
X128590000Y-77952500D03*
%TO.P,ESP32-S3,6,6*%
%TO.N,/STEP*%
X128590000Y-80492500D03*
%TO.P,ESP32-S3,7,7*%
%TO.N,/DIR*%
X128590000Y-83032500D03*
%TO.P,ESP32-S3,8,15*%
%TO.N,/FLT*%
X128590000Y-85572500D03*
%TO.P,ESP32-S3,9,16*%
%TO.N,/M0*%
X128590000Y-88112500D03*
%TO.P,ESP32-S3,10,17*%
%TO.N,/M1*%
X128590000Y-90652500D03*
%TO.P,ESP32-S3,11,18*%
%TO.N,/M2*%
X128590000Y-93192500D03*
%TO.P,ESP32-S3,12,8*%
%TO.N,/EN*%
X128590000Y-95732500D03*
%TO.P,ESP32-S3,13,3*%
%TO.N,/B_F*%
X128590000Y-98272500D03*
%TO.P,ESP32-S3,14,46*%
%TO.N,unconnected-(ESP32-S3-46-Pad14)*%
X128590000Y-100812500D03*
%TO.P,ESP32-S3,15,9*%
%TO.N,/R_B*%
X128590000Y-103352500D03*
%TO.P,ESP32-S3,16,10*%
%TO.N,/B_B*%
X128590000Y-105892500D03*
%TO.P,ESP32-S3,17,11*%
%TO.N,/Mix3*%
X128590000Y-108432500D03*
%TO.P,ESP32-S3,18,12*%
%TO.N,/Mix2*%
X128590000Y-110972500D03*
%TO.P,ESP32-S3,19,13*%
%TO.N,/Mix1*%
X128590000Y-113512500D03*
%TO.P,ESP32-S3,20*%
%TO.N,unconnected-(ESP32-S3-Pad20)*%
X128590000Y-116052500D03*
%TO.P,ESP32-S3,21,Vin*%
%TO.N,/5V*%
X128590000Y-118592500D03*
%TO.P,ESP32-S3,22,Gnd*%
%TO.N,GND*%
X128590000Y-121132500D03*
%TO.P,ESP32-S3,23,GND*%
%TO.N,unconnected-(ESP32-S3-GND-Pad23)*%
X153990000Y-67792500D03*
%TO.P,ESP32-S3,24,TX*%
%TO.N,unconnected-(ESP32-S3-TX-Pad24)*%
X153990000Y-70332500D03*
%TO.P,ESP32-S3,25,RX*%
%TO.N,unconnected-(ESP32-S3-RX-Pad25)*%
X153990000Y-72872500D03*
%TO.P,ESP32-S3,26,1*%
%TO.N,/STEP*%
X153990000Y-75412500D03*
%TO.P,ESP32-S3,27,2*%
%TO.N,/DIR*%
X153990000Y-77952500D03*
%TO.P,ESP32-S3,28,42*%
%TO.N,/FLT*%
X153990000Y-80492500D03*
%TO.P,ESP32-S3,29,41*%
%TO.N,/M0*%
X153990000Y-83032500D03*
%TO.P,ESP32-S3,30,40*%
%TO.N,/M1*%
X153990000Y-85572500D03*
%TO.P,ESP32-S3,31,39*%
%TO.N,/M2*%
X153990000Y-88112500D03*
%TO.P,ESP32-S3,32,38*%
%TO.N,/EN*%
X153990000Y-90652500D03*
%TO.P,ESP32-S3,33,37*%
%TO.N,unconnected-(ESP32-S3-37-Pad33)*%
X153990000Y-93192500D03*
%TO.P,ESP32-S3,34,36*%
%TO.N,/R_F*%
X153990000Y-95732500D03*
%TO.P,ESP32-S3,35,35*%
%TO.N,unconnected-(ESP32-S3-Pad35)*%
X153990000Y-98272500D03*
%TO.P,ESP32-S3,36,0*%
%TO.N,unconnected-(ESP32-S3-0-Pad36)*%
X153990000Y-100812500D03*
%TO.P,ESP32-S3,37,45*%
%TO.N,unconnected-(ESP32-S3-45-Pad37)*%
X153990000Y-103352500D03*
%TO.P,ESP32-S3,38,48*%
%TO.N,unconnected-(ESP32-S3-48-Pad38)*%
X153990000Y-105892500D03*
%TO.P,ESP32-S3,39,47*%
%TO.N,unconnected-(ESP32-S3-47-Pad39)*%
X153990000Y-108432500D03*
%TO.P,ESP32-S3,40,21*%
%TO.N,Net-(Debug_ports1-Pin_1)*%
X153990000Y-110972500D03*
%TO.P,ESP32-S3,41,20*%
%TO.N,Net-(Debug_ports1-Pin_2)*%
X153990000Y-113512500D03*
%TO.P,ESP32-S3,42*%
%TO.N,unconnected-(ESP32-S3-Pad42)*%
X153990000Y-116052500D03*
%TO.P,ESP32-S3,43,GND*%
%TO.N,unconnected-(ESP32-S3-GND-Pad43)*%
X153990000Y-118592500D03*
%TO.P,ESP32-S3,44,GND*%
%TO.N,Net-(Debug_ports1-Pin_3)*%
X153990000Y-121132500D03*
%TD*%
D10*
%TO.P,reg_ci1,1*%
%TO.N,GND*%
X128500000Y-140500000D03*
D11*
%TO.P,reg_ci1,2*%
%TO.N,Net-(Regulator1-VI)*%
X131000000Y-140500000D03*
%TD*%
D10*
%TO.P,Moving1,1,GND*%
%TO.N,Net-(Debug_ports1-Pin_3)*%
X171982000Y-102106300D03*
D14*
%TO.P,Moving1,2,~{FLT}*%
%TO.N,/FLT*%
X171982000Y-99566300D03*
%TO.P,Moving1,3,A2*%
%TO.N,Net-(J3-Pin_2)*%
X171982000Y-97026300D03*
%TO.P,Moving1,4,A1*%
%TO.N,Net-(J3-Pin_1)*%
X171982000Y-94486300D03*
%TO.P,Moving1,5,B1*%
%TO.N,Net-(J3-Pin_3)*%
X171982000Y-91946300D03*
%TO.P,Moving1,6,B2*%
%TO.N,Net-(J3-Pin_4)*%
X171982000Y-89406300D03*
%TO.P,Moving1,7,GND*%
%TO.N,GND*%
X171982000Y-86866300D03*
%TO.P,Moving1,8,VMOT*%
%TO.N,+12V*%
X171982000Y-84326300D03*
%TO.P,Moving1,9,~{EN}*%
%TO.N,/EN*%
X159282000Y-84326300D03*
%TO.P,Moving1,10,M0*%
%TO.N,/M0*%
X159282000Y-86866300D03*
%TO.P,Moving1,11,M1*%
%TO.N,/M1*%
X159282000Y-89406300D03*
%TO.P,Moving1,12,M2*%
%TO.N,/M2*%
X159282000Y-91946300D03*
%TO.P,Moving1,13,~{RST}*%
%TO.N,/5V*%
X159282000Y-94486300D03*
%TO.P,Moving1,14,~{SLP}*%
X159282000Y-97026300D03*
%TO.P,Moving1,15,STEP*%
%TO.N,/STEP*%
X159282000Y-99566300D03*
%TO.P,Moving1,16,DIR*%
%TO.N,/DIR*%
X159282000Y-102106300D03*
%TD*%
D19*
%TO.P,J1,1,Pin_1*%
%TO.N,GND*%
X114212500Y-137032500D03*
D18*
%TO.P,J1,2,Pin_2*%
%TO.N,+12V*%
X119212500Y-137032500D03*
%TD*%
D11*
%TO.P,vd_r1,1*%
%TO.N,GND*%
X112500000Y-58190000D03*
D14*
%TO.P,vd_r1,2*%
%TO.N,/VD_o*%
X112500000Y-65810000D03*
%TD*%
D11*
%TO.P,mix3,1*%
%TO.N,/Mix3*%
X119250000Y-107810000D03*
D14*
%TO.P,mix3,2*%
%TO.N,Net-(Q3-G)*%
X119250000Y-100190000D03*
%TD*%
D20*
%TO.P,Rehydration_front1,1,Pin_1*%
%TO.N,GND*%
X165250000Y-58032500D03*
D18*
%TO.P,Rehydration_front1,2,Pin_2*%
%TO.N,Net-(Debug_ports1-Pin_4)*%
X160250000Y-58032500D03*
%TO.P,Rehydration_front1,3,Pin_3*%
%TO.N,/R_F*%
X155250000Y-58032500D03*
%TD*%
D15*
%TO.P,Q1,1,S*%
%TO.N,GND*%
X113750000Y-121040000D03*
D16*
%TO.P,Q1,2,G*%
%TO.N,Net-(Q1-G)*%
X113750000Y-119770000D03*
%TO.P,Q1,3,D*%
%TO.N,Net-(Mixing1-Pin_1)*%
X113750000Y-118500000D03*
%TD*%
D21*
%TO.P,J2,1,Pin_1*%
%TO.N,Net-(J2-Pin_1)*%
X103500000Y-79000000D03*
D18*
%TO.P,J2,2,Pin_2*%
%TO.N,Net-(J2-Pin_2)*%
X103500000Y-84000000D03*
%TO.P,J2,3,Pin_3*%
%TO.N,Net-(J2-Pin_3)*%
X103500000Y-89000000D03*
%TO.P,J2,4,Pin_4*%
%TO.N,Net-(J2-Pin_4)*%
X103500000Y-94000000D03*
%TD*%
D10*
%TO.P,Rehydration1,1,GND*%
%TO.N,Net-(Debug_ports1-Pin_3)*%
X111090200Y-78254000D03*
D14*
%TO.P,Rehydration1,2,~{FLT}*%
%TO.N,/FLT*%
X111090200Y-80794000D03*
%TO.P,Rehydration1,3,A2*%
%TO.N,Net-(J2-Pin_2)*%
X111090200Y-83334000D03*
%TO.P,Rehydration1,4,A1*%
%TO.N,Net-(J2-Pin_1)*%
X111090200Y-85874000D03*
%TO.P,Rehydration1,5,B1*%
%TO.N,Net-(J2-Pin_3)*%
X111090200Y-88414000D03*
%TO.P,Rehydration1,6,B2*%
%TO.N,Net-(J2-Pin_4)*%
X111090200Y-90954000D03*
%TO.P,Rehydration1,7,GND*%
%TO.N,GND*%
X111090200Y-93494000D03*
%TO.P,Rehydration1,8,VMOT*%
%TO.N,+12V*%
X111090200Y-96034000D03*
%TO.P,Rehydration1,9,~{EN}*%
%TO.N,/EN*%
X123790200Y-96034000D03*
%TO.P,Rehydration1,10,M0*%
%TO.N,/M0*%
X123790200Y-93494000D03*
%TO.P,Rehydration1,11,M1*%
%TO.N,/M1*%
X123790200Y-90954000D03*
%TO.P,Rehydration1,12,M2*%
%TO.N,/M2*%
X123790200Y-88414000D03*
%TO.P,Rehydration1,13,~{RST}*%
%TO.N,/5V*%
X123790200Y-85874000D03*
%TO.P,Rehydration1,14,~{SLP}*%
X123790200Y-83334000D03*
%TO.P,Rehydration1,15,STEP*%
%TO.N,/STEP*%
X123790200Y-80794000D03*
%TO.P,Rehydration1,16,DIR*%
%TO.N,/DIR*%
X123790200Y-78254000D03*
%TD*%
D15*
%TO.P,Q2,1,S*%
%TO.N,GND*%
X113250000Y-114040000D03*
D16*
%TO.P,Q2,2,G*%
%TO.N,Net-(Q2-G)*%
X113250000Y-112770000D03*
%TO.P,Q2,3,D*%
%TO.N,Net-(Mixing1-Pin_3)*%
X113250000Y-111500000D03*
%TD*%
D21*
%TO.P,Rehydration_back1,1,Pin_1*%
%TO.N,GND*%
X166732900Y-68049600D03*
D18*
%TO.P,Rehydration_back1,2,Pin_2*%
%TO.N,Net-(Debug_ports1-Pin_4)*%
X166732900Y-73049600D03*
%TO.P,Rehydration_back1,3,Pin_3*%
%TO.N,/R_B*%
X166732900Y-78049600D03*
%TD*%
D17*
%TO.P,Mixing1,1,Pin_1*%
%TO.N,Net-(Mixing1-Pin_1)*%
X104000000Y-129250000D03*
D18*
%TO.P,Mixing1,2,Pin_2*%
%TO.N,+12V*%
X104000000Y-124250000D03*
%TO.P,Mixing1,3,Pin_3*%
%TO.N,Net-(Mixing1-Pin_3)*%
X104000000Y-119250000D03*
%TO.P,Mixing1,4,Pin_4*%
%TO.N,+12V*%
X104000000Y-114250000D03*
%TO.P,Mixing1,5,Pin_5*%
%TO.N,Net-(Mixing1-Pin_5)*%
X104000000Y-109250000D03*
%TO.P,Mixing1,6,Pin_6*%
%TO.N,+12V*%
X104000000Y-104250000D03*
%TD*%
D23*
%TO.N,GND*%
X145051100Y-143089500D03*
%TO.N,Net-(Debug_ports1-Pin_3)*%
X151844800Y-74247200D03*
%TO.N,/VD_o*%
X113422900Y-69655600D03*
%TO.N,/Heating_pwm*%
X106916900Y-74719500D03*
%TO.N,/R_B*%
X165584900Y-98519500D03*
%TO.N,/STEP*%
X160409000Y-75410400D03*
%TO.N,+12V*%
X142117700Y-80733700D03*
%TO.N,/5V*%
X125287100Y-96608000D03*
%TO.N,Net-(Regulator1-VI)*%
X145594500Y-137335000D03*
X115754300Y-127900800D03*
%TD*%
D24*
%TO.N,Net-(Mixing1-Pin_5)*%
X109750000Y-103500000D02*
X113250000Y-103500000D01*
X104000000Y-109250000D02*
X109750000Y-103500000D01*
%TO.N,Net-(Mixing1-Pin_1)*%
X112700000Y-120550000D02*
X104000000Y-129250000D01*
X112700000Y-118500000D02*
X112700000Y-120550000D01*
X113750000Y-118500000D02*
X112700000Y-118500000D01*
%TO.N,Net-(Mixing1-Pin_3)*%
X111750000Y-111500000D02*
X104000000Y-119250000D01*
X113250000Y-111500000D02*
X111750000Y-111500000D01*
%TO.N,GND*%
X131480000Y-130000000D02*
X129480000Y-128000000D01*
X139500000Y-130000000D02*
X131480000Y-130000000D01*
X128080000Y-128000000D02*
X129480000Y-128000000D01*
X113190000Y-57500000D02*
X112500000Y-58190000D01*
X120000000Y-57500000D02*
X113190000Y-57500000D01*
X148773000Y-56305300D02*
X147397900Y-57680400D01*
X163522800Y-56305300D02*
X148773000Y-56305300D01*
X165250000Y-58032500D02*
X163522800Y-56305300D01*
X121697300Y-55802700D02*
X120000000Y-57500000D01*
X145520200Y-55802700D02*
X121697300Y-55802700D01*
X147397900Y-57680400D02*
X145520200Y-55802700D01*
X120710000Y-128000000D02*
X128080000Y-128000000D01*
X114575000Y-121865000D02*
X120710000Y-128000000D01*
X113750000Y-121865000D02*
X114575000Y-121865000D01*
X113750000Y-121040000D02*
X113750000Y-121865000D01*
X117680000Y-140500000D02*
X128500000Y-140500000D01*
X114212500Y-137032500D02*
X117680000Y-140500000D01*
X132052000Y-143089500D02*
X145051100Y-143089500D01*
X129600000Y-140637500D02*
X132052000Y-143089500D01*
X129600000Y-140500000D02*
X129600000Y-140637500D01*
X128500000Y-140500000D02*
X129600000Y-140500000D01*
%TO.N,Net-(Q3-G)*%
X114300000Y-104040000D02*
X118150000Y-100190000D01*
X114300000Y-104770000D02*
X114300000Y-104040000D01*
X119250000Y-100190000D02*
X118150000Y-100190000D01*
X113250000Y-104770000D02*
X114300000Y-104770000D01*
%TO.N,Net-(Q2-G)*%
X118827500Y-106690000D02*
X123300100Y-106690000D01*
X114300000Y-111217500D02*
X118827500Y-106690000D01*
X114300000Y-112770000D02*
X114300000Y-111217500D01*
X113250000Y-112770000D02*
X114300000Y-112770000D01*
%TO.N,Net-(Q1-G)*%
X115070000Y-119770000D02*
X118650000Y-116190000D01*
X113750000Y-119770000D02*
X115070000Y-119770000D01*
X119750000Y-116190000D02*
X118650000Y-116190000D01*
%TO.N,Net-(Debug_ports1-Pin_3)*%
X155502800Y-119619700D02*
X153990000Y-121132500D01*
X155502800Y-117207400D02*
X155502800Y-119619700D01*
X170603900Y-102106300D02*
X155502800Y-117207400D01*
X171982000Y-102106300D02*
X170603900Y-102106300D01*
X134203300Y-74247200D02*
X151844800Y-74247200D01*
X131996300Y-76454200D02*
X134203300Y-74247200D01*
X127723800Y-76454200D02*
X131996300Y-76454200D01*
X125368900Y-74099300D02*
X127723800Y-76454200D01*
X106627700Y-74099300D02*
X125368900Y-74099300D01*
X106318500Y-74408500D02*
X106627700Y-74099300D01*
X106318500Y-74953700D02*
X106318500Y-74408500D01*
X109618800Y-78254000D02*
X106318500Y-74953700D01*
X111090200Y-78254000D02*
X109618800Y-78254000D01*
%TO.N,Net-(Debug_ports1-Pin_4)*%
X111500000Y-71500000D02*
X110400000Y-71500000D01*
X142751700Y-59741300D02*
X142397900Y-59387500D01*
X158541200Y-59741300D02*
X142751700Y-59741300D01*
X160250000Y-58032500D02*
X158541200Y-59741300D01*
X126887500Y-59387500D02*
X125000000Y-57500000D01*
X142397900Y-59387500D02*
X126887500Y-59387500D01*
X142397900Y-59387500D02*
X142397900Y-57680400D01*
X120292500Y-67792500D02*
X119500000Y-67000000D01*
X128590000Y-67792500D02*
X120292500Y-67792500D01*
X109150000Y-70250000D02*
X110400000Y-71500000D01*
X104032500Y-70250000D02*
X109150000Y-70250000D01*
X113026900Y-68873100D02*
X110400000Y-71500000D01*
X118399600Y-68873100D02*
X113026900Y-68873100D01*
X119480200Y-67792500D02*
X118399600Y-68873100D01*
X120292500Y-67792500D02*
X119480200Y-67792500D01*
%TO.N,/VD_o*%
X122677500Y-69500000D02*
X119500000Y-69500000D01*
X128590000Y-75412500D02*
X122677500Y-69500000D01*
X104592500Y-65810000D02*
X112500000Y-65810000D01*
X104032500Y-65250000D02*
X104592500Y-65810000D01*
X119344400Y-69655600D02*
X119500000Y-69500000D01*
X113422900Y-69655600D02*
X119344400Y-69655600D01*
%TO.N,/Heating_pwm*%
X125357000Y-74719500D02*
X128590000Y-77952500D01*
X106916900Y-74719500D02*
X125357000Y-74719500D01*
%TO.N,/R_B*%
X165529100Y-98463700D02*
X165584900Y-98519500D01*
X156877600Y-98463700D02*
X165529100Y-98463700D01*
X155883800Y-99457500D02*
X156877600Y-98463700D01*
X132485000Y-99457500D02*
X155883800Y-99457500D01*
X128590000Y-103352500D02*
X132485000Y-99457500D01*
%TO.N,/Mix2*%
X125252500Y-114310000D02*
X123300100Y-114310000D01*
X128590000Y-110972500D02*
X125252500Y-114310000D01*
%TO.N,/Mix3*%
X127967500Y-107810000D02*
X128590000Y-108432500D01*
X119250000Y-107810000D02*
X127967500Y-107810000D01*
%TO.N,Net-(J2-Pin_4)*%
X106944200Y-94000000D02*
X109990200Y-90954000D01*
X103500000Y-94000000D02*
X106944200Y-94000000D01*
X111090200Y-90954000D02*
X109990200Y-90954000D01*
%TO.N,/Mix1*%
X119750000Y-122352500D02*
X128590000Y-113512500D01*
X119750000Y-123810000D02*
X119750000Y-122352500D01*
%TO.N,Net-(J2-Pin_3)*%
X109404200Y-89000000D02*
X103500000Y-89000000D01*
X109990200Y-88414000D02*
X109404200Y-89000000D01*
X111090200Y-88414000D02*
X109990200Y-88414000D01*
%TO.N,/STEP*%
X125191700Y-80492500D02*
X124890200Y-80794000D01*
X128590000Y-80492500D02*
X125191700Y-80492500D01*
X123790200Y-80794000D02*
X124890200Y-80794000D01*
X153992100Y-75410400D02*
X160409000Y-75410400D01*
X153990000Y-75412500D02*
X153992100Y-75410400D01*
X133670000Y-75412500D02*
X153990000Y-75412500D01*
X128590000Y-80492500D02*
X133670000Y-75412500D01*
%TO.N,Net-(J2-Pin_1)*%
X106564000Y-82064000D02*
X103500000Y-79000000D01*
X111379100Y-82064000D02*
X106564000Y-82064000D01*
X112204300Y-82889200D02*
X111379100Y-82064000D01*
X112204300Y-83797400D02*
X112204300Y-82889200D01*
X111227700Y-84774000D02*
X112204300Y-83797400D01*
X111090200Y-84774000D02*
X111227700Y-84774000D01*
X111090200Y-85874000D02*
X111090200Y-84774000D01*
%TO.N,Net-(J2-Pin_2)*%
X104166000Y-83334000D02*
X103500000Y-84000000D01*
X111090200Y-83334000D02*
X104166000Y-83334000D01*
%TO.N,+12V*%
X122431100Y-131111100D02*
X119320000Y-128000000D01*
X140888900Y-131111100D02*
X122431100Y-131111100D01*
X142000000Y-130000000D02*
X140888900Y-131111100D01*
X117920000Y-128000000D02*
X119320000Y-128000000D01*
X143446500Y-79404900D02*
X142117700Y-80733700D01*
X158952000Y-79404900D02*
X143446500Y-79404900D01*
X163873400Y-84326300D02*
X158952000Y-79404900D01*
X171982000Y-84326300D02*
X163873400Y-84326300D01*
%TO.N,/FLT*%
X124911500Y-81894000D02*
X128590000Y-85572500D01*
X113290200Y-81894000D02*
X124911500Y-81894000D01*
X112190200Y-80794000D02*
X113290200Y-81894000D01*
X111090200Y-80794000D02*
X112190200Y-80794000D01*
X132480000Y-81682500D02*
X153990000Y-81682500D01*
X128590000Y-85572500D02*
X132480000Y-81682500D01*
X171982000Y-99566300D02*
X171982000Y-98466300D01*
X153990000Y-80492500D02*
X153990000Y-81682500D01*
X171868000Y-98466300D02*
X171982000Y-98466300D01*
X170519200Y-97117500D02*
X171868000Y-98466300D01*
X170519200Y-96559700D02*
X170519200Y-97117500D01*
X159555800Y-85596300D02*
X170519200Y-96559700D01*
X158931000Y-85596300D02*
X159555800Y-85596300D01*
X155017200Y-81682500D02*
X158931000Y-85596300D01*
X153990000Y-81682500D02*
X155017200Y-81682500D01*
%TO.N,/M0*%
X155658600Y-84342900D02*
X153990000Y-84342900D01*
X158182000Y-86866300D02*
X155658600Y-84342900D01*
X153990000Y-84342900D02*
X153990000Y-83032500D01*
X159282000Y-86866300D02*
X158182000Y-86866300D01*
X132359600Y-84342900D02*
X128590000Y-88112500D01*
X153990000Y-84342900D02*
X132359600Y-84342900D01*
X127785400Y-87307900D02*
X128590000Y-88112500D01*
X123369700Y-87307900D02*
X127785400Y-87307900D01*
X122171800Y-88505800D02*
X123369700Y-87307900D01*
X122171800Y-91875600D02*
X122171800Y-88505800D01*
X123790200Y-93494000D02*
X122171800Y-91875600D01*
%TO.N,/5V*%
X125705400Y-97026300D02*
X125287100Y-96608000D01*
X159282000Y-97026300D02*
X125705400Y-97026300D01*
%TO.N,/DIR*%
X133670000Y-77952500D02*
X153990000Y-77952500D01*
X128590000Y-83032500D02*
X133670000Y-77952500D01*
%TO.N,/M1*%
X159282000Y-89406300D02*
X158182000Y-89406300D01*
X153990000Y-85572500D02*
X153990000Y-86693600D01*
X155469300Y-86693600D02*
X153990000Y-86693600D01*
X158182000Y-89406300D02*
X155469300Y-86693600D01*
X132548900Y-86693600D02*
X128590000Y-90652500D01*
X153990000Y-86693600D02*
X132548900Y-86693600D01*
X125191700Y-90652500D02*
X124890200Y-90954000D01*
X128590000Y-90652500D02*
X125191700Y-90652500D01*
X123790200Y-90954000D02*
X124890200Y-90954000D01*
%TO.N,/EN*%
X148910000Y-95732500D02*
X153990000Y-90652500D01*
X128590000Y-95732500D02*
X148910000Y-95732500D01*
X125191700Y-95732500D02*
X124890200Y-96034000D01*
X128590000Y-95732500D02*
X125191700Y-95732500D01*
X123790200Y-96034000D02*
X124890200Y-96034000D01*
%TO.N,/M2*%
X154891800Y-88656100D02*
X158182000Y-91946300D01*
X153990000Y-88656100D02*
X154891800Y-88656100D01*
X127621500Y-92224000D02*
X128590000Y-93192500D01*
X123506300Y-92224000D02*
X127621500Y-92224000D01*
X122665800Y-91383500D02*
X123506300Y-92224000D01*
X122665800Y-90500900D02*
X122665800Y-91383500D01*
X123652700Y-89514000D02*
X122665800Y-90500900D01*
X123790200Y-89514000D02*
X123652700Y-89514000D01*
X123790200Y-88414000D02*
X123790200Y-89514000D01*
X153990000Y-88112500D02*
X153990000Y-88656100D01*
X133126400Y-88656100D02*
X128590000Y-93192500D01*
X153990000Y-88656100D02*
X133126400Y-88656100D01*
X159282000Y-91946300D02*
X158182000Y-91946300D01*
%TO.N,Net-(Regulator1-VI)*%
X131000000Y-140500000D02*
X131000000Y-137335000D01*
X145594500Y-137335000D02*
X131000000Y-137335000D01*
X115754300Y-128500000D02*
X115754300Y-127900800D01*
X124589300Y-137335000D02*
X115754300Y-128500000D01*
X131000000Y-137335000D02*
X124589300Y-137335000D01*
X145594500Y-137335000D02*
X145625000Y-137304500D01*
X145625000Y-137304500D02*
X145594500Y-137335000D01*
%TD*%
%TA.AperFunction,Conductor*%
%TO.N,GND*%
G36*
X158698231Y-80075085D02*
G01*
X158718873Y-80091719D01*
X163458725Y-84831572D01*
X163458732Y-84831578D01*
X163565263Y-84902759D01*
X163565265Y-84902760D01*
X163565274Y-84902766D01*
X163611708Y-84921999D01*
X163611709Y-84922000D01*
X163638580Y-84933130D01*
X163683656Y-84951801D01*
X163683660Y-84951801D01*
X163683661Y-84951802D01*
X163809328Y-84976800D01*
X163809331Y-84976800D01*
X170783929Y-84976800D01*
X170850968Y-84996485D01*
X170884245Y-85027913D01*
X170956670Y-85127597D01*
X170990034Y-85173519D01*
X171134786Y-85318271D01*
X171289749Y-85430856D01*
X171300390Y-85438587D01*
X171370043Y-85474077D01*
X171393629Y-85486095D01*
X171444425Y-85534070D01*
X171461220Y-85601891D01*
X171438682Y-85668026D01*
X171393629Y-85707065D01*
X171300650Y-85754440D01*
X171135105Y-85874717D01*
X171135104Y-85874717D01*
X170990417Y-86019404D01*
X170990417Y-86019405D01*
X170870140Y-86184950D01*
X170777244Y-86367270D01*
X170714009Y-86561886D01*
X170705391Y-86616300D01*
X171666314Y-86616300D01*
X171661920Y-86620694D01*
X171609259Y-86711906D01*
X171582000Y-86813639D01*
X171582000Y-86918961D01*
X171609259Y-87020694D01*
X171661920Y-87111906D01*
X171666314Y-87116300D01*
X170705391Y-87116300D01*
X170714009Y-87170713D01*
X170777244Y-87365329D01*
X170870140Y-87547649D01*
X170990417Y-87713194D01*
X170990417Y-87713195D01*
X171135104Y-87857882D01*
X171300652Y-87978161D01*
X171393628Y-88025534D01*
X171444425Y-88073508D01*
X171461220Y-88141329D01*
X171438683Y-88207464D01*
X171393630Y-88246503D01*
X171300388Y-88294013D01*
X171134786Y-88414328D01*
X170990028Y-88559086D01*
X170869715Y-88724686D01*
X170776781Y-88907076D01*
X170713522Y-89101765D01*
X170681500Y-89303948D01*
X170681500Y-89508651D01*
X170713522Y-89710834D01*
X170776781Y-89905523D01*
X170826963Y-90004009D01*
X170868995Y-90086501D01*
X170869715Y-90087913D01*
X170990028Y-90253513D01*
X171134786Y-90398271D01*
X171289749Y-90510856D01*
X171300390Y-90518587D01*
X171370043Y-90554077D01*
X171393080Y-90565815D01*
X171443876Y-90613790D01*
X171460671Y-90681611D01*
X171438134Y-90747746D01*
X171393080Y-90786785D01*
X171300386Y-90834015D01*
X171134786Y-90954328D01*
X170990028Y-91099086D01*
X170869715Y-91264686D01*
X170776781Y-91447076D01*
X170713522Y-91641765D01*
X170681500Y-91843948D01*
X170681500Y-92048651D01*
X170713522Y-92250834D01*
X170776781Y-92445523D01*
X170823440Y-92537094D01*
X170868995Y-92626501D01*
X170869715Y-92627913D01*
X170990028Y-92793513D01*
X171134786Y-92938271D01*
X171267410Y-93034626D01*
X171300390Y-93058587D01*
X171369892Y-93094000D01*
X171393080Y-93105815D01*
X171443876Y-93153790D01*
X171460671Y-93221611D01*
X171438134Y-93287746D01*
X171393080Y-93326785D01*
X171300386Y-93374015D01*
X171134786Y-93494328D01*
X170990028Y-93639086D01*
X170869715Y-93804686D01*
X170776781Y-93987076D01*
X170713522Y-94181765D01*
X170681500Y-94383948D01*
X170681500Y-94588651D01*
X170713522Y-94790834D01*
X170776781Y-94985523D01*
X170838676Y-95106997D01*
X170865030Y-95158720D01*
X170869715Y-95167913D01*
X170990028Y-95333513D01*
X171134786Y-95478271D01*
X171289749Y-95590856D01*
X171300390Y-95598587D01*
X171370043Y-95634077D01*
X171393080Y-95645815D01*
X171443876Y-95693790D01*
X171460671Y-95761611D01*
X171438134Y-95827746D01*
X171393080Y-95866785D01*
X171300386Y-95914015D01*
X171134781Y-96034333D01*
X171111957Y-96057156D01*
X171050632Y-96090638D01*
X170980941Y-96085651D01*
X170936598Y-96057152D01*
X160251146Y-85371700D01*
X160217661Y-85310377D01*
X160222645Y-85240685D01*
X160251143Y-85196341D01*
X160273966Y-85173519D01*
X160394287Y-85007910D01*
X160487220Y-84825519D01*
X160550477Y-84630834D01*
X160582500Y-84428652D01*
X160582500Y-84223948D01*
X160563743Y-84105525D01*
X160550477Y-84021765D01*
X160502931Y-83875435D01*
X160487220Y-83827081D01*
X160487218Y-83827078D01*
X160487218Y-83827076D01*
X160442506Y-83739325D01*
X160394287Y-83644690D01*
X160386556Y-83634049D01*
X160273971Y-83479086D01*
X160129213Y-83334328D01*
X159963613Y-83214015D01*
X159963612Y-83214014D01*
X159963610Y-83214013D01*
X159890970Y-83177001D01*
X159781223Y-83121081D01*
X159586534Y-83057822D01*
X159407498Y-83029466D01*
X159384352Y-83025800D01*
X159179648Y-83025800D01*
X159156502Y-83029466D01*
X158977465Y-83057822D01*
X158782776Y-83121081D01*
X158600386Y-83214015D01*
X158434786Y-83334328D01*
X158290028Y-83479086D01*
X158169714Y-83644686D01*
X158155930Y-83671738D01*
X158107953Y-83722532D01*
X158040132Y-83739325D01*
X157973998Y-83716785D01*
X157957766Y-83703120D01*
X155431874Y-81177227D01*
X155431873Y-81177226D01*
X155420154Y-81169396D01*
X155325327Y-81106035D01*
X155325326Y-81106034D01*
X155325324Y-81106033D01*
X155237478Y-81069646D01*
X155183074Y-81025804D01*
X155161010Y-80959510D01*
X155166998Y-80916773D01*
X155209709Y-80785326D01*
X155225780Y-80683857D01*
X155240500Y-80590922D01*
X155240500Y-80394077D01*
X155216151Y-80240349D01*
X155209709Y-80199674D01*
X155209708Y-80199672D01*
X155209570Y-80198798D01*
X155218524Y-80129505D01*
X155263520Y-80076053D01*
X155330272Y-80055413D01*
X155332043Y-80055400D01*
X158631192Y-80055400D01*
X158698231Y-80075085D01*
G37*
%TD.AperFunction*%
%TA.AperFunction,Conductor*%
G36*
X112906745Y-70275203D02*
G01*
X112907546Y-70274005D01*
X113043714Y-70364990D01*
X113043727Y-70364997D01*
X113092925Y-70385375D01*
X113189403Y-70425337D01*
X113264220Y-70440219D01*
X113326127Y-70472602D01*
X113327707Y-70474154D01*
X113953554Y-71100000D01*
X113947339Y-71100000D01*
X113845606Y-71127259D01*
X113754394Y-71179920D01*
X113679920Y-71254394D01*
X113627259Y-71345606D01*
X113600000Y-71447339D01*
X113600000Y-71453553D01*
X112915513Y-70769066D01*
X112865849Y-70758633D01*
X112816093Y-70709581D01*
X112802048Y-70655362D01*
X112800900Y-70655423D01*
X112800854Y-70655429D01*
X112800853Y-70655426D01*
X112800676Y-70655436D01*
X112800499Y-70652141D01*
X112800499Y-70652128D01*
X112794091Y-70592517D01*
X112743796Y-70457669D01*
X112738682Y-70450838D01*
X112714266Y-70385375D01*
X112729117Y-70317102D01*
X112778522Y-70267696D01*
X112846795Y-70252844D01*
X112906745Y-70275203D01*
G37*
%TD.AperFunction*%
%TA.AperFunction,Conductor*%
G36*
X175192539Y-50052685D02*
G01*
X175238294Y-50105489D01*
X175249500Y-50157000D01*
X175249500Y-143908000D01*
X175229815Y-143975039D01*
X175177011Y-144020794D01*
X175125500Y-144032000D01*
X102024319Y-144032000D01*
X102023529Y-144031997D01*
X97373710Y-144002379D01*
X97306797Y-143982268D01*
X97261380Y-143929174D01*
X97250500Y-143878382D01*
X97250500Y-135832514D01*
X112312500Y-135832514D01*
X112312500Y-136782500D01*
X113612499Y-136782500D01*
X113587479Y-136842902D01*
X113562500Y-136968481D01*
X113562500Y-137096519D01*
X113587479Y-137222098D01*
X113612499Y-137282500D01*
X112312500Y-137282500D01*
X112312500Y-138232485D01*
X112322993Y-138335189D01*
X112322994Y-138335196D01*
X112378141Y-138501618D01*
X112378143Y-138501623D01*
X112470184Y-138650844D01*
X112594155Y-138774815D01*
X112743376Y-138866856D01*
X112743381Y-138866858D01*
X112909803Y-138922005D01*
X112909810Y-138922006D01*
X113012514Y-138932499D01*
X113012527Y-138932500D01*
X113962500Y-138932500D01*
X113962500Y-137632501D01*
X114022902Y-137657521D01*
X114148481Y-137682500D01*
X114276519Y-137682500D01*
X114402098Y-137657521D01*
X114462500Y-137632501D01*
X114462500Y-138932500D01*
X115412473Y-138932500D01*
X115412485Y-138932499D01*
X115515189Y-138922006D01*
X115515196Y-138922005D01*
X115681618Y-138866858D01*
X115681623Y-138866856D01*
X115830844Y-138774815D01*
X115954815Y-138650844D01*
X116046856Y-138501623D01*
X116046858Y-138501618D01*
X116102005Y-138335196D01*
X116102006Y-138335189D01*
X116112499Y-138232485D01*
X116112500Y-138232472D01*
X116112500Y-137282500D01*
X114812501Y-137282500D01*
X114837521Y-137222098D01*
X114862500Y-137096519D01*
X114862500Y-136968481D01*
X114850458Y-136907941D01*
X117312000Y-136907941D01*
X117312000Y-137157058D01*
X117312001Y-137157075D01*
X117344517Y-137404061D01*
X117408998Y-137644707D01*
X117504330Y-137874861D01*
X117504337Y-137874876D01*
X117628900Y-138090626D01*
X117780560Y-138288274D01*
X117780566Y-138288281D01*
X117956718Y-138464433D01*
X117956725Y-138464439D01*
X118154373Y-138616099D01*
X118370123Y-138740662D01*
X118370138Y-138740669D01*
X118452575Y-138774815D01*
X118600293Y-138836002D01*
X118840935Y-138900482D01*
X119087935Y-138933000D01*
X119087942Y-138933000D01*
X119337058Y-138933000D01*
X119337065Y-138933000D01*
X119584065Y-138900482D01*
X119824707Y-138836002D01*
X120054873Y-138740664D01*
X120270627Y-138616099D01*
X120468276Y-138464438D01*
X120644438Y-138288276D01*
X120796099Y-138090627D01*
X120920664Y-137874873D01*
X121016002Y-137644707D01*
X121080482Y-137404065D01*
X121113000Y-137157065D01*
X121113000Y-136907935D01*
X121080482Y-136660935D01*
X121016002Y-136420293D01*
X120941696Y-136240902D01*
X120920669Y-136190138D01*
X120920662Y-136190123D01*
X120796099Y-135974373D01*
X120644439Y-135776725D01*
X120644433Y-135776718D01*
X120468281Y-135600566D01*
X120468274Y-135600560D01*
X120270626Y-135448900D01*
X120054876Y-135324337D01*
X120054861Y-135324330D01*
X119824707Y-135228998D01*
X119584061Y-135164517D01*
X119337075Y-135132001D01*
X119337070Y-135132000D01*
X119337065Y-135132000D01*
X119087935Y-135132000D01*
X119087929Y-135132000D01*
X119087924Y-135132001D01*
X118840938Y-135164517D01*
X118600292Y-135228998D01*
X118370138Y-135324330D01*
X118370123Y-135324337D01*
X118154373Y-135448900D01*
X117956725Y-135600560D01*
X117956718Y-135600566D01*
X117780566Y-135776718D01*
X117780560Y-135776725D01*
X117628900Y-135974373D01*
X117504337Y-136190123D01*
X117504330Y-136190138D01*
X117408998Y-136420292D01*
X117344517Y-136660938D01*
X117312001Y-136907924D01*
X117312000Y-136907941D01*
X114850458Y-136907941D01*
X114837521Y-136842902D01*
X114812501Y-136782500D01*
X116112500Y-136782500D01*
X116112500Y-135832527D01*
X116112499Y-135832514D01*
X116102006Y-135729810D01*
X116102005Y-135729803D01*
X116046858Y-135563381D01*
X116046856Y-135563376D01*
X115954815Y-135414155D01*
X115830844Y-135290184D01*
X115681623Y-135198143D01*
X115681618Y-135198141D01*
X115515196Y-135142994D01*
X115515189Y-135142993D01*
X115412485Y-135132500D01*
X114462500Y-135132500D01*
X114462500Y-136432498D01*
X114402098Y-136407479D01*
X114276519Y-136382500D01*
X114148481Y-136382500D01*
X114022902Y-136407479D01*
X113962500Y-136432498D01*
X113962500Y-135132500D01*
X113012514Y-135132500D01*
X112909810Y-135142993D01*
X112909803Y-135142994D01*
X112743381Y-135198141D01*
X112743376Y-135198143D01*
X112594155Y-135290184D01*
X112470184Y-135414155D01*
X112378143Y-135563376D01*
X112378141Y-135563381D01*
X112322994Y-135729803D01*
X112322993Y-135729810D01*
X112312500Y-135832514D01*
X97250500Y-135832514D01*
X97250500Y-128049984D01*
X102099500Y-128049984D01*
X102099500Y-130450015D01*
X102110000Y-130552795D01*
X102110001Y-130552796D01*
X102165186Y-130719335D01*
X102165187Y-130719337D01*
X102257286Y-130868651D01*
X102257289Y-130868655D01*
X102381344Y-130992710D01*
X102381348Y-130992713D01*
X102530662Y-131084812D01*
X102530664Y-131084813D01*
X102530666Y-131084814D01*
X102697203Y-131139999D01*
X102799992Y-131150500D01*
X102799997Y-131150500D01*
X105200003Y-131150500D01*
X105200008Y-131150500D01*
X105302797Y-131139999D01*
X105469334Y-131084814D01*
X105618655Y-130992711D01*
X105742711Y-130868655D01*
X105834814Y-130719334D01*
X105889999Y-130552797D01*
X105900500Y-130450008D01*
X105900500Y-128320807D01*
X105920185Y-128253768D01*
X105936814Y-128233131D01*
X106347992Y-127821953D01*
X114953800Y-127821953D01*
X114953800Y-127979646D01*
X114984561Y-128134289D01*
X114984564Y-128134301D01*
X115044902Y-128279972D01*
X115044906Y-128279979D01*
X115082902Y-128336844D01*
X115103780Y-128403521D01*
X115103800Y-128405735D01*
X115103800Y-128564069D01*
X115103800Y-128564071D01*
X115103799Y-128564071D01*
X115128797Y-128689738D01*
X115128799Y-128689744D01*
X115177835Y-128808127D01*
X115249023Y-128914669D01*
X115249026Y-128914673D01*
X124174625Y-137840272D01*
X124174632Y-137840278D01*
X124279058Y-137910053D01*
X124279062Y-137910054D01*
X124281173Y-137911465D01*
X124399556Y-137960501D01*
X124399560Y-137960501D01*
X124399561Y-137960502D01*
X124525228Y-137985500D01*
X124525231Y-137985500D01*
X130225500Y-137985500D01*
X130292539Y-138005185D01*
X130338294Y-138057989D01*
X130349500Y-138109500D01*
X130349500Y-139301928D01*
X130329815Y-139368967D01*
X130298385Y-139402246D01*
X130152787Y-139508028D01*
X130152782Y-139508032D01*
X130004589Y-139656226D01*
X130003270Y-139654907D01*
X129951401Y-139688737D01*
X129881533Y-139689208D01*
X129822502Y-139651830D01*
X129794988Y-139598508D01*
X129793597Y-139592621D01*
X129743354Y-139457913D01*
X129743350Y-139457906D01*
X129657190Y-139342812D01*
X129657187Y-139342809D01*
X129542093Y-139256649D01*
X129542086Y-139256645D01*
X129407379Y-139206403D01*
X129407372Y-139206401D01*
X129347844Y-139200000D01*
X128750000Y-139200000D01*
X128750000Y-140184314D01*
X128745606Y-140179920D01*
X128654394Y-140127259D01*
X128552661Y-140100000D01*
X128447339Y-140100000D01*
X128345606Y-140127259D01*
X128254394Y-140179920D01*
X128250000Y-140184314D01*
X128250000Y-139200000D01*
X127652155Y-139200000D01*
X127592627Y-139206401D01*
X127592620Y-139206403D01*
X127457913Y-139256645D01*
X127457906Y-139256649D01*
X127342812Y-139342809D01*
X127342809Y-139342812D01*
X127256649Y-139457906D01*
X127256645Y-139457913D01*
X127206403Y-139592620D01*
X127206401Y-139592627D01*
X127200000Y-139652155D01*
X127200000Y-140250000D01*
X128184314Y-140250000D01*
X128179920Y-140254394D01*
X128127259Y-140345606D01*
X128100000Y-140447339D01*
X128100000Y-140552661D01*
X128127259Y-140654394D01*
X128179920Y-140745606D01*
X128184314Y-140750000D01*
X127200000Y-140750000D01*
X127200000Y-141347844D01*
X127206401Y-141407372D01*
X127206403Y-141407379D01*
X127256645Y-141542086D01*
X127256649Y-141542093D01*
X127342809Y-141657187D01*
X127342812Y-141657190D01*
X127457906Y-141743350D01*
X127457913Y-141743354D01*
X127592620Y-141793596D01*
X127592627Y-141793598D01*
X127652155Y-141799999D01*
X127652172Y-141800000D01*
X128250000Y-141800000D01*
X128250000Y-140815686D01*
X128254394Y-140820080D01*
X128345606Y-140872741D01*
X128447339Y-140900000D01*
X128552661Y-140900000D01*
X128654394Y-140872741D01*
X128745606Y-140820080D01*
X128750000Y-140815686D01*
X128750000Y-141800000D01*
X129347828Y-141800000D01*
X129347844Y-141799999D01*
X129407372Y-141793598D01*
X129407379Y-141793596D01*
X129542086Y-141743354D01*
X129542093Y-141743350D01*
X129657187Y-141657190D01*
X129657190Y-141657187D01*
X129743350Y-141542093D01*
X129743354Y-141542086D01*
X129793598Y-141407375D01*
X129794988Y-141401493D01*
X129829558Y-141340775D01*
X129891467Y-141308385D01*
X129961059Y-141314608D01*
X130003499Y-141344863D01*
X130004589Y-141343774D01*
X130152786Y-141491971D01*
X130307749Y-141604556D01*
X130318390Y-141612287D01*
X130406517Y-141657190D01*
X130500776Y-141705218D01*
X130500778Y-141705218D01*
X130500781Y-141705220D01*
X130605137Y-141739127D01*
X130695465Y-141768477D01*
X130796557Y-141784488D01*
X130897648Y-141800500D01*
X130897649Y-141800500D01*
X131102351Y-141800500D01*
X131102352Y-141800500D01*
X131304534Y-141768477D01*
X131499219Y-141705220D01*
X131681610Y-141612287D01*
X131778234Y-141542086D01*
X131847213Y-141491971D01*
X131847215Y-141491968D01*
X131847219Y-141491966D01*
X131991966Y-141347219D01*
X131991968Y-141347215D01*
X131991971Y-141347213D01*
X132044732Y-141274590D01*
X132112287Y-141181610D01*
X132205220Y-140999219D01*
X132268477Y-140804534D01*
X132300500Y-140602352D01*
X132300500Y-140397648D01*
X132292257Y-140345606D01*
X132268477Y-140195465D01*
X132205218Y-140000776D01*
X132171503Y-139934607D01*
X132112287Y-139818390D01*
X132104556Y-139807749D01*
X131991971Y-139652786D01*
X131847217Y-139508032D01*
X131847212Y-139508028D01*
X131701615Y-139402246D01*
X131658949Y-139346916D01*
X131650500Y-139301928D01*
X131650500Y-138109500D01*
X131670185Y-138042461D01*
X131722989Y-137996706D01*
X131774500Y-137985500D01*
X145089565Y-137985500D01*
X145156604Y-138005185D01*
X145158409Y-138006366D01*
X145215321Y-138044394D01*
X145215323Y-138044395D01*
X145215327Y-138044397D01*
X145326938Y-138090627D01*
X145361003Y-138104737D01*
X145515653Y-138135499D01*
X145515656Y-138135500D01*
X145515658Y-138135500D01*
X145673344Y-138135500D01*
X145673345Y-138135499D01*
X145827997Y-138104737D01*
X145973679Y-138044394D01*
X146104789Y-137956789D01*
X146216289Y-137845289D01*
X146303894Y-137714179D01*
X146364237Y-137568497D01*
X146395000Y-137413842D01*
X146395000Y-137256158D01*
X146395000Y-137256155D01*
X146394999Y-137256153D01*
X146375289Y-137157065D01*
X146364237Y-137101503D01*
X146309138Y-136968481D01*
X146303897Y-136955827D01*
X146303890Y-136955814D01*
X146216289Y-136824711D01*
X146216286Y-136824707D01*
X146104792Y-136713213D01*
X146104788Y-136713210D01*
X145973685Y-136625609D01*
X145973672Y-136625602D01*
X145828001Y-136565264D01*
X145827989Y-136565261D01*
X145673345Y-136534500D01*
X145673342Y-136534500D01*
X145515658Y-136534500D01*
X145515655Y-136534500D01*
X145361010Y-136565261D01*
X145360998Y-136565264D01*
X145215327Y-136625602D01*
X145215320Y-136625606D01*
X145186428Y-136644911D01*
X145158455Y-136663602D01*
X145091779Y-136684480D01*
X145089565Y-136684500D01*
X124910108Y-136684500D01*
X124843069Y-136664815D01*
X124822427Y-136648181D01*
X120826401Y-132652155D01*
X126700000Y-132652155D01*
X126700000Y-133250000D01*
X127684314Y-133250000D01*
X127679920Y-133254394D01*
X127627259Y-133345606D01*
X127600000Y-133447339D01*
X127600000Y-133552661D01*
X127627259Y-133654394D01*
X127679920Y-133745606D01*
X127684314Y-133750000D01*
X126700000Y-133750000D01*
X126700000Y-134347844D01*
X126706401Y-134407372D01*
X126706403Y-134407379D01*
X126756645Y-134542086D01*
X126756649Y-134542093D01*
X126842809Y-134657187D01*
X126842812Y-134657190D01*
X126957906Y-134743350D01*
X126957913Y-134743354D01*
X127092620Y-134793596D01*
X127092627Y-134793598D01*
X127152155Y-134799999D01*
X127152172Y-134800000D01*
X127750000Y-134800000D01*
X127750000Y-133815686D01*
X127754394Y-133820080D01*
X127845606Y-133872741D01*
X127947339Y-133900000D01*
X128052661Y-133900000D01*
X128154394Y-133872741D01*
X128245606Y-133820080D01*
X128250000Y-133815686D01*
X128250000Y-134800000D01*
X128847828Y-134800000D01*
X128847844Y-134799999D01*
X128907372Y-134793598D01*
X128907379Y-134793596D01*
X129042086Y-134743354D01*
X129042093Y-134743350D01*
X129157187Y-134657190D01*
X129157190Y-134657187D01*
X129243350Y-134542093D01*
X129243354Y-134542086D01*
X129293598Y-134407375D01*
X129294988Y-134401493D01*
X129329558Y-134340775D01*
X129391467Y-134308385D01*
X129461059Y-134314608D01*
X129503499Y-134344863D01*
X129504589Y-134343774D01*
X129652786Y-134491971D01*
X129807749Y-134604556D01*
X129818390Y-134612287D01*
X129906517Y-134657190D01*
X130000776Y-134705218D01*
X130000778Y-134705218D01*
X130000781Y-134705220D01*
X130105137Y-134739127D01*
X130195465Y-134768477D01*
X130296557Y-134784488D01*
X130397648Y-134800500D01*
X130397649Y-134800500D01*
X130602351Y-134800500D01*
X130602352Y-134800500D01*
X130804534Y-134768477D01*
X130999219Y-134705220D01*
X131181610Y-134612287D01*
X131278234Y-134542086D01*
X131347213Y-134491971D01*
X131347215Y-134491968D01*
X131347219Y-134491966D01*
X131491966Y-134347219D01*
X131516943Y-134312841D01*
X149254500Y-134312841D01*
X149254500Y-134561958D01*
X149254501Y-134561975D01*
X149287017Y-134808961D01*
X149351498Y-135049607D01*
X149446830Y-135279761D01*
X149446837Y-135279776D01*
X149571400Y-135495526D01*
X149723060Y-135693174D01*
X149723066Y-135693181D01*
X149899218Y-135869333D01*
X149899225Y-135869339D01*
X150096873Y-136020999D01*
X150312623Y-136145562D01*
X150312638Y-136145569D01*
X150411825Y-136186653D01*
X150542793Y-136240902D01*
X150783435Y-136305382D01*
X151030435Y-136337900D01*
X151030442Y-136337900D01*
X151279558Y-136337900D01*
X151279565Y-136337900D01*
X151526565Y-136305382D01*
X151767207Y-136240902D01*
X151997373Y-136145564D01*
X152213127Y-136020999D01*
X152410776Y-135869338D01*
X152586938Y-135693176D01*
X152738599Y-135495527D01*
X152863164Y-135279773D01*
X152958502Y-135049607D01*
X153022982Y-134808965D01*
X153055500Y-134561965D01*
X153055500Y-134312841D01*
X154254500Y-134312841D01*
X154254500Y-134561958D01*
X154254501Y-134561975D01*
X154287017Y-134808961D01*
X154351498Y-135049607D01*
X154446830Y-135279761D01*
X154446837Y-135279776D01*
X154571400Y-135495526D01*
X154723060Y-135693174D01*
X154723066Y-135693181D01*
X154899218Y-135869333D01*
X154899225Y-135869339D01*
X155096873Y-136020999D01*
X155312623Y-136145562D01*
X155312638Y-136145569D01*
X155411825Y-136186653D01*
X155542793Y-136240902D01*
X155783435Y-136305382D01*
X156030435Y-136337900D01*
X156030442Y-136337900D01*
X156279558Y-136337900D01*
X156279565Y-136337900D01*
X156526565Y-136305382D01*
X156767207Y-136240902D01*
X156997373Y-136145564D01*
X157213127Y-136020999D01*
X157410776Y-135869338D01*
X157586938Y-135693176D01*
X157738599Y-135495527D01*
X157863164Y-135279773D01*
X157958502Y-135049607D01*
X158022982Y-134808965D01*
X158055500Y-134561965D01*
X158055500Y-134312841D01*
X159254500Y-134312841D01*
X159254500Y-134561958D01*
X159254501Y-134561975D01*
X159287017Y-134808961D01*
X159351498Y-135049607D01*
X159446830Y-135279761D01*
X159446837Y-135279776D01*
X159571400Y-135495526D01*
X159723060Y-135693174D01*
X159723066Y-135693181D01*
X159899218Y-135869333D01*
X159899225Y-135869339D01*
X160096873Y-136020999D01*
X160312623Y-136145562D01*
X160312638Y-136145569D01*
X160411825Y-136186653D01*
X160542793Y-136240902D01*
X160783435Y-136305382D01*
X161030435Y-136337900D01*
X161030442Y-136337900D01*
X161279558Y-136337900D01*
X161279565Y-136337900D01*
X161526565Y-136305382D01*
X161767207Y-136240902D01*
X161997373Y-136145564D01*
X162213127Y-136020999D01*
X162410776Y-135869338D01*
X162586938Y-135693176D01*
X162738599Y-135495527D01*
X162863164Y-135279773D01*
X162958502Y-135049607D01*
X163022982Y-134808965D01*
X163055500Y-134561965D01*
X163055500Y-134312835D01*
X163022982Y-134065835D01*
X162958502Y-133825193D01*
X162887755Y-133654394D01*
X162863169Y-133595038D01*
X162863162Y-133595023D01*
X162738599Y-133379273D01*
X162685230Y-133309721D01*
X162629724Y-133237384D01*
X164254500Y-133237384D01*
X164254500Y-135637415D01*
X164265000Y-135740195D01*
X164265001Y-135740196D01*
X164320186Y-135906735D01*
X164320187Y-135906737D01*
X164412286Y-136056051D01*
X164412289Y-136056055D01*
X164536344Y-136180110D01*
X164536348Y-136180113D01*
X164685662Y-136272212D01*
X164685664Y-136272213D01*
X164685666Y-136272214D01*
X164852203Y-136327399D01*
X164954992Y-136337900D01*
X164954997Y-136337900D01*
X167355003Y-136337900D01*
X167355008Y-136337900D01*
X167457797Y-136327399D01*
X167624334Y-136272214D01*
X167773655Y-136180111D01*
X167897711Y-136056055D01*
X167989814Y-135906734D01*
X168044999Y-135740197D01*
X168055500Y-135637408D01*
X168055500Y-133237392D01*
X168044999Y-133134603D01*
X167989814Y-132968066D01*
X167919333Y-132853800D01*
X167897713Y-132818748D01*
X167897710Y-132818744D01*
X167773655Y-132694689D01*
X167773651Y-132694686D01*
X167624337Y-132602587D01*
X167624335Y-132602586D01*
X167524237Y-132569417D01*
X167457797Y-132547401D01*
X167457795Y-132547400D01*
X167355015Y-132536900D01*
X167355008Y-132536900D01*
X164954992Y-132536900D01*
X164954984Y-132536900D01*
X164852204Y-132547400D01*
X164852203Y-132547401D01*
X164685664Y-132602586D01*
X164685662Y-132602587D01*
X164536348Y-132694686D01*
X164536344Y-132694689D01*
X164412289Y-132818744D01*
X164412286Y-132818748D01*
X164320187Y-132968062D01*
X164320186Y-132968064D01*
X164265001Y-133134603D01*
X164265000Y-133134604D01*
X164254500Y-133237384D01*
X162629724Y-133237384D01*
X162586939Y-133181625D01*
X162586933Y-133181618D01*
X162410781Y-133005466D01*
X162410774Y-133005460D01*
X162213126Y-132853800D01*
X161997376Y-132729237D01*
X161997361Y-132729230D01*
X161767207Y-132633898D01*
X161613182Y-132592627D01*
X161526565Y-132569418D01*
X161526564Y-132569417D01*
X161526561Y-132569417D01*
X161279575Y-132536901D01*
X161279570Y-132536900D01*
X161279565Y-132536900D01*
X161030435Y-132536900D01*
X161030429Y-132536900D01*
X161030424Y-132536901D01*
X160783438Y-132569417D01*
X160542792Y-132633898D01*
X160312638Y-132729230D01*
X160312623Y-132729237D01*
X160096873Y-132853800D01*
X159899225Y-133005460D01*
X159899218Y-133005466D01*
X159723066Y-133181618D01*
X159723060Y-133181625D01*
X159571400Y-133379273D01*
X159446837Y-133595023D01*
X159446830Y-133595038D01*
X159351498Y-133825192D01*
X159287017Y-134065838D01*
X159254501Y-134312824D01*
X159254500Y-134312841D01*
X158055500Y-134312841D01*
X158055500Y-134312835D01*
X158022982Y-134065835D01*
X157958502Y-133825193D01*
X157887755Y-133654394D01*
X157863169Y-133595038D01*
X157863162Y-133595023D01*
X157738599Y-133379273D01*
X157586939Y-133181625D01*
X157586933Y-133181618D01*
X157410781Y-133005466D01*
X157410774Y-133005460D01*
X157213126Y-132853800D01*
X156997376Y-132729237D01*
X156997361Y-132729230D01*
X156767207Y-132633898D01*
X156613182Y-132592627D01*
X156526565Y-132569418D01*
X156526564Y-132569417D01*
X156526561Y-132569417D01*
X156279575Y-132536901D01*
X156279570Y-132536900D01*
X156279565Y-132536900D01*
X156030435Y-132536900D01*
X156030429Y-132536900D01*
X156030424Y-132536901D01*
X155783438Y-132569417D01*
X155542792Y-132633898D01*
X155312638Y-132729230D01*
X155312623Y-132729237D01*
X155096873Y-132853800D01*
X154899225Y-133005460D01*
X154899218Y-133005466D01*
X154723066Y-133181618D01*
X154723060Y-133181625D01*
X154571400Y-133379273D01*
X154446837Y-133595023D01*
X154446830Y-133595038D01*
X154351498Y-133825192D01*
X154287017Y-134065838D01*
X154254501Y-134312824D01*
X154254500Y-134312841D01*
X153055500Y-134312841D01*
X153055500Y-134312835D01*
X153022982Y-134065835D01*
X152958502Y-133825193D01*
X152887755Y-133654394D01*
X152863169Y-133595038D01*
X152863162Y-133595023D01*
X152738599Y-133379273D01*
X152586939Y-133181625D01*
X152586933Y-133181618D01*
X152410781Y-133005466D01*
X152410774Y-133005460D01*
X152213126Y-132853800D01*
X151997376Y-132729237D01*
X151997361Y-132729230D01*
X151767207Y-132633898D01*
X151613182Y-132592627D01*
X151526565Y-132569418D01*
X151526564Y-132569417D01*
X151526561Y-132569417D01*
X151279575Y-132536901D01*
X151279570Y-132536900D01*
X151279565Y-132536900D01*
X151030435Y-132536900D01*
X151030429Y-132536900D01*
X151030424Y-132536901D01*
X150783438Y-132569417D01*
X150542792Y-132633898D01*
X150312638Y-132729230D01*
X150312623Y-132729237D01*
X150096873Y-132853800D01*
X149899225Y-133005460D01*
X149899218Y-133005466D01*
X149723066Y-133181618D01*
X149723060Y-133181625D01*
X149571400Y-133379273D01*
X149446837Y-133595023D01*
X149446830Y-133595038D01*
X149351498Y-133825192D01*
X149287017Y-134065838D01*
X149254501Y-134312824D01*
X149254500Y-134312841D01*
X131516943Y-134312841D01*
X131612287Y-134181610D01*
X131705220Y-133999219D01*
X131768477Y-133804534D01*
X131800500Y-133602352D01*
X131800500Y-133397648D01*
X131786574Y-133309721D01*
X131768477Y-133195465D01*
X131705218Y-133000776D01*
X131671503Y-132934607D01*
X131612287Y-132818390D01*
X131604556Y-132807749D01*
X131491971Y-132652786D01*
X131347213Y-132508028D01*
X131181613Y-132387715D01*
X131181612Y-132387714D01*
X131181610Y-132387713D01*
X131093487Y-132342812D01*
X130999223Y-132294781D01*
X130804534Y-132231522D01*
X130629995Y-132203878D01*
X130602352Y-132199500D01*
X130397648Y-132199500D01*
X130373329Y-132203351D01*
X130195465Y-132231522D01*
X130000776Y-132294781D01*
X129818386Y-132387715D01*
X129652786Y-132508028D01*
X129652782Y-132508032D01*
X129504589Y-132656226D01*
X129503270Y-132654907D01*
X129451401Y-132688737D01*
X129381533Y-132689208D01*
X129322502Y-132651830D01*
X129294988Y-132598508D01*
X129293597Y-132592621D01*
X129243354Y-132457913D01*
X129243350Y-132457906D01*
X129157190Y-132342812D01*
X129157187Y-132342809D01*
X129042093Y-132256649D01*
X129042086Y-132256645D01*
X128907379Y-132206403D01*
X128907372Y-132206401D01*
X128847844Y-132200000D01*
X128250000Y-132200000D01*
X128250000Y-133184314D01*
X128245606Y-133179920D01*
X128154394Y-133127259D01*
X128052661Y-133100000D01*
X127947339Y-133100000D01*
X127845606Y-133127259D01*
X127754394Y-133179920D01*
X127750000Y-133184314D01*
X127750000Y-132200000D01*
X127152155Y-132200000D01*
X127092627Y-132206401D01*
X127092620Y-132206403D01*
X126957913Y-132256645D01*
X126957906Y-132256649D01*
X126842812Y-132342809D01*
X126842809Y-132342812D01*
X126756649Y-132457906D01*
X126756645Y-132457913D01*
X126706403Y-132592620D01*
X126706401Y-132592627D01*
X126700000Y-132652155D01*
X120826401Y-132652155D01*
X117986426Y-129812180D01*
X117952941Y-129750857D01*
X117957925Y-129681165D01*
X117999797Y-129625232D01*
X118065261Y-129600815D01*
X118074107Y-129600499D01*
X119067871Y-129600499D01*
X119067872Y-129600499D01*
X119127483Y-129594091D01*
X119262331Y-129543796D01*
X119377546Y-129457546D01*
X119463796Y-129342331D01*
X119472047Y-129320207D01*
X119513917Y-129264273D01*
X119579380Y-129239854D01*
X119647654Y-129254704D01*
X119675911Y-129275857D01*
X122016425Y-131616372D01*
X122016426Y-131616373D01*
X122016429Y-131616375D01*
X122016431Y-131616377D01*
X122122973Y-131687565D01*
X122241356Y-131736601D01*
X122241360Y-131736601D01*
X122241361Y-131736602D01*
X122367028Y-131761600D01*
X122367031Y-131761600D01*
X140952971Y-131761600D01*
X141037515Y-131744782D01*
X141078644Y-131736601D01*
X141197027Y-131687565D01*
X141303569Y-131616377D01*
X141612809Y-131307135D01*
X141674131Y-131273652D01*
X141719887Y-131272345D01*
X141897648Y-131300500D01*
X141897649Y-131300500D01*
X142102351Y-131300500D01*
X142102352Y-131300500D01*
X142304534Y-131268477D01*
X142499219Y-131205220D01*
X142681610Y-131112287D01*
X142774590Y-131044732D01*
X142847213Y-130991971D01*
X142847215Y-130991968D01*
X142847219Y-130991966D01*
X142991966Y-130847219D01*
X142991968Y-130847215D01*
X142991971Y-130847213D01*
X143044732Y-130774590D01*
X143112287Y-130681610D01*
X143205220Y-130499219D01*
X143268477Y-130304534D01*
X143300500Y-130102352D01*
X143300500Y-129897648D01*
X143286963Y-129812180D01*
X143268477Y-129695465D01*
X143231073Y-129580348D01*
X143205220Y-129500781D01*
X143205218Y-129500778D01*
X143205218Y-129500776D01*
X143171503Y-129434607D01*
X143112287Y-129318390D01*
X143104556Y-129307749D01*
X142991971Y-129152786D01*
X142847213Y-129008028D01*
X142681613Y-128887715D01*
X142681612Y-128887714D01*
X142681610Y-128887713D01*
X142593487Y-128842812D01*
X142499223Y-128794781D01*
X142304534Y-128731522D01*
X142129995Y-128703878D01*
X142102352Y-128699500D01*
X141897648Y-128699500D01*
X141873329Y-128703351D01*
X141695465Y-128731522D01*
X141500776Y-128794781D01*
X141318386Y-128887715D01*
X141152786Y-129008028D01*
X141152782Y-129008032D01*
X141004589Y-129156226D01*
X141003270Y-129154907D01*
X140951401Y-129188737D01*
X140881533Y-129189208D01*
X140822502Y-129151830D01*
X140794988Y-129098508D01*
X140793597Y-129092621D01*
X140743354Y-128957913D01*
X140743350Y-128957906D01*
X140657190Y-128842812D01*
X140657187Y-128842809D01*
X140542093Y-128756649D01*
X140542086Y-128756645D01*
X140407379Y-128706403D01*
X140407372Y-128706401D01*
X140347844Y-128700000D01*
X139750000Y-128700000D01*
X139750000Y-129684314D01*
X139745606Y-129679920D01*
X139654394Y-129627259D01*
X139552661Y-129600000D01*
X139447339Y-129600000D01*
X139345606Y-129627259D01*
X139254394Y-129679920D01*
X139250000Y-129684314D01*
X139250000Y-128700000D01*
X138652155Y-128700000D01*
X138592627Y-128706401D01*
X138592620Y-128706403D01*
X138457913Y-128756645D01*
X138457906Y-128756649D01*
X138342812Y-128842809D01*
X138342809Y-128842812D01*
X138256649Y-128957906D01*
X138256645Y-128957913D01*
X138206403Y-129092620D01*
X138206401Y-129092627D01*
X138200000Y-129152155D01*
X138200000Y-129750000D01*
X139184314Y-129750000D01*
X139179920Y-129754394D01*
X139127259Y-129845606D01*
X139100000Y-129947339D01*
X139100000Y-130052661D01*
X139127259Y-130154394D01*
X139179920Y-130245606D01*
X139184314Y-130250000D01*
X138200000Y-130250000D01*
X138200000Y-130336600D01*
X138180315Y-130403639D01*
X138127511Y-130449394D01*
X138076000Y-130460600D01*
X122751908Y-130460600D01*
X122684869Y-130440915D01*
X122664227Y-130424281D01*
X120540565Y-128300618D01*
X119989947Y-127750000D01*
X126499652Y-127750000D01*
X127589252Y-127750000D01*
X127567482Y-127787708D01*
X127530000Y-127927591D01*
X127530000Y-128072409D01*
X127567482Y-128212292D01*
X127589252Y-128250000D01*
X126499652Y-128250000D01*
X126519397Y-128374668D01*
X126519397Y-128374671D01*
X126597219Y-128614184D01*
X126711557Y-128838583D01*
X126859590Y-129042331D01*
X126859590Y-129042332D01*
X127037667Y-129220409D01*
X127241416Y-129368442D01*
X127465815Y-129482780D01*
X127705329Y-129560602D01*
X127830000Y-129580348D01*
X127830000Y-128490747D01*
X127867708Y-128512518D01*
X128007591Y-128550000D01*
X128152409Y-128550000D01*
X128292292Y-128512518D01*
X128330000Y-128490747D01*
X128330000Y-129580347D01*
X128454668Y-129560602D01*
X128454671Y-129560602D01*
X128694184Y-129482780D01*
X128918583Y-129368442D01*
X129122331Y-129220409D01*
X129122332Y-129220409D01*
X129281572Y-129061170D01*
X129300409Y-129042332D01*
X129300409Y-129042331D01*
X129448442Y-128838583D01*
X129562780Y-128614184D01*
X129640602Y-128374671D01*
X129640602Y-128374668D01*
X129660348Y-128250000D01*
X128570748Y-128250000D01*
X128592518Y-128212292D01*
X128630000Y-128072409D01*
X128630000Y-127927591D01*
X128592518Y-127787708D01*
X128570748Y-127750000D01*
X129660348Y-127750000D01*
X129640602Y-127625331D01*
X129640602Y-127625328D01*
X129562780Y-127385815D01*
X129448442Y-127161416D01*
X129300409Y-126957668D01*
X129300409Y-126957667D01*
X129122332Y-126779590D01*
X128918583Y-126631557D01*
X128694184Y-126517219D01*
X128454670Y-126439397D01*
X128330000Y-126419650D01*
X128330000Y-127509252D01*
X128292292Y-127487482D01*
X128152409Y-127450000D01*
X128007591Y-127450000D01*
X127867708Y-127487482D01*
X127830000Y-127509252D01*
X127830000Y-126419650D01*
X127705330Y-126439397D01*
X127705327Y-126439397D01*
X127465815Y-126517219D01*
X127241416Y-126631557D01*
X127037668Y-126779590D01*
X127037667Y-126779590D01*
X126859590Y-126957667D01*
X126859590Y-126957668D01*
X126711557Y-127161416D01*
X126597219Y-127385815D01*
X126519397Y-127625328D01*
X126519397Y-127625331D01*
X126499652Y-127750000D01*
X119989947Y-127750000D01*
X119734673Y-127494726D01*
X119734669Y-127494723D01*
X119628127Y-127423535D01*
X119628125Y-127423534D01*
X119628122Y-127423532D01*
X119597045Y-127410659D01*
X119542642Y-127366818D01*
X119520578Y-127300523D01*
X119520499Y-127296099D01*
X119520499Y-126852129D01*
X119520498Y-126852123D01*
X119520497Y-126852116D01*
X119514091Y-126792517D01*
X119463796Y-126657669D01*
X119463795Y-126657668D01*
X119463793Y-126657664D01*
X119377547Y-126542455D01*
X119377544Y-126542452D01*
X119262335Y-126456206D01*
X119262328Y-126456202D01*
X119127482Y-126405908D01*
X119127483Y-126405908D01*
X119067883Y-126399501D01*
X119067881Y-126399500D01*
X119067873Y-126399500D01*
X119067864Y-126399500D01*
X116772129Y-126399500D01*
X116772123Y-126399501D01*
X116712516Y-126405908D01*
X116577671Y-126456202D01*
X116577664Y-126456206D01*
X116462455Y-126542452D01*
X116462452Y-126542455D01*
X116376206Y-126657664D01*
X116376202Y-126657671D01*
X116325908Y-126792517D01*
X116324092Y-126809413D01*
X116319501Y-126852123D01*
X116319500Y-126852135D01*
X116319500Y-127083954D01*
X116299815Y-127150993D01*
X116247011Y-127196748D01*
X116177853Y-127206692D01*
X116137052Y-127193315D01*
X116133479Y-127191405D01*
X115987801Y-127131064D01*
X115987789Y-127131061D01*
X115833145Y-127100300D01*
X115833142Y-127100300D01*
X115675458Y-127100300D01*
X115675455Y-127100300D01*
X115520810Y-127131061D01*
X115520798Y-127131064D01*
X115375127Y-127191402D01*
X115375114Y-127191409D01*
X115244011Y-127279010D01*
X115244007Y-127279013D01*
X115132513Y-127390507D01*
X115132510Y-127390511D01*
X115044909Y-127521614D01*
X115044902Y-127521627D01*
X114984564Y-127667298D01*
X114984561Y-127667310D01*
X114953800Y-127821953D01*
X106347992Y-127821953D01*
X112372497Y-121797448D01*
X112433816Y-121763966D01*
X112503508Y-121768950D01*
X112559440Y-121810821D01*
X112642809Y-121922187D01*
X112642812Y-121922190D01*
X112757906Y-122008350D01*
X112757913Y-122008354D01*
X112892620Y-122058596D01*
X112892627Y-122058598D01*
X112952155Y-122064999D01*
X112952172Y-122065000D01*
X113500000Y-122065000D01*
X113500000Y-121320330D01*
X113519745Y-121340075D01*
X113605255Y-121389444D01*
X113700630Y-121415000D01*
X113799370Y-121415000D01*
X113894745Y-121389444D01*
X113980255Y-121340075D01*
X114000000Y-121320330D01*
X114000000Y-122065000D01*
X114547828Y-122065000D01*
X114547844Y-122064999D01*
X114607372Y-122058598D01*
X114607379Y-122058596D01*
X114742086Y-122008354D01*
X114742093Y-122008350D01*
X114857187Y-121922190D01*
X114857190Y-121922187D01*
X114943350Y-121807093D01*
X114943354Y-121807086D01*
X114993596Y-121672379D01*
X114993598Y-121672372D01*
X114999999Y-121612844D01*
X115000000Y-121612827D01*
X115000000Y-121290000D01*
X114030330Y-121290000D01*
X114050075Y-121270255D01*
X114099444Y-121184745D01*
X114125000Y-121089370D01*
X114125000Y-120990630D01*
X114099444Y-120895255D01*
X114050075Y-120809745D01*
X114035830Y-120795500D01*
X114076003Y-120795500D01*
X114102259Y-120790277D01*
X114113047Y-120790032D01*
X114113715Y-120790211D01*
X114115866Y-120790000D01*
X115000000Y-120790000D01*
X115000000Y-120544500D01*
X115019685Y-120477461D01*
X115072489Y-120431706D01*
X115124000Y-120420500D01*
X115134071Y-120420500D01*
X115218615Y-120403682D01*
X115259744Y-120395501D01*
X115378127Y-120346465D01*
X115383271Y-120343027D01*
X115393627Y-120336109D01*
X115476771Y-120280554D01*
X115484669Y-120275277D01*
X118652699Y-117107245D01*
X118714022Y-117073761D01*
X118783714Y-117078745D01*
X118828061Y-117107246D01*
X118902786Y-117181971D01*
X119057749Y-117294556D01*
X119068390Y-117302287D01*
X119161051Y-117349500D01*
X119250776Y-117395218D01*
X119250778Y-117395218D01*
X119250781Y-117395220D01*
X119355137Y-117429127D01*
X119445465Y-117458477D01*
X119546557Y-117474488D01*
X119647648Y-117490500D01*
X119647649Y-117490500D01*
X119852351Y-117490500D01*
X119852352Y-117490500D01*
X120054534Y-117458477D01*
X120249219Y-117395220D01*
X120431610Y-117302287D01*
X120555860Y-117212015D01*
X120597213Y-117181971D01*
X120597215Y-117181968D01*
X120597219Y-117181966D01*
X120741966Y-117037219D01*
X120741968Y-117037215D01*
X120741971Y-117037213D01*
X120816463Y-116934682D01*
X120862287Y-116871610D01*
X120955220Y-116689219D01*
X121018477Y-116494534D01*
X121050500Y-116292352D01*
X121050500Y-116087648D01*
X121029992Y-115958169D01*
X121018477Y-115885465D01*
X120955218Y-115690776D01*
X120915861Y-115613534D01*
X120862287Y-115508390D01*
X120811336Y-115438261D01*
X120741971Y-115342786D01*
X120597213Y-115198028D01*
X120431613Y-115077715D01*
X120431612Y-115077714D01*
X120431610Y-115077713D01*
X120374653Y-115048691D01*
X120249223Y-114984781D01*
X120054534Y-114921522D01*
X119874355Y-114892985D01*
X119852352Y-114889500D01*
X119647648Y-114889500D01*
X119625645Y-114892985D01*
X119445465Y-114921522D01*
X119250776Y-114984781D01*
X119068386Y-115077715D01*
X118902786Y-115198028D01*
X118758028Y-115342786D01*
X118648566Y-115493451D01*
X118629280Y-115508322D01*
X118612921Y-115526365D01*
X118598653Y-115531939D01*
X118593237Y-115536117D01*
X118580494Y-115540300D01*
X118576494Y-115541377D01*
X118460256Y-115564499D01*
X118411221Y-115584810D01*
X118403785Y-115587889D01*
X118403781Y-115587891D01*
X118341881Y-115613530D01*
X118341863Y-115613540D01*
X118235332Y-115684721D01*
X118235325Y-115684727D01*
X115210448Y-118709604D01*
X115149125Y-118743089D01*
X115079433Y-118738105D01*
X115023500Y-118696233D01*
X114999083Y-118630769D01*
X115000566Y-118607131D01*
X114999903Y-118607066D01*
X115000500Y-118601004D01*
X115000500Y-118398996D01*
X115000499Y-118398992D01*
X114982848Y-118310255D01*
X114961091Y-118200873D01*
X114883786Y-118014244D01*
X114883784Y-118014241D01*
X114883782Y-118014237D01*
X114771558Y-117846281D01*
X114628718Y-117703441D01*
X114460762Y-117591217D01*
X114460752Y-117591212D01*
X114274127Y-117513909D01*
X114274119Y-117513907D01*
X114076007Y-117474500D01*
X114076003Y-117474500D01*
X113423997Y-117474500D01*
X113423992Y-117474500D01*
X113225880Y-117513907D01*
X113225872Y-117513909D01*
X113039247Y-117591212D01*
X113039237Y-117591217D01*
X112871281Y-117703441D01*
X112871278Y-117703444D01*
X112761542Y-117813181D01*
X112700219Y-117846666D01*
X112673861Y-117849500D01*
X112635929Y-117849500D01*
X112510261Y-117874497D01*
X112510255Y-117874499D01*
X112391875Y-117923533D01*
X112391866Y-117923538D01*
X112285331Y-117994723D01*
X112285327Y-117994726D01*
X112194726Y-118085327D01*
X112194723Y-118085331D01*
X112123538Y-118191866D01*
X112123533Y-118191875D01*
X112074499Y-118310255D01*
X112074497Y-118310261D01*
X112049500Y-118435928D01*
X112049500Y-120229192D01*
X112029815Y-120296231D01*
X112013181Y-120316873D01*
X105016873Y-127313181D01*
X104955550Y-127346666D01*
X104929192Y-127349500D01*
X102799984Y-127349500D01*
X102697204Y-127360000D01*
X102697203Y-127360001D01*
X102530664Y-127415186D01*
X102530662Y-127415187D01*
X102381348Y-127507286D01*
X102381344Y-127507289D01*
X102257289Y-127631344D01*
X102257286Y-127631348D01*
X102165187Y-127780662D01*
X102165186Y-127780664D01*
X102110001Y-127947203D01*
X102110000Y-127947204D01*
X102099500Y-128049984D01*
X97250500Y-128049984D01*
X97250500Y-124125441D01*
X102099500Y-124125441D01*
X102099500Y-124374558D01*
X102099501Y-124374575D01*
X102114909Y-124491613D01*
X102132018Y-124621565D01*
X102180356Y-124801966D01*
X102196498Y-124862207D01*
X102291830Y-125092361D01*
X102291837Y-125092376D01*
X102416400Y-125308126D01*
X102568060Y-125505774D01*
X102568066Y-125505781D01*
X102744218Y-125681933D01*
X102744225Y-125681939D01*
X102941873Y-125833599D01*
X103157623Y-125958162D01*
X103157638Y-125958169D01*
X103256825Y-125999253D01*
X103387793Y-126053502D01*
X103628435Y-126117982D01*
X103875435Y-126150500D01*
X103875442Y-126150500D01*
X104124558Y-126150500D01*
X104124565Y-126150500D01*
X104371565Y-126117982D01*
X104612207Y-126053502D01*
X104842373Y-125958164D01*
X105058127Y-125833599D01*
X105255776Y-125681938D01*
X105431938Y-125505776D01*
X105583599Y-125308127D01*
X105708164Y-125092373D01*
X105803502Y-124862207D01*
X105867982Y-124621565D01*
X105900500Y-124374565D01*
X105900500Y-124125435D01*
X105867982Y-123878435D01*
X105803502Y-123637793D01*
X105724906Y-123448045D01*
X105708169Y-123407638D01*
X105708162Y-123407623D01*
X105583599Y-123191873D01*
X105431939Y-122994225D01*
X105431933Y-122994218D01*
X105255781Y-122818066D01*
X105255774Y-122818060D01*
X105058126Y-122666400D01*
X104842376Y-122541837D01*
X104842361Y-122541830D01*
X104612207Y-122446498D01*
X104371561Y-122382017D01*
X104124575Y-122349501D01*
X104124570Y-122349500D01*
X104124565Y-122349500D01*
X103875435Y-122349500D01*
X103875429Y-122349500D01*
X103875424Y-122349501D01*
X103628438Y-122382017D01*
X103387792Y-122446498D01*
X103157638Y-122541830D01*
X103157623Y-122541837D01*
X102941873Y-122666400D01*
X102744225Y-122818060D01*
X102744218Y-122818066D01*
X102568066Y-122994218D01*
X102568060Y-122994225D01*
X102416400Y-123191873D01*
X102291837Y-123407623D01*
X102291830Y-123407638D01*
X102196498Y-123637792D01*
X102132017Y-123878438D01*
X102099501Y-124125424D01*
X102099500Y-124125441D01*
X97250500Y-124125441D01*
X97250500Y-114125441D01*
X102099500Y-114125441D01*
X102099500Y-114374558D01*
X102099501Y-114374575D01*
X102130869Y-114612844D01*
X102132018Y-114621565D01*
X102173718Y-114777190D01*
X102196498Y-114862207D01*
X102291830Y-115092361D01*
X102291837Y-115092376D01*
X102416400Y-115308126D01*
X102568060Y-115505774D01*
X102568066Y-115505781D01*
X102744218Y-115681933D01*
X102744225Y-115681939D01*
X102941873Y-115833599D01*
X103157623Y-115958162D01*
X103157638Y-115958169D01*
X103194557Y-115973461D01*
X103387793Y-116053502D01*
X103628435Y-116117982D01*
X103875435Y-116150500D01*
X103875442Y-116150500D01*
X104124558Y-116150500D01*
X104124565Y-116150500D01*
X104371565Y-116117982D01*
X104612207Y-116053502D01*
X104842373Y-115958164D01*
X105058127Y-115833599D01*
X105255776Y-115681938D01*
X105431938Y-115505776D01*
X105583599Y-115308127D01*
X105708164Y-115092373D01*
X105803502Y-114862207D01*
X105867982Y-114621565D01*
X105900500Y-114374565D01*
X105900500Y-114125435D01*
X105867982Y-113878435D01*
X105803502Y-113637793D01*
X105749253Y-113506825D01*
X105708169Y-113407638D01*
X105708162Y-113407623D01*
X105583599Y-113191873D01*
X105431939Y-112994225D01*
X105431933Y-112994218D01*
X105255781Y-112818066D01*
X105255774Y-112818060D01*
X105058126Y-112666400D01*
X104842376Y-112541837D01*
X104842361Y-112541830D01*
X104612207Y-112446498D01*
X104371561Y-112382017D01*
X104124575Y-112349501D01*
X104124570Y-112349500D01*
X104124565Y-112349500D01*
X103875435Y-112349500D01*
X103875429Y-112349500D01*
X103875424Y-112349501D01*
X103628438Y-112382017D01*
X103387792Y-112446498D01*
X103157638Y-112541830D01*
X103157623Y-112541837D01*
X102941873Y-112666400D01*
X102744225Y-112818060D01*
X102744218Y-112818066D01*
X102568066Y-112994218D01*
X102568060Y-112994225D01*
X102416400Y-113191873D01*
X102291837Y-113407623D01*
X102291830Y-113407638D01*
X102196498Y-113637792D01*
X102132017Y-113878438D01*
X102099501Y-114125424D01*
X102099500Y-114125441D01*
X97250500Y-114125441D01*
X97250500Y-109125441D01*
X102099500Y-109125441D01*
X102099500Y-109374558D01*
X102099501Y-109374575D01*
X102132017Y-109621561D01*
X102196498Y-109862207D01*
X102291830Y-110092361D01*
X102291837Y-110092376D01*
X102416400Y-110308126D01*
X102568060Y-110505774D01*
X102568066Y-110505781D01*
X102744218Y-110681933D01*
X102744225Y-110681939D01*
X102941873Y-110833599D01*
X103157623Y-110958162D01*
X103157638Y-110958169D01*
X103245888Y-110994723D01*
X103387793Y-111053502D01*
X103628435Y-111117982D01*
X103875435Y-111150500D01*
X103875442Y-111150500D01*
X104124558Y-111150500D01*
X104124565Y-111150500D01*
X104371565Y-111117982D01*
X104612207Y-111053502D01*
X104842373Y-110958164D01*
X105058127Y-110833599D01*
X105255776Y-110681938D01*
X105431938Y-110505776D01*
X105583599Y-110308127D01*
X105708164Y-110092373D01*
X105803502Y-109862207D01*
X105867982Y-109621565D01*
X105900500Y-109374565D01*
X105900500Y-109125435D01*
X105867982Y-108878435D01*
X105803502Y-108637793D01*
X105755730Y-108522463D01*
X105748262Y-108452998D01*
X105779536Y-108390519D01*
X105782582Y-108387362D01*
X109983127Y-104186819D01*
X110044450Y-104153334D01*
X110070808Y-104150500D01*
X111986033Y-104150500D01*
X112053072Y-104170185D01*
X112098827Y-104222989D01*
X112108771Y-104292147D01*
X112100594Y-104321953D01*
X112038909Y-104470872D01*
X112038907Y-104470880D01*
X111999500Y-104668992D01*
X111999500Y-104871007D01*
X112038907Y-105069119D01*
X112038910Y-105069131D01*
X112072547Y-105150338D01*
X112080016Y-105219807D01*
X112060405Y-105264864D01*
X112060895Y-105265132D01*
X112057910Y-105270596D01*
X112057260Y-105272092D01*
X112056646Y-105272911D01*
X112056645Y-105272913D01*
X112006403Y-105407620D01*
X112006401Y-105407627D01*
X112000000Y-105467155D01*
X112000000Y-105790000D01*
X112884134Y-105790000D01*
X112908326Y-105792383D01*
X112911123Y-105792939D01*
X112923995Y-105795499D01*
X112923996Y-105795500D01*
X112923997Y-105795500D01*
X112964170Y-105795500D01*
X112949925Y-105809745D01*
X112900556Y-105895255D01*
X112875000Y-105990630D01*
X112875000Y-106089370D01*
X112900556Y-106184745D01*
X112949925Y-106270255D01*
X112969670Y-106290000D01*
X112000000Y-106290000D01*
X112000000Y-106612844D01*
X112006401Y-106672372D01*
X112006403Y-106672379D01*
X112056645Y-106807086D01*
X112056649Y-106807093D01*
X112142809Y-106922187D01*
X112142812Y-106922190D01*
X112257906Y-107008350D01*
X112257913Y-107008354D01*
X112392620Y-107058596D01*
X112392627Y-107058598D01*
X112452155Y-107064999D01*
X112452172Y-107065000D01*
X113000000Y-107065000D01*
X113000000Y-106320330D01*
X113019745Y-106340075D01*
X113105255Y-106389444D01*
X113200630Y-106415000D01*
X113299370Y-106415000D01*
X113394745Y-106389444D01*
X113480255Y-106340075D01*
X113500000Y-106320330D01*
X113500000Y-107065000D01*
X114047828Y-107065000D01*
X114047844Y-107064999D01*
X114107372Y-107058598D01*
X114107379Y-107058596D01*
X114242086Y-107008354D01*
X114242093Y-107008350D01*
X114357187Y-106922190D01*
X114357190Y-106922187D01*
X114443350Y-106807093D01*
X114443354Y-106807086D01*
X114493596Y-106672379D01*
X114493598Y-106672372D01*
X114499999Y-106612844D01*
X114500000Y-106612827D01*
X114500000Y-106290000D01*
X113530330Y-106290000D01*
X113550075Y-106270255D01*
X113599444Y-106184745D01*
X113625000Y-106089370D01*
X113625000Y-105990630D01*
X113599444Y-105895255D01*
X113550075Y-105809745D01*
X113535830Y-105795500D01*
X113576004Y-105795500D01*
X113576004Y-105795499D01*
X113589473Y-105792820D01*
X113591674Y-105792383D01*
X113615866Y-105790000D01*
X114500000Y-105790000D01*
X114500000Y-105474107D01*
X114519685Y-105407068D01*
X114572489Y-105361313D01*
X114576547Y-105359546D01*
X114585372Y-105355890D01*
X114608127Y-105346465D01*
X114714669Y-105275276D01*
X114805276Y-105184669D01*
X114876465Y-105078127D01*
X114925501Y-104959744D01*
X114933682Y-104918615D01*
X114950500Y-104834071D01*
X114950500Y-104360806D01*
X114970185Y-104293767D01*
X114986814Y-104273130D01*
X118152700Y-101107243D01*
X118214021Y-101073760D01*
X118283713Y-101078744D01*
X118328060Y-101107245D01*
X118402786Y-101181971D01*
X118554954Y-101292525D01*
X118568390Y-101302287D01*
X118684607Y-101361503D01*
X118750776Y-101395218D01*
X118750778Y-101395218D01*
X118750781Y-101395220D01*
X118841468Y-101424686D01*
X118945465Y-101458477D01*
X119004991Y-101467905D01*
X119147648Y-101490500D01*
X119147649Y-101490500D01*
X119352351Y-101490500D01*
X119352352Y-101490500D01*
X119554534Y-101458477D01*
X119749219Y-101395220D01*
X119931610Y-101302287D01*
X120024590Y-101234732D01*
X120097213Y-101181971D01*
X120097215Y-101181968D01*
X120097219Y-101181966D01*
X120241966Y-101037219D01*
X120241968Y-101037215D01*
X120241971Y-101037213D01*
X120306239Y-100948754D01*
X120362287Y-100871610D01*
X120455220Y-100689219D01*
X120518477Y-100494534D01*
X120550500Y-100292352D01*
X120550500Y-100087648D01*
X120536278Y-99997854D01*
X120518477Y-99885465D01*
X120472179Y-99742976D01*
X120455220Y-99690781D01*
X120455218Y-99690778D01*
X120455218Y-99690776D01*
X120411518Y-99605011D01*
X120362287Y-99508390D01*
X120335162Y-99471055D01*
X120241971Y-99342786D01*
X120097213Y-99198028D01*
X119931613Y-99077715D01*
X119931612Y-99077714D01*
X119931610Y-99077713D01*
X119837560Y-99029792D01*
X119749223Y-98984781D01*
X119554534Y-98921522D01*
X119379995Y-98893878D01*
X119352352Y-98889500D01*
X119147648Y-98889500D01*
X119123329Y-98893351D01*
X118945465Y-98921522D01*
X118750776Y-98984781D01*
X118568386Y-99077715D01*
X118402786Y-99198028D01*
X118258028Y-99342786D01*
X118148566Y-99493451D01*
X118126121Y-99510758D01*
X118105724Y-99530441D01*
X118096274Y-99533774D01*
X118093237Y-99536117D01*
X118072441Y-99542183D01*
X118005780Y-99555443D01*
X117972819Y-99562000D01*
X117963374Y-99563878D01*
X117960255Y-99564499D01*
X117841875Y-99613533D01*
X117841866Y-99613538D01*
X117735331Y-99684723D01*
X117735327Y-99684726D01*
X114499447Y-102920605D01*
X114438124Y-102954090D01*
X114368432Y-102949106D01*
X114312499Y-102907234D01*
X114308664Y-102901814D01*
X114271561Y-102846286D01*
X114271555Y-102846278D01*
X114128718Y-102703441D01*
X113960762Y-102591217D01*
X113960752Y-102591212D01*
X113774127Y-102513909D01*
X113774119Y-102513907D01*
X113576007Y-102474500D01*
X113576003Y-102474500D01*
X112923997Y-102474500D01*
X112923992Y-102474500D01*
X112725880Y-102513907D01*
X112725872Y-102513909D01*
X112539247Y-102591212D01*
X112539237Y-102591217D01*
X112371281Y-102703441D01*
X112371278Y-102703444D01*
X112261542Y-102813181D01*
X112200219Y-102846666D01*
X112173861Y-102849500D01*
X109685929Y-102849500D01*
X109570456Y-102872470D01*
X109570431Y-102872475D01*
X109560256Y-102874499D01*
X109560255Y-102874499D01*
X109441874Y-102923534D01*
X109335326Y-102994726D01*
X104862665Y-107467387D01*
X104801342Y-107500872D01*
X104731650Y-107495888D01*
X104727532Y-107494267D01*
X104612207Y-107446498D01*
X104371561Y-107382017D01*
X104124575Y-107349501D01*
X104124570Y-107349500D01*
X104124565Y-107349500D01*
X103875435Y-107349500D01*
X103875429Y-107349500D01*
X103875424Y-107349501D01*
X103628438Y-107382017D01*
X103387792Y-107446498D01*
X103157638Y-107541830D01*
X103157623Y-107541837D01*
X102941873Y-107666400D01*
X102744225Y-107818060D01*
X102744218Y-107818066D01*
X102568066Y-107994218D01*
X102568060Y-107994225D01*
X102416400Y-108191873D01*
X102291837Y-108407623D01*
X102291830Y-108407638D01*
X102196498Y-108637792D01*
X102132017Y-108878438D01*
X102099501Y-109125424D01*
X102099500Y-109125441D01*
X97250500Y-109125441D01*
X97250500Y-104125441D01*
X102099500Y-104125441D01*
X102099500Y-104374558D01*
X102099501Y-104374575D01*
X102132017Y-104621561D01*
X102196498Y-104862207D01*
X102291830Y-105092361D01*
X102291837Y-105092376D01*
X102416400Y-105308126D01*
X102568060Y-105505774D01*
X102568066Y-105505781D01*
X102744218Y-105681933D01*
X102744225Y-105681939D01*
X102941873Y-105833599D01*
X103157623Y-105958162D01*
X103157638Y-105958169D01*
X103256825Y-105999253D01*
X103387793Y-106053502D01*
X103628435Y-106117982D01*
X103875435Y-106150500D01*
X103875442Y-106150500D01*
X104124558Y-106150500D01*
X104124565Y-106150500D01*
X104371565Y-106117982D01*
X104612207Y-106053502D01*
X104842373Y-105958164D01*
X105058127Y-105833599D01*
X105255776Y-105681938D01*
X105431938Y-105505776D01*
X105583599Y-105308127D01*
X105708164Y-105092373D01*
X105803502Y-104862207D01*
X105867982Y-104621565D01*
X105900500Y-104374565D01*
X105900500Y-104125435D01*
X105867982Y-103878435D01*
X105803502Y-103637793D01*
X105749253Y-103506825D01*
X105708169Y-103407638D01*
X105708162Y-103407623D01*
X105583599Y-103191873D01*
X105431939Y-102994225D01*
X105431933Y-102994218D01*
X105255781Y-102818066D01*
X105255774Y-102818060D01*
X105058126Y-102666400D01*
X104842376Y-102541837D01*
X104842361Y-102541830D01*
X104612207Y-102446498D01*
X104371561Y-102382017D01*
X104124575Y-102349501D01*
X104124570Y-102349500D01*
X104124565Y-102349500D01*
X103875435Y-102349500D01*
X103875429Y-102349500D01*
X103875424Y-102349501D01*
X103628438Y-102382017D01*
X103387792Y-102446498D01*
X103157638Y-102541830D01*
X103157623Y-102541837D01*
X102941873Y-102666400D01*
X102744225Y-102818060D01*
X102744218Y-102818066D01*
X102568066Y-102994218D01*
X102568060Y-102994225D01*
X102416400Y-103191873D01*
X102291837Y-103407623D01*
X102291830Y-103407638D01*
X102196498Y-103637792D01*
X102132017Y-103878438D01*
X102099501Y-104125424D01*
X102099500Y-104125441D01*
X97250500Y-104125441D01*
X97250500Y-77799984D01*
X101599500Y-77799984D01*
X101599500Y-80200015D01*
X101610000Y-80302795D01*
X101610001Y-80302796D01*
X101665186Y-80469335D01*
X101665187Y-80469337D01*
X101757286Y-80618651D01*
X101757289Y-80618655D01*
X101881344Y-80742710D01*
X101881348Y-80742713D01*
X102030662Y-80834812D01*
X102030664Y-80834813D01*
X102030666Y-80834814D01*
X102197203Y-80889999D01*
X102299992Y-80900500D01*
X104429192Y-80900500D01*
X104496231Y-80920185D01*
X104516873Y-80936819D01*
X106051872Y-82471819D01*
X106085357Y-82533142D01*
X106080373Y-82602834D01*
X106038501Y-82658767D01*
X105973037Y-82683184D01*
X105964191Y-82683500D01*
X104922576Y-82683500D01*
X104855537Y-82663815D01*
X104834899Y-82647185D01*
X104755776Y-82568062D01*
X104755775Y-82568061D01*
X104755773Y-82568059D01*
X104558126Y-82416400D01*
X104342376Y-82291837D01*
X104342361Y-82291830D01*
X104112207Y-82196498D01*
X103871561Y-82132017D01*
X103624575Y-82099501D01*
X103624570Y-82099500D01*
X103624565Y-82099500D01*
X103375435Y-82099500D01*
X103375429Y-82099500D01*
X103375424Y-82099501D01*
X103128438Y-82132017D01*
X102887792Y-82196498D01*
X102657638Y-82291830D01*
X102657623Y-82291837D01*
X102441873Y-82416400D01*
X102244225Y-82568060D01*
X102244218Y-82568066D01*
X102068066Y-82744218D01*
X102068060Y-82744225D01*
X101916400Y-82941873D01*
X101791837Y-83157623D01*
X101791830Y-83157638D01*
X101696498Y-83387792D01*
X101632017Y-83628438D01*
X101599501Y-83875424D01*
X101599500Y-83875441D01*
X101599500Y-84124558D01*
X101599501Y-84124575D01*
X101626014Y-84325966D01*
X101632018Y-84371565D01*
X101687045Y-84576928D01*
X101696498Y-84612207D01*
X101791830Y-84842361D01*
X101791837Y-84842376D01*
X101916400Y-85058126D01*
X102068060Y-85255774D01*
X102068066Y-85255781D01*
X102244218Y-85431933D01*
X102244225Y-85431939D01*
X102441873Y-85583599D01*
X102657623Y-85708162D01*
X102657638Y-85708169D01*
X102756825Y-85749253D01*
X102887793Y-85803502D01*
X103128435Y-85867982D01*
X103375435Y-85900500D01*
X103375442Y-85900500D01*
X103624558Y-85900500D01*
X103624565Y-85900500D01*
X103871565Y-85867982D01*
X104112207Y-85803502D01*
X104342373Y-85708164D01*
X104558127Y-85583599D01*
X104755776Y-85431938D01*
X104931938Y-85255776D01*
X105083599Y-85058127D01*
X105208164Y-84842373D01*
X105303502Y-84612207D01*
X105367982Y-84371565D01*
X105400500Y-84124565D01*
X105400500Y-84108500D01*
X105420185Y-84041461D01*
X105472989Y-83995706D01*
X105524500Y-83984500D01*
X109892129Y-83984500D01*
X109959168Y-84004185D01*
X109992445Y-84035613D01*
X110098234Y-84181219D01*
X110242981Y-84325966D01*
X110408590Y-84446287D01*
X110408594Y-84446289D01*
X110409516Y-84446854D01*
X110409792Y-84447159D01*
X110412532Y-84449150D01*
X110412113Y-84449725D01*
X110424566Y-84463489D01*
X110442749Y-84476636D01*
X110447555Y-84488899D01*
X110456392Y-84498666D01*
X110460060Y-84520800D01*
X110468247Y-84541687D01*
X110466430Y-84559239D01*
X110467815Y-84567596D01*
X110466314Y-84576928D01*
X110464984Y-84583565D01*
X110464699Y-84584256D01*
X110442378Y-84696466D01*
X110442353Y-84696593D01*
X110426013Y-84727732D01*
X110409998Y-84758350D01*
X110409906Y-84758429D01*
X110409889Y-84758463D01*
X110409828Y-84758497D01*
X110393651Y-84772565D01*
X110242987Y-84882028D01*
X110242982Y-84882032D01*
X110098228Y-85026786D01*
X109977915Y-85192386D01*
X109884981Y-85374776D01*
X109821722Y-85569465D01*
X109789700Y-85771648D01*
X109789700Y-85976351D01*
X109821722Y-86178534D01*
X109884981Y-86373223D01*
X109977915Y-86555613D01*
X110098228Y-86721213D01*
X110242986Y-86865971D01*
X110397949Y-86978556D01*
X110408590Y-86986287D01*
X110500040Y-87032883D01*
X110501280Y-87033515D01*
X110552076Y-87081490D01*
X110568871Y-87149311D01*
X110546334Y-87215446D01*
X110501280Y-87254485D01*
X110408586Y-87301715D01*
X110242986Y-87422028D01*
X110098228Y-87566786D01*
X109988766Y-87717451D01*
X109933437Y-87760117D01*
X109912640Y-87766183D01*
X109800461Y-87788497D01*
X109800455Y-87788499D01*
X109682075Y-87837533D01*
X109682066Y-87837538D01*
X109575531Y-87908723D01*
X109575527Y-87908726D01*
X109171073Y-88313181D01*
X109109750Y-88346666D01*
X109083392Y-88349500D01*
X105370494Y-88349500D01*
X105303455Y-88329815D01*
X105257700Y-88277011D01*
X105255933Y-88272952D01*
X105208169Y-88157638D01*
X105208162Y-88157623D01*
X105083599Y-87941873D01*
X104931939Y-87744225D01*
X104931933Y-87744218D01*
X104755781Y-87568066D01*
X104755774Y-87568060D01*
X104558126Y-87416400D01*
X104342376Y-87291837D01*
X104342361Y-87291830D01*
X104112207Y-87196498D01*
X103871561Y-87132017D01*
X103624575Y-87099501D01*
X103624570Y-87099500D01*
X103624565Y-87099500D01*
X103375435Y-87099500D01*
X103375429Y-87099500D01*
X103375424Y-87099501D01*
X103128438Y-87132017D01*
X102887792Y-87196498D01*
X102657638Y-87291830D01*
X102657623Y-87291837D01*
X102441873Y-87416400D01*
X102244225Y-87568060D01*
X102244218Y-87568066D01*
X102068066Y-87744218D01*
X102068060Y-87744225D01*
X101916400Y-87941873D01*
X101791837Y-88157623D01*
X101791830Y-88157638D01*
X101696498Y-88387792D01*
X101632017Y-88628438D01*
X101599501Y-88875424D01*
X101599500Y-88875441D01*
X101599500Y-89124558D01*
X101599501Y-89124575D01*
X101630125Y-89357191D01*
X101632018Y-89371565D01*
X101664722Y-89493616D01*
X101696498Y-89612207D01*
X101791830Y-89842361D01*
X101791837Y-89842376D01*
X101916400Y-90058126D01*
X102068060Y-90255774D01*
X102068066Y-90255781D01*
X102244218Y-90431933D01*
X102244225Y-90431939D01*
X102441873Y-90583599D01*
X102657623Y-90708162D01*
X102657638Y-90708169D01*
X102692698Y-90722691D01*
X102887793Y-90803502D01*
X103128435Y-90867982D01*
X103375435Y-90900500D01*
X103375442Y-90900500D01*
X103624558Y-90900500D01*
X103624565Y-90900500D01*
X103871565Y-90867982D01*
X104112207Y-90803502D01*
X104342373Y-90708164D01*
X104558127Y-90583599D01*
X104755776Y-90431938D01*
X104931938Y-90255776D01*
X105083599Y-90058127D01*
X105208164Y-89842373D01*
X105247953Y-89746313D01*
X105255933Y-89727048D01*
X105299773Y-89672644D01*
X105366067Y-89650579D01*
X105370494Y-89650500D01*
X109468271Y-89650500D01*
X109552815Y-89633682D01*
X109593944Y-89625501D01*
X109712327Y-89576465D01*
X109818869Y-89505277D01*
X109992900Y-89331244D01*
X110054221Y-89297761D01*
X110123913Y-89302745D01*
X110168261Y-89331246D01*
X110242986Y-89405971D01*
X110379668Y-89505274D01*
X110408590Y-89526287D01*
X110475568Y-89560414D01*
X110501280Y-89573515D01*
X110552076Y-89621490D01*
X110568871Y-89689311D01*
X110546334Y-89755446D01*
X110501280Y-89794485D01*
X110408586Y-89841715D01*
X110242986Y-89962028D01*
X110098228Y-90106786D01*
X109988766Y-90257451D01*
X109969480Y-90272322D01*
X109953121Y-90290365D01*
X109938853Y-90295939D01*
X109933437Y-90300117D01*
X109920694Y-90304300D01*
X109916694Y-90305377D01*
X109800456Y-90328499D01*
X109751421Y-90348810D01*
X109743985Y-90351889D01*
X109743981Y-90351891D01*
X109682081Y-90377530D01*
X109682063Y-90377540D01*
X109575532Y-90448721D01*
X109575525Y-90448727D01*
X106711073Y-93313181D01*
X106649750Y-93346666D01*
X106623392Y-93349500D01*
X105370494Y-93349500D01*
X105303455Y-93329815D01*
X105257700Y-93277011D01*
X105255933Y-93272952D01*
X105208169Y-93157638D01*
X105208162Y-93157623D01*
X105083599Y-92941873D01*
X104931939Y-92744225D01*
X104931933Y-92744218D01*
X104755781Y-92568066D01*
X104755774Y-92568060D01*
X104558126Y-92416400D01*
X104342376Y-92291837D01*
X104342361Y-92291830D01*
X104112207Y-92196498D01*
X103871561Y-92132017D01*
X103624575Y-92099501D01*
X103624570Y-92099500D01*
X103624565Y-92099500D01*
X103375435Y-92099500D01*
X103375429Y-92099500D01*
X103375424Y-92099501D01*
X103128438Y-92132017D01*
X102887792Y-92196498D01*
X102657638Y-92291830D01*
X102657623Y-92291837D01*
X102441873Y-92416400D01*
X102244225Y-92568060D01*
X102244218Y-92568066D01*
X102068066Y-92744218D01*
X102068060Y-92744225D01*
X101916400Y-92941873D01*
X101791837Y-93157623D01*
X101791830Y-93157638D01*
X101696498Y-93387792D01*
X101632017Y-93628438D01*
X101599501Y-93875424D01*
X101599500Y-93875441D01*
X101599500Y-94124558D01*
X101599501Y-94124575D01*
X101628022Y-94341219D01*
X101632018Y-94371565D01*
X101673134Y-94525011D01*
X101696498Y-94612207D01*
X101791830Y-94842361D01*
X101791837Y-94842376D01*
X101916400Y-95058126D01*
X102068060Y-95255774D01*
X102068066Y-95255781D01*
X102244218Y-95431933D01*
X102244225Y-95431939D01*
X102441873Y-95583599D01*
X102657623Y-95708162D01*
X102657638Y-95708169D01*
X102756825Y-95749253D01*
X102887793Y-95803502D01*
X103128435Y-95867982D01*
X103375435Y-95900500D01*
X103375442Y-95900500D01*
X103624558Y-95900500D01*
X103624565Y-95900500D01*
X103871565Y-95867982D01*
X104112207Y-95803502D01*
X104342373Y-95708164D01*
X104558127Y-95583599D01*
X104755776Y-95431938D01*
X104931938Y-95255776D01*
X105083599Y-95058127D01*
X105208164Y-94842373D01*
X105241258Y-94762477D01*
X105255933Y-94727048D01*
X105299773Y-94672644D01*
X105366067Y-94650579D01*
X105370494Y-94650500D01*
X107008271Y-94650500D01*
X107092815Y-94633682D01*
X107133944Y-94625501D01*
X107252327Y-94576465D01*
X107256591Y-94573616D01*
X107358869Y-94505277D01*
X109992899Y-91871245D01*
X110054222Y-91837761D01*
X110123914Y-91842745D01*
X110168261Y-91871246D01*
X110242986Y-91945971D01*
X110384316Y-92048651D01*
X110408590Y-92066287D01*
X110473774Y-92099500D01*
X110501829Y-92113795D01*
X110552625Y-92161770D01*
X110569420Y-92229591D01*
X110546882Y-92295726D01*
X110501829Y-92334765D01*
X110408850Y-92382140D01*
X110243305Y-92502417D01*
X110243304Y-92502417D01*
X110098617Y-92647104D01*
X110098617Y-92647105D01*
X109978340Y-92812650D01*
X109885444Y-92994970D01*
X109822209Y-93189586D01*
X109813591Y-93244000D01*
X110774514Y-93244000D01*
X110770120Y-93248394D01*
X110717459Y-93339606D01*
X110690200Y-93441339D01*
X110690200Y-93546661D01*
X110717459Y-93648394D01*
X110770120Y-93739606D01*
X110774514Y-93744000D01*
X109813591Y-93744000D01*
X109822209Y-93798413D01*
X109885444Y-93993029D01*
X109978340Y-94175349D01*
X110098617Y-94340894D01*
X110098617Y-94340895D01*
X110243304Y-94485582D01*
X110408852Y-94605861D01*
X110501828Y-94653234D01*
X110552625Y-94701208D01*
X110569420Y-94769029D01*
X110546883Y-94835164D01*
X110501830Y-94874203D01*
X110408588Y-94921713D01*
X110242986Y-95042028D01*
X110098228Y-95186786D01*
X109977915Y-95352386D01*
X109884981Y-95534776D01*
X109821722Y-95729465D01*
X109799973Y-95866785D01*
X109789700Y-95931648D01*
X109789700Y-96136352D01*
X109794078Y-96163995D01*
X109821722Y-96338534D01*
X109884981Y-96533223D01*
X109977915Y-96715613D01*
X110098228Y-96881213D01*
X110242986Y-97025971D01*
X110383372Y-97127965D01*
X110408590Y-97146287D01*
X110477835Y-97181569D01*
X110590976Y-97239218D01*
X110590978Y-97239218D01*
X110590981Y-97239220D01*
X110695337Y-97273127D01*
X110785665Y-97302477D01*
X110879821Y-97317390D01*
X110987848Y-97334500D01*
X110987849Y-97334500D01*
X111192551Y-97334500D01*
X111192552Y-97334500D01*
X111394734Y-97302477D01*
X111589419Y-97239220D01*
X111771810Y-97146287D01*
X111914669Y-97042495D01*
X111937413Y-97025971D01*
X111937415Y-97025968D01*
X111937419Y-97025966D01*
X112082166Y-96881219D01*
X112082168Y-96881215D01*
X112082171Y-96881213D01*
X112198014Y-96721766D01*
X112202487Y-96715610D01*
X112295420Y-96533219D01*
X112358677Y-96338534D01*
X112390700Y-96136352D01*
X112390700Y-95931648D01*
X112374243Y-95827746D01*
X112358677Y-95729465D01*
X112295418Y-95534776D01*
X112243019Y-95431939D01*
X112202487Y-95352390D01*
X112188772Y-95333513D01*
X112082171Y-95186786D01*
X111937413Y-95042028D01*
X111771811Y-94921713D01*
X111678569Y-94874203D01*
X111627774Y-94826229D01*
X111610979Y-94758407D01*
X111633517Y-94692273D01*
X111678571Y-94653234D01*
X111771547Y-94605861D01*
X111937094Y-94485582D01*
X111937095Y-94485582D01*
X112081782Y-94340895D01*
X112081782Y-94340894D01*
X112202059Y-94175349D01*
X112294955Y-93993029D01*
X112358190Y-93798413D01*
X112366809Y-93744000D01*
X111405886Y-93744000D01*
X111410280Y-93739606D01*
X111462941Y-93648394D01*
X111490200Y-93546661D01*
X111490200Y-93441339D01*
X111462941Y-93339606D01*
X111410280Y-93248394D01*
X111405886Y-93244000D01*
X112366809Y-93244000D01*
X112358190Y-93189586D01*
X112294955Y-92994970D01*
X112202059Y-92812650D01*
X112081782Y-92647105D01*
X112081782Y-92647104D01*
X111937095Y-92502417D01*
X111771549Y-92382140D01*
X111678570Y-92334765D01*
X111627774Y-92286790D01*
X111610979Y-92218969D01*
X111633516Y-92152835D01*
X111678570Y-92113795D01*
X111771810Y-92066287D01*
X111796084Y-92048651D01*
X111937413Y-91945971D01*
X111937415Y-91945968D01*
X111937419Y-91945966D01*
X112082166Y-91801219D01*
X112082168Y-91801215D01*
X112082171Y-91801213D01*
X112198014Y-91641766D01*
X112202487Y-91635610D01*
X112295420Y-91453219D01*
X112358677Y-91258534D01*
X112390700Y-91056352D01*
X112390700Y-90851648D01*
X112374243Y-90747746D01*
X112358677Y-90649465D01*
X112295418Y-90454776D01*
X112256061Y-90377534D01*
X112202487Y-90272390D01*
X112188772Y-90253513D01*
X112082171Y-90106786D01*
X111937413Y-89962028D01*
X111771814Y-89841715D01*
X111738037Y-89824505D01*
X111679117Y-89794483D01*
X111628323Y-89746511D01*
X111611528Y-89678690D01*
X111634065Y-89612555D01*
X111679117Y-89573516D01*
X111771810Y-89526287D01*
X111871248Y-89454042D01*
X111937413Y-89405971D01*
X111937415Y-89405968D01*
X111937419Y-89405966D01*
X112082166Y-89261219D01*
X112082168Y-89261215D01*
X112082171Y-89261213D01*
X112139705Y-89182023D01*
X112202487Y-89095610D01*
X112295420Y-88913219D01*
X112358677Y-88718534D01*
X112390700Y-88516352D01*
X112390700Y-88311648D01*
X112374199Y-88207464D01*
X112358677Y-88109465D01*
X112311455Y-87964132D01*
X112295420Y-87914781D01*
X112295418Y-87914778D01*
X112295418Y-87914776D01*
X112246960Y-87819673D01*
X112202487Y-87732390D01*
X112188540Y-87713194D01*
X112082171Y-87566786D01*
X111937413Y-87422028D01*
X111771814Y-87301715D01*
X111752425Y-87291836D01*
X111679117Y-87254483D01*
X111628323Y-87206511D01*
X111611528Y-87138690D01*
X111634065Y-87072555D01*
X111679117Y-87033516D01*
X111771810Y-86986287D01*
X111864477Y-86918961D01*
X111937413Y-86865971D01*
X111937415Y-86865968D01*
X111937419Y-86865966D01*
X112082166Y-86721219D01*
X112082168Y-86721215D01*
X112082171Y-86721213D01*
X112158393Y-86616300D01*
X112202487Y-86555610D01*
X112295420Y-86373219D01*
X112358677Y-86178534D01*
X112390700Y-85976352D01*
X112390700Y-85771648D01*
X112362130Y-85591269D01*
X112358677Y-85569465D01*
X112295418Y-85374776D01*
X112246960Y-85279673D01*
X112202487Y-85192390D01*
X112175844Y-85155719D01*
X112082171Y-85026786D01*
X112076196Y-85020811D01*
X112042711Y-84959488D01*
X112047695Y-84889796D01*
X112076196Y-84845449D01*
X112354050Y-84567596D01*
X112709577Y-84212069D01*
X112780765Y-84105527D01*
X112829801Y-83987144D01*
X112830327Y-83984500D01*
X112854800Y-83861469D01*
X112854800Y-82825131D01*
X112854800Y-82825128D01*
X112829802Y-82699461D01*
X112829801Y-82699460D01*
X112829801Y-82699456D01*
X112796809Y-82619808D01*
X112789341Y-82550341D01*
X112820616Y-82487861D01*
X112880705Y-82452209D01*
X112950530Y-82454702D01*
X112980259Y-82469253D01*
X112982073Y-82470465D01*
X113100456Y-82519501D01*
X113100460Y-82519501D01*
X113100461Y-82519502D01*
X113226128Y-82544500D01*
X113226131Y-82544500D01*
X122530536Y-82544500D01*
X122597575Y-82564185D01*
X122643330Y-82616989D01*
X122653274Y-82686147D01*
X122641021Y-82724795D01*
X122584981Y-82834776D01*
X122521722Y-83029465D01*
X122489700Y-83231648D01*
X122489700Y-83436351D01*
X122521722Y-83638534D01*
X122584981Y-83833223D01*
X122606493Y-83875441D01*
X122667771Y-83995706D01*
X122677915Y-84015613D01*
X122798228Y-84181213D01*
X122942986Y-84325971D01*
X123084316Y-84428651D01*
X123108590Y-84446287D01*
X123192221Y-84488899D01*
X123201280Y-84493515D01*
X123252076Y-84541490D01*
X123268871Y-84609311D01*
X123246334Y-84675446D01*
X123201280Y-84714485D01*
X123108586Y-84761715D01*
X122942986Y-84882028D01*
X122798228Y-85026786D01*
X122677915Y-85192386D01*
X122584981Y-85374776D01*
X122521722Y-85569465D01*
X122489700Y-85771648D01*
X122489700Y-85976351D01*
X122521722Y-86178534D01*
X122584981Y-86373223D01*
X122677915Y-86555613D01*
X122798228Y-86721213D01*
X122829653Y-86752638D01*
X122863138Y-86813961D01*
X122858154Y-86883653D01*
X122829653Y-86928000D01*
X121666527Y-88091125D01*
X121666524Y-88091128D01*
X121609435Y-88176570D01*
X121595335Y-88197671D01*
X121546299Y-88316055D01*
X121546297Y-88316061D01*
X121521300Y-88441728D01*
X121521300Y-91939670D01*
X121527889Y-91972791D01*
X121539988Y-92033616D01*
X121546299Y-92065344D01*
X121595335Y-92183727D01*
X121666523Y-92290269D01*
X121666526Y-92290273D01*
X121666527Y-92290274D01*
X122483062Y-93106808D01*
X122516547Y-93168131D01*
X122517854Y-93213886D01*
X122489700Y-93391645D01*
X122489700Y-93596351D01*
X122521722Y-93798534D01*
X122584981Y-93993223D01*
X122677915Y-94175613D01*
X122798228Y-94341213D01*
X122942986Y-94485971D01*
X123067543Y-94576465D01*
X123108590Y-94606287D01*
X123195363Y-94650500D01*
X123201280Y-94653515D01*
X123252076Y-94701490D01*
X123268871Y-94769311D01*
X123246334Y-94835446D01*
X123201280Y-94874485D01*
X123108586Y-94921715D01*
X122942986Y-95042028D01*
X122798228Y-95186786D01*
X122677915Y-95352386D01*
X122584981Y-95534776D01*
X122521722Y-95729465D01*
X122499973Y-95866785D01*
X122489700Y-95931648D01*
X122489700Y-96136352D01*
X122494078Y-96163995D01*
X122521722Y-96338534D01*
X122584981Y-96533223D01*
X122677915Y-96715613D01*
X122798228Y-96881213D01*
X122942986Y-97025971D01*
X123083372Y-97127965D01*
X123108590Y-97146287D01*
X123177835Y-97181569D01*
X123290976Y-97239218D01*
X123290978Y-97239218D01*
X123290981Y-97239220D01*
X123395337Y-97273127D01*
X123485665Y-97302477D01*
X123579821Y-97317390D01*
X123687848Y-97334500D01*
X123687849Y-97334500D01*
X123892551Y-97334500D01*
X123892552Y-97334500D01*
X124094734Y-97302477D01*
X124289419Y-97239220D01*
X124471810Y-97146287D01*
X124514419Y-97115328D01*
X124580223Y-97091848D01*
X124648277Y-97107672D01*
X124674986Y-97127965D01*
X124776807Y-97229786D01*
X124776811Y-97229789D01*
X124907914Y-97317390D01*
X124907927Y-97317397D01*
X124995330Y-97353599D01*
X125053603Y-97377737D01*
X125120680Y-97391079D01*
X125182588Y-97423461D01*
X125184112Y-97424958D01*
X125284673Y-97525519D01*
X125290731Y-97531577D01*
X125290732Y-97531578D01*
X125291624Y-97532174D01*
X125397274Y-97602766D01*
X125466621Y-97631489D01*
X125515656Y-97651801D01*
X125515659Y-97651801D01*
X125515660Y-97651802D01*
X125641328Y-97676800D01*
X125641331Y-97676800D01*
X125641332Y-97676800D01*
X125769469Y-97676800D01*
X127298030Y-97676800D01*
X127365069Y-97696485D01*
X127410824Y-97749289D01*
X127420768Y-97818447D01*
X127415962Y-97839112D01*
X127404785Y-97873513D01*
X127370290Y-97979673D01*
X127339500Y-98174077D01*
X127339500Y-98370922D01*
X127370290Y-98565326D01*
X127431117Y-98752529D01*
X127498455Y-98884686D01*
X127520476Y-98927905D01*
X127636172Y-99087146D01*
X127775354Y-99226328D01*
X127934595Y-99342024D01*
X127936091Y-99342786D01*
X128111213Y-99432015D01*
X128162009Y-99479989D01*
X128178804Y-99547810D01*
X128156267Y-99613945D01*
X128111213Y-99652985D01*
X127934594Y-99742976D01*
X127843741Y-99808985D01*
X127775354Y-99858672D01*
X127775352Y-99858674D01*
X127775351Y-99858674D01*
X127636174Y-99997851D01*
X127636174Y-99997852D01*
X127636172Y-99997854D01*
X127609936Y-100033965D01*
X127520476Y-100157094D01*
X127431117Y-100332470D01*
X127370290Y-100519673D01*
X127339500Y-100714077D01*
X127339500Y-100910922D01*
X127370290Y-101105326D01*
X127431117Y-101292529D01*
X127514308Y-101455800D01*
X127520476Y-101467905D01*
X127636172Y-101627146D01*
X127775354Y-101766328D01*
X127934595Y-101882024D01*
X128057992Y-101944897D01*
X128111213Y-101972015D01*
X128162009Y-102019989D01*
X128178804Y-102087810D01*
X128156267Y-102153945D01*
X128111213Y-102192985D01*
X127934594Y-102282976D01*
X127843741Y-102348985D01*
X127775354Y-102398672D01*
X127775352Y-102398674D01*
X127775351Y-102398674D01*
X127636174Y-102537851D01*
X127636174Y-102537852D01*
X127636172Y-102537854D01*
X127597401Y-102591217D01*
X127520476Y-102697094D01*
X127431117Y-102872470D01*
X127370290Y-103059673D01*
X127339500Y-103254077D01*
X127339500Y-103450922D01*
X127370290Y-103645326D01*
X127431117Y-103832529D01*
X127520476Y-104007905D01*
X127636172Y-104167146D01*
X127775354Y-104306328D01*
X127934595Y-104422024D01*
X128030465Y-104470872D01*
X128111213Y-104512015D01*
X128162009Y-104559989D01*
X128178804Y-104627810D01*
X128156267Y-104693945D01*
X128111213Y-104732985D01*
X127934594Y-104822976D01*
X127880598Y-104862207D01*
X127775354Y-104938672D01*
X127775352Y-104938674D01*
X127775351Y-104938674D01*
X127636174Y-105077851D01*
X127636174Y-105077852D01*
X127636172Y-105077854D01*
X127586485Y-105146241D01*
X127520476Y-105237094D01*
X127431117Y-105412470D01*
X127370290Y-105599673D01*
X127339500Y-105794077D01*
X127339500Y-105990922D01*
X127370290Y-106185326D01*
X127431117Y-106372529D01*
X127520476Y-106547905D01*
X127636172Y-106707146D01*
X127775354Y-106846328D01*
X127897651Y-106935183D01*
X127940316Y-106990512D01*
X127946295Y-107060126D01*
X127913689Y-107121921D01*
X127852850Y-107156278D01*
X127824765Y-107159500D01*
X124685647Y-107159500D01*
X124618608Y-107139815D01*
X124572853Y-107087011D01*
X124562909Y-107017853D01*
X124567714Y-106997187D01*
X124568577Y-106994534D01*
X124600600Y-106792352D01*
X124600600Y-106587648D01*
X124568577Y-106385466D01*
X124505320Y-106190781D01*
X124505318Y-106190778D01*
X124505318Y-106190776D01*
X124440976Y-106064499D01*
X124412387Y-106008390D01*
X124375895Y-105958162D01*
X124292071Y-105842786D01*
X124147313Y-105698028D01*
X123981713Y-105577715D01*
X123981712Y-105577714D01*
X123981710Y-105577713D01*
X123924753Y-105548691D01*
X123799323Y-105484781D01*
X123604634Y-105421522D01*
X123430095Y-105393878D01*
X123402452Y-105389500D01*
X123197748Y-105389500D01*
X123173429Y-105393351D01*
X122995565Y-105421522D01*
X122800876Y-105484781D01*
X122618486Y-105577715D01*
X122452886Y-105698028D01*
X122308134Y-105842780D01*
X122251697Y-105920460D01*
X122202346Y-105988386D01*
X122147018Y-106031051D01*
X122102029Y-106039500D01*
X118763429Y-106039500D01*
X118637761Y-106064497D01*
X118637755Y-106064499D01*
X118519374Y-106113534D01*
X118412826Y-106184726D01*
X114051575Y-110545977D01*
X113990252Y-110579462D01*
X113920560Y-110574478D01*
X113916442Y-110572857D01*
X113774131Y-110513910D01*
X113774119Y-110513907D01*
X113576007Y-110474500D01*
X113576003Y-110474500D01*
X112923997Y-110474500D01*
X112923992Y-110474500D01*
X112725880Y-110513907D01*
X112725872Y-110513909D01*
X112539247Y-110591212D01*
X112539237Y-110591217D01*
X112371281Y-110703441D01*
X112371278Y-110703444D01*
X112261542Y-110813181D01*
X112200219Y-110846666D01*
X112173861Y-110849500D01*
X111685929Y-110849500D01*
X111562352Y-110874081D01*
X111562347Y-110874083D01*
X111561838Y-110874184D01*
X111560253Y-110874499D01*
X111441874Y-110923533D01*
X111335326Y-110994726D01*
X104862665Y-117467387D01*
X104801342Y-117500872D01*
X104731650Y-117495888D01*
X104727532Y-117494267D01*
X104612207Y-117446498D01*
X104371561Y-117382017D01*
X104124575Y-117349501D01*
X104124570Y-117349500D01*
X104124565Y-117349500D01*
X103875435Y-117349500D01*
X103875429Y-117349500D01*
X103875424Y-117349501D01*
X103628438Y-117382017D01*
X103387792Y-117446498D01*
X103157638Y-117541830D01*
X103157623Y-117541837D01*
X102941873Y-117666400D01*
X102744225Y-117818060D01*
X102744218Y-117818066D01*
X102568066Y-117994218D01*
X102568060Y-117994225D01*
X102416400Y-118191873D01*
X102291837Y-118407623D01*
X102291830Y-118407638D01*
X102196498Y-118637792D01*
X102132017Y-118878438D01*
X102099501Y-119125424D01*
X102099500Y-119125441D01*
X102099500Y-119374558D01*
X102099501Y-119374575D01*
X102132017Y-119621561D01*
X102196498Y-119862207D01*
X102291830Y-120092361D01*
X102291837Y-120092376D01*
X102416400Y-120308126D01*
X102568060Y-120505774D01*
X102568066Y-120505781D01*
X102744218Y-120681933D01*
X102744225Y-120681939D01*
X102941873Y-120833599D01*
X103157623Y-120958162D01*
X103157638Y-120958169D01*
X103173331Y-120964669D01*
X103387793Y-121053502D01*
X103628435Y-121117982D01*
X103875435Y-121150500D01*
X103875442Y-121150500D01*
X104124558Y-121150500D01*
X104124565Y-121150500D01*
X104371565Y-121117982D01*
X104612207Y-121053502D01*
X104842373Y-120958164D01*
X105058127Y-120833599D01*
X105255776Y-120681938D01*
X105431938Y-120505776D01*
X105583599Y-120308127D01*
X105708164Y-120092373D01*
X105803502Y-119862207D01*
X105867982Y-119621565D01*
X105900500Y-119374565D01*
X105900500Y-119125435D01*
X105867982Y-118878435D01*
X105803502Y-118637793D01*
X105755730Y-118522463D01*
X105748262Y-118452998D01*
X105779536Y-118390519D01*
X105782583Y-118387361D01*
X111838408Y-112331537D01*
X111899729Y-112298054D01*
X111969421Y-112303038D01*
X112025354Y-112344910D01*
X112049771Y-112410374D01*
X112040652Y-112466664D01*
X112038910Y-112470870D01*
X112038907Y-112470880D01*
X111999500Y-112668992D01*
X111999500Y-112871007D01*
X112038907Y-113069119D01*
X112038910Y-113069131D01*
X112072547Y-113150338D01*
X112080016Y-113219807D01*
X112060405Y-113264864D01*
X112060895Y-113265132D01*
X112057910Y-113270596D01*
X112057260Y-113272092D01*
X112056646Y-113272911D01*
X112056645Y-113272913D01*
X112006403Y-113407620D01*
X112006401Y-113407627D01*
X112000000Y-113467155D01*
X112000000Y-113790000D01*
X112884134Y-113790000D01*
X112908326Y-113792383D01*
X112911123Y-113792939D01*
X112923995Y-113795499D01*
X112923996Y-113795500D01*
X112923997Y-113795500D01*
X112964170Y-113795500D01*
X112949925Y-113809745D01*
X112900556Y-113895255D01*
X112875000Y-113990630D01*
X112875000Y-114089370D01*
X112900556Y-114184745D01*
X112949925Y-114270255D01*
X112969670Y-114290000D01*
X112000000Y-114290000D01*
X112000000Y-114612844D01*
X112006401Y-114672372D01*
X112006403Y-114672379D01*
X112056645Y-114807086D01*
X112056649Y-114807093D01*
X112142809Y-114922187D01*
X112142812Y-114922190D01*
X112257906Y-115008350D01*
X112257913Y-115008354D01*
X112392620Y-115058596D01*
X112392627Y-115058598D01*
X112452155Y-115064999D01*
X112452172Y-115065000D01*
X113000000Y-115065000D01*
X113000000Y-114320330D01*
X113019745Y-114340075D01*
X113105255Y-114389444D01*
X113200630Y-114415000D01*
X113299370Y-114415000D01*
X113394745Y-114389444D01*
X113480255Y-114340075D01*
X113500000Y-114320330D01*
X113500000Y-115065000D01*
X114047828Y-115065000D01*
X114047844Y-115064999D01*
X114107372Y-115058598D01*
X114107379Y-115058596D01*
X114242086Y-115008354D01*
X114242093Y-115008350D01*
X114357187Y-114922190D01*
X114357190Y-114922187D01*
X114443350Y-114807093D01*
X114443354Y-114807086D01*
X114493596Y-114672379D01*
X114493598Y-114672372D01*
X114499999Y-114612844D01*
X114500000Y-114612827D01*
X114500000Y-114290000D01*
X113530330Y-114290000D01*
X113550075Y-114270255D01*
X113599444Y-114184745D01*
X113625000Y-114089370D01*
X113625000Y-113990630D01*
X113599444Y-113895255D01*
X113550075Y-113809745D01*
X113535830Y-113795500D01*
X113576004Y-113795500D01*
X113576004Y-113795499D01*
X113589473Y-113792820D01*
X113591674Y-113792383D01*
X113615866Y-113790000D01*
X114500000Y-113790000D01*
X114500000Y-113474107D01*
X114519685Y-113407068D01*
X114572489Y-113361313D01*
X114576547Y-113359546D01*
X114588425Y-113354626D01*
X114608127Y-113346465D01*
X114714669Y-113275276D01*
X114805276Y-113184669D01*
X114876465Y-113078127D01*
X114925501Y-112959744D01*
X114933682Y-112918615D01*
X114950500Y-112834071D01*
X114950500Y-111538307D01*
X114970185Y-111471268D01*
X114986814Y-111450631D01*
X117954309Y-108483135D01*
X118015630Y-108449652D01*
X118085322Y-108454636D01*
X118141255Y-108496508D01*
X118142306Y-108497933D01*
X118258028Y-108657213D01*
X118402786Y-108801971D01*
X118554954Y-108912525D01*
X118568390Y-108922287D01*
X118684607Y-108981503D01*
X118750776Y-109015218D01*
X118750778Y-109015218D01*
X118750781Y-109015220D01*
X118855137Y-109049127D01*
X118945465Y-109078477D01*
X119004991Y-109087905D01*
X119147648Y-109110500D01*
X119147649Y-109110500D01*
X119352351Y-109110500D01*
X119352352Y-109110500D01*
X119554534Y-109078477D01*
X119749219Y-109015220D01*
X119931610Y-108922287D01*
X120024590Y-108854732D01*
X120097213Y-108801971D01*
X120097215Y-108801968D01*
X120097219Y-108801966D01*
X120241966Y-108657219D01*
X120347753Y-108511613D01*
X120403082Y-108468949D01*
X120448071Y-108460500D01*
X127222441Y-108460500D01*
X127289480Y-108480185D01*
X127335235Y-108532989D01*
X127344914Y-108565102D01*
X127370290Y-108725326D01*
X127431117Y-108912529D01*
X127483440Y-109015218D01*
X127520476Y-109087905D01*
X127636172Y-109247146D01*
X127775354Y-109386328D01*
X127934595Y-109502024D01*
X128057992Y-109564897D01*
X128111213Y-109592015D01*
X128162009Y-109639989D01*
X128178804Y-109707810D01*
X128156267Y-109773945D01*
X128111213Y-109812985D01*
X127934594Y-109902976D01*
X127880689Y-109942141D01*
X127775354Y-110018672D01*
X127775352Y-110018674D01*
X127775351Y-110018674D01*
X127636174Y-110157851D01*
X127636174Y-110157852D01*
X127636172Y-110157854D01*
X127611890Y-110191275D01*
X127520476Y-110317094D01*
X127431117Y-110492470D01*
X127370290Y-110679673D01*
X127339500Y-110874077D01*
X127339500Y-111070922D01*
X127361355Y-111208910D01*
X127352400Y-111278204D01*
X127326563Y-111315989D01*
X125019373Y-113623181D01*
X124958050Y-113656666D01*
X124931692Y-113659500D01*
X124498171Y-113659500D01*
X124431132Y-113639815D01*
X124397854Y-113608386D01*
X124292066Y-113462781D01*
X124147319Y-113318034D01*
X124147313Y-113318028D01*
X123981713Y-113197715D01*
X123981712Y-113197714D01*
X123981710Y-113197713D01*
X123919862Y-113166200D01*
X123799323Y-113104781D01*
X123604634Y-113041522D01*
X123430095Y-113013878D01*
X123402452Y-113009500D01*
X123197748Y-113009500D01*
X123173429Y-113013351D01*
X122995565Y-113041522D01*
X122800876Y-113104781D01*
X122618486Y-113197715D01*
X122452886Y-113318028D01*
X122308128Y-113462786D01*
X122187815Y-113628386D01*
X122094881Y-113810776D01*
X122031622Y-114005465D01*
X121999600Y-114207648D01*
X121999600Y-114412352D01*
X122003978Y-114439995D01*
X122031622Y-114614534D01*
X122094881Y-114809223D01*
X122135785Y-114889500D01*
X122184333Y-114984781D01*
X122187815Y-114991613D01*
X122308128Y-115157213D01*
X122452886Y-115301971D01*
X122583816Y-115397095D01*
X122618490Y-115422287D01*
X122734707Y-115481503D01*
X122800876Y-115515218D01*
X122800878Y-115515218D01*
X122800881Y-115515220D01*
X122905237Y-115549127D01*
X122995565Y-115578477D01*
X123096657Y-115594488D01*
X123197748Y-115610500D01*
X123197749Y-115610500D01*
X123402451Y-115610500D01*
X123402452Y-115610500D01*
X123604634Y-115578477D01*
X123799319Y-115515220D01*
X123981710Y-115422287D01*
X124091142Y-115342781D01*
X124147313Y-115301971D01*
X124147315Y-115301968D01*
X124147319Y-115301966D01*
X124292066Y-115157219D01*
X124397853Y-115011613D01*
X124453182Y-114968949D01*
X124498171Y-114960500D01*
X125316571Y-114960500D01*
X125408863Y-114942141D01*
X125442244Y-114935501D01*
X125560627Y-114886465D01*
X125596932Y-114862207D01*
X125667169Y-114815277D01*
X127127819Y-113354625D01*
X127189142Y-113321141D01*
X127258833Y-113326125D01*
X127314767Y-113367997D01*
X127339184Y-113433461D01*
X127339500Y-113442307D01*
X127339500Y-113610922D01*
X127361355Y-113748910D01*
X127352400Y-113818204D01*
X127326563Y-113855989D01*
X119244722Y-121937831D01*
X119244719Y-121937835D01*
X119228983Y-121961387D01*
X119225100Y-121967200D01*
X119204445Y-121998111D01*
X119173534Y-122044373D01*
X119124499Y-122162755D01*
X119124497Y-122162761D01*
X119099500Y-122288428D01*
X119099500Y-122611928D01*
X119079815Y-122678967D01*
X119048385Y-122712246D01*
X118902787Y-122818028D01*
X118902782Y-122818032D01*
X118758028Y-122962786D01*
X118637715Y-123128386D01*
X118544781Y-123310776D01*
X118481522Y-123505465D01*
X118449500Y-123707648D01*
X118449500Y-123912351D01*
X118481522Y-124114534D01*
X118544781Y-124309223D01*
X118637715Y-124491613D01*
X118758028Y-124657213D01*
X118902786Y-124801971D01*
X119057749Y-124914556D01*
X119068390Y-124922287D01*
X119184607Y-124981503D01*
X119250776Y-125015218D01*
X119250778Y-125015218D01*
X119250781Y-125015220D01*
X119355137Y-125049127D01*
X119445465Y-125078477D01*
X119533125Y-125092361D01*
X119647648Y-125110500D01*
X119647649Y-125110500D01*
X119852351Y-125110500D01*
X119852352Y-125110500D01*
X120054534Y-125078477D01*
X120249219Y-125015220D01*
X120431610Y-124922287D01*
X120524590Y-124854732D01*
X120597213Y-124801971D01*
X120597215Y-124801968D01*
X120597219Y-124801966D01*
X120741966Y-124657219D01*
X120741968Y-124657215D01*
X120741971Y-124657213D01*
X120794732Y-124584590D01*
X120862287Y-124491610D01*
X120955220Y-124309219D01*
X121018477Y-124114534D01*
X121050500Y-123912352D01*
X121050500Y-123866684D01*
X163131000Y-123866684D01*
X163131000Y-126266715D01*
X163141500Y-126369495D01*
X163141501Y-126369497D01*
X163153567Y-126405909D01*
X163196686Y-126536035D01*
X163196687Y-126536037D01*
X163288786Y-126685351D01*
X163288789Y-126685355D01*
X163412844Y-126809410D01*
X163412848Y-126809413D01*
X163562162Y-126901512D01*
X163562164Y-126901513D01*
X163562166Y-126901514D01*
X163728703Y-126956699D01*
X163831492Y-126967200D01*
X163831497Y-126967200D01*
X166231503Y-126967200D01*
X166231508Y-126967200D01*
X166334297Y-126956699D01*
X166500834Y-126901514D01*
X166650155Y-126809411D01*
X166774211Y-126685355D01*
X166866314Y-126536034D01*
X166921499Y-126369497D01*
X166932000Y-126266708D01*
X166932000Y-123866692D01*
X166921499Y-123763903D01*
X166866314Y-123597366D01*
X166809628Y-123505465D01*
X166774213Y-123448048D01*
X166774210Y-123448044D01*
X166650155Y-123323989D01*
X166650151Y-123323986D01*
X166500837Y-123231887D01*
X166500835Y-123231886D01*
X166380083Y-123191873D01*
X166334297Y-123176701D01*
X166334295Y-123176700D01*
X166231515Y-123166200D01*
X166231508Y-123166200D01*
X163831492Y-123166200D01*
X163831484Y-123166200D01*
X163728704Y-123176700D01*
X163728703Y-123176701D01*
X163562164Y-123231886D01*
X163562162Y-123231887D01*
X163412848Y-123323986D01*
X163412844Y-123323989D01*
X163288789Y-123448044D01*
X163288786Y-123448048D01*
X163196687Y-123597362D01*
X163196686Y-123597364D01*
X163141501Y-123763903D01*
X163141500Y-123763904D01*
X163131000Y-123866684D01*
X121050500Y-123866684D01*
X121050500Y-123707648D01*
X121033033Y-123597366D01*
X121018477Y-123505465D01*
X120986686Y-123407623D01*
X120955220Y-123310781D01*
X120955218Y-123310778D01*
X120955218Y-123310776D01*
X120894633Y-123191873D01*
X120862287Y-123128390D01*
X120854556Y-123117749D01*
X120741971Y-122962786D01*
X120597219Y-122818034D01*
X120487165Y-122738076D01*
X120444499Y-122682746D01*
X120438520Y-122613132D01*
X120471125Y-122551337D01*
X120472296Y-122550149D01*
X127127819Y-115894625D01*
X127189142Y-115861141D01*
X127258834Y-115866125D01*
X127314767Y-115907997D01*
X127339184Y-115973461D01*
X127339500Y-115982307D01*
X127339500Y-116150922D01*
X127370290Y-116345326D01*
X127431117Y-116532529D01*
X127491124Y-116650299D01*
X127520476Y-116707905D01*
X127636172Y-116867146D01*
X127775354Y-117006328D01*
X127934595Y-117122024D01*
X127976413Y-117143331D01*
X128111213Y-117212015D01*
X128162009Y-117259989D01*
X128178804Y-117327810D01*
X128156267Y-117393945D01*
X128111213Y-117432985D01*
X127934594Y-117522976D01*
X127843741Y-117588985D01*
X127775354Y-117638672D01*
X127775352Y-117638674D01*
X127775351Y-117638674D01*
X127636174Y-117777851D01*
X127636174Y-117777852D01*
X127636172Y-117777854D01*
X127606959Y-117818062D01*
X127520476Y-117937094D01*
X127431117Y-118112470D01*
X127370290Y-118299673D01*
X127339500Y-118494077D01*
X127339500Y-118690922D01*
X127370290Y-118885326D01*
X127431117Y-119072529D01*
X127508460Y-119224323D01*
X127520476Y-119247905D01*
X127636172Y-119407146D01*
X127775354Y-119546328D01*
X127878903Y-119621561D01*
X127934596Y-119662025D01*
X128111763Y-119752295D01*
X128162560Y-119800269D01*
X128179355Y-119868090D01*
X128156818Y-119934225D01*
X128111764Y-119973265D01*
X127934859Y-120063402D01*
X127899873Y-120088820D01*
X127899872Y-120088820D01*
X128543554Y-120732500D01*
X128537339Y-120732500D01*
X128435606Y-120759759D01*
X128344394Y-120812420D01*
X128269920Y-120886894D01*
X128217259Y-120978106D01*
X128190000Y-121079839D01*
X128190000Y-121086052D01*
X127546320Y-120442372D01*
X127546320Y-120442373D01*
X127520902Y-120477359D01*
X127520899Y-120477363D01*
X127431582Y-120652661D01*
X127370778Y-120839794D01*
X127340000Y-121034117D01*
X127340000Y-121230882D01*
X127370778Y-121425205D01*
X127431581Y-121612335D01*
X127520905Y-121787645D01*
X127546319Y-121822625D01*
X127546320Y-121822625D01*
X128190000Y-121178945D01*
X128190000Y-121185161D01*
X128217259Y-121286894D01*
X128269920Y-121378106D01*
X128344394Y-121452580D01*
X128435606Y-121505241D01*
X128537339Y-121532500D01*
X128543553Y-121532500D01*
X127899873Y-122176177D01*
X127899873Y-122176178D01*
X127934858Y-122201596D01*
X128110164Y-122290918D01*
X128297294Y-122351721D01*
X128491618Y-122382500D01*
X128688382Y-122382500D01*
X128882705Y-122351721D01*
X129069835Y-122290918D01*
X129245143Y-122201595D01*
X129280125Y-122176178D01*
X129280126Y-122176178D01*
X128636448Y-121532500D01*
X128642661Y-121532500D01*
X128744394Y-121505241D01*
X128835606Y-121452580D01*
X128910080Y-121378106D01*
X128962741Y-121286894D01*
X128990000Y-121185161D01*
X128990000Y-121178948D01*
X129633678Y-121822626D01*
X129633678Y-121822625D01*
X129659095Y-121787643D01*
X129748418Y-121612335D01*
X129809221Y-121425205D01*
X129840000Y-121230882D01*
X129840000Y-121034117D01*
X129809221Y-120839794D01*
X129748418Y-120652664D01*
X129659096Y-120477358D01*
X129633678Y-120442373D01*
X129633677Y-120442373D01*
X128990000Y-121086051D01*
X128990000Y-121079839D01*
X128962741Y-120978106D01*
X128910080Y-120886894D01*
X128835606Y-120812420D01*
X128744394Y-120759759D01*
X128642661Y-120732500D01*
X128636447Y-120732500D01*
X129280125Y-120088820D01*
X129280125Y-120088819D01*
X129245145Y-120063405D01*
X129068235Y-119973265D01*
X129017439Y-119925290D01*
X129000644Y-119857469D01*
X129023182Y-119791334D01*
X129068236Y-119752295D01*
X129070022Y-119751384D01*
X129070025Y-119751384D01*
X129245405Y-119662024D01*
X129404646Y-119546328D01*
X129543828Y-119407146D01*
X129659524Y-119247905D01*
X129748884Y-119072525D01*
X129809709Y-118885326D01*
X129821494Y-118810918D01*
X129840500Y-118690922D01*
X129840500Y-118494077D01*
X129809709Y-118299673D01*
X129748882Y-118112470D01*
X129659523Y-117937094D01*
X129649672Y-117923535D01*
X129543828Y-117777854D01*
X129404646Y-117638672D01*
X129271365Y-117541837D01*
X129245403Y-117522974D01*
X129068787Y-117432985D01*
X129017990Y-117385011D01*
X129001195Y-117317190D01*
X129023732Y-117251055D01*
X129068787Y-117212015D01*
X129245403Y-117122025D01*
X129245402Y-117122025D01*
X129245405Y-117122024D01*
X129404646Y-117006328D01*
X129543828Y-116867146D01*
X129659524Y-116707905D01*
X129748884Y-116532525D01*
X129809709Y-116345326D01*
X129818099Y-116292352D01*
X129840500Y-116150922D01*
X129840500Y-115954077D01*
X129809709Y-115759673D01*
X129762225Y-115613534D01*
X129748884Y-115572475D01*
X129748882Y-115572472D01*
X129748882Y-115572470D01*
X129659523Y-115397094D01*
X129543828Y-115237854D01*
X129404646Y-115098672D01*
X129280335Y-115008354D01*
X129245403Y-114982974D01*
X129068787Y-114892985D01*
X129017990Y-114845011D01*
X129001195Y-114777190D01*
X129023732Y-114711055D01*
X129068787Y-114672015D01*
X129245403Y-114582025D01*
X129245402Y-114582025D01*
X129245405Y-114582024D01*
X129404646Y-114466328D01*
X129543828Y-114327146D01*
X129659524Y-114167905D01*
X129748884Y-113992525D01*
X129809709Y-113805326D01*
X129817507Y-113756091D01*
X129840500Y-113610922D01*
X129840500Y-113414077D01*
X129809709Y-113219673D01*
X129751824Y-113041523D01*
X129748884Y-113032475D01*
X129748882Y-113032472D01*
X129748882Y-113032470D01*
X129659523Y-112857094D01*
X129642796Y-112834071D01*
X129543828Y-112697854D01*
X129404646Y-112558672D01*
X129325025Y-112500824D01*
X129245403Y-112442974D01*
X129068787Y-112352985D01*
X129017990Y-112305011D01*
X129001195Y-112237190D01*
X129023732Y-112171055D01*
X129068787Y-112132015D01*
X129245403Y-112042025D01*
X129245402Y-112042025D01*
X129245405Y-112042024D01*
X129404646Y-111926328D01*
X129543828Y-111787146D01*
X129659524Y-111627905D01*
X129748884Y-111452525D01*
X129809709Y-111265326D01*
X129840500Y-111070922D01*
X129840500Y-110874077D01*
X129809709Y-110679673D01*
X129777003Y-110579016D01*
X129748884Y-110492475D01*
X129748882Y-110492472D01*
X129748882Y-110492470D01*
X129659523Y-110317094D01*
X129653008Y-110308127D01*
X129543828Y-110157854D01*
X129404646Y-110018672D01*
X129299311Y-109942141D01*
X129245403Y-109902974D01*
X129068787Y-109812985D01*
X129017990Y-109765011D01*
X129001195Y-109697190D01*
X129023732Y-109631055D01*
X129068787Y-109592015D01*
X129245403Y-109502025D01*
X129245402Y-109502025D01*
X129245405Y-109502024D01*
X129404646Y-109386328D01*
X129543828Y-109247146D01*
X129659524Y-109087905D01*
X129748884Y-108912525D01*
X129809709Y-108725326D01*
X129820497Y-108657213D01*
X129840500Y-108530922D01*
X129840500Y-108334077D01*
X129809709Y-108139673D01*
X129748882Y-107952470D01*
X129701743Y-107859955D01*
X129659524Y-107777095D01*
X129543828Y-107617854D01*
X129404646Y-107478672D01*
X129271613Y-107382017D01*
X129245403Y-107362974D01*
X129068787Y-107272985D01*
X129017990Y-107225011D01*
X129001195Y-107157190D01*
X129023732Y-107091055D01*
X129068787Y-107052015D01*
X129245403Y-106962025D01*
X129245402Y-106962025D01*
X129245405Y-106962024D01*
X129404646Y-106846328D01*
X129543828Y-106707146D01*
X129659524Y-106547905D01*
X129748884Y-106372525D01*
X129809709Y-106185326D01*
X129809805Y-106184723D01*
X129840500Y-105990922D01*
X129840500Y-105794077D01*
X129809709Y-105599673D01*
X129779201Y-105505781D01*
X129748884Y-105412475D01*
X129748882Y-105412472D01*
X129748882Y-105412470D01*
X129678978Y-105275276D01*
X129659524Y-105237095D01*
X129543828Y-105077854D01*
X129404646Y-104938672D01*
X129260676Y-104834071D01*
X129245403Y-104822974D01*
X129068787Y-104732985D01*
X129017990Y-104685011D01*
X129001195Y-104617190D01*
X129023732Y-104551055D01*
X129068787Y-104512015D01*
X129245403Y-104422025D01*
X129245402Y-104422025D01*
X129245405Y-104422024D01*
X129404646Y-104306328D01*
X129543828Y-104167146D01*
X129659524Y-104007905D01*
X129748884Y-103832525D01*
X129809709Y-103645326D01*
X129810902Y-103637792D01*
X129840500Y-103450922D01*
X129840500Y-103254077D01*
X129818644Y-103116087D01*
X129827598Y-103046794D01*
X129853433Y-103009011D01*
X132718127Y-100144319D01*
X132779450Y-100110834D01*
X132805808Y-100108000D01*
X152743142Y-100108000D01*
X152810181Y-100127685D01*
X152855936Y-100180489D01*
X152865880Y-100249647D01*
X152853627Y-100288295D01*
X152831117Y-100332471D01*
X152770290Y-100519673D01*
X152739500Y-100714077D01*
X152739500Y-100910922D01*
X152770290Y-101105326D01*
X152831117Y-101292529D01*
X152914308Y-101455800D01*
X152920476Y-101467905D01*
X153036172Y-101627146D01*
X153175354Y-101766328D01*
X153334595Y-101882024D01*
X153457992Y-101944897D01*
X153511213Y-101972015D01*
X153562009Y-102019989D01*
X153578804Y-102087810D01*
X153556267Y-102153945D01*
X153511213Y-102192985D01*
X153334594Y-102282976D01*
X153243741Y-102348985D01*
X153175354Y-102398672D01*
X153175352Y-102398674D01*
X153175351Y-102398674D01*
X153036174Y-102537851D01*
X153036174Y-102537852D01*
X153036172Y-102537854D01*
X152997401Y-102591217D01*
X152920476Y-102697094D01*
X152831117Y-102872470D01*
X152770290Y-103059673D01*
X152739500Y-103254077D01*
X152739500Y-103450922D01*
X152770290Y-103645326D01*
X152831117Y-103832529D01*
X152920476Y-104007905D01*
X153036172Y-104167146D01*
X153175354Y-104306328D01*
X153334595Y-104422024D01*
X153430465Y-104470872D01*
X153511213Y-104512015D01*
X153562009Y-104559989D01*
X153578804Y-104627810D01*
X153556267Y-104693945D01*
X153511213Y-104732985D01*
X153334594Y-104822976D01*
X153280598Y-104862207D01*
X153175354Y-104938672D01*
X153175352Y-104938674D01*
X153175351Y-104938674D01*
X153036174Y-105077851D01*
X153036174Y-105077852D01*
X153036172Y-105077854D01*
X152986485Y-105146241D01*
X152920476Y-105237094D01*
X152831117Y-105412470D01*
X152770290Y-105599673D01*
X152739500Y-105794077D01*
X152739500Y-105990922D01*
X152770290Y-106185326D01*
X152831117Y-106372529D01*
X152920476Y-106547905D01*
X153036172Y-106707146D01*
X153175354Y-106846328D01*
X153334595Y-106962024D01*
X153444166Y-107017853D01*
X153511213Y-107052015D01*
X153562009Y-107099989D01*
X153578804Y-107167810D01*
X153556267Y-107233945D01*
X153511213Y-107272985D01*
X153334594Y-107362976D01*
X153243741Y-107428985D01*
X153175354Y-107478672D01*
X153175352Y-107478674D01*
X153175351Y-107478674D01*
X153036174Y-107617851D01*
X153036174Y-107617852D01*
X153036172Y-107617854D01*
X152986485Y-107686241D01*
X152920476Y-107777094D01*
X152831117Y-107952470D01*
X152770290Y-108139673D01*
X152739500Y-108334077D01*
X152739500Y-108530922D01*
X152770290Y-108725326D01*
X152831117Y-108912529D01*
X152883440Y-109015218D01*
X152920476Y-109087905D01*
X153036172Y-109247146D01*
X153175354Y-109386328D01*
X153334595Y-109502024D01*
X153457992Y-109564897D01*
X153511213Y-109592015D01*
X153562009Y-109639989D01*
X153578804Y-109707810D01*
X153556267Y-109773945D01*
X153511213Y-109812985D01*
X153334594Y-109902976D01*
X153280689Y-109942141D01*
X153175354Y-110018672D01*
X153175352Y-110018674D01*
X153175351Y-110018674D01*
X153036174Y-110157851D01*
X153036174Y-110157852D01*
X153036172Y-110157854D01*
X153011890Y-110191275D01*
X152920476Y-110317094D01*
X152831117Y-110492470D01*
X152770290Y-110679673D01*
X152739500Y-110874077D01*
X152739500Y-111070922D01*
X152770290Y-111265326D01*
X152831117Y-111452529D01*
X152920476Y-111627905D01*
X153036172Y-111787146D01*
X153175354Y-111926328D01*
X153334595Y-112042024D01*
X153457992Y-112104897D01*
X153511213Y-112132015D01*
X153562009Y-112179989D01*
X153578804Y-112247810D01*
X153556267Y-112313945D01*
X153511213Y-112352985D01*
X153334594Y-112442976D01*
X153243741Y-112508985D01*
X153175354Y-112558672D01*
X153175352Y-112558674D01*
X153175351Y-112558674D01*
X153036174Y-112697851D01*
X153036174Y-112697852D01*
X153036172Y-112697854D01*
X152986485Y-112766241D01*
X152920476Y-112857094D01*
X152831117Y-113032470D01*
X152770290Y-113219673D01*
X152739500Y-113414077D01*
X152739500Y-113610922D01*
X152770290Y-113805326D01*
X152831117Y-113992529D01*
X152911841Y-114150957D01*
X152920476Y-114167905D01*
X153036172Y-114327146D01*
X153175354Y-114466328D01*
X153334595Y-114582024D01*
X153412199Y-114621565D01*
X153511213Y-114672015D01*
X153562009Y-114719989D01*
X153578804Y-114787810D01*
X153556267Y-114853945D01*
X153511213Y-114892985D01*
X153334594Y-114982976D01*
X153243741Y-115048985D01*
X153175354Y-115098672D01*
X153175352Y-115098674D01*
X153175351Y-115098674D01*
X153036174Y-115237851D01*
X153036174Y-115237852D01*
X153036172Y-115237854D01*
X152989592Y-115301966D01*
X152920476Y-115397094D01*
X152831117Y-115572470D01*
X152770290Y-115759673D01*
X152739500Y-115954077D01*
X152739500Y-116150922D01*
X152770290Y-116345326D01*
X152831117Y-116532529D01*
X152891124Y-116650299D01*
X152920476Y-116707905D01*
X153036172Y-116867146D01*
X153175354Y-117006328D01*
X153334595Y-117122024D01*
X153376413Y-117143331D01*
X153511213Y-117212015D01*
X153562009Y-117259989D01*
X153578804Y-117327810D01*
X153556267Y-117393945D01*
X153511213Y-117432985D01*
X153334594Y-117522976D01*
X153243741Y-117588985D01*
X153175354Y-117638672D01*
X153175352Y-117638674D01*
X153175351Y-117638674D01*
X153036174Y-117777851D01*
X153036174Y-117777852D01*
X153036172Y-117777854D01*
X153006959Y-117818062D01*
X152920476Y-117937094D01*
X152831117Y-118112470D01*
X152770290Y-118299673D01*
X152739500Y-118494077D01*
X152739500Y-118690922D01*
X152770290Y-118885326D01*
X152831117Y-119072529D01*
X152908460Y-119224323D01*
X152920476Y-119247905D01*
X153036172Y-119407146D01*
X153175354Y-119546328D01*
X153334595Y-119662024D01*
X153457992Y-119724897D01*
X153511213Y-119752015D01*
X153562009Y-119799989D01*
X153578804Y-119867810D01*
X153556267Y-119933945D01*
X153511213Y-119972985D01*
X153334594Y-120062976D01*
X153243741Y-120128985D01*
X153175354Y-120178672D01*
X153175352Y-120178674D01*
X153175351Y-120178674D01*
X153036174Y-120317851D01*
X153036174Y-120317852D01*
X153036172Y-120317854D01*
X153022909Y-120336109D01*
X152920476Y-120477094D01*
X152831117Y-120652470D01*
X152770290Y-120839673D01*
X152739500Y-121034077D01*
X152739500Y-121230922D01*
X152770290Y-121425326D01*
X152831117Y-121612529D01*
X152910818Y-121768950D01*
X152920476Y-121787905D01*
X153036172Y-121947146D01*
X153175354Y-122086328D01*
X153334595Y-122202024D01*
X153417455Y-122244243D01*
X153509970Y-122291382D01*
X153509972Y-122291382D01*
X153509975Y-122291384D01*
X153610317Y-122323987D01*
X153697173Y-122352209D01*
X153891578Y-122383000D01*
X153891583Y-122383000D01*
X154088422Y-122383000D01*
X154282826Y-122352209D01*
X154291163Y-122349500D01*
X154470025Y-122291384D01*
X154645405Y-122202024D01*
X154804646Y-122086328D01*
X154943828Y-121947146D01*
X155059524Y-121787905D01*
X155148884Y-121612525D01*
X155209709Y-121425326D01*
X155209728Y-121425205D01*
X155240500Y-121230922D01*
X155240500Y-121034077D01*
X155218644Y-120896087D01*
X155227598Y-120826794D01*
X155253433Y-120789011D01*
X156008076Y-120034370D01*
X156069701Y-119942141D01*
X163131000Y-119942141D01*
X163131000Y-120191258D01*
X163131001Y-120191275D01*
X163161602Y-120423718D01*
X163163518Y-120438265D01*
X163173993Y-120477358D01*
X163227998Y-120678907D01*
X163323330Y-120909061D01*
X163323337Y-120909076D01*
X163447900Y-121124826D01*
X163599560Y-121322474D01*
X163599566Y-121322481D01*
X163775718Y-121498633D01*
X163775725Y-121498639D01*
X163973373Y-121650299D01*
X164189123Y-121774862D01*
X164189138Y-121774869D01*
X164275935Y-121810821D01*
X164419293Y-121870202D01*
X164659935Y-121934682D01*
X164906935Y-121967200D01*
X164906942Y-121967200D01*
X165156058Y-121967200D01*
X165156065Y-121967200D01*
X165403065Y-121934682D01*
X165643707Y-121870202D01*
X165873873Y-121774864D01*
X166089627Y-121650299D01*
X166287276Y-121498638D01*
X166463438Y-121322476D01*
X166615099Y-121124827D01*
X166739664Y-120909073D01*
X166835002Y-120678907D01*
X166899482Y-120438265D01*
X166932000Y-120191265D01*
X166932000Y-119942135D01*
X166899482Y-119695135D01*
X166835002Y-119454493D01*
X166780753Y-119323525D01*
X166739669Y-119224338D01*
X166739662Y-119224323D01*
X166615099Y-119008573D01*
X166463439Y-118810925D01*
X166463433Y-118810918D01*
X166287281Y-118634766D01*
X166287274Y-118634760D01*
X166089626Y-118483100D01*
X165873876Y-118358537D01*
X165873861Y-118358530D01*
X165643707Y-118263198D01*
X165403065Y-118198718D01*
X165403064Y-118198717D01*
X165403061Y-118198717D01*
X165156075Y-118166201D01*
X165156070Y-118166200D01*
X165156065Y-118166200D01*
X164906935Y-118166200D01*
X164906929Y-118166200D01*
X164906924Y-118166201D01*
X164659938Y-118198717D01*
X164419292Y-118263198D01*
X164189138Y-118358530D01*
X164189123Y-118358537D01*
X163973373Y-118483100D01*
X163775725Y-118634760D01*
X163775718Y-118634766D01*
X163599566Y-118810918D01*
X163599560Y-118810925D01*
X163447900Y-119008573D01*
X163323337Y-119224323D01*
X163323330Y-119224338D01*
X163227998Y-119454492D01*
X163163517Y-119695138D01*
X163131001Y-119942124D01*
X163131000Y-119942141D01*
X156069701Y-119942141D01*
X156079265Y-119927827D01*
X156128301Y-119809444D01*
X156130718Y-119797291D01*
X156153300Y-119683769D01*
X156153300Y-117528207D01*
X156172985Y-117461168D01*
X156189614Y-117440531D01*
X158688004Y-114942141D01*
X163131000Y-114942141D01*
X163131000Y-115191258D01*
X163131001Y-115191275D01*
X163163517Y-115438261D01*
X163227998Y-115678907D01*
X163323330Y-115909061D01*
X163323337Y-115909076D01*
X163447900Y-116124826D01*
X163599560Y-116322474D01*
X163599566Y-116322481D01*
X163775718Y-116498633D01*
X163775725Y-116498639D01*
X163973373Y-116650299D01*
X164189123Y-116774862D01*
X164189138Y-116774869D01*
X164288325Y-116815953D01*
X164419293Y-116870202D01*
X164659935Y-116934682D01*
X164906935Y-116967200D01*
X164906942Y-116967200D01*
X165156058Y-116967200D01*
X165156065Y-116967200D01*
X165403065Y-116934682D01*
X165643707Y-116870202D01*
X165873873Y-116774864D01*
X166089627Y-116650299D01*
X166287276Y-116498638D01*
X166463438Y-116322476D01*
X166615099Y-116124827D01*
X166739664Y-115909073D01*
X166835002Y-115678907D01*
X166899482Y-115438265D01*
X166932000Y-115191265D01*
X166932000Y-114942135D01*
X166899482Y-114695135D01*
X166835002Y-114454493D01*
X166739664Y-114224327D01*
X166730034Y-114207648D01*
X166615099Y-114008573D01*
X166463439Y-113810925D01*
X166463433Y-113810918D01*
X166287281Y-113634766D01*
X166287274Y-113634760D01*
X166089626Y-113483100D01*
X165873876Y-113358537D01*
X165873861Y-113358530D01*
X165643707Y-113263198D01*
X165481770Y-113219807D01*
X165403065Y-113198718D01*
X165403064Y-113198717D01*
X165403061Y-113198717D01*
X165156075Y-113166201D01*
X165156070Y-113166200D01*
X165156065Y-113166200D01*
X164906935Y-113166200D01*
X164906929Y-113166200D01*
X164906924Y-113166201D01*
X164659938Y-113198717D01*
X164419292Y-113263198D01*
X164189138Y-113358530D01*
X164189123Y-113358537D01*
X163973373Y-113483100D01*
X163775725Y-113634760D01*
X163775718Y-113634766D01*
X163599566Y-113810918D01*
X163599560Y-113810925D01*
X163447900Y-114008573D01*
X163323337Y-114224323D01*
X163323330Y-114224338D01*
X163227998Y-114454492D01*
X163163517Y-114695138D01*
X163131001Y-114942124D01*
X163131000Y-114942141D01*
X158688004Y-114942141D01*
X163017645Y-110612499D01*
X163078966Y-110579016D01*
X163148658Y-110584000D01*
X163204591Y-110625872D01*
X163225098Y-110668085D01*
X163227997Y-110678905D01*
X163323333Y-110909066D01*
X163323337Y-110909076D01*
X163447900Y-111124826D01*
X163599560Y-111322474D01*
X163599566Y-111322481D01*
X163775718Y-111498633D01*
X163775725Y-111498639D01*
X163973373Y-111650299D01*
X164189123Y-111774862D01*
X164189138Y-111774869D01*
X164288325Y-111815953D01*
X164419293Y-111870202D01*
X164659935Y-111934682D01*
X164906935Y-111967200D01*
X164906942Y-111967200D01*
X165156058Y-111967200D01*
X165156065Y-111967200D01*
X165403065Y-111934682D01*
X165643707Y-111870202D01*
X165873873Y-111774864D01*
X166089627Y-111650299D01*
X166287276Y-111498638D01*
X166463438Y-111322476D01*
X166615099Y-111124827D01*
X166739664Y-110909073D01*
X166835002Y-110678907D01*
X166899482Y-110438265D01*
X166932000Y-110191265D01*
X166932000Y-109942135D01*
X166899482Y-109695135D01*
X166835002Y-109454493D01*
X166749117Y-109247148D01*
X166739669Y-109224338D01*
X166739662Y-109224323D01*
X166615099Y-109008573D01*
X166463439Y-108810925D01*
X166463433Y-108810918D01*
X166287281Y-108634766D01*
X166287274Y-108634760D01*
X166089626Y-108483100D01*
X165873876Y-108358537D01*
X165873866Y-108358533D01*
X165643705Y-108263197D01*
X165632885Y-108260298D01*
X165573226Y-108223931D01*
X165542698Y-108161084D01*
X165550995Y-108091708D01*
X165577298Y-108052846D01*
X170532039Y-103098105D01*
X170593360Y-103064622D01*
X170663052Y-103069606D01*
X170718985Y-103111478D01*
X170735900Y-103142454D01*
X170738203Y-103148630D01*
X170738206Y-103148635D01*
X170824452Y-103263844D01*
X170824455Y-103263847D01*
X170939664Y-103350093D01*
X170939671Y-103350097D01*
X171074517Y-103400391D01*
X171074516Y-103400391D01*
X171081444Y-103401135D01*
X171134127Y-103406800D01*
X172829872Y-103406799D01*
X172889483Y-103400391D01*
X173024331Y-103350096D01*
X173139546Y-103263846D01*
X173225796Y-103148631D01*
X173276091Y-103013783D01*
X173282500Y-102954173D01*
X173282499Y-101258428D01*
X173276091Y-101198817D01*
X173225796Y-101063969D01*
X173225795Y-101063968D01*
X173225793Y-101063964D01*
X173139547Y-100948755D01*
X173139544Y-100948752D01*
X173024335Y-100862506D01*
X173024328Y-100862502D01*
X172889482Y-100812208D01*
X172889483Y-100812208D01*
X172852560Y-100808239D01*
X172788009Y-100781501D01*
X172748160Y-100724109D01*
X172745667Y-100654284D01*
X172781319Y-100594195D01*
X172792930Y-100584631D01*
X172829219Y-100558266D01*
X172973966Y-100413519D01*
X172973968Y-100413515D01*
X172973971Y-100413513D01*
X173061999Y-100292351D01*
X173094287Y-100247910D01*
X173187220Y-100065519D01*
X173250477Y-99870834D01*
X173282500Y-99668652D01*
X173282500Y-99463948D01*
X173250477Y-99261766D01*
X173238962Y-99226328D01*
X173193740Y-99087147D01*
X173187220Y-99067081D01*
X173187218Y-99067078D01*
X173187218Y-99067076D01*
X173145285Y-98984780D01*
X173094287Y-98884690D01*
X173056004Y-98831997D01*
X172973971Y-98719086D01*
X172829217Y-98574332D01*
X172829212Y-98574328D01*
X172678548Y-98464865D01*
X172661283Y-98442476D01*
X172641631Y-98422161D01*
X172638256Y-98412615D01*
X172635882Y-98409536D01*
X172629848Y-98388901D01*
X172607501Y-98276556D01*
X172607213Y-98275861D01*
X172605885Y-98269228D01*
X172608445Y-98240206D01*
X172608170Y-98211072D01*
X172611479Y-98205814D01*
X172612025Y-98199628D01*
X172629867Y-98176598D01*
X172645388Y-98151940D01*
X172653777Y-98145738D01*
X172654817Y-98144397D01*
X172656305Y-98143869D01*
X172662692Y-98139149D01*
X172663599Y-98138592D01*
X172663610Y-98138587D01*
X172829219Y-98018266D01*
X172973966Y-97873519D01*
X172973968Y-97873515D01*
X172973971Y-97873513D01*
X173049701Y-97769278D01*
X173094287Y-97707910D01*
X173187220Y-97525519D01*
X173250477Y-97330834D01*
X173282500Y-97128652D01*
X173282500Y-96923948D01*
X173250477Y-96721766D01*
X173187220Y-96527081D01*
X173187218Y-96527078D01*
X173187218Y-96527076D01*
X173110138Y-96375800D01*
X173094287Y-96344690D01*
X173079753Y-96324685D01*
X172973971Y-96179086D01*
X172829213Y-96034328D01*
X172663614Y-95914015D01*
X172637085Y-95900498D01*
X172570917Y-95866783D01*
X172520123Y-95818811D01*
X172503328Y-95750990D01*
X172525865Y-95684855D01*
X172570917Y-95645816D01*
X172663610Y-95598587D01*
X172684770Y-95583213D01*
X172829213Y-95478271D01*
X172829215Y-95478268D01*
X172829219Y-95478266D01*
X172973966Y-95333519D01*
X172973968Y-95333515D01*
X172973971Y-95333513D01*
X173026732Y-95260890D01*
X173094287Y-95167910D01*
X173187220Y-94985519D01*
X173250477Y-94790834D01*
X173282500Y-94588652D01*
X173282500Y-94383948D01*
X173250477Y-94181766D01*
X173238962Y-94146328D01*
X173193740Y-94007147D01*
X173187220Y-93987081D01*
X173187218Y-93987078D01*
X173187218Y-93987076D01*
X173130333Y-93875435D01*
X173094287Y-93804690D01*
X173086556Y-93794049D01*
X172973971Y-93639086D01*
X172829213Y-93494328D01*
X172663614Y-93374015D01*
X172657006Y-93370648D01*
X172570917Y-93326783D01*
X172520123Y-93278811D01*
X172503328Y-93210990D01*
X172525865Y-93144855D01*
X172570917Y-93105816D01*
X172663610Y-93058587D01*
X172722024Y-93016147D01*
X172829213Y-92938271D01*
X172829215Y-92938268D01*
X172829219Y-92938266D01*
X172973966Y-92793519D01*
X172973968Y-92793515D01*
X172973971Y-92793513D01*
X173032851Y-92712470D01*
X173094287Y-92627910D01*
X173187220Y-92445519D01*
X173250477Y-92250834D01*
X173282500Y-92048652D01*
X173282500Y-91843948D01*
X173250477Y-91641766D01*
X173238962Y-91606328D01*
X173193740Y-91467147D01*
X173187220Y-91447081D01*
X173187218Y-91447078D01*
X173187218Y-91447076D01*
X173132312Y-91339319D01*
X173094287Y-91264690D01*
X173086556Y-91254049D01*
X172973971Y-91099086D01*
X172829213Y-90954328D01*
X172663614Y-90834015D01*
X172617212Y-90810372D01*
X172570917Y-90786783D01*
X172520123Y-90738811D01*
X172503328Y-90670990D01*
X172525865Y-90604855D01*
X172570917Y-90565816D01*
X172663610Y-90518587D01*
X172684770Y-90503213D01*
X172829213Y-90398271D01*
X172829215Y-90398268D01*
X172829219Y-90398266D01*
X172973966Y-90253519D01*
X172973968Y-90253515D01*
X172973971Y-90253513D01*
X173035294Y-90169107D01*
X173094287Y-90087910D01*
X173187220Y-89905519D01*
X173250477Y-89710834D01*
X173282500Y-89508652D01*
X173282500Y-89303948D01*
X173250477Y-89101766D01*
X173238962Y-89066328D01*
X173193740Y-88927147D01*
X173187220Y-88907081D01*
X173187218Y-88907078D01*
X173187218Y-88907076D01*
X173116306Y-88767905D01*
X173094287Y-88724690D01*
X173086556Y-88714049D01*
X172973971Y-88559086D01*
X172829213Y-88414328D01*
X172663611Y-88294013D01*
X172570369Y-88246503D01*
X172519574Y-88198529D01*
X172502779Y-88130707D01*
X172525317Y-88064573D01*
X172570371Y-88025534D01*
X172663347Y-87978161D01*
X172828894Y-87857882D01*
X172828895Y-87857882D01*
X172973582Y-87713195D01*
X172973582Y-87713194D01*
X173093859Y-87547649D01*
X173186755Y-87365329D01*
X173249990Y-87170713D01*
X173258609Y-87116300D01*
X172297686Y-87116300D01*
X172302080Y-87111906D01*
X172354741Y-87020694D01*
X172382000Y-86918961D01*
X172382000Y-86813639D01*
X172354741Y-86711906D01*
X172302080Y-86620694D01*
X172297686Y-86616300D01*
X173258609Y-86616300D01*
X173249990Y-86561886D01*
X173186755Y-86367270D01*
X173093859Y-86184950D01*
X172973582Y-86019405D01*
X172973582Y-86019404D01*
X172828895Y-85874717D01*
X172663349Y-85754440D01*
X172570370Y-85707065D01*
X172519574Y-85659090D01*
X172502779Y-85591269D01*
X172525316Y-85525135D01*
X172570370Y-85486095D01*
X172663610Y-85438587D01*
X172684770Y-85423213D01*
X172829213Y-85318271D01*
X172829215Y-85318268D01*
X172829219Y-85318266D01*
X172973966Y-85173519D01*
X172973968Y-85173515D01*
X172973971Y-85173513D01*
X173027560Y-85099753D01*
X173094287Y-85007910D01*
X173187220Y-84825519D01*
X173250477Y-84630834D01*
X173282500Y-84428652D01*
X173282500Y-84223948D01*
X173263743Y-84105525D01*
X173250477Y-84021765D01*
X173202931Y-83875435D01*
X173187220Y-83827081D01*
X173187218Y-83827078D01*
X173187218Y-83827076D01*
X173142506Y-83739325D01*
X173094287Y-83644690D01*
X173086556Y-83634049D01*
X172973971Y-83479086D01*
X172829213Y-83334328D01*
X172663613Y-83214015D01*
X172663612Y-83214014D01*
X172663610Y-83214013D01*
X172590970Y-83177001D01*
X172481223Y-83121081D01*
X172286534Y-83057822D01*
X172107498Y-83029466D01*
X172084352Y-83025800D01*
X171879648Y-83025800D01*
X171856502Y-83029466D01*
X171677465Y-83057822D01*
X171482776Y-83121081D01*
X171300386Y-83214015D01*
X171134786Y-83334328D01*
X170990034Y-83479080D01*
X170962137Y-83517478D01*
X170884246Y-83624686D01*
X170828918Y-83667351D01*
X170783929Y-83675800D01*
X164194208Y-83675800D01*
X164127169Y-83656115D01*
X164106527Y-83639481D01*
X159366674Y-78899627D01*
X159366673Y-78899626D01*
X159355224Y-78891976D01*
X159260127Y-78828435D01*
X159141744Y-78779399D01*
X159141738Y-78779397D01*
X159016071Y-78754400D01*
X159016069Y-78754400D01*
X155187231Y-78754400D01*
X155120192Y-78734715D01*
X155074437Y-78681911D01*
X155064493Y-78612753D01*
X155076746Y-78574105D01*
X155148882Y-78432529D01*
X155148882Y-78432528D01*
X155148884Y-78432525D01*
X155209709Y-78245326D01*
X155225780Y-78143857D01*
X155240500Y-78050922D01*
X155240500Y-77925041D01*
X164832400Y-77925041D01*
X164832400Y-78174158D01*
X164832401Y-78174175D01*
X164864917Y-78421161D01*
X164929398Y-78661807D01*
X165024730Y-78891961D01*
X165024737Y-78891976D01*
X165149300Y-79107726D01*
X165300960Y-79305374D01*
X165300966Y-79305381D01*
X165477118Y-79481533D01*
X165477125Y-79481539D01*
X165674773Y-79633199D01*
X165890523Y-79757762D01*
X165890538Y-79757769D01*
X165933746Y-79775666D01*
X166120693Y-79853102D01*
X166361335Y-79917582D01*
X166608335Y-79950100D01*
X166608342Y-79950100D01*
X166857458Y-79950100D01*
X166857465Y-79950100D01*
X167104465Y-79917582D01*
X167345107Y-79853102D01*
X167575273Y-79757764D01*
X167791027Y-79633199D01*
X167988676Y-79481538D01*
X168164838Y-79305376D01*
X168316499Y-79107727D01*
X168441064Y-78891973D01*
X168536402Y-78661807D01*
X168600882Y-78421165D01*
X168633400Y-78174165D01*
X168633400Y-77925035D01*
X168600882Y-77678035D01*
X168536402Y-77437393D01*
X168463766Y-77262034D01*
X168441069Y-77207238D01*
X168441062Y-77207223D01*
X168316499Y-76991473D01*
X168164839Y-76793825D01*
X168164833Y-76793818D01*
X167988681Y-76617666D01*
X167988674Y-76617660D01*
X167791026Y-76466000D01*
X167575276Y-76341437D01*
X167575261Y-76341430D01*
X167345107Y-76246098D01*
X167274362Y-76227142D01*
X167104465Y-76181618D01*
X167104464Y-76181617D01*
X167104461Y-76181617D01*
X166857475Y-76149101D01*
X166857470Y-76149100D01*
X166857465Y-76149100D01*
X166608335Y-76149100D01*
X166608329Y-76149100D01*
X166608324Y-76149101D01*
X166361338Y-76181617D01*
X166120692Y-76246098D01*
X165890538Y-76341430D01*
X165890523Y-76341437D01*
X165674773Y-76466000D01*
X165477125Y-76617660D01*
X165477118Y-76617666D01*
X165300966Y-76793818D01*
X165300960Y-76793825D01*
X165149300Y-76991473D01*
X165024737Y-77207223D01*
X165024730Y-77207238D01*
X164929398Y-77437392D01*
X164864917Y-77678038D01*
X164832401Y-77925024D01*
X164832400Y-77925041D01*
X155240500Y-77925041D01*
X155240500Y-77854077D01*
X155209709Y-77659673D01*
X155181347Y-77572386D01*
X155148884Y-77472475D01*
X155148882Y-77472472D01*
X155148882Y-77472470D01*
X155099745Y-77376034D01*
X155059524Y-77297095D01*
X154943828Y-77137854D01*
X154804646Y-76998672D01*
X154725025Y-76940824D01*
X154645403Y-76882974D01*
X154468787Y-76792985D01*
X154417990Y-76745011D01*
X154401195Y-76677190D01*
X154423732Y-76611055D01*
X154468787Y-76572015D01*
X154645403Y-76482025D01*
X154645402Y-76482025D01*
X154645405Y-76482024D01*
X154804646Y-76366328D01*
X154943828Y-76227146D01*
X155027477Y-76112012D01*
X155082806Y-76069349D01*
X155127794Y-76060900D01*
X159904065Y-76060900D01*
X159971104Y-76080585D01*
X159972909Y-76081766D01*
X160029821Y-76119794D01*
X160029823Y-76119795D01*
X160029827Y-76119797D01*
X160175498Y-76180135D01*
X160175503Y-76180137D01*
X160330153Y-76210899D01*
X160330156Y-76210900D01*
X160330158Y-76210900D01*
X160487844Y-76210900D01*
X160487845Y-76210899D01*
X160642497Y-76180137D01*
X160788179Y-76119794D01*
X160919289Y-76032189D01*
X161030789Y-75920689D01*
X161118394Y-75789579D01*
X161178737Y-75643897D01*
X161209500Y-75489242D01*
X161209500Y-75331558D01*
X161209500Y-75331555D01*
X161209499Y-75331553D01*
X161206023Y-75314077D01*
X161178737Y-75176903D01*
X161155032Y-75119673D01*
X161118397Y-75031227D01*
X161118390Y-75031214D01*
X161030789Y-74900111D01*
X161030786Y-74900107D01*
X160919292Y-74788613D01*
X160919288Y-74788610D01*
X160788185Y-74701009D01*
X160788172Y-74701002D01*
X160642501Y-74640664D01*
X160642489Y-74640661D01*
X160487845Y-74609900D01*
X160487842Y-74609900D01*
X160330158Y-74609900D01*
X160330155Y-74609900D01*
X160175510Y-74640661D01*
X160175498Y-74640664D01*
X160029827Y-74701002D01*
X160029820Y-74701006D01*
X160018177Y-74708786D01*
X159972955Y-74739002D01*
X159906279Y-74759880D01*
X159904065Y-74759900D01*
X155124743Y-74759900D01*
X155057704Y-74740215D01*
X155024425Y-74708786D01*
X155018775Y-74701009D01*
X154943828Y-74597854D01*
X154804646Y-74458672D01*
X154647408Y-74344431D01*
X154645403Y-74342974D01*
X154468787Y-74252985D01*
X154417990Y-74205011D01*
X154401195Y-74137190D01*
X154423732Y-74071055D01*
X154468787Y-74032015D01*
X154645403Y-73942025D01*
X154645402Y-73942025D01*
X154645405Y-73942024D01*
X154804646Y-73826328D01*
X154943828Y-73687146D01*
X155059524Y-73527905D01*
X155148884Y-73352525D01*
X155209709Y-73165326D01*
X155227106Y-73055485D01*
X155240500Y-72970922D01*
X155240500Y-72925035D01*
X164832400Y-72925035D01*
X164832400Y-73174165D01*
X164864918Y-73421165D01*
X164893519Y-73527905D01*
X164929398Y-73661807D01*
X165024730Y-73891961D01*
X165024737Y-73891976D01*
X165149300Y-74107726D01*
X165300960Y-74305374D01*
X165300966Y-74305381D01*
X165477118Y-74481533D01*
X165477125Y-74481539D01*
X165674773Y-74633199D01*
X165890523Y-74757762D01*
X165890538Y-74757769D01*
X165964998Y-74788611D01*
X166120693Y-74853102D01*
X166361335Y-74917582D01*
X166608335Y-74950100D01*
X166608342Y-74950100D01*
X166857458Y-74950100D01*
X166857465Y-74950100D01*
X167104465Y-74917582D01*
X167345107Y-74853102D01*
X167575273Y-74757764D01*
X167791027Y-74633199D01*
X167988676Y-74481538D01*
X168164838Y-74305376D01*
X168316499Y-74107727D01*
X168441064Y-73891973D01*
X168536402Y-73661807D01*
X168600882Y-73421165D01*
X168633400Y-73174165D01*
X168633400Y-72925035D01*
X168600882Y-72678035D01*
X168536402Y-72437393D01*
X168472765Y-72283760D01*
X168441069Y-72207238D01*
X168441062Y-72207223D01*
X168316499Y-71991473D01*
X168164839Y-71793825D01*
X168164833Y-71793818D01*
X167988681Y-71617666D01*
X167988674Y-71617660D01*
X167791026Y-71466000D01*
X167575276Y-71341437D01*
X167575261Y-71341430D01*
X167345107Y-71246098D01*
X167104461Y-71181617D01*
X166857475Y-71149101D01*
X166857470Y-71149100D01*
X166857465Y-71149100D01*
X166608335Y-71149100D01*
X166608329Y-71149100D01*
X166608324Y-71149101D01*
X166361338Y-71181617D01*
X166120692Y-71246098D01*
X165890538Y-71341430D01*
X165890523Y-71341437D01*
X165674773Y-71466000D01*
X165477125Y-71617660D01*
X165477118Y-71617666D01*
X165300966Y-71793818D01*
X165300960Y-71793825D01*
X165149300Y-71991473D01*
X165024737Y-72207223D01*
X165024730Y-72207238D01*
X164929398Y-72437392D01*
X164864917Y-72678038D01*
X164848795Y-72800499D01*
X164832400Y-72925035D01*
X155240500Y-72925035D01*
X155240500Y-72774077D01*
X155209709Y-72579673D01*
X155163479Y-72437393D01*
X155148884Y-72392475D01*
X155148882Y-72392472D01*
X155148882Y-72392470D01*
X155070131Y-72237913D01*
X155059524Y-72217095D01*
X154943828Y-72057854D01*
X154804646Y-71918672D01*
X154668947Y-71820080D01*
X154645403Y-71802974D01*
X154468787Y-71712985D01*
X154417990Y-71665011D01*
X154401195Y-71597190D01*
X154423732Y-71531055D01*
X154468787Y-71492015D01*
X154645403Y-71402025D01*
X154645402Y-71402025D01*
X154645405Y-71402024D01*
X154804646Y-71286328D01*
X154943828Y-71147146D01*
X155059524Y-70987905D01*
X155148884Y-70812525D01*
X155209709Y-70625326D01*
X155211775Y-70612284D01*
X155240500Y-70430922D01*
X155240500Y-70234077D01*
X155209709Y-70039673D01*
X155177032Y-69939105D01*
X155148884Y-69852475D01*
X155148882Y-69852472D01*
X155148882Y-69852470D01*
X155059523Y-69677094D01*
X155056937Y-69673535D01*
X154943828Y-69517854D01*
X154804646Y-69378672D01*
X154725025Y-69320824D01*
X154645403Y-69262974D01*
X154468787Y-69172985D01*
X154417990Y-69125011D01*
X154401195Y-69057190D01*
X154423732Y-68991055D01*
X154468787Y-68952015D01*
X154645403Y-68862025D01*
X154645402Y-68862025D01*
X154645405Y-68862024D01*
X154804646Y-68746328D01*
X154943828Y-68607146D01*
X155059524Y-68447905D01*
X155148884Y-68272525D01*
X155209709Y-68085326D01*
X155235790Y-67920657D01*
X155240500Y-67890922D01*
X155240500Y-67694077D01*
X155209709Y-67499673D01*
X155148882Y-67312470D01*
X155059523Y-67137094D01*
X155056949Y-67133551D01*
X154943828Y-66977854D01*
X154815588Y-66849614D01*
X164832900Y-66849614D01*
X164832900Y-67799600D01*
X166132899Y-67799600D01*
X166107879Y-67860002D01*
X166082900Y-67985581D01*
X166082900Y-68113619D01*
X166107879Y-68239198D01*
X166132899Y-68299600D01*
X164832900Y-68299600D01*
X164832900Y-69249585D01*
X164843393Y-69352289D01*
X164843394Y-69352296D01*
X164898541Y-69518718D01*
X164898543Y-69518723D01*
X164990584Y-69667944D01*
X165114555Y-69791915D01*
X165263776Y-69883956D01*
X165263781Y-69883958D01*
X165430203Y-69939105D01*
X165430210Y-69939106D01*
X165532914Y-69949599D01*
X165532927Y-69949600D01*
X166482900Y-69949600D01*
X166482900Y-68649601D01*
X166543302Y-68674621D01*
X166668881Y-68699600D01*
X166796919Y-68699600D01*
X166922498Y-68674621D01*
X166982900Y-68649601D01*
X166982900Y-69949600D01*
X167932873Y-69949600D01*
X167932885Y-69949599D01*
X168035589Y-69939106D01*
X168035596Y-69939105D01*
X168202018Y-69883958D01*
X168202023Y-69883956D01*
X168351244Y-69791915D01*
X168475215Y-69667944D01*
X168567256Y-69518723D01*
X168567258Y-69518718D01*
X168622405Y-69352296D01*
X168622406Y-69352289D01*
X168632899Y-69249585D01*
X168632900Y-69249572D01*
X168632900Y-68299600D01*
X167332901Y-68299600D01*
X167357921Y-68239198D01*
X167382900Y-68113619D01*
X167382900Y-67985581D01*
X167357921Y-67860002D01*
X167332901Y-67799600D01*
X168632900Y-67799600D01*
X168632900Y-66849627D01*
X168632899Y-66849614D01*
X168622406Y-66746910D01*
X168622405Y-66746903D01*
X168567258Y-66580481D01*
X168567256Y-66580476D01*
X168475215Y-66431255D01*
X168351244Y-66307284D01*
X168202023Y-66215243D01*
X168202018Y-66215241D01*
X168035596Y-66160094D01*
X168035589Y-66160093D01*
X167932885Y-66149600D01*
X166982900Y-66149600D01*
X166982900Y-67449598D01*
X166922498Y-67424579D01*
X166796919Y-67399600D01*
X166668881Y-67399600D01*
X166543302Y-67424579D01*
X166482900Y-67449598D01*
X166482900Y-66149600D01*
X165532914Y-66149600D01*
X165430210Y-66160093D01*
X165430203Y-66160094D01*
X165263781Y-66215241D01*
X165263776Y-66215243D01*
X165114555Y-66307284D01*
X164990584Y-66431255D01*
X164898543Y-66580476D01*
X164898541Y-66580481D01*
X164843394Y-66746903D01*
X164843393Y-66746910D01*
X164832900Y-66849614D01*
X154815588Y-66849614D01*
X154804646Y-66838672D01*
X154645405Y-66722976D01*
X154470029Y-66633617D01*
X154282826Y-66572790D01*
X154088422Y-66542000D01*
X154088417Y-66542000D01*
X153891583Y-66542000D01*
X153891578Y-66542000D01*
X153697173Y-66572790D01*
X153509970Y-66633617D01*
X153334594Y-66722976D01*
X153243741Y-66788985D01*
X153175354Y-66838672D01*
X153175352Y-66838674D01*
X153175351Y-66838674D01*
X153036174Y-66977851D01*
X153036174Y-66977852D01*
X153036172Y-66977854D01*
X153009024Y-67015220D01*
X152920476Y-67137094D01*
X152831117Y-67312470D01*
X152770290Y-67499673D01*
X152739500Y-67694077D01*
X152739500Y-67890922D01*
X152770290Y-68085326D01*
X152831117Y-68272529D01*
X152886905Y-68382018D01*
X152920476Y-68447905D01*
X153036172Y-68607146D01*
X153175354Y-68746328D01*
X153334595Y-68862024D01*
X153359079Y-68874499D01*
X153511213Y-68952015D01*
X153562009Y-68999989D01*
X153578804Y-69067810D01*
X153556267Y-69133945D01*
X153511213Y-69172985D01*
X153334594Y-69262976D01*
X153243741Y-69328985D01*
X153175354Y-69378672D01*
X153175352Y-69378674D01*
X153175351Y-69378674D01*
X153036174Y-69517851D01*
X153036174Y-69517852D01*
X153036172Y-69517854D01*
X152986485Y-69586241D01*
X152920476Y-69677094D01*
X152831117Y-69852470D01*
X152770290Y-70039673D01*
X152739500Y-70234077D01*
X152739500Y-70430922D01*
X152770290Y-70625326D01*
X152831117Y-70812529D01*
X152914944Y-70977048D01*
X152920476Y-70987905D01*
X153036172Y-71147146D01*
X153175354Y-71286328D01*
X153334595Y-71402024D01*
X153457992Y-71464897D01*
X153511213Y-71492015D01*
X153562009Y-71539989D01*
X153578804Y-71607810D01*
X153556267Y-71673945D01*
X153511213Y-71712985D01*
X153334594Y-71802976D01*
X153311053Y-71820080D01*
X153175354Y-71918672D01*
X153175352Y-71918674D01*
X153175351Y-71918674D01*
X153036174Y-72057851D01*
X153036174Y-72057852D01*
X153036172Y-72057854D01*
X153022650Y-72076466D01*
X152920476Y-72217094D01*
X152831117Y-72392470D01*
X152770290Y-72579673D01*
X152739500Y-72774077D01*
X152739500Y-72970922D01*
X152770290Y-73165326D01*
X152831117Y-73352529D01*
X152894775Y-73477464D01*
X152920476Y-73527905D01*
X153036172Y-73687146D01*
X153175354Y-73826328D01*
X153334595Y-73942024D01*
X153436261Y-73993825D01*
X153511213Y-74032015D01*
X153562009Y-74079989D01*
X153578804Y-74147810D01*
X153556267Y-74213945D01*
X153511213Y-74252985D01*
X153334594Y-74342976D01*
X153243741Y-74408985D01*
X153175354Y-74458672D01*
X153175352Y-74458674D01*
X153175351Y-74458674D01*
X153036174Y-74597851D01*
X153036169Y-74597857D01*
X152954050Y-74710885D01*
X152949718Y-74714225D01*
X152947445Y-74719203D01*
X152922342Y-74735335D01*
X152898720Y-74753551D01*
X152892048Y-74754803D01*
X152888667Y-74756977D01*
X152853732Y-74762000D01*
X152683597Y-74762000D01*
X152616558Y-74742315D01*
X152570803Y-74689511D01*
X152560859Y-74620353D01*
X152569036Y-74590548D01*
X152614188Y-74481539D01*
X152614537Y-74480697D01*
X152645300Y-74326042D01*
X152645300Y-74168358D01*
X152645300Y-74168355D01*
X152645299Y-74168353D01*
X152625945Y-74071055D01*
X152614537Y-74013703D01*
X152606303Y-73993825D01*
X152554197Y-73868027D01*
X152554190Y-73868014D01*
X152466589Y-73736911D01*
X152466586Y-73736907D01*
X152355092Y-73625413D01*
X152355088Y-73625410D01*
X152223985Y-73537809D01*
X152223972Y-73537802D01*
X152078301Y-73477464D01*
X152078289Y-73477461D01*
X151923645Y-73446700D01*
X151923642Y-73446700D01*
X151765958Y-73446700D01*
X151765955Y-73446700D01*
X151611310Y-73477461D01*
X151611298Y-73477464D01*
X151465627Y-73537802D01*
X151465620Y-73537806D01*
X151436728Y-73557111D01*
X151408755Y-73575802D01*
X151342079Y-73596680D01*
X151339865Y-73596700D01*
X134139229Y-73596700D01*
X134013561Y-73621697D01*
X134013555Y-73621699D01*
X133895170Y-73670735D01*
X133788631Y-73741922D01*
X133788624Y-73741928D01*
X131763173Y-75767381D01*
X131701850Y-75800866D01*
X131675492Y-75803700D01*
X129939313Y-75803700D01*
X129872274Y-75784015D01*
X129826519Y-75731211D01*
X129816575Y-75662053D01*
X129816840Y-75660302D01*
X129840500Y-75510922D01*
X129840500Y-75314077D01*
X129809709Y-75119673D01*
X129780966Y-75031214D01*
X129748884Y-74932475D01*
X129748882Y-74932472D01*
X129748882Y-74932470D01*
X129675582Y-74788611D01*
X129659524Y-74757095D01*
X129543828Y-74597854D01*
X129404646Y-74458672D01*
X129247408Y-74344431D01*
X129245403Y-74342974D01*
X129068787Y-74252985D01*
X129017990Y-74205011D01*
X129001195Y-74137190D01*
X129023732Y-74071055D01*
X129068787Y-74032015D01*
X129245403Y-73942025D01*
X129245402Y-73942025D01*
X129245405Y-73942024D01*
X129404646Y-73826328D01*
X129543828Y-73687146D01*
X129659524Y-73527905D01*
X129748884Y-73352525D01*
X129809709Y-73165326D01*
X129827106Y-73055485D01*
X129840500Y-72970922D01*
X129840500Y-72774077D01*
X129809709Y-72579673D01*
X129763479Y-72437393D01*
X129748884Y-72392475D01*
X129748882Y-72392472D01*
X129748882Y-72392470D01*
X129670131Y-72237913D01*
X129659524Y-72217095D01*
X129543828Y-72057854D01*
X129404646Y-71918672D01*
X129268947Y-71820080D01*
X129245403Y-71802974D01*
X129068787Y-71712985D01*
X129017990Y-71665011D01*
X129001195Y-71597190D01*
X129023732Y-71531055D01*
X129068787Y-71492015D01*
X129245403Y-71402025D01*
X129245402Y-71402025D01*
X129245405Y-71402024D01*
X129404646Y-71286328D01*
X129543828Y-71147146D01*
X129659524Y-70987905D01*
X129748884Y-70812525D01*
X129809709Y-70625326D01*
X129811775Y-70612284D01*
X129840500Y-70430922D01*
X129840500Y-70234077D01*
X129809709Y-70039673D01*
X129777032Y-69939105D01*
X129748884Y-69852475D01*
X129748882Y-69852472D01*
X129748882Y-69852470D01*
X129659523Y-69677094D01*
X129656937Y-69673535D01*
X129543828Y-69517854D01*
X129404646Y-69378672D01*
X129325025Y-69320824D01*
X129245403Y-69262974D01*
X129068787Y-69172985D01*
X129017990Y-69125011D01*
X129001195Y-69057190D01*
X129023732Y-68991055D01*
X129068787Y-68952015D01*
X129245403Y-68862025D01*
X129245402Y-68862025D01*
X129245405Y-68862024D01*
X129404646Y-68746328D01*
X129543828Y-68607146D01*
X129659524Y-68447905D01*
X129748884Y-68272525D01*
X129809709Y-68085326D01*
X129835790Y-67920657D01*
X129840500Y-67890922D01*
X129840500Y-67694077D01*
X129809709Y-67499673D01*
X129748882Y-67312470D01*
X129659523Y-67137094D01*
X129656949Y-67133551D01*
X129543828Y-66977854D01*
X129404646Y-66838672D01*
X129245405Y-66722976D01*
X129070029Y-66633617D01*
X128882826Y-66572790D01*
X128688422Y-66542000D01*
X128688417Y-66542000D01*
X128491583Y-66542000D01*
X128491578Y-66542000D01*
X128297173Y-66572790D01*
X128109970Y-66633617D01*
X127934594Y-66722976D01*
X127843741Y-66788985D01*
X127775354Y-66838672D01*
X127775352Y-66838674D01*
X127775351Y-66838674D01*
X127636174Y-66977851D01*
X127636169Y-66977857D01*
X127554050Y-67090885D01*
X127498720Y-67133551D01*
X127453732Y-67142000D01*
X120924500Y-67142000D01*
X120857461Y-67122315D01*
X120811706Y-67069511D01*
X120800500Y-67018000D01*
X120800500Y-66897648D01*
X120768477Y-66695465D01*
X120706846Y-66505786D01*
X120705220Y-66500781D01*
X120705218Y-66500778D01*
X120705218Y-66500776D01*
X120669795Y-66431255D01*
X120612287Y-66318390D01*
X120604218Y-66307284D01*
X120491971Y-66152786D01*
X120347213Y-66008028D01*
X120181613Y-65887715D01*
X120181612Y-65887714D01*
X120181610Y-65887713D01*
X120124653Y-65858691D01*
X119999223Y-65794781D01*
X119804534Y-65731522D01*
X119629995Y-65703878D01*
X119602352Y-65699500D01*
X119397648Y-65699500D01*
X119373329Y-65703351D01*
X119195465Y-65731522D01*
X119000776Y-65794781D01*
X118818386Y-65887715D01*
X118652786Y-66008028D01*
X118508028Y-66152786D01*
X118387715Y-66318386D01*
X118294781Y-66500776D01*
X118231522Y-66695465D01*
X118199500Y-66897648D01*
X118199500Y-67102351D01*
X118231522Y-67304534D01*
X118294781Y-67499223D01*
X118387715Y-67681613D01*
X118444732Y-67760091D01*
X118468212Y-67825897D01*
X118452386Y-67893951D01*
X118432095Y-67920657D01*
X118166471Y-68186282D01*
X118105151Y-68219766D01*
X118078792Y-68222600D01*
X112962829Y-68222600D01*
X112837161Y-68247597D01*
X112837151Y-68247600D01*
X112788120Y-68267910D01*
X112718781Y-68296630D01*
X112718763Y-68296640D01*
X112612232Y-68367821D01*
X112612225Y-68367827D01*
X110816871Y-70163181D01*
X110755548Y-70196666D01*
X110729192Y-70199500D01*
X110652130Y-70199500D01*
X110652123Y-70199501D01*
X110592516Y-70205908D01*
X110457671Y-70256202D01*
X110457664Y-70256206D01*
X110342449Y-70342456D01*
X110340097Y-70344809D01*
X110337182Y-70346400D01*
X110335355Y-70347768D01*
X110335158Y-70347505D01*
X110278770Y-70378287D01*
X110209079Y-70373295D01*
X110164745Y-70344799D01*
X109564674Y-69744727D01*
X109564673Y-69744726D01*
X109564669Y-69744723D01*
X109458127Y-69673535D01*
X109444629Y-69667944D01*
X109339744Y-69624499D01*
X109339738Y-69624497D01*
X109214071Y-69599500D01*
X109214069Y-69599500D01*
X105902994Y-69599500D01*
X105835955Y-69579815D01*
X105790200Y-69527011D01*
X105788433Y-69522952D01*
X105740669Y-69407638D01*
X105740662Y-69407623D01*
X105616099Y-69191873D01*
X105464439Y-68994225D01*
X105464433Y-68994218D01*
X105288281Y-68818066D01*
X105288274Y-68818060D01*
X105090626Y-68666400D01*
X104874876Y-68541837D01*
X104874861Y-68541830D01*
X104644707Y-68446498D01*
X104404061Y-68382017D01*
X104157075Y-68349501D01*
X104157070Y-68349500D01*
X104157065Y-68349500D01*
X103907935Y-68349500D01*
X103907929Y-68349500D01*
X103907924Y-68349501D01*
X103660938Y-68382017D01*
X103420292Y-68446498D01*
X103190138Y-68541830D01*
X103190123Y-68541837D01*
X102974373Y-68666400D01*
X102776725Y-68818060D01*
X102776718Y-68818066D01*
X102600566Y-68994218D01*
X102600560Y-68994225D01*
X102448900Y-69191873D01*
X102324337Y-69407623D01*
X102324330Y-69407638D01*
X102228998Y-69637792D01*
X102164517Y-69878438D01*
X102132001Y-70125424D01*
X102132000Y-70125441D01*
X102132000Y-70374558D01*
X102132001Y-70374575D01*
X102164517Y-70621561D01*
X102228998Y-70862207D01*
X102324330Y-71092361D01*
X102324337Y-71092376D01*
X102448900Y-71308126D01*
X102600560Y-71505774D01*
X102600566Y-71505781D01*
X102776718Y-71681933D01*
X102776725Y-71681939D01*
X102974373Y-71833599D01*
X103190123Y-71958162D01*
X103190138Y-71958169D01*
X103270542Y-71991473D01*
X103420293Y-72053502D01*
X103660935Y-72117982D01*
X103907935Y-72150500D01*
X103907942Y-72150500D01*
X104157058Y-72150500D01*
X104157065Y-72150500D01*
X104404065Y-72117982D01*
X104644707Y-72053502D01*
X104874873Y-71958164D01*
X105090627Y-71833599D01*
X105288276Y-71681938D01*
X105464438Y-71505776D01*
X105616099Y-71308127D01*
X105740664Y-71092373D01*
X105788433Y-70977048D01*
X105832273Y-70922644D01*
X105898567Y-70900579D01*
X105902994Y-70900500D01*
X108829192Y-70900500D01*
X108896231Y-70920185D01*
X108916873Y-70936819D01*
X109894723Y-71914669D01*
X109971527Y-71991473D01*
X109985330Y-72005276D01*
X110075616Y-72065603D01*
X110075617Y-72065603D01*
X110075618Y-72065604D01*
X110091873Y-72076465D01*
X110091874Y-72076465D01*
X110091875Y-72076466D01*
X110122953Y-72089339D01*
X110177356Y-72133180D01*
X110199421Y-72199474D01*
X110199500Y-72203899D01*
X110199500Y-72347869D01*
X110199501Y-72347876D01*
X110205908Y-72407483D01*
X110256202Y-72542328D01*
X110256206Y-72542335D01*
X110342452Y-72657544D01*
X110342455Y-72657547D01*
X110457664Y-72743793D01*
X110457671Y-72743797D01*
X110592517Y-72794091D01*
X110592516Y-72794091D01*
X110599444Y-72794835D01*
X110652127Y-72800500D01*
X112347872Y-72800499D01*
X112407483Y-72794091D01*
X112542331Y-72743796D01*
X112657546Y-72657546D01*
X112743796Y-72542331D01*
X112794091Y-72407483D01*
X112800500Y-72347873D01*
X112800499Y-72335612D01*
X112804075Y-72321052D01*
X112814342Y-72303380D01*
X112820067Y-72283760D01*
X112831539Y-72273783D01*
X112839177Y-72260640D01*
X112857367Y-72251325D01*
X112872792Y-72237913D01*
X112889280Y-72234984D01*
X112901367Y-72228795D01*
X112916018Y-72230234D01*
X112916254Y-72230192D01*
X113600000Y-71546446D01*
X113600000Y-71552661D01*
X113627259Y-71654394D01*
X113679920Y-71745606D01*
X113754394Y-71820080D01*
X113845606Y-71872741D01*
X113947339Y-71900000D01*
X113953553Y-71900000D01*
X113274076Y-72579474D01*
X113318650Y-72611859D01*
X113500968Y-72704755D01*
X113695582Y-72767990D01*
X113897683Y-72800000D01*
X114102317Y-72800000D01*
X114304417Y-72767990D01*
X114499031Y-72704755D01*
X114681349Y-72611859D01*
X114725921Y-72579474D01*
X114046447Y-71900000D01*
X114052661Y-71900000D01*
X114154394Y-71872741D01*
X114245606Y-71820080D01*
X114320080Y-71745606D01*
X114372741Y-71654394D01*
X114400000Y-71552661D01*
X114400000Y-71546447D01*
X115079474Y-72225921D01*
X115111859Y-72181349D01*
X115204755Y-71999031D01*
X115267990Y-71804417D01*
X115300000Y-71602317D01*
X115300000Y-71397682D01*
X115267990Y-71195582D01*
X115204755Y-71000968D01*
X115111859Y-70818650D01*
X115079474Y-70774077D01*
X115079474Y-70774076D01*
X114400000Y-71453551D01*
X114400000Y-71447339D01*
X114372741Y-71345606D01*
X114320080Y-71254394D01*
X114245606Y-71179920D01*
X114154394Y-71127259D01*
X114052661Y-71100000D01*
X114046447Y-71100000D01*
X114732978Y-70413468D01*
X114741805Y-70371452D01*
X114790856Y-70321695D01*
X114851059Y-70306100D01*
X118415751Y-70306100D01*
X118482790Y-70325785D01*
X118504034Y-70344328D01*
X118504589Y-70343774D01*
X118652786Y-70491971D01*
X118791177Y-70592516D01*
X118818390Y-70612287D01*
X118903055Y-70655426D01*
X119000776Y-70705218D01*
X119000778Y-70705218D01*
X119000781Y-70705220D01*
X119105137Y-70739127D01*
X119195465Y-70768477D01*
X119230822Y-70774077D01*
X119397648Y-70800500D01*
X119397649Y-70800500D01*
X119602351Y-70800500D01*
X119602352Y-70800500D01*
X119804534Y-70768477D01*
X119999219Y-70705220D01*
X120181610Y-70612287D01*
X120274590Y-70544732D01*
X120347213Y-70491971D01*
X120347215Y-70491968D01*
X120347219Y-70491966D01*
X120491966Y-70347219D01*
X120597753Y-70201613D01*
X120653082Y-70158949D01*
X120698071Y-70150500D01*
X122356692Y-70150500D01*
X122423731Y-70170185D01*
X122444373Y-70186819D01*
X125494673Y-73237119D01*
X125528158Y-73298442D01*
X125523174Y-73368134D01*
X125481302Y-73424067D01*
X125415838Y-73448484D01*
X125406992Y-73448800D01*
X106563629Y-73448800D01*
X106437961Y-73473797D01*
X106437955Y-73473799D01*
X106319574Y-73522834D01*
X106213026Y-73594026D01*
X105813227Y-73993825D01*
X105813221Y-73993832D01*
X105762996Y-74069000D01*
X105762997Y-74069001D01*
X105742034Y-74100374D01*
X105692999Y-74218755D01*
X105692997Y-74218761D01*
X105668000Y-74344428D01*
X105668000Y-75017771D01*
X105685227Y-75104373D01*
X105685227Y-75104374D01*
X105692997Y-75143437D01*
X105692998Y-75143442D01*
X105742034Y-75261825D01*
X105813226Y-75368373D01*
X109204128Y-78759275D01*
X109204131Y-78759277D01*
X109263733Y-78799101D01*
X109310673Y-78830465D01*
X109429056Y-78879501D01*
X109429060Y-78879501D01*
X109429061Y-78879502D01*
X109554728Y-78904500D01*
X109554731Y-78904500D01*
X109665701Y-78904500D01*
X109732740Y-78924185D01*
X109778495Y-78976989D01*
X109789701Y-79028500D01*
X109789701Y-79101876D01*
X109796108Y-79161483D01*
X109846402Y-79296328D01*
X109846406Y-79296335D01*
X109932652Y-79411544D01*
X109932655Y-79411547D01*
X110047864Y-79497793D01*
X110047871Y-79497797D01*
X110092818Y-79514561D01*
X110182717Y-79548091D01*
X110219641Y-79552060D01*
X110284189Y-79578796D01*
X110324038Y-79636188D01*
X110326533Y-79706013D01*
X110290881Y-79766102D01*
X110279271Y-79775666D01*
X110242984Y-79802030D01*
X110098228Y-79946786D01*
X109977915Y-80112386D01*
X109884981Y-80294776D01*
X109821722Y-80489465D01*
X109795528Y-80654853D01*
X109789700Y-80691648D01*
X109789700Y-80896352D01*
X109796538Y-80939522D01*
X109821723Y-81098535D01*
X109821723Y-81098538D01*
X109871321Y-81251182D01*
X109873316Y-81321023D01*
X109837236Y-81380856D01*
X109774535Y-81411684D01*
X109753390Y-81413500D01*
X106884808Y-81413500D01*
X106817769Y-81393815D01*
X106797127Y-81377181D01*
X105436819Y-80016873D01*
X105403334Y-79955550D01*
X105400500Y-79929192D01*
X105400500Y-77799997D01*
X105400499Y-77799984D01*
X105389999Y-77697204D01*
X105389999Y-77697203D01*
X105334814Y-77530666D01*
X105283345Y-77447223D01*
X105242713Y-77381348D01*
X105242710Y-77381344D01*
X105118655Y-77257289D01*
X105118651Y-77257286D01*
X104969337Y-77165187D01*
X104969335Y-77165186D01*
X104886065Y-77137593D01*
X104802797Y-77110001D01*
X104802795Y-77110000D01*
X104700015Y-77099500D01*
X104700008Y-77099500D01*
X102299992Y-77099500D01*
X102299984Y-77099500D01*
X102197204Y-77110000D01*
X102197203Y-77110001D01*
X102030664Y-77165186D01*
X102030662Y-77165187D01*
X101881348Y-77257286D01*
X101881344Y-77257289D01*
X101757289Y-77381344D01*
X101757286Y-77381348D01*
X101665187Y-77530662D01*
X101665186Y-77530664D01*
X101610001Y-77697203D01*
X101610000Y-77697204D01*
X101599500Y-77799984D01*
X97250500Y-77799984D01*
X97250500Y-65125441D01*
X102132000Y-65125441D01*
X102132000Y-65374558D01*
X102132001Y-65374575D01*
X102164517Y-65621561D01*
X102228998Y-65862207D01*
X102324330Y-66092361D01*
X102324337Y-66092376D01*
X102448900Y-66308126D01*
X102600560Y-66505774D01*
X102600566Y-66505781D01*
X102776718Y-66681933D01*
X102776725Y-66681939D01*
X102974373Y-66833599D01*
X103190123Y-66958162D01*
X103190138Y-66958169D01*
X103289325Y-66999253D01*
X103420293Y-67053502D01*
X103660935Y-67117982D01*
X103907935Y-67150500D01*
X103907942Y-67150500D01*
X104157058Y-67150500D01*
X104157065Y-67150500D01*
X104404065Y-67117982D01*
X104644707Y-67053502D01*
X104874873Y-66958164D01*
X105090627Y-66833599D01*
X105288276Y-66681938D01*
X105464438Y-66505776D01*
X105464446Y-66505764D01*
X105467090Y-66502751D01*
X105526088Y-66465321D01*
X105560327Y-66460500D01*
X111301929Y-66460500D01*
X111368968Y-66480185D01*
X111402245Y-66511613D01*
X111452281Y-66580481D01*
X111508034Y-66657219D01*
X111652786Y-66801971D01*
X111784477Y-66897648D01*
X111818390Y-66922287D01*
X111927440Y-66977851D01*
X112000776Y-67015218D01*
X112000778Y-67015218D01*
X112000781Y-67015220D01*
X112105137Y-67049127D01*
X112195465Y-67078477D01*
X112273806Y-67090885D01*
X112397648Y-67110500D01*
X112397649Y-67110500D01*
X112602351Y-67110500D01*
X112602352Y-67110500D01*
X112804534Y-67078477D01*
X112999219Y-67015220D01*
X113181610Y-66922287D01*
X113281637Y-66849614D01*
X113347213Y-66801971D01*
X113347215Y-66801968D01*
X113347219Y-66801966D01*
X113491966Y-66657219D01*
X113491968Y-66657215D01*
X113491971Y-66657213D01*
X113553307Y-66572790D01*
X113612287Y-66491610D01*
X113705220Y-66309219D01*
X113768477Y-66114534D01*
X113800500Y-65912352D01*
X113800500Y-65707648D01*
X113768477Y-65505466D01*
X113705220Y-65310781D01*
X113705218Y-65310778D01*
X113705218Y-65310776D01*
X113623833Y-65151051D01*
X113612287Y-65128390D01*
X113582224Y-65087011D01*
X113491971Y-64962786D01*
X113347213Y-64818028D01*
X113181613Y-64697715D01*
X113181612Y-64697714D01*
X113181610Y-64697713D01*
X113124653Y-64668691D01*
X112999223Y-64604781D01*
X112804534Y-64541522D01*
X112629995Y-64513878D01*
X112602352Y-64509500D01*
X112397648Y-64509500D01*
X112373329Y-64513351D01*
X112195465Y-64541522D01*
X112000776Y-64604781D01*
X111818386Y-64697715D01*
X111652786Y-64818028D01*
X111508034Y-64962780D01*
X111508030Y-64962786D01*
X111402246Y-65108386D01*
X111346918Y-65151051D01*
X111301929Y-65159500D01*
X106046230Y-65159500D01*
X105979191Y-65139815D01*
X105933436Y-65087011D01*
X105923291Y-65051685D01*
X105900482Y-64878438D01*
X105900482Y-64878435D01*
X105836002Y-64637793D01*
X105740664Y-64407627D01*
X105616099Y-64191873D01*
X105464438Y-63994224D01*
X105464433Y-63994218D01*
X105288281Y-63818066D01*
X105288274Y-63818060D01*
X105090626Y-63666400D01*
X104874876Y-63541837D01*
X104874861Y-63541830D01*
X104644707Y-63446498D01*
X104404061Y-63382017D01*
X104157075Y-63349501D01*
X104157070Y-63349500D01*
X104157065Y-63349500D01*
X103907935Y-63349500D01*
X103907929Y-63349500D01*
X103907924Y-63349501D01*
X103660938Y-63382017D01*
X103420292Y-63446498D01*
X103190138Y-63541830D01*
X103190123Y-63541837D01*
X102974373Y-63666400D01*
X102776725Y-63818060D01*
X102776718Y-63818066D01*
X102600566Y-63994218D01*
X102600560Y-63994225D01*
X102448900Y-64191873D01*
X102324337Y-64407623D01*
X102324330Y-64407638D01*
X102228998Y-64637792D01*
X102164517Y-64878438D01*
X102132001Y-65125424D01*
X102132000Y-65125441D01*
X97250500Y-65125441D01*
X97250500Y-60125441D01*
X102132000Y-60125441D01*
X102132000Y-60374558D01*
X102132001Y-60374575D01*
X102164517Y-60621561D01*
X102228998Y-60862207D01*
X102324330Y-61092361D01*
X102324337Y-61092376D01*
X102448900Y-61308126D01*
X102600560Y-61505774D01*
X102600566Y-61505781D01*
X102776718Y-61681933D01*
X102776725Y-61681939D01*
X102974373Y-61833599D01*
X103190123Y-61958162D01*
X103190138Y-61958169D01*
X103289325Y-61999253D01*
X103420293Y-62053502D01*
X103660935Y-62117982D01*
X103907935Y-62150500D01*
X103907942Y-62150500D01*
X104157058Y-62150500D01*
X104157065Y-62150500D01*
X104404065Y-62117982D01*
X104644707Y-62053502D01*
X104874873Y-61958164D01*
X105090627Y-61833599D01*
X105288276Y-61681938D01*
X105464438Y-61505776D01*
X105616099Y-61308127D01*
X105740664Y-61092373D01*
X105836002Y-60862207D01*
X105900482Y-60621565D01*
X105933000Y-60374565D01*
X105933000Y-60125435D01*
X105900482Y-59878435D01*
X105836002Y-59637793D01*
X105774784Y-59490000D01*
X105740669Y-59407638D01*
X105740666Y-59407632D01*
X105740664Y-59407627D01*
X105740658Y-59407616D01*
X105669414Y-59284216D01*
X105669413Y-59284215D01*
X105616099Y-59191873D01*
X105464439Y-58994225D01*
X105464433Y-58994218D01*
X105288281Y-58818066D01*
X105288274Y-58818060D01*
X105090626Y-58666400D01*
X104874876Y-58541837D01*
X104874861Y-58541830D01*
X104644707Y-58446498D01*
X104404061Y-58382017D01*
X104157075Y-58349501D01*
X104157070Y-58349500D01*
X104157065Y-58349500D01*
X103907935Y-58349500D01*
X103907929Y-58349500D01*
X103907924Y-58349501D01*
X103660938Y-58382017D01*
X103420292Y-58446498D01*
X103190138Y-58541830D01*
X103190123Y-58541837D01*
X102974373Y-58666400D01*
X102776725Y-58818060D01*
X102776718Y-58818066D01*
X102600566Y-58994218D01*
X102600560Y-58994225D01*
X102448900Y-59191873D01*
X102324337Y-59407623D01*
X102324330Y-59407638D01*
X102228998Y-59637792D01*
X102164517Y-59878438D01*
X102132001Y-60125424D01*
X102132000Y-60125441D01*
X97250500Y-60125441D01*
X97250500Y-58087682D01*
X111200000Y-58087682D01*
X111200000Y-58292317D01*
X111232009Y-58494417D01*
X111295244Y-58689031D01*
X111388141Y-58871350D01*
X111388145Y-58871357D01*
X111420523Y-58915921D01*
X111420524Y-58915922D01*
X112100000Y-58236446D01*
X112100000Y-58242661D01*
X112127259Y-58344394D01*
X112179920Y-58435606D01*
X112254394Y-58510080D01*
X112345606Y-58562741D01*
X112447339Y-58590000D01*
X112453553Y-58590000D01*
X111774076Y-59269474D01*
X111818650Y-59301859D01*
X112000968Y-59394755D01*
X112195582Y-59457990D01*
X112397683Y-59490000D01*
X112602317Y-59490000D01*
X112804417Y-59457990D01*
X112999031Y-59394755D01*
X113181349Y-59301859D01*
X113225921Y-59269474D01*
X112546447Y-58590000D01*
X112552661Y-58590000D01*
X112654394Y-58562741D01*
X112745606Y-58510080D01*
X112820080Y-58435606D01*
X112872741Y-58344394D01*
X112900000Y-58242661D01*
X112900000Y-58236447D01*
X113579474Y-58915921D01*
X113611859Y-58871349D01*
X113704755Y-58689031D01*
X113767990Y-58494417D01*
X113800000Y-58292317D01*
X113800000Y-58087682D01*
X113767990Y-57885582D01*
X113719698Y-57736957D01*
X113704755Y-57690968D01*
X113611859Y-57508650D01*
X113579474Y-57464077D01*
X113579474Y-57464076D01*
X112900000Y-58143551D01*
X112900000Y-58137339D01*
X112872741Y-58035606D01*
X112820080Y-57944394D01*
X112745606Y-57869920D01*
X112654394Y-57817259D01*
X112552661Y-57790000D01*
X112546446Y-57790000D01*
X113225922Y-57110524D01*
X113225921Y-57110523D01*
X113181359Y-57078147D01*
X113181350Y-57078141D01*
X112999031Y-56985244D01*
X112804417Y-56922009D01*
X112602317Y-56890000D01*
X112397683Y-56890000D01*
X112195582Y-56922009D01*
X112000968Y-56985244D01*
X111818644Y-57078143D01*
X111774077Y-57110523D01*
X111774077Y-57110524D01*
X112453554Y-57790000D01*
X112447339Y-57790000D01*
X112345606Y-57817259D01*
X112254394Y-57869920D01*
X112179920Y-57944394D01*
X112127259Y-58035606D01*
X112100000Y-58137339D01*
X112100000Y-58143553D01*
X111420524Y-57464077D01*
X111420523Y-57464077D01*
X111388143Y-57508644D01*
X111295244Y-57690968D01*
X111232009Y-57885582D01*
X111200000Y-58087682D01*
X97250500Y-58087682D01*
X97250500Y-54049984D01*
X102132000Y-54049984D01*
X102132000Y-56450015D01*
X102142500Y-56552795D01*
X102142501Y-56552796D01*
X102197686Y-56719335D01*
X102197687Y-56719337D01*
X102289786Y-56868651D01*
X102289789Y-56868655D01*
X102413844Y-56992710D01*
X102413848Y-56992713D01*
X102563162Y-57084812D01*
X102563164Y-57084813D01*
X102563166Y-57084814D01*
X102729703Y-57139999D01*
X102832492Y-57150500D01*
X102832497Y-57150500D01*
X105232503Y-57150500D01*
X105232508Y-57150500D01*
X105335297Y-57139999D01*
X105501834Y-57084814D01*
X105528781Y-57068193D01*
X105554637Y-57052245D01*
X105647262Y-56995112D01*
X105651155Y-56992711D01*
X105775211Y-56868655D01*
X105867314Y-56719334D01*
X105922499Y-56552797D01*
X105933000Y-56450008D01*
X105933000Y-56300014D01*
X118100000Y-56300014D01*
X118100000Y-57250000D01*
X119399999Y-57250000D01*
X119374979Y-57310402D01*
X119350000Y-57435981D01*
X119350000Y-57564019D01*
X119374979Y-57689598D01*
X119399999Y-57750000D01*
X118100000Y-57750000D01*
X118100000Y-58699985D01*
X118110493Y-58802689D01*
X118110494Y-58802696D01*
X118165641Y-58969118D01*
X118165643Y-58969123D01*
X118257684Y-59118344D01*
X118381655Y-59242315D01*
X118530876Y-59334356D01*
X118530881Y-59334358D01*
X118697303Y-59389505D01*
X118697310Y-59389506D01*
X118800014Y-59399999D01*
X118800027Y-59400000D01*
X119750000Y-59400000D01*
X119750000Y-58100001D01*
X119810402Y-58125021D01*
X119935981Y-58150000D01*
X120064019Y-58150000D01*
X120189598Y-58125021D01*
X120250000Y-58100001D01*
X120250000Y-59400000D01*
X121199973Y-59400000D01*
X121199985Y-59399999D01*
X121302689Y-59389506D01*
X121302696Y-59389505D01*
X121469118Y-59334358D01*
X121469123Y-59334356D01*
X121618344Y-59242315D01*
X121742315Y-59118344D01*
X121834356Y-58969123D01*
X121834358Y-58969118D01*
X121889505Y-58802696D01*
X121889506Y-58802689D01*
X121899999Y-58699985D01*
X121900000Y-58699972D01*
X121900000Y-57750000D01*
X120600001Y-57750000D01*
X120625021Y-57689598D01*
X120650000Y-57564019D01*
X120650000Y-57435981D01*
X120637958Y-57375441D01*
X123099500Y-57375441D01*
X123099500Y-57624558D01*
X123099501Y-57624575D01*
X123132017Y-57871561D01*
X123196498Y-58112207D01*
X123291830Y-58342361D01*
X123291837Y-58342376D01*
X123416400Y-58558126D01*
X123568060Y-58755774D01*
X123568066Y-58755781D01*
X123744218Y-58931933D01*
X123744225Y-58931939D01*
X123941873Y-59083599D01*
X124157623Y-59208162D01*
X124157638Y-59208169D01*
X124216343Y-59232485D01*
X124387793Y-59303502D01*
X124628435Y-59367982D01*
X124875435Y-59400500D01*
X124875442Y-59400500D01*
X125124558Y-59400500D01*
X125124565Y-59400500D01*
X125371565Y-59367982D01*
X125612207Y-59303502D01*
X125727533Y-59255731D01*
X125797000Y-59248263D01*
X125859479Y-59279538D01*
X125862665Y-59282612D01*
X126472826Y-59892773D01*
X126472829Y-59892775D01*
X126472831Y-59892777D01*
X126579373Y-59963965D01*
X126697756Y-60013001D01*
X126697760Y-60013001D01*
X126697761Y-60013002D01*
X126823428Y-60038000D01*
X126823431Y-60038000D01*
X142077092Y-60038000D01*
X142144131Y-60057685D01*
X142164773Y-60074319D01*
X142337025Y-60246572D01*
X142337026Y-60246573D01*
X142337029Y-60246575D01*
X142337031Y-60246577D01*
X142443573Y-60317765D01*
X142561956Y-60366801D01*
X142561960Y-60366801D01*
X142561961Y-60366802D01*
X142687628Y-60391800D01*
X142687631Y-60391800D01*
X158605271Y-60391800D01*
X158689815Y-60374982D01*
X158730944Y-60366801D01*
X158849327Y-60317765D01*
X158955869Y-60246577D01*
X159387333Y-59815111D01*
X159448656Y-59781627D01*
X159518347Y-59786611D01*
X159522464Y-59788231D01*
X159637793Y-59836002D01*
X159878435Y-59900482D01*
X160125435Y-59933000D01*
X160125442Y-59933000D01*
X160374558Y-59933000D01*
X160374565Y-59933000D01*
X160621565Y-59900482D01*
X160862207Y-59836002D01*
X161092373Y-59740664D01*
X161308127Y-59616099D01*
X161505776Y-59464438D01*
X161681938Y-59288276D01*
X161833599Y-59090627D01*
X161958164Y-58874873D01*
X162053502Y-58644707D01*
X162117982Y-58404065D01*
X162150500Y-58157065D01*
X162150500Y-57907935D01*
X162117982Y-57660935D01*
X162053502Y-57420293D01*
X161982964Y-57250000D01*
X161958169Y-57190138D01*
X161958162Y-57190123D01*
X161833602Y-56974377D01*
X161833599Y-56974373D01*
X161768857Y-56890000D01*
X161724747Y-56832514D01*
X163350000Y-56832514D01*
X163350000Y-57782500D01*
X164649999Y-57782500D01*
X164624979Y-57842902D01*
X164600000Y-57968481D01*
X164600000Y-58096519D01*
X164624979Y-58222098D01*
X164649999Y-58282500D01*
X163350000Y-58282500D01*
X163350000Y-59232485D01*
X163360493Y-59335189D01*
X163360494Y-59335196D01*
X163415641Y-59501618D01*
X163415643Y-59501623D01*
X163507684Y-59650844D01*
X163631655Y-59774815D01*
X163780876Y-59866856D01*
X163780881Y-59866858D01*
X163947303Y-59922005D01*
X163947310Y-59922006D01*
X164050014Y-59932499D01*
X164050027Y-59932500D01*
X165000000Y-59932500D01*
X165000000Y-58632501D01*
X165060402Y-58657521D01*
X165185981Y-58682500D01*
X165314019Y-58682500D01*
X165439598Y-58657521D01*
X165500000Y-58632501D01*
X165500000Y-59932500D01*
X166449973Y-59932500D01*
X166449985Y-59932499D01*
X166552689Y-59922006D01*
X166552696Y-59922005D01*
X166719118Y-59866858D01*
X166719123Y-59866856D01*
X166868344Y-59774815D01*
X166992315Y-59650844D01*
X167084356Y-59501623D01*
X167084358Y-59501618D01*
X167139505Y-59335196D01*
X167139506Y-59335189D01*
X167149999Y-59232485D01*
X167150000Y-59232472D01*
X167150000Y-58282500D01*
X165850001Y-58282500D01*
X165875021Y-58222098D01*
X165900000Y-58096519D01*
X165900000Y-57968481D01*
X165875021Y-57842902D01*
X165850001Y-57782500D01*
X167150000Y-57782500D01*
X167150000Y-56832527D01*
X167149999Y-56832514D01*
X167139506Y-56729810D01*
X167139505Y-56729803D01*
X167084358Y-56563381D01*
X167084356Y-56563376D01*
X166992315Y-56414155D01*
X166868344Y-56290184D01*
X166719123Y-56198143D01*
X166719118Y-56198141D01*
X166552696Y-56142994D01*
X166552689Y-56142993D01*
X166449985Y-56132500D01*
X165500000Y-56132500D01*
X165500000Y-57432498D01*
X165439598Y-57407479D01*
X165314019Y-57382500D01*
X165185981Y-57382500D01*
X165060402Y-57407479D01*
X165000000Y-57432498D01*
X165000000Y-56132500D01*
X164050014Y-56132500D01*
X163947310Y-56142993D01*
X163947303Y-56142994D01*
X163780881Y-56198141D01*
X163780876Y-56198143D01*
X163631655Y-56290184D01*
X163507684Y-56414155D01*
X163415643Y-56563376D01*
X163415641Y-56563381D01*
X163360494Y-56729803D01*
X163360493Y-56729810D01*
X163350000Y-56832514D01*
X161724747Y-56832514D01*
X161681939Y-56776725D01*
X161681933Y-56776718D01*
X161505781Y-56600566D01*
X161505774Y-56600560D01*
X161308126Y-56448900D01*
X161092376Y-56324337D01*
X161092361Y-56324330D01*
X160862207Y-56228998D01*
X160621561Y-56164517D01*
X160374575Y-56132001D01*
X160374570Y-56132000D01*
X160374565Y-56132000D01*
X160125435Y-56132000D01*
X160125429Y-56132000D01*
X160125424Y-56132001D01*
X159878438Y-56164517D01*
X159637792Y-56228998D01*
X159407638Y-56324330D01*
X159407623Y-56324337D01*
X159191873Y-56448900D01*
X158994225Y-56600560D01*
X158994218Y-56600566D01*
X158818066Y-56776718D01*
X158818060Y-56776725D01*
X158666400Y-56974373D01*
X158541837Y-57190123D01*
X158541830Y-57190138D01*
X158446498Y-57420292D01*
X158382017Y-57660938D01*
X158349501Y-57907924D01*
X158349500Y-57907941D01*
X158349500Y-58157058D01*
X158349501Y-58157075D01*
X158382017Y-58404061D01*
X158446498Y-58644707D01*
X158494267Y-58760032D01*
X158496403Y-58779906D01*
X158503390Y-58798637D01*
X158500062Y-58813934D01*
X158501736Y-58829501D01*
X158492787Y-58847376D01*
X158488539Y-58866910D01*
X158471851Y-58889202D01*
X158470461Y-58891980D01*
X158467388Y-58895165D01*
X158308071Y-59054482D01*
X158246751Y-59087966D01*
X158220392Y-59090800D01*
X157048273Y-59090800D01*
X156981234Y-59071115D01*
X156935479Y-59018311D01*
X156925535Y-58949153D01*
X156940885Y-58904801D01*
X156948287Y-58891980D01*
X156958164Y-58874873D01*
X157053502Y-58644707D01*
X157117982Y-58404065D01*
X157150500Y-58157065D01*
X157150500Y-57907935D01*
X157117982Y-57660935D01*
X157053502Y-57420293D01*
X156982964Y-57250000D01*
X156958169Y-57190138D01*
X156958162Y-57190123D01*
X156833599Y-56974373D01*
X156681939Y-56776725D01*
X156681933Y-56776718D01*
X156505781Y-56600566D01*
X156505774Y-56600560D01*
X156308126Y-56448900D01*
X156092376Y-56324337D01*
X156092361Y-56324330D01*
X155862207Y-56228998D01*
X155621561Y-56164517D01*
X155374575Y-56132001D01*
X155374570Y-56132000D01*
X155374565Y-56132000D01*
X155125435Y-56132000D01*
X155125429Y-56132000D01*
X155125424Y-56132001D01*
X154878438Y-56164517D01*
X154637792Y-56228998D01*
X154407638Y-56324330D01*
X154407623Y-56324337D01*
X154191873Y-56448900D01*
X153994225Y-56600560D01*
X153994218Y-56600566D01*
X153818066Y-56776718D01*
X153818060Y-56776725D01*
X153666400Y-56974373D01*
X153541837Y-57190123D01*
X153541830Y-57190138D01*
X153446498Y-57420292D01*
X153382017Y-57660938D01*
X153349501Y-57907924D01*
X153349500Y-57907941D01*
X153349500Y-58157058D01*
X153349501Y-58157075D01*
X153382017Y-58404061D01*
X153446498Y-58644707D01*
X153541830Y-58874861D01*
X153541835Y-58874871D01*
X153559115Y-58904801D01*
X153575587Y-58972701D01*
X153552734Y-59038728D01*
X153497812Y-59081918D01*
X153451727Y-59090800D01*
X149413716Y-59090800D01*
X149346677Y-59071115D01*
X149300922Y-59018311D01*
X149290358Y-58954197D01*
X149297899Y-58880384D01*
X149297900Y-58880372D01*
X149297900Y-57930400D01*
X147997901Y-57930400D01*
X148022921Y-57869998D01*
X148047900Y-57744419D01*
X148047900Y-57616381D01*
X148022921Y-57490802D01*
X147997901Y-57430400D01*
X149297900Y-57430400D01*
X149297900Y-56480427D01*
X149297899Y-56480414D01*
X149287406Y-56377710D01*
X149287405Y-56377703D01*
X149232258Y-56211281D01*
X149232256Y-56211276D01*
X149140215Y-56062055D01*
X149016244Y-55938084D01*
X148867023Y-55846043D01*
X148867018Y-55846041D01*
X148700596Y-55790894D01*
X148700589Y-55790893D01*
X148597885Y-55780400D01*
X147647900Y-55780400D01*
X147647900Y-57080398D01*
X147587498Y-57055379D01*
X147461919Y-57030400D01*
X147333881Y-57030400D01*
X147208302Y-57055379D01*
X147147900Y-57080398D01*
X147147900Y-55780400D01*
X146197914Y-55780400D01*
X146095210Y-55790893D01*
X146095203Y-55790894D01*
X145928781Y-55846041D01*
X145928776Y-55846043D01*
X145779555Y-55938084D01*
X145655584Y-56062055D01*
X145563543Y-56211276D01*
X145563541Y-56211281D01*
X145508394Y-56377703D01*
X145508393Y-56377710D01*
X145497900Y-56480414D01*
X145497900Y-57430400D01*
X146797899Y-57430400D01*
X146772879Y-57490802D01*
X146747900Y-57616381D01*
X146747900Y-57744419D01*
X146772879Y-57869998D01*
X146797899Y-57930400D01*
X145497900Y-57930400D01*
X145497900Y-58880384D01*
X145505442Y-58954197D01*
X145492673Y-59022890D01*
X145444793Y-59073775D01*
X145382084Y-59090800D01*
X143962638Y-59090800D01*
X143895599Y-59071115D01*
X143849844Y-59018311D01*
X143839900Y-58949153D01*
X143864262Y-58891314D01*
X143923637Y-58813934D01*
X143981499Y-58738527D01*
X144106064Y-58522773D01*
X144201402Y-58292607D01*
X144265882Y-58051965D01*
X144298400Y-57804965D01*
X144298400Y-57555835D01*
X144265882Y-57308835D01*
X144201402Y-57068193D01*
X144126678Y-56887793D01*
X144106069Y-56838038D01*
X144106062Y-56838023D01*
X143981502Y-56622277D01*
X143981499Y-56622273D01*
X143848466Y-56448901D01*
X143829839Y-56424625D01*
X143829833Y-56424618D01*
X143653681Y-56248466D01*
X143653674Y-56248460D01*
X143456026Y-56096800D01*
X143240276Y-55972237D01*
X143240261Y-55972230D01*
X143010107Y-55876898D01*
X142769461Y-55812417D01*
X142522475Y-55779901D01*
X142522470Y-55779900D01*
X142522465Y-55779900D01*
X142273335Y-55779900D01*
X142273329Y-55779900D01*
X142273324Y-55779901D01*
X142026338Y-55812417D01*
X141785692Y-55876898D01*
X141555538Y-55972230D01*
X141555523Y-55972237D01*
X141339773Y-56096800D01*
X141142125Y-56248460D01*
X141142118Y-56248466D01*
X140965966Y-56424618D01*
X140965960Y-56424625D01*
X140814300Y-56622273D01*
X140689737Y-56838023D01*
X140689730Y-56838038D01*
X140594398Y-57068192D01*
X140529917Y-57308838D01*
X140497401Y-57555824D01*
X140497400Y-57555841D01*
X140497400Y-57804958D01*
X140497401Y-57804975D01*
X140513913Y-57930400D01*
X140529918Y-58051965D01*
X140558078Y-58157058D01*
X140594398Y-58292607D01*
X140689730Y-58522761D01*
X140689736Y-58522773D01*
X140700738Y-58541830D01*
X140706033Y-58551000D01*
X140722506Y-58618900D01*
X140699654Y-58684927D01*
X140644733Y-58728117D01*
X140598646Y-58737000D01*
X139197154Y-58737000D01*
X139130115Y-58717315D01*
X139084360Y-58664511D01*
X139074416Y-58595353D01*
X139089767Y-58551000D01*
X139106064Y-58522773D01*
X139201402Y-58292607D01*
X139265882Y-58051965D01*
X139298400Y-57804965D01*
X139298400Y-57555835D01*
X139265882Y-57308835D01*
X139201402Y-57068193D01*
X139126678Y-56887793D01*
X139106069Y-56838038D01*
X139106062Y-56838023D01*
X138981499Y-56622273D01*
X138829839Y-56424625D01*
X138829833Y-56424618D01*
X138653681Y-56248466D01*
X138653674Y-56248460D01*
X138456026Y-56096800D01*
X138240276Y-55972237D01*
X138240261Y-55972230D01*
X138010107Y-55876898D01*
X137769461Y-55812417D01*
X137522475Y-55779901D01*
X137522470Y-55779900D01*
X137522465Y-55779900D01*
X137273335Y-55779900D01*
X137273329Y-55779900D01*
X137273324Y-55779901D01*
X137026338Y-55812417D01*
X136785692Y-55876898D01*
X136555538Y-55972230D01*
X136555523Y-55972237D01*
X136339773Y-56096800D01*
X136142125Y-56248460D01*
X136142118Y-56248466D01*
X135965966Y-56424618D01*
X135965960Y-56424625D01*
X135814300Y-56622273D01*
X135689737Y-56838023D01*
X135689730Y-56838038D01*
X135594398Y-57068192D01*
X135529917Y-57308838D01*
X135497401Y-57555824D01*
X135497400Y-57555841D01*
X135497400Y-57804958D01*
X135497401Y-57804975D01*
X135513913Y-57930400D01*
X135529918Y-58051965D01*
X135558078Y-58157058D01*
X135594398Y-58292607D01*
X135689730Y-58522761D01*
X135689736Y-58522773D01*
X135700738Y-58541830D01*
X135706033Y-58551000D01*
X135722506Y-58618900D01*
X135699654Y-58684927D01*
X135644733Y-58728117D01*
X135598646Y-58737000D01*
X131695101Y-58737000D01*
X131628062Y-58717315D01*
X131582307Y-58664511D01*
X131572363Y-58595353D01*
X131587714Y-58551000D01*
X131672546Y-58404065D01*
X131708164Y-58342373D01*
X131803502Y-58112207D01*
X131867982Y-57871565D01*
X131900500Y-57624565D01*
X131900500Y-57375435D01*
X131867982Y-57128435D01*
X131803502Y-56887793D01*
X131708164Y-56657627D01*
X131687752Y-56622273D01*
X131583599Y-56441873D01*
X131431939Y-56244225D01*
X131431933Y-56244218D01*
X131255781Y-56068066D01*
X131255774Y-56068060D01*
X131058126Y-55916400D01*
X130842376Y-55791837D01*
X130842361Y-55791830D01*
X130612207Y-55696498D01*
X130371561Y-55632017D01*
X130124575Y-55599501D01*
X130124570Y-55599500D01*
X130124565Y-55599500D01*
X129875435Y-55599500D01*
X129875429Y-55599500D01*
X129875424Y-55599501D01*
X129628438Y-55632017D01*
X129387792Y-55696498D01*
X129157638Y-55791830D01*
X129157623Y-55791837D01*
X128941873Y-55916400D01*
X128744225Y-56068060D01*
X128744218Y-56068066D01*
X128568066Y-56244218D01*
X128568060Y-56244225D01*
X128416400Y-56441873D01*
X128291837Y-56657623D01*
X128291830Y-56657638D01*
X128196498Y-56887792D01*
X128132017Y-57128438D01*
X128099501Y-57375424D01*
X128099500Y-57375441D01*
X128099500Y-57624558D01*
X128099501Y-57624575D01*
X128132017Y-57871561D01*
X128196498Y-58112207D01*
X128291830Y-58342361D01*
X128291837Y-58342376D01*
X128412286Y-58551000D01*
X128428759Y-58618901D01*
X128405906Y-58684927D01*
X128350985Y-58728118D01*
X128304899Y-58737000D01*
X127208308Y-58737000D01*
X127141269Y-58717315D01*
X127120627Y-58700681D01*
X126782612Y-58362666D01*
X126749127Y-58301343D01*
X126754111Y-58231651D01*
X126755732Y-58227532D01*
X126757983Y-58222098D01*
X126803502Y-58112207D01*
X126867982Y-57871565D01*
X126900500Y-57624565D01*
X126900500Y-57375435D01*
X126867982Y-57128435D01*
X126803502Y-56887793D01*
X126708164Y-56657627D01*
X126687752Y-56622273D01*
X126583599Y-56441873D01*
X126431939Y-56244225D01*
X126431933Y-56244218D01*
X126255781Y-56068066D01*
X126255774Y-56068060D01*
X126058126Y-55916400D01*
X125842376Y-55791837D01*
X125842361Y-55791830D01*
X125612207Y-55696498D01*
X125371561Y-55632017D01*
X125124575Y-55599501D01*
X125124570Y-55599500D01*
X125124565Y-55599500D01*
X124875435Y-55599500D01*
X124875429Y-55599500D01*
X124875424Y-55599501D01*
X124628438Y-55632017D01*
X124387792Y-55696498D01*
X124157638Y-55791830D01*
X124157623Y-55791837D01*
X123941873Y-55916400D01*
X123744225Y-56068060D01*
X123744218Y-56068066D01*
X123568066Y-56244218D01*
X123568060Y-56244225D01*
X123416400Y-56441873D01*
X123291837Y-56657623D01*
X123291830Y-56657638D01*
X123196498Y-56887792D01*
X123132017Y-57128438D01*
X123099501Y-57375424D01*
X123099500Y-57375441D01*
X120637958Y-57375441D01*
X120625021Y-57310402D01*
X120600001Y-57250000D01*
X121900000Y-57250000D01*
X121900000Y-56300027D01*
X121899999Y-56300014D01*
X121889506Y-56197310D01*
X121889505Y-56197303D01*
X121834358Y-56030881D01*
X121834356Y-56030876D01*
X121742315Y-55881655D01*
X121618344Y-55757684D01*
X121469123Y-55665643D01*
X121469118Y-55665641D01*
X121302696Y-55610494D01*
X121302689Y-55610493D01*
X121199985Y-55600000D01*
X120250000Y-55600000D01*
X120250000Y-56899998D01*
X120189598Y-56874979D01*
X120064019Y-56850000D01*
X119935981Y-56850000D01*
X119810402Y-56874979D01*
X119750000Y-56899998D01*
X119750000Y-55600000D01*
X118800014Y-55600000D01*
X118697310Y-55610493D01*
X118697303Y-55610494D01*
X118530881Y-55665641D01*
X118530876Y-55665643D01*
X118381655Y-55757684D01*
X118257684Y-55881655D01*
X118165643Y-56030876D01*
X118165641Y-56030881D01*
X118110494Y-56197303D01*
X118110493Y-56197310D01*
X118100000Y-56300014D01*
X105933000Y-56300014D01*
X105933000Y-54049992D01*
X105922499Y-53947203D01*
X105867314Y-53780666D01*
X105775211Y-53631345D01*
X105651155Y-53507289D01*
X105651151Y-53507286D01*
X105501837Y-53415187D01*
X105501835Y-53415186D01*
X105418565Y-53387593D01*
X105335297Y-53360001D01*
X105335295Y-53360000D01*
X105232515Y-53349500D01*
X105232508Y-53349500D01*
X102832492Y-53349500D01*
X102832484Y-53349500D01*
X102729704Y-53360000D01*
X102729703Y-53360001D01*
X102563164Y-53415186D01*
X102563162Y-53415187D01*
X102413848Y-53507286D01*
X102413844Y-53507289D01*
X102289789Y-53631344D01*
X102289786Y-53631348D01*
X102197687Y-53780662D01*
X102197686Y-53780664D01*
X102142501Y-53947203D01*
X102142500Y-53947204D01*
X102132000Y-54049984D01*
X97250500Y-54049984D01*
X97250500Y-50157000D01*
X97270185Y-50089961D01*
X97322989Y-50044206D01*
X97374500Y-50033000D01*
X175125500Y-50033000D01*
X175192539Y-50052685D01*
G37*
%TD.AperFunction*%
%TD*%
M02*
