%TF.GenerationSoftware,KiCad,Pcbnew,9.0.1*%
%TF.CreationDate,2025-05-09T22:29:33-07:00*%
%TF.ProjectId,pcb,7063622e-6b69-4636-9164-5f7063625858,rev?*%
%TF.SameCoordinates,Original*%
%TF.FileFunction,Legend,Top*%
%TF.FilePolarity,Positive*%
%FSLAX46Y46*%
G04 Gerber Fmt 4.6, Leading zero omitted, Abs format (unit mm)*
G04 Created by KiCad (PCBNEW 9.0.1) date 2025-05-09 22:29:33*
%MOMM*%
%LPD*%
G01*
G04 APERTURE LIST*
%ADD10C,0.152400*%
%ADD11C,0.150000*%
%ADD12C,0.120000*%
G04 APERTURE END LIST*
D10*
X96793786Y-129892603D02*
X96793786Y-129079803D01*
X96793786Y-129079803D02*
X97064720Y-129660375D01*
X97064720Y-129660375D02*
X97335653Y-129079803D01*
X97335653Y-129079803D02*
X97335653Y-129892603D01*
X97645291Y-129079803D02*
X98148453Y-129079803D01*
X98148453Y-129079803D02*
X97877519Y-129389441D01*
X97877519Y-129389441D02*
X97993634Y-129389441D01*
X97993634Y-129389441D02*
X98071043Y-129428146D01*
X98071043Y-129428146D02*
X98109748Y-129466851D01*
X98109748Y-129466851D02*
X98148453Y-129544260D01*
X98148453Y-129544260D02*
X98148453Y-129737784D01*
X98148453Y-129737784D02*
X98109748Y-129815194D01*
X98109748Y-129815194D02*
X98071043Y-129853899D01*
X98071043Y-129853899D02*
X97993634Y-129892603D01*
X97993634Y-129892603D02*
X97761405Y-129892603D01*
X97761405Y-129892603D02*
X97683996Y-129853899D01*
X97683996Y-129853899D02*
X97645291Y-129815194D01*
X98496795Y-129582965D02*
X99116072Y-129582965D01*
X96793786Y-124892603D02*
X96793786Y-124079803D01*
X96793786Y-124079803D02*
X97064720Y-124660375D01*
X97064720Y-124660375D02*
X97335653Y-124079803D01*
X97335653Y-124079803D02*
X97335653Y-124892603D01*
X97645291Y-124079803D02*
X98148453Y-124079803D01*
X98148453Y-124079803D02*
X97877519Y-124389441D01*
X97877519Y-124389441D02*
X97993634Y-124389441D01*
X97993634Y-124389441D02*
X98071043Y-124428146D01*
X98071043Y-124428146D02*
X98109748Y-124466851D01*
X98109748Y-124466851D02*
X98148453Y-124544260D01*
X98148453Y-124544260D02*
X98148453Y-124737784D01*
X98148453Y-124737784D02*
X98109748Y-124815194D01*
X98109748Y-124815194D02*
X98071043Y-124853899D01*
X98071043Y-124853899D02*
X97993634Y-124892603D01*
X97993634Y-124892603D02*
X97761405Y-124892603D01*
X97761405Y-124892603D02*
X97683996Y-124853899D01*
X97683996Y-124853899D02*
X97645291Y-124815194D01*
X98496795Y-124582965D02*
X99116072Y-124582965D01*
X98806433Y-124892603D02*
X98806433Y-124273327D01*
X96793786Y-119892603D02*
X96793786Y-119079803D01*
X96793786Y-119079803D02*
X97064720Y-119660375D01*
X97064720Y-119660375D02*
X97335653Y-119079803D01*
X97335653Y-119079803D02*
X97335653Y-119892603D01*
X97683996Y-119157213D02*
X97722700Y-119118508D01*
X97722700Y-119118508D02*
X97800110Y-119079803D01*
X97800110Y-119079803D02*
X97993634Y-119079803D01*
X97993634Y-119079803D02*
X98071043Y-119118508D01*
X98071043Y-119118508D02*
X98109748Y-119157213D01*
X98109748Y-119157213D02*
X98148453Y-119234622D01*
X98148453Y-119234622D02*
X98148453Y-119312032D01*
X98148453Y-119312032D02*
X98109748Y-119428146D01*
X98109748Y-119428146D02*
X97645291Y-119892603D01*
X97645291Y-119892603D02*
X98148453Y-119892603D01*
X98496795Y-119582965D02*
X99116072Y-119582965D01*
X96793786Y-114392603D02*
X96793786Y-113579803D01*
X96793786Y-113579803D02*
X97064720Y-114160375D01*
X97064720Y-114160375D02*
X97335653Y-113579803D01*
X97335653Y-113579803D02*
X97335653Y-114392603D01*
X97683996Y-113657213D02*
X97722700Y-113618508D01*
X97722700Y-113618508D02*
X97800110Y-113579803D01*
X97800110Y-113579803D02*
X97993634Y-113579803D01*
X97993634Y-113579803D02*
X98071043Y-113618508D01*
X98071043Y-113618508D02*
X98109748Y-113657213D01*
X98109748Y-113657213D02*
X98148453Y-113734622D01*
X98148453Y-113734622D02*
X98148453Y-113812032D01*
X98148453Y-113812032D02*
X98109748Y-113928146D01*
X98109748Y-113928146D02*
X97645291Y-114392603D01*
X97645291Y-114392603D02*
X98148453Y-114392603D01*
X98496795Y-114082965D02*
X99116072Y-114082965D01*
X98806433Y-114392603D02*
X98806433Y-113773327D01*
X96793786Y-110392603D02*
X96793786Y-109579803D01*
X96793786Y-109579803D02*
X97064720Y-110160375D01*
X97064720Y-110160375D02*
X97335653Y-109579803D01*
X97335653Y-109579803D02*
X97335653Y-110392603D01*
X98148453Y-110392603D02*
X97683996Y-110392603D01*
X97916224Y-110392603D02*
X97916224Y-109579803D01*
X97916224Y-109579803D02*
X97838815Y-109695918D01*
X97838815Y-109695918D02*
X97761405Y-109773327D01*
X97761405Y-109773327D02*
X97683996Y-109812032D01*
X98496795Y-110082965D02*
X99116072Y-110082965D01*
X96793786Y-104392603D02*
X96793786Y-103579803D01*
X96793786Y-103579803D02*
X97064720Y-104160375D01*
X97064720Y-104160375D02*
X97335653Y-103579803D01*
X97335653Y-103579803D02*
X97335653Y-104392603D01*
X98148453Y-104392603D02*
X97683996Y-104392603D01*
X97916224Y-104392603D02*
X97916224Y-103579803D01*
X97916224Y-103579803D02*
X97838815Y-103695918D01*
X97838815Y-103695918D02*
X97761405Y-103773327D01*
X97761405Y-103773327D02*
X97683996Y-103812032D01*
X98496795Y-104082965D02*
X99116072Y-104082965D01*
X98806433Y-104392603D02*
X98806433Y-103773327D01*
X97564720Y-93466851D02*
X97680834Y-93505556D01*
X97680834Y-93505556D02*
X97719539Y-93544260D01*
X97719539Y-93544260D02*
X97758243Y-93621670D01*
X97758243Y-93621670D02*
X97758243Y-93737784D01*
X97758243Y-93737784D02*
X97719539Y-93815194D01*
X97719539Y-93815194D02*
X97680834Y-93853899D01*
X97680834Y-93853899D02*
X97603424Y-93892603D01*
X97603424Y-93892603D02*
X97293786Y-93892603D01*
X97293786Y-93892603D02*
X97293786Y-93079803D01*
X97293786Y-93079803D02*
X97564720Y-93079803D01*
X97564720Y-93079803D02*
X97642129Y-93118508D01*
X97642129Y-93118508D02*
X97680834Y-93157213D01*
X97680834Y-93157213D02*
X97719539Y-93234622D01*
X97719539Y-93234622D02*
X97719539Y-93312032D01*
X97719539Y-93312032D02*
X97680834Y-93389441D01*
X97680834Y-93389441D02*
X97642129Y-93428146D01*
X97642129Y-93428146D02*
X97564720Y-93466851D01*
X97564720Y-93466851D02*
X97293786Y-93466851D01*
X98067882Y-93157213D02*
X98106586Y-93118508D01*
X98106586Y-93118508D02*
X98183996Y-93079803D01*
X98183996Y-93079803D02*
X98377520Y-93079803D01*
X98377520Y-93079803D02*
X98454929Y-93118508D01*
X98454929Y-93118508D02*
X98493634Y-93157213D01*
X98493634Y-93157213D02*
X98532339Y-93234622D01*
X98532339Y-93234622D02*
X98532339Y-93312032D01*
X98532339Y-93312032D02*
X98493634Y-93428146D01*
X98493634Y-93428146D02*
X98029177Y-93892603D01*
X98029177Y-93892603D02*
X98532339Y-93892603D01*
X97564720Y-88966851D02*
X97680834Y-89005556D01*
X97680834Y-89005556D02*
X97719539Y-89044260D01*
X97719539Y-89044260D02*
X97758243Y-89121670D01*
X97758243Y-89121670D02*
X97758243Y-89237784D01*
X97758243Y-89237784D02*
X97719539Y-89315194D01*
X97719539Y-89315194D02*
X97680834Y-89353899D01*
X97680834Y-89353899D02*
X97603424Y-89392603D01*
X97603424Y-89392603D02*
X97293786Y-89392603D01*
X97293786Y-89392603D02*
X97293786Y-88579803D01*
X97293786Y-88579803D02*
X97564720Y-88579803D01*
X97564720Y-88579803D02*
X97642129Y-88618508D01*
X97642129Y-88618508D02*
X97680834Y-88657213D01*
X97680834Y-88657213D02*
X97719539Y-88734622D01*
X97719539Y-88734622D02*
X97719539Y-88812032D01*
X97719539Y-88812032D02*
X97680834Y-88889441D01*
X97680834Y-88889441D02*
X97642129Y-88928146D01*
X97642129Y-88928146D02*
X97564720Y-88966851D01*
X97564720Y-88966851D02*
X97293786Y-88966851D01*
X98532339Y-89392603D02*
X98067882Y-89392603D01*
X98300110Y-89392603D02*
X98300110Y-88579803D01*
X98300110Y-88579803D02*
X98222701Y-88695918D01*
X98222701Y-88695918D02*
X98145291Y-88773327D01*
X98145291Y-88773327D02*
X98067882Y-88812032D01*
X97255082Y-84160375D02*
X97642129Y-84160375D01*
X97177672Y-84392603D02*
X97448605Y-83579803D01*
X97448605Y-83579803D02*
X97719539Y-84392603D01*
X97951768Y-83657213D02*
X97990472Y-83618508D01*
X97990472Y-83618508D02*
X98067882Y-83579803D01*
X98067882Y-83579803D02*
X98261406Y-83579803D01*
X98261406Y-83579803D02*
X98338815Y-83618508D01*
X98338815Y-83618508D02*
X98377520Y-83657213D01*
X98377520Y-83657213D02*
X98416225Y-83734622D01*
X98416225Y-83734622D02*
X98416225Y-83812032D01*
X98416225Y-83812032D02*
X98377520Y-83928146D01*
X98377520Y-83928146D02*
X97913063Y-84392603D01*
X97913063Y-84392603D02*
X98416225Y-84392603D01*
X97255082Y-79160375D02*
X97642129Y-79160375D01*
X97177672Y-79392603D02*
X97448605Y-78579803D01*
X97448605Y-78579803D02*
X97719539Y-79392603D01*
X98416225Y-79392603D02*
X97951768Y-79392603D01*
X98183996Y-79392603D02*
X98183996Y-78579803D01*
X98183996Y-78579803D02*
X98106587Y-78695918D01*
X98106587Y-78695918D02*
X98029177Y-78773327D01*
X98029177Y-78773327D02*
X97951768Y-78812032D01*
X98677672Y-65579803D02*
X99142129Y-65579803D01*
X98909901Y-66392603D02*
X98909901Y-65579803D01*
X99413062Y-66392603D02*
X99413062Y-65579803D01*
X99761405Y-66392603D02*
X99761405Y-65966851D01*
X99761405Y-65966851D02*
X99722700Y-65889441D01*
X99722700Y-65889441D02*
X99645291Y-65850737D01*
X99645291Y-65850737D02*
X99529177Y-65850737D01*
X99529177Y-65850737D02*
X99451767Y-65889441D01*
X99451767Y-65889441D02*
X99413062Y-65928146D01*
X100458090Y-66353899D02*
X100380681Y-66392603D01*
X100380681Y-66392603D02*
X100225862Y-66392603D01*
X100225862Y-66392603D02*
X100148452Y-66353899D01*
X100148452Y-66353899D02*
X100109748Y-66276489D01*
X100109748Y-66276489D02*
X100109748Y-65966851D01*
X100109748Y-65966851D02*
X100148452Y-65889441D01*
X100148452Y-65889441D02*
X100225862Y-65850737D01*
X100225862Y-65850737D02*
X100380681Y-65850737D01*
X100380681Y-65850737D02*
X100458090Y-65889441D01*
X100458090Y-65889441D02*
X100496795Y-65966851D01*
X100496795Y-65966851D02*
X100496795Y-66044260D01*
X100496795Y-66044260D02*
X100109748Y-66121670D01*
X100845138Y-66392603D02*
X100845138Y-65850737D01*
X100845138Y-66005556D02*
X100883843Y-65928146D01*
X100883843Y-65928146D02*
X100922548Y-65889441D01*
X100922548Y-65889441D02*
X100999957Y-65850737D01*
X100999957Y-65850737D02*
X101077367Y-65850737D01*
X101348300Y-66392603D02*
X101348300Y-65850737D01*
X101348300Y-65928146D02*
X101387005Y-65889441D01*
X101387005Y-65889441D02*
X101464415Y-65850737D01*
X101464415Y-65850737D02*
X101580529Y-65850737D01*
X101580529Y-65850737D02*
X101657938Y-65889441D01*
X101657938Y-65889441D02*
X101696643Y-65966851D01*
X101696643Y-65966851D02*
X101696643Y-66392603D01*
X101696643Y-65966851D02*
X101735348Y-65889441D01*
X101735348Y-65889441D02*
X101812757Y-65850737D01*
X101812757Y-65850737D02*
X101928872Y-65850737D01*
X101928872Y-65850737D02*
X102006281Y-65889441D01*
X102006281Y-65889441D02*
X102044986Y-65966851D01*
X102044986Y-65966851D02*
X102044986Y-66392603D01*
X102432033Y-66082965D02*
X103051310Y-66082965D01*
X98677672Y-71079803D02*
X99142129Y-71079803D01*
X98909901Y-71892603D02*
X98909901Y-71079803D01*
X99413062Y-71892603D02*
X99413062Y-71079803D01*
X99761405Y-71892603D02*
X99761405Y-71466851D01*
X99761405Y-71466851D02*
X99722700Y-71389441D01*
X99722700Y-71389441D02*
X99645291Y-71350737D01*
X99645291Y-71350737D02*
X99529177Y-71350737D01*
X99529177Y-71350737D02*
X99451767Y-71389441D01*
X99451767Y-71389441D02*
X99413062Y-71428146D01*
X100458090Y-71853899D02*
X100380681Y-71892603D01*
X100380681Y-71892603D02*
X100225862Y-71892603D01*
X100225862Y-71892603D02*
X100148452Y-71853899D01*
X100148452Y-71853899D02*
X100109748Y-71776489D01*
X100109748Y-71776489D02*
X100109748Y-71466851D01*
X100109748Y-71466851D02*
X100148452Y-71389441D01*
X100148452Y-71389441D02*
X100225862Y-71350737D01*
X100225862Y-71350737D02*
X100380681Y-71350737D01*
X100380681Y-71350737D02*
X100458090Y-71389441D01*
X100458090Y-71389441D02*
X100496795Y-71466851D01*
X100496795Y-71466851D02*
X100496795Y-71544260D01*
X100496795Y-71544260D02*
X100109748Y-71621670D01*
X100845138Y-71892603D02*
X100845138Y-71350737D01*
X100845138Y-71505556D02*
X100883843Y-71428146D01*
X100883843Y-71428146D02*
X100922548Y-71389441D01*
X100922548Y-71389441D02*
X100999957Y-71350737D01*
X100999957Y-71350737D02*
X101077367Y-71350737D01*
X101348300Y-71892603D02*
X101348300Y-71350737D01*
X101348300Y-71428146D02*
X101387005Y-71389441D01*
X101387005Y-71389441D02*
X101464415Y-71350737D01*
X101464415Y-71350737D02*
X101580529Y-71350737D01*
X101580529Y-71350737D02*
X101657938Y-71389441D01*
X101657938Y-71389441D02*
X101696643Y-71466851D01*
X101696643Y-71466851D02*
X101696643Y-71892603D01*
X101696643Y-71466851D02*
X101735348Y-71389441D01*
X101735348Y-71389441D02*
X101812757Y-71350737D01*
X101812757Y-71350737D02*
X101928872Y-71350737D01*
X101928872Y-71350737D02*
X102006281Y-71389441D01*
X102006281Y-71389441D02*
X102044986Y-71466851D01*
X102044986Y-71466851D02*
X102044986Y-71892603D01*
X102432033Y-71582965D02*
X103051310Y-71582965D01*
X102741671Y-71892603D02*
X102741671Y-71273327D01*
X99177672Y-60579803D02*
X99448605Y-61392603D01*
X99448605Y-61392603D02*
X99719539Y-60579803D01*
X99990472Y-61392603D02*
X99990472Y-60579803D01*
X99990472Y-60579803D02*
X100183996Y-60579803D01*
X100183996Y-60579803D02*
X100300110Y-60618508D01*
X100300110Y-60618508D02*
X100377520Y-60695918D01*
X100377520Y-60695918D02*
X100416225Y-60773327D01*
X100416225Y-60773327D02*
X100454929Y-60928146D01*
X100454929Y-60928146D02*
X100454929Y-61044260D01*
X100454929Y-61044260D02*
X100416225Y-61199079D01*
X100416225Y-61199079D02*
X100377520Y-61276489D01*
X100377520Y-61276489D02*
X100300110Y-61353899D01*
X100300110Y-61353899D02*
X100183996Y-61392603D01*
X100183996Y-61392603D02*
X99990472Y-61392603D01*
X100609749Y-61470013D02*
X101229025Y-61470013D01*
X101538663Y-61392603D02*
X101461253Y-61353899D01*
X101461253Y-61353899D02*
X101422548Y-61315194D01*
X101422548Y-61315194D02*
X101383844Y-61237784D01*
X101383844Y-61237784D02*
X101383844Y-61005556D01*
X101383844Y-61005556D02*
X101422548Y-60928146D01*
X101422548Y-60928146D02*
X101461253Y-60889441D01*
X101461253Y-60889441D02*
X101538663Y-60850737D01*
X101538663Y-60850737D02*
X101654777Y-60850737D01*
X101654777Y-60850737D02*
X101732186Y-60889441D01*
X101732186Y-60889441D02*
X101770891Y-60928146D01*
X101770891Y-60928146D02*
X101809596Y-61005556D01*
X101809596Y-61005556D02*
X101809596Y-61237784D01*
X101809596Y-61237784D02*
X101770891Y-61315194D01*
X101770891Y-61315194D02*
X101732186Y-61353899D01*
X101732186Y-61353899D02*
X101654777Y-61392603D01*
X101654777Y-61392603D02*
X101538663Y-61392603D01*
X102506281Y-60850737D02*
X102506281Y-61392603D01*
X102157938Y-60850737D02*
X102157938Y-61276489D01*
X102157938Y-61276489D02*
X102196643Y-61353899D01*
X102196643Y-61353899D02*
X102274053Y-61392603D01*
X102274053Y-61392603D02*
X102390167Y-61392603D01*
X102390167Y-61392603D02*
X102467576Y-61353899D01*
X102467576Y-61353899D02*
X102506281Y-61315194D01*
X102777214Y-60850737D02*
X103086852Y-60850737D01*
X102893328Y-60579803D02*
X102893328Y-61276489D01*
X102893328Y-61276489D02*
X102932033Y-61353899D01*
X102932033Y-61353899D02*
X103009443Y-61392603D01*
X103009443Y-61392603D02*
X103086852Y-61392603D01*
X100948605Y-55579803D02*
X101103424Y-55579803D01*
X101103424Y-55579803D02*
X101180834Y-55618508D01*
X101180834Y-55618508D02*
X101258243Y-55695918D01*
X101258243Y-55695918D02*
X101296948Y-55850737D01*
X101296948Y-55850737D02*
X101296948Y-56121670D01*
X101296948Y-56121670D02*
X101258243Y-56276489D01*
X101258243Y-56276489D02*
X101180834Y-56353899D01*
X101180834Y-56353899D02*
X101103424Y-56392603D01*
X101103424Y-56392603D02*
X100948605Y-56392603D01*
X100948605Y-56392603D02*
X100871196Y-56353899D01*
X100871196Y-56353899D02*
X100793786Y-56276489D01*
X100793786Y-56276489D02*
X100755082Y-56121670D01*
X100755082Y-56121670D02*
X100755082Y-55850737D01*
X100755082Y-55850737D02*
X100793786Y-55695918D01*
X100793786Y-55695918D02*
X100871196Y-55618508D01*
X100871196Y-55618508D02*
X100948605Y-55579803D01*
X101993634Y-55850737D02*
X101993634Y-56392603D01*
X101645291Y-55850737D02*
X101645291Y-56276489D01*
X101645291Y-56276489D02*
X101683996Y-56353899D01*
X101683996Y-56353899D02*
X101761406Y-56392603D01*
X101761406Y-56392603D02*
X101877520Y-56392603D01*
X101877520Y-56392603D02*
X101954929Y-56353899D01*
X101954929Y-56353899D02*
X101993634Y-56315194D01*
X102264567Y-55850737D02*
X102574205Y-55850737D01*
X102380681Y-55579803D02*
X102380681Y-56276489D01*
X102380681Y-56276489D02*
X102419386Y-56353899D01*
X102419386Y-56353899D02*
X102496796Y-56392603D01*
X102496796Y-56392603D02*
X102574205Y-56392603D01*
X172064720Y-109966851D02*
X172180834Y-110005556D01*
X172180834Y-110005556D02*
X172219539Y-110044260D01*
X172219539Y-110044260D02*
X172258243Y-110121670D01*
X172258243Y-110121670D02*
X172258243Y-110237784D01*
X172258243Y-110237784D02*
X172219539Y-110315194D01*
X172219539Y-110315194D02*
X172180834Y-110353899D01*
X172180834Y-110353899D02*
X172103424Y-110392603D01*
X172103424Y-110392603D02*
X171793786Y-110392603D01*
X171793786Y-110392603D02*
X171793786Y-109579803D01*
X171793786Y-109579803D02*
X172064720Y-109579803D01*
X172064720Y-109579803D02*
X172142129Y-109618508D01*
X172142129Y-109618508D02*
X172180834Y-109657213D01*
X172180834Y-109657213D02*
X172219539Y-109734622D01*
X172219539Y-109734622D02*
X172219539Y-109812032D01*
X172219539Y-109812032D02*
X172180834Y-109889441D01*
X172180834Y-109889441D02*
X172142129Y-109928146D01*
X172142129Y-109928146D02*
X172064720Y-109966851D01*
X172064720Y-109966851D02*
X171793786Y-109966851D01*
X172567882Y-109657213D02*
X172606586Y-109618508D01*
X172606586Y-109618508D02*
X172683996Y-109579803D01*
X172683996Y-109579803D02*
X172877520Y-109579803D01*
X172877520Y-109579803D02*
X172954929Y-109618508D01*
X172954929Y-109618508D02*
X172993634Y-109657213D01*
X172993634Y-109657213D02*
X173032339Y-109734622D01*
X173032339Y-109734622D02*
X173032339Y-109812032D01*
X173032339Y-109812032D02*
X172993634Y-109928146D01*
X172993634Y-109928146D02*
X172529177Y-110392603D01*
X172529177Y-110392603D02*
X173032339Y-110392603D01*
X172064720Y-114966851D02*
X172180834Y-115005556D01*
X172180834Y-115005556D02*
X172219539Y-115044260D01*
X172219539Y-115044260D02*
X172258243Y-115121670D01*
X172258243Y-115121670D02*
X172258243Y-115237784D01*
X172258243Y-115237784D02*
X172219539Y-115315194D01*
X172219539Y-115315194D02*
X172180834Y-115353899D01*
X172180834Y-115353899D02*
X172103424Y-115392603D01*
X172103424Y-115392603D02*
X171793786Y-115392603D01*
X171793786Y-115392603D02*
X171793786Y-114579803D01*
X171793786Y-114579803D02*
X172064720Y-114579803D01*
X172064720Y-114579803D02*
X172142129Y-114618508D01*
X172142129Y-114618508D02*
X172180834Y-114657213D01*
X172180834Y-114657213D02*
X172219539Y-114734622D01*
X172219539Y-114734622D02*
X172219539Y-114812032D01*
X172219539Y-114812032D02*
X172180834Y-114889441D01*
X172180834Y-114889441D02*
X172142129Y-114928146D01*
X172142129Y-114928146D02*
X172064720Y-114966851D01*
X172064720Y-114966851D02*
X171793786Y-114966851D01*
X173032339Y-115392603D02*
X172567882Y-115392603D01*
X172800110Y-115392603D02*
X172800110Y-114579803D01*
X172800110Y-114579803D02*
X172722701Y-114695918D01*
X172722701Y-114695918D02*
X172645291Y-114773327D01*
X172645291Y-114773327D02*
X172567882Y-114812032D01*
X171755082Y-120660375D02*
X172142129Y-120660375D01*
X171677672Y-120892603D02*
X171948605Y-120079803D01*
X171948605Y-120079803D02*
X172219539Y-120892603D01*
X172451768Y-120157213D02*
X172490472Y-120118508D01*
X172490472Y-120118508D02*
X172567882Y-120079803D01*
X172567882Y-120079803D02*
X172761406Y-120079803D01*
X172761406Y-120079803D02*
X172838815Y-120118508D01*
X172838815Y-120118508D02*
X172877520Y-120157213D01*
X172877520Y-120157213D02*
X172916225Y-120234622D01*
X172916225Y-120234622D02*
X172916225Y-120312032D01*
X172916225Y-120312032D02*
X172877520Y-120428146D01*
X172877520Y-120428146D02*
X172413063Y-120892603D01*
X172413063Y-120892603D02*
X172916225Y-120892603D01*
X171755082Y-125660375D02*
X172142129Y-125660375D01*
X171677672Y-125892603D02*
X171948605Y-125079803D01*
X171948605Y-125079803D02*
X172219539Y-125892603D01*
X172916225Y-125892603D02*
X172451768Y-125892603D01*
X172683996Y-125892603D02*
X172683996Y-125079803D01*
X172683996Y-125079803D02*
X172606587Y-125195918D01*
X172606587Y-125195918D02*
X172529177Y-125273327D01*
X172529177Y-125273327D02*
X172451768Y-125312032D01*
X171948605Y-77579803D02*
X172103424Y-77579803D01*
X172103424Y-77579803D02*
X172180834Y-77618508D01*
X172180834Y-77618508D02*
X172258243Y-77695918D01*
X172258243Y-77695918D02*
X172296948Y-77850737D01*
X172296948Y-77850737D02*
X172296948Y-78121670D01*
X172296948Y-78121670D02*
X172258243Y-78276489D01*
X172258243Y-78276489D02*
X172180834Y-78353899D01*
X172180834Y-78353899D02*
X172103424Y-78392603D01*
X172103424Y-78392603D02*
X171948605Y-78392603D01*
X171948605Y-78392603D02*
X171871196Y-78353899D01*
X171871196Y-78353899D02*
X171793786Y-78276489D01*
X171793786Y-78276489D02*
X171755082Y-78121670D01*
X171755082Y-78121670D02*
X171755082Y-77850737D01*
X171755082Y-77850737D02*
X171793786Y-77695918D01*
X171793786Y-77695918D02*
X171871196Y-77618508D01*
X171871196Y-77618508D02*
X171948605Y-77579803D01*
X172993634Y-77850737D02*
X172993634Y-78392603D01*
X172645291Y-77850737D02*
X172645291Y-78276489D01*
X172645291Y-78276489D02*
X172683996Y-78353899D01*
X172683996Y-78353899D02*
X172761406Y-78392603D01*
X172761406Y-78392603D02*
X172877520Y-78392603D01*
X172877520Y-78392603D02*
X172954929Y-78353899D01*
X172954929Y-78353899D02*
X172993634Y-78315194D01*
X173264567Y-77850737D02*
X173574205Y-77850737D01*
X173380681Y-77579803D02*
X173380681Y-78276489D01*
X173380681Y-78276489D02*
X173419386Y-78353899D01*
X173419386Y-78353899D02*
X173496796Y-78392603D01*
X173496796Y-78392603D02*
X173574205Y-78392603D01*
X165755082Y-140657213D02*
X165793786Y-140618508D01*
X165793786Y-140618508D02*
X165871196Y-140579803D01*
X165871196Y-140579803D02*
X166064720Y-140579803D01*
X166064720Y-140579803D02*
X166142129Y-140618508D01*
X166142129Y-140618508D02*
X166180834Y-140657213D01*
X166180834Y-140657213D02*
X166219539Y-140734622D01*
X166219539Y-140734622D02*
X166219539Y-140812032D01*
X166219539Y-140812032D02*
X166180834Y-140928146D01*
X166180834Y-140928146D02*
X165716377Y-141392603D01*
X165716377Y-141392603D02*
X166219539Y-141392603D01*
X166722700Y-140579803D02*
X166800110Y-140579803D01*
X166800110Y-140579803D02*
X166877519Y-140618508D01*
X166877519Y-140618508D02*
X166916224Y-140657213D01*
X166916224Y-140657213D02*
X166954929Y-140734622D01*
X166954929Y-140734622D02*
X166993634Y-140889441D01*
X166993634Y-140889441D02*
X166993634Y-141082965D01*
X166993634Y-141082965D02*
X166954929Y-141237784D01*
X166954929Y-141237784D02*
X166916224Y-141315194D01*
X166916224Y-141315194D02*
X166877519Y-141353899D01*
X166877519Y-141353899D02*
X166800110Y-141392603D01*
X166800110Y-141392603D02*
X166722700Y-141392603D01*
X166722700Y-141392603D02*
X166645291Y-141353899D01*
X166645291Y-141353899D02*
X166606586Y-141315194D01*
X166606586Y-141315194D02*
X166567881Y-141237784D01*
X166567881Y-141237784D02*
X166529177Y-141082965D01*
X166529177Y-141082965D02*
X166529177Y-140889441D01*
X166529177Y-140889441D02*
X166567881Y-140734622D01*
X166567881Y-140734622D02*
X166606586Y-140657213D01*
X166606586Y-140657213D02*
X166645291Y-140618508D01*
X166645291Y-140618508D02*
X166722700Y-140579803D01*
X160755082Y-140657213D02*
X160793786Y-140618508D01*
X160793786Y-140618508D02*
X160871196Y-140579803D01*
X160871196Y-140579803D02*
X161064720Y-140579803D01*
X161064720Y-140579803D02*
X161142129Y-140618508D01*
X161142129Y-140618508D02*
X161180834Y-140657213D01*
X161180834Y-140657213D02*
X161219539Y-140734622D01*
X161219539Y-140734622D02*
X161219539Y-140812032D01*
X161219539Y-140812032D02*
X161180834Y-140928146D01*
X161180834Y-140928146D02*
X160716377Y-141392603D01*
X160716377Y-141392603D02*
X161219539Y-141392603D01*
X161993634Y-141392603D02*
X161529177Y-141392603D01*
X161761405Y-141392603D02*
X161761405Y-140579803D01*
X161761405Y-140579803D02*
X161683996Y-140695918D01*
X161683996Y-140695918D02*
X161606586Y-140773327D01*
X161606586Y-140773327D02*
X161529177Y-140812032D01*
X165448605Y-51579803D02*
X165603424Y-51579803D01*
X165603424Y-51579803D02*
X165680834Y-51618508D01*
X165680834Y-51618508D02*
X165758243Y-51695918D01*
X165758243Y-51695918D02*
X165796948Y-51850737D01*
X165796948Y-51850737D02*
X165796948Y-52121670D01*
X165796948Y-52121670D02*
X165758243Y-52276489D01*
X165758243Y-52276489D02*
X165680834Y-52353899D01*
X165680834Y-52353899D02*
X165603424Y-52392603D01*
X165603424Y-52392603D02*
X165448605Y-52392603D01*
X165448605Y-52392603D02*
X165371196Y-52353899D01*
X165371196Y-52353899D02*
X165293786Y-52276489D01*
X165293786Y-52276489D02*
X165255082Y-52121670D01*
X165255082Y-52121670D02*
X165255082Y-51850737D01*
X165255082Y-51850737D02*
X165293786Y-51695918D01*
X165293786Y-51695918D02*
X165371196Y-51618508D01*
X165371196Y-51618508D02*
X165448605Y-51579803D01*
X166493634Y-51850737D02*
X166493634Y-52392603D01*
X166145291Y-51850737D02*
X166145291Y-52276489D01*
X166145291Y-52276489D02*
X166183996Y-52353899D01*
X166183996Y-52353899D02*
X166261406Y-52392603D01*
X166261406Y-52392603D02*
X166377520Y-52392603D01*
X166377520Y-52392603D02*
X166454929Y-52353899D01*
X166454929Y-52353899D02*
X166493634Y-52315194D01*
X166764567Y-51850737D02*
X167074205Y-51850737D01*
X166880681Y-51579803D02*
X166880681Y-52276489D01*
X166880681Y-52276489D02*
X166919386Y-52353899D01*
X166919386Y-52353899D02*
X166996796Y-52392603D01*
X166996796Y-52392603D02*
X167074205Y-52392603D01*
X147948605Y-51579803D02*
X148103424Y-51579803D01*
X148103424Y-51579803D02*
X148180834Y-51618508D01*
X148180834Y-51618508D02*
X148258243Y-51695918D01*
X148258243Y-51695918D02*
X148296948Y-51850737D01*
X148296948Y-51850737D02*
X148296948Y-52121670D01*
X148296948Y-52121670D02*
X148258243Y-52276489D01*
X148258243Y-52276489D02*
X148180834Y-52353899D01*
X148180834Y-52353899D02*
X148103424Y-52392603D01*
X148103424Y-52392603D02*
X147948605Y-52392603D01*
X147948605Y-52392603D02*
X147871196Y-52353899D01*
X147871196Y-52353899D02*
X147793786Y-52276489D01*
X147793786Y-52276489D02*
X147755082Y-52121670D01*
X147755082Y-52121670D02*
X147755082Y-51850737D01*
X147755082Y-51850737D02*
X147793786Y-51695918D01*
X147793786Y-51695918D02*
X147871196Y-51618508D01*
X147871196Y-51618508D02*
X147948605Y-51579803D01*
X148993634Y-51850737D02*
X148993634Y-52392603D01*
X148645291Y-51850737D02*
X148645291Y-52276489D01*
X148645291Y-52276489D02*
X148683996Y-52353899D01*
X148683996Y-52353899D02*
X148761406Y-52392603D01*
X148761406Y-52392603D02*
X148877520Y-52392603D01*
X148877520Y-52392603D02*
X148954929Y-52353899D01*
X148954929Y-52353899D02*
X148993634Y-52315194D01*
X149264567Y-51850737D02*
X149574205Y-51850737D01*
X149380681Y-51579803D02*
X149380681Y-52276489D01*
X149380681Y-52276489D02*
X149419386Y-52353899D01*
X149419386Y-52353899D02*
X149496796Y-52392603D01*
X149496796Y-52392603D02*
X149574205Y-52392603D01*
X129448605Y-51579803D02*
X129603424Y-51579803D01*
X129603424Y-51579803D02*
X129680834Y-51618508D01*
X129680834Y-51618508D02*
X129758243Y-51695918D01*
X129758243Y-51695918D02*
X129796948Y-51850737D01*
X129796948Y-51850737D02*
X129796948Y-52121670D01*
X129796948Y-52121670D02*
X129758243Y-52276489D01*
X129758243Y-52276489D02*
X129680834Y-52353899D01*
X129680834Y-52353899D02*
X129603424Y-52392603D01*
X129603424Y-52392603D02*
X129448605Y-52392603D01*
X129448605Y-52392603D02*
X129371196Y-52353899D01*
X129371196Y-52353899D02*
X129293786Y-52276489D01*
X129293786Y-52276489D02*
X129255082Y-52121670D01*
X129255082Y-52121670D02*
X129255082Y-51850737D01*
X129255082Y-51850737D02*
X129293786Y-51695918D01*
X129293786Y-51695918D02*
X129371196Y-51618508D01*
X129371196Y-51618508D02*
X129448605Y-51579803D01*
X130493634Y-51850737D02*
X130493634Y-52392603D01*
X130145291Y-51850737D02*
X130145291Y-52276489D01*
X130145291Y-52276489D02*
X130183996Y-52353899D01*
X130183996Y-52353899D02*
X130261406Y-52392603D01*
X130261406Y-52392603D02*
X130377520Y-52392603D01*
X130377520Y-52392603D02*
X130454929Y-52353899D01*
X130454929Y-52353899D02*
X130493634Y-52315194D01*
X130764567Y-51850737D02*
X131074205Y-51850737D01*
X130880681Y-51579803D02*
X130880681Y-52276489D01*
X130880681Y-52276489D02*
X130919386Y-52353899D01*
X130919386Y-52353899D02*
X130996796Y-52392603D01*
X130996796Y-52392603D02*
X131074205Y-52392603D01*
X123716377Y-51579803D02*
X124219539Y-51579803D01*
X124219539Y-51579803D02*
X123948605Y-51889441D01*
X123948605Y-51889441D02*
X124064720Y-51889441D01*
X124064720Y-51889441D02*
X124142129Y-51928146D01*
X124142129Y-51928146D02*
X124180834Y-51966851D01*
X124180834Y-51966851D02*
X124219539Y-52044260D01*
X124219539Y-52044260D02*
X124219539Y-52237784D01*
X124219539Y-52237784D02*
X124180834Y-52315194D01*
X124180834Y-52315194D02*
X124142129Y-52353899D01*
X124142129Y-52353899D02*
X124064720Y-52392603D01*
X124064720Y-52392603D02*
X123832491Y-52392603D01*
X123832491Y-52392603D02*
X123755082Y-52353899D01*
X123755082Y-52353899D02*
X123716377Y-52315194D01*
X124490472Y-51850737D02*
X124683996Y-52392603D01*
X124683996Y-52392603D02*
X124877519Y-51850737D01*
X125109748Y-51579803D02*
X125612910Y-51579803D01*
X125612910Y-51579803D02*
X125341976Y-51889441D01*
X125341976Y-51889441D02*
X125458091Y-51889441D01*
X125458091Y-51889441D02*
X125535500Y-51928146D01*
X125535500Y-51928146D02*
X125574205Y-51966851D01*
X125574205Y-51966851D02*
X125612910Y-52044260D01*
X125612910Y-52044260D02*
X125612910Y-52237784D01*
X125612910Y-52237784D02*
X125574205Y-52315194D01*
X125574205Y-52315194D02*
X125535500Y-52353899D01*
X125535500Y-52353899D02*
X125458091Y-52392603D01*
X125458091Y-52392603D02*
X125225862Y-52392603D01*
X125225862Y-52392603D02*
X125148453Y-52353899D01*
X125148453Y-52353899D02*
X125109748Y-52315194D01*
X141716377Y-51579803D02*
X142219539Y-51579803D01*
X142219539Y-51579803D02*
X141948605Y-51889441D01*
X141948605Y-51889441D02*
X142064720Y-51889441D01*
X142064720Y-51889441D02*
X142142129Y-51928146D01*
X142142129Y-51928146D02*
X142180834Y-51966851D01*
X142180834Y-51966851D02*
X142219539Y-52044260D01*
X142219539Y-52044260D02*
X142219539Y-52237784D01*
X142219539Y-52237784D02*
X142180834Y-52315194D01*
X142180834Y-52315194D02*
X142142129Y-52353899D01*
X142142129Y-52353899D02*
X142064720Y-52392603D01*
X142064720Y-52392603D02*
X141832491Y-52392603D01*
X141832491Y-52392603D02*
X141755082Y-52353899D01*
X141755082Y-52353899D02*
X141716377Y-52315194D01*
X142490472Y-51850737D02*
X142683996Y-52392603D01*
X142683996Y-52392603D02*
X142877519Y-51850737D01*
X143109748Y-51579803D02*
X143612910Y-51579803D01*
X143612910Y-51579803D02*
X143341976Y-51889441D01*
X143341976Y-51889441D02*
X143458091Y-51889441D01*
X143458091Y-51889441D02*
X143535500Y-51928146D01*
X143535500Y-51928146D02*
X143574205Y-51966851D01*
X143574205Y-51966851D02*
X143612910Y-52044260D01*
X143612910Y-52044260D02*
X143612910Y-52237784D01*
X143612910Y-52237784D02*
X143574205Y-52315194D01*
X143574205Y-52315194D02*
X143535500Y-52353899D01*
X143535500Y-52353899D02*
X143458091Y-52392603D01*
X143458091Y-52392603D02*
X143225862Y-52392603D01*
X143225862Y-52392603D02*
X143148453Y-52353899D01*
X143148453Y-52353899D02*
X143109748Y-52315194D01*
X160216377Y-51579803D02*
X160719539Y-51579803D01*
X160719539Y-51579803D02*
X160448605Y-51889441D01*
X160448605Y-51889441D02*
X160564720Y-51889441D01*
X160564720Y-51889441D02*
X160642129Y-51928146D01*
X160642129Y-51928146D02*
X160680834Y-51966851D01*
X160680834Y-51966851D02*
X160719539Y-52044260D01*
X160719539Y-52044260D02*
X160719539Y-52237784D01*
X160719539Y-52237784D02*
X160680834Y-52315194D01*
X160680834Y-52315194D02*
X160642129Y-52353899D01*
X160642129Y-52353899D02*
X160564720Y-52392603D01*
X160564720Y-52392603D02*
X160332491Y-52392603D01*
X160332491Y-52392603D02*
X160255082Y-52353899D01*
X160255082Y-52353899D02*
X160216377Y-52315194D01*
X160990472Y-51850737D02*
X161183996Y-52392603D01*
X161183996Y-52392603D02*
X161377519Y-51850737D01*
X161609748Y-51579803D02*
X162112910Y-51579803D01*
X162112910Y-51579803D02*
X161841976Y-51889441D01*
X161841976Y-51889441D02*
X161958091Y-51889441D01*
X161958091Y-51889441D02*
X162035500Y-51928146D01*
X162035500Y-51928146D02*
X162074205Y-51966851D01*
X162074205Y-51966851D02*
X162112910Y-52044260D01*
X162112910Y-52044260D02*
X162112910Y-52237784D01*
X162112910Y-52237784D02*
X162074205Y-52315194D01*
X162074205Y-52315194D02*
X162035500Y-52353899D01*
X162035500Y-52353899D02*
X161958091Y-52392603D01*
X161958091Y-52392603D02*
X161725862Y-52392603D01*
X161725862Y-52392603D02*
X161648453Y-52353899D01*
X161648453Y-52353899D02*
X161609748Y-52315194D01*
X171716377Y-72579803D02*
X172219539Y-72579803D01*
X172219539Y-72579803D02*
X171948605Y-72889441D01*
X171948605Y-72889441D02*
X172064720Y-72889441D01*
X172064720Y-72889441D02*
X172142129Y-72928146D01*
X172142129Y-72928146D02*
X172180834Y-72966851D01*
X172180834Y-72966851D02*
X172219539Y-73044260D01*
X172219539Y-73044260D02*
X172219539Y-73237784D01*
X172219539Y-73237784D02*
X172180834Y-73315194D01*
X172180834Y-73315194D02*
X172142129Y-73353899D01*
X172142129Y-73353899D02*
X172064720Y-73392603D01*
X172064720Y-73392603D02*
X171832491Y-73392603D01*
X171832491Y-73392603D02*
X171755082Y-73353899D01*
X171755082Y-73353899D02*
X171716377Y-73315194D01*
X172490472Y-72850737D02*
X172683996Y-73392603D01*
X172683996Y-73392603D02*
X172877519Y-72850737D01*
X173109748Y-72579803D02*
X173612910Y-72579803D01*
X173612910Y-72579803D02*
X173341976Y-72889441D01*
X173341976Y-72889441D02*
X173458091Y-72889441D01*
X173458091Y-72889441D02*
X173535500Y-72928146D01*
X173535500Y-72928146D02*
X173574205Y-72966851D01*
X173574205Y-72966851D02*
X173612910Y-73044260D01*
X173612910Y-73044260D02*
X173612910Y-73237784D01*
X173612910Y-73237784D02*
X173574205Y-73315194D01*
X173574205Y-73315194D02*
X173535500Y-73353899D01*
X173535500Y-73353899D02*
X173458091Y-73392603D01*
X173458091Y-73392603D02*
X173225862Y-73392603D01*
X173225862Y-73392603D02*
X173148453Y-73353899D01*
X173148453Y-73353899D02*
X173109748Y-73315194D01*
X150216377Y-140579803D02*
X150719539Y-140579803D01*
X150719539Y-140579803D02*
X150448605Y-140889441D01*
X150448605Y-140889441D02*
X150564720Y-140889441D01*
X150564720Y-140889441D02*
X150642129Y-140928146D01*
X150642129Y-140928146D02*
X150680834Y-140966851D01*
X150680834Y-140966851D02*
X150719539Y-141044260D01*
X150719539Y-141044260D02*
X150719539Y-141237784D01*
X150719539Y-141237784D02*
X150680834Y-141315194D01*
X150680834Y-141315194D02*
X150642129Y-141353899D01*
X150642129Y-141353899D02*
X150564720Y-141392603D01*
X150564720Y-141392603D02*
X150332491Y-141392603D01*
X150332491Y-141392603D02*
X150255082Y-141353899D01*
X150255082Y-141353899D02*
X150216377Y-141315194D01*
X150990472Y-140850737D02*
X151183996Y-141392603D01*
X151183996Y-141392603D02*
X151377519Y-140850737D01*
X151609748Y-140579803D02*
X152112910Y-140579803D01*
X152112910Y-140579803D02*
X151841976Y-140889441D01*
X151841976Y-140889441D02*
X151958091Y-140889441D01*
X151958091Y-140889441D02*
X152035500Y-140928146D01*
X152035500Y-140928146D02*
X152074205Y-140966851D01*
X152074205Y-140966851D02*
X152112910Y-141044260D01*
X152112910Y-141044260D02*
X152112910Y-141237784D01*
X152112910Y-141237784D02*
X152074205Y-141315194D01*
X152074205Y-141315194D02*
X152035500Y-141353899D01*
X152035500Y-141353899D02*
X151958091Y-141392603D01*
X151958091Y-141392603D02*
X151725862Y-141392603D01*
X151725862Y-141392603D02*
X151648453Y-141353899D01*
X151648453Y-141353899D02*
X151609748Y-141315194D01*
X155719539Y-140618508D02*
X155642129Y-140579803D01*
X155642129Y-140579803D02*
X155526015Y-140579803D01*
X155526015Y-140579803D02*
X155409901Y-140618508D01*
X155409901Y-140618508D02*
X155332491Y-140695918D01*
X155332491Y-140695918D02*
X155293786Y-140773327D01*
X155293786Y-140773327D02*
X155255082Y-140928146D01*
X155255082Y-140928146D02*
X155255082Y-141044260D01*
X155255082Y-141044260D02*
X155293786Y-141199079D01*
X155293786Y-141199079D02*
X155332491Y-141276489D01*
X155332491Y-141276489D02*
X155409901Y-141353899D01*
X155409901Y-141353899D02*
X155526015Y-141392603D01*
X155526015Y-141392603D02*
X155603424Y-141392603D01*
X155603424Y-141392603D02*
X155719539Y-141353899D01*
X155719539Y-141353899D02*
X155758243Y-141315194D01*
X155758243Y-141315194D02*
X155758243Y-141044260D01*
X155758243Y-141044260D02*
X155603424Y-141044260D01*
X156106586Y-140850737D02*
X156106586Y-141392603D01*
X156106586Y-140928146D02*
X156145291Y-140889441D01*
X156145291Y-140889441D02*
X156222701Y-140850737D01*
X156222701Y-140850737D02*
X156338815Y-140850737D01*
X156338815Y-140850737D02*
X156416224Y-140889441D01*
X156416224Y-140889441D02*
X156454929Y-140966851D01*
X156454929Y-140966851D02*
X156454929Y-141392603D01*
X157190319Y-141392603D02*
X157190319Y-140579803D01*
X157190319Y-141353899D02*
X157112910Y-141392603D01*
X157112910Y-141392603D02*
X156958091Y-141392603D01*
X156958091Y-141392603D02*
X156880681Y-141353899D01*
X156880681Y-141353899D02*
X156841976Y-141315194D01*
X156841976Y-141315194D02*
X156803272Y-141237784D01*
X156803272Y-141237784D02*
X156803272Y-141005556D01*
X156803272Y-141005556D02*
X156841976Y-140928146D01*
X156841976Y-140928146D02*
X156880681Y-140889441D01*
X156880681Y-140889441D02*
X156958091Y-140850737D01*
X156958091Y-140850737D02*
X157112910Y-140850737D01*
X157112910Y-140850737D02*
X157190319Y-140889441D01*
X118719539Y-140892603D02*
X118255082Y-140892603D01*
X118487310Y-140892603D02*
X118487310Y-140079803D01*
X118487310Y-140079803D02*
X118409901Y-140195918D01*
X118409901Y-140195918D02*
X118332491Y-140273327D01*
X118332491Y-140273327D02*
X118255082Y-140312032D01*
X119029177Y-140157213D02*
X119067881Y-140118508D01*
X119067881Y-140118508D02*
X119145291Y-140079803D01*
X119145291Y-140079803D02*
X119338815Y-140079803D01*
X119338815Y-140079803D02*
X119416224Y-140118508D01*
X119416224Y-140118508D02*
X119454929Y-140157213D01*
X119454929Y-140157213D02*
X119493634Y-140234622D01*
X119493634Y-140234622D02*
X119493634Y-140312032D01*
X119493634Y-140312032D02*
X119454929Y-140428146D01*
X119454929Y-140428146D02*
X118990472Y-140892603D01*
X118990472Y-140892603D02*
X119493634Y-140892603D01*
X119725862Y-140079803D02*
X119996795Y-140892603D01*
X119996795Y-140892603D02*
X120267729Y-140079803D01*
X112719539Y-140118508D02*
X112642129Y-140079803D01*
X112642129Y-140079803D02*
X112526015Y-140079803D01*
X112526015Y-140079803D02*
X112409901Y-140118508D01*
X112409901Y-140118508D02*
X112332491Y-140195918D01*
X112332491Y-140195918D02*
X112293786Y-140273327D01*
X112293786Y-140273327D02*
X112255082Y-140428146D01*
X112255082Y-140428146D02*
X112255082Y-140544260D01*
X112255082Y-140544260D02*
X112293786Y-140699079D01*
X112293786Y-140699079D02*
X112332491Y-140776489D01*
X112332491Y-140776489D02*
X112409901Y-140853899D01*
X112409901Y-140853899D02*
X112526015Y-140892603D01*
X112526015Y-140892603D02*
X112603424Y-140892603D01*
X112603424Y-140892603D02*
X112719539Y-140853899D01*
X112719539Y-140853899D02*
X112758243Y-140815194D01*
X112758243Y-140815194D02*
X112758243Y-140544260D01*
X112758243Y-140544260D02*
X112603424Y-140544260D01*
X113106586Y-140350737D02*
X113106586Y-140892603D01*
X113106586Y-140428146D02*
X113145291Y-140389441D01*
X113145291Y-140389441D02*
X113222701Y-140350737D01*
X113222701Y-140350737D02*
X113338815Y-140350737D01*
X113338815Y-140350737D02*
X113416224Y-140389441D01*
X113416224Y-140389441D02*
X113454929Y-140466851D01*
X113454929Y-140466851D02*
X113454929Y-140892603D01*
X114190319Y-140892603D02*
X114190319Y-140079803D01*
X114190319Y-140853899D02*
X114112910Y-140892603D01*
X114112910Y-140892603D02*
X113958091Y-140892603D01*
X113958091Y-140892603D02*
X113880681Y-140853899D01*
X113880681Y-140853899D02*
X113841976Y-140815194D01*
X113841976Y-140815194D02*
X113803272Y-140737784D01*
X113803272Y-140737784D02*
X113803272Y-140505556D01*
X113803272Y-140505556D02*
X113841976Y-140428146D01*
X113841976Y-140428146D02*
X113880681Y-140389441D01*
X113880681Y-140389441D02*
X113958091Y-140350737D01*
X113958091Y-140350737D02*
X114112910Y-140350737D01*
X114112910Y-140350737D02*
X114190319Y-140389441D01*
X171719539Y-67618508D02*
X171642129Y-67579803D01*
X171642129Y-67579803D02*
X171526015Y-67579803D01*
X171526015Y-67579803D02*
X171409901Y-67618508D01*
X171409901Y-67618508D02*
X171332491Y-67695918D01*
X171332491Y-67695918D02*
X171293786Y-67773327D01*
X171293786Y-67773327D02*
X171255082Y-67928146D01*
X171255082Y-67928146D02*
X171255082Y-68044260D01*
X171255082Y-68044260D02*
X171293786Y-68199079D01*
X171293786Y-68199079D02*
X171332491Y-68276489D01*
X171332491Y-68276489D02*
X171409901Y-68353899D01*
X171409901Y-68353899D02*
X171526015Y-68392603D01*
X171526015Y-68392603D02*
X171603424Y-68392603D01*
X171603424Y-68392603D02*
X171719539Y-68353899D01*
X171719539Y-68353899D02*
X171758243Y-68315194D01*
X171758243Y-68315194D02*
X171758243Y-68044260D01*
X171758243Y-68044260D02*
X171603424Y-68044260D01*
X172106586Y-67850737D02*
X172106586Y-68392603D01*
X172106586Y-67928146D02*
X172145291Y-67889441D01*
X172145291Y-67889441D02*
X172222701Y-67850737D01*
X172222701Y-67850737D02*
X172338815Y-67850737D01*
X172338815Y-67850737D02*
X172416224Y-67889441D01*
X172416224Y-67889441D02*
X172454929Y-67966851D01*
X172454929Y-67966851D02*
X172454929Y-68392603D01*
X173190319Y-68392603D02*
X173190319Y-67579803D01*
X173190319Y-68353899D02*
X173112910Y-68392603D01*
X173112910Y-68392603D02*
X172958091Y-68392603D01*
X172958091Y-68392603D02*
X172880681Y-68353899D01*
X172880681Y-68353899D02*
X172841976Y-68315194D01*
X172841976Y-68315194D02*
X172803272Y-68237784D01*
X172803272Y-68237784D02*
X172803272Y-68005556D01*
X172803272Y-68005556D02*
X172841976Y-67928146D01*
X172841976Y-67928146D02*
X172880681Y-67889441D01*
X172880681Y-67889441D02*
X172958091Y-67850737D01*
X172958091Y-67850737D02*
X173112910Y-67850737D01*
X173112910Y-67850737D02*
X173190319Y-67889441D01*
X155719539Y-51618508D02*
X155642129Y-51579803D01*
X155642129Y-51579803D02*
X155526015Y-51579803D01*
X155526015Y-51579803D02*
X155409901Y-51618508D01*
X155409901Y-51618508D02*
X155332491Y-51695918D01*
X155332491Y-51695918D02*
X155293786Y-51773327D01*
X155293786Y-51773327D02*
X155255082Y-51928146D01*
X155255082Y-51928146D02*
X155255082Y-52044260D01*
X155255082Y-52044260D02*
X155293786Y-52199079D01*
X155293786Y-52199079D02*
X155332491Y-52276489D01*
X155332491Y-52276489D02*
X155409901Y-52353899D01*
X155409901Y-52353899D02*
X155526015Y-52392603D01*
X155526015Y-52392603D02*
X155603424Y-52392603D01*
X155603424Y-52392603D02*
X155719539Y-52353899D01*
X155719539Y-52353899D02*
X155758243Y-52315194D01*
X155758243Y-52315194D02*
X155758243Y-52044260D01*
X155758243Y-52044260D02*
X155603424Y-52044260D01*
X156106586Y-51850737D02*
X156106586Y-52392603D01*
X156106586Y-51928146D02*
X156145291Y-51889441D01*
X156145291Y-51889441D02*
X156222701Y-51850737D01*
X156222701Y-51850737D02*
X156338815Y-51850737D01*
X156338815Y-51850737D02*
X156416224Y-51889441D01*
X156416224Y-51889441D02*
X156454929Y-51966851D01*
X156454929Y-51966851D02*
X156454929Y-52392603D01*
X157190319Y-52392603D02*
X157190319Y-51579803D01*
X157190319Y-52353899D02*
X157112910Y-52392603D01*
X157112910Y-52392603D02*
X156958091Y-52392603D01*
X156958091Y-52392603D02*
X156880681Y-52353899D01*
X156880681Y-52353899D02*
X156841976Y-52315194D01*
X156841976Y-52315194D02*
X156803272Y-52237784D01*
X156803272Y-52237784D02*
X156803272Y-52005556D01*
X156803272Y-52005556D02*
X156841976Y-51928146D01*
X156841976Y-51928146D02*
X156880681Y-51889441D01*
X156880681Y-51889441D02*
X156958091Y-51850737D01*
X156958091Y-51850737D02*
X157112910Y-51850737D01*
X157112910Y-51850737D02*
X157190319Y-51889441D01*
X137719539Y-51618508D02*
X137642129Y-51579803D01*
X137642129Y-51579803D02*
X137526015Y-51579803D01*
X137526015Y-51579803D02*
X137409901Y-51618508D01*
X137409901Y-51618508D02*
X137332491Y-51695918D01*
X137332491Y-51695918D02*
X137293786Y-51773327D01*
X137293786Y-51773327D02*
X137255082Y-51928146D01*
X137255082Y-51928146D02*
X137255082Y-52044260D01*
X137255082Y-52044260D02*
X137293786Y-52199079D01*
X137293786Y-52199079D02*
X137332491Y-52276489D01*
X137332491Y-52276489D02*
X137409901Y-52353899D01*
X137409901Y-52353899D02*
X137526015Y-52392603D01*
X137526015Y-52392603D02*
X137603424Y-52392603D01*
X137603424Y-52392603D02*
X137719539Y-52353899D01*
X137719539Y-52353899D02*
X137758243Y-52315194D01*
X137758243Y-52315194D02*
X137758243Y-52044260D01*
X137758243Y-52044260D02*
X137603424Y-52044260D01*
X138106586Y-51850737D02*
X138106586Y-52392603D01*
X138106586Y-51928146D02*
X138145291Y-51889441D01*
X138145291Y-51889441D02*
X138222701Y-51850737D01*
X138222701Y-51850737D02*
X138338815Y-51850737D01*
X138338815Y-51850737D02*
X138416224Y-51889441D01*
X138416224Y-51889441D02*
X138454929Y-51966851D01*
X138454929Y-51966851D02*
X138454929Y-52392603D01*
X139190319Y-52392603D02*
X139190319Y-51579803D01*
X139190319Y-52353899D02*
X139112910Y-52392603D01*
X139112910Y-52392603D02*
X138958091Y-52392603D01*
X138958091Y-52392603D02*
X138880681Y-52353899D01*
X138880681Y-52353899D02*
X138841976Y-52315194D01*
X138841976Y-52315194D02*
X138803272Y-52237784D01*
X138803272Y-52237784D02*
X138803272Y-52005556D01*
X138803272Y-52005556D02*
X138841976Y-51928146D01*
X138841976Y-51928146D02*
X138880681Y-51889441D01*
X138880681Y-51889441D02*
X138958091Y-51850737D01*
X138958091Y-51850737D02*
X139112910Y-51850737D01*
X139112910Y-51850737D02*
X139190319Y-51889441D01*
X119719539Y-51618508D02*
X119642129Y-51579803D01*
X119642129Y-51579803D02*
X119526015Y-51579803D01*
X119526015Y-51579803D02*
X119409901Y-51618508D01*
X119409901Y-51618508D02*
X119332491Y-51695918D01*
X119332491Y-51695918D02*
X119293786Y-51773327D01*
X119293786Y-51773327D02*
X119255082Y-51928146D01*
X119255082Y-51928146D02*
X119255082Y-52044260D01*
X119255082Y-52044260D02*
X119293786Y-52199079D01*
X119293786Y-52199079D02*
X119332491Y-52276489D01*
X119332491Y-52276489D02*
X119409901Y-52353899D01*
X119409901Y-52353899D02*
X119526015Y-52392603D01*
X119526015Y-52392603D02*
X119603424Y-52392603D01*
X119603424Y-52392603D02*
X119719539Y-52353899D01*
X119719539Y-52353899D02*
X119758243Y-52315194D01*
X119758243Y-52315194D02*
X119758243Y-52044260D01*
X119758243Y-52044260D02*
X119603424Y-52044260D01*
X120106586Y-51850737D02*
X120106586Y-52392603D01*
X120106586Y-51928146D02*
X120145291Y-51889441D01*
X120145291Y-51889441D02*
X120222701Y-51850737D01*
X120222701Y-51850737D02*
X120338815Y-51850737D01*
X120338815Y-51850737D02*
X120416224Y-51889441D01*
X120416224Y-51889441D02*
X120454929Y-51966851D01*
X120454929Y-51966851D02*
X120454929Y-52392603D01*
X121190319Y-52392603D02*
X121190319Y-51579803D01*
X121190319Y-52353899D02*
X121112910Y-52392603D01*
X121112910Y-52392603D02*
X120958091Y-52392603D01*
X120958091Y-52392603D02*
X120880681Y-52353899D01*
X120880681Y-52353899D02*
X120841976Y-52315194D01*
X120841976Y-52315194D02*
X120803272Y-52237784D01*
X120803272Y-52237784D02*
X120803272Y-52005556D01*
X120803272Y-52005556D02*
X120841976Y-51928146D01*
X120841976Y-51928146D02*
X120880681Y-51889441D01*
X120880681Y-51889441D02*
X120958091Y-51850737D01*
X120958091Y-51850737D02*
X121112910Y-51850737D01*
X121112910Y-51850737D02*
X121190319Y-51889441D01*
D11*
X111416666Y-126124819D02*
X111416666Y-125124819D01*
X111416666Y-125124819D02*
X111797618Y-125124819D01*
X111797618Y-125124819D02*
X111892856Y-125172438D01*
X111892856Y-125172438D02*
X111940475Y-125220057D01*
X111940475Y-125220057D02*
X111988094Y-125315295D01*
X111988094Y-125315295D02*
X111988094Y-125458152D01*
X111988094Y-125458152D02*
X111940475Y-125553390D01*
X111940475Y-125553390D02*
X111892856Y-125601009D01*
X111892856Y-125601009D02*
X111797618Y-125648628D01*
X111797618Y-125648628D02*
X111416666Y-125648628D01*
X112273809Y-125124819D02*
X112845237Y-125124819D01*
X112559523Y-126124819D02*
X112559523Y-125124819D01*
X113749999Y-126029580D02*
X113702380Y-126077200D01*
X113702380Y-126077200D02*
X113559523Y-126124819D01*
X113559523Y-126124819D02*
X113464285Y-126124819D01*
X113464285Y-126124819D02*
X113321428Y-126077200D01*
X113321428Y-126077200D02*
X113226190Y-125981961D01*
X113226190Y-125981961D02*
X113178571Y-125886723D01*
X113178571Y-125886723D02*
X113130952Y-125696247D01*
X113130952Y-125696247D02*
X113130952Y-125553390D01*
X113130952Y-125553390D02*
X113178571Y-125362914D01*
X113178571Y-125362914D02*
X113226190Y-125267676D01*
X113226190Y-125267676D02*
X113321428Y-125172438D01*
X113321428Y-125172438D02*
X113464285Y-125124819D01*
X113464285Y-125124819D02*
X113559523Y-125124819D01*
X113559523Y-125124819D02*
X113702380Y-125172438D01*
X113702380Y-125172438D02*
X113749999Y-125220057D01*
X114511904Y-125601009D02*
X114178571Y-125601009D01*
X114178571Y-126124819D02*
X114178571Y-125124819D01*
X114178571Y-125124819D02*
X114654761Y-125124819D01*
X115464285Y-125458152D02*
X115464285Y-126124819D01*
X115035714Y-125458152D02*
X115035714Y-125981961D01*
X115035714Y-125981961D02*
X115083333Y-126077200D01*
X115083333Y-126077200D02*
X115178571Y-126124819D01*
X115178571Y-126124819D02*
X115321428Y-126124819D01*
X115321428Y-126124819D02*
X115416666Y-126077200D01*
X115416666Y-126077200D02*
X115464285Y-126029580D01*
X115892857Y-126077200D02*
X115988095Y-126124819D01*
X115988095Y-126124819D02*
X116178571Y-126124819D01*
X116178571Y-126124819D02*
X116273809Y-126077200D01*
X116273809Y-126077200D02*
X116321428Y-125981961D01*
X116321428Y-125981961D02*
X116321428Y-125934342D01*
X116321428Y-125934342D02*
X116273809Y-125839104D01*
X116273809Y-125839104D02*
X116178571Y-125791485D01*
X116178571Y-125791485D02*
X116035714Y-125791485D01*
X116035714Y-125791485D02*
X115940476Y-125743866D01*
X115940476Y-125743866D02*
X115892857Y-125648628D01*
X115892857Y-125648628D02*
X115892857Y-125601009D01*
X115892857Y-125601009D02*
X115940476Y-125505771D01*
X115940476Y-125505771D02*
X116035714Y-125458152D01*
X116035714Y-125458152D02*
X116178571Y-125458152D01*
X116178571Y-125458152D02*
X116273809Y-125505771D01*
X117130952Y-126077200D02*
X117035714Y-126124819D01*
X117035714Y-126124819D02*
X116845238Y-126124819D01*
X116845238Y-126124819D02*
X116750000Y-126077200D01*
X116750000Y-126077200D02*
X116702381Y-125981961D01*
X116702381Y-125981961D02*
X116702381Y-125601009D01*
X116702381Y-125601009D02*
X116750000Y-125505771D01*
X116750000Y-125505771D02*
X116845238Y-125458152D01*
X116845238Y-125458152D02*
X117035714Y-125458152D01*
X117035714Y-125458152D02*
X117130952Y-125505771D01*
X117130952Y-125505771D02*
X117178571Y-125601009D01*
X117178571Y-125601009D02*
X117178571Y-125696247D01*
X117178571Y-125696247D02*
X116702381Y-125791485D01*
X118130952Y-126124819D02*
X117559524Y-126124819D01*
X117845238Y-126124819D02*
X117845238Y-125124819D01*
X117845238Y-125124819D02*
X117750000Y-125267676D01*
X117750000Y-125267676D02*
X117654762Y-125362914D01*
X117654762Y-125362914D02*
X117559524Y-125410533D01*
X116273809Y-71320652D02*
X116511904Y-71987319D01*
X116511904Y-71987319D02*
X116749999Y-71320652D01*
X117559523Y-71987319D02*
X117559523Y-70987319D01*
X117559523Y-71939700D02*
X117464285Y-71987319D01*
X117464285Y-71987319D02*
X117273809Y-71987319D01*
X117273809Y-71987319D02*
X117178571Y-71939700D01*
X117178571Y-71939700D02*
X117130952Y-71892080D01*
X117130952Y-71892080D02*
X117083333Y-71796842D01*
X117083333Y-71796842D02*
X117083333Y-71511128D01*
X117083333Y-71511128D02*
X117130952Y-71415890D01*
X117130952Y-71415890D02*
X117178571Y-71368271D01*
X117178571Y-71368271D02*
X117273809Y-71320652D01*
X117273809Y-71320652D02*
X117464285Y-71320652D01*
X117464285Y-71320652D02*
X117559523Y-71368271D01*
X117797619Y-72082557D02*
X118559523Y-72082557D01*
X119226190Y-71939700D02*
X119130952Y-71987319D01*
X119130952Y-71987319D02*
X118940476Y-71987319D01*
X118940476Y-71987319D02*
X118845238Y-71939700D01*
X118845238Y-71939700D02*
X118797619Y-71892080D01*
X118797619Y-71892080D02*
X118750000Y-71796842D01*
X118750000Y-71796842D02*
X118750000Y-71511128D01*
X118750000Y-71511128D02*
X118797619Y-71415890D01*
X118797619Y-71415890D02*
X118845238Y-71368271D01*
X118845238Y-71368271D02*
X118940476Y-71320652D01*
X118940476Y-71320652D02*
X119130952Y-71320652D01*
X119130952Y-71320652D02*
X119226190Y-71368271D01*
X119607143Y-71082557D02*
X119654762Y-71034938D01*
X119654762Y-71034938D02*
X119750000Y-70987319D01*
X119750000Y-70987319D02*
X119988095Y-70987319D01*
X119988095Y-70987319D02*
X120083333Y-71034938D01*
X120083333Y-71034938D02*
X120130952Y-71082557D01*
X120130952Y-71082557D02*
X120178571Y-71177795D01*
X120178571Y-71177795D02*
X120178571Y-71273033D01*
X120178571Y-71273033D02*
X120130952Y-71415890D01*
X120130952Y-71415890D02*
X119559524Y-71987319D01*
X119559524Y-71987319D02*
X120178571Y-71987319D01*
X136535594Y-140962319D02*
X136202261Y-140486128D01*
X135964166Y-140962319D02*
X135964166Y-139962319D01*
X135964166Y-139962319D02*
X136345118Y-139962319D01*
X136345118Y-139962319D02*
X136440356Y-140009938D01*
X136440356Y-140009938D02*
X136487975Y-140057557D01*
X136487975Y-140057557D02*
X136535594Y-140152795D01*
X136535594Y-140152795D02*
X136535594Y-140295652D01*
X136535594Y-140295652D02*
X136487975Y-140390890D01*
X136487975Y-140390890D02*
X136440356Y-140438509D01*
X136440356Y-140438509D02*
X136345118Y-140486128D01*
X136345118Y-140486128D02*
X135964166Y-140486128D01*
X137345118Y-140914700D02*
X137249880Y-140962319D01*
X137249880Y-140962319D02*
X137059404Y-140962319D01*
X137059404Y-140962319D02*
X136964166Y-140914700D01*
X136964166Y-140914700D02*
X136916547Y-140819461D01*
X136916547Y-140819461D02*
X136916547Y-140438509D01*
X136916547Y-140438509D02*
X136964166Y-140343271D01*
X136964166Y-140343271D02*
X137059404Y-140295652D01*
X137059404Y-140295652D02*
X137249880Y-140295652D01*
X137249880Y-140295652D02*
X137345118Y-140343271D01*
X137345118Y-140343271D02*
X137392737Y-140438509D01*
X137392737Y-140438509D02*
X137392737Y-140533747D01*
X137392737Y-140533747D02*
X136916547Y-140628985D01*
X138249880Y-140295652D02*
X138249880Y-141105176D01*
X138249880Y-141105176D02*
X138202261Y-141200414D01*
X138202261Y-141200414D02*
X138154642Y-141248033D01*
X138154642Y-141248033D02*
X138059404Y-141295652D01*
X138059404Y-141295652D02*
X137916547Y-141295652D01*
X137916547Y-141295652D02*
X137821309Y-141248033D01*
X138249880Y-140914700D02*
X138154642Y-140962319D01*
X138154642Y-140962319D02*
X137964166Y-140962319D01*
X137964166Y-140962319D02*
X137868928Y-140914700D01*
X137868928Y-140914700D02*
X137821309Y-140867080D01*
X137821309Y-140867080D02*
X137773690Y-140771842D01*
X137773690Y-140771842D02*
X137773690Y-140486128D01*
X137773690Y-140486128D02*
X137821309Y-140390890D01*
X137821309Y-140390890D02*
X137868928Y-140343271D01*
X137868928Y-140343271D02*
X137964166Y-140295652D01*
X137964166Y-140295652D02*
X138154642Y-140295652D01*
X138154642Y-140295652D02*
X138249880Y-140343271D01*
X139154642Y-140295652D02*
X139154642Y-140962319D01*
X138726071Y-140295652D02*
X138726071Y-140819461D01*
X138726071Y-140819461D02*
X138773690Y-140914700D01*
X138773690Y-140914700D02*
X138868928Y-140962319D01*
X138868928Y-140962319D02*
X139011785Y-140962319D01*
X139011785Y-140962319D02*
X139107023Y-140914700D01*
X139107023Y-140914700D02*
X139154642Y-140867080D01*
X139773690Y-140962319D02*
X139678452Y-140914700D01*
X139678452Y-140914700D02*
X139630833Y-140819461D01*
X139630833Y-140819461D02*
X139630833Y-139962319D01*
X140583214Y-140962319D02*
X140583214Y-140438509D01*
X140583214Y-140438509D02*
X140535595Y-140343271D01*
X140535595Y-140343271D02*
X140440357Y-140295652D01*
X140440357Y-140295652D02*
X140249881Y-140295652D01*
X140249881Y-140295652D02*
X140154643Y-140343271D01*
X140583214Y-140914700D02*
X140487976Y-140962319D01*
X140487976Y-140962319D02*
X140249881Y-140962319D01*
X140249881Y-140962319D02*
X140154643Y-140914700D01*
X140154643Y-140914700D02*
X140107024Y-140819461D01*
X140107024Y-140819461D02*
X140107024Y-140724223D01*
X140107024Y-140724223D02*
X140154643Y-140628985D01*
X140154643Y-140628985D02*
X140249881Y-140581366D01*
X140249881Y-140581366D02*
X140487976Y-140581366D01*
X140487976Y-140581366D02*
X140583214Y-140533747D01*
X140916548Y-140295652D02*
X141297500Y-140295652D01*
X141059405Y-139962319D02*
X141059405Y-140819461D01*
X141059405Y-140819461D02*
X141107024Y-140914700D01*
X141107024Y-140914700D02*
X141202262Y-140962319D01*
X141202262Y-140962319D02*
X141297500Y-140962319D01*
X141773691Y-140962319D02*
X141678453Y-140914700D01*
X141678453Y-140914700D02*
X141630834Y-140867080D01*
X141630834Y-140867080D02*
X141583215Y-140771842D01*
X141583215Y-140771842D02*
X141583215Y-140486128D01*
X141583215Y-140486128D02*
X141630834Y-140390890D01*
X141630834Y-140390890D02*
X141678453Y-140343271D01*
X141678453Y-140343271D02*
X141773691Y-140295652D01*
X141773691Y-140295652D02*
X141916548Y-140295652D01*
X141916548Y-140295652D02*
X142011786Y-140343271D01*
X142011786Y-140343271D02*
X142059405Y-140390890D01*
X142059405Y-140390890D02*
X142107024Y-140486128D01*
X142107024Y-140486128D02*
X142107024Y-140771842D01*
X142107024Y-140771842D02*
X142059405Y-140867080D01*
X142059405Y-140867080D02*
X142011786Y-140914700D01*
X142011786Y-140914700D02*
X141916548Y-140962319D01*
X141916548Y-140962319D02*
X141773691Y-140962319D01*
X142535596Y-140962319D02*
X142535596Y-140295652D01*
X142535596Y-140486128D02*
X142583215Y-140390890D01*
X142583215Y-140390890D02*
X142630834Y-140343271D01*
X142630834Y-140343271D02*
X142726072Y-140295652D01*
X142726072Y-140295652D02*
X142821310Y-140295652D01*
X143678453Y-140962319D02*
X143107025Y-140962319D01*
X143392739Y-140962319D02*
X143392739Y-139962319D01*
X143392739Y-139962319D02*
X143297501Y-140105176D01*
X143297501Y-140105176D02*
X143202263Y-140200414D01*
X143202263Y-140200414D02*
X143107025Y-140248033D01*
X125474405Y-125484819D02*
X125474405Y-124484819D01*
X125474405Y-124484819D02*
X125712500Y-124484819D01*
X125712500Y-124484819D02*
X125855357Y-124532438D01*
X125855357Y-124532438D02*
X125950595Y-124627676D01*
X125950595Y-124627676D02*
X125998214Y-124722914D01*
X125998214Y-124722914D02*
X126045833Y-124913390D01*
X126045833Y-124913390D02*
X126045833Y-125056247D01*
X126045833Y-125056247D02*
X125998214Y-125246723D01*
X125998214Y-125246723D02*
X125950595Y-125341961D01*
X125950595Y-125341961D02*
X125855357Y-125437200D01*
X125855357Y-125437200D02*
X125712500Y-125484819D01*
X125712500Y-125484819D02*
X125474405Y-125484819D01*
X126998214Y-125484819D02*
X126426786Y-125484819D01*
X126712500Y-125484819D02*
X126712500Y-124484819D01*
X126712500Y-124484819D02*
X126617262Y-124627676D01*
X126617262Y-124627676D02*
X126522024Y-124722914D01*
X126522024Y-124722914D02*
X126426786Y-124770533D01*
X120870595Y-125854819D02*
X120870595Y-124854819D01*
X121442023Y-125854819D02*
X121013452Y-125283390D01*
X121442023Y-124854819D02*
X120870595Y-125426247D01*
X120175019Y-122399818D02*
X119508352Y-122399818D01*
X119603590Y-122399818D02*
X119555971Y-122352199D01*
X119555971Y-122352199D02*
X119508352Y-122256961D01*
X119508352Y-122256961D02*
X119508352Y-122114104D01*
X119508352Y-122114104D02*
X119555971Y-122018866D01*
X119555971Y-122018866D02*
X119651209Y-121971247D01*
X119651209Y-121971247D02*
X120175019Y-121971247D01*
X119651209Y-121971247D02*
X119555971Y-121923628D01*
X119555971Y-121923628D02*
X119508352Y-121828390D01*
X119508352Y-121828390D02*
X119508352Y-121685533D01*
X119508352Y-121685533D02*
X119555971Y-121590294D01*
X119555971Y-121590294D02*
X119651209Y-121542675D01*
X119651209Y-121542675D02*
X120175019Y-121542675D01*
X120175019Y-121066485D02*
X119508352Y-121066485D01*
X119175019Y-121066485D02*
X119222638Y-121114104D01*
X119222638Y-121114104D02*
X119270257Y-121066485D01*
X119270257Y-121066485D02*
X119222638Y-121018866D01*
X119222638Y-121018866D02*
X119175019Y-121066485D01*
X119175019Y-121066485D02*
X119270257Y-121066485D01*
X120175019Y-120685533D02*
X119508352Y-120161724D01*
X119508352Y-120685533D02*
X120175019Y-120161724D01*
X120175019Y-119256962D02*
X120175019Y-119828390D01*
X120175019Y-119542676D02*
X119175019Y-119542676D01*
X119175019Y-119542676D02*
X119317876Y-119637914D01*
X119317876Y-119637914D02*
X119413114Y-119733152D01*
X119413114Y-119733152D02*
X119460733Y-119828390D01*
X111240057Y-106640538D02*
X111192438Y-106735776D01*
X111192438Y-106735776D02*
X111097200Y-106831014D01*
X111097200Y-106831014D02*
X110954342Y-106973871D01*
X110954342Y-106973871D02*
X110906723Y-107069109D01*
X110906723Y-107069109D02*
X110906723Y-107164347D01*
X111144819Y-107116728D02*
X111097200Y-107211966D01*
X111097200Y-107211966D02*
X111001961Y-107307204D01*
X111001961Y-107307204D02*
X110811485Y-107354823D01*
X110811485Y-107354823D02*
X110478152Y-107354823D01*
X110478152Y-107354823D02*
X110287676Y-107307204D01*
X110287676Y-107307204D02*
X110192438Y-107211966D01*
X110192438Y-107211966D02*
X110144819Y-107116728D01*
X110144819Y-107116728D02*
X110144819Y-106926252D01*
X110144819Y-106926252D02*
X110192438Y-106831014D01*
X110192438Y-106831014D02*
X110287676Y-106735776D01*
X110287676Y-106735776D02*
X110478152Y-106688157D01*
X110478152Y-106688157D02*
X110811485Y-106688157D01*
X110811485Y-106688157D02*
X111001961Y-106735776D01*
X111001961Y-106735776D02*
X111097200Y-106831014D01*
X111097200Y-106831014D02*
X111144819Y-106926252D01*
X111144819Y-106926252D02*
X111144819Y-107116728D01*
X110144819Y-106354823D02*
X110144819Y-105735776D01*
X110144819Y-105735776D02*
X110525771Y-106069109D01*
X110525771Y-106069109D02*
X110525771Y-105926252D01*
X110525771Y-105926252D02*
X110573390Y-105831014D01*
X110573390Y-105831014D02*
X110621009Y-105783395D01*
X110621009Y-105783395D02*
X110716247Y-105735776D01*
X110716247Y-105735776D02*
X110954342Y-105735776D01*
X110954342Y-105735776D02*
X111049580Y-105783395D01*
X111049580Y-105783395D02*
X111097200Y-105831014D01*
X111097200Y-105831014D02*
X111144819Y-105926252D01*
X111144819Y-105926252D02*
X111144819Y-106211966D01*
X111144819Y-106211966D02*
X111097200Y-106307204D01*
X111097200Y-106307204D02*
X111049580Y-106354823D01*
X160366319Y-120602413D02*
X159366319Y-120602413D01*
X159366319Y-120602413D02*
X160080604Y-120269080D01*
X160080604Y-120269080D02*
X159366319Y-119935747D01*
X159366319Y-119935747D02*
X160366319Y-119935747D01*
X160366319Y-119316699D02*
X160318700Y-119411937D01*
X160318700Y-119411937D02*
X160271080Y-119459556D01*
X160271080Y-119459556D02*
X160175842Y-119507175D01*
X160175842Y-119507175D02*
X159890128Y-119507175D01*
X159890128Y-119507175D02*
X159794890Y-119459556D01*
X159794890Y-119459556D02*
X159747271Y-119411937D01*
X159747271Y-119411937D02*
X159699652Y-119316699D01*
X159699652Y-119316699D02*
X159699652Y-119173842D01*
X159699652Y-119173842D02*
X159747271Y-119078604D01*
X159747271Y-119078604D02*
X159794890Y-119030985D01*
X159794890Y-119030985D02*
X159890128Y-118983366D01*
X159890128Y-118983366D02*
X160175842Y-118983366D01*
X160175842Y-118983366D02*
X160271080Y-119030985D01*
X160271080Y-119030985D02*
X160318700Y-119078604D01*
X160318700Y-119078604D02*
X160366319Y-119173842D01*
X160366319Y-119173842D02*
X160366319Y-119316699D01*
X159699652Y-118650032D02*
X160366319Y-118411937D01*
X160366319Y-118411937D02*
X159699652Y-118173842D01*
X160366319Y-117792889D02*
X159699652Y-117792889D01*
X159366319Y-117792889D02*
X159413938Y-117840508D01*
X159413938Y-117840508D02*
X159461557Y-117792889D01*
X159461557Y-117792889D02*
X159413938Y-117745270D01*
X159413938Y-117745270D02*
X159366319Y-117792889D01*
X159366319Y-117792889D02*
X159461557Y-117792889D01*
X159699652Y-117316699D02*
X160366319Y-117316699D01*
X159794890Y-117316699D02*
X159747271Y-117269080D01*
X159747271Y-117269080D02*
X159699652Y-117173842D01*
X159699652Y-117173842D02*
X159699652Y-117030985D01*
X159699652Y-117030985D02*
X159747271Y-116935747D01*
X159747271Y-116935747D02*
X159842509Y-116888128D01*
X159842509Y-116888128D02*
X160366319Y-116888128D01*
X159699652Y-115983366D02*
X160509176Y-115983366D01*
X160509176Y-115983366D02*
X160604414Y-116030985D01*
X160604414Y-116030985D02*
X160652033Y-116078604D01*
X160652033Y-116078604D02*
X160699652Y-116173842D01*
X160699652Y-116173842D02*
X160699652Y-116316699D01*
X160699652Y-116316699D02*
X160652033Y-116411937D01*
X160318700Y-115983366D02*
X160366319Y-116078604D01*
X160366319Y-116078604D02*
X160366319Y-116269080D01*
X160366319Y-116269080D02*
X160318700Y-116364318D01*
X160318700Y-116364318D02*
X160271080Y-116411937D01*
X160271080Y-116411937D02*
X160175842Y-116459556D01*
X160175842Y-116459556D02*
X159890128Y-116459556D01*
X159890128Y-116459556D02*
X159794890Y-116411937D01*
X159794890Y-116411937D02*
X159747271Y-116364318D01*
X159747271Y-116364318D02*
X159699652Y-116269080D01*
X159699652Y-116269080D02*
X159699652Y-116078604D01*
X159699652Y-116078604D02*
X159747271Y-115983366D01*
X159461557Y-115554794D02*
X159413938Y-115507175D01*
X159413938Y-115507175D02*
X159366319Y-115411937D01*
X159366319Y-115411937D02*
X159366319Y-115173842D01*
X159366319Y-115173842D02*
X159413938Y-115078604D01*
X159413938Y-115078604D02*
X159461557Y-115030985D01*
X159461557Y-115030985D02*
X159556795Y-114983366D01*
X159556795Y-114983366D02*
X159652033Y-114983366D01*
X159652033Y-114983366D02*
X159794890Y-115030985D01*
X159794890Y-115030985D02*
X160366319Y-115602413D01*
X160366319Y-115602413D02*
X160366319Y-114983366D01*
X137526514Y-126329019D02*
X137526514Y-125662352D01*
X137526514Y-125757590D02*
X137574133Y-125709971D01*
X137574133Y-125709971D02*
X137669371Y-125662352D01*
X137669371Y-125662352D02*
X137812228Y-125662352D01*
X137812228Y-125662352D02*
X137907466Y-125709971D01*
X137907466Y-125709971D02*
X137955085Y-125805209D01*
X137955085Y-125805209D02*
X137955085Y-126329019D01*
X137955085Y-125805209D02*
X138002704Y-125709971D01*
X138002704Y-125709971D02*
X138097942Y-125662352D01*
X138097942Y-125662352D02*
X138240799Y-125662352D01*
X138240799Y-125662352D02*
X138336038Y-125709971D01*
X138336038Y-125709971D02*
X138383657Y-125805209D01*
X138383657Y-125805209D02*
X138383657Y-126329019D01*
X139002704Y-126329019D02*
X138907466Y-126281400D01*
X138907466Y-126281400D02*
X138859847Y-126233780D01*
X138859847Y-126233780D02*
X138812228Y-126138542D01*
X138812228Y-126138542D02*
X138812228Y-125852828D01*
X138812228Y-125852828D02*
X138859847Y-125757590D01*
X138859847Y-125757590D02*
X138907466Y-125709971D01*
X138907466Y-125709971D02*
X139002704Y-125662352D01*
X139002704Y-125662352D02*
X139145561Y-125662352D01*
X139145561Y-125662352D02*
X139240799Y-125709971D01*
X139240799Y-125709971D02*
X139288418Y-125757590D01*
X139288418Y-125757590D02*
X139336037Y-125852828D01*
X139336037Y-125852828D02*
X139336037Y-126138542D01*
X139336037Y-126138542D02*
X139288418Y-126233780D01*
X139288418Y-126233780D02*
X139240799Y-126281400D01*
X139240799Y-126281400D02*
X139145561Y-126329019D01*
X139145561Y-126329019D02*
X139002704Y-126329019D01*
X139621752Y-125662352D02*
X140002704Y-125662352D01*
X139764609Y-125329019D02*
X139764609Y-126186161D01*
X139764609Y-126186161D02*
X139812228Y-126281400D01*
X139812228Y-126281400D02*
X139907466Y-126329019D01*
X139907466Y-126329019D02*
X140002704Y-126329019D01*
X140478895Y-126329019D02*
X140383657Y-126281400D01*
X140383657Y-126281400D02*
X140336038Y-126233780D01*
X140336038Y-126233780D02*
X140288419Y-126138542D01*
X140288419Y-126138542D02*
X140288419Y-125852828D01*
X140288419Y-125852828D02*
X140336038Y-125757590D01*
X140336038Y-125757590D02*
X140383657Y-125709971D01*
X140383657Y-125709971D02*
X140478895Y-125662352D01*
X140478895Y-125662352D02*
X140621752Y-125662352D01*
X140621752Y-125662352D02*
X140716990Y-125709971D01*
X140716990Y-125709971D02*
X140764609Y-125757590D01*
X140764609Y-125757590D02*
X140812228Y-125852828D01*
X140812228Y-125852828D02*
X140812228Y-126138542D01*
X140812228Y-126138542D02*
X140764609Y-126233780D01*
X140764609Y-126233780D02*
X140716990Y-126281400D01*
X140716990Y-126281400D02*
X140621752Y-126329019D01*
X140621752Y-126329019D02*
X140478895Y-126329019D01*
X141240800Y-126329019D02*
X141240800Y-125662352D01*
X141240800Y-125852828D02*
X141288419Y-125757590D01*
X141288419Y-125757590D02*
X141336038Y-125709971D01*
X141336038Y-125709971D02*
X141431276Y-125662352D01*
X141431276Y-125662352D02*
X141526514Y-125662352D01*
X141621753Y-126424257D02*
X142383657Y-126424257D01*
X143050324Y-126281400D02*
X142955086Y-126329019D01*
X142955086Y-126329019D02*
X142764610Y-126329019D01*
X142764610Y-126329019D02*
X142669372Y-126281400D01*
X142669372Y-126281400D02*
X142621753Y-126233780D01*
X142621753Y-126233780D02*
X142574134Y-126138542D01*
X142574134Y-126138542D02*
X142574134Y-125852828D01*
X142574134Y-125852828D02*
X142621753Y-125757590D01*
X142621753Y-125757590D02*
X142669372Y-125709971D01*
X142669372Y-125709971D02*
X142764610Y-125662352D01*
X142764610Y-125662352D02*
X142955086Y-125662352D01*
X142955086Y-125662352D02*
X143050324Y-125709971D01*
X144002705Y-126329019D02*
X143431277Y-126329019D01*
X143716991Y-126329019D02*
X143716991Y-125329019D01*
X143716991Y-125329019D02*
X143621753Y-125471876D01*
X143621753Y-125471876D02*
X143526515Y-125567114D01*
X143526515Y-125567114D02*
X143431277Y-125614733D01*
X122481409Y-70798252D02*
X122719504Y-71464919D01*
X122719504Y-71464919D02*
X122957599Y-70798252D01*
X123767123Y-71464919D02*
X123767123Y-70464919D01*
X123767123Y-71417300D02*
X123671885Y-71464919D01*
X123671885Y-71464919D02*
X123481409Y-71464919D01*
X123481409Y-71464919D02*
X123386171Y-71417300D01*
X123386171Y-71417300D02*
X123338552Y-71369680D01*
X123338552Y-71369680D02*
X123290933Y-71274442D01*
X123290933Y-71274442D02*
X123290933Y-70988728D01*
X123290933Y-70988728D02*
X123338552Y-70893490D01*
X123338552Y-70893490D02*
X123386171Y-70845871D01*
X123386171Y-70845871D02*
X123481409Y-70798252D01*
X123481409Y-70798252D02*
X123671885Y-70798252D01*
X123671885Y-70798252D02*
X123767123Y-70845871D01*
X124005219Y-71560157D02*
X124767123Y-71560157D01*
X125433790Y-71417300D02*
X125338552Y-71464919D01*
X125338552Y-71464919D02*
X125148076Y-71464919D01*
X125148076Y-71464919D02*
X125052838Y-71417300D01*
X125052838Y-71417300D02*
X125005219Y-71369680D01*
X125005219Y-71369680D02*
X124957600Y-71274442D01*
X124957600Y-71274442D02*
X124957600Y-70988728D01*
X124957600Y-70988728D02*
X125005219Y-70893490D01*
X125005219Y-70893490D02*
X125052838Y-70845871D01*
X125052838Y-70845871D02*
X125148076Y-70798252D01*
X125148076Y-70798252D02*
X125338552Y-70798252D01*
X125338552Y-70798252D02*
X125433790Y-70845871D01*
X126386171Y-71464919D02*
X125814743Y-71464919D01*
X126100457Y-71464919D02*
X126100457Y-70464919D01*
X126100457Y-70464919D02*
X126005219Y-70607776D01*
X126005219Y-70607776D02*
X125909981Y-70703014D01*
X125909981Y-70703014D02*
X125814743Y-70750633D01*
X116785714Y-62954819D02*
X116785714Y-61954819D01*
X116785714Y-61954819D02*
X117119047Y-62669104D01*
X117119047Y-62669104D02*
X117452380Y-61954819D01*
X117452380Y-61954819D02*
X117452380Y-62954819D01*
X118071428Y-62954819D02*
X117976190Y-62907200D01*
X117976190Y-62907200D02*
X117928571Y-62859580D01*
X117928571Y-62859580D02*
X117880952Y-62764342D01*
X117880952Y-62764342D02*
X117880952Y-62478628D01*
X117880952Y-62478628D02*
X117928571Y-62383390D01*
X117928571Y-62383390D02*
X117976190Y-62335771D01*
X117976190Y-62335771D02*
X118071428Y-62288152D01*
X118071428Y-62288152D02*
X118214285Y-62288152D01*
X118214285Y-62288152D02*
X118309523Y-62335771D01*
X118309523Y-62335771D02*
X118357142Y-62383390D01*
X118357142Y-62383390D02*
X118404761Y-62478628D01*
X118404761Y-62478628D02*
X118404761Y-62764342D01*
X118404761Y-62764342D02*
X118357142Y-62859580D01*
X118357142Y-62859580D02*
X118309523Y-62907200D01*
X118309523Y-62907200D02*
X118214285Y-62954819D01*
X118214285Y-62954819D02*
X118071428Y-62954819D01*
X118738095Y-62288152D02*
X118976190Y-62954819D01*
X118976190Y-62954819D02*
X119214285Y-62288152D01*
X119595238Y-62954819D02*
X119595238Y-62288152D01*
X119595238Y-61954819D02*
X119547619Y-62002438D01*
X119547619Y-62002438D02*
X119595238Y-62050057D01*
X119595238Y-62050057D02*
X119642857Y-62002438D01*
X119642857Y-62002438D02*
X119595238Y-61954819D01*
X119595238Y-61954819D02*
X119595238Y-62050057D01*
X120071428Y-62288152D02*
X120071428Y-62954819D01*
X120071428Y-62383390D02*
X120119047Y-62335771D01*
X120119047Y-62335771D02*
X120214285Y-62288152D01*
X120214285Y-62288152D02*
X120357142Y-62288152D01*
X120357142Y-62288152D02*
X120452380Y-62335771D01*
X120452380Y-62335771D02*
X120499999Y-62431009D01*
X120499999Y-62431009D02*
X120499999Y-62954819D01*
X121404761Y-62288152D02*
X121404761Y-63097676D01*
X121404761Y-63097676D02*
X121357142Y-63192914D01*
X121357142Y-63192914D02*
X121309523Y-63240533D01*
X121309523Y-63240533D02*
X121214285Y-63288152D01*
X121214285Y-63288152D02*
X121071428Y-63288152D01*
X121071428Y-63288152D02*
X120976190Y-63240533D01*
X121404761Y-62907200D02*
X121309523Y-62954819D01*
X121309523Y-62954819D02*
X121119047Y-62954819D01*
X121119047Y-62954819D02*
X121023809Y-62907200D01*
X121023809Y-62907200D02*
X120976190Y-62859580D01*
X120976190Y-62859580D02*
X120928571Y-62764342D01*
X120928571Y-62764342D02*
X120928571Y-62478628D01*
X120928571Y-62478628D02*
X120976190Y-62383390D01*
X120976190Y-62383390D02*
X121023809Y-62335771D01*
X121023809Y-62335771D02*
X121119047Y-62288152D01*
X121119047Y-62288152D02*
X121309523Y-62288152D01*
X121309523Y-62288152D02*
X121404761Y-62335771D01*
X122214285Y-62431009D02*
X122357142Y-62478628D01*
X122357142Y-62478628D02*
X122404761Y-62526247D01*
X122404761Y-62526247D02*
X122452380Y-62621485D01*
X122452380Y-62621485D02*
X122452380Y-62764342D01*
X122452380Y-62764342D02*
X122404761Y-62859580D01*
X122404761Y-62859580D02*
X122357142Y-62907200D01*
X122357142Y-62907200D02*
X122261904Y-62954819D01*
X122261904Y-62954819D02*
X121880952Y-62954819D01*
X121880952Y-62954819D02*
X121880952Y-61954819D01*
X121880952Y-61954819D02*
X122214285Y-61954819D01*
X122214285Y-61954819D02*
X122309523Y-62002438D01*
X122309523Y-62002438D02*
X122357142Y-62050057D01*
X122357142Y-62050057D02*
X122404761Y-62145295D01*
X122404761Y-62145295D02*
X122404761Y-62240533D01*
X122404761Y-62240533D02*
X122357142Y-62335771D01*
X122357142Y-62335771D02*
X122309523Y-62383390D01*
X122309523Y-62383390D02*
X122214285Y-62431009D01*
X122214285Y-62431009D02*
X121880952Y-62431009D01*
X123309523Y-62288152D02*
X123309523Y-62954819D01*
X122880952Y-62288152D02*
X122880952Y-62811961D01*
X122880952Y-62811961D02*
X122928571Y-62907200D01*
X122928571Y-62907200D02*
X123023809Y-62954819D01*
X123023809Y-62954819D02*
X123166666Y-62954819D01*
X123166666Y-62954819D02*
X123261904Y-62907200D01*
X123261904Y-62907200D02*
X123309523Y-62859580D01*
X123785714Y-62954819D02*
X123785714Y-62288152D01*
X123785714Y-62383390D02*
X123833333Y-62335771D01*
X123833333Y-62335771D02*
X123928571Y-62288152D01*
X123928571Y-62288152D02*
X124071428Y-62288152D01*
X124071428Y-62288152D02*
X124166666Y-62335771D01*
X124166666Y-62335771D02*
X124214285Y-62431009D01*
X124214285Y-62431009D02*
X124214285Y-62954819D01*
X124214285Y-62431009D02*
X124261904Y-62335771D01*
X124261904Y-62335771D02*
X124357142Y-62288152D01*
X124357142Y-62288152D02*
X124499999Y-62288152D01*
X124499999Y-62288152D02*
X124595238Y-62335771D01*
X124595238Y-62335771D02*
X124642857Y-62431009D01*
X124642857Y-62431009D02*
X124642857Y-62954819D01*
X125119047Y-62288152D02*
X125119047Y-63288152D01*
X125119047Y-62335771D02*
X125214285Y-62288152D01*
X125214285Y-62288152D02*
X125404761Y-62288152D01*
X125404761Y-62288152D02*
X125499999Y-62335771D01*
X125499999Y-62335771D02*
X125547618Y-62383390D01*
X125547618Y-62383390D02*
X125595237Y-62478628D01*
X125595237Y-62478628D02*
X125595237Y-62764342D01*
X125595237Y-62764342D02*
X125547618Y-62859580D01*
X125547618Y-62859580D02*
X125499999Y-62907200D01*
X125499999Y-62907200D02*
X125404761Y-62954819D01*
X125404761Y-62954819D02*
X125214285Y-62954819D01*
X125214285Y-62954819D02*
X125119047Y-62907200D01*
X126404761Y-62907200D02*
X126309523Y-62954819D01*
X126309523Y-62954819D02*
X126119047Y-62954819D01*
X126119047Y-62954819D02*
X126023809Y-62907200D01*
X126023809Y-62907200D02*
X125976190Y-62811961D01*
X125976190Y-62811961D02*
X125976190Y-62431009D01*
X125976190Y-62431009D02*
X126023809Y-62335771D01*
X126023809Y-62335771D02*
X126119047Y-62288152D01*
X126119047Y-62288152D02*
X126309523Y-62288152D01*
X126309523Y-62288152D02*
X126404761Y-62335771D01*
X126404761Y-62335771D02*
X126452380Y-62431009D01*
X126452380Y-62431009D02*
X126452380Y-62526247D01*
X126452380Y-62526247D02*
X125976190Y-62621485D01*
X126880952Y-62954819D02*
X126880952Y-62288152D01*
X126880952Y-62478628D02*
X126928571Y-62383390D01*
X126928571Y-62383390D02*
X126976190Y-62335771D01*
X126976190Y-62335771D02*
X127071428Y-62288152D01*
X127071428Y-62288152D02*
X127166666Y-62288152D01*
X127261905Y-63050057D02*
X128023809Y-63050057D01*
X128261905Y-62954819D02*
X128261905Y-61954819D01*
X128261905Y-62335771D02*
X128357143Y-62288152D01*
X128357143Y-62288152D02*
X128547619Y-62288152D01*
X128547619Y-62288152D02*
X128642857Y-62335771D01*
X128642857Y-62335771D02*
X128690476Y-62383390D01*
X128690476Y-62383390D02*
X128738095Y-62478628D01*
X128738095Y-62478628D02*
X128738095Y-62764342D01*
X128738095Y-62764342D02*
X128690476Y-62859580D01*
X128690476Y-62859580D02*
X128642857Y-62907200D01*
X128642857Y-62907200D02*
X128547619Y-62954819D01*
X128547619Y-62954819D02*
X128357143Y-62954819D01*
X128357143Y-62954819D02*
X128261905Y-62907200D01*
X129595238Y-62954819D02*
X129595238Y-62431009D01*
X129595238Y-62431009D02*
X129547619Y-62335771D01*
X129547619Y-62335771D02*
X129452381Y-62288152D01*
X129452381Y-62288152D02*
X129261905Y-62288152D01*
X129261905Y-62288152D02*
X129166667Y-62335771D01*
X129595238Y-62907200D02*
X129500000Y-62954819D01*
X129500000Y-62954819D02*
X129261905Y-62954819D01*
X129261905Y-62954819D02*
X129166667Y-62907200D01*
X129166667Y-62907200D02*
X129119048Y-62811961D01*
X129119048Y-62811961D02*
X129119048Y-62716723D01*
X129119048Y-62716723D02*
X129166667Y-62621485D01*
X129166667Y-62621485D02*
X129261905Y-62573866D01*
X129261905Y-62573866D02*
X129500000Y-62573866D01*
X129500000Y-62573866D02*
X129595238Y-62526247D01*
X130500000Y-62907200D02*
X130404762Y-62954819D01*
X130404762Y-62954819D02*
X130214286Y-62954819D01*
X130214286Y-62954819D02*
X130119048Y-62907200D01*
X130119048Y-62907200D02*
X130071429Y-62859580D01*
X130071429Y-62859580D02*
X130023810Y-62764342D01*
X130023810Y-62764342D02*
X130023810Y-62478628D01*
X130023810Y-62478628D02*
X130071429Y-62383390D01*
X130071429Y-62383390D02*
X130119048Y-62335771D01*
X130119048Y-62335771D02*
X130214286Y-62288152D01*
X130214286Y-62288152D02*
X130404762Y-62288152D01*
X130404762Y-62288152D02*
X130500000Y-62335771D01*
X130928572Y-62954819D02*
X130928572Y-61954819D01*
X131023810Y-62573866D02*
X131309524Y-62954819D01*
X131309524Y-62288152D02*
X130928572Y-62669104D01*
X132261905Y-62954819D02*
X131690477Y-62954819D01*
X131976191Y-62954819D02*
X131976191Y-61954819D01*
X131976191Y-61954819D02*
X131880953Y-62097676D01*
X131880953Y-62097676D02*
X131785715Y-62192914D01*
X131785715Y-62192914D02*
X131690477Y-62240533D01*
X135238094Y-62954819D02*
X135238094Y-61954819D01*
X135238094Y-61954819D02*
X135571427Y-62669104D01*
X135571427Y-62669104D02*
X135904760Y-61954819D01*
X135904760Y-61954819D02*
X135904760Y-62954819D01*
X136523808Y-62954819D02*
X136428570Y-62907200D01*
X136428570Y-62907200D02*
X136380951Y-62859580D01*
X136380951Y-62859580D02*
X136333332Y-62764342D01*
X136333332Y-62764342D02*
X136333332Y-62478628D01*
X136333332Y-62478628D02*
X136380951Y-62383390D01*
X136380951Y-62383390D02*
X136428570Y-62335771D01*
X136428570Y-62335771D02*
X136523808Y-62288152D01*
X136523808Y-62288152D02*
X136666665Y-62288152D01*
X136666665Y-62288152D02*
X136761903Y-62335771D01*
X136761903Y-62335771D02*
X136809522Y-62383390D01*
X136809522Y-62383390D02*
X136857141Y-62478628D01*
X136857141Y-62478628D02*
X136857141Y-62764342D01*
X136857141Y-62764342D02*
X136809522Y-62859580D01*
X136809522Y-62859580D02*
X136761903Y-62907200D01*
X136761903Y-62907200D02*
X136666665Y-62954819D01*
X136666665Y-62954819D02*
X136523808Y-62954819D01*
X137190475Y-62288152D02*
X137428570Y-62954819D01*
X137428570Y-62954819D02*
X137666665Y-62288152D01*
X138047618Y-62954819D02*
X138047618Y-62288152D01*
X138047618Y-61954819D02*
X137999999Y-62002438D01*
X137999999Y-62002438D02*
X138047618Y-62050057D01*
X138047618Y-62050057D02*
X138095237Y-62002438D01*
X138095237Y-62002438D02*
X138047618Y-61954819D01*
X138047618Y-61954819D02*
X138047618Y-62050057D01*
X138523808Y-62288152D02*
X138523808Y-62954819D01*
X138523808Y-62383390D02*
X138571427Y-62335771D01*
X138571427Y-62335771D02*
X138666665Y-62288152D01*
X138666665Y-62288152D02*
X138809522Y-62288152D01*
X138809522Y-62288152D02*
X138904760Y-62335771D01*
X138904760Y-62335771D02*
X138952379Y-62431009D01*
X138952379Y-62431009D02*
X138952379Y-62954819D01*
X139857141Y-62288152D02*
X139857141Y-63097676D01*
X139857141Y-63097676D02*
X139809522Y-63192914D01*
X139809522Y-63192914D02*
X139761903Y-63240533D01*
X139761903Y-63240533D02*
X139666665Y-63288152D01*
X139666665Y-63288152D02*
X139523808Y-63288152D01*
X139523808Y-63288152D02*
X139428570Y-63240533D01*
X139857141Y-62907200D02*
X139761903Y-62954819D01*
X139761903Y-62954819D02*
X139571427Y-62954819D01*
X139571427Y-62954819D02*
X139476189Y-62907200D01*
X139476189Y-62907200D02*
X139428570Y-62859580D01*
X139428570Y-62859580D02*
X139380951Y-62764342D01*
X139380951Y-62764342D02*
X139380951Y-62478628D01*
X139380951Y-62478628D02*
X139428570Y-62383390D01*
X139428570Y-62383390D02*
X139476189Y-62335771D01*
X139476189Y-62335771D02*
X139571427Y-62288152D01*
X139571427Y-62288152D02*
X139761903Y-62288152D01*
X139761903Y-62288152D02*
X139857141Y-62335771D01*
X140666665Y-62431009D02*
X140809522Y-62478628D01*
X140809522Y-62478628D02*
X140857141Y-62526247D01*
X140857141Y-62526247D02*
X140904760Y-62621485D01*
X140904760Y-62621485D02*
X140904760Y-62764342D01*
X140904760Y-62764342D02*
X140857141Y-62859580D01*
X140857141Y-62859580D02*
X140809522Y-62907200D01*
X140809522Y-62907200D02*
X140714284Y-62954819D01*
X140714284Y-62954819D02*
X140333332Y-62954819D01*
X140333332Y-62954819D02*
X140333332Y-61954819D01*
X140333332Y-61954819D02*
X140666665Y-61954819D01*
X140666665Y-61954819D02*
X140761903Y-62002438D01*
X140761903Y-62002438D02*
X140809522Y-62050057D01*
X140809522Y-62050057D02*
X140857141Y-62145295D01*
X140857141Y-62145295D02*
X140857141Y-62240533D01*
X140857141Y-62240533D02*
X140809522Y-62335771D01*
X140809522Y-62335771D02*
X140761903Y-62383390D01*
X140761903Y-62383390D02*
X140666665Y-62431009D01*
X140666665Y-62431009D02*
X140333332Y-62431009D01*
X141761903Y-62288152D02*
X141761903Y-62954819D01*
X141333332Y-62288152D02*
X141333332Y-62811961D01*
X141333332Y-62811961D02*
X141380951Y-62907200D01*
X141380951Y-62907200D02*
X141476189Y-62954819D01*
X141476189Y-62954819D02*
X141619046Y-62954819D01*
X141619046Y-62954819D02*
X141714284Y-62907200D01*
X141714284Y-62907200D02*
X141761903Y-62859580D01*
X142238094Y-62954819D02*
X142238094Y-62288152D01*
X142238094Y-62383390D02*
X142285713Y-62335771D01*
X142285713Y-62335771D02*
X142380951Y-62288152D01*
X142380951Y-62288152D02*
X142523808Y-62288152D01*
X142523808Y-62288152D02*
X142619046Y-62335771D01*
X142619046Y-62335771D02*
X142666665Y-62431009D01*
X142666665Y-62431009D02*
X142666665Y-62954819D01*
X142666665Y-62431009D02*
X142714284Y-62335771D01*
X142714284Y-62335771D02*
X142809522Y-62288152D01*
X142809522Y-62288152D02*
X142952379Y-62288152D01*
X142952379Y-62288152D02*
X143047618Y-62335771D01*
X143047618Y-62335771D02*
X143095237Y-62431009D01*
X143095237Y-62431009D02*
X143095237Y-62954819D01*
X143571427Y-62288152D02*
X143571427Y-63288152D01*
X143571427Y-62335771D02*
X143666665Y-62288152D01*
X143666665Y-62288152D02*
X143857141Y-62288152D01*
X143857141Y-62288152D02*
X143952379Y-62335771D01*
X143952379Y-62335771D02*
X143999998Y-62383390D01*
X143999998Y-62383390D02*
X144047617Y-62478628D01*
X144047617Y-62478628D02*
X144047617Y-62764342D01*
X144047617Y-62764342D02*
X143999998Y-62859580D01*
X143999998Y-62859580D02*
X143952379Y-62907200D01*
X143952379Y-62907200D02*
X143857141Y-62954819D01*
X143857141Y-62954819D02*
X143666665Y-62954819D01*
X143666665Y-62954819D02*
X143571427Y-62907200D01*
X144857141Y-62907200D02*
X144761903Y-62954819D01*
X144761903Y-62954819D02*
X144571427Y-62954819D01*
X144571427Y-62954819D02*
X144476189Y-62907200D01*
X144476189Y-62907200D02*
X144428570Y-62811961D01*
X144428570Y-62811961D02*
X144428570Y-62431009D01*
X144428570Y-62431009D02*
X144476189Y-62335771D01*
X144476189Y-62335771D02*
X144571427Y-62288152D01*
X144571427Y-62288152D02*
X144761903Y-62288152D01*
X144761903Y-62288152D02*
X144857141Y-62335771D01*
X144857141Y-62335771D02*
X144904760Y-62431009D01*
X144904760Y-62431009D02*
X144904760Y-62526247D01*
X144904760Y-62526247D02*
X144428570Y-62621485D01*
X145333332Y-62954819D02*
X145333332Y-62288152D01*
X145333332Y-62478628D02*
X145380951Y-62383390D01*
X145380951Y-62383390D02*
X145428570Y-62335771D01*
X145428570Y-62335771D02*
X145523808Y-62288152D01*
X145523808Y-62288152D02*
X145619046Y-62288152D01*
X145714285Y-63050057D02*
X146476189Y-63050057D01*
X146571428Y-62288152D02*
X146952380Y-62288152D01*
X146714285Y-62954819D02*
X146714285Y-62097676D01*
X146714285Y-62097676D02*
X146761904Y-62002438D01*
X146761904Y-62002438D02*
X146857142Y-61954819D01*
X146857142Y-61954819D02*
X146952380Y-61954819D01*
X147285714Y-62954819D02*
X147285714Y-62288152D01*
X147285714Y-62478628D02*
X147333333Y-62383390D01*
X147333333Y-62383390D02*
X147380952Y-62335771D01*
X147380952Y-62335771D02*
X147476190Y-62288152D01*
X147476190Y-62288152D02*
X147571428Y-62288152D01*
X148047619Y-62954819D02*
X147952381Y-62907200D01*
X147952381Y-62907200D02*
X147904762Y-62859580D01*
X147904762Y-62859580D02*
X147857143Y-62764342D01*
X147857143Y-62764342D02*
X147857143Y-62478628D01*
X147857143Y-62478628D02*
X147904762Y-62383390D01*
X147904762Y-62383390D02*
X147952381Y-62335771D01*
X147952381Y-62335771D02*
X148047619Y-62288152D01*
X148047619Y-62288152D02*
X148190476Y-62288152D01*
X148190476Y-62288152D02*
X148285714Y-62335771D01*
X148285714Y-62335771D02*
X148333333Y-62383390D01*
X148333333Y-62383390D02*
X148380952Y-62478628D01*
X148380952Y-62478628D02*
X148380952Y-62764342D01*
X148380952Y-62764342D02*
X148333333Y-62859580D01*
X148333333Y-62859580D02*
X148285714Y-62907200D01*
X148285714Y-62907200D02*
X148190476Y-62954819D01*
X148190476Y-62954819D02*
X148047619Y-62954819D01*
X148809524Y-62288152D02*
X148809524Y-62954819D01*
X148809524Y-62383390D02*
X148857143Y-62335771D01*
X148857143Y-62335771D02*
X148952381Y-62288152D01*
X148952381Y-62288152D02*
X149095238Y-62288152D01*
X149095238Y-62288152D02*
X149190476Y-62335771D01*
X149190476Y-62335771D02*
X149238095Y-62431009D01*
X149238095Y-62431009D02*
X149238095Y-62954819D01*
X149571429Y-62288152D02*
X149952381Y-62288152D01*
X149714286Y-61954819D02*
X149714286Y-62811961D01*
X149714286Y-62811961D02*
X149761905Y-62907200D01*
X149761905Y-62907200D02*
X149857143Y-62954819D01*
X149857143Y-62954819D02*
X149952381Y-62954819D01*
X150809524Y-62954819D02*
X150238096Y-62954819D01*
X150523810Y-62954819D02*
X150523810Y-61954819D01*
X150523810Y-61954819D02*
X150428572Y-62097676D01*
X150428572Y-62097676D02*
X150333334Y-62192914D01*
X150333334Y-62192914D02*
X150238096Y-62240533D01*
X154095475Y-139574819D02*
X154095475Y-138574819D01*
X154095475Y-138574819D02*
X154333570Y-138574819D01*
X154333570Y-138574819D02*
X154476427Y-138622438D01*
X154476427Y-138622438D02*
X154571665Y-138717676D01*
X154571665Y-138717676D02*
X154619284Y-138812914D01*
X154619284Y-138812914D02*
X154666903Y-139003390D01*
X154666903Y-139003390D02*
X154666903Y-139146247D01*
X154666903Y-139146247D02*
X154619284Y-139336723D01*
X154619284Y-139336723D02*
X154571665Y-139431961D01*
X154571665Y-139431961D02*
X154476427Y-139527200D01*
X154476427Y-139527200D02*
X154333570Y-139574819D01*
X154333570Y-139574819D02*
X154095475Y-139574819D01*
X155476427Y-139527200D02*
X155381189Y-139574819D01*
X155381189Y-139574819D02*
X155190713Y-139574819D01*
X155190713Y-139574819D02*
X155095475Y-139527200D01*
X155095475Y-139527200D02*
X155047856Y-139431961D01*
X155047856Y-139431961D02*
X155047856Y-139051009D01*
X155047856Y-139051009D02*
X155095475Y-138955771D01*
X155095475Y-138955771D02*
X155190713Y-138908152D01*
X155190713Y-138908152D02*
X155381189Y-138908152D01*
X155381189Y-138908152D02*
X155476427Y-138955771D01*
X155476427Y-138955771D02*
X155524046Y-139051009D01*
X155524046Y-139051009D02*
X155524046Y-139146247D01*
X155524046Y-139146247D02*
X155047856Y-139241485D01*
X155952618Y-139574819D02*
X155952618Y-138574819D01*
X155952618Y-138955771D02*
X156047856Y-138908152D01*
X156047856Y-138908152D02*
X156238332Y-138908152D01*
X156238332Y-138908152D02*
X156333570Y-138955771D01*
X156333570Y-138955771D02*
X156381189Y-139003390D01*
X156381189Y-139003390D02*
X156428808Y-139098628D01*
X156428808Y-139098628D02*
X156428808Y-139384342D01*
X156428808Y-139384342D02*
X156381189Y-139479580D01*
X156381189Y-139479580D02*
X156333570Y-139527200D01*
X156333570Y-139527200D02*
X156238332Y-139574819D01*
X156238332Y-139574819D02*
X156047856Y-139574819D01*
X156047856Y-139574819D02*
X155952618Y-139527200D01*
X157285951Y-138908152D02*
X157285951Y-139574819D01*
X156857380Y-138908152D02*
X156857380Y-139431961D01*
X156857380Y-139431961D02*
X156904999Y-139527200D01*
X156904999Y-139527200D02*
X157000237Y-139574819D01*
X157000237Y-139574819D02*
X157143094Y-139574819D01*
X157143094Y-139574819D02*
X157238332Y-139527200D01*
X157238332Y-139527200D02*
X157285951Y-139479580D01*
X158190713Y-138908152D02*
X158190713Y-139717676D01*
X158190713Y-139717676D02*
X158143094Y-139812914D01*
X158143094Y-139812914D02*
X158095475Y-139860533D01*
X158095475Y-139860533D02*
X158000237Y-139908152D01*
X158000237Y-139908152D02*
X157857380Y-139908152D01*
X157857380Y-139908152D02*
X157762142Y-139860533D01*
X158190713Y-139527200D02*
X158095475Y-139574819D01*
X158095475Y-139574819D02*
X157904999Y-139574819D01*
X157904999Y-139574819D02*
X157809761Y-139527200D01*
X157809761Y-139527200D02*
X157762142Y-139479580D01*
X157762142Y-139479580D02*
X157714523Y-139384342D01*
X157714523Y-139384342D02*
X157714523Y-139098628D01*
X157714523Y-139098628D02*
X157762142Y-139003390D01*
X157762142Y-139003390D02*
X157809761Y-138955771D01*
X157809761Y-138955771D02*
X157904999Y-138908152D01*
X157904999Y-138908152D02*
X158095475Y-138908152D01*
X158095475Y-138908152D02*
X158190713Y-138955771D01*
X158428809Y-139670057D02*
X159190713Y-139670057D01*
X159428809Y-138908152D02*
X159428809Y-139908152D01*
X159428809Y-138955771D02*
X159524047Y-138908152D01*
X159524047Y-138908152D02*
X159714523Y-138908152D01*
X159714523Y-138908152D02*
X159809761Y-138955771D01*
X159809761Y-138955771D02*
X159857380Y-139003390D01*
X159857380Y-139003390D02*
X159904999Y-139098628D01*
X159904999Y-139098628D02*
X159904999Y-139384342D01*
X159904999Y-139384342D02*
X159857380Y-139479580D01*
X159857380Y-139479580D02*
X159809761Y-139527200D01*
X159809761Y-139527200D02*
X159714523Y-139574819D01*
X159714523Y-139574819D02*
X159524047Y-139574819D01*
X159524047Y-139574819D02*
X159428809Y-139527200D01*
X160476428Y-139574819D02*
X160381190Y-139527200D01*
X160381190Y-139527200D02*
X160333571Y-139479580D01*
X160333571Y-139479580D02*
X160285952Y-139384342D01*
X160285952Y-139384342D02*
X160285952Y-139098628D01*
X160285952Y-139098628D02*
X160333571Y-139003390D01*
X160333571Y-139003390D02*
X160381190Y-138955771D01*
X160381190Y-138955771D02*
X160476428Y-138908152D01*
X160476428Y-138908152D02*
X160619285Y-138908152D01*
X160619285Y-138908152D02*
X160714523Y-138955771D01*
X160714523Y-138955771D02*
X160762142Y-139003390D01*
X160762142Y-139003390D02*
X160809761Y-139098628D01*
X160809761Y-139098628D02*
X160809761Y-139384342D01*
X160809761Y-139384342D02*
X160762142Y-139479580D01*
X160762142Y-139479580D02*
X160714523Y-139527200D01*
X160714523Y-139527200D02*
X160619285Y-139574819D01*
X160619285Y-139574819D02*
X160476428Y-139574819D01*
X161238333Y-139574819D02*
X161238333Y-138908152D01*
X161238333Y-139098628D02*
X161285952Y-139003390D01*
X161285952Y-139003390D02*
X161333571Y-138955771D01*
X161333571Y-138955771D02*
X161428809Y-138908152D01*
X161428809Y-138908152D02*
X161524047Y-138908152D01*
X161714524Y-138908152D02*
X162095476Y-138908152D01*
X161857381Y-138574819D02*
X161857381Y-139431961D01*
X161857381Y-139431961D02*
X161905000Y-139527200D01*
X161905000Y-139527200D02*
X162000238Y-139574819D01*
X162000238Y-139574819D02*
X162095476Y-139574819D01*
X162381191Y-139527200D02*
X162476429Y-139574819D01*
X162476429Y-139574819D02*
X162666905Y-139574819D01*
X162666905Y-139574819D02*
X162762143Y-139527200D01*
X162762143Y-139527200D02*
X162809762Y-139431961D01*
X162809762Y-139431961D02*
X162809762Y-139384342D01*
X162809762Y-139384342D02*
X162762143Y-139289104D01*
X162762143Y-139289104D02*
X162666905Y-139241485D01*
X162666905Y-139241485D02*
X162524048Y-139241485D01*
X162524048Y-139241485D02*
X162428810Y-139193866D01*
X162428810Y-139193866D02*
X162381191Y-139098628D01*
X162381191Y-139098628D02*
X162381191Y-139051009D01*
X162381191Y-139051009D02*
X162428810Y-138955771D01*
X162428810Y-138955771D02*
X162524048Y-138908152D01*
X162524048Y-138908152D02*
X162666905Y-138908152D01*
X162666905Y-138908152D02*
X162762143Y-138955771D01*
X163762143Y-139574819D02*
X163190715Y-139574819D01*
X163476429Y-139574819D02*
X163476429Y-138574819D01*
X163476429Y-138574819D02*
X163381191Y-138717676D01*
X163381191Y-138717676D02*
X163285953Y-138812914D01*
X163285953Y-138812914D02*
X163190715Y-138860533D01*
X126472023Y-132274819D02*
X126472023Y-131608152D01*
X126472023Y-131798628D02*
X126519642Y-131703390D01*
X126519642Y-131703390D02*
X126567261Y-131655771D01*
X126567261Y-131655771D02*
X126662499Y-131608152D01*
X126662499Y-131608152D02*
X126757737Y-131608152D01*
X127472023Y-132227200D02*
X127376785Y-132274819D01*
X127376785Y-132274819D02*
X127186309Y-132274819D01*
X127186309Y-132274819D02*
X127091071Y-132227200D01*
X127091071Y-132227200D02*
X127043452Y-132131961D01*
X127043452Y-132131961D02*
X127043452Y-131751009D01*
X127043452Y-131751009D02*
X127091071Y-131655771D01*
X127091071Y-131655771D02*
X127186309Y-131608152D01*
X127186309Y-131608152D02*
X127376785Y-131608152D01*
X127376785Y-131608152D02*
X127472023Y-131655771D01*
X127472023Y-131655771D02*
X127519642Y-131751009D01*
X127519642Y-131751009D02*
X127519642Y-131846247D01*
X127519642Y-131846247D02*
X127043452Y-131941485D01*
X128376785Y-131608152D02*
X128376785Y-132417676D01*
X128376785Y-132417676D02*
X128329166Y-132512914D01*
X128329166Y-132512914D02*
X128281547Y-132560533D01*
X128281547Y-132560533D02*
X128186309Y-132608152D01*
X128186309Y-132608152D02*
X128043452Y-132608152D01*
X128043452Y-132608152D02*
X127948214Y-132560533D01*
X128376785Y-132227200D02*
X128281547Y-132274819D01*
X128281547Y-132274819D02*
X128091071Y-132274819D01*
X128091071Y-132274819D02*
X127995833Y-132227200D01*
X127995833Y-132227200D02*
X127948214Y-132179580D01*
X127948214Y-132179580D02*
X127900595Y-132084342D01*
X127900595Y-132084342D02*
X127900595Y-131798628D01*
X127900595Y-131798628D02*
X127948214Y-131703390D01*
X127948214Y-131703390D02*
X127995833Y-131655771D01*
X127995833Y-131655771D02*
X128091071Y-131608152D01*
X128091071Y-131608152D02*
X128281547Y-131608152D01*
X128281547Y-131608152D02*
X128376785Y-131655771D01*
X128614881Y-132370057D02*
X129376785Y-132370057D01*
X130043452Y-132227200D02*
X129948214Y-132274819D01*
X129948214Y-132274819D02*
X129757738Y-132274819D01*
X129757738Y-132274819D02*
X129662500Y-132227200D01*
X129662500Y-132227200D02*
X129614881Y-132179580D01*
X129614881Y-132179580D02*
X129567262Y-132084342D01*
X129567262Y-132084342D02*
X129567262Y-131798628D01*
X129567262Y-131798628D02*
X129614881Y-131703390D01*
X129614881Y-131703390D02*
X129662500Y-131655771D01*
X129662500Y-131655771D02*
X129757738Y-131608152D01*
X129757738Y-131608152D02*
X129948214Y-131608152D01*
X129948214Y-131608152D02*
X130043452Y-131655771D01*
X130614881Y-132274819D02*
X130519643Y-132227200D01*
X130519643Y-132227200D02*
X130472024Y-132179580D01*
X130472024Y-132179580D02*
X130424405Y-132084342D01*
X130424405Y-132084342D02*
X130424405Y-131798628D01*
X130424405Y-131798628D02*
X130472024Y-131703390D01*
X130472024Y-131703390D02*
X130519643Y-131655771D01*
X130519643Y-131655771D02*
X130614881Y-131608152D01*
X130614881Y-131608152D02*
X130757738Y-131608152D01*
X130757738Y-131608152D02*
X130852976Y-131655771D01*
X130852976Y-131655771D02*
X130900595Y-131703390D01*
X130900595Y-131703390D02*
X130948214Y-131798628D01*
X130948214Y-131798628D02*
X130948214Y-132084342D01*
X130948214Y-132084342D02*
X130900595Y-132179580D01*
X130900595Y-132179580D02*
X130852976Y-132227200D01*
X130852976Y-132227200D02*
X130757738Y-132274819D01*
X130757738Y-132274819D02*
X130614881Y-132274819D01*
X131900595Y-132274819D02*
X131329167Y-132274819D01*
X131614881Y-132274819D02*
X131614881Y-131274819D01*
X131614881Y-131274819D02*
X131519643Y-131417676D01*
X131519643Y-131417676D02*
X131424405Y-131512914D01*
X131424405Y-131512914D02*
X131329167Y-131560533D01*
X120354919Y-115655518D02*
X119688252Y-115655518D01*
X119783490Y-115655518D02*
X119735871Y-115607899D01*
X119735871Y-115607899D02*
X119688252Y-115512661D01*
X119688252Y-115512661D02*
X119688252Y-115369804D01*
X119688252Y-115369804D02*
X119735871Y-115274566D01*
X119735871Y-115274566D02*
X119831109Y-115226947D01*
X119831109Y-115226947D02*
X120354919Y-115226947D01*
X119831109Y-115226947D02*
X119735871Y-115179328D01*
X119735871Y-115179328D02*
X119688252Y-115084090D01*
X119688252Y-115084090D02*
X119688252Y-114941233D01*
X119688252Y-114941233D02*
X119735871Y-114845994D01*
X119735871Y-114845994D02*
X119831109Y-114798375D01*
X119831109Y-114798375D02*
X120354919Y-114798375D01*
X120354919Y-114322185D02*
X119688252Y-114322185D01*
X119354919Y-114322185D02*
X119402538Y-114369804D01*
X119402538Y-114369804D02*
X119450157Y-114322185D01*
X119450157Y-114322185D02*
X119402538Y-114274566D01*
X119402538Y-114274566D02*
X119354919Y-114322185D01*
X119354919Y-114322185D02*
X119450157Y-114322185D01*
X120354919Y-113941233D02*
X119688252Y-113417424D01*
X119688252Y-113941233D02*
X120354919Y-113417424D01*
X119450157Y-113084090D02*
X119402538Y-113036471D01*
X119402538Y-113036471D02*
X119354919Y-112941233D01*
X119354919Y-112941233D02*
X119354919Y-112703138D01*
X119354919Y-112703138D02*
X119402538Y-112607900D01*
X119402538Y-112607900D02*
X119450157Y-112560281D01*
X119450157Y-112560281D02*
X119545395Y-112512662D01*
X119545395Y-112512662D02*
X119640633Y-112512662D01*
X119640633Y-112512662D02*
X119783490Y-112560281D01*
X119783490Y-112560281D02*
X120354919Y-113131709D01*
X120354919Y-113131709D02*
X120354919Y-112512662D01*
X113824819Y-67592023D02*
X113824819Y-67020595D01*
X114824819Y-67306309D02*
X113824819Y-67306309D01*
X114824819Y-66687261D02*
X113824819Y-66687261D01*
X114824819Y-66258690D02*
X114301009Y-66258690D01*
X114301009Y-66258690D02*
X114205771Y-66306309D01*
X114205771Y-66306309D02*
X114158152Y-66401547D01*
X114158152Y-66401547D02*
X114158152Y-66544404D01*
X114158152Y-66544404D02*
X114205771Y-66639642D01*
X114205771Y-66639642D02*
X114253390Y-66687261D01*
X114777200Y-65401547D02*
X114824819Y-65496785D01*
X114824819Y-65496785D02*
X114824819Y-65687261D01*
X114824819Y-65687261D02*
X114777200Y-65782499D01*
X114777200Y-65782499D02*
X114681961Y-65830118D01*
X114681961Y-65830118D02*
X114301009Y-65830118D01*
X114301009Y-65830118D02*
X114205771Y-65782499D01*
X114205771Y-65782499D02*
X114158152Y-65687261D01*
X114158152Y-65687261D02*
X114158152Y-65496785D01*
X114158152Y-65496785D02*
X114205771Y-65401547D01*
X114205771Y-65401547D02*
X114301009Y-65353928D01*
X114301009Y-65353928D02*
X114396247Y-65353928D01*
X114396247Y-65353928D02*
X114491485Y-65830118D01*
X114824819Y-64925356D02*
X114158152Y-64925356D01*
X114348628Y-64925356D02*
X114253390Y-64877737D01*
X114253390Y-64877737D02*
X114205771Y-64830118D01*
X114205771Y-64830118D02*
X114158152Y-64734880D01*
X114158152Y-64734880D02*
X114158152Y-64639642D01*
X114824819Y-64306308D02*
X114158152Y-64306308D01*
X114253390Y-64306308D02*
X114205771Y-64258689D01*
X114205771Y-64258689D02*
X114158152Y-64163451D01*
X114158152Y-64163451D02*
X114158152Y-64020594D01*
X114158152Y-64020594D02*
X114205771Y-63925356D01*
X114205771Y-63925356D02*
X114301009Y-63877737D01*
X114301009Y-63877737D02*
X114824819Y-63877737D01*
X114301009Y-63877737D02*
X114205771Y-63830118D01*
X114205771Y-63830118D02*
X114158152Y-63734880D01*
X114158152Y-63734880D02*
X114158152Y-63592023D01*
X114158152Y-63592023D02*
X114205771Y-63496784D01*
X114205771Y-63496784D02*
X114301009Y-63449165D01*
X114301009Y-63449165D02*
X114824819Y-63449165D01*
X114824819Y-62972975D02*
X114158152Y-62972975D01*
X113824819Y-62972975D02*
X113872438Y-63020594D01*
X113872438Y-63020594D02*
X113920057Y-62972975D01*
X113920057Y-62972975D02*
X113872438Y-62925356D01*
X113872438Y-62925356D02*
X113824819Y-62972975D01*
X113824819Y-62972975D02*
X113920057Y-62972975D01*
X114777200Y-62544404D02*
X114824819Y-62449166D01*
X114824819Y-62449166D02*
X114824819Y-62258690D01*
X114824819Y-62258690D02*
X114777200Y-62163452D01*
X114777200Y-62163452D02*
X114681961Y-62115833D01*
X114681961Y-62115833D02*
X114634342Y-62115833D01*
X114634342Y-62115833D02*
X114539104Y-62163452D01*
X114539104Y-62163452D02*
X114491485Y-62258690D01*
X114491485Y-62258690D02*
X114491485Y-62401547D01*
X114491485Y-62401547D02*
X114443866Y-62496785D01*
X114443866Y-62496785D02*
X114348628Y-62544404D01*
X114348628Y-62544404D02*
X114301009Y-62544404D01*
X114301009Y-62544404D02*
X114205771Y-62496785D01*
X114205771Y-62496785D02*
X114158152Y-62401547D01*
X114158152Y-62401547D02*
X114158152Y-62258690D01*
X114158152Y-62258690D02*
X114205771Y-62163452D01*
X114158152Y-61830118D02*
X114158152Y-61449166D01*
X113824819Y-61687261D02*
X114681961Y-61687261D01*
X114681961Y-61687261D02*
X114777200Y-61639642D01*
X114777200Y-61639642D02*
X114824819Y-61544404D01*
X114824819Y-61544404D02*
X114824819Y-61449166D01*
X114824819Y-60972975D02*
X114777200Y-61068213D01*
X114777200Y-61068213D02*
X114729580Y-61115832D01*
X114729580Y-61115832D02*
X114634342Y-61163451D01*
X114634342Y-61163451D02*
X114348628Y-61163451D01*
X114348628Y-61163451D02*
X114253390Y-61115832D01*
X114253390Y-61115832D02*
X114205771Y-61068213D01*
X114205771Y-61068213D02*
X114158152Y-60972975D01*
X114158152Y-60972975D02*
X114158152Y-60830118D01*
X114158152Y-60830118D02*
X114205771Y-60734880D01*
X114205771Y-60734880D02*
X114253390Y-60687261D01*
X114253390Y-60687261D02*
X114348628Y-60639642D01*
X114348628Y-60639642D02*
X114634342Y-60639642D01*
X114634342Y-60639642D02*
X114729580Y-60687261D01*
X114729580Y-60687261D02*
X114777200Y-60734880D01*
X114777200Y-60734880D02*
X114824819Y-60830118D01*
X114824819Y-60830118D02*
X114824819Y-60972975D01*
X114824819Y-60211070D02*
X114158152Y-60211070D01*
X114348628Y-60211070D02*
X114253390Y-60163451D01*
X114253390Y-60163451D02*
X114205771Y-60115832D01*
X114205771Y-60115832D02*
X114158152Y-60020594D01*
X114158152Y-60020594D02*
X114158152Y-59925356D01*
X114824819Y-59068213D02*
X114824819Y-59639641D01*
X114824819Y-59353927D02*
X113824819Y-59353927D01*
X113824819Y-59353927D02*
X113967676Y-59449165D01*
X113967676Y-59449165D02*
X114062914Y-59544403D01*
X114062914Y-59544403D02*
X114110533Y-59639641D01*
X126736309Y-136774819D02*
X126736309Y-136108152D01*
X126736309Y-136298628D02*
X126783928Y-136203390D01*
X126783928Y-136203390D02*
X126831547Y-136155771D01*
X126831547Y-136155771D02*
X126926785Y-136108152D01*
X126926785Y-136108152D02*
X127022023Y-136108152D01*
X127736309Y-136727200D02*
X127641071Y-136774819D01*
X127641071Y-136774819D02*
X127450595Y-136774819D01*
X127450595Y-136774819D02*
X127355357Y-136727200D01*
X127355357Y-136727200D02*
X127307738Y-136631961D01*
X127307738Y-136631961D02*
X127307738Y-136251009D01*
X127307738Y-136251009D02*
X127355357Y-136155771D01*
X127355357Y-136155771D02*
X127450595Y-136108152D01*
X127450595Y-136108152D02*
X127641071Y-136108152D01*
X127641071Y-136108152D02*
X127736309Y-136155771D01*
X127736309Y-136155771D02*
X127783928Y-136251009D01*
X127783928Y-136251009D02*
X127783928Y-136346247D01*
X127783928Y-136346247D02*
X127307738Y-136441485D01*
X128641071Y-136108152D02*
X128641071Y-136917676D01*
X128641071Y-136917676D02*
X128593452Y-137012914D01*
X128593452Y-137012914D02*
X128545833Y-137060533D01*
X128545833Y-137060533D02*
X128450595Y-137108152D01*
X128450595Y-137108152D02*
X128307738Y-137108152D01*
X128307738Y-137108152D02*
X128212500Y-137060533D01*
X128641071Y-136727200D02*
X128545833Y-136774819D01*
X128545833Y-136774819D02*
X128355357Y-136774819D01*
X128355357Y-136774819D02*
X128260119Y-136727200D01*
X128260119Y-136727200D02*
X128212500Y-136679580D01*
X128212500Y-136679580D02*
X128164881Y-136584342D01*
X128164881Y-136584342D02*
X128164881Y-136298628D01*
X128164881Y-136298628D02*
X128212500Y-136203390D01*
X128212500Y-136203390D02*
X128260119Y-136155771D01*
X128260119Y-136155771D02*
X128355357Y-136108152D01*
X128355357Y-136108152D02*
X128545833Y-136108152D01*
X128545833Y-136108152D02*
X128641071Y-136155771D01*
X128879167Y-136870057D02*
X129641071Y-136870057D01*
X130307738Y-136727200D02*
X130212500Y-136774819D01*
X130212500Y-136774819D02*
X130022024Y-136774819D01*
X130022024Y-136774819D02*
X129926786Y-136727200D01*
X129926786Y-136727200D02*
X129879167Y-136679580D01*
X129879167Y-136679580D02*
X129831548Y-136584342D01*
X129831548Y-136584342D02*
X129831548Y-136298628D01*
X129831548Y-136298628D02*
X129879167Y-136203390D01*
X129879167Y-136203390D02*
X129926786Y-136155771D01*
X129926786Y-136155771D02*
X130022024Y-136108152D01*
X130022024Y-136108152D02*
X130212500Y-136108152D01*
X130212500Y-136108152D02*
X130307738Y-136155771D01*
X130736310Y-136774819D02*
X130736310Y-136108152D01*
X130736310Y-135774819D02*
X130688691Y-135822438D01*
X130688691Y-135822438D02*
X130736310Y-135870057D01*
X130736310Y-135870057D02*
X130783929Y-135822438D01*
X130783929Y-135822438D02*
X130736310Y-135774819D01*
X130736310Y-135774819D02*
X130736310Y-135870057D01*
X131736309Y-136774819D02*
X131164881Y-136774819D01*
X131450595Y-136774819D02*
X131450595Y-135774819D01*
X131450595Y-135774819D02*
X131355357Y-135917676D01*
X131355357Y-135917676D02*
X131260119Y-136012914D01*
X131260119Y-136012914D02*
X131164881Y-136060533D01*
X162846286Y-105101119D02*
X162846286Y-104101119D01*
X162846286Y-104101119D02*
X163179619Y-104815404D01*
X163179619Y-104815404D02*
X163512952Y-104101119D01*
X163512952Y-104101119D02*
X163512952Y-105101119D01*
X164132000Y-105101119D02*
X164036762Y-105053500D01*
X164036762Y-105053500D02*
X163989143Y-105005880D01*
X163989143Y-105005880D02*
X163941524Y-104910642D01*
X163941524Y-104910642D02*
X163941524Y-104624928D01*
X163941524Y-104624928D02*
X163989143Y-104529690D01*
X163989143Y-104529690D02*
X164036762Y-104482071D01*
X164036762Y-104482071D02*
X164132000Y-104434452D01*
X164132000Y-104434452D02*
X164274857Y-104434452D01*
X164274857Y-104434452D02*
X164370095Y-104482071D01*
X164370095Y-104482071D02*
X164417714Y-104529690D01*
X164417714Y-104529690D02*
X164465333Y-104624928D01*
X164465333Y-104624928D02*
X164465333Y-104910642D01*
X164465333Y-104910642D02*
X164417714Y-105005880D01*
X164417714Y-105005880D02*
X164370095Y-105053500D01*
X164370095Y-105053500D02*
X164274857Y-105101119D01*
X164274857Y-105101119D02*
X164132000Y-105101119D01*
X164798667Y-104434452D02*
X165036762Y-105101119D01*
X165036762Y-105101119D02*
X165274857Y-104434452D01*
X165655810Y-105101119D02*
X165655810Y-104434452D01*
X165655810Y-104101119D02*
X165608191Y-104148738D01*
X165608191Y-104148738D02*
X165655810Y-104196357D01*
X165655810Y-104196357D02*
X165703429Y-104148738D01*
X165703429Y-104148738D02*
X165655810Y-104101119D01*
X165655810Y-104101119D02*
X165655810Y-104196357D01*
X166132000Y-104434452D02*
X166132000Y-105101119D01*
X166132000Y-104529690D02*
X166179619Y-104482071D01*
X166179619Y-104482071D02*
X166274857Y-104434452D01*
X166274857Y-104434452D02*
X166417714Y-104434452D01*
X166417714Y-104434452D02*
X166512952Y-104482071D01*
X166512952Y-104482071D02*
X166560571Y-104577309D01*
X166560571Y-104577309D02*
X166560571Y-105101119D01*
X167465333Y-104434452D02*
X167465333Y-105243976D01*
X167465333Y-105243976D02*
X167417714Y-105339214D01*
X167417714Y-105339214D02*
X167370095Y-105386833D01*
X167370095Y-105386833D02*
X167274857Y-105434452D01*
X167274857Y-105434452D02*
X167132000Y-105434452D01*
X167132000Y-105434452D02*
X167036762Y-105386833D01*
X167465333Y-105053500D02*
X167370095Y-105101119D01*
X167370095Y-105101119D02*
X167179619Y-105101119D01*
X167179619Y-105101119D02*
X167084381Y-105053500D01*
X167084381Y-105053500D02*
X167036762Y-105005880D01*
X167036762Y-105005880D02*
X166989143Y-104910642D01*
X166989143Y-104910642D02*
X166989143Y-104624928D01*
X166989143Y-104624928D02*
X167036762Y-104529690D01*
X167036762Y-104529690D02*
X167084381Y-104482071D01*
X167084381Y-104482071D02*
X167179619Y-104434452D01*
X167179619Y-104434452D02*
X167370095Y-104434452D01*
X167370095Y-104434452D02*
X167465333Y-104482071D01*
X168465333Y-105101119D02*
X167893905Y-105101119D01*
X168179619Y-105101119D02*
X168179619Y-104101119D01*
X168179619Y-104101119D02*
X168084381Y-104243976D01*
X168084381Y-104243976D02*
X167989143Y-104339214D01*
X167989143Y-104339214D02*
X167893905Y-104386833D01*
X116416666Y-129834819D02*
X116416666Y-130549104D01*
X116416666Y-130549104D02*
X116369047Y-130691961D01*
X116369047Y-130691961D02*
X116273809Y-130787200D01*
X116273809Y-130787200D02*
X116130952Y-130834819D01*
X116130952Y-130834819D02*
X116035714Y-130834819D01*
X117416666Y-130834819D02*
X116845238Y-130834819D01*
X117130952Y-130834819D02*
X117130952Y-129834819D01*
X117130952Y-129834819D02*
X117035714Y-129977676D01*
X117035714Y-129977676D02*
X116940476Y-130072914D01*
X116940476Y-130072914D02*
X116845238Y-130120533D01*
X121480357Y-65670652D02*
X121718452Y-66337319D01*
X121718452Y-66337319D02*
X121956547Y-65670652D01*
X122766071Y-66337319D02*
X122766071Y-65337319D01*
X122766071Y-66289700D02*
X122670833Y-66337319D01*
X122670833Y-66337319D02*
X122480357Y-66337319D01*
X122480357Y-66337319D02*
X122385119Y-66289700D01*
X122385119Y-66289700D02*
X122337500Y-66242080D01*
X122337500Y-66242080D02*
X122289881Y-66146842D01*
X122289881Y-66146842D02*
X122289881Y-65861128D01*
X122289881Y-65861128D02*
X122337500Y-65765890D01*
X122337500Y-65765890D02*
X122385119Y-65718271D01*
X122385119Y-65718271D02*
X122480357Y-65670652D01*
X122480357Y-65670652D02*
X122670833Y-65670652D01*
X122670833Y-65670652D02*
X122766071Y-65718271D01*
X123004167Y-66432557D02*
X123766071Y-66432557D01*
X124004167Y-66337319D02*
X124004167Y-65670652D01*
X124004167Y-65861128D02*
X124051786Y-65765890D01*
X124051786Y-65765890D02*
X124099405Y-65718271D01*
X124099405Y-65718271D02*
X124194643Y-65670652D01*
X124194643Y-65670652D02*
X124289881Y-65670652D01*
X125147024Y-66337319D02*
X124575596Y-66337319D01*
X124861310Y-66337319D02*
X124861310Y-65337319D01*
X124861310Y-65337319D02*
X124766072Y-65480176D01*
X124766072Y-65480176D02*
X124670834Y-65575414D01*
X124670834Y-65575414D02*
X124575596Y-65623033D01*
X119854919Y-109155518D02*
X119188252Y-109155518D01*
X119283490Y-109155518D02*
X119235871Y-109107899D01*
X119235871Y-109107899D02*
X119188252Y-109012661D01*
X119188252Y-109012661D02*
X119188252Y-108869804D01*
X119188252Y-108869804D02*
X119235871Y-108774566D01*
X119235871Y-108774566D02*
X119331109Y-108726947D01*
X119331109Y-108726947D02*
X119854919Y-108726947D01*
X119331109Y-108726947D02*
X119235871Y-108679328D01*
X119235871Y-108679328D02*
X119188252Y-108584090D01*
X119188252Y-108584090D02*
X119188252Y-108441233D01*
X119188252Y-108441233D02*
X119235871Y-108345994D01*
X119235871Y-108345994D02*
X119331109Y-108298375D01*
X119331109Y-108298375D02*
X119854919Y-108298375D01*
X119854919Y-107822185D02*
X119188252Y-107822185D01*
X118854919Y-107822185D02*
X118902538Y-107869804D01*
X118902538Y-107869804D02*
X118950157Y-107822185D01*
X118950157Y-107822185D02*
X118902538Y-107774566D01*
X118902538Y-107774566D02*
X118854919Y-107822185D01*
X118854919Y-107822185D02*
X118950157Y-107822185D01*
X119854919Y-107441233D02*
X119188252Y-106917424D01*
X119188252Y-107441233D02*
X119854919Y-106917424D01*
X118854919Y-106631709D02*
X118854919Y-106012662D01*
X118854919Y-106012662D02*
X119235871Y-106345995D01*
X119235871Y-106345995D02*
X119235871Y-106203138D01*
X119235871Y-106203138D02*
X119283490Y-106107900D01*
X119283490Y-106107900D02*
X119331109Y-106060281D01*
X119331109Y-106060281D02*
X119426347Y-106012662D01*
X119426347Y-106012662D02*
X119664442Y-106012662D01*
X119664442Y-106012662D02*
X119759680Y-106060281D01*
X119759680Y-106060281D02*
X119807300Y-106107900D01*
X119807300Y-106107900D02*
X119854919Y-106203138D01*
X119854919Y-106203138D02*
X119854919Y-106488852D01*
X119854919Y-106488852D02*
X119807300Y-106584090D01*
X119807300Y-106584090D02*
X119759680Y-106631709D01*
X155261903Y-62954819D02*
X154928570Y-62478628D01*
X154690475Y-62954819D02*
X154690475Y-61954819D01*
X154690475Y-61954819D02*
X155071427Y-61954819D01*
X155071427Y-61954819D02*
X155166665Y-62002438D01*
X155166665Y-62002438D02*
X155214284Y-62050057D01*
X155214284Y-62050057D02*
X155261903Y-62145295D01*
X155261903Y-62145295D02*
X155261903Y-62288152D01*
X155261903Y-62288152D02*
X155214284Y-62383390D01*
X155214284Y-62383390D02*
X155166665Y-62431009D01*
X155166665Y-62431009D02*
X155071427Y-62478628D01*
X155071427Y-62478628D02*
X154690475Y-62478628D01*
X156071427Y-62907200D02*
X155976189Y-62954819D01*
X155976189Y-62954819D02*
X155785713Y-62954819D01*
X155785713Y-62954819D02*
X155690475Y-62907200D01*
X155690475Y-62907200D02*
X155642856Y-62811961D01*
X155642856Y-62811961D02*
X155642856Y-62431009D01*
X155642856Y-62431009D02*
X155690475Y-62335771D01*
X155690475Y-62335771D02*
X155785713Y-62288152D01*
X155785713Y-62288152D02*
X155976189Y-62288152D01*
X155976189Y-62288152D02*
X156071427Y-62335771D01*
X156071427Y-62335771D02*
X156119046Y-62431009D01*
X156119046Y-62431009D02*
X156119046Y-62526247D01*
X156119046Y-62526247D02*
X155642856Y-62621485D01*
X156547618Y-62954819D02*
X156547618Y-61954819D01*
X156976189Y-62954819D02*
X156976189Y-62431009D01*
X156976189Y-62431009D02*
X156928570Y-62335771D01*
X156928570Y-62335771D02*
X156833332Y-62288152D01*
X156833332Y-62288152D02*
X156690475Y-62288152D01*
X156690475Y-62288152D02*
X156595237Y-62335771D01*
X156595237Y-62335771D02*
X156547618Y-62383390D01*
X157357142Y-62288152D02*
X157595237Y-62954819D01*
X157833332Y-62288152D02*
X157595237Y-62954819D01*
X157595237Y-62954819D02*
X157499999Y-63192914D01*
X157499999Y-63192914D02*
X157452380Y-63240533D01*
X157452380Y-63240533D02*
X157357142Y-63288152D01*
X158642856Y-62954819D02*
X158642856Y-61954819D01*
X158642856Y-62907200D02*
X158547618Y-62954819D01*
X158547618Y-62954819D02*
X158357142Y-62954819D01*
X158357142Y-62954819D02*
X158261904Y-62907200D01*
X158261904Y-62907200D02*
X158214285Y-62859580D01*
X158214285Y-62859580D02*
X158166666Y-62764342D01*
X158166666Y-62764342D02*
X158166666Y-62478628D01*
X158166666Y-62478628D02*
X158214285Y-62383390D01*
X158214285Y-62383390D02*
X158261904Y-62335771D01*
X158261904Y-62335771D02*
X158357142Y-62288152D01*
X158357142Y-62288152D02*
X158547618Y-62288152D01*
X158547618Y-62288152D02*
X158642856Y-62335771D01*
X159119047Y-62954819D02*
X159119047Y-62288152D01*
X159119047Y-62478628D02*
X159166666Y-62383390D01*
X159166666Y-62383390D02*
X159214285Y-62335771D01*
X159214285Y-62335771D02*
X159309523Y-62288152D01*
X159309523Y-62288152D02*
X159404761Y-62288152D01*
X160166666Y-62954819D02*
X160166666Y-62431009D01*
X160166666Y-62431009D02*
X160119047Y-62335771D01*
X160119047Y-62335771D02*
X160023809Y-62288152D01*
X160023809Y-62288152D02*
X159833333Y-62288152D01*
X159833333Y-62288152D02*
X159738095Y-62335771D01*
X160166666Y-62907200D02*
X160071428Y-62954819D01*
X160071428Y-62954819D02*
X159833333Y-62954819D01*
X159833333Y-62954819D02*
X159738095Y-62907200D01*
X159738095Y-62907200D02*
X159690476Y-62811961D01*
X159690476Y-62811961D02*
X159690476Y-62716723D01*
X159690476Y-62716723D02*
X159738095Y-62621485D01*
X159738095Y-62621485D02*
X159833333Y-62573866D01*
X159833333Y-62573866D02*
X160071428Y-62573866D01*
X160071428Y-62573866D02*
X160166666Y-62526247D01*
X160500000Y-62288152D02*
X160880952Y-62288152D01*
X160642857Y-61954819D02*
X160642857Y-62811961D01*
X160642857Y-62811961D02*
X160690476Y-62907200D01*
X160690476Y-62907200D02*
X160785714Y-62954819D01*
X160785714Y-62954819D02*
X160880952Y-62954819D01*
X161214286Y-62954819D02*
X161214286Y-62288152D01*
X161214286Y-61954819D02*
X161166667Y-62002438D01*
X161166667Y-62002438D02*
X161214286Y-62050057D01*
X161214286Y-62050057D02*
X161261905Y-62002438D01*
X161261905Y-62002438D02*
X161214286Y-61954819D01*
X161214286Y-61954819D02*
X161214286Y-62050057D01*
X161833333Y-62954819D02*
X161738095Y-62907200D01*
X161738095Y-62907200D02*
X161690476Y-62859580D01*
X161690476Y-62859580D02*
X161642857Y-62764342D01*
X161642857Y-62764342D02*
X161642857Y-62478628D01*
X161642857Y-62478628D02*
X161690476Y-62383390D01*
X161690476Y-62383390D02*
X161738095Y-62335771D01*
X161738095Y-62335771D02*
X161833333Y-62288152D01*
X161833333Y-62288152D02*
X161976190Y-62288152D01*
X161976190Y-62288152D02*
X162071428Y-62335771D01*
X162071428Y-62335771D02*
X162119047Y-62383390D01*
X162119047Y-62383390D02*
X162166666Y-62478628D01*
X162166666Y-62478628D02*
X162166666Y-62764342D01*
X162166666Y-62764342D02*
X162119047Y-62859580D01*
X162119047Y-62859580D02*
X162071428Y-62907200D01*
X162071428Y-62907200D02*
X161976190Y-62954819D01*
X161976190Y-62954819D02*
X161833333Y-62954819D01*
X162595238Y-62288152D02*
X162595238Y-62954819D01*
X162595238Y-62383390D02*
X162642857Y-62335771D01*
X162642857Y-62335771D02*
X162738095Y-62288152D01*
X162738095Y-62288152D02*
X162880952Y-62288152D01*
X162880952Y-62288152D02*
X162976190Y-62335771D01*
X162976190Y-62335771D02*
X163023809Y-62431009D01*
X163023809Y-62431009D02*
X163023809Y-62954819D01*
X163261905Y-63050057D02*
X164023809Y-63050057D01*
X164119048Y-62288152D02*
X164500000Y-62288152D01*
X164261905Y-62954819D02*
X164261905Y-62097676D01*
X164261905Y-62097676D02*
X164309524Y-62002438D01*
X164309524Y-62002438D02*
X164404762Y-61954819D01*
X164404762Y-61954819D02*
X164500000Y-61954819D01*
X164833334Y-62954819D02*
X164833334Y-62288152D01*
X164833334Y-62478628D02*
X164880953Y-62383390D01*
X164880953Y-62383390D02*
X164928572Y-62335771D01*
X164928572Y-62335771D02*
X165023810Y-62288152D01*
X165023810Y-62288152D02*
X165119048Y-62288152D01*
X165595239Y-62954819D02*
X165500001Y-62907200D01*
X165500001Y-62907200D02*
X165452382Y-62859580D01*
X165452382Y-62859580D02*
X165404763Y-62764342D01*
X165404763Y-62764342D02*
X165404763Y-62478628D01*
X165404763Y-62478628D02*
X165452382Y-62383390D01*
X165452382Y-62383390D02*
X165500001Y-62335771D01*
X165500001Y-62335771D02*
X165595239Y-62288152D01*
X165595239Y-62288152D02*
X165738096Y-62288152D01*
X165738096Y-62288152D02*
X165833334Y-62335771D01*
X165833334Y-62335771D02*
X165880953Y-62383390D01*
X165880953Y-62383390D02*
X165928572Y-62478628D01*
X165928572Y-62478628D02*
X165928572Y-62764342D01*
X165928572Y-62764342D02*
X165880953Y-62859580D01*
X165880953Y-62859580D02*
X165833334Y-62907200D01*
X165833334Y-62907200D02*
X165738096Y-62954819D01*
X165738096Y-62954819D02*
X165595239Y-62954819D01*
X166357144Y-62288152D02*
X166357144Y-62954819D01*
X166357144Y-62383390D02*
X166404763Y-62335771D01*
X166404763Y-62335771D02*
X166500001Y-62288152D01*
X166500001Y-62288152D02*
X166642858Y-62288152D01*
X166642858Y-62288152D02*
X166738096Y-62335771D01*
X166738096Y-62335771D02*
X166785715Y-62431009D01*
X166785715Y-62431009D02*
X166785715Y-62954819D01*
X167119049Y-62288152D02*
X167500001Y-62288152D01*
X167261906Y-61954819D02*
X167261906Y-62811961D01*
X167261906Y-62811961D02*
X167309525Y-62907200D01*
X167309525Y-62907200D02*
X167404763Y-62954819D01*
X167404763Y-62954819D02*
X167500001Y-62954819D01*
X168357144Y-62954819D02*
X167785716Y-62954819D01*
X168071430Y-62954819D02*
X168071430Y-61954819D01*
X168071430Y-61954819D02*
X167976192Y-62097676D01*
X167976192Y-62097676D02*
X167880954Y-62192914D01*
X167880954Y-62192914D02*
X167785716Y-62240533D01*
X111494457Y-120474938D02*
X111446838Y-120570176D01*
X111446838Y-120570176D02*
X111351600Y-120665414D01*
X111351600Y-120665414D02*
X111208742Y-120808271D01*
X111208742Y-120808271D02*
X111161123Y-120903509D01*
X111161123Y-120903509D02*
X111161123Y-120998747D01*
X111399219Y-120951128D02*
X111351600Y-121046366D01*
X111351600Y-121046366D02*
X111256361Y-121141604D01*
X111256361Y-121141604D02*
X111065885Y-121189223D01*
X111065885Y-121189223D02*
X110732552Y-121189223D01*
X110732552Y-121189223D02*
X110542076Y-121141604D01*
X110542076Y-121141604D02*
X110446838Y-121046366D01*
X110446838Y-121046366D02*
X110399219Y-120951128D01*
X110399219Y-120951128D02*
X110399219Y-120760652D01*
X110399219Y-120760652D02*
X110446838Y-120665414D01*
X110446838Y-120665414D02*
X110542076Y-120570176D01*
X110542076Y-120570176D02*
X110732552Y-120522557D01*
X110732552Y-120522557D02*
X111065885Y-120522557D01*
X111065885Y-120522557D02*
X111256361Y-120570176D01*
X111256361Y-120570176D02*
X111351600Y-120665414D01*
X111351600Y-120665414D02*
X111399219Y-120760652D01*
X111399219Y-120760652D02*
X111399219Y-120951128D01*
X111399219Y-119570176D02*
X111399219Y-120141604D01*
X111399219Y-119855890D02*
X110399219Y-119855890D01*
X110399219Y-119855890D02*
X110542076Y-119951128D01*
X110542076Y-119951128D02*
X110637314Y-120046366D01*
X110637314Y-120046366D02*
X110684933Y-120141604D01*
X109074819Y-90321429D02*
X108598628Y-90654762D01*
X109074819Y-90892857D02*
X108074819Y-90892857D01*
X108074819Y-90892857D02*
X108074819Y-90511905D01*
X108074819Y-90511905D02*
X108122438Y-90416667D01*
X108122438Y-90416667D02*
X108170057Y-90369048D01*
X108170057Y-90369048D02*
X108265295Y-90321429D01*
X108265295Y-90321429D02*
X108408152Y-90321429D01*
X108408152Y-90321429D02*
X108503390Y-90369048D01*
X108503390Y-90369048D02*
X108551009Y-90416667D01*
X108551009Y-90416667D02*
X108598628Y-90511905D01*
X108598628Y-90511905D02*
X108598628Y-90892857D01*
X109027200Y-89511905D02*
X109074819Y-89607143D01*
X109074819Y-89607143D02*
X109074819Y-89797619D01*
X109074819Y-89797619D02*
X109027200Y-89892857D01*
X109027200Y-89892857D02*
X108931961Y-89940476D01*
X108931961Y-89940476D02*
X108551009Y-89940476D01*
X108551009Y-89940476D02*
X108455771Y-89892857D01*
X108455771Y-89892857D02*
X108408152Y-89797619D01*
X108408152Y-89797619D02*
X108408152Y-89607143D01*
X108408152Y-89607143D02*
X108455771Y-89511905D01*
X108455771Y-89511905D02*
X108551009Y-89464286D01*
X108551009Y-89464286D02*
X108646247Y-89464286D01*
X108646247Y-89464286D02*
X108741485Y-89940476D01*
X109074819Y-89035714D02*
X108074819Y-89035714D01*
X109074819Y-88607143D02*
X108551009Y-88607143D01*
X108551009Y-88607143D02*
X108455771Y-88654762D01*
X108455771Y-88654762D02*
X108408152Y-88750000D01*
X108408152Y-88750000D02*
X108408152Y-88892857D01*
X108408152Y-88892857D02*
X108455771Y-88988095D01*
X108455771Y-88988095D02*
X108503390Y-89035714D01*
X108408152Y-88226190D02*
X109074819Y-87988095D01*
X108408152Y-87750000D02*
X109074819Y-87988095D01*
X109074819Y-87988095D02*
X109312914Y-88083333D01*
X109312914Y-88083333D02*
X109360533Y-88130952D01*
X109360533Y-88130952D02*
X109408152Y-88226190D01*
X109074819Y-86940476D02*
X108074819Y-86940476D01*
X109027200Y-86940476D02*
X109074819Y-87035714D01*
X109074819Y-87035714D02*
X109074819Y-87226190D01*
X109074819Y-87226190D02*
X109027200Y-87321428D01*
X109027200Y-87321428D02*
X108979580Y-87369047D01*
X108979580Y-87369047D02*
X108884342Y-87416666D01*
X108884342Y-87416666D02*
X108598628Y-87416666D01*
X108598628Y-87416666D02*
X108503390Y-87369047D01*
X108503390Y-87369047D02*
X108455771Y-87321428D01*
X108455771Y-87321428D02*
X108408152Y-87226190D01*
X108408152Y-87226190D02*
X108408152Y-87035714D01*
X108408152Y-87035714D02*
X108455771Y-86940476D01*
X109074819Y-86464285D02*
X108408152Y-86464285D01*
X108598628Y-86464285D02*
X108503390Y-86416666D01*
X108503390Y-86416666D02*
X108455771Y-86369047D01*
X108455771Y-86369047D02*
X108408152Y-86273809D01*
X108408152Y-86273809D02*
X108408152Y-86178571D01*
X109074819Y-85416666D02*
X108551009Y-85416666D01*
X108551009Y-85416666D02*
X108455771Y-85464285D01*
X108455771Y-85464285D02*
X108408152Y-85559523D01*
X108408152Y-85559523D02*
X108408152Y-85749999D01*
X108408152Y-85749999D02*
X108455771Y-85845237D01*
X109027200Y-85416666D02*
X109074819Y-85511904D01*
X109074819Y-85511904D02*
X109074819Y-85749999D01*
X109074819Y-85749999D02*
X109027200Y-85845237D01*
X109027200Y-85845237D02*
X108931961Y-85892856D01*
X108931961Y-85892856D02*
X108836723Y-85892856D01*
X108836723Y-85892856D02*
X108741485Y-85845237D01*
X108741485Y-85845237D02*
X108693866Y-85749999D01*
X108693866Y-85749999D02*
X108693866Y-85511904D01*
X108693866Y-85511904D02*
X108646247Y-85416666D01*
X108408152Y-85083332D02*
X108408152Y-84702380D01*
X108074819Y-84940475D02*
X108931961Y-84940475D01*
X108931961Y-84940475D02*
X109027200Y-84892856D01*
X109027200Y-84892856D02*
X109074819Y-84797618D01*
X109074819Y-84797618D02*
X109074819Y-84702380D01*
X109074819Y-84369046D02*
X108408152Y-84369046D01*
X108074819Y-84369046D02*
X108122438Y-84416665D01*
X108122438Y-84416665D02*
X108170057Y-84369046D01*
X108170057Y-84369046D02*
X108122438Y-84321427D01*
X108122438Y-84321427D02*
X108074819Y-84369046D01*
X108074819Y-84369046D02*
X108170057Y-84369046D01*
X109074819Y-83749999D02*
X109027200Y-83845237D01*
X109027200Y-83845237D02*
X108979580Y-83892856D01*
X108979580Y-83892856D02*
X108884342Y-83940475D01*
X108884342Y-83940475D02*
X108598628Y-83940475D01*
X108598628Y-83940475D02*
X108503390Y-83892856D01*
X108503390Y-83892856D02*
X108455771Y-83845237D01*
X108455771Y-83845237D02*
X108408152Y-83749999D01*
X108408152Y-83749999D02*
X108408152Y-83607142D01*
X108408152Y-83607142D02*
X108455771Y-83511904D01*
X108455771Y-83511904D02*
X108503390Y-83464285D01*
X108503390Y-83464285D02*
X108598628Y-83416666D01*
X108598628Y-83416666D02*
X108884342Y-83416666D01*
X108884342Y-83416666D02*
X108979580Y-83464285D01*
X108979580Y-83464285D02*
X109027200Y-83511904D01*
X109027200Y-83511904D02*
X109074819Y-83607142D01*
X109074819Y-83607142D02*
X109074819Y-83749999D01*
X108408152Y-82988094D02*
X109074819Y-82988094D01*
X108503390Y-82988094D02*
X108455771Y-82940475D01*
X108455771Y-82940475D02*
X108408152Y-82845237D01*
X108408152Y-82845237D02*
X108408152Y-82702380D01*
X108408152Y-82702380D02*
X108455771Y-82607142D01*
X108455771Y-82607142D02*
X108551009Y-82559523D01*
X108551009Y-82559523D02*
X109074819Y-82559523D01*
X108170057Y-82130951D02*
X108122438Y-82083332D01*
X108122438Y-82083332D02*
X108074819Y-81988094D01*
X108074819Y-81988094D02*
X108074819Y-81749999D01*
X108074819Y-81749999D02*
X108122438Y-81654761D01*
X108122438Y-81654761D02*
X108170057Y-81607142D01*
X108170057Y-81607142D02*
X108265295Y-81559523D01*
X108265295Y-81559523D02*
X108360533Y-81559523D01*
X108360533Y-81559523D02*
X108503390Y-81607142D01*
X108503390Y-81607142D02*
X109074819Y-82178570D01*
X109074819Y-82178570D02*
X109074819Y-81559523D01*
X113368770Y-76168819D02*
X113035437Y-75692628D01*
X112797342Y-76168819D02*
X112797342Y-75168819D01*
X112797342Y-75168819D02*
X113178294Y-75168819D01*
X113178294Y-75168819D02*
X113273532Y-75216438D01*
X113273532Y-75216438D02*
X113321151Y-75264057D01*
X113321151Y-75264057D02*
X113368770Y-75359295D01*
X113368770Y-75359295D02*
X113368770Y-75502152D01*
X113368770Y-75502152D02*
X113321151Y-75597390D01*
X113321151Y-75597390D02*
X113273532Y-75645009D01*
X113273532Y-75645009D02*
X113178294Y-75692628D01*
X113178294Y-75692628D02*
X112797342Y-75692628D01*
X114178294Y-76121200D02*
X114083056Y-76168819D01*
X114083056Y-76168819D02*
X113892580Y-76168819D01*
X113892580Y-76168819D02*
X113797342Y-76121200D01*
X113797342Y-76121200D02*
X113749723Y-76025961D01*
X113749723Y-76025961D02*
X113749723Y-75645009D01*
X113749723Y-75645009D02*
X113797342Y-75549771D01*
X113797342Y-75549771D02*
X113892580Y-75502152D01*
X113892580Y-75502152D02*
X114083056Y-75502152D01*
X114083056Y-75502152D02*
X114178294Y-75549771D01*
X114178294Y-75549771D02*
X114225913Y-75645009D01*
X114225913Y-75645009D02*
X114225913Y-75740247D01*
X114225913Y-75740247D02*
X113749723Y-75835485D01*
X114654485Y-76168819D02*
X114654485Y-75168819D01*
X115083056Y-76168819D02*
X115083056Y-75645009D01*
X115083056Y-75645009D02*
X115035437Y-75549771D01*
X115035437Y-75549771D02*
X114940199Y-75502152D01*
X114940199Y-75502152D02*
X114797342Y-75502152D01*
X114797342Y-75502152D02*
X114702104Y-75549771D01*
X114702104Y-75549771D02*
X114654485Y-75597390D01*
X115464009Y-75502152D02*
X115702104Y-76168819D01*
X115940199Y-75502152D02*
X115702104Y-76168819D01*
X115702104Y-76168819D02*
X115606866Y-76406914D01*
X115606866Y-76406914D02*
X115559247Y-76454533D01*
X115559247Y-76454533D02*
X115464009Y-76502152D01*
X116749723Y-76168819D02*
X116749723Y-75168819D01*
X116749723Y-76121200D02*
X116654485Y-76168819D01*
X116654485Y-76168819D02*
X116464009Y-76168819D01*
X116464009Y-76168819D02*
X116368771Y-76121200D01*
X116368771Y-76121200D02*
X116321152Y-76073580D01*
X116321152Y-76073580D02*
X116273533Y-75978342D01*
X116273533Y-75978342D02*
X116273533Y-75692628D01*
X116273533Y-75692628D02*
X116321152Y-75597390D01*
X116321152Y-75597390D02*
X116368771Y-75549771D01*
X116368771Y-75549771D02*
X116464009Y-75502152D01*
X116464009Y-75502152D02*
X116654485Y-75502152D01*
X116654485Y-75502152D02*
X116749723Y-75549771D01*
X117225914Y-76168819D02*
X117225914Y-75502152D01*
X117225914Y-75692628D02*
X117273533Y-75597390D01*
X117273533Y-75597390D02*
X117321152Y-75549771D01*
X117321152Y-75549771D02*
X117416390Y-75502152D01*
X117416390Y-75502152D02*
X117511628Y-75502152D01*
X118273533Y-76168819D02*
X118273533Y-75645009D01*
X118273533Y-75645009D02*
X118225914Y-75549771D01*
X118225914Y-75549771D02*
X118130676Y-75502152D01*
X118130676Y-75502152D02*
X117940200Y-75502152D01*
X117940200Y-75502152D02*
X117844962Y-75549771D01*
X118273533Y-76121200D02*
X118178295Y-76168819D01*
X118178295Y-76168819D02*
X117940200Y-76168819D01*
X117940200Y-76168819D02*
X117844962Y-76121200D01*
X117844962Y-76121200D02*
X117797343Y-76025961D01*
X117797343Y-76025961D02*
X117797343Y-75930723D01*
X117797343Y-75930723D02*
X117844962Y-75835485D01*
X117844962Y-75835485D02*
X117940200Y-75787866D01*
X117940200Y-75787866D02*
X118178295Y-75787866D01*
X118178295Y-75787866D02*
X118273533Y-75740247D01*
X118606867Y-75502152D02*
X118987819Y-75502152D01*
X118749724Y-75168819D02*
X118749724Y-76025961D01*
X118749724Y-76025961D02*
X118797343Y-76121200D01*
X118797343Y-76121200D02*
X118892581Y-76168819D01*
X118892581Y-76168819D02*
X118987819Y-76168819D01*
X119321153Y-76168819D02*
X119321153Y-75502152D01*
X119321153Y-75168819D02*
X119273534Y-75216438D01*
X119273534Y-75216438D02*
X119321153Y-75264057D01*
X119321153Y-75264057D02*
X119368772Y-75216438D01*
X119368772Y-75216438D02*
X119321153Y-75168819D01*
X119321153Y-75168819D02*
X119321153Y-75264057D01*
X119940200Y-76168819D02*
X119844962Y-76121200D01*
X119844962Y-76121200D02*
X119797343Y-76073580D01*
X119797343Y-76073580D02*
X119749724Y-75978342D01*
X119749724Y-75978342D02*
X119749724Y-75692628D01*
X119749724Y-75692628D02*
X119797343Y-75597390D01*
X119797343Y-75597390D02*
X119844962Y-75549771D01*
X119844962Y-75549771D02*
X119940200Y-75502152D01*
X119940200Y-75502152D02*
X120083057Y-75502152D01*
X120083057Y-75502152D02*
X120178295Y-75549771D01*
X120178295Y-75549771D02*
X120225914Y-75597390D01*
X120225914Y-75597390D02*
X120273533Y-75692628D01*
X120273533Y-75692628D02*
X120273533Y-75978342D01*
X120273533Y-75978342D02*
X120225914Y-76073580D01*
X120225914Y-76073580D02*
X120178295Y-76121200D01*
X120178295Y-76121200D02*
X120083057Y-76168819D01*
X120083057Y-76168819D02*
X119940200Y-76168819D01*
X120702105Y-75502152D02*
X120702105Y-76168819D01*
X120702105Y-75597390D02*
X120749724Y-75549771D01*
X120749724Y-75549771D02*
X120844962Y-75502152D01*
X120844962Y-75502152D02*
X120987819Y-75502152D01*
X120987819Y-75502152D02*
X121083057Y-75549771D01*
X121083057Y-75549771D02*
X121130676Y-75645009D01*
X121130676Y-75645009D02*
X121130676Y-76168819D01*
X122130676Y-76168819D02*
X121559248Y-76168819D01*
X121844962Y-76168819D02*
X121844962Y-75168819D01*
X121844962Y-75168819D02*
X121749724Y-75311676D01*
X121749724Y-75311676D02*
X121654486Y-75406914D01*
X121654486Y-75406914D02*
X121559248Y-75454533D01*
X111400157Y-113790638D02*
X111352538Y-113885876D01*
X111352538Y-113885876D02*
X111257300Y-113981114D01*
X111257300Y-113981114D02*
X111114442Y-114123971D01*
X111114442Y-114123971D02*
X111066823Y-114219209D01*
X111066823Y-114219209D02*
X111066823Y-114314447D01*
X111304919Y-114266828D02*
X111257300Y-114362066D01*
X111257300Y-114362066D02*
X111162061Y-114457304D01*
X111162061Y-114457304D02*
X110971585Y-114504923D01*
X110971585Y-114504923D02*
X110638252Y-114504923D01*
X110638252Y-114504923D02*
X110447776Y-114457304D01*
X110447776Y-114457304D02*
X110352538Y-114362066D01*
X110352538Y-114362066D02*
X110304919Y-114266828D01*
X110304919Y-114266828D02*
X110304919Y-114076352D01*
X110304919Y-114076352D02*
X110352538Y-113981114D01*
X110352538Y-113981114D02*
X110447776Y-113885876D01*
X110447776Y-113885876D02*
X110638252Y-113838257D01*
X110638252Y-113838257D02*
X110971585Y-113838257D01*
X110971585Y-113838257D02*
X111162061Y-113885876D01*
X111162061Y-113885876D02*
X111257300Y-113981114D01*
X111257300Y-113981114D02*
X111304919Y-114076352D01*
X111304919Y-114076352D02*
X111304919Y-114266828D01*
X110400157Y-113457304D02*
X110352538Y-113409685D01*
X110352538Y-113409685D02*
X110304919Y-113314447D01*
X110304919Y-113314447D02*
X110304919Y-113076352D01*
X110304919Y-113076352D02*
X110352538Y-112981114D01*
X110352538Y-112981114D02*
X110400157Y-112933495D01*
X110400157Y-112933495D02*
X110495395Y-112885876D01*
X110495395Y-112885876D02*
X110590633Y-112885876D01*
X110590633Y-112885876D02*
X110733490Y-112933495D01*
X110733490Y-112933495D02*
X111304919Y-113504923D01*
X111304919Y-113504923D02*
X111304919Y-112885876D01*
X161954819Y-78190477D02*
X161478628Y-78523810D01*
X161954819Y-78761905D02*
X160954819Y-78761905D01*
X160954819Y-78761905D02*
X160954819Y-78380953D01*
X160954819Y-78380953D02*
X161002438Y-78285715D01*
X161002438Y-78285715D02*
X161050057Y-78238096D01*
X161050057Y-78238096D02*
X161145295Y-78190477D01*
X161145295Y-78190477D02*
X161288152Y-78190477D01*
X161288152Y-78190477D02*
X161383390Y-78238096D01*
X161383390Y-78238096D02*
X161431009Y-78285715D01*
X161431009Y-78285715D02*
X161478628Y-78380953D01*
X161478628Y-78380953D02*
X161478628Y-78761905D01*
X161907200Y-77380953D02*
X161954819Y-77476191D01*
X161954819Y-77476191D02*
X161954819Y-77666667D01*
X161954819Y-77666667D02*
X161907200Y-77761905D01*
X161907200Y-77761905D02*
X161811961Y-77809524D01*
X161811961Y-77809524D02*
X161431009Y-77809524D01*
X161431009Y-77809524D02*
X161335771Y-77761905D01*
X161335771Y-77761905D02*
X161288152Y-77666667D01*
X161288152Y-77666667D02*
X161288152Y-77476191D01*
X161288152Y-77476191D02*
X161335771Y-77380953D01*
X161335771Y-77380953D02*
X161431009Y-77333334D01*
X161431009Y-77333334D02*
X161526247Y-77333334D01*
X161526247Y-77333334D02*
X161621485Y-77809524D01*
X161954819Y-76904762D02*
X160954819Y-76904762D01*
X161954819Y-76476191D02*
X161431009Y-76476191D01*
X161431009Y-76476191D02*
X161335771Y-76523810D01*
X161335771Y-76523810D02*
X161288152Y-76619048D01*
X161288152Y-76619048D02*
X161288152Y-76761905D01*
X161288152Y-76761905D02*
X161335771Y-76857143D01*
X161335771Y-76857143D02*
X161383390Y-76904762D01*
X161288152Y-76095238D02*
X161954819Y-75857143D01*
X161288152Y-75619048D02*
X161954819Y-75857143D01*
X161954819Y-75857143D02*
X162192914Y-75952381D01*
X162192914Y-75952381D02*
X162240533Y-76000000D01*
X162240533Y-76000000D02*
X162288152Y-76095238D01*
X161954819Y-74809524D02*
X160954819Y-74809524D01*
X161907200Y-74809524D02*
X161954819Y-74904762D01*
X161954819Y-74904762D02*
X161954819Y-75095238D01*
X161954819Y-75095238D02*
X161907200Y-75190476D01*
X161907200Y-75190476D02*
X161859580Y-75238095D01*
X161859580Y-75238095D02*
X161764342Y-75285714D01*
X161764342Y-75285714D02*
X161478628Y-75285714D01*
X161478628Y-75285714D02*
X161383390Y-75238095D01*
X161383390Y-75238095D02*
X161335771Y-75190476D01*
X161335771Y-75190476D02*
X161288152Y-75095238D01*
X161288152Y-75095238D02*
X161288152Y-74904762D01*
X161288152Y-74904762D02*
X161335771Y-74809524D01*
X161954819Y-74333333D02*
X161288152Y-74333333D01*
X161478628Y-74333333D02*
X161383390Y-74285714D01*
X161383390Y-74285714D02*
X161335771Y-74238095D01*
X161335771Y-74238095D02*
X161288152Y-74142857D01*
X161288152Y-74142857D02*
X161288152Y-74047619D01*
X161954819Y-73285714D02*
X161431009Y-73285714D01*
X161431009Y-73285714D02*
X161335771Y-73333333D01*
X161335771Y-73333333D02*
X161288152Y-73428571D01*
X161288152Y-73428571D02*
X161288152Y-73619047D01*
X161288152Y-73619047D02*
X161335771Y-73714285D01*
X161907200Y-73285714D02*
X161954819Y-73380952D01*
X161954819Y-73380952D02*
X161954819Y-73619047D01*
X161954819Y-73619047D02*
X161907200Y-73714285D01*
X161907200Y-73714285D02*
X161811961Y-73761904D01*
X161811961Y-73761904D02*
X161716723Y-73761904D01*
X161716723Y-73761904D02*
X161621485Y-73714285D01*
X161621485Y-73714285D02*
X161573866Y-73619047D01*
X161573866Y-73619047D02*
X161573866Y-73380952D01*
X161573866Y-73380952D02*
X161526247Y-73285714D01*
X161288152Y-72952380D02*
X161288152Y-72571428D01*
X160954819Y-72809523D02*
X161811961Y-72809523D01*
X161811961Y-72809523D02*
X161907200Y-72761904D01*
X161907200Y-72761904D02*
X161954819Y-72666666D01*
X161954819Y-72666666D02*
X161954819Y-72571428D01*
X161954819Y-72238094D02*
X161288152Y-72238094D01*
X160954819Y-72238094D02*
X161002438Y-72285713D01*
X161002438Y-72285713D02*
X161050057Y-72238094D01*
X161050057Y-72238094D02*
X161002438Y-72190475D01*
X161002438Y-72190475D02*
X160954819Y-72238094D01*
X160954819Y-72238094D02*
X161050057Y-72238094D01*
X161954819Y-71619047D02*
X161907200Y-71714285D01*
X161907200Y-71714285D02*
X161859580Y-71761904D01*
X161859580Y-71761904D02*
X161764342Y-71809523D01*
X161764342Y-71809523D02*
X161478628Y-71809523D01*
X161478628Y-71809523D02*
X161383390Y-71761904D01*
X161383390Y-71761904D02*
X161335771Y-71714285D01*
X161335771Y-71714285D02*
X161288152Y-71619047D01*
X161288152Y-71619047D02*
X161288152Y-71476190D01*
X161288152Y-71476190D02*
X161335771Y-71380952D01*
X161335771Y-71380952D02*
X161383390Y-71333333D01*
X161383390Y-71333333D02*
X161478628Y-71285714D01*
X161478628Y-71285714D02*
X161764342Y-71285714D01*
X161764342Y-71285714D02*
X161859580Y-71333333D01*
X161859580Y-71333333D02*
X161907200Y-71380952D01*
X161907200Y-71380952D02*
X161954819Y-71476190D01*
X161954819Y-71476190D02*
X161954819Y-71619047D01*
X161288152Y-70857142D02*
X161954819Y-70857142D01*
X161383390Y-70857142D02*
X161335771Y-70809523D01*
X161335771Y-70809523D02*
X161288152Y-70714285D01*
X161288152Y-70714285D02*
X161288152Y-70571428D01*
X161288152Y-70571428D02*
X161335771Y-70476190D01*
X161335771Y-70476190D02*
X161431009Y-70428571D01*
X161431009Y-70428571D02*
X161954819Y-70428571D01*
X162050057Y-70190476D02*
X162050057Y-69428571D01*
X161954819Y-69190475D02*
X160954819Y-69190475D01*
X161335771Y-69190475D02*
X161288152Y-69095237D01*
X161288152Y-69095237D02*
X161288152Y-68904761D01*
X161288152Y-68904761D02*
X161335771Y-68809523D01*
X161335771Y-68809523D02*
X161383390Y-68761904D01*
X161383390Y-68761904D02*
X161478628Y-68714285D01*
X161478628Y-68714285D02*
X161764342Y-68714285D01*
X161764342Y-68714285D02*
X161859580Y-68761904D01*
X161859580Y-68761904D02*
X161907200Y-68809523D01*
X161907200Y-68809523D02*
X161954819Y-68904761D01*
X161954819Y-68904761D02*
X161954819Y-69095237D01*
X161954819Y-69095237D02*
X161907200Y-69190475D01*
X161954819Y-67857142D02*
X161431009Y-67857142D01*
X161431009Y-67857142D02*
X161335771Y-67904761D01*
X161335771Y-67904761D02*
X161288152Y-67999999D01*
X161288152Y-67999999D02*
X161288152Y-68190475D01*
X161288152Y-68190475D02*
X161335771Y-68285713D01*
X161907200Y-67857142D02*
X161954819Y-67952380D01*
X161954819Y-67952380D02*
X161954819Y-68190475D01*
X161954819Y-68190475D02*
X161907200Y-68285713D01*
X161907200Y-68285713D02*
X161811961Y-68333332D01*
X161811961Y-68333332D02*
X161716723Y-68333332D01*
X161716723Y-68333332D02*
X161621485Y-68285713D01*
X161621485Y-68285713D02*
X161573866Y-68190475D01*
X161573866Y-68190475D02*
X161573866Y-67952380D01*
X161573866Y-67952380D02*
X161526247Y-67857142D01*
X161907200Y-66952380D02*
X161954819Y-67047618D01*
X161954819Y-67047618D02*
X161954819Y-67238094D01*
X161954819Y-67238094D02*
X161907200Y-67333332D01*
X161907200Y-67333332D02*
X161859580Y-67380951D01*
X161859580Y-67380951D02*
X161764342Y-67428570D01*
X161764342Y-67428570D02*
X161478628Y-67428570D01*
X161478628Y-67428570D02*
X161383390Y-67380951D01*
X161383390Y-67380951D02*
X161335771Y-67333332D01*
X161335771Y-67333332D02*
X161288152Y-67238094D01*
X161288152Y-67238094D02*
X161288152Y-67047618D01*
X161288152Y-67047618D02*
X161335771Y-66952380D01*
X161954819Y-66523808D02*
X160954819Y-66523808D01*
X161573866Y-66428570D02*
X161954819Y-66142856D01*
X161288152Y-66142856D02*
X161669104Y-66523808D01*
X161954819Y-65190475D02*
X161954819Y-65761903D01*
X161954819Y-65476189D02*
X160954819Y-65476189D01*
X160954819Y-65476189D02*
X161097676Y-65571427D01*
X161097676Y-65571427D02*
X161192914Y-65666665D01*
X161192914Y-65666665D02*
X161240533Y-65761903D01*
X109954819Y-120384137D02*
X108954819Y-120384137D01*
X108954819Y-120384137D02*
X109669104Y-120050804D01*
X109669104Y-120050804D02*
X108954819Y-119717471D01*
X108954819Y-119717471D02*
X109954819Y-119717471D01*
X109954819Y-119241280D02*
X109288152Y-119241280D01*
X108954819Y-119241280D02*
X109002438Y-119288899D01*
X109002438Y-119288899D02*
X109050057Y-119241280D01*
X109050057Y-119241280D02*
X109002438Y-119193661D01*
X109002438Y-119193661D02*
X108954819Y-119241280D01*
X108954819Y-119241280D02*
X109050057Y-119241280D01*
X109954819Y-118860328D02*
X109288152Y-118336519D01*
X109288152Y-118860328D02*
X109954819Y-118336519D01*
X109954819Y-117955566D02*
X109288152Y-117955566D01*
X108954819Y-117955566D02*
X109002438Y-118003185D01*
X109002438Y-118003185D02*
X109050057Y-117955566D01*
X109050057Y-117955566D02*
X109002438Y-117907947D01*
X109002438Y-117907947D02*
X108954819Y-117955566D01*
X108954819Y-117955566D02*
X109050057Y-117955566D01*
X109288152Y-117479376D02*
X109954819Y-117479376D01*
X109383390Y-117479376D02*
X109335771Y-117431757D01*
X109335771Y-117431757D02*
X109288152Y-117336519D01*
X109288152Y-117336519D02*
X109288152Y-117193662D01*
X109288152Y-117193662D02*
X109335771Y-117098424D01*
X109335771Y-117098424D02*
X109431009Y-117050805D01*
X109431009Y-117050805D02*
X109954819Y-117050805D01*
X109288152Y-116146043D02*
X110097676Y-116146043D01*
X110097676Y-116146043D02*
X110192914Y-116193662D01*
X110192914Y-116193662D02*
X110240533Y-116241281D01*
X110240533Y-116241281D02*
X110288152Y-116336519D01*
X110288152Y-116336519D02*
X110288152Y-116479376D01*
X110288152Y-116479376D02*
X110240533Y-116574614D01*
X109907200Y-116146043D02*
X109954819Y-116241281D01*
X109954819Y-116241281D02*
X109954819Y-116431757D01*
X109954819Y-116431757D02*
X109907200Y-116526995D01*
X109907200Y-116526995D02*
X109859580Y-116574614D01*
X109859580Y-116574614D02*
X109764342Y-116622233D01*
X109764342Y-116622233D02*
X109478628Y-116622233D01*
X109478628Y-116622233D02*
X109383390Y-116574614D01*
X109383390Y-116574614D02*
X109335771Y-116526995D01*
X109335771Y-116526995D02*
X109288152Y-116431757D01*
X109288152Y-116431757D02*
X109288152Y-116241281D01*
X109288152Y-116241281D02*
X109335771Y-116146043D01*
X109954819Y-115146043D02*
X109954819Y-115717471D01*
X109954819Y-115431757D02*
X108954819Y-115431757D01*
X108954819Y-115431757D02*
X109097676Y-115526995D01*
X109097676Y-115526995D02*
X109192914Y-115622233D01*
X109192914Y-115622233D02*
X109240533Y-115717471D01*
D12*
%TO.C,PTCFuse1*%
X114022936Y-128410000D02*
X115477064Y-128410000D01*
X114022936Y-126590000D02*
X115477064Y-126590000D01*
%TO.C,vd_c2*%
X117298248Y-67038000D02*
X117820752Y-67038000D01*
X117298248Y-68508000D02*
X117820752Y-68508000D01*
%TO.C,Regulator1*%
X136687500Y-132557500D02*
X143107500Y-132557500D01*
X136687500Y-139457500D02*
X143107500Y-139457500D01*
X143107500Y-132557500D02*
X143107500Y-132827500D01*
X143107500Y-139457500D02*
X143107500Y-139187500D01*
X145177500Y-139617500D02*
X144497500Y-139617500D01*
X144837500Y-139147500D01*
X145177500Y-139617500D01*
G36*
X145177500Y-139617500D02*
G01*
X144497500Y-139617500D01*
X144837500Y-139147500D01*
X145177500Y-139617500D01*
G37*
%TO.C,D1*%
X122472500Y-127500000D02*
X123492500Y-127500000D01*
X123492500Y-126030000D02*
X123492500Y-128970000D01*
X123492500Y-128970000D02*
X128932500Y-128970000D01*
X124272500Y-126030000D02*
X124272500Y-128970000D01*
X124392500Y-126030000D02*
X124392500Y-128970000D01*
X124512500Y-126030000D02*
X124512500Y-128970000D01*
X128932500Y-126030000D02*
X123492500Y-126030000D01*
X128932500Y-128970000D02*
X128932500Y-126030000D01*
X129952500Y-127500000D02*
X128932500Y-127500000D01*
%TO.C,mix1*%
X120635200Y-121079264D02*
X120635200Y-120625136D01*
X122105200Y-121079264D02*
X122105200Y-120625136D01*
%TO.C,Q3*%
X116100000Y-108345300D02*
X116100000Y-104745300D01*
X111650000Y-106545300D02*
G75*
G02*
X116088478Y-104706822I2600000J0D01*
G01*
X116088478Y-108383778D02*
G75*
G02*
X111649999Y-106545300I-1838478J1838478D01*
G01*
%TO.C,Moving2*%
X160911500Y-107446700D02*
X168951500Y-107446700D01*
X160911500Y-128186700D02*
X160911500Y-107446700D01*
X160911500Y-128186700D02*
X168951500Y-128186700D01*
X164531500Y-108254700D02*
X164531500Y-107446700D01*
X164531500Y-113254700D02*
X164531500Y-111878700D01*
X164531500Y-118254700D02*
X164531500Y-116878700D01*
X164531500Y-123186700D02*
X164531500Y-121878700D01*
X164531500Y-128186700D02*
X164531500Y-126946700D01*
X165531500Y-108254700D02*
X165531500Y-107446700D01*
X165531500Y-113254700D02*
X165531500Y-111878700D01*
X165531500Y-118254700D02*
X165531500Y-116878700D01*
X165531500Y-123186700D02*
X165531500Y-121878700D01*
X165531500Y-128186700D02*
X165531500Y-126946700D01*
X166831500Y-109523700D02*
X166831500Y-107446700D01*
X166831500Y-114523700D02*
X166831500Y-110609700D01*
X166831500Y-119523700D02*
X166831500Y-115609700D01*
X166831500Y-123186700D02*
X166831500Y-120609700D01*
X166831500Y-128186700D02*
X166831500Y-126946700D01*
X168951500Y-124766700D02*
X168951500Y-107446700D01*
X168951500Y-128186700D02*
X168951500Y-125366700D01*
X169561500Y-125506700D02*
X168951500Y-125066700D01*
X169561500Y-124626700D01*
X169561500Y-125506700D01*
G36*
X169561500Y-125506700D02*
G01*
X168951500Y-125066700D01*
X169561500Y-124626700D01*
X169561500Y-125506700D01*
G37*
%TO.C,motor_c1*%
X140479548Y-126819200D02*
X141002052Y-126819200D01*
X140479548Y-128289200D02*
X141002052Y-128289200D01*
%TO.C,vd_c1*%
X124196348Y-71955100D02*
X124718852Y-71955100D01*
X124196348Y-73425100D02*
X124718852Y-73425100D01*
%TO.C,MovingBumper_back1*%
X116880000Y-53380000D02*
X116880000Y-61420000D01*
X116880000Y-53380000D02*
X132620000Y-53380000D01*
X116880000Y-57000000D02*
X118120000Y-57000000D01*
X116880000Y-58000000D02*
X118120000Y-58000000D01*
X116880000Y-59300000D02*
X118120000Y-59300000D01*
X116880000Y-61420000D02*
X119700000Y-61420000D01*
X120300000Y-61420000D02*
X132620000Y-61420000D01*
X121880000Y-57000000D02*
X123188000Y-57000000D01*
X121880000Y-58000000D02*
X123188000Y-58000000D01*
X121880000Y-59300000D02*
X124457000Y-59300000D01*
X125543000Y-59300000D02*
X129457000Y-59300000D01*
X126812000Y-57000000D02*
X128188000Y-57000000D01*
X126812000Y-58000000D02*
X128188000Y-58000000D01*
X130543000Y-59300000D02*
X132620000Y-59300000D01*
X131812000Y-57000000D02*
X132620000Y-57000000D01*
X131812000Y-58000000D02*
X132620000Y-58000000D01*
X132620000Y-53380000D02*
X132620000Y-61420000D01*
X120440000Y-62030000D02*
X119560000Y-62030000D01*
X120000000Y-61420000D01*
X120440000Y-62030000D01*
G36*
X120440000Y-62030000D02*
G01*
X119560000Y-62030000D01*
X120000000Y-61420000D01*
X120440000Y-62030000D01*
G37*
%TO.C,MovingBumper_front1*%
X150620000Y-53380000D02*
X150620000Y-61420000D01*
X149812000Y-58000000D02*
X150620000Y-58000000D01*
X149812000Y-57000000D02*
X150620000Y-57000000D01*
X148543000Y-59300000D02*
X150620000Y-59300000D01*
X144812000Y-58000000D02*
X146188000Y-58000000D01*
X144812000Y-57000000D02*
X146188000Y-57000000D01*
X143543000Y-59300000D02*
X147457000Y-59300000D01*
X139880000Y-59300000D02*
X142457000Y-59300000D01*
X139880000Y-58000000D02*
X141188000Y-58000000D01*
X139880000Y-57000000D02*
X141188000Y-57000000D01*
X138300000Y-61420000D02*
X150620000Y-61420000D01*
X134880000Y-61420000D02*
X137700000Y-61420000D01*
X134880000Y-59300000D02*
X136120000Y-59300000D01*
X134880000Y-58000000D02*
X136120000Y-58000000D01*
X134880000Y-57000000D02*
X136120000Y-57000000D01*
X134880000Y-53380000D02*
X150620000Y-53380000D01*
X134880000Y-53380000D02*
X134880000Y-61420000D01*
X138440000Y-62030000D02*
X137560000Y-62030000D01*
X138000000Y-61420000D01*
X138440000Y-62030000D01*
G36*
X138440000Y-62030000D02*
G01*
X137560000Y-62030000D01*
X138000000Y-61420000D01*
X138440000Y-62030000D01*
G37*
%TO.C,Debug_ports1*%
X148535000Y-138120000D02*
X148535000Y-130080000D01*
X149343000Y-133500000D02*
X148535000Y-133500000D01*
X149343000Y-134500000D02*
X148535000Y-134500000D01*
X150612000Y-132200000D02*
X148535000Y-132200000D01*
X154343000Y-133500000D02*
X152967000Y-133500000D01*
X154343000Y-134500000D02*
X152967000Y-134500000D01*
X155612000Y-132200000D02*
X151698000Y-132200000D01*
X159343000Y-133500000D02*
X157967000Y-133500000D01*
X159343000Y-134500000D02*
X157967000Y-134500000D01*
X160612000Y-132200000D02*
X156698000Y-132200000D01*
X164275000Y-132200000D02*
X161698000Y-132200000D01*
X164275000Y-133500000D02*
X162967000Y-133500000D01*
X164275000Y-134500000D02*
X162967000Y-134500000D01*
X165855000Y-130080000D02*
X148535000Y-130080000D01*
X169275000Y-130080000D02*
X166455000Y-130080000D01*
X169275000Y-132200000D02*
X168035000Y-132200000D01*
X169275000Y-133500000D02*
X168035000Y-133500000D01*
X169275000Y-134500000D02*
X168035000Y-134500000D01*
X169275000Y-138120000D02*
X148535000Y-138120000D01*
X169275000Y-138120000D02*
X169275000Y-130080000D01*
X166155000Y-130080000D02*
X165715000Y-129470000D01*
X166595000Y-129470000D01*
X166155000Y-130080000D01*
G36*
X166155000Y-130080000D02*
G01*
X165715000Y-129470000D01*
X166595000Y-129470000D01*
X166155000Y-130080000D01*
G37*
%TO.C,reg_co1*%
X128901248Y-132765000D02*
X129423752Y-132765000D01*
X128901248Y-134235000D02*
X129423752Y-134235000D01*
%TO.C,mix2*%
X120815100Y-114334964D02*
X120815100Y-113880836D01*
X122285100Y-114334964D02*
X122285100Y-113880836D01*
%TO.C,Thermistor1*%
X105330000Y-52912500D02*
X105330000Y-55732500D01*
X105330000Y-56332500D02*
X105330000Y-73652500D01*
X107450000Y-52912500D02*
X107450000Y-54152500D01*
X107450000Y-57912500D02*
X107450000Y-60489500D01*
X107450000Y-61575500D02*
X107450000Y-65489500D01*
X107450000Y-66575500D02*
X107450000Y-70489500D01*
X107450000Y-71575500D02*
X107450000Y-73652500D01*
X108750000Y-52912500D02*
X108750000Y-54152500D01*
X108750000Y-57912500D02*
X108750000Y-59220500D01*
X108750000Y-62844500D02*
X108750000Y-64220500D01*
X108750000Y-67844500D02*
X108750000Y-69220500D01*
X108750000Y-72844500D02*
X108750000Y-73652500D01*
X109750000Y-52912500D02*
X109750000Y-54152500D01*
X109750000Y-57912500D02*
X109750000Y-59220500D01*
X109750000Y-62844500D02*
X109750000Y-64220500D01*
X109750000Y-67844500D02*
X109750000Y-69220500D01*
X109750000Y-72844500D02*
X109750000Y-73652500D01*
X113370000Y-52912500D02*
X105330000Y-52912500D01*
X113370000Y-52912500D02*
X113370000Y-73652500D01*
X113370000Y-73652500D02*
X105330000Y-73652500D01*
X105330000Y-56032500D02*
X104720000Y-56472500D01*
X104720000Y-55592500D01*
X105330000Y-56032500D01*
G36*
X105330000Y-56032500D02*
G01*
X104720000Y-56472500D01*
X104720000Y-55592500D01*
X105330000Y-56032500D01*
G37*
%TO.C,ESP32-S3*%
X128590000Y-66292500D02*
X128590000Y-125172500D01*
X128590000Y-66292500D02*
X153990000Y-66292500D01*
X128590000Y-125172500D02*
X153990000Y-125172500D01*
X153990000Y-66292500D02*
X153990000Y-125172500D01*
%TO.C,reg_ci1*%
X128951248Y-137265000D02*
X129473752Y-137265000D01*
X128951248Y-138735000D02*
X129473752Y-138735000D01*
%TO.C,Moving1*%
X157882000Y-82926300D02*
X157882000Y-103506300D01*
X157882000Y-103506300D02*
X170712000Y-103506300D01*
X160552000Y-103506300D02*
X160552000Y-82926300D01*
X170712000Y-100836300D02*
X170712000Y-82926300D01*
X170712000Y-100836300D02*
X173382000Y-100836300D01*
X170712000Y-103506300D02*
X170712000Y-100836300D01*
X171982000Y-103506300D02*
X173382000Y-103506300D01*
X173382000Y-82926300D02*
X157882000Y-82926300D01*
X173382000Y-100836300D02*
X173382000Y-82926300D01*
X173382000Y-103506300D02*
X173382000Y-102106300D01*
%TO.C,J1*%
X111380000Y-131380000D02*
X111380000Y-139420000D01*
X111380000Y-131380000D02*
X122120000Y-131380000D01*
X111380000Y-135000000D02*
X112620000Y-135000000D01*
X111380000Y-136000000D02*
X112620000Y-136000000D01*
X111380000Y-137300000D02*
X112620000Y-137300000D01*
X111380000Y-139420000D02*
X114200000Y-139420000D01*
X114800000Y-139420000D02*
X122120000Y-139420000D01*
X116380000Y-135000000D02*
X117688000Y-135000000D01*
X116380000Y-136000000D02*
X117688000Y-136000000D01*
X116380000Y-137300000D02*
X118957000Y-137300000D01*
X120043000Y-137300000D02*
X122120000Y-137300000D01*
X121312000Y-135000000D02*
X122120000Y-135000000D01*
X121312000Y-136000000D02*
X122120000Y-136000000D01*
X122120000Y-131380000D02*
X122120000Y-139420000D01*
X114940000Y-140030000D02*
X114060000Y-140030000D01*
X114500000Y-139420000D01*
X114940000Y-140030000D01*
G36*
X114940000Y-140030000D02*
G01*
X114060000Y-140030000D01*
X114500000Y-139420000D01*
X114940000Y-140030000D01*
G37*
%TO.C,vd_r1*%
X123110436Y-66797500D02*
X123564564Y-66797500D01*
X123110436Y-68267500D02*
X123564564Y-68267500D01*
%TO.C,mix3*%
X120315100Y-107834964D02*
X120315100Y-107380836D01*
X121785100Y-107834964D02*
X121785100Y-107380836D01*
%TO.C,Rehydration_front1*%
X168620000Y-53380000D02*
X168620000Y-61420000D01*
X167812000Y-58000000D02*
X168620000Y-58000000D01*
X167812000Y-57000000D02*
X168620000Y-57000000D01*
X166543000Y-59300000D02*
X168620000Y-59300000D01*
X162812000Y-58000000D02*
X164188000Y-58000000D01*
X162812000Y-57000000D02*
X164188000Y-57000000D01*
X161543000Y-59300000D02*
X165457000Y-59300000D01*
X157880000Y-59300000D02*
X160457000Y-59300000D01*
X157880000Y-58000000D02*
X159188000Y-58000000D01*
X157880000Y-57000000D02*
X159188000Y-57000000D01*
X156300000Y-61420000D02*
X168620000Y-61420000D01*
X152880000Y-61420000D02*
X155700000Y-61420000D01*
X152880000Y-59300000D02*
X154120000Y-59300000D01*
X152880000Y-58000000D02*
X154120000Y-58000000D01*
X152880000Y-57000000D02*
X154120000Y-57000000D01*
X152880000Y-53380000D02*
X168620000Y-53380000D01*
X152880000Y-53380000D02*
X152880000Y-61420000D01*
X156440000Y-62030000D02*
X155560000Y-62030000D01*
X156000000Y-61420000D01*
X156440000Y-62030000D01*
G36*
X156440000Y-62030000D02*
G01*
X155560000Y-62030000D01*
X156000000Y-61420000D01*
X156440000Y-62030000D01*
G37*
%TO.C,Q1*%
X116354400Y-122179700D02*
X116354400Y-118579700D01*
X111904400Y-120379700D02*
G75*
G02*
X116342878Y-118541222I2600000J0D01*
G01*
X116342878Y-122218178D02*
G75*
G02*
X111904399Y-120379700I-1838478J1838478D01*
G01*
%TO.C,Rehydration2*%
X99580000Y-75880000D02*
X99580000Y-78700000D01*
X99580000Y-79300000D02*
X99580000Y-96620000D01*
X101700000Y-75880000D02*
X101700000Y-77120000D01*
X101700000Y-80880000D02*
X101700000Y-83457000D01*
X101700000Y-84543000D02*
X101700000Y-88457000D01*
X101700000Y-89543000D02*
X101700000Y-93457000D01*
X101700000Y-94543000D02*
X101700000Y-96620000D01*
X103000000Y-75880000D02*
X103000000Y-77120000D01*
X103000000Y-80880000D02*
X103000000Y-82188000D01*
X103000000Y-85812000D02*
X103000000Y-87188000D01*
X103000000Y-90812000D02*
X103000000Y-92188000D01*
X103000000Y-95812000D02*
X103000000Y-96620000D01*
X104000000Y-75880000D02*
X104000000Y-77120000D01*
X104000000Y-80880000D02*
X104000000Y-82188000D01*
X104000000Y-85812000D02*
X104000000Y-87188000D01*
X104000000Y-90812000D02*
X104000000Y-92188000D01*
X104000000Y-95812000D02*
X104000000Y-96620000D01*
X107620000Y-75880000D02*
X99580000Y-75880000D01*
X107620000Y-75880000D02*
X107620000Y-96620000D01*
X107620000Y-96620000D02*
X99580000Y-96620000D01*
X99580000Y-79000000D02*
X98970000Y-79440000D01*
X98970000Y-78560000D01*
X99580000Y-79000000D01*
G36*
X99580000Y-79000000D02*
G01*
X98970000Y-79440000D01*
X98970000Y-78560000D01*
X99580000Y-79000000D01*
G37*
%TO.C,Rehydration1*%
X109690200Y-76854000D02*
X109690200Y-78254000D01*
X109690200Y-79524000D02*
X109690200Y-97434000D01*
X109690200Y-97434000D02*
X125190200Y-97434000D01*
X111090200Y-76854000D02*
X109690200Y-76854000D01*
X112360200Y-76854000D02*
X112360200Y-79524000D01*
X112360200Y-79524000D02*
X109690200Y-79524000D01*
X112360200Y-79524000D02*
X112360200Y-97434000D01*
X122520200Y-76854000D02*
X122520200Y-97434000D01*
X125190200Y-76854000D02*
X112360200Y-76854000D01*
X125190200Y-97434000D02*
X125190200Y-76854000D01*
%TO.C,Q2*%
X116260100Y-115495400D02*
X116260100Y-111895400D01*
X111810100Y-113695400D02*
G75*
G02*
X116248578Y-111856922I2600000J0D01*
G01*
X116248578Y-115533878D02*
G75*
G02*
X111810099Y-113695400I-1838478J1838478D01*
G01*
%TO.C,Rehydration_back1*%
X162812900Y-64929600D02*
X162812900Y-67749600D01*
X162812900Y-68349600D02*
X162812900Y-80669600D01*
X164932900Y-64929600D02*
X164932900Y-66169600D01*
X164932900Y-69929600D02*
X164932900Y-72506600D01*
X164932900Y-73592600D02*
X164932900Y-77506600D01*
X164932900Y-78592600D02*
X164932900Y-80669600D01*
X166232900Y-64929600D02*
X166232900Y-66169600D01*
X166232900Y-69929600D02*
X166232900Y-71237600D01*
X166232900Y-74861600D02*
X166232900Y-76237600D01*
X166232900Y-79861600D02*
X166232900Y-80669600D01*
X167232900Y-64929600D02*
X167232900Y-66169600D01*
X167232900Y-69929600D02*
X167232900Y-71237600D01*
X167232900Y-74861600D02*
X167232900Y-76237600D01*
X167232900Y-79861600D02*
X167232900Y-80669600D01*
X170852900Y-64929600D02*
X162812900Y-64929600D01*
X170852900Y-64929600D02*
X170852900Y-80669600D01*
X170852900Y-80669600D02*
X162812900Y-80669600D01*
X162812900Y-68049600D02*
X162202900Y-68489600D01*
X162202900Y-67609600D01*
X162812900Y-68049600D01*
G36*
X162812900Y-68049600D02*
G01*
X162202900Y-68489600D01*
X162202900Y-67609600D01*
X162812900Y-68049600D01*
G37*
%TO.C,Mixing1*%
X99819900Y-101980900D02*
X107859900Y-101980900D01*
X99819900Y-132720900D02*
X99819900Y-101980900D01*
X99819900Y-132720900D02*
X107859900Y-132720900D01*
X103439900Y-102788900D02*
X103439900Y-101980900D01*
X103439900Y-107788900D02*
X103439900Y-106412900D01*
X103439900Y-112788900D02*
X103439900Y-111412900D01*
X103439900Y-117788900D02*
X103439900Y-116412900D01*
X103439900Y-122788900D02*
X103439900Y-121412900D01*
X103439900Y-127720900D02*
X103439900Y-126412900D01*
X103439900Y-132720900D02*
X103439900Y-131480900D01*
X104439900Y-102788900D02*
X104439900Y-101980900D01*
X104439900Y-107788900D02*
X104439900Y-106412900D01*
X104439900Y-112788900D02*
X104439900Y-111412900D01*
X104439900Y-117788900D02*
X104439900Y-116412900D01*
X104439900Y-122788900D02*
X104439900Y-121412900D01*
X104439900Y-127720900D02*
X104439900Y-126412900D01*
X104439900Y-132720900D02*
X104439900Y-131480900D01*
X105739900Y-104057900D02*
X105739900Y-101980900D01*
X105739900Y-109057900D02*
X105739900Y-105143900D01*
X105739900Y-114057900D02*
X105739900Y-110143900D01*
X105739900Y-119057900D02*
X105739900Y-115143900D01*
X105739900Y-124057900D02*
X105739900Y-120143900D01*
X105739900Y-127720900D02*
X105739900Y-125143900D01*
X105739900Y-132720900D02*
X105739900Y-131480900D01*
X107859900Y-129300900D02*
X107859900Y-101980900D01*
X107859900Y-132720900D02*
X107859900Y-129900900D01*
X108469900Y-130040900D02*
X107859900Y-129600900D01*
X108469900Y-129160900D01*
X108469900Y-130040900D01*
G36*
X108469900Y-130040900D02*
G01*
X107859900Y-129600900D01*
X108469900Y-129160900D01*
X108469900Y-130040900D01*
G37*
%TD*%
M02*
