M48
; DRILL file {KiCad 9.0.1} date 2025-05-09T22:29:35-0700
; FORMAT={-:-/ absolute / metric / decimal}
; #@! TF.CreationDate,2025-05-09T22:29:35-07:00
; #@! TF.GenerationSoftware,Kicad,Pcbnew,9.0.1
; #@! TF.FileFunction,Plated,1,2,PTH
FMAT,2
METRIC
; #@! TA.AperFunction,Plated,PTH,ViaDrill
T1C0.300
; #@! TA.AperFunction,Plated,PTH,ComponentDrill
T2C0.750
; #@! TA.AperFunction,Plated,PTH,ComponentDrill
T3C0.800
; #@! TA.AperFunction,Plated,PTH,ComponentDrill
T4C1.100
; #@! TA.AperFunction,Plated,PTH,ComponentDrill
T5C1.300
%
G90
G05
T1
X111.395Y-127.5
X111.534Y-75.688
X119.858Y-113.292
X122.798Y-94.484
X128.59Y-126.262
X128.802Y-60.812
X132.074Y-135.188
X141.96Y-129.019
X143.811Y-131.916
X146.734Y-96.379
X149.828Y-72.873
X157.742Y-101.706
X161.325Y-73.818
X169.397Y-84.457
T2
X114.25Y-105.275
X114.25Y-106.545
X114.25Y-107.815
X114.41Y-112.425
X114.41Y-113.695
X114.41Y-114.965
X114.504Y-119.11
X114.504Y-120.38
X114.504Y-121.65
T3
X111.09Y-78.254
X111.09Y-80.794
X111.09Y-83.334
X111.09Y-85.874
X111.09Y-88.414
X111.09Y-90.954
X111.09Y-93.494
X111.09Y-96.034
X123.79Y-78.254
X123.79Y-80.794
X123.79Y-83.334
X123.79Y-85.874
X123.79Y-88.414
X123.79Y-90.954
X123.79Y-93.494
X123.79Y-96.034
X128.59Y-67.793
X128.59Y-70.332
X128.59Y-72.873
X128.59Y-75.412
X128.59Y-77.953
X128.59Y-80.492
X128.59Y-83.032
X128.59Y-85.572
X128.59Y-88.112
X128.59Y-90.652
X128.59Y-93.192
X128.59Y-95.733
X128.59Y-98.272
X128.59Y-100.812
X128.59Y-103.352
X128.59Y-105.892
X128.59Y-108.432
X128.59Y-110.972
X128.59Y-113.512
X128.59Y-116.052
X128.59Y-118.593
X128.59Y-121.132
X153.99Y-67.793
X153.99Y-70.332
X153.99Y-72.873
X153.99Y-75.412
X153.99Y-77.953
X153.99Y-80.492
X153.99Y-83.032
X153.99Y-85.572
X153.99Y-88.112
X153.99Y-90.652
X153.99Y-93.192
X153.99Y-95.733
X153.99Y-98.272
X153.99Y-100.812
X153.99Y-103.352
X153.99Y-105.892
X153.99Y-108.432
X153.99Y-110.972
X153.99Y-113.512
X153.99Y-116.052
X153.99Y-118.593
X153.99Y-121.132
X159.282Y-84.326
X159.282Y-86.866
X159.282Y-89.406
X159.282Y-91.946
X159.282Y-94.486
X159.282Y-97.026
X159.282Y-99.566
X159.282Y-102.106
X171.982Y-84.326
X171.982Y-86.866
X171.982Y-89.406
X171.982Y-91.946
X171.982Y-94.486
X171.982Y-97.026
X171.982Y-99.566
X171.982Y-102.106
T4
X121.132Y-127.5
X131.292Y-127.5
T5
X103.5Y-79.0
X103.5Y-84.0
X103.5Y-89.0
X103.5Y-94.0
X103.94Y-104.601
X103.94Y-109.601
X103.94Y-114.601
X103.94Y-119.601
X103.94Y-124.601
X103.94Y-129.601
X109.25Y-56.032
X109.25Y-61.032
X109.25Y-66.032
X109.25Y-71.032
X114.5Y-135.5
X119.5Y-135.5
X120.0Y-57.5
X125.0Y-57.5
X130.0Y-57.5
X138.0Y-57.5
X143.0Y-57.5
X148.0Y-57.5
X151.155Y-134.0
X156.0Y-57.5
X156.155Y-134.0
X161.0Y-57.5
X161.155Y-134.0
X165.031Y-110.067
X165.031Y-115.067
X165.031Y-120.067
X165.031Y-125.067
X166.0Y-57.5
X166.155Y-134.0
X166.733Y-68.05
X166.733Y-73.05
X166.733Y-78.05
M30
