%TF.GenerationSoftware,KiCad,Pcbnew,9.0.1*%
%TF.CreationDate,2025-05-08T22:11:00-07:00*%
%TF.ProjectId,pcb,7063622e-6b69-4636-9164-5f7063625858,rev?*%
%TF.SameCoordinates,Original*%
%TF.FileFunction,Legend,Top*%
%TF.FilePolarity,Positive*%
%FSLAX46Y46*%
G04 Gerber Fmt 4.6, Leading zero omitted, Abs format (unit mm)*
G04 Created by KiCad (PCBNEW 9.0.1) date 2025-05-08 22:11:00*
%MOMM*%
%LPD*%
G01*
G04 APERTURE LIST*
%ADD10C,0.150000*%
%ADD11C,0.120000*%
G04 APERTURE END LIST*
D10*
X121480357Y-65670652D02*
X121718452Y-66337319D01*
X121718452Y-66337319D02*
X121956547Y-65670652D01*
X122766071Y-66337319D02*
X122766071Y-65337319D01*
X122766071Y-66289700D02*
X122670833Y-66337319D01*
X122670833Y-66337319D02*
X122480357Y-66337319D01*
X122480357Y-66337319D02*
X122385119Y-66289700D01*
X122385119Y-66289700D02*
X122337500Y-66242080D01*
X122337500Y-66242080D02*
X122289881Y-66146842D01*
X122289881Y-66146842D02*
X122289881Y-65861128D01*
X122289881Y-65861128D02*
X122337500Y-65765890D01*
X122337500Y-65765890D02*
X122385119Y-65718271D01*
X122385119Y-65718271D02*
X122480357Y-65670652D01*
X122480357Y-65670652D02*
X122670833Y-65670652D01*
X122670833Y-65670652D02*
X122766071Y-65718271D01*
X123004167Y-66432557D02*
X123766071Y-66432557D01*
X124004167Y-66337319D02*
X124004167Y-65670652D01*
X124004167Y-65861128D02*
X124051786Y-65765890D01*
X124051786Y-65765890D02*
X124099405Y-65718271D01*
X124099405Y-65718271D02*
X124194643Y-65670652D01*
X124194643Y-65670652D02*
X124289881Y-65670652D01*
X125147024Y-66337319D02*
X124575596Y-66337319D01*
X124861310Y-66337319D02*
X124861310Y-65337319D01*
X124861310Y-65337319D02*
X124766072Y-65480176D01*
X124766072Y-65480176D02*
X124670834Y-65575414D01*
X124670834Y-65575414D02*
X124575596Y-65623033D01*
X116273809Y-71320652D02*
X116511904Y-71987319D01*
X116511904Y-71987319D02*
X116749999Y-71320652D01*
X117559523Y-71987319D02*
X117559523Y-70987319D01*
X117559523Y-71939700D02*
X117464285Y-71987319D01*
X117464285Y-71987319D02*
X117273809Y-71987319D01*
X117273809Y-71987319D02*
X117178571Y-71939700D01*
X117178571Y-71939700D02*
X117130952Y-71892080D01*
X117130952Y-71892080D02*
X117083333Y-71796842D01*
X117083333Y-71796842D02*
X117083333Y-71511128D01*
X117083333Y-71511128D02*
X117130952Y-71415890D01*
X117130952Y-71415890D02*
X117178571Y-71368271D01*
X117178571Y-71368271D02*
X117273809Y-71320652D01*
X117273809Y-71320652D02*
X117464285Y-71320652D01*
X117464285Y-71320652D02*
X117559523Y-71368271D01*
X117797619Y-72082557D02*
X118559523Y-72082557D01*
X119226190Y-71939700D02*
X119130952Y-71987319D01*
X119130952Y-71987319D02*
X118940476Y-71987319D01*
X118940476Y-71987319D02*
X118845238Y-71939700D01*
X118845238Y-71939700D02*
X118797619Y-71892080D01*
X118797619Y-71892080D02*
X118750000Y-71796842D01*
X118750000Y-71796842D02*
X118750000Y-71511128D01*
X118750000Y-71511128D02*
X118797619Y-71415890D01*
X118797619Y-71415890D02*
X118845238Y-71368271D01*
X118845238Y-71368271D02*
X118940476Y-71320652D01*
X118940476Y-71320652D02*
X119130952Y-71320652D01*
X119130952Y-71320652D02*
X119226190Y-71368271D01*
X119607143Y-71082557D02*
X119654762Y-71034938D01*
X119654762Y-71034938D02*
X119750000Y-70987319D01*
X119750000Y-70987319D02*
X119988095Y-70987319D01*
X119988095Y-70987319D02*
X120083333Y-71034938D01*
X120083333Y-71034938D02*
X120130952Y-71082557D01*
X120130952Y-71082557D02*
X120178571Y-71177795D01*
X120178571Y-71177795D02*
X120178571Y-71273033D01*
X120178571Y-71273033D02*
X120130952Y-71415890D01*
X120130952Y-71415890D02*
X119559524Y-71987319D01*
X119559524Y-71987319D02*
X120178571Y-71987319D01*
X122481409Y-70798252D02*
X122719504Y-71464919D01*
X122719504Y-71464919D02*
X122957599Y-70798252D01*
X123767123Y-71464919D02*
X123767123Y-70464919D01*
X123767123Y-71417300D02*
X123671885Y-71464919D01*
X123671885Y-71464919D02*
X123481409Y-71464919D01*
X123481409Y-71464919D02*
X123386171Y-71417300D01*
X123386171Y-71417300D02*
X123338552Y-71369680D01*
X123338552Y-71369680D02*
X123290933Y-71274442D01*
X123290933Y-71274442D02*
X123290933Y-70988728D01*
X123290933Y-70988728D02*
X123338552Y-70893490D01*
X123338552Y-70893490D02*
X123386171Y-70845871D01*
X123386171Y-70845871D02*
X123481409Y-70798252D01*
X123481409Y-70798252D02*
X123671885Y-70798252D01*
X123671885Y-70798252D02*
X123767123Y-70845871D01*
X124005219Y-71560157D02*
X124767123Y-71560157D01*
X125433790Y-71417300D02*
X125338552Y-71464919D01*
X125338552Y-71464919D02*
X125148076Y-71464919D01*
X125148076Y-71464919D02*
X125052838Y-71417300D01*
X125052838Y-71417300D02*
X125005219Y-71369680D01*
X125005219Y-71369680D02*
X124957600Y-71274442D01*
X124957600Y-71274442D02*
X124957600Y-70988728D01*
X124957600Y-70988728D02*
X125005219Y-70893490D01*
X125005219Y-70893490D02*
X125052838Y-70845871D01*
X125052838Y-70845871D02*
X125148076Y-70798252D01*
X125148076Y-70798252D02*
X125338552Y-70798252D01*
X125338552Y-70798252D02*
X125433790Y-70845871D01*
X126386171Y-71464919D02*
X125814743Y-71464919D01*
X126100457Y-71464919D02*
X126100457Y-70464919D01*
X126100457Y-70464919D02*
X126005219Y-70607776D01*
X126005219Y-70607776D02*
X125909981Y-70703014D01*
X125909981Y-70703014D02*
X125814743Y-70750633D01*
X126472023Y-133307319D02*
X126472023Y-132640652D01*
X126472023Y-132831128D02*
X126519642Y-132735890D01*
X126519642Y-132735890D02*
X126567261Y-132688271D01*
X126567261Y-132688271D02*
X126662499Y-132640652D01*
X126662499Y-132640652D02*
X126757737Y-132640652D01*
X127472023Y-133259700D02*
X127376785Y-133307319D01*
X127376785Y-133307319D02*
X127186309Y-133307319D01*
X127186309Y-133307319D02*
X127091071Y-133259700D01*
X127091071Y-133259700D02*
X127043452Y-133164461D01*
X127043452Y-133164461D02*
X127043452Y-132783509D01*
X127043452Y-132783509D02*
X127091071Y-132688271D01*
X127091071Y-132688271D02*
X127186309Y-132640652D01*
X127186309Y-132640652D02*
X127376785Y-132640652D01*
X127376785Y-132640652D02*
X127472023Y-132688271D01*
X127472023Y-132688271D02*
X127519642Y-132783509D01*
X127519642Y-132783509D02*
X127519642Y-132878747D01*
X127519642Y-132878747D02*
X127043452Y-132973985D01*
X128376785Y-132640652D02*
X128376785Y-133450176D01*
X128376785Y-133450176D02*
X128329166Y-133545414D01*
X128329166Y-133545414D02*
X128281547Y-133593033D01*
X128281547Y-133593033D02*
X128186309Y-133640652D01*
X128186309Y-133640652D02*
X128043452Y-133640652D01*
X128043452Y-133640652D02*
X127948214Y-133593033D01*
X128376785Y-133259700D02*
X128281547Y-133307319D01*
X128281547Y-133307319D02*
X128091071Y-133307319D01*
X128091071Y-133307319D02*
X127995833Y-133259700D01*
X127995833Y-133259700D02*
X127948214Y-133212080D01*
X127948214Y-133212080D02*
X127900595Y-133116842D01*
X127900595Y-133116842D02*
X127900595Y-132831128D01*
X127900595Y-132831128D02*
X127948214Y-132735890D01*
X127948214Y-132735890D02*
X127995833Y-132688271D01*
X127995833Y-132688271D02*
X128091071Y-132640652D01*
X128091071Y-132640652D02*
X128281547Y-132640652D01*
X128281547Y-132640652D02*
X128376785Y-132688271D01*
X128614881Y-133402557D02*
X129376785Y-133402557D01*
X130043452Y-133259700D02*
X129948214Y-133307319D01*
X129948214Y-133307319D02*
X129757738Y-133307319D01*
X129757738Y-133307319D02*
X129662500Y-133259700D01*
X129662500Y-133259700D02*
X129614881Y-133212080D01*
X129614881Y-133212080D02*
X129567262Y-133116842D01*
X129567262Y-133116842D02*
X129567262Y-132831128D01*
X129567262Y-132831128D02*
X129614881Y-132735890D01*
X129614881Y-132735890D02*
X129662500Y-132688271D01*
X129662500Y-132688271D02*
X129757738Y-132640652D01*
X129757738Y-132640652D02*
X129948214Y-132640652D01*
X129948214Y-132640652D02*
X130043452Y-132688271D01*
X130614881Y-133307319D02*
X130519643Y-133259700D01*
X130519643Y-133259700D02*
X130472024Y-133212080D01*
X130472024Y-133212080D02*
X130424405Y-133116842D01*
X130424405Y-133116842D02*
X130424405Y-132831128D01*
X130424405Y-132831128D02*
X130472024Y-132735890D01*
X130472024Y-132735890D02*
X130519643Y-132688271D01*
X130519643Y-132688271D02*
X130614881Y-132640652D01*
X130614881Y-132640652D02*
X130757738Y-132640652D01*
X130757738Y-132640652D02*
X130852976Y-132688271D01*
X130852976Y-132688271D02*
X130900595Y-132735890D01*
X130900595Y-132735890D02*
X130948214Y-132831128D01*
X130948214Y-132831128D02*
X130948214Y-133116842D01*
X130948214Y-133116842D02*
X130900595Y-133212080D01*
X130900595Y-133212080D02*
X130852976Y-133259700D01*
X130852976Y-133259700D02*
X130757738Y-133307319D01*
X130757738Y-133307319D02*
X130614881Y-133307319D01*
X131900595Y-133307319D02*
X131329167Y-133307319D01*
X131614881Y-133307319D02*
X131614881Y-132307319D01*
X131614881Y-132307319D02*
X131519643Y-132450176D01*
X131519643Y-132450176D02*
X131424405Y-132545414D01*
X131424405Y-132545414D02*
X131329167Y-132593033D01*
X126736309Y-137807319D02*
X126736309Y-137140652D01*
X126736309Y-137331128D02*
X126783928Y-137235890D01*
X126783928Y-137235890D02*
X126831547Y-137188271D01*
X126831547Y-137188271D02*
X126926785Y-137140652D01*
X126926785Y-137140652D02*
X127022023Y-137140652D01*
X127736309Y-137759700D02*
X127641071Y-137807319D01*
X127641071Y-137807319D02*
X127450595Y-137807319D01*
X127450595Y-137807319D02*
X127355357Y-137759700D01*
X127355357Y-137759700D02*
X127307738Y-137664461D01*
X127307738Y-137664461D02*
X127307738Y-137283509D01*
X127307738Y-137283509D02*
X127355357Y-137188271D01*
X127355357Y-137188271D02*
X127450595Y-137140652D01*
X127450595Y-137140652D02*
X127641071Y-137140652D01*
X127641071Y-137140652D02*
X127736309Y-137188271D01*
X127736309Y-137188271D02*
X127783928Y-137283509D01*
X127783928Y-137283509D02*
X127783928Y-137378747D01*
X127783928Y-137378747D02*
X127307738Y-137473985D01*
X128641071Y-137140652D02*
X128641071Y-137950176D01*
X128641071Y-137950176D02*
X128593452Y-138045414D01*
X128593452Y-138045414D02*
X128545833Y-138093033D01*
X128545833Y-138093033D02*
X128450595Y-138140652D01*
X128450595Y-138140652D02*
X128307738Y-138140652D01*
X128307738Y-138140652D02*
X128212500Y-138093033D01*
X128641071Y-137759700D02*
X128545833Y-137807319D01*
X128545833Y-137807319D02*
X128355357Y-137807319D01*
X128355357Y-137807319D02*
X128260119Y-137759700D01*
X128260119Y-137759700D02*
X128212500Y-137712080D01*
X128212500Y-137712080D02*
X128164881Y-137616842D01*
X128164881Y-137616842D02*
X128164881Y-137331128D01*
X128164881Y-137331128D02*
X128212500Y-137235890D01*
X128212500Y-137235890D02*
X128260119Y-137188271D01*
X128260119Y-137188271D02*
X128355357Y-137140652D01*
X128355357Y-137140652D02*
X128545833Y-137140652D01*
X128545833Y-137140652D02*
X128641071Y-137188271D01*
X128879167Y-137902557D02*
X129641071Y-137902557D01*
X130307738Y-137759700D02*
X130212500Y-137807319D01*
X130212500Y-137807319D02*
X130022024Y-137807319D01*
X130022024Y-137807319D02*
X129926786Y-137759700D01*
X129926786Y-137759700D02*
X129879167Y-137712080D01*
X129879167Y-137712080D02*
X129831548Y-137616842D01*
X129831548Y-137616842D02*
X129831548Y-137331128D01*
X129831548Y-137331128D02*
X129879167Y-137235890D01*
X129879167Y-137235890D02*
X129926786Y-137188271D01*
X129926786Y-137188271D02*
X130022024Y-137140652D01*
X130022024Y-137140652D02*
X130212500Y-137140652D01*
X130212500Y-137140652D02*
X130307738Y-137188271D01*
X130736310Y-137807319D02*
X130736310Y-137140652D01*
X130736310Y-136807319D02*
X130688691Y-136854938D01*
X130688691Y-136854938D02*
X130736310Y-136902557D01*
X130736310Y-136902557D02*
X130783929Y-136854938D01*
X130783929Y-136854938D02*
X130736310Y-136807319D01*
X130736310Y-136807319D02*
X130736310Y-136902557D01*
X131736309Y-137807319D02*
X131164881Y-137807319D01*
X131450595Y-137807319D02*
X131450595Y-136807319D01*
X131450595Y-136807319D02*
X131355357Y-136950176D01*
X131355357Y-136950176D02*
X131260119Y-137045414D01*
X131260119Y-137045414D02*
X131164881Y-137093033D01*
X136535594Y-140962319D02*
X136202261Y-140486128D01*
X135964166Y-140962319D02*
X135964166Y-139962319D01*
X135964166Y-139962319D02*
X136345118Y-139962319D01*
X136345118Y-139962319D02*
X136440356Y-140009938D01*
X136440356Y-140009938D02*
X136487975Y-140057557D01*
X136487975Y-140057557D02*
X136535594Y-140152795D01*
X136535594Y-140152795D02*
X136535594Y-140295652D01*
X136535594Y-140295652D02*
X136487975Y-140390890D01*
X136487975Y-140390890D02*
X136440356Y-140438509D01*
X136440356Y-140438509D02*
X136345118Y-140486128D01*
X136345118Y-140486128D02*
X135964166Y-140486128D01*
X137345118Y-140914700D02*
X137249880Y-140962319D01*
X137249880Y-140962319D02*
X137059404Y-140962319D01*
X137059404Y-140962319D02*
X136964166Y-140914700D01*
X136964166Y-140914700D02*
X136916547Y-140819461D01*
X136916547Y-140819461D02*
X136916547Y-140438509D01*
X136916547Y-140438509D02*
X136964166Y-140343271D01*
X136964166Y-140343271D02*
X137059404Y-140295652D01*
X137059404Y-140295652D02*
X137249880Y-140295652D01*
X137249880Y-140295652D02*
X137345118Y-140343271D01*
X137345118Y-140343271D02*
X137392737Y-140438509D01*
X137392737Y-140438509D02*
X137392737Y-140533747D01*
X137392737Y-140533747D02*
X136916547Y-140628985D01*
X138249880Y-140295652D02*
X138249880Y-141105176D01*
X138249880Y-141105176D02*
X138202261Y-141200414D01*
X138202261Y-141200414D02*
X138154642Y-141248033D01*
X138154642Y-141248033D02*
X138059404Y-141295652D01*
X138059404Y-141295652D02*
X137916547Y-141295652D01*
X137916547Y-141295652D02*
X137821309Y-141248033D01*
X138249880Y-140914700D02*
X138154642Y-140962319D01*
X138154642Y-140962319D02*
X137964166Y-140962319D01*
X137964166Y-140962319D02*
X137868928Y-140914700D01*
X137868928Y-140914700D02*
X137821309Y-140867080D01*
X137821309Y-140867080D02*
X137773690Y-140771842D01*
X137773690Y-140771842D02*
X137773690Y-140486128D01*
X137773690Y-140486128D02*
X137821309Y-140390890D01*
X137821309Y-140390890D02*
X137868928Y-140343271D01*
X137868928Y-140343271D02*
X137964166Y-140295652D01*
X137964166Y-140295652D02*
X138154642Y-140295652D01*
X138154642Y-140295652D02*
X138249880Y-140343271D01*
X139154642Y-140295652D02*
X139154642Y-140962319D01*
X138726071Y-140295652D02*
X138726071Y-140819461D01*
X138726071Y-140819461D02*
X138773690Y-140914700D01*
X138773690Y-140914700D02*
X138868928Y-140962319D01*
X138868928Y-140962319D02*
X139011785Y-140962319D01*
X139011785Y-140962319D02*
X139107023Y-140914700D01*
X139107023Y-140914700D02*
X139154642Y-140867080D01*
X139773690Y-140962319D02*
X139678452Y-140914700D01*
X139678452Y-140914700D02*
X139630833Y-140819461D01*
X139630833Y-140819461D02*
X139630833Y-139962319D01*
X140583214Y-140962319D02*
X140583214Y-140438509D01*
X140583214Y-140438509D02*
X140535595Y-140343271D01*
X140535595Y-140343271D02*
X140440357Y-140295652D01*
X140440357Y-140295652D02*
X140249881Y-140295652D01*
X140249881Y-140295652D02*
X140154643Y-140343271D01*
X140583214Y-140914700D02*
X140487976Y-140962319D01*
X140487976Y-140962319D02*
X140249881Y-140962319D01*
X140249881Y-140962319D02*
X140154643Y-140914700D01*
X140154643Y-140914700D02*
X140107024Y-140819461D01*
X140107024Y-140819461D02*
X140107024Y-140724223D01*
X140107024Y-140724223D02*
X140154643Y-140628985D01*
X140154643Y-140628985D02*
X140249881Y-140581366D01*
X140249881Y-140581366D02*
X140487976Y-140581366D01*
X140487976Y-140581366D02*
X140583214Y-140533747D01*
X140916548Y-140295652D02*
X141297500Y-140295652D01*
X141059405Y-139962319D02*
X141059405Y-140819461D01*
X141059405Y-140819461D02*
X141107024Y-140914700D01*
X141107024Y-140914700D02*
X141202262Y-140962319D01*
X141202262Y-140962319D02*
X141297500Y-140962319D01*
X141773691Y-140962319D02*
X141678453Y-140914700D01*
X141678453Y-140914700D02*
X141630834Y-140867080D01*
X141630834Y-140867080D02*
X141583215Y-140771842D01*
X141583215Y-140771842D02*
X141583215Y-140486128D01*
X141583215Y-140486128D02*
X141630834Y-140390890D01*
X141630834Y-140390890D02*
X141678453Y-140343271D01*
X141678453Y-140343271D02*
X141773691Y-140295652D01*
X141773691Y-140295652D02*
X141916548Y-140295652D01*
X141916548Y-140295652D02*
X142011786Y-140343271D01*
X142011786Y-140343271D02*
X142059405Y-140390890D01*
X142059405Y-140390890D02*
X142107024Y-140486128D01*
X142107024Y-140486128D02*
X142107024Y-140771842D01*
X142107024Y-140771842D02*
X142059405Y-140867080D01*
X142059405Y-140867080D02*
X142011786Y-140914700D01*
X142011786Y-140914700D02*
X141916548Y-140962319D01*
X141916548Y-140962319D02*
X141773691Y-140962319D01*
X142535596Y-140962319D02*
X142535596Y-140295652D01*
X142535596Y-140486128D02*
X142583215Y-140390890D01*
X142583215Y-140390890D02*
X142630834Y-140343271D01*
X142630834Y-140343271D02*
X142726072Y-140295652D01*
X142726072Y-140295652D02*
X142821310Y-140295652D01*
X143678453Y-140962319D02*
X143107025Y-140962319D01*
X143392739Y-140962319D02*
X143392739Y-139962319D01*
X143392739Y-139962319D02*
X143297501Y-140105176D01*
X143297501Y-140105176D02*
X143202263Y-140200414D01*
X143202263Y-140200414D02*
X143107025Y-140248033D01*
X137526514Y-126329019D02*
X137526514Y-125662352D01*
X137526514Y-125757590D02*
X137574133Y-125709971D01*
X137574133Y-125709971D02*
X137669371Y-125662352D01*
X137669371Y-125662352D02*
X137812228Y-125662352D01*
X137812228Y-125662352D02*
X137907466Y-125709971D01*
X137907466Y-125709971D02*
X137955085Y-125805209D01*
X137955085Y-125805209D02*
X137955085Y-126329019D01*
X137955085Y-125805209D02*
X138002704Y-125709971D01*
X138002704Y-125709971D02*
X138097942Y-125662352D01*
X138097942Y-125662352D02*
X138240799Y-125662352D01*
X138240799Y-125662352D02*
X138336038Y-125709971D01*
X138336038Y-125709971D02*
X138383657Y-125805209D01*
X138383657Y-125805209D02*
X138383657Y-126329019D01*
X139002704Y-126329019D02*
X138907466Y-126281400D01*
X138907466Y-126281400D02*
X138859847Y-126233780D01*
X138859847Y-126233780D02*
X138812228Y-126138542D01*
X138812228Y-126138542D02*
X138812228Y-125852828D01*
X138812228Y-125852828D02*
X138859847Y-125757590D01*
X138859847Y-125757590D02*
X138907466Y-125709971D01*
X138907466Y-125709971D02*
X139002704Y-125662352D01*
X139002704Y-125662352D02*
X139145561Y-125662352D01*
X139145561Y-125662352D02*
X139240799Y-125709971D01*
X139240799Y-125709971D02*
X139288418Y-125757590D01*
X139288418Y-125757590D02*
X139336037Y-125852828D01*
X139336037Y-125852828D02*
X139336037Y-126138542D01*
X139336037Y-126138542D02*
X139288418Y-126233780D01*
X139288418Y-126233780D02*
X139240799Y-126281400D01*
X139240799Y-126281400D02*
X139145561Y-126329019D01*
X139145561Y-126329019D02*
X139002704Y-126329019D01*
X139621752Y-125662352D02*
X140002704Y-125662352D01*
X139764609Y-125329019D02*
X139764609Y-126186161D01*
X139764609Y-126186161D02*
X139812228Y-126281400D01*
X139812228Y-126281400D02*
X139907466Y-126329019D01*
X139907466Y-126329019D02*
X140002704Y-126329019D01*
X140478895Y-126329019D02*
X140383657Y-126281400D01*
X140383657Y-126281400D02*
X140336038Y-126233780D01*
X140336038Y-126233780D02*
X140288419Y-126138542D01*
X140288419Y-126138542D02*
X140288419Y-125852828D01*
X140288419Y-125852828D02*
X140336038Y-125757590D01*
X140336038Y-125757590D02*
X140383657Y-125709971D01*
X140383657Y-125709971D02*
X140478895Y-125662352D01*
X140478895Y-125662352D02*
X140621752Y-125662352D01*
X140621752Y-125662352D02*
X140716990Y-125709971D01*
X140716990Y-125709971D02*
X140764609Y-125757590D01*
X140764609Y-125757590D02*
X140812228Y-125852828D01*
X140812228Y-125852828D02*
X140812228Y-126138542D01*
X140812228Y-126138542D02*
X140764609Y-126233780D01*
X140764609Y-126233780D02*
X140716990Y-126281400D01*
X140716990Y-126281400D02*
X140621752Y-126329019D01*
X140621752Y-126329019D02*
X140478895Y-126329019D01*
X141240800Y-126329019D02*
X141240800Y-125662352D01*
X141240800Y-125852828D02*
X141288419Y-125757590D01*
X141288419Y-125757590D02*
X141336038Y-125709971D01*
X141336038Y-125709971D02*
X141431276Y-125662352D01*
X141431276Y-125662352D02*
X141526514Y-125662352D01*
X141621753Y-126424257D02*
X142383657Y-126424257D01*
X143050324Y-126281400D02*
X142955086Y-126329019D01*
X142955086Y-126329019D02*
X142764610Y-126329019D01*
X142764610Y-126329019D02*
X142669372Y-126281400D01*
X142669372Y-126281400D02*
X142621753Y-126233780D01*
X142621753Y-126233780D02*
X142574134Y-126138542D01*
X142574134Y-126138542D02*
X142574134Y-125852828D01*
X142574134Y-125852828D02*
X142621753Y-125757590D01*
X142621753Y-125757590D02*
X142669372Y-125709971D01*
X142669372Y-125709971D02*
X142764610Y-125662352D01*
X142764610Y-125662352D02*
X142955086Y-125662352D01*
X142955086Y-125662352D02*
X143050324Y-125709971D01*
X144002705Y-126329019D02*
X143431277Y-126329019D01*
X143716991Y-126329019D02*
X143716991Y-125329019D01*
X143716991Y-125329019D02*
X143621753Y-125471876D01*
X143621753Y-125471876D02*
X143526515Y-125567114D01*
X143526515Y-125567114D02*
X143431277Y-125614733D01*
X119854919Y-109155518D02*
X119188252Y-109155518D01*
X119283490Y-109155518D02*
X119235871Y-109107899D01*
X119235871Y-109107899D02*
X119188252Y-109012661D01*
X119188252Y-109012661D02*
X119188252Y-108869804D01*
X119188252Y-108869804D02*
X119235871Y-108774566D01*
X119235871Y-108774566D02*
X119331109Y-108726947D01*
X119331109Y-108726947D02*
X119854919Y-108726947D01*
X119331109Y-108726947D02*
X119235871Y-108679328D01*
X119235871Y-108679328D02*
X119188252Y-108584090D01*
X119188252Y-108584090D02*
X119188252Y-108441233D01*
X119188252Y-108441233D02*
X119235871Y-108345994D01*
X119235871Y-108345994D02*
X119331109Y-108298375D01*
X119331109Y-108298375D02*
X119854919Y-108298375D01*
X119854919Y-107822185D02*
X119188252Y-107822185D01*
X118854919Y-107822185D02*
X118902538Y-107869804D01*
X118902538Y-107869804D02*
X118950157Y-107822185D01*
X118950157Y-107822185D02*
X118902538Y-107774566D01*
X118902538Y-107774566D02*
X118854919Y-107822185D01*
X118854919Y-107822185D02*
X118950157Y-107822185D01*
X119854919Y-107441233D02*
X119188252Y-106917424D01*
X119188252Y-107441233D02*
X119854919Y-106917424D01*
X118854919Y-106631709D02*
X118854919Y-106012662D01*
X118854919Y-106012662D02*
X119235871Y-106345995D01*
X119235871Y-106345995D02*
X119235871Y-106203138D01*
X119235871Y-106203138D02*
X119283490Y-106107900D01*
X119283490Y-106107900D02*
X119331109Y-106060281D01*
X119331109Y-106060281D02*
X119426347Y-106012662D01*
X119426347Y-106012662D02*
X119664442Y-106012662D01*
X119664442Y-106012662D02*
X119759680Y-106060281D01*
X119759680Y-106060281D02*
X119807300Y-106107900D01*
X119807300Y-106107900D02*
X119854919Y-106203138D01*
X119854919Y-106203138D02*
X119854919Y-106488852D01*
X119854919Y-106488852D02*
X119807300Y-106584090D01*
X119807300Y-106584090D02*
X119759680Y-106631709D01*
X120354919Y-115655518D02*
X119688252Y-115655518D01*
X119783490Y-115655518D02*
X119735871Y-115607899D01*
X119735871Y-115607899D02*
X119688252Y-115512661D01*
X119688252Y-115512661D02*
X119688252Y-115369804D01*
X119688252Y-115369804D02*
X119735871Y-115274566D01*
X119735871Y-115274566D02*
X119831109Y-115226947D01*
X119831109Y-115226947D02*
X120354919Y-115226947D01*
X119831109Y-115226947D02*
X119735871Y-115179328D01*
X119735871Y-115179328D02*
X119688252Y-115084090D01*
X119688252Y-115084090D02*
X119688252Y-114941233D01*
X119688252Y-114941233D02*
X119735871Y-114845994D01*
X119735871Y-114845994D02*
X119831109Y-114798375D01*
X119831109Y-114798375D02*
X120354919Y-114798375D01*
X120354919Y-114322185D02*
X119688252Y-114322185D01*
X119354919Y-114322185D02*
X119402538Y-114369804D01*
X119402538Y-114369804D02*
X119450157Y-114322185D01*
X119450157Y-114322185D02*
X119402538Y-114274566D01*
X119402538Y-114274566D02*
X119354919Y-114322185D01*
X119354919Y-114322185D02*
X119450157Y-114322185D01*
X120354919Y-113941233D02*
X119688252Y-113417424D01*
X119688252Y-113941233D02*
X120354919Y-113417424D01*
X119450157Y-113084090D02*
X119402538Y-113036471D01*
X119402538Y-113036471D02*
X119354919Y-112941233D01*
X119354919Y-112941233D02*
X119354919Y-112703138D01*
X119354919Y-112703138D02*
X119402538Y-112607900D01*
X119402538Y-112607900D02*
X119450157Y-112560281D01*
X119450157Y-112560281D02*
X119545395Y-112512662D01*
X119545395Y-112512662D02*
X119640633Y-112512662D01*
X119640633Y-112512662D02*
X119783490Y-112560281D01*
X119783490Y-112560281D02*
X120354919Y-113131709D01*
X120354919Y-113131709D02*
X120354919Y-112512662D01*
X120175019Y-122399818D02*
X119508352Y-122399818D01*
X119603590Y-122399818D02*
X119555971Y-122352199D01*
X119555971Y-122352199D02*
X119508352Y-122256961D01*
X119508352Y-122256961D02*
X119508352Y-122114104D01*
X119508352Y-122114104D02*
X119555971Y-122018866D01*
X119555971Y-122018866D02*
X119651209Y-121971247D01*
X119651209Y-121971247D02*
X120175019Y-121971247D01*
X119651209Y-121971247D02*
X119555971Y-121923628D01*
X119555971Y-121923628D02*
X119508352Y-121828390D01*
X119508352Y-121828390D02*
X119508352Y-121685533D01*
X119508352Y-121685533D02*
X119555971Y-121590294D01*
X119555971Y-121590294D02*
X119651209Y-121542675D01*
X119651209Y-121542675D02*
X120175019Y-121542675D01*
X120175019Y-121066485D02*
X119508352Y-121066485D01*
X119175019Y-121066485D02*
X119222638Y-121114104D01*
X119222638Y-121114104D02*
X119270257Y-121066485D01*
X119270257Y-121066485D02*
X119222638Y-121018866D01*
X119222638Y-121018866D02*
X119175019Y-121066485D01*
X119175019Y-121066485D02*
X119270257Y-121066485D01*
X120175019Y-120685533D02*
X119508352Y-120161724D01*
X119508352Y-120685533D02*
X120175019Y-120161724D01*
X120175019Y-119256962D02*
X120175019Y-119828390D01*
X120175019Y-119542676D02*
X119175019Y-119542676D01*
X119175019Y-119542676D02*
X119317876Y-119637914D01*
X119317876Y-119637914D02*
X119413114Y-119733152D01*
X119413114Y-119733152D02*
X119460733Y-119828390D01*
X151524046Y-139488409D02*
X151857379Y-139488409D01*
X152000236Y-140012219D02*
X151524046Y-140012219D01*
X151524046Y-140012219D02*
X151524046Y-139012219D01*
X151524046Y-139012219D02*
X152000236Y-139012219D01*
X152333570Y-140012219D02*
X152857379Y-139345552D01*
X152333570Y-139345552D02*
X152857379Y-140012219D01*
X153095475Y-139345552D02*
X153476427Y-139345552D01*
X153238332Y-139012219D02*
X153238332Y-139869361D01*
X153238332Y-139869361D02*
X153285951Y-139964600D01*
X153285951Y-139964600D02*
X153381189Y-140012219D01*
X153381189Y-140012219D02*
X153476427Y-140012219D01*
X153809761Y-140012219D02*
X153809761Y-139345552D01*
X153809761Y-139536028D02*
X153857380Y-139440790D01*
X153857380Y-139440790D02*
X153904999Y-139393171D01*
X153904999Y-139393171D02*
X154000237Y-139345552D01*
X154000237Y-139345552D02*
X154095475Y-139345552D01*
X154857380Y-140012219D02*
X154857380Y-139488409D01*
X154857380Y-139488409D02*
X154809761Y-139393171D01*
X154809761Y-139393171D02*
X154714523Y-139345552D01*
X154714523Y-139345552D02*
X154524047Y-139345552D01*
X154524047Y-139345552D02*
X154428809Y-139393171D01*
X154857380Y-139964600D02*
X154762142Y-140012219D01*
X154762142Y-140012219D02*
X154524047Y-140012219D01*
X154524047Y-140012219D02*
X154428809Y-139964600D01*
X154428809Y-139964600D02*
X154381190Y-139869361D01*
X154381190Y-139869361D02*
X154381190Y-139774123D01*
X154381190Y-139774123D02*
X154428809Y-139678885D01*
X154428809Y-139678885D02*
X154524047Y-139631266D01*
X154524047Y-139631266D02*
X154762142Y-139631266D01*
X154762142Y-139631266D02*
X154857380Y-139583647D01*
X155190714Y-139012219D02*
X155762142Y-139012219D01*
X155476428Y-140012219D02*
X155476428Y-139012219D01*
X156476428Y-139964600D02*
X156381190Y-140012219D01*
X156381190Y-140012219D02*
X156190714Y-140012219D01*
X156190714Y-140012219D02*
X156095476Y-139964600D01*
X156095476Y-139964600D02*
X156047857Y-139869361D01*
X156047857Y-139869361D02*
X156047857Y-139488409D01*
X156047857Y-139488409D02*
X156095476Y-139393171D01*
X156095476Y-139393171D02*
X156190714Y-139345552D01*
X156190714Y-139345552D02*
X156381190Y-139345552D01*
X156381190Y-139345552D02*
X156476428Y-139393171D01*
X156476428Y-139393171D02*
X156524047Y-139488409D01*
X156524047Y-139488409D02*
X156524047Y-139583647D01*
X156524047Y-139583647D02*
X156047857Y-139678885D01*
X156952619Y-140012219D02*
X156952619Y-139345552D01*
X156952619Y-139536028D02*
X157000238Y-139440790D01*
X157000238Y-139440790D02*
X157047857Y-139393171D01*
X157047857Y-139393171D02*
X157143095Y-139345552D01*
X157143095Y-139345552D02*
X157238333Y-139345552D01*
X157571667Y-140012219D02*
X157571667Y-139345552D01*
X157571667Y-139440790D02*
X157619286Y-139393171D01*
X157619286Y-139393171D02*
X157714524Y-139345552D01*
X157714524Y-139345552D02*
X157857381Y-139345552D01*
X157857381Y-139345552D02*
X157952619Y-139393171D01*
X157952619Y-139393171D02*
X158000238Y-139488409D01*
X158000238Y-139488409D02*
X158000238Y-140012219D01*
X158000238Y-139488409D02*
X158047857Y-139393171D01*
X158047857Y-139393171D02*
X158143095Y-139345552D01*
X158143095Y-139345552D02*
X158285952Y-139345552D01*
X158285952Y-139345552D02*
X158381191Y-139393171D01*
X158381191Y-139393171D02*
X158428810Y-139488409D01*
X158428810Y-139488409D02*
X158428810Y-140012219D01*
X158905000Y-140012219D02*
X158905000Y-139345552D01*
X158905000Y-139012219D02*
X158857381Y-139059838D01*
X158857381Y-139059838D02*
X158905000Y-139107457D01*
X158905000Y-139107457D02*
X158952619Y-139059838D01*
X158952619Y-139059838D02*
X158905000Y-139012219D01*
X158905000Y-139012219D02*
X158905000Y-139107457D01*
X159381190Y-139345552D02*
X159381190Y-140012219D01*
X159381190Y-139440790D02*
X159428809Y-139393171D01*
X159428809Y-139393171D02*
X159524047Y-139345552D01*
X159524047Y-139345552D02*
X159666904Y-139345552D01*
X159666904Y-139345552D02*
X159762142Y-139393171D01*
X159762142Y-139393171D02*
X159809761Y-139488409D01*
X159809761Y-139488409D02*
X159809761Y-140012219D01*
X160714523Y-140012219D02*
X160714523Y-139488409D01*
X160714523Y-139488409D02*
X160666904Y-139393171D01*
X160666904Y-139393171D02*
X160571666Y-139345552D01*
X160571666Y-139345552D02*
X160381190Y-139345552D01*
X160381190Y-139345552D02*
X160285952Y-139393171D01*
X160714523Y-139964600D02*
X160619285Y-140012219D01*
X160619285Y-140012219D02*
X160381190Y-140012219D01*
X160381190Y-140012219D02*
X160285952Y-139964600D01*
X160285952Y-139964600D02*
X160238333Y-139869361D01*
X160238333Y-139869361D02*
X160238333Y-139774123D01*
X160238333Y-139774123D02*
X160285952Y-139678885D01*
X160285952Y-139678885D02*
X160381190Y-139631266D01*
X160381190Y-139631266D02*
X160619285Y-139631266D01*
X160619285Y-139631266D02*
X160714523Y-139583647D01*
X161333571Y-140012219D02*
X161238333Y-139964600D01*
X161238333Y-139964600D02*
X161190714Y-139869361D01*
X161190714Y-139869361D02*
X161190714Y-139012219D01*
X162047857Y-139488409D02*
X162190714Y-139536028D01*
X162190714Y-139536028D02*
X162238333Y-139583647D01*
X162238333Y-139583647D02*
X162285952Y-139678885D01*
X162285952Y-139678885D02*
X162285952Y-139821742D01*
X162285952Y-139821742D02*
X162238333Y-139916980D01*
X162238333Y-139916980D02*
X162190714Y-139964600D01*
X162190714Y-139964600D02*
X162095476Y-140012219D01*
X162095476Y-140012219D02*
X161714524Y-140012219D01*
X161714524Y-140012219D02*
X161714524Y-139012219D01*
X161714524Y-139012219D02*
X162047857Y-139012219D01*
X162047857Y-139012219D02*
X162143095Y-139059838D01*
X162143095Y-139059838D02*
X162190714Y-139107457D01*
X162190714Y-139107457D02*
X162238333Y-139202695D01*
X162238333Y-139202695D02*
X162238333Y-139297933D01*
X162238333Y-139297933D02*
X162190714Y-139393171D01*
X162190714Y-139393171D02*
X162143095Y-139440790D01*
X162143095Y-139440790D02*
X162047857Y-139488409D01*
X162047857Y-139488409D02*
X161714524Y-139488409D01*
X162857381Y-140012219D02*
X162762143Y-139964600D01*
X162762143Y-139964600D02*
X162714524Y-139869361D01*
X162714524Y-139869361D02*
X162714524Y-139012219D01*
X163381191Y-140012219D02*
X163285953Y-139964600D01*
X163285953Y-139964600D02*
X163238334Y-139916980D01*
X163238334Y-139916980D02*
X163190715Y-139821742D01*
X163190715Y-139821742D02*
X163190715Y-139536028D01*
X163190715Y-139536028D02*
X163238334Y-139440790D01*
X163238334Y-139440790D02*
X163285953Y-139393171D01*
X163285953Y-139393171D02*
X163381191Y-139345552D01*
X163381191Y-139345552D02*
X163524048Y-139345552D01*
X163524048Y-139345552D02*
X163619286Y-139393171D01*
X163619286Y-139393171D02*
X163666905Y-139440790D01*
X163666905Y-139440790D02*
X163714524Y-139536028D01*
X163714524Y-139536028D02*
X163714524Y-139821742D01*
X163714524Y-139821742D02*
X163666905Y-139916980D01*
X163666905Y-139916980D02*
X163619286Y-139964600D01*
X163619286Y-139964600D02*
X163524048Y-140012219D01*
X163524048Y-140012219D02*
X163381191Y-140012219D01*
X164571667Y-139964600D02*
X164476429Y-140012219D01*
X164476429Y-140012219D02*
X164285953Y-140012219D01*
X164285953Y-140012219D02*
X164190715Y-139964600D01*
X164190715Y-139964600D02*
X164143096Y-139916980D01*
X164143096Y-139916980D02*
X164095477Y-139821742D01*
X164095477Y-139821742D02*
X164095477Y-139536028D01*
X164095477Y-139536028D02*
X164143096Y-139440790D01*
X164143096Y-139440790D02*
X164190715Y-139393171D01*
X164190715Y-139393171D02*
X164285953Y-139345552D01*
X164285953Y-139345552D02*
X164476429Y-139345552D01*
X164476429Y-139345552D02*
X164571667Y-139393171D01*
X165000239Y-140012219D02*
X165000239Y-139012219D01*
X165095477Y-139631266D02*
X165381191Y-140012219D01*
X165381191Y-139345552D02*
X165000239Y-139726504D01*
X166333572Y-140012219D02*
X165762144Y-140012219D01*
X166047858Y-140012219D02*
X166047858Y-139012219D01*
X166047858Y-139012219D02*
X165952620Y-139155076D01*
X165952620Y-139155076D02*
X165857382Y-139250314D01*
X165857382Y-139250314D02*
X165762144Y-139297933D01*
X111416666Y-127157319D02*
X111416666Y-126157319D01*
X111416666Y-126157319D02*
X111797618Y-126157319D01*
X111797618Y-126157319D02*
X111892856Y-126204938D01*
X111892856Y-126204938D02*
X111940475Y-126252557D01*
X111940475Y-126252557D02*
X111988094Y-126347795D01*
X111988094Y-126347795D02*
X111988094Y-126490652D01*
X111988094Y-126490652D02*
X111940475Y-126585890D01*
X111940475Y-126585890D02*
X111892856Y-126633509D01*
X111892856Y-126633509D02*
X111797618Y-126681128D01*
X111797618Y-126681128D02*
X111416666Y-126681128D01*
X112273809Y-126157319D02*
X112845237Y-126157319D01*
X112559523Y-127157319D02*
X112559523Y-126157319D01*
X113749999Y-127062080D02*
X113702380Y-127109700D01*
X113702380Y-127109700D02*
X113559523Y-127157319D01*
X113559523Y-127157319D02*
X113464285Y-127157319D01*
X113464285Y-127157319D02*
X113321428Y-127109700D01*
X113321428Y-127109700D02*
X113226190Y-127014461D01*
X113226190Y-127014461D02*
X113178571Y-126919223D01*
X113178571Y-126919223D02*
X113130952Y-126728747D01*
X113130952Y-126728747D02*
X113130952Y-126585890D01*
X113130952Y-126585890D02*
X113178571Y-126395414D01*
X113178571Y-126395414D02*
X113226190Y-126300176D01*
X113226190Y-126300176D02*
X113321428Y-126204938D01*
X113321428Y-126204938D02*
X113464285Y-126157319D01*
X113464285Y-126157319D02*
X113559523Y-126157319D01*
X113559523Y-126157319D02*
X113702380Y-126204938D01*
X113702380Y-126204938D02*
X113749999Y-126252557D01*
X114511904Y-126633509D02*
X114178571Y-126633509D01*
X114178571Y-127157319D02*
X114178571Y-126157319D01*
X114178571Y-126157319D02*
X114654761Y-126157319D01*
X115464285Y-126490652D02*
X115464285Y-127157319D01*
X115035714Y-126490652D02*
X115035714Y-127014461D01*
X115035714Y-127014461D02*
X115083333Y-127109700D01*
X115083333Y-127109700D02*
X115178571Y-127157319D01*
X115178571Y-127157319D02*
X115321428Y-127157319D01*
X115321428Y-127157319D02*
X115416666Y-127109700D01*
X115416666Y-127109700D02*
X115464285Y-127062080D01*
X115892857Y-127109700D02*
X115988095Y-127157319D01*
X115988095Y-127157319D02*
X116178571Y-127157319D01*
X116178571Y-127157319D02*
X116273809Y-127109700D01*
X116273809Y-127109700D02*
X116321428Y-127014461D01*
X116321428Y-127014461D02*
X116321428Y-126966842D01*
X116321428Y-126966842D02*
X116273809Y-126871604D01*
X116273809Y-126871604D02*
X116178571Y-126823985D01*
X116178571Y-126823985D02*
X116035714Y-126823985D01*
X116035714Y-126823985D02*
X115940476Y-126776366D01*
X115940476Y-126776366D02*
X115892857Y-126681128D01*
X115892857Y-126681128D02*
X115892857Y-126633509D01*
X115892857Y-126633509D02*
X115940476Y-126538271D01*
X115940476Y-126538271D02*
X116035714Y-126490652D01*
X116035714Y-126490652D02*
X116178571Y-126490652D01*
X116178571Y-126490652D02*
X116273809Y-126538271D01*
X117130952Y-127109700D02*
X117035714Y-127157319D01*
X117035714Y-127157319D02*
X116845238Y-127157319D01*
X116845238Y-127157319D02*
X116750000Y-127109700D01*
X116750000Y-127109700D02*
X116702381Y-127014461D01*
X116702381Y-127014461D02*
X116702381Y-126633509D01*
X116702381Y-126633509D02*
X116750000Y-126538271D01*
X116750000Y-126538271D02*
X116845238Y-126490652D01*
X116845238Y-126490652D02*
X117035714Y-126490652D01*
X117035714Y-126490652D02*
X117130952Y-126538271D01*
X117130952Y-126538271D02*
X117178571Y-126633509D01*
X117178571Y-126633509D02*
X117178571Y-126728747D01*
X117178571Y-126728747D02*
X116702381Y-126823985D01*
X118130952Y-127157319D02*
X117559524Y-127157319D01*
X117845238Y-127157319D02*
X117845238Y-126157319D01*
X117845238Y-126157319D02*
X117750000Y-126300176D01*
X117750000Y-126300176D02*
X117654762Y-126395414D01*
X117654762Y-126395414D02*
X117559524Y-126443033D01*
X125474405Y-126517319D02*
X125474405Y-125517319D01*
X125474405Y-125517319D02*
X125712500Y-125517319D01*
X125712500Y-125517319D02*
X125855357Y-125564938D01*
X125855357Y-125564938D02*
X125950595Y-125660176D01*
X125950595Y-125660176D02*
X125998214Y-125755414D01*
X125998214Y-125755414D02*
X126045833Y-125945890D01*
X126045833Y-125945890D02*
X126045833Y-126088747D01*
X126045833Y-126088747D02*
X125998214Y-126279223D01*
X125998214Y-126279223D02*
X125950595Y-126374461D01*
X125950595Y-126374461D02*
X125855357Y-126469700D01*
X125855357Y-126469700D02*
X125712500Y-126517319D01*
X125712500Y-126517319D02*
X125474405Y-126517319D01*
X126998214Y-126517319D02*
X126426786Y-126517319D01*
X126712500Y-126517319D02*
X126712500Y-125517319D01*
X126712500Y-125517319D02*
X126617262Y-125660176D01*
X126617262Y-125660176D02*
X126522024Y-125755414D01*
X126522024Y-125755414D02*
X126426786Y-125803033D01*
X120870595Y-126887319D02*
X120870595Y-125887319D01*
X121442023Y-126887319D02*
X121013452Y-126315890D01*
X121442023Y-125887319D02*
X120870595Y-126458747D01*
X111240057Y-106640538D02*
X111192438Y-106735776D01*
X111192438Y-106735776D02*
X111097200Y-106831014D01*
X111097200Y-106831014D02*
X110954342Y-106973871D01*
X110954342Y-106973871D02*
X110906723Y-107069109D01*
X110906723Y-107069109D02*
X110906723Y-107164347D01*
X111144819Y-107116728D02*
X111097200Y-107211966D01*
X111097200Y-107211966D02*
X111001961Y-107307204D01*
X111001961Y-107307204D02*
X110811485Y-107354823D01*
X110811485Y-107354823D02*
X110478152Y-107354823D01*
X110478152Y-107354823D02*
X110287676Y-107307204D01*
X110287676Y-107307204D02*
X110192438Y-107211966D01*
X110192438Y-107211966D02*
X110144819Y-107116728D01*
X110144819Y-107116728D02*
X110144819Y-106926252D01*
X110144819Y-106926252D02*
X110192438Y-106831014D01*
X110192438Y-106831014D02*
X110287676Y-106735776D01*
X110287676Y-106735776D02*
X110478152Y-106688157D01*
X110478152Y-106688157D02*
X110811485Y-106688157D01*
X110811485Y-106688157D02*
X111001961Y-106735776D01*
X111001961Y-106735776D02*
X111097200Y-106831014D01*
X111097200Y-106831014D02*
X111144819Y-106926252D01*
X111144819Y-106926252D02*
X111144819Y-107116728D01*
X110144819Y-106354823D02*
X110144819Y-105735776D01*
X110144819Y-105735776D02*
X110525771Y-106069109D01*
X110525771Y-106069109D02*
X110525771Y-105926252D01*
X110525771Y-105926252D02*
X110573390Y-105831014D01*
X110573390Y-105831014D02*
X110621009Y-105783395D01*
X110621009Y-105783395D02*
X110716247Y-105735776D01*
X110716247Y-105735776D02*
X110954342Y-105735776D01*
X110954342Y-105735776D02*
X111049580Y-105783395D01*
X111049580Y-105783395D02*
X111097200Y-105831014D01*
X111097200Y-105831014D02*
X111144819Y-105926252D01*
X111144819Y-105926252D02*
X111144819Y-106211966D01*
X111144819Y-106211966D02*
X111097200Y-106307204D01*
X111097200Y-106307204D02*
X111049580Y-106354823D01*
X159366319Y-118150033D02*
X160080604Y-118150033D01*
X160080604Y-118150033D02*
X160223461Y-118197652D01*
X160223461Y-118197652D02*
X160318700Y-118292890D01*
X160318700Y-118292890D02*
X160366319Y-118435747D01*
X160366319Y-118435747D02*
X160366319Y-118530985D01*
X159366319Y-117769080D02*
X159366319Y-117150033D01*
X159366319Y-117150033D02*
X159747271Y-117483366D01*
X159747271Y-117483366D02*
X159747271Y-117340509D01*
X159747271Y-117340509D02*
X159794890Y-117245271D01*
X159794890Y-117245271D02*
X159842509Y-117197652D01*
X159842509Y-117197652D02*
X159937747Y-117150033D01*
X159937747Y-117150033D02*
X160175842Y-117150033D01*
X160175842Y-117150033D02*
X160271080Y-117197652D01*
X160271080Y-117197652D02*
X160318700Y-117245271D01*
X160318700Y-117245271D02*
X160366319Y-117340509D01*
X160366319Y-117340509D02*
X160366319Y-117626223D01*
X160366319Y-117626223D02*
X160318700Y-117721461D01*
X160318700Y-117721461D02*
X160271080Y-117769080D01*
X117035714Y-52834819D02*
X117035714Y-51834819D01*
X117035714Y-51834819D02*
X117369047Y-52549104D01*
X117369047Y-52549104D02*
X117702380Y-51834819D01*
X117702380Y-51834819D02*
X117702380Y-52834819D01*
X118321428Y-52834819D02*
X118226190Y-52787200D01*
X118226190Y-52787200D02*
X118178571Y-52739580D01*
X118178571Y-52739580D02*
X118130952Y-52644342D01*
X118130952Y-52644342D02*
X118130952Y-52358628D01*
X118130952Y-52358628D02*
X118178571Y-52263390D01*
X118178571Y-52263390D02*
X118226190Y-52215771D01*
X118226190Y-52215771D02*
X118321428Y-52168152D01*
X118321428Y-52168152D02*
X118464285Y-52168152D01*
X118464285Y-52168152D02*
X118559523Y-52215771D01*
X118559523Y-52215771D02*
X118607142Y-52263390D01*
X118607142Y-52263390D02*
X118654761Y-52358628D01*
X118654761Y-52358628D02*
X118654761Y-52644342D01*
X118654761Y-52644342D02*
X118607142Y-52739580D01*
X118607142Y-52739580D02*
X118559523Y-52787200D01*
X118559523Y-52787200D02*
X118464285Y-52834819D01*
X118464285Y-52834819D02*
X118321428Y-52834819D01*
X118988095Y-52168152D02*
X119226190Y-52834819D01*
X119226190Y-52834819D02*
X119464285Y-52168152D01*
X119845238Y-52834819D02*
X119845238Y-52168152D01*
X119845238Y-51834819D02*
X119797619Y-51882438D01*
X119797619Y-51882438D02*
X119845238Y-51930057D01*
X119845238Y-51930057D02*
X119892857Y-51882438D01*
X119892857Y-51882438D02*
X119845238Y-51834819D01*
X119845238Y-51834819D02*
X119845238Y-51930057D01*
X120321428Y-52168152D02*
X120321428Y-52834819D01*
X120321428Y-52263390D02*
X120369047Y-52215771D01*
X120369047Y-52215771D02*
X120464285Y-52168152D01*
X120464285Y-52168152D02*
X120607142Y-52168152D01*
X120607142Y-52168152D02*
X120702380Y-52215771D01*
X120702380Y-52215771D02*
X120749999Y-52311009D01*
X120749999Y-52311009D02*
X120749999Y-52834819D01*
X121654761Y-52168152D02*
X121654761Y-52977676D01*
X121654761Y-52977676D02*
X121607142Y-53072914D01*
X121607142Y-53072914D02*
X121559523Y-53120533D01*
X121559523Y-53120533D02*
X121464285Y-53168152D01*
X121464285Y-53168152D02*
X121321428Y-53168152D01*
X121321428Y-53168152D02*
X121226190Y-53120533D01*
X121654761Y-52787200D02*
X121559523Y-52834819D01*
X121559523Y-52834819D02*
X121369047Y-52834819D01*
X121369047Y-52834819D02*
X121273809Y-52787200D01*
X121273809Y-52787200D02*
X121226190Y-52739580D01*
X121226190Y-52739580D02*
X121178571Y-52644342D01*
X121178571Y-52644342D02*
X121178571Y-52358628D01*
X121178571Y-52358628D02*
X121226190Y-52263390D01*
X121226190Y-52263390D02*
X121273809Y-52215771D01*
X121273809Y-52215771D02*
X121369047Y-52168152D01*
X121369047Y-52168152D02*
X121559523Y-52168152D01*
X121559523Y-52168152D02*
X121654761Y-52215771D01*
X122464285Y-52311009D02*
X122607142Y-52358628D01*
X122607142Y-52358628D02*
X122654761Y-52406247D01*
X122654761Y-52406247D02*
X122702380Y-52501485D01*
X122702380Y-52501485D02*
X122702380Y-52644342D01*
X122702380Y-52644342D02*
X122654761Y-52739580D01*
X122654761Y-52739580D02*
X122607142Y-52787200D01*
X122607142Y-52787200D02*
X122511904Y-52834819D01*
X122511904Y-52834819D02*
X122130952Y-52834819D01*
X122130952Y-52834819D02*
X122130952Y-51834819D01*
X122130952Y-51834819D02*
X122464285Y-51834819D01*
X122464285Y-51834819D02*
X122559523Y-51882438D01*
X122559523Y-51882438D02*
X122607142Y-51930057D01*
X122607142Y-51930057D02*
X122654761Y-52025295D01*
X122654761Y-52025295D02*
X122654761Y-52120533D01*
X122654761Y-52120533D02*
X122607142Y-52215771D01*
X122607142Y-52215771D02*
X122559523Y-52263390D01*
X122559523Y-52263390D02*
X122464285Y-52311009D01*
X122464285Y-52311009D02*
X122130952Y-52311009D01*
X123559523Y-52168152D02*
X123559523Y-52834819D01*
X123130952Y-52168152D02*
X123130952Y-52691961D01*
X123130952Y-52691961D02*
X123178571Y-52787200D01*
X123178571Y-52787200D02*
X123273809Y-52834819D01*
X123273809Y-52834819D02*
X123416666Y-52834819D01*
X123416666Y-52834819D02*
X123511904Y-52787200D01*
X123511904Y-52787200D02*
X123559523Y-52739580D01*
X124035714Y-52834819D02*
X124035714Y-52168152D01*
X124035714Y-52263390D02*
X124083333Y-52215771D01*
X124083333Y-52215771D02*
X124178571Y-52168152D01*
X124178571Y-52168152D02*
X124321428Y-52168152D01*
X124321428Y-52168152D02*
X124416666Y-52215771D01*
X124416666Y-52215771D02*
X124464285Y-52311009D01*
X124464285Y-52311009D02*
X124464285Y-52834819D01*
X124464285Y-52311009D02*
X124511904Y-52215771D01*
X124511904Y-52215771D02*
X124607142Y-52168152D01*
X124607142Y-52168152D02*
X124749999Y-52168152D01*
X124749999Y-52168152D02*
X124845238Y-52215771D01*
X124845238Y-52215771D02*
X124892857Y-52311009D01*
X124892857Y-52311009D02*
X124892857Y-52834819D01*
X125369047Y-52168152D02*
X125369047Y-53168152D01*
X125369047Y-52215771D02*
X125464285Y-52168152D01*
X125464285Y-52168152D02*
X125654761Y-52168152D01*
X125654761Y-52168152D02*
X125749999Y-52215771D01*
X125749999Y-52215771D02*
X125797618Y-52263390D01*
X125797618Y-52263390D02*
X125845237Y-52358628D01*
X125845237Y-52358628D02*
X125845237Y-52644342D01*
X125845237Y-52644342D02*
X125797618Y-52739580D01*
X125797618Y-52739580D02*
X125749999Y-52787200D01*
X125749999Y-52787200D02*
X125654761Y-52834819D01*
X125654761Y-52834819D02*
X125464285Y-52834819D01*
X125464285Y-52834819D02*
X125369047Y-52787200D01*
X126654761Y-52787200D02*
X126559523Y-52834819D01*
X126559523Y-52834819D02*
X126369047Y-52834819D01*
X126369047Y-52834819D02*
X126273809Y-52787200D01*
X126273809Y-52787200D02*
X126226190Y-52691961D01*
X126226190Y-52691961D02*
X126226190Y-52311009D01*
X126226190Y-52311009D02*
X126273809Y-52215771D01*
X126273809Y-52215771D02*
X126369047Y-52168152D01*
X126369047Y-52168152D02*
X126559523Y-52168152D01*
X126559523Y-52168152D02*
X126654761Y-52215771D01*
X126654761Y-52215771D02*
X126702380Y-52311009D01*
X126702380Y-52311009D02*
X126702380Y-52406247D01*
X126702380Y-52406247D02*
X126226190Y-52501485D01*
X127130952Y-52834819D02*
X127130952Y-52168152D01*
X127130952Y-52358628D02*
X127178571Y-52263390D01*
X127178571Y-52263390D02*
X127226190Y-52215771D01*
X127226190Y-52215771D02*
X127321428Y-52168152D01*
X127321428Y-52168152D02*
X127416666Y-52168152D01*
X127511905Y-52930057D02*
X128273809Y-52930057D01*
X128511905Y-52834819D02*
X128511905Y-51834819D01*
X128511905Y-52215771D02*
X128607143Y-52168152D01*
X128607143Y-52168152D02*
X128797619Y-52168152D01*
X128797619Y-52168152D02*
X128892857Y-52215771D01*
X128892857Y-52215771D02*
X128940476Y-52263390D01*
X128940476Y-52263390D02*
X128988095Y-52358628D01*
X128988095Y-52358628D02*
X128988095Y-52644342D01*
X128988095Y-52644342D02*
X128940476Y-52739580D01*
X128940476Y-52739580D02*
X128892857Y-52787200D01*
X128892857Y-52787200D02*
X128797619Y-52834819D01*
X128797619Y-52834819D02*
X128607143Y-52834819D01*
X128607143Y-52834819D02*
X128511905Y-52787200D01*
X129845238Y-52834819D02*
X129845238Y-52311009D01*
X129845238Y-52311009D02*
X129797619Y-52215771D01*
X129797619Y-52215771D02*
X129702381Y-52168152D01*
X129702381Y-52168152D02*
X129511905Y-52168152D01*
X129511905Y-52168152D02*
X129416667Y-52215771D01*
X129845238Y-52787200D02*
X129750000Y-52834819D01*
X129750000Y-52834819D02*
X129511905Y-52834819D01*
X129511905Y-52834819D02*
X129416667Y-52787200D01*
X129416667Y-52787200D02*
X129369048Y-52691961D01*
X129369048Y-52691961D02*
X129369048Y-52596723D01*
X129369048Y-52596723D02*
X129416667Y-52501485D01*
X129416667Y-52501485D02*
X129511905Y-52453866D01*
X129511905Y-52453866D02*
X129750000Y-52453866D01*
X129750000Y-52453866D02*
X129845238Y-52406247D01*
X130750000Y-52787200D02*
X130654762Y-52834819D01*
X130654762Y-52834819D02*
X130464286Y-52834819D01*
X130464286Y-52834819D02*
X130369048Y-52787200D01*
X130369048Y-52787200D02*
X130321429Y-52739580D01*
X130321429Y-52739580D02*
X130273810Y-52644342D01*
X130273810Y-52644342D02*
X130273810Y-52358628D01*
X130273810Y-52358628D02*
X130321429Y-52263390D01*
X130321429Y-52263390D02*
X130369048Y-52215771D01*
X130369048Y-52215771D02*
X130464286Y-52168152D01*
X130464286Y-52168152D02*
X130654762Y-52168152D01*
X130654762Y-52168152D02*
X130750000Y-52215771D01*
X131178572Y-52834819D02*
X131178572Y-51834819D01*
X131273810Y-52453866D02*
X131559524Y-52834819D01*
X131559524Y-52168152D02*
X131178572Y-52549104D01*
X132511905Y-52834819D02*
X131940477Y-52834819D01*
X132226191Y-52834819D02*
X132226191Y-51834819D01*
X132226191Y-51834819D02*
X132130953Y-51977676D01*
X132130953Y-51977676D02*
X132035715Y-52072914D01*
X132035715Y-52072914D02*
X131940477Y-52120533D01*
X134885994Y-63255219D02*
X134885994Y-62255219D01*
X134885994Y-62255219D02*
X135219327Y-62969504D01*
X135219327Y-62969504D02*
X135552660Y-62255219D01*
X135552660Y-62255219D02*
X135552660Y-63255219D01*
X136171708Y-63255219D02*
X136076470Y-63207600D01*
X136076470Y-63207600D02*
X136028851Y-63159980D01*
X136028851Y-63159980D02*
X135981232Y-63064742D01*
X135981232Y-63064742D02*
X135981232Y-62779028D01*
X135981232Y-62779028D02*
X136028851Y-62683790D01*
X136028851Y-62683790D02*
X136076470Y-62636171D01*
X136076470Y-62636171D02*
X136171708Y-62588552D01*
X136171708Y-62588552D02*
X136314565Y-62588552D01*
X136314565Y-62588552D02*
X136409803Y-62636171D01*
X136409803Y-62636171D02*
X136457422Y-62683790D01*
X136457422Y-62683790D02*
X136505041Y-62779028D01*
X136505041Y-62779028D02*
X136505041Y-63064742D01*
X136505041Y-63064742D02*
X136457422Y-63159980D01*
X136457422Y-63159980D02*
X136409803Y-63207600D01*
X136409803Y-63207600D02*
X136314565Y-63255219D01*
X136314565Y-63255219D02*
X136171708Y-63255219D01*
X136838375Y-62588552D02*
X137076470Y-63255219D01*
X137076470Y-63255219D02*
X137314565Y-62588552D01*
X137695518Y-63255219D02*
X137695518Y-62588552D01*
X137695518Y-62255219D02*
X137647899Y-62302838D01*
X137647899Y-62302838D02*
X137695518Y-62350457D01*
X137695518Y-62350457D02*
X137743137Y-62302838D01*
X137743137Y-62302838D02*
X137695518Y-62255219D01*
X137695518Y-62255219D02*
X137695518Y-62350457D01*
X138171708Y-62588552D02*
X138171708Y-63255219D01*
X138171708Y-62683790D02*
X138219327Y-62636171D01*
X138219327Y-62636171D02*
X138314565Y-62588552D01*
X138314565Y-62588552D02*
X138457422Y-62588552D01*
X138457422Y-62588552D02*
X138552660Y-62636171D01*
X138552660Y-62636171D02*
X138600279Y-62731409D01*
X138600279Y-62731409D02*
X138600279Y-63255219D01*
X139505041Y-62588552D02*
X139505041Y-63398076D01*
X139505041Y-63398076D02*
X139457422Y-63493314D01*
X139457422Y-63493314D02*
X139409803Y-63540933D01*
X139409803Y-63540933D02*
X139314565Y-63588552D01*
X139314565Y-63588552D02*
X139171708Y-63588552D01*
X139171708Y-63588552D02*
X139076470Y-63540933D01*
X139505041Y-63207600D02*
X139409803Y-63255219D01*
X139409803Y-63255219D02*
X139219327Y-63255219D01*
X139219327Y-63255219D02*
X139124089Y-63207600D01*
X139124089Y-63207600D02*
X139076470Y-63159980D01*
X139076470Y-63159980D02*
X139028851Y-63064742D01*
X139028851Y-63064742D02*
X139028851Y-62779028D01*
X139028851Y-62779028D02*
X139076470Y-62683790D01*
X139076470Y-62683790D02*
X139124089Y-62636171D01*
X139124089Y-62636171D02*
X139219327Y-62588552D01*
X139219327Y-62588552D02*
X139409803Y-62588552D01*
X139409803Y-62588552D02*
X139505041Y-62636171D01*
X140314565Y-62731409D02*
X140457422Y-62779028D01*
X140457422Y-62779028D02*
X140505041Y-62826647D01*
X140505041Y-62826647D02*
X140552660Y-62921885D01*
X140552660Y-62921885D02*
X140552660Y-63064742D01*
X140552660Y-63064742D02*
X140505041Y-63159980D01*
X140505041Y-63159980D02*
X140457422Y-63207600D01*
X140457422Y-63207600D02*
X140362184Y-63255219D01*
X140362184Y-63255219D02*
X139981232Y-63255219D01*
X139981232Y-63255219D02*
X139981232Y-62255219D01*
X139981232Y-62255219D02*
X140314565Y-62255219D01*
X140314565Y-62255219D02*
X140409803Y-62302838D01*
X140409803Y-62302838D02*
X140457422Y-62350457D01*
X140457422Y-62350457D02*
X140505041Y-62445695D01*
X140505041Y-62445695D02*
X140505041Y-62540933D01*
X140505041Y-62540933D02*
X140457422Y-62636171D01*
X140457422Y-62636171D02*
X140409803Y-62683790D01*
X140409803Y-62683790D02*
X140314565Y-62731409D01*
X140314565Y-62731409D02*
X139981232Y-62731409D01*
X141409803Y-62588552D02*
X141409803Y-63255219D01*
X140981232Y-62588552D02*
X140981232Y-63112361D01*
X140981232Y-63112361D02*
X141028851Y-63207600D01*
X141028851Y-63207600D02*
X141124089Y-63255219D01*
X141124089Y-63255219D02*
X141266946Y-63255219D01*
X141266946Y-63255219D02*
X141362184Y-63207600D01*
X141362184Y-63207600D02*
X141409803Y-63159980D01*
X141885994Y-63255219D02*
X141885994Y-62588552D01*
X141885994Y-62683790D02*
X141933613Y-62636171D01*
X141933613Y-62636171D02*
X142028851Y-62588552D01*
X142028851Y-62588552D02*
X142171708Y-62588552D01*
X142171708Y-62588552D02*
X142266946Y-62636171D01*
X142266946Y-62636171D02*
X142314565Y-62731409D01*
X142314565Y-62731409D02*
X142314565Y-63255219D01*
X142314565Y-62731409D02*
X142362184Y-62636171D01*
X142362184Y-62636171D02*
X142457422Y-62588552D01*
X142457422Y-62588552D02*
X142600279Y-62588552D01*
X142600279Y-62588552D02*
X142695518Y-62636171D01*
X142695518Y-62636171D02*
X142743137Y-62731409D01*
X142743137Y-62731409D02*
X142743137Y-63255219D01*
X143219327Y-62588552D02*
X143219327Y-63588552D01*
X143219327Y-62636171D02*
X143314565Y-62588552D01*
X143314565Y-62588552D02*
X143505041Y-62588552D01*
X143505041Y-62588552D02*
X143600279Y-62636171D01*
X143600279Y-62636171D02*
X143647898Y-62683790D01*
X143647898Y-62683790D02*
X143695517Y-62779028D01*
X143695517Y-62779028D02*
X143695517Y-63064742D01*
X143695517Y-63064742D02*
X143647898Y-63159980D01*
X143647898Y-63159980D02*
X143600279Y-63207600D01*
X143600279Y-63207600D02*
X143505041Y-63255219D01*
X143505041Y-63255219D02*
X143314565Y-63255219D01*
X143314565Y-63255219D02*
X143219327Y-63207600D01*
X144505041Y-63207600D02*
X144409803Y-63255219D01*
X144409803Y-63255219D02*
X144219327Y-63255219D01*
X144219327Y-63255219D02*
X144124089Y-63207600D01*
X144124089Y-63207600D02*
X144076470Y-63112361D01*
X144076470Y-63112361D02*
X144076470Y-62731409D01*
X144076470Y-62731409D02*
X144124089Y-62636171D01*
X144124089Y-62636171D02*
X144219327Y-62588552D01*
X144219327Y-62588552D02*
X144409803Y-62588552D01*
X144409803Y-62588552D02*
X144505041Y-62636171D01*
X144505041Y-62636171D02*
X144552660Y-62731409D01*
X144552660Y-62731409D02*
X144552660Y-62826647D01*
X144552660Y-62826647D02*
X144076470Y-62921885D01*
X144981232Y-63255219D02*
X144981232Y-62588552D01*
X144981232Y-62779028D02*
X145028851Y-62683790D01*
X145028851Y-62683790D02*
X145076470Y-62636171D01*
X145076470Y-62636171D02*
X145171708Y-62588552D01*
X145171708Y-62588552D02*
X145266946Y-62588552D01*
X145362185Y-63350457D02*
X146124089Y-63350457D01*
X146219328Y-62588552D02*
X146600280Y-62588552D01*
X146362185Y-63255219D02*
X146362185Y-62398076D01*
X146362185Y-62398076D02*
X146409804Y-62302838D01*
X146409804Y-62302838D02*
X146505042Y-62255219D01*
X146505042Y-62255219D02*
X146600280Y-62255219D01*
X146933614Y-63255219D02*
X146933614Y-62588552D01*
X146933614Y-62779028D02*
X146981233Y-62683790D01*
X146981233Y-62683790D02*
X147028852Y-62636171D01*
X147028852Y-62636171D02*
X147124090Y-62588552D01*
X147124090Y-62588552D02*
X147219328Y-62588552D01*
X147695519Y-63255219D02*
X147600281Y-63207600D01*
X147600281Y-63207600D02*
X147552662Y-63159980D01*
X147552662Y-63159980D02*
X147505043Y-63064742D01*
X147505043Y-63064742D02*
X147505043Y-62779028D01*
X147505043Y-62779028D02*
X147552662Y-62683790D01*
X147552662Y-62683790D02*
X147600281Y-62636171D01*
X147600281Y-62636171D02*
X147695519Y-62588552D01*
X147695519Y-62588552D02*
X147838376Y-62588552D01*
X147838376Y-62588552D02*
X147933614Y-62636171D01*
X147933614Y-62636171D02*
X147981233Y-62683790D01*
X147981233Y-62683790D02*
X148028852Y-62779028D01*
X148028852Y-62779028D02*
X148028852Y-63064742D01*
X148028852Y-63064742D02*
X147981233Y-63159980D01*
X147981233Y-63159980D02*
X147933614Y-63207600D01*
X147933614Y-63207600D02*
X147838376Y-63255219D01*
X147838376Y-63255219D02*
X147695519Y-63255219D01*
X148457424Y-62588552D02*
X148457424Y-63255219D01*
X148457424Y-62683790D02*
X148505043Y-62636171D01*
X148505043Y-62636171D02*
X148600281Y-62588552D01*
X148600281Y-62588552D02*
X148743138Y-62588552D01*
X148743138Y-62588552D02*
X148838376Y-62636171D01*
X148838376Y-62636171D02*
X148885995Y-62731409D01*
X148885995Y-62731409D02*
X148885995Y-63255219D01*
X149219329Y-62588552D02*
X149600281Y-62588552D01*
X149362186Y-62255219D02*
X149362186Y-63112361D01*
X149362186Y-63112361D02*
X149409805Y-63207600D01*
X149409805Y-63207600D02*
X149505043Y-63255219D01*
X149505043Y-63255219D02*
X149600281Y-63255219D01*
X150457424Y-63255219D02*
X149885996Y-63255219D01*
X150171710Y-63255219D02*
X150171710Y-62255219D01*
X150171710Y-62255219D02*
X150076472Y-62398076D01*
X150076472Y-62398076D02*
X149981234Y-62493314D01*
X149981234Y-62493314D02*
X149885996Y-62540933D01*
X113824819Y-63615833D02*
X114539104Y-63615833D01*
X114539104Y-63615833D02*
X114681961Y-63663452D01*
X114681961Y-63663452D02*
X114777200Y-63758690D01*
X114777200Y-63758690D02*
X114824819Y-63901547D01*
X114824819Y-63901547D02*
X114824819Y-63996785D01*
X113824819Y-62711071D02*
X113824819Y-62901547D01*
X113824819Y-62901547D02*
X113872438Y-62996785D01*
X113872438Y-62996785D02*
X113920057Y-63044404D01*
X113920057Y-63044404D02*
X114062914Y-63139642D01*
X114062914Y-63139642D02*
X114253390Y-63187261D01*
X114253390Y-63187261D02*
X114634342Y-63187261D01*
X114634342Y-63187261D02*
X114729580Y-63139642D01*
X114729580Y-63139642D02*
X114777200Y-63092023D01*
X114777200Y-63092023D02*
X114824819Y-62996785D01*
X114824819Y-62996785D02*
X114824819Y-62806309D01*
X114824819Y-62806309D02*
X114777200Y-62711071D01*
X114777200Y-62711071D02*
X114729580Y-62663452D01*
X114729580Y-62663452D02*
X114634342Y-62615833D01*
X114634342Y-62615833D02*
X114396247Y-62615833D01*
X114396247Y-62615833D02*
X114301009Y-62663452D01*
X114301009Y-62663452D02*
X114253390Y-62711071D01*
X114253390Y-62711071D02*
X114205771Y-62806309D01*
X114205771Y-62806309D02*
X114205771Y-62996785D01*
X114205771Y-62996785D02*
X114253390Y-63092023D01*
X114253390Y-63092023D02*
X114301009Y-63139642D01*
X114301009Y-63139642D02*
X114396247Y-63187261D01*
X164917714Y-104815404D02*
X165393904Y-104815404D01*
X164822476Y-105101119D02*
X165155809Y-104101119D01*
X165155809Y-104101119D02*
X165489142Y-105101119D01*
X165774857Y-104196357D02*
X165822476Y-104148738D01*
X165822476Y-104148738D02*
X165917714Y-104101119D01*
X165917714Y-104101119D02*
X166155809Y-104101119D01*
X166155809Y-104101119D02*
X166251047Y-104148738D01*
X166251047Y-104148738D02*
X166298666Y-104196357D01*
X166298666Y-104196357D02*
X166346285Y-104291595D01*
X166346285Y-104291595D02*
X166346285Y-104386833D01*
X166346285Y-104386833D02*
X166298666Y-104529690D01*
X166298666Y-104529690D02*
X165727238Y-105101119D01*
X165727238Y-105101119D02*
X166346285Y-105101119D01*
X116129166Y-131367319D02*
X116129166Y-132081604D01*
X116129166Y-132081604D02*
X116081547Y-132224461D01*
X116081547Y-132224461D02*
X115986309Y-132319700D01*
X115986309Y-132319700D02*
X115843452Y-132367319D01*
X115843452Y-132367319D02*
X115748214Y-132367319D01*
X117129166Y-132367319D02*
X116557738Y-132367319D01*
X116843452Y-132367319D02*
X116843452Y-131367319D01*
X116843452Y-131367319D02*
X116748214Y-131510176D01*
X116748214Y-131510176D02*
X116652976Y-131605414D01*
X116652976Y-131605414D02*
X116557738Y-131653033D01*
X154261903Y-63607319D02*
X153928570Y-63131128D01*
X153690475Y-63607319D02*
X153690475Y-62607319D01*
X153690475Y-62607319D02*
X154071427Y-62607319D01*
X154071427Y-62607319D02*
X154166665Y-62654938D01*
X154166665Y-62654938D02*
X154214284Y-62702557D01*
X154214284Y-62702557D02*
X154261903Y-62797795D01*
X154261903Y-62797795D02*
X154261903Y-62940652D01*
X154261903Y-62940652D02*
X154214284Y-63035890D01*
X154214284Y-63035890D02*
X154166665Y-63083509D01*
X154166665Y-63083509D02*
X154071427Y-63131128D01*
X154071427Y-63131128D02*
X153690475Y-63131128D01*
X155071427Y-63559700D02*
X154976189Y-63607319D01*
X154976189Y-63607319D02*
X154785713Y-63607319D01*
X154785713Y-63607319D02*
X154690475Y-63559700D01*
X154690475Y-63559700D02*
X154642856Y-63464461D01*
X154642856Y-63464461D02*
X154642856Y-63083509D01*
X154642856Y-63083509D02*
X154690475Y-62988271D01*
X154690475Y-62988271D02*
X154785713Y-62940652D01*
X154785713Y-62940652D02*
X154976189Y-62940652D01*
X154976189Y-62940652D02*
X155071427Y-62988271D01*
X155071427Y-62988271D02*
X155119046Y-63083509D01*
X155119046Y-63083509D02*
X155119046Y-63178747D01*
X155119046Y-63178747D02*
X154642856Y-63273985D01*
X155547618Y-63607319D02*
X155547618Y-62607319D01*
X155976189Y-63607319D02*
X155976189Y-63083509D01*
X155976189Y-63083509D02*
X155928570Y-62988271D01*
X155928570Y-62988271D02*
X155833332Y-62940652D01*
X155833332Y-62940652D02*
X155690475Y-62940652D01*
X155690475Y-62940652D02*
X155595237Y-62988271D01*
X155595237Y-62988271D02*
X155547618Y-63035890D01*
X156357142Y-62940652D02*
X156595237Y-63607319D01*
X156833332Y-62940652D02*
X156595237Y-63607319D01*
X156595237Y-63607319D02*
X156499999Y-63845414D01*
X156499999Y-63845414D02*
X156452380Y-63893033D01*
X156452380Y-63893033D02*
X156357142Y-63940652D01*
X157642856Y-63607319D02*
X157642856Y-62607319D01*
X157642856Y-63559700D02*
X157547618Y-63607319D01*
X157547618Y-63607319D02*
X157357142Y-63607319D01*
X157357142Y-63607319D02*
X157261904Y-63559700D01*
X157261904Y-63559700D02*
X157214285Y-63512080D01*
X157214285Y-63512080D02*
X157166666Y-63416842D01*
X157166666Y-63416842D02*
X157166666Y-63131128D01*
X157166666Y-63131128D02*
X157214285Y-63035890D01*
X157214285Y-63035890D02*
X157261904Y-62988271D01*
X157261904Y-62988271D02*
X157357142Y-62940652D01*
X157357142Y-62940652D02*
X157547618Y-62940652D01*
X157547618Y-62940652D02*
X157642856Y-62988271D01*
X158119047Y-63607319D02*
X158119047Y-62940652D01*
X158119047Y-63131128D02*
X158166666Y-63035890D01*
X158166666Y-63035890D02*
X158214285Y-62988271D01*
X158214285Y-62988271D02*
X158309523Y-62940652D01*
X158309523Y-62940652D02*
X158404761Y-62940652D01*
X159166666Y-63607319D02*
X159166666Y-63083509D01*
X159166666Y-63083509D02*
X159119047Y-62988271D01*
X159119047Y-62988271D02*
X159023809Y-62940652D01*
X159023809Y-62940652D02*
X158833333Y-62940652D01*
X158833333Y-62940652D02*
X158738095Y-62988271D01*
X159166666Y-63559700D02*
X159071428Y-63607319D01*
X159071428Y-63607319D02*
X158833333Y-63607319D01*
X158833333Y-63607319D02*
X158738095Y-63559700D01*
X158738095Y-63559700D02*
X158690476Y-63464461D01*
X158690476Y-63464461D02*
X158690476Y-63369223D01*
X158690476Y-63369223D02*
X158738095Y-63273985D01*
X158738095Y-63273985D02*
X158833333Y-63226366D01*
X158833333Y-63226366D02*
X159071428Y-63226366D01*
X159071428Y-63226366D02*
X159166666Y-63178747D01*
X159500000Y-62940652D02*
X159880952Y-62940652D01*
X159642857Y-62607319D02*
X159642857Y-63464461D01*
X159642857Y-63464461D02*
X159690476Y-63559700D01*
X159690476Y-63559700D02*
X159785714Y-63607319D01*
X159785714Y-63607319D02*
X159880952Y-63607319D01*
X160214286Y-63607319D02*
X160214286Y-62940652D01*
X160214286Y-62607319D02*
X160166667Y-62654938D01*
X160166667Y-62654938D02*
X160214286Y-62702557D01*
X160214286Y-62702557D02*
X160261905Y-62654938D01*
X160261905Y-62654938D02*
X160214286Y-62607319D01*
X160214286Y-62607319D02*
X160214286Y-62702557D01*
X160833333Y-63607319D02*
X160738095Y-63559700D01*
X160738095Y-63559700D02*
X160690476Y-63512080D01*
X160690476Y-63512080D02*
X160642857Y-63416842D01*
X160642857Y-63416842D02*
X160642857Y-63131128D01*
X160642857Y-63131128D02*
X160690476Y-63035890D01*
X160690476Y-63035890D02*
X160738095Y-62988271D01*
X160738095Y-62988271D02*
X160833333Y-62940652D01*
X160833333Y-62940652D02*
X160976190Y-62940652D01*
X160976190Y-62940652D02*
X161071428Y-62988271D01*
X161071428Y-62988271D02*
X161119047Y-63035890D01*
X161119047Y-63035890D02*
X161166666Y-63131128D01*
X161166666Y-63131128D02*
X161166666Y-63416842D01*
X161166666Y-63416842D02*
X161119047Y-63512080D01*
X161119047Y-63512080D02*
X161071428Y-63559700D01*
X161071428Y-63559700D02*
X160976190Y-63607319D01*
X160976190Y-63607319D02*
X160833333Y-63607319D01*
X161595238Y-62940652D02*
X161595238Y-63607319D01*
X161595238Y-63035890D02*
X161642857Y-62988271D01*
X161642857Y-62988271D02*
X161738095Y-62940652D01*
X161738095Y-62940652D02*
X161880952Y-62940652D01*
X161880952Y-62940652D02*
X161976190Y-62988271D01*
X161976190Y-62988271D02*
X162023809Y-63083509D01*
X162023809Y-63083509D02*
X162023809Y-63607319D01*
X162261905Y-63702557D02*
X163023809Y-63702557D01*
X163119048Y-62940652D02*
X163500000Y-62940652D01*
X163261905Y-63607319D02*
X163261905Y-62750176D01*
X163261905Y-62750176D02*
X163309524Y-62654938D01*
X163309524Y-62654938D02*
X163404762Y-62607319D01*
X163404762Y-62607319D02*
X163500000Y-62607319D01*
X163833334Y-63607319D02*
X163833334Y-62940652D01*
X163833334Y-63131128D02*
X163880953Y-63035890D01*
X163880953Y-63035890D02*
X163928572Y-62988271D01*
X163928572Y-62988271D02*
X164023810Y-62940652D01*
X164023810Y-62940652D02*
X164119048Y-62940652D01*
X164595239Y-63607319D02*
X164500001Y-63559700D01*
X164500001Y-63559700D02*
X164452382Y-63512080D01*
X164452382Y-63512080D02*
X164404763Y-63416842D01*
X164404763Y-63416842D02*
X164404763Y-63131128D01*
X164404763Y-63131128D02*
X164452382Y-63035890D01*
X164452382Y-63035890D02*
X164500001Y-62988271D01*
X164500001Y-62988271D02*
X164595239Y-62940652D01*
X164595239Y-62940652D02*
X164738096Y-62940652D01*
X164738096Y-62940652D02*
X164833334Y-62988271D01*
X164833334Y-62988271D02*
X164880953Y-63035890D01*
X164880953Y-63035890D02*
X164928572Y-63131128D01*
X164928572Y-63131128D02*
X164928572Y-63416842D01*
X164928572Y-63416842D02*
X164880953Y-63512080D01*
X164880953Y-63512080D02*
X164833334Y-63559700D01*
X164833334Y-63559700D02*
X164738096Y-63607319D01*
X164738096Y-63607319D02*
X164595239Y-63607319D01*
X165357144Y-62940652D02*
X165357144Y-63607319D01*
X165357144Y-63035890D02*
X165404763Y-62988271D01*
X165404763Y-62988271D02*
X165500001Y-62940652D01*
X165500001Y-62940652D02*
X165642858Y-62940652D01*
X165642858Y-62940652D02*
X165738096Y-62988271D01*
X165738096Y-62988271D02*
X165785715Y-63083509D01*
X165785715Y-63083509D02*
X165785715Y-63607319D01*
X166119049Y-62940652D02*
X166500001Y-62940652D01*
X166261906Y-62607319D02*
X166261906Y-63464461D01*
X166261906Y-63464461D02*
X166309525Y-63559700D01*
X166309525Y-63559700D02*
X166404763Y-63607319D01*
X166404763Y-63607319D02*
X166500001Y-63607319D01*
X167357144Y-63607319D02*
X166785716Y-63607319D01*
X167071430Y-63607319D02*
X167071430Y-62607319D01*
X167071430Y-62607319D02*
X166976192Y-62750176D01*
X166976192Y-62750176D02*
X166880954Y-62845414D01*
X166880954Y-62845414D02*
X166785716Y-62893033D01*
X111494457Y-120474938D02*
X111446838Y-120570176D01*
X111446838Y-120570176D02*
X111351600Y-120665414D01*
X111351600Y-120665414D02*
X111208742Y-120808271D01*
X111208742Y-120808271D02*
X111161123Y-120903509D01*
X111161123Y-120903509D02*
X111161123Y-120998747D01*
X111399219Y-120951128D02*
X111351600Y-121046366D01*
X111351600Y-121046366D02*
X111256361Y-121141604D01*
X111256361Y-121141604D02*
X111065885Y-121189223D01*
X111065885Y-121189223D02*
X110732552Y-121189223D01*
X110732552Y-121189223D02*
X110542076Y-121141604D01*
X110542076Y-121141604D02*
X110446838Y-121046366D01*
X110446838Y-121046366D02*
X110399219Y-120951128D01*
X110399219Y-120951128D02*
X110399219Y-120760652D01*
X110399219Y-120760652D02*
X110446838Y-120665414D01*
X110446838Y-120665414D02*
X110542076Y-120570176D01*
X110542076Y-120570176D02*
X110732552Y-120522557D01*
X110732552Y-120522557D02*
X111065885Y-120522557D01*
X111065885Y-120522557D02*
X111256361Y-120570176D01*
X111256361Y-120570176D02*
X111351600Y-120665414D01*
X111351600Y-120665414D02*
X111399219Y-120760652D01*
X111399219Y-120760652D02*
X111399219Y-120951128D01*
X111399219Y-119570176D02*
X111399219Y-120141604D01*
X111399219Y-119855890D02*
X110399219Y-119855890D01*
X110399219Y-119855890D02*
X110542076Y-119951128D01*
X110542076Y-119951128D02*
X110637314Y-120046366D01*
X110637314Y-120046366D02*
X110684933Y-120141604D01*
X108074819Y-86583333D02*
X108789104Y-86583333D01*
X108789104Y-86583333D02*
X108931961Y-86630952D01*
X108931961Y-86630952D02*
X109027200Y-86726190D01*
X109027200Y-86726190D02*
X109074819Y-86869047D01*
X109074819Y-86869047D02*
X109074819Y-86964285D01*
X108170057Y-86154761D02*
X108122438Y-86107142D01*
X108122438Y-86107142D02*
X108074819Y-86011904D01*
X108074819Y-86011904D02*
X108074819Y-85773809D01*
X108074819Y-85773809D02*
X108122438Y-85678571D01*
X108122438Y-85678571D02*
X108170057Y-85630952D01*
X108170057Y-85630952D02*
X108265295Y-85583333D01*
X108265295Y-85583333D02*
X108360533Y-85583333D01*
X108360533Y-85583333D02*
X108503390Y-85630952D01*
X108503390Y-85630952D02*
X109074819Y-86202380D01*
X109074819Y-86202380D02*
X109074819Y-85583333D01*
X116725914Y-75883104D02*
X117202104Y-75883104D01*
X116630676Y-76168819D02*
X116964009Y-75168819D01*
X116964009Y-75168819D02*
X117297342Y-76168819D01*
X118154485Y-76168819D02*
X117583057Y-76168819D01*
X117868771Y-76168819D02*
X117868771Y-75168819D01*
X117868771Y-75168819D02*
X117773533Y-75311676D01*
X117773533Y-75311676D02*
X117678295Y-75406914D01*
X117678295Y-75406914D02*
X117583057Y-75454533D01*
X111400157Y-113790638D02*
X111352538Y-113885876D01*
X111352538Y-113885876D02*
X111257300Y-113981114D01*
X111257300Y-113981114D02*
X111114442Y-114123971D01*
X111114442Y-114123971D02*
X111066823Y-114219209D01*
X111066823Y-114219209D02*
X111066823Y-114314447D01*
X111304919Y-114266828D02*
X111257300Y-114362066D01*
X111257300Y-114362066D02*
X111162061Y-114457304D01*
X111162061Y-114457304D02*
X110971585Y-114504923D01*
X110971585Y-114504923D02*
X110638252Y-114504923D01*
X110638252Y-114504923D02*
X110447776Y-114457304D01*
X110447776Y-114457304D02*
X110352538Y-114362066D01*
X110352538Y-114362066D02*
X110304919Y-114266828D01*
X110304919Y-114266828D02*
X110304919Y-114076352D01*
X110304919Y-114076352D02*
X110352538Y-113981114D01*
X110352538Y-113981114D02*
X110447776Y-113885876D01*
X110447776Y-113885876D02*
X110638252Y-113838257D01*
X110638252Y-113838257D02*
X110971585Y-113838257D01*
X110971585Y-113838257D02*
X111162061Y-113885876D01*
X111162061Y-113885876D02*
X111257300Y-113981114D01*
X111257300Y-113981114D02*
X111304919Y-114076352D01*
X111304919Y-114076352D02*
X111304919Y-114266828D01*
X110400157Y-113457304D02*
X110352538Y-113409685D01*
X110352538Y-113409685D02*
X110304919Y-113314447D01*
X110304919Y-113314447D02*
X110304919Y-113076352D01*
X110304919Y-113076352D02*
X110352538Y-112981114D01*
X110352538Y-112981114D02*
X110400157Y-112933495D01*
X110400157Y-112933495D02*
X110495395Y-112885876D01*
X110495395Y-112885876D02*
X110590633Y-112885876D01*
X110590633Y-112885876D02*
X110733490Y-112933495D01*
X110733490Y-112933495D02*
X111304919Y-113504923D01*
X111304919Y-113504923D02*
X111304919Y-112885876D01*
X172307719Y-78990077D02*
X171831528Y-79323410D01*
X172307719Y-79561505D02*
X171307719Y-79561505D01*
X171307719Y-79561505D02*
X171307719Y-79180553D01*
X171307719Y-79180553D02*
X171355338Y-79085315D01*
X171355338Y-79085315D02*
X171402957Y-79037696D01*
X171402957Y-79037696D02*
X171498195Y-78990077D01*
X171498195Y-78990077D02*
X171641052Y-78990077D01*
X171641052Y-78990077D02*
X171736290Y-79037696D01*
X171736290Y-79037696D02*
X171783909Y-79085315D01*
X171783909Y-79085315D02*
X171831528Y-79180553D01*
X171831528Y-79180553D02*
X171831528Y-79561505D01*
X172260100Y-78180553D02*
X172307719Y-78275791D01*
X172307719Y-78275791D02*
X172307719Y-78466267D01*
X172307719Y-78466267D02*
X172260100Y-78561505D01*
X172260100Y-78561505D02*
X172164861Y-78609124D01*
X172164861Y-78609124D02*
X171783909Y-78609124D01*
X171783909Y-78609124D02*
X171688671Y-78561505D01*
X171688671Y-78561505D02*
X171641052Y-78466267D01*
X171641052Y-78466267D02*
X171641052Y-78275791D01*
X171641052Y-78275791D02*
X171688671Y-78180553D01*
X171688671Y-78180553D02*
X171783909Y-78132934D01*
X171783909Y-78132934D02*
X171879147Y-78132934D01*
X171879147Y-78132934D02*
X171974385Y-78609124D01*
X172307719Y-77704362D02*
X171307719Y-77704362D01*
X172307719Y-77275791D02*
X171783909Y-77275791D01*
X171783909Y-77275791D02*
X171688671Y-77323410D01*
X171688671Y-77323410D02*
X171641052Y-77418648D01*
X171641052Y-77418648D02*
X171641052Y-77561505D01*
X171641052Y-77561505D02*
X171688671Y-77656743D01*
X171688671Y-77656743D02*
X171736290Y-77704362D01*
X171641052Y-76894838D02*
X172307719Y-76656743D01*
X171641052Y-76418648D02*
X172307719Y-76656743D01*
X172307719Y-76656743D02*
X172545814Y-76751981D01*
X172545814Y-76751981D02*
X172593433Y-76799600D01*
X172593433Y-76799600D02*
X172641052Y-76894838D01*
X172307719Y-75609124D02*
X171307719Y-75609124D01*
X172260100Y-75609124D02*
X172307719Y-75704362D01*
X172307719Y-75704362D02*
X172307719Y-75894838D01*
X172307719Y-75894838D02*
X172260100Y-75990076D01*
X172260100Y-75990076D02*
X172212480Y-76037695D01*
X172212480Y-76037695D02*
X172117242Y-76085314D01*
X172117242Y-76085314D02*
X171831528Y-76085314D01*
X171831528Y-76085314D02*
X171736290Y-76037695D01*
X171736290Y-76037695D02*
X171688671Y-75990076D01*
X171688671Y-75990076D02*
X171641052Y-75894838D01*
X171641052Y-75894838D02*
X171641052Y-75704362D01*
X171641052Y-75704362D02*
X171688671Y-75609124D01*
X172307719Y-75132933D02*
X171641052Y-75132933D01*
X171831528Y-75132933D02*
X171736290Y-75085314D01*
X171736290Y-75085314D02*
X171688671Y-75037695D01*
X171688671Y-75037695D02*
X171641052Y-74942457D01*
X171641052Y-74942457D02*
X171641052Y-74847219D01*
X172307719Y-74085314D02*
X171783909Y-74085314D01*
X171783909Y-74085314D02*
X171688671Y-74132933D01*
X171688671Y-74132933D02*
X171641052Y-74228171D01*
X171641052Y-74228171D02*
X171641052Y-74418647D01*
X171641052Y-74418647D02*
X171688671Y-74513885D01*
X172260100Y-74085314D02*
X172307719Y-74180552D01*
X172307719Y-74180552D02*
X172307719Y-74418647D01*
X172307719Y-74418647D02*
X172260100Y-74513885D01*
X172260100Y-74513885D02*
X172164861Y-74561504D01*
X172164861Y-74561504D02*
X172069623Y-74561504D01*
X172069623Y-74561504D02*
X171974385Y-74513885D01*
X171974385Y-74513885D02*
X171926766Y-74418647D01*
X171926766Y-74418647D02*
X171926766Y-74180552D01*
X171926766Y-74180552D02*
X171879147Y-74085314D01*
X171641052Y-73751980D02*
X171641052Y-73371028D01*
X171307719Y-73609123D02*
X172164861Y-73609123D01*
X172164861Y-73609123D02*
X172260100Y-73561504D01*
X172260100Y-73561504D02*
X172307719Y-73466266D01*
X172307719Y-73466266D02*
X172307719Y-73371028D01*
X172307719Y-73037694D02*
X171641052Y-73037694D01*
X171307719Y-73037694D02*
X171355338Y-73085313D01*
X171355338Y-73085313D02*
X171402957Y-73037694D01*
X171402957Y-73037694D02*
X171355338Y-72990075D01*
X171355338Y-72990075D02*
X171307719Y-73037694D01*
X171307719Y-73037694D02*
X171402957Y-73037694D01*
X172307719Y-72418647D02*
X172260100Y-72513885D01*
X172260100Y-72513885D02*
X172212480Y-72561504D01*
X172212480Y-72561504D02*
X172117242Y-72609123D01*
X172117242Y-72609123D02*
X171831528Y-72609123D01*
X171831528Y-72609123D02*
X171736290Y-72561504D01*
X171736290Y-72561504D02*
X171688671Y-72513885D01*
X171688671Y-72513885D02*
X171641052Y-72418647D01*
X171641052Y-72418647D02*
X171641052Y-72275790D01*
X171641052Y-72275790D02*
X171688671Y-72180552D01*
X171688671Y-72180552D02*
X171736290Y-72132933D01*
X171736290Y-72132933D02*
X171831528Y-72085314D01*
X171831528Y-72085314D02*
X172117242Y-72085314D01*
X172117242Y-72085314D02*
X172212480Y-72132933D01*
X172212480Y-72132933D02*
X172260100Y-72180552D01*
X172260100Y-72180552D02*
X172307719Y-72275790D01*
X172307719Y-72275790D02*
X172307719Y-72418647D01*
X171641052Y-71656742D02*
X172307719Y-71656742D01*
X171736290Y-71656742D02*
X171688671Y-71609123D01*
X171688671Y-71609123D02*
X171641052Y-71513885D01*
X171641052Y-71513885D02*
X171641052Y-71371028D01*
X171641052Y-71371028D02*
X171688671Y-71275790D01*
X171688671Y-71275790D02*
X171783909Y-71228171D01*
X171783909Y-71228171D02*
X172307719Y-71228171D01*
X172402957Y-70990076D02*
X172402957Y-70228171D01*
X172307719Y-69990075D02*
X171307719Y-69990075D01*
X171688671Y-69990075D02*
X171641052Y-69894837D01*
X171641052Y-69894837D02*
X171641052Y-69704361D01*
X171641052Y-69704361D02*
X171688671Y-69609123D01*
X171688671Y-69609123D02*
X171736290Y-69561504D01*
X171736290Y-69561504D02*
X171831528Y-69513885D01*
X171831528Y-69513885D02*
X172117242Y-69513885D01*
X172117242Y-69513885D02*
X172212480Y-69561504D01*
X172212480Y-69561504D02*
X172260100Y-69609123D01*
X172260100Y-69609123D02*
X172307719Y-69704361D01*
X172307719Y-69704361D02*
X172307719Y-69894837D01*
X172307719Y-69894837D02*
X172260100Y-69990075D01*
X172307719Y-68656742D02*
X171783909Y-68656742D01*
X171783909Y-68656742D02*
X171688671Y-68704361D01*
X171688671Y-68704361D02*
X171641052Y-68799599D01*
X171641052Y-68799599D02*
X171641052Y-68990075D01*
X171641052Y-68990075D02*
X171688671Y-69085313D01*
X172260100Y-68656742D02*
X172307719Y-68751980D01*
X172307719Y-68751980D02*
X172307719Y-68990075D01*
X172307719Y-68990075D02*
X172260100Y-69085313D01*
X172260100Y-69085313D02*
X172164861Y-69132932D01*
X172164861Y-69132932D02*
X172069623Y-69132932D01*
X172069623Y-69132932D02*
X171974385Y-69085313D01*
X171974385Y-69085313D02*
X171926766Y-68990075D01*
X171926766Y-68990075D02*
X171926766Y-68751980D01*
X171926766Y-68751980D02*
X171879147Y-68656742D01*
X172260100Y-67751980D02*
X172307719Y-67847218D01*
X172307719Y-67847218D02*
X172307719Y-68037694D01*
X172307719Y-68037694D02*
X172260100Y-68132932D01*
X172260100Y-68132932D02*
X172212480Y-68180551D01*
X172212480Y-68180551D02*
X172117242Y-68228170D01*
X172117242Y-68228170D02*
X171831528Y-68228170D01*
X171831528Y-68228170D02*
X171736290Y-68180551D01*
X171736290Y-68180551D02*
X171688671Y-68132932D01*
X171688671Y-68132932D02*
X171641052Y-68037694D01*
X171641052Y-68037694D02*
X171641052Y-67847218D01*
X171641052Y-67847218D02*
X171688671Y-67751980D01*
X172307719Y-67323408D02*
X171307719Y-67323408D01*
X171926766Y-67228170D02*
X172307719Y-66942456D01*
X171641052Y-66942456D02*
X172022004Y-67323408D01*
X172307719Y-65990075D02*
X172307719Y-66561503D01*
X172307719Y-66275789D02*
X171307719Y-66275789D01*
X171307719Y-66275789D02*
X171450576Y-66371027D01*
X171450576Y-66371027D02*
X171545814Y-66466265D01*
X171545814Y-66466265D02*
X171593433Y-66561503D01*
X98274719Y-117684233D02*
X98989004Y-117684233D01*
X98989004Y-117684233D02*
X99131861Y-117731852D01*
X99131861Y-117731852D02*
X99227100Y-117827090D01*
X99227100Y-117827090D02*
X99274719Y-117969947D01*
X99274719Y-117969947D02*
X99274719Y-118065185D01*
X98274719Y-116731852D02*
X98274719Y-117208042D01*
X98274719Y-117208042D02*
X98750909Y-117255661D01*
X98750909Y-117255661D02*
X98703290Y-117208042D01*
X98703290Y-117208042D02*
X98655671Y-117112804D01*
X98655671Y-117112804D02*
X98655671Y-116874709D01*
X98655671Y-116874709D02*
X98703290Y-116779471D01*
X98703290Y-116779471D02*
X98750909Y-116731852D01*
X98750909Y-116731852D02*
X98846147Y-116684233D01*
X98846147Y-116684233D02*
X99084242Y-116684233D01*
X99084242Y-116684233D02*
X99179480Y-116731852D01*
X99179480Y-116731852D02*
X99227100Y-116779471D01*
X99227100Y-116779471D02*
X99274719Y-116874709D01*
X99274719Y-116874709D02*
X99274719Y-117112804D01*
X99274719Y-117112804D02*
X99227100Y-117208042D01*
X99227100Y-117208042D02*
X99179480Y-117255661D01*
D11*
%TO.C,vd_r1*%
X123110436Y-68267500D02*
X123564564Y-68267500D01*
X123110436Y-66797500D02*
X123564564Y-66797500D01*
%TO.C,vd_c2*%
X117298248Y-68508000D02*
X117820752Y-68508000D01*
X117298248Y-67038000D02*
X117820752Y-67038000D01*
%TO.C,vd_c1*%
X124196348Y-73425100D02*
X124718852Y-73425100D01*
X124196348Y-71955100D02*
X124718852Y-71955100D01*
%TO.C,reg_co1*%
X128901248Y-135267500D02*
X129423752Y-135267500D01*
X128901248Y-133797500D02*
X129423752Y-133797500D01*
%TO.C,reg_ci1*%
X128951248Y-139767500D02*
X129473752Y-139767500D01*
X128951248Y-138297500D02*
X129473752Y-138297500D01*
%TO.C,Regulator1*%
X145177500Y-139617500D02*
X144497500Y-139617500D01*
X144837500Y-139147500D01*
X145177500Y-139617500D01*
G36*
X145177500Y-139617500D02*
G01*
X144497500Y-139617500D01*
X144837500Y-139147500D01*
X145177500Y-139617500D01*
G37*
X136687500Y-132557500D02*
X143107500Y-132557500D01*
X136687500Y-139457500D02*
X143107500Y-139457500D01*
X143107500Y-132557500D02*
X143107500Y-132827500D01*
X143107500Y-139457500D02*
X143107500Y-139187500D01*
%TO.C,motor_c1*%
X140479548Y-128289200D02*
X141002052Y-128289200D01*
X140479548Y-126819200D02*
X141002052Y-126819200D01*
%TO.C,mix3*%
X121785100Y-107834964D02*
X121785100Y-107380836D01*
X120315100Y-107834964D02*
X120315100Y-107380836D01*
%TO.C,mix2*%
X122285100Y-114334964D02*
X122285100Y-113880836D01*
X120815100Y-114334964D02*
X120815100Y-113880836D01*
%TO.C,mix1*%
X122105200Y-121079264D02*
X122105200Y-120625136D01*
X120635200Y-121079264D02*
X120635200Y-120625136D01*
%TO.C,ExtraTerminalBlock1*%
X169275000Y-138557400D02*
X169275000Y-130517400D01*
X169275000Y-138557400D02*
X148535000Y-138557400D01*
X169275000Y-134937400D02*
X168035000Y-134937400D01*
X169275000Y-133937400D02*
X168035000Y-133937400D01*
X169275000Y-132637400D02*
X168035000Y-132637400D01*
X169275000Y-130517400D02*
X166455000Y-130517400D01*
X165855000Y-130517400D02*
X148535000Y-130517400D01*
X164275000Y-134937400D02*
X162967000Y-134937400D01*
X164275000Y-133937400D02*
X162967000Y-133937400D01*
X164275000Y-132637400D02*
X161698000Y-132637400D01*
X160612000Y-132637400D02*
X156698000Y-132637400D01*
X159343000Y-134937400D02*
X157967000Y-134937400D01*
X159343000Y-133937400D02*
X157967000Y-133937400D01*
X155612000Y-132637400D02*
X151698000Y-132637400D01*
X154343000Y-134937400D02*
X152967000Y-134937400D01*
X154343000Y-133937400D02*
X152967000Y-133937400D01*
X150612000Y-132637400D02*
X148535000Y-132637400D01*
X149343000Y-134937400D02*
X148535000Y-134937400D01*
X149343000Y-133937400D02*
X148535000Y-133937400D01*
X148535000Y-138557400D02*
X148535000Y-130517400D01*
X166155000Y-130517400D02*
X165715000Y-129907400D01*
X166595000Y-129907400D01*
X166155000Y-130517400D01*
G36*
X166155000Y-130517400D02*
G01*
X165715000Y-129907400D01*
X166595000Y-129907400D01*
X166155000Y-130517400D01*
G37*
%TO.C,PTCFuse1*%
X114022936Y-127622500D02*
X115477064Y-127622500D01*
X114022936Y-129442500D02*
X115477064Y-129442500D01*
%TO.C,D1*%
X122472500Y-128532500D02*
X123492500Y-128532500D01*
X123492500Y-127062500D02*
X123492500Y-130002500D01*
X123492500Y-130002500D02*
X128932500Y-130002500D01*
X124272500Y-127062500D02*
X124272500Y-130002500D01*
X124392500Y-127062500D02*
X124392500Y-130002500D01*
X124512500Y-127062500D02*
X124512500Y-130002500D01*
X128932500Y-127062500D02*
X123492500Y-127062500D01*
X128932500Y-130002500D02*
X128932500Y-127062500D01*
X129952500Y-128532500D02*
X128932500Y-128532500D01*
%TO.C,Q3*%
X116100000Y-108345300D02*
X116100000Y-104745300D01*
X116088478Y-108383778D02*
G75*
G02*
X111649999Y-106545300I-1838478J1838478D01*
G01*
X111650000Y-106545300D02*
G75*
G02*
X116088478Y-104706822I2600000J0D01*
G01*
%TO.C,J3*%
X160911500Y-107446700D02*
X168951500Y-107446700D01*
X160911500Y-128186700D02*
X160911500Y-107446700D01*
X160911500Y-128186700D02*
X168951500Y-128186700D01*
X164531500Y-108254700D02*
X164531500Y-107446700D01*
X164531500Y-113254700D02*
X164531500Y-111878700D01*
X164531500Y-118254700D02*
X164531500Y-116878700D01*
X164531500Y-123186700D02*
X164531500Y-121878700D01*
X164531500Y-128186700D02*
X164531500Y-126946700D01*
X165531500Y-108254700D02*
X165531500Y-107446700D01*
X165531500Y-113254700D02*
X165531500Y-111878700D01*
X165531500Y-118254700D02*
X165531500Y-116878700D01*
X165531500Y-123186700D02*
X165531500Y-121878700D01*
X165531500Y-128186700D02*
X165531500Y-126946700D01*
X166831500Y-109523700D02*
X166831500Y-107446700D01*
X166831500Y-114523700D02*
X166831500Y-110609700D01*
X166831500Y-119523700D02*
X166831500Y-115609700D01*
X166831500Y-123186700D02*
X166831500Y-120609700D01*
X166831500Y-128186700D02*
X166831500Y-126946700D01*
X168951500Y-124766700D02*
X168951500Y-107446700D01*
X168951500Y-128186700D02*
X168951500Y-125366700D01*
X169561500Y-125506700D02*
X168951500Y-125066700D01*
X169561500Y-124626700D01*
X169561500Y-125506700D01*
G36*
X169561500Y-125506700D02*
G01*
X168951500Y-125066700D01*
X169561500Y-124626700D01*
X169561500Y-125506700D01*
G37*
%TO.C,MovingBumper_back1*%
X116880000Y-53380000D02*
X116880000Y-61420000D01*
X116880000Y-53380000D02*
X132620000Y-53380000D01*
X116880000Y-57000000D02*
X118120000Y-57000000D01*
X116880000Y-58000000D02*
X118120000Y-58000000D01*
X116880000Y-59300000D02*
X118120000Y-59300000D01*
X116880000Y-61420000D02*
X119700000Y-61420000D01*
X120300000Y-61420000D02*
X132620000Y-61420000D01*
X121880000Y-57000000D02*
X123188000Y-57000000D01*
X121880000Y-58000000D02*
X123188000Y-58000000D01*
X121880000Y-59300000D02*
X124457000Y-59300000D01*
X125543000Y-59300000D02*
X129457000Y-59300000D01*
X126812000Y-57000000D02*
X128188000Y-57000000D01*
X126812000Y-58000000D02*
X128188000Y-58000000D01*
X130543000Y-59300000D02*
X132620000Y-59300000D01*
X131812000Y-57000000D02*
X132620000Y-57000000D01*
X131812000Y-58000000D02*
X132620000Y-58000000D01*
X132620000Y-53380000D02*
X132620000Y-61420000D01*
X120440000Y-62030000D02*
X119560000Y-62030000D01*
X120000000Y-61420000D01*
X120440000Y-62030000D01*
G36*
X120440000Y-62030000D02*
G01*
X119560000Y-62030000D01*
X120000000Y-61420000D01*
X120440000Y-62030000D01*
G37*
%TO.C,MovingBumper_front1*%
X134777900Y-61800400D02*
X134777900Y-53760400D01*
X135585900Y-57180400D02*
X134777900Y-57180400D01*
X135585900Y-58180400D02*
X134777900Y-58180400D01*
X136854900Y-55880400D02*
X134777900Y-55880400D01*
X140585900Y-57180400D02*
X139209900Y-57180400D01*
X140585900Y-58180400D02*
X139209900Y-58180400D01*
X141854900Y-55880400D02*
X137940900Y-55880400D01*
X145517900Y-55880400D02*
X142940900Y-55880400D01*
X145517900Y-57180400D02*
X144209900Y-57180400D01*
X145517900Y-58180400D02*
X144209900Y-58180400D01*
X147097900Y-53760400D02*
X134777900Y-53760400D01*
X150517900Y-53760400D02*
X147697900Y-53760400D01*
X150517900Y-55880400D02*
X149277900Y-55880400D01*
X150517900Y-57180400D02*
X149277900Y-57180400D01*
X150517900Y-58180400D02*
X149277900Y-58180400D01*
X150517900Y-61800400D02*
X134777900Y-61800400D01*
X150517900Y-61800400D02*
X150517900Y-53760400D01*
X147397900Y-53760400D02*
X146957900Y-53150400D01*
X147837900Y-53150400D01*
X147397900Y-53760400D01*
G36*
X147397900Y-53760400D02*
G01*
X146957900Y-53150400D01*
X147837900Y-53150400D01*
X147397900Y-53760400D01*
G37*
%TO.C,J6*%
X113370000Y-73652500D02*
X105330000Y-73652500D01*
X113370000Y-52912500D02*
X113370000Y-73652500D01*
X113370000Y-52912500D02*
X105330000Y-52912500D01*
X109750000Y-72844500D02*
X109750000Y-73652500D01*
X109750000Y-67844500D02*
X109750000Y-69220500D01*
X109750000Y-62844500D02*
X109750000Y-64220500D01*
X109750000Y-57912500D02*
X109750000Y-59220500D01*
X109750000Y-52912500D02*
X109750000Y-54152500D01*
X108750000Y-72844500D02*
X108750000Y-73652500D01*
X108750000Y-67844500D02*
X108750000Y-69220500D01*
X108750000Y-62844500D02*
X108750000Y-64220500D01*
X108750000Y-57912500D02*
X108750000Y-59220500D01*
X108750000Y-52912500D02*
X108750000Y-54152500D01*
X107450000Y-71575500D02*
X107450000Y-73652500D01*
X107450000Y-66575500D02*
X107450000Y-70489500D01*
X107450000Y-61575500D02*
X107450000Y-65489500D01*
X107450000Y-57912500D02*
X107450000Y-60489500D01*
X107450000Y-52912500D02*
X107450000Y-54152500D01*
X105330000Y-56332500D02*
X105330000Y-73652500D01*
X105330000Y-52912500D02*
X105330000Y-55732500D01*
X105330000Y-56032500D02*
X104720000Y-56472500D01*
X104720000Y-55592500D01*
X105330000Y-56032500D01*
G36*
X105330000Y-56032500D02*
G01*
X104720000Y-56472500D01*
X104720000Y-55592500D01*
X105330000Y-56032500D01*
G37*
%TO.C,ESP32-S3*%
X128590000Y-66292500D02*
X128590000Y-125172500D01*
X128590000Y-66292500D02*
X153990000Y-66292500D01*
X128590000Y-125172500D02*
X153990000Y-125172500D01*
X153990000Y-66292500D02*
X153990000Y-125172500D01*
%TO.C,A2*%
X173382000Y-103506300D02*
X173382000Y-102106300D01*
X173382000Y-100836300D02*
X173382000Y-82926300D01*
X173382000Y-82926300D02*
X157882000Y-82926300D01*
X171982000Y-103506300D02*
X173382000Y-103506300D01*
X170712000Y-103506300D02*
X170712000Y-100836300D01*
X170712000Y-100836300D02*
X173382000Y-100836300D01*
X170712000Y-100836300D02*
X170712000Y-82926300D01*
X160552000Y-103506300D02*
X160552000Y-82926300D01*
X157882000Y-103506300D02*
X170712000Y-103506300D01*
X157882000Y-82926300D02*
X157882000Y-103506300D01*
%TO.C,J1*%
X111092500Y-132912500D02*
X111092500Y-140952500D01*
X111092500Y-132912500D02*
X121832500Y-132912500D01*
X111092500Y-136532500D02*
X112332500Y-136532500D01*
X111092500Y-137532500D02*
X112332500Y-137532500D01*
X111092500Y-138832500D02*
X112332500Y-138832500D01*
X111092500Y-140952500D02*
X113912500Y-140952500D01*
X114512500Y-140952500D02*
X121832500Y-140952500D01*
X116092500Y-136532500D02*
X117400500Y-136532500D01*
X116092500Y-137532500D02*
X117400500Y-137532500D01*
X116092500Y-138832500D02*
X118669500Y-138832500D01*
X119755500Y-138832500D02*
X121832500Y-138832500D01*
X121024500Y-136532500D02*
X121832500Y-136532500D01*
X121024500Y-137532500D02*
X121832500Y-137532500D01*
X121832500Y-132912500D02*
X121832500Y-140952500D01*
X114652500Y-141562500D02*
X113772500Y-141562500D01*
X114212500Y-140952500D01*
X114652500Y-141562500D01*
G36*
X114652500Y-141562500D02*
G01*
X113772500Y-141562500D01*
X114212500Y-140952500D01*
X114652500Y-141562500D01*
G37*
%TO.C,Rehydration_front1*%
X152630000Y-62152500D02*
X152630000Y-54112500D01*
X168370000Y-62152500D02*
X152630000Y-62152500D01*
X168370000Y-62152500D02*
X168370000Y-54112500D01*
X153438000Y-58532500D02*
X152630000Y-58532500D01*
X158438000Y-58532500D02*
X157062000Y-58532500D01*
X163370000Y-58532500D02*
X162062000Y-58532500D01*
X168370000Y-58532500D02*
X167130000Y-58532500D01*
X153438000Y-57532500D02*
X152630000Y-57532500D01*
X158438000Y-57532500D02*
X157062000Y-57532500D01*
X163370000Y-57532500D02*
X162062000Y-57532500D01*
X168370000Y-57532500D02*
X167130000Y-57532500D01*
X154707000Y-56232500D02*
X152630000Y-56232500D01*
X159707000Y-56232500D02*
X155793000Y-56232500D01*
X163370000Y-56232500D02*
X160793000Y-56232500D01*
X168370000Y-56232500D02*
X167130000Y-56232500D01*
X164950000Y-54112500D02*
X152630000Y-54112500D01*
X168370000Y-54112500D02*
X165550000Y-54112500D01*
X165250000Y-54112500D02*
X164810000Y-53502500D01*
X165690000Y-53502500D01*
X165250000Y-54112500D01*
G36*
X165250000Y-54112500D02*
G01*
X164810000Y-53502500D01*
X165690000Y-53502500D01*
X165250000Y-54112500D01*
G37*
%TO.C,Q1*%
X116354400Y-122179700D02*
X116354400Y-118579700D01*
X116342878Y-122218178D02*
G75*
G02*
X111904399Y-120379700I-1838478J1838478D01*
G01*
X111904400Y-120379700D02*
G75*
G02*
X116342878Y-118541222I2600000J0D01*
G01*
%TO.C,J2*%
X107620000Y-96620000D02*
X99580000Y-96620000D01*
X107620000Y-75880000D02*
X107620000Y-96620000D01*
X107620000Y-75880000D02*
X99580000Y-75880000D01*
X104000000Y-95812000D02*
X104000000Y-96620000D01*
X104000000Y-90812000D02*
X104000000Y-92188000D01*
X104000000Y-85812000D02*
X104000000Y-87188000D01*
X104000000Y-80880000D02*
X104000000Y-82188000D01*
X104000000Y-75880000D02*
X104000000Y-77120000D01*
X103000000Y-95812000D02*
X103000000Y-96620000D01*
X103000000Y-90812000D02*
X103000000Y-92188000D01*
X103000000Y-85812000D02*
X103000000Y-87188000D01*
X103000000Y-80880000D02*
X103000000Y-82188000D01*
X103000000Y-75880000D02*
X103000000Y-77120000D01*
X101700000Y-94543000D02*
X101700000Y-96620000D01*
X101700000Y-89543000D02*
X101700000Y-93457000D01*
X101700000Y-84543000D02*
X101700000Y-88457000D01*
X101700000Y-80880000D02*
X101700000Y-83457000D01*
X101700000Y-75880000D02*
X101700000Y-77120000D01*
X99580000Y-79300000D02*
X99580000Y-96620000D01*
X99580000Y-75880000D02*
X99580000Y-78700000D01*
X99580000Y-79000000D02*
X98970000Y-79440000D01*
X98970000Y-78560000D01*
X99580000Y-79000000D01*
G36*
X99580000Y-79000000D02*
G01*
X98970000Y-79440000D01*
X98970000Y-78560000D01*
X99580000Y-79000000D01*
G37*
%TO.C,A1*%
X109690200Y-76854000D02*
X109690200Y-78254000D01*
X109690200Y-79524000D02*
X109690200Y-97434000D01*
X109690200Y-97434000D02*
X125190200Y-97434000D01*
X111090200Y-76854000D02*
X109690200Y-76854000D01*
X112360200Y-76854000D02*
X112360200Y-79524000D01*
X112360200Y-79524000D02*
X109690200Y-79524000D01*
X112360200Y-79524000D02*
X112360200Y-97434000D01*
X122520200Y-76854000D02*
X122520200Y-97434000D01*
X125190200Y-76854000D02*
X112360200Y-76854000D01*
X125190200Y-97434000D02*
X125190200Y-76854000D01*
%TO.C,Q2*%
X116260100Y-115495400D02*
X116260100Y-111895400D01*
X116248578Y-115533878D02*
G75*
G02*
X111810099Y-113695400I-1838478J1838478D01*
G01*
X111810100Y-113695400D02*
G75*
G02*
X116248578Y-111856922I2600000J0D01*
G01*
%TO.C,Rehydration_back1*%
X170852900Y-80669600D02*
X162812900Y-80669600D01*
X170852900Y-64929600D02*
X170852900Y-80669600D01*
X170852900Y-64929600D02*
X162812900Y-64929600D01*
X167232900Y-79861600D02*
X167232900Y-80669600D01*
X167232900Y-74861600D02*
X167232900Y-76237600D01*
X167232900Y-69929600D02*
X167232900Y-71237600D01*
X167232900Y-64929600D02*
X167232900Y-66169600D01*
X166232900Y-79861600D02*
X166232900Y-80669600D01*
X166232900Y-74861600D02*
X166232900Y-76237600D01*
X166232900Y-69929600D02*
X166232900Y-71237600D01*
X166232900Y-64929600D02*
X166232900Y-66169600D01*
X164932900Y-78592600D02*
X164932900Y-80669600D01*
X164932900Y-73592600D02*
X164932900Y-77506600D01*
X164932900Y-69929600D02*
X164932900Y-72506600D01*
X164932900Y-64929600D02*
X164932900Y-66169600D01*
X162812900Y-68349600D02*
X162812900Y-80669600D01*
X162812900Y-64929600D02*
X162812900Y-67749600D01*
X162812900Y-68049600D02*
X162202900Y-68489600D01*
X162202900Y-67609600D01*
X162812900Y-68049600D01*
G36*
X162812900Y-68049600D02*
G01*
X162202900Y-68489600D01*
X162202900Y-67609600D01*
X162812900Y-68049600D01*
G37*
%TO.C,J5*%
X99819900Y-101980900D02*
X107859900Y-101980900D01*
X99819900Y-132720900D02*
X99819900Y-101980900D01*
X99819900Y-132720900D02*
X107859900Y-132720900D01*
X103439900Y-102788900D02*
X103439900Y-101980900D01*
X103439900Y-107788900D02*
X103439900Y-106412900D01*
X103439900Y-112788900D02*
X103439900Y-111412900D01*
X103439900Y-117788900D02*
X103439900Y-116412900D01*
X103439900Y-122788900D02*
X103439900Y-121412900D01*
X103439900Y-127720900D02*
X103439900Y-126412900D01*
X103439900Y-132720900D02*
X103439900Y-131480900D01*
X104439900Y-102788900D02*
X104439900Y-101980900D01*
X104439900Y-107788900D02*
X104439900Y-106412900D01*
X104439900Y-112788900D02*
X104439900Y-111412900D01*
X104439900Y-117788900D02*
X104439900Y-116412900D01*
X104439900Y-122788900D02*
X104439900Y-121412900D01*
X104439900Y-127720900D02*
X104439900Y-126412900D01*
X104439900Y-132720900D02*
X104439900Y-131480900D01*
X105739900Y-104057900D02*
X105739900Y-101980900D01*
X105739900Y-109057900D02*
X105739900Y-105143900D01*
X105739900Y-114057900D02*
X105739900Y-110143900D01*
X105739900Y-119057900D02*
X105739900Y-115143900D01*
X105739900Y-124057900D02*
X105739900Y-120143900D01*
X105739900Y-127720900D02*
X105739900Y-125143900D01*
X105739900Y-132720900D02*
X105739900Y-131480900D01*
X107859900Y-129300900D02*
X107859900Y-101980900D01*
X107859900Y-132720900D02*
X107859900Y-129900900D01*
X108469900Y-130040900D02*
X107859900Y-129600900D01*
X108469900Y-129160900D01*
X108469900Y-130040900D01*
G36*
X108469900Y-130040900D02*
G01*
X107859900Y-129600900D01*
X108469900Y-129160900D01*
X108469900Y-130040900D01*
G37*
%TD*%
M02*
