%TF.GenerationSoftware,KiCad,Pcbnew,9.0.1*%
%TF.CreationDate,2025-05-12T12:50:35-07:00*%
%TF.ProjectId,pcb,7063622e-6b69-4636-9164-5f7063625858,rev?*%
%TF.SameCoordinates,Original*%
%TF.FileFunction,Soldermask,Bot*%
%TF.FilePolarity,Negative*%
%FSLAX46Y46*%
G04 Gerber Fmt 4.6, Leading zero omitted, Abs format (unit mm)*
G04 Created by KiCad (PCBNEW 9.0.1) date 2025-05-12 12:50:35*
%MOMM*%
%LPD*%
G01*
G04 APERTURE LIST*
G04 Aperture macros list*
%AMRoundRect*
0 Rectangle with rounded corners*
0 $1 Rounding radius*
0 $2 $3 $4 $5 $6 $7 $8 $9 X,Y pos of 4 corners*
0 Add a 4 corners polygon primitive as box body*
4,1,4,$2,$3,$4,$5,$6,$7,$8,$9,$2,$3,0*
0 Add four circle primitives for the rounded corners*
1,1,$1+$1,$2,$3*
1,1,$1+$1,$4,$5*
1,1,$1+$1,$6,$7*
1,1,$1+$1,$8,$9*
0 Add four rect primitives between the rounded corners*
20,1,$1+$1,$2,$3,$4,$5,0*
20,1,$1+$1,$4,$5,$6,$7,0*
20,1,$1+$1,$6,$7,$8,$9,0*
20,1,$1+$1,$8,$9,$2,$3,0*%
G04 Aperture macros list end*
%ADD10C,2.800000*%
%ADD11RoundRect,0.250001X1.149999X1.149999X-1.149999X1.149999X-1.149999X-1.149999X1.149999X-1.149999X0*%
%ADD12C,2.200000*%
%ADD13RoundRect,0.250001X-1.149999X1.149999X-1.149999X-1.149999X1.149999X-1.149999X1.149999X1.149999X0*%
%ADD14R,1.600000X1.600000*%
%ADD15C,1.600000*%
%ADD16R,2.200000X2.200000*%
%ADD17O,2.200000X2.200000*%
%ADD18O,1.600000X1.600000*%
%ADD19R,1.500000X1.050000*%
%ADD20O,1.500000X1.050000*%
%ADD21RoundRect,0.250001X1.149999X-1.149999X1.149999X1.149999X-1.149999X1.149999X-1.149999X-1.149999X0*%
%ADD22RoundRect,0.250001X-1.149999X-1.149999X1.149999X-1.149999X1.149999X1.149999X-1.149999X1.149999X0*%
%ADD23C,1.500000*%
G04 APERTURE END LIST*
D10*
%TO.C,Rehydration_front1*%
X155250000Y-59032500D03*
X160250000Y-59032500D03*
D11*
X165250000Y-59032500D03*
%TD*%
%TO.C,MovingBumper_front1*%
X147397900Y-57779300D03*
D10*
X142397900Y-57779300D03*
X137397900Y-57779300D03*
%TD*%
D12*
%TO.C,TL*%
X101500000Y-54000000D03*
%TD*%
D10*
%TO.C,J2*%
X103000000Y-98500000D03*
X103000000Y-93500000D03*
X103000000Y-88500000D03*
D13*
X103000000Y-83500000D03*
%TD*%
D12*
%TO.C,REF\u002A\u002A*%
X101500000Y-140500000D03*
%TD*%
%TO.C,REF\u002A\u002A*%
X172500000Y-140500000D03*
%TD*%
%TO.C,REFTR*%
X172500000Y-54000000D03*
%TD*%
D14*
%TO.C,vd_c2*%
X111500000Y-71500000D03*
D15*
X114000000Y-71500000D03*
%TD*%
D16*
%TO.C,D1*%
X117920000Y-128000000D03*
D17*
X128080000Y-128000000D03*
%TD*%
D15*
%TO.C,mix1*%
X119750000Y-123810000D03*
D18*
X119750000Y-116190000D03*
%TD*%
D19*
%TO.C,Q3*%
X113250000Y-106040000D03*
D20*
X113250000Y-104770000D03*
X113250000Y-103500000D03*
%TD*%
D21*
%TO.C,J3*%
X165031500Y-125066700D03*
D10*
X165031500Y-120066700D03*
X165031500Y-115066700D03*
X165031500Y-110066700D03*
%TD*%
D14*
%TO.C,motor_c1*%
X139500000Y-130000000D03*
D15*
X142000000Y-130000000D03*
%TD*%
%TO.C,vd_c1*%
X119500000Y-69500000D03*
X119500000Y-67000000D03*
%TD*%
D22*
%TO.C,MovingBumper_back1*%
X120000000Y-58000000D03*
D10*
X125000000Y-58000000D03*
X130000000Y-58000000D03*
%TD*%
D11*
%TO.C,Debug_ports1*%
X166155000Y-134437400D03*
D10*
X161155000Y-134437400D03*
X156155000Y-134437400D03*
X151155000Y-134437400D03*
%TD*%
D14*
%TO.C,reg_co1*%
X128000000Y-133500000D03*
D15*
X130500000Y-133500000D03*
%TD*%
%TO.C,mix2*%
X123300100Y-114310000D03*
D18*
X123300100Y-106690000D03*
%TD*%
D13*
%TO.C,Thermistor1*%
X103500000Y-61000000D03*
D10*
X103500000Y-66000000D03*
X103500000Y-71000000D03*
X103500000Y-76000000D03*
%TD*%
D23*
%TO.C,ESP32-S3*%
X128590000Y-67792500D03*
X128590000Y-70332500D03*
X128590000Y-72872500D03*
X128590000Y-75412500D03*
X128590000Y-77952500D03*
X128590000Y-80492500D03*
X128590000Y-83032500D03*
X128590000Y-85572500D03*
X128590000Y-88112500D03*
X128590000Y-90652500D03*
X128590000Y-93192500D03*
X128590000Y-95732500D03*
X128590000Y-98272500D03*
X128590000Y-100812500D03*
X128590000Y-103352500D03*
X128590000Y-105892500D03*
X128590000Y-108432500D03*
X128590000Y-110972500D03*
X128590000Y-113512500D03*
X128590000Y-116052500D03*
X128590000Y-118592500D03*
X128590000Y-121132500D03*
X153990000Y-67792500D03*
X153990000Y-70332500D03*
X153990000Y-72872500D03*
X153990000Y-75412500D03*
X153990000Y-77952500D03*
X153990000Y-80492500D03*
X153990000Y-83032500D03*
X153990000Y-85572500D03*
X153990000Y-88112500D03*
X153990000Y-90652500D03*
X153990000Y-93192500D03*
X153990000Y-95732500D03*
X153990000Y-98272500D03*
X153990000Y-100812500D03*
X153990000Y-103352500D03*
X153990000Y-105892500D03*
X153990000Y-108432500D03*
X153990000Y-110972500D03*
X153990000Y-113512500D03*
X153990000Y-116052500D03*
X153990000Y-118592500D03*
X153990000Y-121132500D03*
%TD*%
D14*
%TO.C,reg_ci1*%
X128500000Y-140500000D03*
D15*
X131000000Y-140500000D03*
%TD*%
D14*
%TO.C,Moving1*%
X171982000Y-102106300D03*
D18*
X171982000Y-99566300D03*
X171982000Y-97026300D03*
X171982000Y-94486300D03*
X171982000Y-91946300D03*
X171982000Y-89406300D03*
X171982000Y-86866300D03*
X171982000Y-84326300D03*
X159282000Y-84326300D03*
X159282000Y-86866300D03*
X159282000Y-89406300D03*
X159282000Y-91946300D03*
X159282000Y-94486300D03*
X159282000Y-97026300D03*
X159282000Y-99566300D03*
X159282000Y-102106300D03*
%TD*%
D22*
%TO.C,J1*%
X114212500Y-137032500D03*
D10*
X119212500Y-137032500D03*
%TD*%
D15*
%TO.C,vd_r1*%
X112500000Y-58190000D03*
D18*
X112500000Y-65810000D03*
%TD*%
D15*
%TO.C,mix3*%
X119250000Y-107810000D03*
D18*
X119250000Y-100190000D03*
%TD*%
D19*
%TO.C,Q1*%
X113750000Y-121040000D03*
D20*
X113750000Y-119770000D03*
X113750000Y-118500000D03*
%TD*%
D14*
%TO.C,Rehydration1*%
X111090200Y-78254000D03*
D18*
X111090200Y-80794000D03*
X111090200Y-83334000D03*
X111090200Y-85874000D03*
X111090200Y-88414000D03*
X111090200Y-90954000D03*
X111090200Y-93494000D03*
X111090200Y-96034000D03*
X123790200Y-96034000D03*
X123790200Y-93494000D03*
X123790200Y-90954000D03*
X123790200Y-88414000D03*
X123790200Y-85874000D03*
X123790200Y-83334000D03*
X123790200Y-80794000D03*
X123790200Y-78254000D03*
%TD*%
D19*
%TO.C,Q2*%
X113250000Y-114040000D03*
D20*
X113250000Y-112770000D03*
X113250000Y-111500000D03*
%TD*%
D13*
%TO.C,Rehydration_back1*%
X166732900Y-68049600D03*
D10*
X166732900Y-73049600D03*
X166732900Y-78049600D03*
%TD*%
D21*
%TO.C,Mixing1*%
X103500000Y-132000000D03*
D10*
X103500000Y-127000000D03*
X103500000Y-122000000D03*
X103500000Y-117000000D03*
X103500000Y-112000000D03*
X103500000Y-107000000D03*
%TD*%
M02*
