%TF.GenerationSoftware,KiCad,Pcbnew,9.0.1*%
%TF.CreationDate,2025-05-08T22:11:00-07:00*%
%TF.ProjectId,pcb,7063622e-6b69-4636-9164-5f7063625858,rev?*%
%TF.SameCoordinates,Original*%
%TF.FileFunction,Copper,L2,Bot*%
%TF.FilePolarity,Positive*%
%FSLAX46Y46*%
G04 Gerber Fmt 4.6, Leading zero omitted, Abs format (unit mm)*
G04 Created by KiCad (PCBNEW 9.0.1) date 2025-05-08 22:11:00*
%MOMM*%
%LPD*%
G01*
G04 APERTURE LIST*
G04 Aperture macros list*
%AMRoundRect*
0 Rectangle with rounded corners*
0 $1 Rounding radius*
0 $2 $3 $4 $5 $6 $7 $8 $9 X,Y pos of 4 corners*
0 Add a 4 corners polygon primitive as box body*
4,1,4,$2,$3,$4,$5,$6,$7,$8,$9,$2,$3,0*
0 Add four circle primitives for the rounded corners*
1,1,$1+$1,$2,$3*
1,1,$1+$1,$4,$5*
1,1,$1+$1,$6,$7*
1,1,$1+$1,$8,$9*
0 Add four rect primitives between the rounded corners*
20,1,$1+$1,$2,$3,$4,$5,0*
20,1,$1+$1,$4,$5,$6,$7,0*
20,1,$1+$1,$6,$7,$8,$9,0*
20,1,$1+$1,$8,$9,$2,$3,0*%
G04 Aperture macros list end*
%TA.AperFunction,ComponentPad*%
%ADD10RoundRect,0.250001X1.149999X1.149999X-1.149999X1.149999X-1.149999X-1.149999X1.149999X-1.149999X0*%
%TD*%
%TA.AperFunction,ComponentPad*%
%ADD11C,2.800000*%
%TD*%
%TA.AperFunction,ComponentPad*%
%ADD12R,2.200000X2.200000*%
%TD*%
%TA.AperFunction,ComponentPad*%
%ADD13O,2.200000X2.200000*%
%TD*%
%TA.AperFunction,ComponentPad*%
%ADD14R,1.500000X1.050000*%
%TD*%
%TA.AperFunction,ComponentPad*%
%ADD15O,1.500000X1.050000*%
%TD*%
%TA.AperFunction,ComponentPad*%
%ADD16RoundRect,0.250001X1.149999X-1.149999X1.149999X1.149999X-1.149999X1.149999X-1.149999X-1.149999X0*%
%TD*%
%TA.AperFunction,ComponentPad*%
%ADD17RoundRect,0.250001X-1.149999X-1.149999X1.149999X-1.149999X1.149999X1.149999X-1.149999X1.149999X0*%
%TD*%
%TA.AperFunction,ComponentPad*%
%ADD18RoundRect,0.250001X-1.149999X1.149999X-1.149999X-1.149999X1.149999X-1.149999X1.149999X1.149999X0*%
%TD*%
%TA.AperFunction,ComponentPad*%
%ADD19C,1.500000*%
%TD*%
%TA.AperFunction,ComponentPad*%
%ADD20R,1.600000X1.600000*%
%TD*%
%TA.AperFunction,ComponentPad*%
%ADD21O,1.600000X1.600000*%
%TD*%
%TA.AperFunction,ViaPad*%
%ADD22C,0.600000*%
%TD*%
%TA.AperFunction,Conductor*%
%ADD23C,0.127000*%
%TD*%
G04 APERTURE END LIST*
D10*
%TO.P,ExtraTerminalBlock1,1,Pin_1*%
%TO.N,Net-(ESP32-S3-21)*%
X166155000Y-134437400D03*
D11*
%TO.P,ExtraTerminalBlock1,2,Pin_2*%
%TO.N,Net-(ESP32-S3-20)*%
X161155000Y-134437400D03*
%TO.P,ExtraTerminalBlock1,3,Pin_3*%
%TO.N,Net-(ExtraTerminalBlock1-Pin_3)*%
X156155000Y-134437400D03*
%TO.P,ExtraTerminalBlock1,4,Pin_4*%
%TO.N,Net-(ExtraTerminalBlock1-Pin_4)*%
X151155000Y-134437400D03*
%TD*%
D12*
%TO.P,D1,1,K*%
%TO.N,Net-(A1-VMOT)*%
X121132500Y-128532500D03*
D13*
%TO.P,D1,2,A*%
%TO.N,Net-(D1-A)*%
X131292500Y-128532500D03*
%TD*%
D14*
%TO.P,Q3,1,S*%
%TO.N,Net-(D1-A)*%
X114250000Y-107815300D03*
D15*
%TO.P,Q3,2,G*%
%TO.N,Net-(Q3-G)*%
X114250000Y-106545300D03*
%TO.P,Q3,3,D*%
%TO.N,Net-(J5-Pin_5)*%
X114250000Y-105275300D03*
%TD*%
D16*
%TO.P,J3,1,Pin_1*%
%TO.N,Net-(A2-A1)*%
X165031500Y-125066700D03*
D11*
%TO.P,J3,2,Pin_2*%
%TO.N,Net-(A2-A2)*%
X165031500Y-120066700D03*
%TO.P,J3,3,Pin_3*%
%TO.N,Net-(A2-B1)*%
X165031500Y-115066700D03*
%TO.P,J3,4,Pin_4*%
%TO.N,Net-(A2-B2)*%
X165031500Y-110066700D03*
%TD*%
D17*
%TO.P,MovingBumper_back1,1,Pin_1*%
%TO.N,Net-(D1-A)*%
X120000000Y-57500000D03*
D11*
%TO.P,MovingBumper_back1,2,Pin_2*%
%TO.N,Net-(ExtraTerminalBlock1-Pin_4)*%
X125000000Y-57500000D03*
%TO.P,MovingBumper_back1,3,Pin_3*%
%TO.N,/B_B*%
X130000000Y-57500000D03*
%TD*%
D10*
%TO.P,MovingBumper_front1,1,Pin_1*%
%TO.N,Net-(D1-A)*%
X147397900Y-57680400D03*
D11*
%TO.P,MovingBumper_front1,2,Pin_2*%
%TO.N,Net-(ExtraTerminalBlock1-Pin_4)*%
X142397900Y-57680400D03*
%TO.P,MovingBumper_front1,3,Pin_3*%
%TO.N,/B_F*%
X137397900Y-57680400D03*
%TD*%
D18*
%TO.P,J6,1,Pin_1*%
%TO.N,/Heating_pwm*%
X109250000Y-56032500D03*
D11*
%TO.P,J6,2,Pin_2*%
%TO.N,/VD_o*%
X109250000Y-61032500D03*
%TO.P,J6,3,Pin_3*%
X109250000Y-66032500D03*
%TO.P,J6,4,Pin_4*%
%TO.N,Net-(ExtraTerminalBlock1-Pin_4)*%
X109250000Y-71032500D03*
%TD*%
D19*
%TO.P,ESP32-S3,1,3V3*%
%TO.N,Net-(ExtraTerminalBlock1-Pin_4)*%
X128590000Y-67792500D03*
%TO.P,ESP32-S3,2,3V3*%
%TO.N,unconnected-(ESP32-S3-3V3-Pad2)*%
X128590000Y-70332500D03*
%TO.P,ESP32-S3,3,RST*%
%TO.N,unconnected-(ESP32-S3-RST-Pad3)*%
X128590000Y-72872500D03*
%TO.P,ESP32-S3,4,4*%
%TO.N,/VD_o*%
X128590000Y-75412500D03*
%TO.P,ESP32-S3,5,5*%
%TO.N,/Heating_pwm*%
X128590000Y-77952500D03*
%TO.P,ESP32-S3,6,6*%
%TO.N,/STEP*%
X128590000Y-80492500D03*
%TO.P,ESP32-S3,7,7*%
%TO.N,/DIR*%
X128590000Y-83032500D03*
%TO.P,ESP32-S3,8,15*%
%TO.N,/FLT*%
X128590000Y-85572500D03*
%TO.P,ESP32-S3,9,16*%
%TO.N,/M0*%
X128590000Y-88112500D03*
%TO.P,ESP32-S3,10,17*%
%TO.N,/M1*%
X128590000Y-90652500D03*
%TO.P,ESP32-S3,11,18*%
%TO.N,/M2*%
X128590000Y-93192500D03*
%TO.P,ESP32-S3,12,8*%
%TO.N,/EN*%
X128590000Y-95732500D03*
%TO.P,ESP32-S3,13,3*%
%TO.N,/B_F*%
X128590000Y-98272500D03*
%TO.P,ESP32-S3,14,46*%
%TO.N,unconnected-(ESP32-S3-46-Pad14)*%
X128590000Y-100812500D03*
%TO.P,ESP32-S3,15,9*%
%TO.N,/R_B*%
X128590000Y-103352500D03*
%TO.P,ESP32-S3,16,10*%
%TO.N,/B_B*%
X128590000Y-105892500D03*
%TO.P,ESP32-S3,17,11*%
%TO.N,/Mix3*%
X128590000Y-108432500D03*
%TO.P,ESP32-S3,18,12*%
%TO.N,/Mix2*%
X128590000Y-110972500D03*
%TO.P,ESP32-S3,19,13*%
%TO.N,/Mix1*%
X128590000Y-113512500D03*
%TO.P,ESP32-S3,20*%
%TO.N,unconnected-(ESP32-S3-Pad20)*%
X128590000Y-116052500D03*
%TO.P,ESP32-S3,21,Vin*%
%TO.N,/5V*%
X128590000Y-118592500D03*
%TO.P,ESP32-S3,22,Gnd*%
%TO.N,Net-(D1-A)*%
X128590000Y-121132500D03*
%TO.P,ESP32-S3,23,GND*%
%TO.N,unconnected-(ESP32-S3-GND-Pad23)*%
X153990000Y-67792500D03*
%TO.P,ESP32-S3,24,TX*%
%TO.N,unconnected-(ESP32-S3-TX-Pad24)*%
X153990000Y-70332500D03*
%TO.P,ESP32-S3,25,RX*%
%TO.N,unconnected-(ESP32-S3-RX-Pad25)*%
X153990000Y-72872500D03*
%TO.P,ESP32-S3,26,1*%
%TO.N,/STEP*%
X153990000Y-75412500D03*
%TO.P,ESP32-S3,27,2*%
%TO.N,/DIR*%
X153990000Y-77952500D03*
%TO.P,ESP32-S3,28,42*%
%TO.N,/FLT*%
X153990000Y-80492500D03*
%TO.P,ESP32-S3,29,41*%
%TO.N,/M0*%
X153990000Y-83032500D03*
%TO.P,ESP32-S3,30,40*%
%TO.N,/M1*%
X153990000Y-85572500D03*
%TO.P,ESP32-S3,31,39*%
%TO.N,/M2*%
X153990000Y-88112500D03*
%TO.P,ESP32-S3,32,38*%
%TO.N,/EN*%
X153990000Y-90652500D03*
%TO.P,ESP32-S3,33,37*%
%TO.N,unconnected-(ESP32-S3-37-Pad33)*%
X153990000Y-93192500D03*
%TO.P,ESP32-S3,34,36*%
%TO.N,/R_F*%
X153990000Y-95732500D03*
%TO.P,ESP32-S3,35,35*%
%TO.N,unconnected-(ESP32-S3-Pad35)*%
X153990000Y-98272500D03*
%TO.P,ESP32-S3,36,0*%
%TO.N,unconnected-(ESP32-S3-0-Pad36)*%
X153990000Y-100812500D03*
%TO.P,ESP32-S3,37,45*%
%TO.N,unconnected-(ESP32-S3-45-Pad37)*%
X153990000Y-103352500D03*
%TO.P,ESP32-S3,38,48*%
%TO.N,unconnected-(ESP32-S3-48-Pad38)*%
X153990000Y-105892500D03*
%TO.P,ESP32-S3,39,47*%
%TO.N,unconnected-(ESP32-S3-47-Pad39)*%
X153990000Y-108432500D03*
%TO.P,ESP32-S3,40,21*%
%TO.N,Net-(ESP32-S3-21)*%
X153990000Y-110972500D03*
%TO.P,ESP32-S3,41,20*%
%TO.N,Net-(ESP32-S3-20)*%
X153990000Y-113512500D03*
%TO.P,ESP32-S3,42*%
%TO.N,unconnected-(ESP32-S3-Pad42)*%
X153990000Y-116052500D03*
%TO.P,ESP32-S3,43,GND*%
%TO.N,unconnected-(ESP32-S3-GND-Pad43)*%
X153990000Y-118592500D03*
%TO.P,ESP32-S3,44,GND*%
%TO.N,Net-(ExtraTerminalBlock1-Pin_3)*%
X153990000Y-121132500D03*
%TD*%
D20*
%TO.P,A2,1,GND*%
%TO.N,Net-(D1-A)*%
X171982000Y-102106300D03*
D21*
%TO.P,A2,2,~{FLT}*%
%TO.N,/FLT*%
X171982000Y-99566300D03*
%TO.P,A2,3,A2*%
%TO.N,Net-(A2-A2)*%
X171982000Y-97026300D03*
%TO.P,A2,4,A1*%
%TO.N,Net-(A2-A1)*%
X171982000Y-94486300D03*
%TO.P,A2,5,B1*%
%TO.N,Net-(A2-B1)*%
X171982000Y-91946300D03*
%TO.P,A2,6,B2*%
%TO.N,Net-(A2-B2)*%
X171982000Y-89406300D03*
%TO.P,A2,7,GND*%
%TO.N,Net-(D1-A)*%
X171982000Y-86866300D03*
%TO.P,A2,8,VMOT*%
%TO.N,Net-(A1-VMOT)*%
X171982000Y-84326300D03*
%TO.P,A2,9,~{EN}*%
%TO.N,/EN*%
X159282000Y-84326300D03*
%TO.P,A2,10,M0*%
%TO.N,/M0*%
X159282000Y-86866300D03*
%TO.P,A2,11,M1*%
%TO.N,/M1*%
X159282000Y-89406300D03*
%TO.P,A2,12,M2*%
%TO.N,/M2*%
X159282000Y-91946300D03*
%TO.P,A2,13,~{RST}*%
%TO.N,/5V*%
X159282000Y-94486300D03*
%TO.P,A2,14,~{SLP}*%
X159282000Y-97026300D03*
%TO.P,A2,15,STEP*%
%TO.N,/STEP*%
X159282000Y-99566300D03*
%TO.P,A2,16,DIR*%
%TO.N,/DIR*%
X159282000Y-102106300D03*
%TD*%
D17*
%TO.P,J1,1,Pin_1*%
%TO.N,Net-(D1-A)*%
X114212500Y-137032500D03*
D11*
%TO.P,J1,2,Pin_2*%
%TO.N,Net-(A1-VMOT)*%
X119212500Y-137032500D03*
%TD*%
D10*
%TO.P,Rehydration_front1,1,Pin_1*%
%TO.N,Net-(D1-A)*%
X165250000Y-58032500D03*
D11*
%TO.P,Rehydration_front1,2,Pin_2*%
%TO.N,Net-(ExtraTerminalBlock1-Pin_4)*%
X160250000Y-58032500D03*
%TO.P,Rehydration_front1,3,Pin_3*%
%TO.N,/R_F*%
X155250000Y-58032500D03*
%TD*%
D14*
%TO.P,Q1,1,S*%
%TO.N,Net-(D1-A)*%
X114504400Y-121649700D03*
D15*
%TO.P,Q1,2,G*%
%TO.N,Net-(Q1-G)*%
X114504400Y-120379700D03*
%TO.P,Q1,3,D*%
%TO.N,Net-(J5-Pin_1)*%
X114504400Y-119109700D03*
%TD*%
D18*
%TO.P,J2,1,Pin_1*%
%TO.N,Net-(A1-A1)*%
X103500000Y-79000000D03*
D11*
%TO.P,J2,2,Pin_2*%
%TO.N,Net-(A1-A2)*%
X103500000Y-84000000D03*
%TO.P,J2,3,Pin_3*%
%TO.N,Net-(A1-B1)*%
X103500000Y-89000000D03*
%TO.P,J2,4,Pin_4*%
%TO.N,Net-(A1-B2)*%
X103500000Y-94000000D03*
%TD*%
D20*
%TO.P,A1,1,GND*%
%TO.N,Net-(D1-A)*%
X111090200Y-78254000D03*
D21*
%TO.P,A1,2,~{FLT}*%
%TO.N,/FLT*%
X111090200Y-80794000D03*
%TO.P,A1,3,A2*%
%TO.N,Net-(A1-A2)*%
X111090200Y-83334000D03*
%TO.P,A1,4,A1*%
%TO.N,Net-(A1-A1)*%
X111090200Y-85874000D03*
%TO.P,A1,5,B1*%
%TO.N,Net-(A1-B1)*%
X111090200Y-88414000D03*
%TO.P,A1,6,B2*%
%TO.N,Net-(A1-B2)*%
X111090200Y-90954000D03*
%TO.P,A1,7,GND*%
%TO.N,Net-(D1-A)*%
X111090200Y-93494000D03*
%TO.P,A1,8,VMOT*%
%TO.N,Net-(A1-VMOT)*%
X111090200Y-96034000D03*
%TO.P,A1,9,~{EN}*%
%TO.N,/EN*%
X123790200Y-96034000D03*
%TO.P,A1,10,M0*%
%TO.N,/M0*%
X123790200Y-93494000D03*
%TO.P,A1,11,M1*%
%TO.N,/M1*%
X123790200Y-90954000D03*
%TO.P,A1,12,M2*%
%TO.N,/M2*%
X123790200Y-88414000D03*
%TO.P,A1,13,~{RST}*%
%TO.N,/5V*%
X123790200Y-85874000D03*
%TO.P,A1,14,~{SLP}*%
X123790200Y-83334000D03*
%TO.P,A1,15,STEP*%
%TO.N,/STEP*%
X123790200Y-80794000D03*
%TO.P,A1,16,DIR*%
%TO.N,/DIR*%
X123790200Y-78254000D03*
%TD*%
D14*
%TO.P,Q2,1,S*%
%TO.N,Net-(D1-A)*%
X114410100Y-114965400D03*
D15*
%TO.P,Q2,2,G*%
%TO.N,Net-(Q2-G)*%
X114410100Y-113695400D03*
%TO.P,Q2,3,D*%
%TO.N,Net-(J5-Pin_3)*%
X114410100Y-112425400D03*
%TD*%
D18*
%TO.P,Rehydration_back1,1,Pin_1*%
%TO.N,Net-(D1-A)*%
X166732900Y-68049600D03*
D11*
%TO.P,Rehydration_back1,2,Pin_2*%
%TO.N,Net-(ExtraTerminalBlock1-Pin_4)*%
X166732900Y-73049600D03*
%TO.P,Rehydration_back1,3,Pin_3*%
%TO.N,/R_B*%
X166732900Y-78049600D03*
%TD*%
D16*
%TO.P,J5,1,Pin_1*%
%TO.N,Net-(J5-Pin_1)*%
X103939900Y-129600900D03*
D11*
%TO.P,J5,2,Pin_2*%
%TO.N,Net-(A1-VMOT)*%
X103939900Y-124600900D03*
%TO.P,J5,3,Pin_3*%
%TO.N,Net-(J5-Pin_3)*%
X103939900Y-119600900D03*
%TO.P,J5,4,Pin_4*%
%TO.N,Net-(A1-VMOT)*%
X103939900Y-114600900D03*
%TO.P,J5,5,Pin_5*%
%TO.N,Net-(J5-Pin_5)*%
X103939900Y-109600900D03*
%TO.P,J5,6,Pin_6*%
%TO.N,Net-(A1-VMOT)*%
X103939900Y-104600900D03*
%TD*%
D22*
%TO.N,Net-(D1-A)*%
X138095800Y-128594600D03*
%TO.N,/VD_o*%
X121069600Y-66886700D03*
%TO.N,/Heating_pwm*%
X127500000Y-56869500D03*
%TO.N,/R_B*%
X130957200Y-83644500D03*
%TO.N,Net-(A1-VMOT)*%
X142117700Y-125294500D03*
%TO.N,/FLT*%
X168518300Y-80803300D03*
%TO.N,/5V*%
X122798000Y-98551300D03*
%TD*%
D23*
%TO.N,Net-(D1-A)*%
X115963800Y-121132500D02*
X115446600Y-121649700D01*
X128590000Y-121132500D02*
X115963800Y-121132500D01*
X114504400Y-121649700D02*
X115446600Y-121649700D01*
X163618600Y-56401100D02*
X165250000Y-58032500D01*
X148677200Y-56401100D02*
X163618600Y-56401100D01*
X147397900Y-57680400D02*
X148677200Y-56401100D01*
X121647100Y-55852900D02*
X120000000Y-57500000D01*
X125681800Y-55852900D02*
X121647100Y-55852900D01*
X127202400Y-57373500D02*
X125681800Y-55852900D01*
X127866600Y-57373500D02*
X127202400Y-57373500D01*
X129336200Y-55903900D02*
X127866600Y-57373500D01*
X145621400Y-55903900D02*
X129336200Y-55903900D01*
X147397900Y-57680400D02*
X145621400Y-55903900D01*
X132646800Y-128594600D02*
X132584700Y-128532500D01*
X138095800Y-128594600D02*
X132646800Y-128594600D01*
X131292500Y-128532500D02*
X132584700Y-128532500D01*
%TO.N,Net-(J5-Pin_1)*%
X102330500Y-127991500D02*
X103939900Y-129600900D01*
X102330500Y-123933900D02*
X102330500Y-127991500D01*
X107154700Y-119109700D02*
X102330500Y-123933900D01*
X114504400Y-119109700D02*
X107154700Y-119109700D01*
%TO.N,Net-(J5-Pin_3)*%
X111115400Y-112425400D02*
X114410100Y-112425400D01*
X103939900Y-119600900D02*
X111115400Y-112425400D01*
%TO.N,Net-(J5-Pin_5)*%
X108265500Y-105275300D02*
X114250000Y-105275300D01*
X103939900Y-109600900D02*
X108265500Y-105275300D01*
%TO.N,/VD_o*%
X110104200Y-66886700D02*
X109250000Y-66032500D01*
X121069600Y-66886700D02*
X110104200Y-66886700D01*
%TO.N,/Heating_pwm*%
X109685300Y-55597200D02*
X109250000Y-56032500D01*
X126227700Y-55597200D02*
X109685300Y-55597200D01*
X127500000Y-56869500D02*
X126227700Y-55597200D01*
%TO.N,/R_B*%
X165560000Y-79222500D02*
X166732900Y-78049600D01*
X135379200Y-79222500D02*
X165560000Y-79222500D01*
X130957200Y-83644500D02*
X135379200Y-79222500D01*
%TO.N,Net-(A1-B2)*%
X107052000Y-94000000D02*
X110098000Y-90954000D01*
X103500000Y-94000000D02*
X107052000Y-94000000D01*
X111090200Y-90954000D02*
X110098000Y-90954000D01*
%TO.N,Net-(A1-A2)*%
X109432000Y-84000000D02*
X103500000Y-84000000D01*
X110098000Y-83334000D02*
X109432000Y-84000000D01*
X111090200Y-83334000D02*
X110098000Y-83334000D01*
%TO.N,/STEP*%
X125083900Y-80492500D02*
X124782400Y-80794000D01*
X128590000Y-80492500D02*
X125083900Y-80492500D01*
X123790200Y-80794000D02*
X124782400Y-80794000D01*
X133670000Y-75412500D02*
X128590000Y-80492500D01*
X153990000Y-75412500D02*
X133670000Y-75412500D01*
%TO.N,Net-(A1-VMOT)*%
X107871500Y-128532500D02*
X103939900Y-124600900D01*
X121132500Y-128532500D02*
X107871500Y-128532500D01*
X125662700Y-125294500D02*
X142117700Y-125294500D01*
X122424700Y-128532500D02*
X125662700Y-125294500D01*
X121132500Y-128532500D02*
X122424700Y-128532500D01*
X171982000Y-84326300D02*
X170989800Y-84326300D01*
X111090200Y-96034000D02*
X112082400Y-96034000D01*
X113080500Y-97032100D02*
X112082400Y-96034000D01*
X148759600Y-97032100D02*
X113080500Y-97032100D01*
X154152300Y-91639400D02*
X148759600Y-97032100D01*
X154886700Y-91639400D02*
X154152300Y-91639400D01*
X155849800Y-90676300D02*
X154886700Y-91639400D01*
X164639800Y-90676300D02*
X155849800Y-90676300D01*
X170989800Y-84326300D02*
X164639800Y-90676300D01*
X142117700Y-125294500D02*
X141690800Y-125721400D01*
X141690800Y-125721400D02*
X142117700Y-125294500D01*
%TO.N,Net-(A1-A1)*%
X106564000Y-82064000D02*
X103500000Y-79000000D01*
X111246700Y-82064000D02*
X106564000Y-82064000D01*
X112103200Y-82920500D02*
X111246700Y-82064000D01*
X112103200Y-83868800D02*
X112103200Y-82920500D01*
X111090200Y-84881800D02*
X112103200Y-83868800D01*
X111090200Y-85874000D02*
X111090200Y-84881800D01*
%TO.N,Net-(A1-B1)*%
X109512000Y-89000000D02*
X110098000Y-88414000D01*
X103500000Y-89000000D02*
X109512000Y-89000000D01*
X111090200Y-88414000D02*
X110098000Y-88414000D01*
%TO.N,/FLT*%
X111090200Y-80794000D02*
X112082400Y-80794000D01*
X154300800Y-80803300D02*
X153990000Y-80492500D01*
X168518300Y-80803300D02*
X154300800Y-80803300D01*
X148910000Y-85572500D02*
X128590000Y-85572500D01*
X153990000Y-80492500D02*
X148910000Y-85572500D01*
X125059400Y-82041900D02*
X128590000Y-85572500D01*
X113330300Y-82041900D02*
X125059400Y-82041900D01*
X112082400Y-80794000D02*
X113330300Y-82041900D01*
%TO.N,/M0*%
X159282000Y-86866300D02*
X158785900Y-86866300D01*
X154952100Y-83032500D02*
X153990000Y-83032500D01*
X158785900Y-86866300D02*
X154952100Y-83032500D01*
X148910000Y-88112500D02*
X153990000Y-83032500D01*
X128590000Y-88112500D02*
X148910000Y-88112500D01*
%TO.N,/5V*%
X159282000Y-97026300D02*
X158289800Y-97026300D01*
X156083400Y-99232700D02*
X158289800Y-97026300D01*
X123479400Y-99232700D02*
X156083400Y-99232700D01*
X122798000Y-98551300D02*
X123479400Y-99232700D01*
%TO.N,/DIR*%
X133670000Y-77952500D02*
X128590000Y-83032500D01*
X153990000Y-77952500D02*
X133670000Y-77952500D01*
X123790200Y-78254000D02*
X123790200Y-79246200D01*
X122774200Y-80262200D02*
X123790200Y-79246200D01*
X122774200Y-81252800D02*
X122774200Y-80262200D01*
X123307600Y-81786200D02*
X122774200Y-81252800D01*
X127343700Y-81786200D02*
X123307600Y-81786200D01*
X128590000Y-83032500D02*
X127343700Y-81786200D01*
%TO.N,/M1*%
X123790200Y-90954000D02*
X124782400Y-90954000D01*
X157133000Y-89406300D02*
X155607000Y-87880200D01*
X159282000Y-89406300D02*
X157133000Y-89406300D01*
X153990000Y-86263300D02*
X153990000Y-85572500D01*
X155607000Y-87880200D02*
X153990000Y-86263300D01*
X125083800Y-90652600D02*
X124782400Y-90954000D01*
X127647800Y-90652600D02*
X125083800Y-90652600D01*
X127647800Y-90652500D02*
X127647800Y-90652600D01*
X128590000Y-90652500D02*
X127647800Y-90652500D01*
X154347600Y-89139600D02*
X155607000Y-87880200D01*
X153620300Y-89139600D02*
X154347600Y-89139600D01*
X152361600Y-90398300D02*
X153620300Y-89139600D01*
X131170000Y-90398300D02*
X152361600Y-90398300D01*
X130915600Y-90652700D02*
X131170000Y-90398300D01*
X127647900Y-90652700D02*
X130915600Y-90652700D01*
X127647800Y-90652600D02*
X127647900Y-90652700D01*
%TO.N,/EN*%
X128288500Y-96034000D02*
X128590000Y-95732500D01*
X123790200Y-96034000D02*
X128288500Y-96034000D01*
X148910000Y-95732500D02*
X128590000Y-95732500D01*
X153990000Y-90652500D02*
X148910000Y-95732500D01*
%TO.N,/M2*%
X127621500Y-92224000D02*
X128590000Y-93192500D01*
X123638100Y-92224000D02*
X127621500Y-92224000D01*
X122794900Y-91380800D02*
X123638100Y-92224000D01*
X122794900Y-90401500D02*
X122794900Y-91380800D01*
X123790200Y-89406200D02*
X122794900Y-90401500D01*
X123790200Y-88414000D02*
X123790200Y-89406200D01*
X152696300Y-89406200D02*
X123790200Y-89406200D01*
X153990000Y-88112500D02*
X152696300Y-89406200D01*
%TO.N,Net-(ExtraTerminalBlock1-Pin_4)*%
X126772600Y-59272600D02*
X125000000Y-57500000D01*
X140805700Y-59272600D02*
X126772600Y-59272600D01*
X142397900Y-57680400D02*
X140805700Y-59272600D01*
X144389600Y-59672100D02*
X142397900Y-57680400D01*
X158610400Y-59672100D02*
X144389600Y-59672100D01*
X160250000Y-58032500D02*
X158610400Y-59672100D01*
X125350000Y-71032500D02*
X109250000Y-71032500D01*
X128590000Y-67792500D02*
X125350000Y-71032500D01*
%TD*%
M02*
