%TF.GenerationSoftware,KiCad,Pcbnew,9.0.1*%
%TF.CreationDate,2025-05-12T12:22:12-07:00*%
%TF.ProjectId,pcb,7063622e-6b69-4636-9164-5f7063625858,rev?*%
%TF.SameCoordinates,Original*%
%TF.FileFunction,Copper,L1,Top*%
%TF.FilePolarity,Positive*%
%FSLAX46Y46*%
G04 Gerber Fmt 4.6, Leading zero omitted, Abs format (unit mm)*
G04 Created by KiCad (PCBNEW 9.0.1) date 2025-05-12 12:22:12*
%MOMM*%
%LPD*%
G01*
G04 APERTURE LIST*
G04 Aperture macros list*
%AMRoundRect*
0 Rectangle with rounded corners*
0 $1 Rounding radius*
0 $2 $3 $4 $5 $6 $7 $8 $9 X,Y pos of 4 corners*
0 Add a 4 corners polygon primitive as box body*
4,1,4,$2,$3,$4,$5,$6,$7,$8,$9,$2,$3,0*
0 Add four circle primitives for the rounded corners*
1,1,$1+$1,$2,$3*
1,1,$1+$1,$4,$5*
1,1,$1+$1,$6,$7*
1,1,$1+$1,$8,$9*
0 Add four rect primitives between the rounded corners*
20,1,$1+$1,$2,$3,$4,$5,0*
20,1,$1+$1,$4,$5,$6,$7,0*
20,1,$1+$1,$6,$7,$8,$9,0*
20,1,$1+$1,$8,$9,$2,$3,0*%
G04 Aperture macros list end*
%TA.AperFunction,ComponentPad*%
%ADD10C,1.600000*%
%TD*%
%TA.AperFunction,ComponentPad*%
%ADD11O,1.600000X1.600000*%
%TD*%
%TA.AperFunction,ComponentPad*%
%ADD12R,1.600000X1.600000*%
%TD*%
%TA.AperFunction,SMDPad,CuDef*%
%ADD13RoundRect,0.250001X-0.462499X-0.624999X0.462499X-0.624999X0.462499X0.624999X-0.462499X0.624999X0*%
%TD*%
%TA.AperFunction,SMDPad,CuDef*%
%ADD14RoundRect,0.250000X0.850000X0.350000X-0.850000X0.350000X-0.850000X-0.350000X0.850000X-0.350000X0*%
%TD*%
%TA.AperFunction,SMDPad,CuDef*%
%ADD15RoundRect,0.249997X2.950003X2.650003X-2.950003X2.650003X-2.950003X-2.650003X2.950003X-2.650003X0*%
%TD*%
%TA.AperFunction,ComponentPad*%
%ADD16R,2.200000X2.200000*%
%TD*%
%TA.AperFunction,ComponentPad*%
%ADD17O,2.200000X2.200000*%
%TD*%
%TA.AperFunction,ComponentPad*%
%ADD18R,1.500000X1.050000*%
%TD*%
%TA.AperFunction,ComponentPad*%
%ADD19O,1.500000X1.050000*%
%TD*%
%TA.AperFunction,ComponentPad*%
%ADD20RoundRect,0.250001X1.149999X-1.149999X1.149999X1.149999X-1.149999X1.149999X-1.149999X-1.149999X0*%
%TD*%
%TA.AperFunction,ComponentPad*%
%ADD21C,2.800000*%
%TD*%
%TA.AperFunction,ComponentPad*%
%ADD22RoundRect,0.250001X-1.149999X-1.149999X1.149999X-1.149999X1.149999X1.149999X-1.149999X1.149999X0*%
%TD*%
%TA.AperFunction,ComponentPad*%
%ADD23RoundRect,0.250001X1.149999X1.149999X-1.149999X1.149999X-1.149999X-1.149999X1.149999X-1.149999X0*%
%TD*%
%TA.AperFunction,ComponentPad*%
%ADD24RoundRect,0.250001X-1.149999X1.149999X-1.149999X-1.149999X1.149999X-1.149999X1.149999X1.149999X0*%
%TD*%
%TA.AperFunction,ComponentPad*%
%ADD25C,1.500000*%
%TD*%
%TA.AperFunction,ViaPad*%
%ADD26C,0.600000*%
%TD*%
%TA.AperFunction,Conductor*%
%ADD27C,0.127000*%
%TD*%
G04 APERTURE END LIST*
D10*
%TO.P,vd_r1,1*%
%TO.N,Net-(D1-A)*%
X112500000Y-58190000D03*
D11*
%TO.P,vd_r1,2*%
%TO.N,/VD_o*%
X112500000Y-65810000D03*
%TD*%
D12*
%TO.P,vd_c2,1*%
%TO.N,Net-(Debug_ports1-Pin_4)*%
X111500000Y-71500000D03*
D10*
%TO.P,vd_c2,2*%
%TO.N,Net-(D1-A)*%
X114000000Y-71500000D03*
%TD*%
%TO.P,vd_c1,1*%
%TO.N,/VD_o*%
X119500000Y-69500000D03*
%TO.P,vd_c1,2*%
%TO.N,Net-(Debug_ports1-Pin_4)*%
X119500000Y-67000000D03*
%TD*%
D12*
%TO.P,reg_co1,1*%
%TO.N,Net-(D1-A)*%
X128000000Y-133500000D03*
D10*
%TO.P,reg_co1,2*%
%TO.N,/5V*%
X130500000Y-133500000D03*
%TD*%
D12*
%TO.P,reg_ci1,1*%
%TO.N,Net-(D1-A)*%
X128500000Y-140500000D03*
D10*
%TO.P,reg_ci1,2*%
%TO.N,Net-(Regulator1-VI)*%
X131000000Y-140500000D03*
%TD*%
D12*
%TO.P,motor_c1,1*%
%TO.N,Net-(D1-A)*%
X139500000Y-130000000D03*
D10*
%TO.P,motor_c1,2*%
%TO.N,Net-(D1-K)*%
X142000000Y-130000000D03*
%TD*%
%TO.P,mix3,1*%
%TO.N,/Mix3*%
X119250000Y-107810000D03*
D11*
%TO.P,mix3,2*%
%TO.N,Net-(Q3-G)*%
X119250000Y-100190000D03*
%TD*%
D10*
%TO.P,mix2,1*%
%TO.N,/Mix2*%
X123300100Y-114310000D03*
D11*
%TO.P,mix2,2*%
%TO.N,Net-(Q2-G)*%
X123300100Y-106690000D03*
%TD*%
D10*
%TO.P,mix1,1*%
%TO.N,/Mix1*%
X119750000Y-123810000D03*
D11*
%TO.P,mix1,2*%
%TO.N,Net-(Q1-G)*%
X119750000Y-116190000D03*
%TD*%
D13*
%TO.P,PTCFuse1,1*%
%TO.N,Net-(D1-K)*%
X111000000Y-128000000D03*
%TO.P,PTCFuse1,2*%
%TO.N,Net-(Regulator1-VI)*%
X113975000Y-128000000D03*
%TD*%
D14*
%TO.P,Regulator1,1,GND*%
%TO.N,Net-(D1-A)*%
X145625000Y-140755000D03*
%TO.P,Regulator1,2,VO*%
%TO.N,/5V*%
X145625000Y-138475000D03*
D15*
X139325000Y-138475000D03*
D14*
%TO.P,Regulator1,3,VI*%
%TO.N,Net-(Regulator1-VI)*%
X145625000Y-136195000D03*
%TD*%
D16*
%TO.P,D1,1,K*%
%TO.N,Net-(D1-K)*%
X117920000Y-128000000D03*
D17*
%TO.P,D1,2,A*%
%TO.N,Net-(D1-A)*%
X128080000Y-128000000D03*
%TD*%
D18*
%TO.P,Q3,1,S*%
%TO.N,Net-(D1-A)*%
X113250000Y-106040000D03*
D19*
%TO.P,Q3,2,G*%
%TO.N,Net-(Q3-G)*%
X113250000Y-104770000D03*
%TO.P,Q3,3,D*%
%TO.N,Net-(Mixing1-Pin_5)*%
X113250000Y-103500000D03*
%TD*%
D20*
%TO.P,J3,1,Pin_1*%
%TO.N,Net-(J3-Pin_1)*%
X165031500Y-125066700D03*
D21*
%TO.P,J3,2,Pin_2*%
%TO.N,Net-(J3-Pin_2)*%
X165031500Y-120066700D03*
%TO.P,J3,3,Pin_3*%
%TO.N,Net-(J3-Pin_3)*%
X165031500Y-115066700D03*
%TO.P,J3,4,Pin_4*%
%TO.N,Net-(J3-Pin_4)*%
X165031500Y-110066700D03*
%TD*%
D22*
%TO.P,MovingBumper_back1,1,Pin_1*%
%TO.N,Net-(D1-A)*%
X120000000Y-57500000D03*
D21*
%TO.P,MovingBumper_back1,2,Pin_2*%
%TO.N,Net-(Debug_ports1-Pin_4)*%
X125000000Y-57500000D03*
%TO.P,MovingBumper_back1,3,Pin_3*%
%TO.N,/B_B*%
X130000000Y-57500000D03*
%TD*%
D23*
%TO.P,MovingBumper_front1,1,Pin_1*%
%TO.N,Net-(D1-A)*%
X147397900Y-57680400D03*
D21*
%TO.P,MovingBumper_front1,2,Pin_2*%
%TO.N,Net-(Debug_ports1-Pin_4)*%
X142397900Y-57680400D03*
%TO.P,MovingBumper_front1,3,Pin_3*%
%TO.N,/B_F*%
X137397900Y-57680400D03*
%TD*%
D23*
%TO.P,Debug_ports1,1,Pin_1*%
%TO.N,Net-(Debug_ports1-Pin_1)*%
X166155000Y-134437400D03*
D21*
%TO.P,Debug_ports1,2,Pin_2*%
%TO.N,Net-(Debug_ports1-Pin_2)*%
X161155000Y-134437400D03*
%TO.P,Debug_ports1,3,Pin_3*%
%TO.N,Net-(Debug_ports1-Pin_3)*%
X156155000Y-134437400D03*
%TO.P,Debug_ports1,4,Pin_4*%
%TO.N,Net-(Debug_ports1-Pin_4)*%
X151155000Y-134437400D03*
%TD*%
D24*
%TO.P,Thermistor1,1,Pin_1*%
%TO.N,/Heating_pwm*%
X104032500Y-55250000D03*
D21*
%TO.P,Thermistor1,2,Pin_2*%
%TO.N,/VD_o*%
X104032500Y-60250000D03*
%TO.P,Thermistor1,3,Pin_3*%
X104032500Y-65250000D03*
%TO.P,Thermistor1,4,Pin_4*%
%TO.N,Net-(Debug_ports1-Pin_4)*%
X104032500Y-70250000D03*
%TD*%
D25*
%TO.P,ESP32-S3,1,3V3*%
%TO.N,Net-(Debug_ports1-Pin_4)*%
X128590000Y-67792500D03*
%TO.P,ESP32-S3,2,3V3*%
%TO.N,unconnected-(ESP32-S3-3V3-Pad2)*%
X128590000Y-70332500D03*
%TO.P,ESP32-S3,3,RST*%
%TO.N,unconnected-(ESP32-S3-RST-Pad3)*%
X128590000Y-72872500D03*
%TO.P,ESP32-S3,4,4*%
%TO.N,/VD_o*%
X128590000Y-75412500D03*
%TO.P,ESP32-S3,5,5*%
%TO.N,/Heating_pwm*%
X128590000Y-77952500D03*
%TO.P,ESP32-S3,6,6*%
%TO.N,/STEP*%
X128590000Y-80492500D03*
%TO.P,ESP32-S3,7,7*%
%TO.N,/DIR*%
X128590000Y-83032500D03*
%TO.P,ESP32-S3,8,15*%
%TO.N,/FLT*%
X128590000Y-85572500D03*
%TO.P,ESP32-S3,9,16*%
%TO.N,/M0*%
X128590000Y-88112500D03*
%TO.P,ESP32-S3,10,17*%
%TO.N,/M1*%
X128590000Y-90652500D03*
%TO.P,ESP32-S3,11,18*%
%TO.N,/M2*%
X128590000Y-93192500D03*
%TO.P,ESP32-S3,12,8*%
%TO.N,/EN*%
X128590000Y-95732500D03*
%TO.P,ESP32-S3,13,3*%
%TO.N,/B_F*%
X128590000Y-98272500D03*
%TO.P,ESP32-S3,14,46*%
%TO.N,unconnected-(ESP32-S3-46-Pad14)*%
X128590000Y-100812500D03*
%TO.P,ESP32-S3,15,9*%
%TO.N,/R_B*%
X128590000Y-103352500D03*
%TO.P,ESP32-S3,16,10*%
%TO.N,/B_B*%
X128590000Y-105892500D03*
%TO.P,ESP32-S3,17,11*%
%TO.N,/Mix3*%
X128590000Y-108432500D03*
%TO.P,ESP32-S3,18,12*%
%TO.N,/Mix2*%
X128590000Y-110972500D03*
%TO.P,ESP32-S3,19,13*%
%TO.N,/Mix1*%
X128590000Y-113512500D03*
%TO.P,ESP32-S3,20*%
%TO.N,unconnected-(ESP32-S3-Pad20)*%
X128590000Y-116052500D03*
%TO.P,ESP32-S3,21,Vin*%
%TO.N,/5V*%
X128590000Y-118592500D03*
%TO.P,ESP32-S3,22,Gnd*%
%TO.N,Net-(D1-A)*%
X128590000Y-121132500D03*
%TO.P,ESP32-S3,23,GND*%
%TO.N,unconnected-(ESP32-S3-GND-Pad23)*%
X153990000Y-67792500D03*
%TO.P,ESP32-S3,24,TX*%
%TO.N,unconnected-(ESP32-S3-TX-Pad24)*%
X153990000Y-70332500D03*
%TO.P,ESP32-S3,25,RX*%
%TO.N,unconnected-(ESP32-S3-RX-Pad25)*%
X153990000Y-72872500D03*
%TO.P,ESP32-S3,26,1*%
%TO.N,/STEP*%
X153990000Y-75412500D03*
%TO.P,ESP32-S3,27,2*%
%TO.N,/DIR*%
X153990000Y-77952500D03*
%TO.P,ESP32-S3,28,42*%
%TO.N,/FLT*%
X153990000Y-80492500D03*
%TO.P,ESP32-S3,29,41*%
%TO.N,/M0*%
X153990000Y-83032500D03*
%TO.P,ESP32-S3,30,40*%
%TO.N,/M1*%
X153990000Y-85572500D03*
%TO.P,ESP32-S3,31,39*%
%TO.N,/M2*%
X153990000Y-88112500D03*
%TO.P,ESP32-S3,32,38*%
%TO.N,/EN*%
X153990000Y-90652500D03*
%TO.P,ESP32-S3,33,37*%
%TO.N,unconnected-(ESP32-S3-37-Pad33)*%
X153990000Y-93192500D03*
%TO.P,ESP32-S3,34,36*%
%TO.N,/R_F*%
X153990000Y-95732500D03*
%TO.P,ESP32-S3,35,35*%
%TO.N,unconnected-(ESP32-S3-Pad35)*%
X153990000Y-98272500D03*
%TO.P,ESP32-S3,36,0*%
%TO.N,unconnected-(ESP32-S3-0-Pad36)*%
X153990000Y-100812500D03*
%TO.P,ESP32-S3,37,45*%
%TO.N,unconnected-(ESP32-S3-45-Pad37)*%
X153990000Y-103352500D03*
%TO.P,ESP32-S3,38,48*%
%TO.N,unconnected-(ESP32-S3-48-Pad38)*%
X153990000Y-105892500D03*
%TO.P,ESP32-S3,39,47*%
%TO.N,unconnected-(ESP32-S3-47-Pad39)*%
X153990000Y-108432500D03*
%TO.P,ESP32-S3,40,21*%
%TO.N,Net-(Debug_ports1-Pin_1)*%
X153990000Y-110972500D03*
%TO.P,ESP32-S3,41,20*%
%TO.N,Net-(Debug_ports1-Pin_2)*%
X153990000Y-113512500D03*
%TO.P,ESP32-S3,42*%
%TO.N,unconnected-(ESP32-S3-Pad42)*%
X153990000Y-116052500D03*
%TO.P,ESP32-S3,43,GND*%
%TO.N,unconnected-(ESP32-S3-GND-Pad43)*%
X153990000Y-118592500D03*
%TO.P,ESP32-S3,44,GND*%
%TO.N,Net-(Debug_ports1-Pin_3)*%
X153990000Y-121132500D03*
%TD*%
D12*
%TO.P,Moving1,1,GND*%
%TO.N,Net-(D1-A)*%
X171982000Y-102106300D03*
D11*
%TO.P,Moving1,2,~{FLT}*%
%TO.N,/FLT*%
X171982000Y-99566300D03*
%TO.P,Moving1,3,A2*%
%TO.N,Net-(J3-Pin_2)*%
X171982000Y-97026300D03*
%TO.P,Moving1,4,A1*%
%TO.N,Net-(J3-Pin_1)*%
X171982000Y-94486300D03*
%TO.P,Moving1,5,B1*%
%TO.N,Net-(J3-Pin_3)*%
X171982000Y-91946300D03*
%TO.P,Moving1,6,B2*%
%TO.N,Net-(J3-Pin_4)*%
X171982000Y-89406300D03*
%TO.P,Moving1,7,GND*%
%TO.N,Net-(D1-A)*%
X171982000Y-86866300D03*
%TO.P,Moving1,8,VMOT*%
%TO.N,Net-(D1-K)*%
X171982000Y-84326300D03*
%TO.P,Moving1,9,~{EN}*%
%TO.N,/EN*%
X159282000Y-84326300D03*
%TO.P,Moving1,10,M0*%
%TO.N,/M0*%
X159282000Y-86866300D03*
%TO.P,Moving1,11,M1*%
%TO.N,/M1*%
X159282000Y-89406300D03*
%TO.P,Moving1,12,M2*%
%TO.N,/M2*%
X159282000Y-91946300D03*
%TO.P,Moving1,13,~{RST}*%
%TO.N,/5V*%
X159282000Y-94486300D03*
%TO.P,Moving1,14,~{SLP}*%
X159282000Y-97026300D03*
%TO.P,Moving1,15,STEP*%
%TO.N,/STEP*%
X159282000Y-99566300D03*
%TO.P,Moving1,16,DIR*%
%TO.N,/DIR*%
X159282000Y-102106300D03*
%TD*%
D22*
%TO.P,J1,1,Pin_1*%
%TO.N,Net-(D1-A)*%
X114212500Y-137032500D03*
D21*
%TO.P,J1,2,Pin_2*%
%TO.N,Net-(D1-K)*%
X119212500Y-137032500D03*
%TD*%
D23*
%TO.P,Rehydration_front1,1,Pin_1*%
%TO.N,Net-(D1-A)*%
X165250000Y-58032500D03*
D21*
%TO.P,Rehydration_front1,2,Pin_2*%
%TO.N,Net-(Debug_ports1-Pin_4)*%
X160250000Y-58032500D03*
%TO.P,Rehydration_front1,3,Pin_3*%
%TO.N,/R_F*%
X155250000Y-58032500D03*
%TD*%
D18*
%TO.P,Q1,1,S*%
%TO.N,Net-(D1-A)*%
X113750000Y-121040000D03*
D19*
%TO.P,Q1,2,G*%
%TO.N,Net-(Q1-G)*%
X113750000Y-119770000D03*
%TO.P,Q1,3,D*%
%TO.N,Net-(Mixing1-Pin_1)*%
X113750000Y-118500000D03*
%TD*%
D24*
%TO.P,J2,1,Pin_1*%
%TO.N,Net-(J2-Pin_1)*%
X103500000Y-79000000D03*
D21*
%TO.P,J2,2,Pin_2*%
%TO.N,Net-(J2-Pin_2)*%
X103500000Y-84000000D03*
%TO.P,J2,3,Pin_3*%
%TO.N,Net-(J2-Pin_3)*%
X103500000Y-89000000D03*
%TO.P,J2,4,Pin_4*%
%TO.N,Net-(J2-Pin_4)*%
X103500000Y-94000000D03*
%TD*%
D12*
%TO.P,Rehydration1,1,GND*%
%TO.N,Net-(D1-A)*%
X111090200Y-78254000D03*
D11*
%TO.P,Rehydration1,2,~{FLT}*%
%TO.N,/FLT*%
X111090200Y-80794000D03*
%TO.P,Rehydration1,3,A2*%
%TO.N,Net-(J2-Pin_2)*%
X111090200Y-83334000D03*
%TO.P,Rehydration1,4,A1*%
%TO.N,Net-(J2-Pin_1)*%
X111090200Y-85874000D03*
%TO.P,Rehydration1,5,B1*%
%TO.N,Net-(J2-Pin_3)*%
X111090200Y-88414000D03*
%TO.P,Rehydration1,6,B2*%
%TO.N,Net-(J2-Pin_4)*%
X111090200Y-90954000D03*
%TO.P,Rehydration1,7,GND*%
%TO.N,Net-(D1-A)*%
X111090200Y-93494000D03*
%TO.P,Rehydration1,8,VMOT*%
%TO.N,Net-(D1-K)*%
X111090200Y-96034000D03*
%TO.P,Rehydration1,9,~{EN}*%
%TO.N,/EN*%
X123790200Y-96034000D03*
%TO.P,Rehydration1,10,M0*%
%TO.N,/M0*%
X123790200Y-93494000D03*
%TO.P,Rehydration1,11,M1*%
%TO.N,/M1*%
X123790200Y-90954000D03*
%TO.P,Rehydration1,12,M2*%
%TO.N,/M2*%
X123790200Y-88414000D03*
%TO.P,Rehydration1,13,~{RST}*%
%TO.N,/5V*%
X123790200Y-85874000D03*
%TO.P,Rehydration1,14,~{SLP}*%
X123790200Y-83334000D03*
%TO.P,Rehydration1,15,STEP*%
%TO.N,/STEP*%
X123790200Y-80794000D03*
%TO.P,Rehydration1,16,DIR*%
%TO.N,/DIR*%
X123790200Y-78254000D03*
%TD*%
D18*
%TO.P,Q2,1,S*%
%TO.N,Net-(D1-A)*%
X113250000Y-114040000D03*
D19*
%TO.P,Q2,2,G*%
%TO.N,Net-(Q2-G)*%
X113250000Y-112770000D03*
%TO.P,Q2,3,D*%
%TO.N,Net-(Mixing1-Pin_3)*%
X113250000Y-111500000D03*
%TD*%
D24*
%TO.P,Rehydration_back1,1,Pin_1*%
%TO.N,Net-(D1-A)*%
X166732900Y-68049600D03*
D21*
%TO.P,Rehydration_back1,2,Pin_2*%
%TO.N,Net-(Debug_ports1-Pin_4)*%
X166732900Y-73049600D03*
%TO.P,Rehydration_back1,3,Pin_3*%
%TO.N,/R_B*%
X166732900Y-78049600D03*
%TD*%
D20*
%TO.P,Mixing1,1,Pin_1*%
%TO.N,Net-(Mixing1-Pin_1)*%
X104000000Y-129250000D03*
D21*
%TO.P,Mixing1,2,Pin_2*%
%TO.N,Net-(D1-K)*%
X104000000Y-124250000D03*
%TO.P,Mixing1,3,Pin_3*%
%TO.N,Net-(Mixing1-Pin_3)*%
X104000000Y-119250000D03*
%TO.P,Mixing1,4,Pin_4*%
%TO.N,Net-(D1-K)*%
X104000000Y-114250000D03*
%TO.P,Mixing1,5,Pin_5*%
%TO.N,Net-(Mixing1-Pin_5)*%
X104000000Y-109250000D03*
%TO.P,Mixing1,6,Pin_6*%
%TO.N,Net-(D1-K)*%
X104000000Y-104250000D03*
%TD*%
D26*
%TO.N,Net-(D1-A)*%
X145051100Y-143089500D03*
%TO.N,Net-(Debug_ports1-Pin_4)*%
X118154800Y-70278500D03*
%TO.N,/Heating_pwm*%
X117891500Y-56754200D03*
%TO.N,/R_B*%
X130957200Y-101494500D03*
X132602200Y-80543100D03*
%TO.N,Net-(D1-K)*%
X145051100Y-83361900D03*
%TO.N,/FLT*%
X155449000Y-88668800D03*
%TO.N,/5V*%
X131520000Y-97026300D03*
%TO.N,Net-(Regulator1-VI)*%
X115717100Y-140169500D03*
X145594500Y-137335000D03*
%TD*%
D27*
%TO.N,Net-(Debug_ports1-Pin_2)*%
X161155000Y-120677500D02*
X161155000Y-134437400D01*
X153990000Y-113512500D02*
X161155000Y-120677500D01*
%TO.N,Net-(D1-A)*%
X113750000Y-121040000D02*
X113750000Y-121757200D01*
X128000000Y-129372200D02*
X128080000Y-129292200D01*
X128000000Y-133500000D02*
X128000000Y-129372200D01*
X128080000Y-128000000D02*
X128080000Y-129292200D01*
X128000000Y-139007800D02*
X128000000Y-133500000D01*
X128500000Y-139507800D02*
X128000000Y-139007800D01*
X128500000Y-140500000D02*
X128500000Y-139507800D01*
X128080000Y-121642500D02*
X128080000Y-128000000D01*
X128590000Y-121132500D02*
X128080000Y-121642500D01*
X114000000Y-59690000D02*
X114000000Y-71500000D01*
X112500000Y-58190000D02*
X114000000Y-59690000D01*
X165250000Y-66566700D02*
X165250000Y-58032500D01*
X166732900Y-68049600D02*
X165250000Y-66566700D01*
X171982000Y-102106300D02*
X171982000Y-101114100D01*
X113039800Y-122467400D02*
X113750000Y-121757200D01*
X113039800Y-135859800D02*
X113039800Y-122467400D01*
X114212500Y-137032500D02*
X113039800Y-135859800D01*
X112782000Y-120789200D02*
X113750000Y-121757200D01*
X112782000Y-115225200D02*
X112782000Y-120789200D01*
X113250000Y-114757200D02*
X112782000Y-115225200D01*
X171982000Y-87362400D02*
X171982000Y-87858500D01*
X171982000Y-87362400D02*
X171982000Y-86866300D01*
X170989800Y-72306500D02*
X166732900Y-68049600D01*
X170989800Y-84881900D02*
X170989800Y-72306500D01*
X171982000Y-85874100D02*
X170989800Y-84881900D01*
X171982000Y-86866300D02*
X171982000Y-85874100D01*
X113250000Y-114571500D02*
X113250000Y-114757200D01*
X113250000Y-114398600D02*
X113250000Y-114571500D01*
X113250000Y-114040000D02*
X113250000Y-114398600D01*
X114209500Y-107716700D02*
X113250000Y-106757200D01*
X114209500Y-113612000D02*
X114209500Y-107716700D01*
X113250000Y-114571500D02*
X114209500Y-113612000D01*
X113250000Y-106040000D02*
X113250000Y-106757200D01*
X173229900Y-89106400D02*
X171982000Y-87858500D01*
X173229900Y-100227800D02*
X173229900Y-89106400D01*
X172343600Y-101114100D02*
X173229900Y-100227800D01*
X171982000Y-101114100D02*
X172343600Y-101114100D01*
X111090200Y-93494000D02*
X111090200Y-94486200D01*
X112297600Y-95693600D02*
X111090200Y-94486200D01*
X112297600Y-105087600D02*
X112297600Y-95693600D01*
X113250000Y-106040000D02*
X112297600Y-105087600D01*
X111090200Y-74409800D02*
X114000000Y-71500000D01*
X111090200Y-78254000D02*
X111090200Y-74409800D01*
X111090200Y-78254000D02*
X111090200Y-79246200D01*
X112125700Y-93450700D02*
X111090200Y-94486200D01*
X112125700Y-80281700D02*
X112125700Y-93450700D01*
X111090200Y-79246200D02*
X112125700Y-80281700D01*
X145625000Y-142515600D02*
X145625000Y-140755000D01*
X145051100Y-143089500D02*
X145625000Y-142515600D01*
X145051100Y-143089500D02*
X145625000Y-142515600D01*
X145625000Y-142515600D02*
X145051100Y-143089500D01*
%TO.N,Net-(Debug_ports1-Pin_1)*%
X162745700Y-131028100D02*
X166155000Y-134437400D01*
X162745700Y-119728200D02*
X162745700Y-131028100D01*
X153990000Y-110972500D02*
X162745700Y-119728200D01*
%TO.N,Net-(Debug_ports1-Pin_3)*%
X156155000Y-123297500D02*
X156155000Y-134437400D01*
X153990000Y-121132500D02*
X156155000Y-123297500D01*
%TO.N,Net-(Debug_ports1-Pin_4)*%
X151155000Y-66437500D02*
X142397900Y-57680400D01*
X151155000Y-134437400D02*
X151155000Y-66437500D01*
X160250000Y-66566700D02*
X160250000Y-58032500D01*
X166732900Y-73049600D02*
X160250000Y-66566700D01*
X125000000Y-64202500D02*
X125000000Y-57500000D01*
X128590000Y-67792500D02*
X125000000Y-64202500D01*
X118154800Y-68345200D02*
X118154800Y-70278500D01*
X119500000Y-67000000D02*
X118154800Y-68345200D01*
%TO.N,/VD_o*%
X104032500Y-60250000D02*
X104032500Y-65250000D01*
%TO.N,/Heating_pwm*%
X117891500Y-59027600D02*
X117891500Y-56754200D01*
X121917800Y-63053900D02*
X117891500Y-59027600D01*
X121917800Y-71280300D02*
X121917800Y-63053900D01*
X128590000Y-77952500D02*
X121917800Y-71280300D01*
X117891500Y-56754200D02*
X117891500Y-56719100D01*
X117891500Y-56719100D02*
X117891500Y-56754200D01*
%TO.N,/R_B*%
X130957200Y-101494500D02*
X130957200Y-103352500D01*
X130957200Y-103352500D02*
X130957200Y-101494500D01*
X130957200Y-82188100D02*
X130957200Y-101494500D01*
X132602200Y-80543100D02*
X130957200Y-82188100D01*
%TO.N,Net-(J3-Pin_3)*%
X171982000Y-91946300D02*
X171982000Y-92938500D01*
X170333300Y-109764900D02*
X165031500Y-115066700D01*
X170333300Y-94587200D02*
X170333300Y-109764900D01*
X171982000Y-92938500D02*
X170333300Y-94587200D01*
%TO.N,Net-(J3-Pin_1)*%
X170989800Y-119108400D02*
X165031500Y-125066700D01*
X170989800Y-101141500D02*
X170989800Y-119108400D01*
X171385700Y-100745600D02*
X170989800Y-101141500D01*
X172260700Y-100745600D02*
X171385700Y-100745600D01*
X172974200Y-100032100D02*
X172260700Y-100745600D01*
X172974200Y-96470700D02*
X172974200Y-100032100D01*
X171982000Y-95478500D02*
X172974200Y-96470700D01*
X171982000Y-94486300D02*
X171982000Y-95478500D01*
%TO.N,Net-(J3-Pin_4)*%
X165031500Y-97349000D02*
X171982000Y-90398500D01*
X165031500Y-110066700D02*
X165031500Y-97349000D01*
X171982000Y-89406300D02*
X171982000Y-90398500D01*
%TO.N,/B_F*%
X129983900Y-65094400D02*
X137397900Y-57680400D01*
X129983900Y-96878600D02*
X129983900Y-65094400D01*
X128590000Y-98272500D02*
X129983900Y-96878600D01*
%TO.N,Net-(J3-Pin_2)*%
X171982000Y-97026300D02*
X171982000Y-98018500D01*
X170734100Y-114364100D02*
X165031500Y-120066700D01*
X170734100Y-99266400D02*
X170734100Y-114364100D01*
X171982000Y-98018500D02*
X170734100Y-99266400D01*
%TO.N,/R_F*%
X152685700Y-94428200D02*
X153990000Y-95732500D01*
X152685700Y-60596800D02*
X152685700Y-94428200D01*
X155250000Y-58032500D02*
X152685700Y-60596800D01*
%TO.N,/Mix1*%
X119750000Y-122352500D02*
X119750000Y-123810000D01*
X128590000Y-113512500D02*
X119750000Y-122352500D01*
%TO.N,/B_B*%
X129601300Y-57898700D02*
X130000000Y-57500000D01*
X129601300Y-96090900D02*
X129601300Y-57898700D01*
X128737800Y-96954400D02*
X129601300Y-96090900D01*
X128509100Y-96954400D02*
X128737800Y-96954400D01*
X127629200Y-97834300D02*
X128509100Y-96954400D01*
X127629200Y-104931700D02*
X127629200Y-97834300D01*
X128590000Y-105892500D02*
X127629200Y-104931700D01*
%TO.N,/STEP*%
X160279400Y-81701900D02*
X153990000Y-75412500D01*
X160279400Y-97576700D02*
X160279400Y-81701900D01*
X159282000Y-98574100D02*
X160279400Y-97576700D01*
X159282000Y-99566300D02*
X159282000Y-98574100D01*
%TO.N,Net-(D1-K)*%
X107250000Y-124250000D02*
X104000000Y-124250000D01*
X111000000Y-128000000D02*
X107250000Y-124250000D01*
X117920000Y-135740000D02*
X117920000Y-128000000D01*
X119212500Y-137032500D02*
X117920000Y-135740000D01*
X104000000Y-114250000D02*
X102381400Y-114250000D01*
X102381400Y-122631400D02*
X104000000Y-124250000D01*
X102381400Y-114250000D02*
X102381400Y-122631400D01*
X102381400Y-105868600D02*
X104000000Y-104250000D01*
X102381400Y-114250000D02*
X102381400Y-105868600D01*
X111090200Y-97159800D02*
X111090200Y-96034000D01*
X104000000Y-104250000D02*
X111090200Y-97159800D01*
X142000000Y-86413000D02*
X145051100Y-83361900D01*
X142000000Y-130000000D02*
X142000000Y-86413000D01*
X145051100Y-83361900D02*
X144278300Y-84134700D01*
X144278300Y-84134700D02*
X145051100Y-83361900D01*
%TO.N,/FLT*%
X155449000Y-81951500D02*
X155449000Y-88668800D01*
X153990000Y-80492500D02*
X155449000Y-81951500D01*
%TO.N,/5V*%
X159282000Y-94486300D02*
X159282000Y-97026300D01*
X123790200Y-83334000D02*
X123790200Y-85874000D01*
X139325000Y-138475000D02*
X145625000Y-138475000D01*
X135475000Y-138475000D02*
X139325000Y-138475000D01*
X130500000Y-133500000D02*
X135475000Y-138475000D01*
X128590000Y-118592500D02*
X130500000Y-120502500D01*
X130500000Y-120502500D02*
X130500000Y-133500000D01*
X131524800Y-115657700D02*
X128590000Y-118592500D01*
X131524800Y-97031100D02*
X131524800Y-115657700D01*
X131435800Y-96942100D02*
X131524800Y-97031100D01*
X131435800Y-96942100D02*
X131520000Y-97026300D01*
%TO.N,/DIR*%
X159282000Y-102106300D02*
X159282000Y-101114100D01*
X157528500Y-99360600D02*
X159282000Y-101114100D01*
X157528500Y-95302800D02*
X157528500Y-99360600D01*
X154148200Y-91922500D02*
X157528500Y-95302800D01*
X153893600Y-91922500D02*
X154148200Y-91922500D01*
X153002500Y-91031400D02*
X153893600Y-91922500D01*
X153002500Y-78940000D02*
X153002500Y-91031400D01*
X153990000Y-77952500D02*
X153002500Y-78940000D01*
X124782400Y-79224900D02*
X128590000Y-83032500D01*
X124782400Y-78254000D02*
X124782400Y-79224900D01*
X123790200Y-78254000D02*
X124782400Y-78254000D01*
%TO.N,/EN*%
X159282000Y-84326300D02*
X159282000Y-85318500D01*
X155941200Y-88659300D02*
X159282000Y-85318500D01*
X155941200Y-88872700D02*
X155941200Y-88659300D01*
X154161400Y-90652500D02*
X155941200Y-88872700D01*
X153990000Y-90652500D02*
X154161400Y-90652500D01*
%TO.N,/M2*%
X124782400Y-89384900D02*
X124782400Y-88414000D01*
X128590000Y-93192500D02*
X124782400Y-89384900D01*
X123790200Y-88414000D02*
X124782400Y-88414000D01*
%TO.N,Net-(Regulator1-VI)*%
X115805700Y-140080900D02*
X115717100Y-140169500D01*
X115805700Y-129830700D02*
X115805700Y-140080900D01*
X113975000Y-128000000D02*
X115805700Y-129830700D01*
X145625000Y-137304500D02*
X145625000Y-136195000D01*
X145594500Y-137335000D02*
X145625000Y-137304500D01*
X145594500Y-137335000D02*
X145625000Y-137304500D01*
X145625000Y-137304500D02*
X145594500Y-137335000D01*
%TD*%
M02*
