%TF.GenerationSoftware,KiCad,Pcbnew,9.0.1*%
%TF.CreationDate,2025-05-09T22:29:33-07:00*%
%TF.ProjectId,pcb,7063622e-6b69-4636-9164-5f7063625858,rev?*%
%TF.SameCoordinates,Original*%
%TF.FileFunction,Copper,L2,Bot*%
%TF.FilePolarity,Positive*%
%FSLAX46Y46*%
G04 Gerber Fmt 4.6, Leading zero omitted, Abs format (unit mm)*
G04 Created by KiCad (PCBNEW 9.0.1) date 2025-05-09 22:29:33*
%MOMM*%
%LPD*%
G01*
G04 APERTURE LIST*
G04 Aperture macros list*
%AMRoundRect*
0 Rectangle with rounded corners*
0 $1 Rounding radius*
0 $2 $3 $4 $5 $6 $7 $8 $9 X,Y pos of 4 corners*
0 Add a 4 corners polygon primitive as box body*
4,1,4,$2,$3,$4,$5,$6,$7,$8,$9,$2,$3,0*
0 Add four circle primitives for the rounded corners*
1,1,$1+$1,$2,$3*
1,1,$1+$1,$4,$5*
1,1,$1+$1,$6,$7*
1,1,$1+$1,$8,$9*
0 Add four rect primitives between the rounded corners*
20,1,$1+$1,$2,$3,$4,$5,0*
20,1,$1+$1,$4,$5,$6,$7,0*
20,1,$1+$1,$6,$7,$8,$9,0*
20,1,$1+$1,$8,$9,$2,$3,0*%
G04 Aperture macros list end*
%TA.AperFunction,ComponentPad*%
%ADD10R,2.200000X2.200000*%
%TD*%
%TA.AperFunction,ComponentPad*%
%ADD11O,2.200000X2.200000*%
%TD*%
%TA.AperFunction,ComponentPad*%
%ADD12R,1.500000X1.050000*%
%TD*%
%TA.AperFunction,ComponentPad*%
%ADD13O,1.500000X1.050000*%
%TD*%
%TA.AperFunction,ComponentPad*%
%ADD14RoundRect,0.250001X1.149999X-1.149999X1.149999X1.149999X-1.149999X1.149999X-1.149999X-1.149999X0*%
%TD*%
%TA.AperFunction,ComponentPad*%
%ADD15C,2.800000*%
%TD*%
%TA.AperFunction,ComponentPad*%
%ADD16RoundRect,0.250001X-1.149999X-1.149999X1.149999X-1.149999X1.149999X1.149999X-1.149999X1.149999X0*%
%TD*%
%TA.AperFunction,ComponentPad*%
%ADD17RoundRect,0.250001X1.149999X1.149999X-1.149999X1.149999X-1.149999X-1.149999X1.149999X-1.149999X0*%
%TD*%
%TA.AperFunction,ComponentPad*%
%ADD18RoundRect,0.250001X-1.149999X1.149999X-1.149999X-1.149999X1.149999X-1.149999X1.149999X1.149999X0*%
%TD*%
%TA.AperFunction,ComponentPad*%
%ADD19C,1.500000*%
%TD*%
%TA.AperFunction,ComponentPad*%
%ADD20R,1.600000X1.600000*%
%TD*%
%TA.AperFunction,ComponentPad*%
%ADD21O,1.600000X1.600000*%
%TD*%
%TA.AperFunction,ViaPad*%
%ADD22C,0.600000*%
%TD*%
%TA.AperFunction,Conductor*%
%ADD23C,0.127000*%
%TD*%
G04 APERTURE END LIST*
D10*
%TO.P,D1,1,K*%
%TO.N,Net-(D1-K)*%
X121132500Y-127500000D03*
D11*
%TO.P,D1,2,A*%
%TO.N,Net-(D1-A)*%
X131292500Y-127500000D03*
%TD*%
D12*
%TO.P,Q3,1,S*%
%TO.N,Net-(D1-A)*%
X114250000Y-107815300D03*
D13*
%TO.P,Q3,2,G*%
%TO.N,Net-(Q3-G)*%
X114250000Y-106545300D03*
%TO.P,Q3,3,D*%
%TO.N,Net-(Mixing1-Pin_5)*%
X114250000Y-105275300D03*
%TD*%
D14*
%TO.P,Moving2,1,Pin_1*%
%TO.N,Net-(Moving1-A1)*%
X165031500Y-125066700D03*
D15*
%TO.P,Moving2,2,Pin_2*%
%TO.N,Net-(Moving1-A2)*%
X165031500Y-120066700D03*
%TO.P,Moving2,3,Pin_3*%
%TO.N,Net-(Moving1-B1)*%
X165031500Y-115066700D03*
%TO.P,Moving2,4,Pin_4*%
%TO.N,Net-(Moving1-B2)*%
X165031500Y-110066700D03*
%TD*%
D16*
%TO.P,MovingBumper_back1,1,Pin_1*%
%TO.N,Net-(D1-A)*%
X120000000Y-57500000D03*
D15*
%TO.P,MovingBumper_back1,2,Pin_2*%
%TO.N,Net-(Debug_ports1-Pin_4)*%
X125000000Y-57500000D03*
%TO.P,MovingBumper_back1,3,Pin_3*%
%TO.N,/B_B*%
X130000000Y-57500000D03*
%TD*%
D16*
%TO.P,MovingBumper_front1,1,Pin_1*%
%TO.N,Net-(D1-A)*%
X138000000Y-57500000D03*
D15*
%TO.P,MovingBumper_front1,2,Pin_2*%
%TO.N,Net-(Debug_ports1-Pin_4)*%
X143000000Y-57500000D03*
%TO.P,MovingBumper_front1,3,Pin_3*%
%TO.N,/B_F*%
X148000000Y-57500000D03*
%TD*%
D17*
%TO.P,Debug_ports1,1,Pin_1*%
%TO.N,Net-(Debug_ports1-Pin_1)*%
X166155000Y-134000000D03*
D15*
%TO.P,Debug_ports1,2,Pin_2*%
%TO.N,Net-(Debug_ports1-Pin_2)*%
X161155000Y-134000000D03*
%TO.P,Debug_ports1,3,Pin_3*%
%TO.N,Net-(Debug_ports1-Pin_3)*%
X156155000Y-134000000D03*
%TO.P,Debug_ports1,4,Pin_4*%
%TO.N,Net-(Debug_ports1-Pin_4)*%
X151155000Y-134000000D03*
%TD*%
D18*
%TO.P,Thermistor1,1,Pin_1*%
%TO.N,/Heating_pwm*%
X109250000Y-56032500D03*
D15*
%TO.P,Thermistor1,2,Pin_2*%
%TO.N,/VD_o*%
X109250000Y-61032500D03*
%TO.P,Thermistor1,3,Pin_3*%
X109250000Y-66032500D03*
%TO.P,Thermistor1,4,Pin_4*%
%TO.N,Net-(Debug_ports1-Pin_4)*%
X109250000Y-71032500D03*
%TD*%
D19*
%TO.P,ESP32-S3,1,3V3*%
%TO.N,Net-(Debug_ports1-Pin_4)*%
X128590000Y-67792500D03*
%TO.P,ESP32-S3,2,3V3*%
%TO.N,unconnected-(ESP32-S3-3V3-Pad2)*%
X128590000Y-70332500D03*
%TO.P,ESP32-S3,3,RST*%
%TO.N,unconnected-(ESP32-S3-RST-Pad3)*%
X128590000Y-72872500D03*
%TO.P,ESP32-S3,4,4*%
%TO.N,/VD_o*%
X128590000Y-75412500D03*
%TO.P,ESP32-S3,5,5*%
%TO.N,/Heating_pwm*%
X128590000Y-77952500D03*
%TO.P,ESP32-S3,6,6*%
%TO.N,/STEP*%
X128590000Y-80492500D03*
%TO.P,ESP32-S3,7,7*%
%TO.N,/DIR*%
X128590000Y-83032500D03*
%TO.P,ESP32-S3,8,15*%
%TO.N,/FLT*%
X128590000Y-85572500D03*
%TO.P,ESP32-S3,9,16*%
%TO.N,/M0*%
X128590000Y-88112500D03*
%TO.P,ESP32-S3,10,17*%
%TO.N,/M1*%
X128590000Y-90652500D03*
%TO.P,ESP32-S3,11,18*%
%TO.N,/M2*%
X128590000Y-93192500D03*
%TO.P,ESP32-S3,12,8*%
%TO.N,/EN*%
X128590000Y-95732500D03*
%TO.P,ESP32-S3,13,3*%
%TO.N,/B_F*%
X128590000Y-98272500D03*
%TO.P,ESP32-S3,14,46*%
%TO.N,unconnected-(ESP32-S3-46-Pad14)*%
X128590000Y-100812500D03*
%TO.P,ESP32-S3,15,9*%
%TO.N,/R_B*%
X128590000Y-103352500D03*
%TO.P,ESP32-S3,16,10*%
%TO.N,/B_B*%
X128590000Y-105892500D03*
%TO.P,ESP32-S3,17,11*%
%TO.N,/Mix3*%
X128590000Y-108432500D03*
%TO.P,ESP32-S3,18,12*%
%TO.N,/Mix2*%
X128590000Y-110972500D03*
%TO.P,ESP32-S3,19,13*%
%TO.N,/Mix1*%
X128590000Y-113512500D03*
%TO.P,ESP32-S3,20*%
%TO.N,unconnected-(ESP32-S3-Pad20)*%
X128590000Y-116052500D03*
%TO.P,ESP32-S3,21,Vin*%
%TO.N,/5V*%
X128590000Y-118592500D03*
%TO.P,ESP32-S3,22,Gnd*%
%TO.N,Net-(D1-A)*%
X128590000Y-121132500D03*
%TO.P,ESP32-S3,23,GND*%
%TO.N,unconnected-(ESP32-S3-GND-Pad23)*%
X153990000Y-67792500D03*
%TO.P,ESP32-S3,24,TX*%
%TO.N,unconnected-(ESP32-S3-TX-Pad24)*%
X153990000Y-70332500D03*
%TO.P,ESP32-S3,25,RX*%
%TO.N,unconnected-(ESP32-S3-RX-Pad25)*%
X153990000Y-72872500D03*
%TO.P,ESP32-S3,26,1*%
%TO.N,/STEP*%
X153990000Y-75412500D03*
%TO.P,ESP32-S3,27,2*%
%TO.N,/DIR*%
X153990000Y-77952500D03*
%TO.P,ESP32-S3,28,42*%
%TO.N,/FLT*%
X153990000Y-80492500D03*
%TO.P,ESP32-S3,29,41*%
%TO.N,/M0*%
X153990000Y-83032500D03*
%TO.P,ESP32-S3,30,40*%
%TO.N,/M1*%
X153990000Y-85572500D03*
%TO.P,ESP32-S3,31,39*%
%TO.N,/M2*%
X153990000Y-88112500D03*
%TO.P,ESP32-S3,32,38*%
%TO.N,/EN*%
X153990000Y-90652500D03*
%TO.P,ESP32-S3,33,37*%
%TO.N,unconnected-(ESP32-S3-37-Pad33)*%
X153990000Y-93192500D03*
%TO.P,ESP32-S3,34,36*%
%TO.N,/R_F*%
X153990000Y-95732500D03*
%TO.P,ESP32-S3,35,35*%
%TO.N,unconnected-(ESP32-S3-Pad35)*%
X153990000Y-98272500D03*
%TO.P,ESP32-S3,36,0*%
%TO.N,unconnected-(ESP32-S3-0-Pad36)*%
X153990000Y-100812500D03*
%TO.P,ESP32-S3,37,45*%
%TO.N,unconnected-(ESP32-S3-45-Pad37)*%
X153990000Y-103352500D03*
%TO.P,ESP32-S3,38,48*%
%TO.N,unconnected-(ESP32-S3-48-Pad38)*%
X153990000Y-105892500D03*
%TO.P,ESP32-S3,39,47*%
%TO.N,unconnected-(ESP32-S3-47-Pad39)*%
X153990000Y-108432500D03*
%TO.P,ESP32-S3,40,21*%
%TO.N,Net-(Debug_ports1-Pin_1)*%
X153990000Y-110972500D03*
%TO.P,ESP32-S3,41,20*%
%TO.N,Net-(Debug_ports1-Pin_2)*%
X153990000Y-113512500D03*
%TO.P,ESP32-S3,42*%
%TO.N,unconnected-(ESP32-S3-Pad42)*%
X153990000Y-116052500D03*
%TO.P,ESP32-S3,43,GND*%
%TO.N,unconnected-(ESP32-S3-GND-Pad43)*%
X153990000Y-118592500D03*
%TO.P,ESP32-S3,44,GND*%
%TO.N,Net-(Debug_ports1-Pin_3)*%
X153990000Y-121132500D03*
%TD*%
D20*
%TO.P,Moving1,1,GND*%
%TO.N,Net-(D1-A)*%
X171982000Y-102106300D03*
D21*
%TO.P,Moving1,2,~{FLT}*%
%TO.N,/FLT*%
X171982000Y-99566300D03*
%TO.P,Moving1,3,A2*%
%TO.N,Net-(Moving1-A2)*%
X171982000Y-97026300D03*
%TO.P,Moving1,4,A1*%
%TO.N,Net-(Moving1-A1)*%
X171982000Y-94486300D03*
%TO.P,Moving1,5,B1*%
%TO.N,Net-(Moving1-B1)*%
X171982000Y-91946300D03*
%TO.P,Moving1,6,B2*%
%TO.N,Net-(Moving1-B2)*%
X171982000Y-89406300D03*
%TO.P,Moving1,7,GND*%
%TO.N,Net-(D1-A)*%
X171982000Y-86866300D03*
%TO.P,Moving1,8,VMOT*%
%TO.N,Net-(D1-K)*%
X171982000Y-84326300D03*
%TO.P,Moving1,9,~{EN}*%
%TO.N,/EN*%
X159282000Y-84326300D03*
%TO.P,Moving1,10,M0*%
%TO.N,/M0*%
X159282000Y-86866300D03*
%TO.P,Moving1,11,M1*%
%TO.N,/M1*%
X159282000Y-89406300D03*
%TO.P,Moving1,12,M2*%
%TO.N,/M2*%
X159282000Y-91946300D03*
%TO.P,Moving1,13,~{RST}*%
%TO.N,/5V*%
X159282000Y-94486300D03*
%TO.P,Moving1,14,~{SLP}*%
X159282000Y-97026300D03*
%TO.P,Moving1,15,STEP*%
%TO.N,/STEP*%
X159282000Y-99566300D03*
%TO.P,Moving1,16,DIR*%
%TO.N,/DIR*%
X159282000Y-102106300D03*
%TD*%
D16*
%TO.P,J1,1,Pin_1*%
%TO.N,Net-(D1-A)*%
X114500000Y-135500000D03*
D15*
%TO.P,J1,2,Pin_2*%
%TO.N,Net-(D1-K)*%
X119500000Y-135500000D03*
%TD*%
D16*
%TO.P,Rehydration_front1,1,Pin_1*%
%TO.N,Net-(D1-A)*%
X156000000Y-57500000D03*
D15*
%TO.P,Rehydration_front1,2,Pin_2*%
%TO.N,Net-(Debug_ports1-Pin_4)*%
X161000000Y-57500000D03*
%TO.P,Rehydration_front1,3,Pin_3*%
%TO.N,/R_F*%
X166000000Y-57500000D03*
%TD*%
D12*
%TO.P,Q1,1,S*%
%TO.N,Net-(D1-A)*%
X114504400Y-121649700D03*
D13*
%TO.P,Q1,2,G*%
%TO.N,Net-(Q1-G)*%
X114504400Y-120379700D03*
%TO.P,Q1,3,D*%
%TO.N,Net-(Mixing1-Pin_1)*%
X114504400Y-119109700D03*
%TD*%
D18*
%TO.P,Rehydration2,1,Pin_1*%
%TO.N,Net-(Rehydration1-A1)*%
X103500000Y-79000000D03*
D15*
%TO.P,Rehydration2,2,Pin_2*%
%TO.N,Net-(Rehydration1-A2)*%
X103500000Y-84000000D03*
%TO.P,Rehydration2,3,Pin_3*%
%TO.N,Net-(Rehydration1-B1)*%
X103500000Y-89000000D03*
%TO.P,Rehydration2,4,Pin_4*%
%TO.N,Net-(Rehydration1-B2)*%
X103500000Y-94000000D03*
%TD*%
D20*
%TO.P,Rehydration1,1,GND*%
%TO.N,Net-(D1-A)*%
X111090200Y-78254000D03*
D21*
%TO.P,Rehydration1,2,~{FLT}*%
%TO.N,/FLT*%
X111090200Y-80794000D03*
%TO.P,Rehydration1,3,A2*%
%TO.N,Net-(Rehydration1-A2)*%
X111090200Y-83334000D03*
%TO.P,Rehydration1,4,A1*%
%TO.N,Net-(Rehydration1-A1)*%
X111090200Y-85874000D03*
%TO.P,Rehydration1,5,B1*%
%TO.N,Net-(Rehydration1-B1)*%
X111090200Y-88414000D03*
%TO.P,Rehydration1,6,B2*%
%TO.N,Net-(Rehydration1-B2)*%
X111090200Y-90954000D03*
%TO.P,Rehydration1,7,GND*%
%TO.N,Net-(D1-A)*%
X111090200Y-93494000D03*
%TO.P,Rehydration1,8,VMOT*%
%TO.N,Net-(D1-K)*%
X111090200Y-96034000D03*
%TO.P,Rehydration1,9,~{EN}*%
%TO.N,/EN*%
X123790200Y-96034000D03*
%TO.P,Rehydration1,10,M0*%
%TO.N,/M0*%
X123790200Y-93494000D03*
%TO.P,Rehydration1,11,M1*%
%TO.N,/M1*%
X123790200Y-90954000D03*
%TO.P,Rehydration1,12,M2*%
%TO.N,/M2*%
X123790200Y-88414000D03*
%TO.P,Rehydration1,13,~{RST}*%
%TO.N,/5V*%
X123790200Y-85874000D03*
%TO.P,Rehydration1,14,~{SLP}*%
X123790200Y-83334000D03*
%TO.P,Rehydration1,15,STEP*%
%TO.N,/STEP*%
X123790200Y-80794000D03*
%TO.P,Rehydration1,16,DIR*%
%TO.N,/DIR*%
X123790200Y-78254000D03*
%TD*%
D12*
%TO.P,Q2,1,S*%
%TO.N,Net-(D1-A)*%
X114410100Y-114965400D03*
D13*
%TO.P,Q2,2,G*%
%TO.N,Net-(Q2-G)*%
X114410100Y-113695400D03*
%TO.P,Q2,3,D*%
%TO.N,Net-(Mixing1-Pin_3)*%
X114410100Y-112425400D03*
%TD*%
D18*
%TO.P,Rehydration_back1,1,Pin_1*%
%TO.N,Net-(D1-A)*%
X166732900Y-68049600D03*
D15*
%TO.P,Rehydration_back1,2,Pin_2*%
%TO.N,Net-(Debug_ports1-Pin_4)*%
X166732900Y-73049600D03*
%TO.P,Rehydration_back1,3,Pin_3*%
%TO.N,/R_B*%
X166732900Y-78049600D03*
%TD*%
D14*
%TO.P,Mixing1,1,Pin_1*%
%TO.N,Net-(Mixing1-Pin_1)*%
X103939900Y-129600900D03*
D15*
%TO.P,Mixing1,2,Pin_2*%
%TO.N,Net-(D1-K)*%
X103939900Y-124600900D03*
%TO.P,Mixing1,3,Pin_3*%
%TO.N,Net-(Mixing1-Pin_3)*%
X103939900Y-119600900D03*
%TO.P,Mixing1,4,Pin_4*%
%TO.N,Net-(D1-K)*%
X103939900Y-114600900D03*
%TO.P,Mixing1,5,Pin_5*%
%TO.N,Net-(Mixing1-Pin_5)*%
X103939900Y-109600900D03*
%TO.P,Mixing1,6,Pin_6*%
%TO.N,Net-(D1-K)*%
X103939900Y-104600900D03*
%TD*%
D22*
%TO.N,Net-(D1-A)*%
X128590000Y-126262500D03*
%TO.N,Net-(Q2-G)*%
X119858200Y-113291900D03*
%TO.N,Net-(Debug_ports1-Pin_4)*%
X149827900Y-72872500D03*
X161324700Y-73818100D03*
%TO.N,/Heating_pwm*%
X111533700Y-75687500D03*
%TO.N,/R_B*%
X157741700Y-101706300D03*
%TO.N,/B_F*%
X128802000Y-60812500D03*
%TO.N,Net-(D1-K)*%
X111395500Y-127500000D03*
X141960400Y-129019400D03*
X146734500Y-96379400D03*
%TO.N,/FLT*%
X169396700Y-84457100D03*
%TO.N,/5V*%
X122798000Y-94483800D03*
%TO.N,Net-(Regulator1-VI)*%
X132073900Y-135187500D03*
X143810800Y-131916000D03*
%TD*%
D23*
%TO.N,Net-(Mixing1-Pin_5)*%
X108265500Y-105275300D02*
X103939900Y-109600900D01*
X114250000Y-105275300D02*
X108265500Y-105275300D01*
%TO.N,Net-(Mixing1-Pin_1)*%
X102303600Y-127964600D02*
X103939900Y-129600900D01*
X102303600Y-123943000D02*
X102303600Y-127964600D01*
X107136900Y-119109700D02*
X102303600Y-123943000D01*
X114504400Y-119109700D02*
X107136900Y-119109700D01*
%TO.N,Net-(Mixing1-Pin_3)*%
X111115400Y-112425400D02*
X114410100Y-112425400D01*
X103939900Y-119600900D02*
X111115400Y-112425400D01*
%TO.N,Net-(D1-A)*%
X115963800Y-121132500D02*
X115446600Y-121649700D01*
X128590000Y-121132500D02*
X115963800Y-121132500D01*
X114504400Y-121649700D02*
X115446600Y-121649700D01*
X121642400Y-55857600D02*
X138000000Y-55857600D01*
X120000000Y-57500000D02*
X121642400Y-55857600D01*
X138000000Y-57500000D02*
X138000000Y-55857600D01*
X154357600Y-55857600D02*
X156000000Y-57500000D01*
X138000000Y-55857600D02*
X154357600Y-55857600D01*
X166549600Y-68049600D02*
X156000000Y-57500000D01*
X166732900Y-68049600D02*
X166549600Y-68049600D01*
X128762800Y-126262500D02*
X128590000Y-126262500D01*
X130000300Y-127500000D02*
X128762800Y-126262500D01*
X131292500Y-127500000D02*
X130000300Y-127500000D01*
%TO.N,Net-(Q2-G)*%
X115755800Y-113291900D02*
X115352300Y-113695400D01*
X119858200Y-113291900D02*
X115755800Y-113291900D01*
X114410100Y-113695400D02*
X115352300Y-113695400D01*
%TO.N,Net-(Debug_ports1-Pin_4)*%
X126593100Y-59093100D02*
X125000000Y-57500000D01*
X141406900Y-59093100D02*
X126593100Y-59093100D01*
X143000000Y-57500000D02*
X141406900Y-59093100D01*
X125350000Y-71032500D02*
X128590000Y-67792500D01*
X109250000Y-71032500D02*
X125350000Y-71032500D01*
X150773500Y-73818100D02*
X161324700Y-73818100D01*
X149827900Y-72872500D02*
X150773500Y-73818100D01*
X165964400Y-73818100D02*
X166732900Y-73049600D01*
X161324700Y-73818100D02*
X165964400Y-73818100D01*
%TO.N,/VD_o*%
X107595600Y-67686900D02*
X109250000Y-66032500D01*
X107595600Y-71681100D02*
X107595600Y-67686900D01*
X108653100Y-72738600D02*
X107595600Y-71681100D01*
X125916100Y-72738600D02*
X108653100Y-72738600D01*
X128590000Y-75412500D02*
X125916100Y-72738600D01*
%TO.N,/Heating_pwm*%
X126325000Y-75687500D02*
X128590000Y-77952500D01*
X111533700Y-75687500D02*
X126325000Y-75687500D01*
%TO.N,/R_B*%
X129860000Y-102082500D02*
X128590000Y-103352500D01*
X157365500Y-102082500D02*
X129860000Y-102082500D01*
X157741700Y-101706300D02*
X157365500Y-102082500D01*
%TO.N,Net-(Rehydration1-B2)*%
X106546000Y-90954000D02*
X103500000Y-94000000D01*
X111090200Y-90954000D02*
X106546000Y-90954000D01*
%TO.N,Net-(Rehydration1-A1)*%
X106564000Y-82064000D02*
X103500000Y-79000000D01*
X111278000Y-82064000D02*
X106564000Y-82064000D01*
X112114800Y-82900800D02*
X111278000Y-82064000D01*
X112114800Y-83857200D02*
X112114800Y-82900800D01*
X111090200Y-84881800D02*
X112114800Y-83857200D01*
X111090200Y-85874000D02*
X111090200Y-84881800D01*
%TO.N,Net-(Rehydration1-A2)*%
X109432000Y-84000000D02*
X103500000Y-84000000D01*
X110098000Y-83334000D02*
X109432000Y-84000000D01*
X111090200Y-83334000D02*
X110098000Y-83334000D01*
%TO.N,/B_F*%
X144687500Y-60812500D02*
X148000000Y-57500000D01*
X128802000Y-60812500D02*
X144687500Y-60812500D01*
X128802000Y-60812500D02*
X129486600Y-61497100D01*
X129486600Y-61497100D02*
X128802000Y-60812500D01*
%TO.N,Net-(Rehydration1-B1)*%
X104086000Y-88414000D02*
X103500000Y-89000000D01*
X111090200Y-88414000D02*
X104086000Y-88414000D01*
%TO.N,/STEP*%
X123790200Y-80794000D02*
X124782400Y-80794000D01*
X125083900Y-80492500D02*
X124782400Y-80794000D01*
X128590000Y-80492500D02*
X125083900Y-80492500D01*
X133670000Y-75412500D02*
X128590000Y-80492500D01*
X153990000Y-75412500D02*
X133670000Y-75412500D01*
%TO.N,Net-(D1-K)*%
X106839000Y-127500000D02*
X103939900Y-124600900D01*
X111395500Y-127500000D02*
X106839000Y-127500000D01*
X121132500Y-127500000D02*
X111395500Y-127500000D01*
X123944100Y-129019400D02*
X141960400Y-129019400D01*
X122424700Y-127500000D02*
X123944100Y-129019400D01*
X121132500Y-127500000D02*
X122424700Y-127500000D01*
X147029800Y-96674700D02*
X146734500Y-96379400D01*
X154380300Y-96674700D02*
X147029800Y-96674700D01*
X155298700Y-95756300D02*
X154380300Y-96674700D01*
X159559800Y-95756300D02*
X155298700Y-95756300D01*
X170989800Y-84326300D02*
X159559800Y-95756300D01*
X146734500Y-96379400D02*
X146598200Y-96515700D01*
X146598200Y-96515700D02*
X146734500Y-96379400D01*
X171982000Y-84326300D02*
X170989800Y-84326300D01*
X141960400Y-129019400D02*
X141690800Y-128749800D01*
X141690800Y-128749800D02*
X141960400Y-129019400D01*
%TO.N,/FLT*%
X115754700Y-84466300D02*
X112082400Y-80794000D01*
X127483800Y-84466300D02*
X115754700Y-84466300D01*
X128590000Y-85572500D02*
X127483800Y-84466300D01*
X111090200Y-80794000D02*
X112082400Y-80794000D01*
X165432100Y-80492500D02*
X153990000Y-80492500D01*
X169396700Y-84457100D02*
X165432100Y-80492500D01*
X148910000Y-85572500D02*
X128590000Y-85572500D01*
X153990000Y-80492500D02*
X148910000Y-85572500D01*
X169396700Y-84457100D02*
X169396700Y-84455500D01*
X169396700Y-84455500D02*
X169396700Y-84457100D01*
%TO.N,/M0*%
X127018500Y-89684000D02*
X128590000Y-88112500D01*
X123638100Y-89684000D02*
X127018500Y-89684000D01*
X122794900Y-90527200D02*
X123638100Y-89684000D01*
X122794900Y-91506500D02*
X122794900Y-90527200D01*
X123790200Y-92501800D02*
X122794900Y-91506500D01*
X123790200Y-93494000D02*
X123790200Y-92501800D01*
X157823800Y-86866300D02*
X159282000Y-86866300D01*
X153990000Y-83032500D02*
X157823800Y-86866300D01*
X148910000Y-88112500D02*
X128590000Y-88112500D01*
X153990000Y-83032500D02*
X148910000Y-88112500D01*
%TO.N,/5V*%
X122798000Y-96519700D02*
X122798000Y-94483800D01*
X123304600Y-97026300D02*
X122798000Y-96519700D01*
X159282000Y-97026300D02*
X123304600Y-97026300D01*
%TO.N,/DIR*%
X133670000Y-77952500D02*
X153990000Y-77952500D01*
X128590000Y-83032500D02*
X133670000Y-77952500D01*
%TO.N,/M1*%
X123790200Y-90954000D02*
X124782400Y-90954000D01*
X154456000Y-85572500D02*
X153990000Y-85572500D01*
X158289800Y-89406300D02*
X154456000Y-85572500D01*
X159282000Y-89406300D02*
X158289800Y-89406300D01*
X125083900Y-90652500D02*
X128590000Y-90652500D01*
X124782400Y-90954000D02*
X125083900Y-90652500D01*
X148910000Y-90652500D02*
X153990000Y-85572500D01*
X128590000Y-90652500D02*
X148910000Y-90652500D01*
%TO.N,/EN*%
X125083900Y-95732500D02*
X124782400Y-96034000D01*
X128590000Y-95732500D02*
X125083900Y-95732500D01*
X123790200Y-96034000D02*
X124782400Y-96034000D01*
X148910000Y-95732500D02*
X128590000Y-95732500D01*
X153990000Y-90652500D02*
X148910000Y-95732500D01*
%TO.N,/M2*%
X154456000Y-88112500D02*
X153990000Y-88112500D01*
X158289800Y-91946300D02*
X154456000Y-88112500D01*
X159282000Y-91946300D02*
X158289800Y-91946300D01*
X148910000Y-93192500D02*
X153990000Y-88112500D01*
X128590000Y-93192500D02*
X148910000Y-93192500D01*
%TO.N,Net-(Regulator1-VI)*%
X140539300Y-135187500D02*
X143810800Y-131916000D01*
X132073900Y-135187500D02*
X140539300Y-135187500D01*
X143810800Y-131916000D02*
X144580800Y-132686000D01*
X144580800Y-132686000D02*
X143810800Y-131916000D01*
%TD*%
M02*
