M48
; DRILL file {KiCad 9.0.1} date 2025-05-12T12:50:36-0700
; FORMAT={-:-/ absolute / metric / decimal}
; #@! TF.CreationDate,2025-05-12T12:50:36-07:00
; #@! TF.GenerationSoftware,Kicad,Pcbnew,9.0.1
; #@! TF.FileFunction,Plated,1,2,PTH
FMAT,2
METRIC
; #@! TA.AperFunction,Plated,PTH,ViaDrill
T1C0.300
; #@! TA.AperFunction,Plated,PTH,ComponentDrill
T2C0.750
; #@! TA.AperFunction,Plated,PTH,ComponentDrill
T3C0.800
; #@! TA.AperFunction,Plated,PTH,ComponentDrill
T4C1.100
; #@! TA.AperFunction,Plated,PTH,ComponentDrill
T5C1.300
%
G90
G05
T1
X115.717Y-140.169
X117.891Y-57.254
X118.155Y-70.278
X130.957Y-101.495
X131.52Y-97.026
X132.602Y-80.543
X145.051Y-83.362
X145.051Y-143.089
X145.594Y-137.335
X155.449Y-88.669
T2
X113.25Y-103.5
X113.25Y-104.77
X113.25Y-106.04
X113.25Y-111.5
X113.25Y-112.77
X113.25Y-114.04
X113.75Y-118.5
X113.75Y-119.77
X113.75Y-121.04
T3
X111.09Y-78.254
X111.09Y-80.794
X111.09Y-83.334
X111.09Y-85.874
X111.09Y-88.414
X111.09Y-90.954
X111.09Y-93.494
X111.09Y-96.034
X111.5Y-71.5
X112.5Y-58.19
X112.5Y-65.81
X114.0Y-71.5
X119.25Y-100.19
X119.25Y-107.81
X119.5Y-67.0
X119.5Y-69.5
X119.75Y-116.19
X119.75Y-123.81
X123.3Y-106.69
X123.3Y-114.31
X123.79Y-78.254
X123.79Y-80.794
X123.79Y-83.334
X123.79Y-85.874
X123.79Y-88.414
X123.79Y-90.954
X123.79Y-93.494
X123.79Y-96.034
X128.0Y-133.5
X128.5Y-140.5
X128.59Y-67.793
X128.59Y-70.332
X128.59Y-72.873
X128.59Y-75.412
X128.59Y-77.953
X128.59Y-80.492
X128.59Y-83.032
X128.59Y-85.572
X128.59Y-88.112
X128.59Y-90.652
X128.59Y-93.192
X128.59Y-95.733
X128.59Y-98.272
X128.59Y-100.812
X128.59Y-103.352
X128.59Y-105.892
X128.59Y-108.432
X128.59Y-110.972
X128.59Y-113.512
X128.59Y-116.052
X128.59Y-118.593
X128.59Y-121.132
X130.5Y-133.5
X131.0Y-140.5
X139.5Y-130.0
X142.0Y-130.0
X153.99Y-67.793
X153.99Y-70.332
X153.99Y-72.873
X153.99Y-75.412
X153.99Y-77.953
X153.99Y-80.492
X153.99Y-83.032
X153.99Y-85.572
X153.99Y-88.112
X153.99Y-90.652
X153.99Y-93.192
X153.99Y-95.733
X153.99Y-98.272
X153.99Y-100.812
X153.99Y-103.352
X153.99Y-105.892
X153.99Y-108.432
X153.99Y-110.972
X153.99Y-113.512
X153.99Y-116.052
X153.99Y-118.593
X153.99Y-121.132
X159.282Y-84.326
X159.282Y-86.866
X159.282Y-89.406
X159.282Y-91.946
X159.282Y-94.486
X159.282Y-97.026
X159.282Y-99.566
X159.282Y-102.106
X171.982Y-84.326
X171.982Y-86.866
X171.982Y-89.406
X171.982Y-91.946
X171.982Y-94.486
X171.982Y-97.026
X171.982Y-99.566
X171.982Y-102.106
T4
X117.92Y-128.0
X128.08Y-128.0
T5
X103.0Y-83.5
X103.0Y-88.5
X103.0Y-93.5
X103.0Y-98.5
X103.5Y-61.0
X103.5Y-66.0
X103.5Y-71.0
X103.5Y-76.0
X103.5Y-107.0
X103.5Y-112.0
X103.5Y-117.0
X103.5Y-122.0
X103.5Y-127.0
X103.5Y-132.0
X114.212Y-137.032
X119.212Y-137.032
X120.0Y-58.0
X125.0Y-58.0
X130.0Y-58.0
X137.398Y-57.779
X142.398Y-57.779
X147.398Y-57.779
X151.155Y-134.437
X155.25Y-59.032
X156.155Y-134.437
X160.25Y-59.032
X161.155Y-134.437
X165.031Y-110.067
X165.031Y-115.067
X165.031Y-120.067
X165.031Y-125.067
X165.25Y-59.032
X166.155Y-134.437
X166.733Y-68.05
X166.733Y-73.05
X166.733Y-78.05
M30
