%TF.GenerationSoftware,KiCad,Pcbnew,9.0.1*%
%TF.CreationDate,2025-05-09T22:29:33-07:00*%
%TF.ProjectId,pcb,7063622e-6b69-4636-9164-5f7063625858,rev?*%
%TF.SameCoordinates,Original*%
%TF.FileFunction,Soldermask,Top*%
%TF.FilePolarity,Negative*%
%FSLAX46Y46*%
G04 Gerber Fmt 4.6, Leading zero omitted, Abs format (unit mm)*
G04 Created by KiCad (PCBNEW 9.0.1) date 2025-05-09 22:29:33*
%MOMM*%
%LPD*%
G01*
G04 APERTURE LIST*
G04 Aperture macros list*
%AMRoundRect*
0 Rectangle with rounded corners*
0 $1 Rounding radius*
0 $2 $3 $4 $5 $6 $7 $8 $9 X,Y pos of 4 corners*
0 Add a 4 corners polygon primitive as box body*
4,1,4,$2,$3,$4,$5,$6,$7,$8,$9,$2,$3,0*
0 Add four circle primitives for the rounded corners*
1,1,$1+$1,$2,$3*
1,1,$1+$1,$4,$5*
1,1,$1+$1,$6,$7*
1,1,$1+$1,$8,$9*
0 Add four rect primitives between the rounded corners*
20,1,$1+$1,$2,$3,$4,$5,0*
20,1,$1+$1,$4,$5,$6,$7,0*
20,1,$1+$1,$6,$7,$8,$9,0*
20,1,$1+$1,$8,$9,$2,$3,0*%
G04 Aperture macros list end*
%ADD10RoundRect,0.250000X-0.312500X-0.625000X0.312500X-0.625000X0.312500X0.625000X-0.312500X0.625000X0*%
%ADD11RoundRect,0.250000X-0.250000X-0.475000X0.250000X-0.475000X0.250000X0.475000X-0.250000X0.475000X0*%
%ADD12RoundRect,0.250000X0.850000X0.350000X-0.850000X0.350000X-0.850000X-0.350000X0.850000X-0.350000X0*%
%ADD13RoundRect,0.249997X2.950003X2.650003X-2.950003X2.650003X-2.950003X-2.650003X2.950003X-2.650003X0*%
%ADD14R,2.200000X2.200000*%
%ADD15O,2.200000X2.200000*%
%ADD16RoundRect,0.250000X0.450000X-0.262500X0.450000X0.262500X-0.450000X0.262500X-0.450000X-0.262500X0*%
%ADD17R,1.500000X1.050000*%
%ADD18O,1.500000X1.050000*%
%ADD19RoundRect,0.250001X1.149999X-1.149999X1.149999X1.149999X-1.149999X1.149999X-1.149999X-1.149999X0*%
%ADD20C,2.800000*%
%ADD21RoundRect,0.250001X-1.149999X-1.149999X1.149999X-1.149999X1.149999X1.149999X-1.149999X1.149999X0*%
%ADD22RoundRect,0.250001X1.149999X1.149999X-1.149999X1.149999X-1.149999X-1.149999X1.149999X-1.149999X0*%
%ADD23RoundRect,0.250001X-1.149999X1.149999X-1.149999X-1.149999X1.149999X-1.149999X1.149999X1.149999X0*%
%ADD24C,1.500000*%
%ADD25R,1.600000X1.600000*%
%ADD26O,1.600000X1.600000*%
%ADD27RoundRect,0.250000X-0.262500X-0.450000X0.262500X-0.450000X0.262500X0.450000X-0.262500X0.450000X0*%
G04 APERTURE END LIST*
D10*
%TO.C,PTCFuse1*%
X116212500Y-127500000D03*
X113287500Y-127500000D03*
%TD*%
D11*
%TO.C,vd_c2*%
X116609500Y-67773000D03*
X118509500Y-67773000D03*
%TD*%
D12*
%TO.C,Regulator1*%
X144837500Y-138287500D03*
X144837500Y-136007500D03*
D13*
X138537500Y-136007500D03*
D12*
X144837500Y-133727500D03*
%TD*%
D14*
%TO.C,D1*%
X121132500Y-127500000D03*
D15*
X131292500Y-127500000D03*
%TD*%
D16*
%TO.C,mix1*%
X121370200Y-121764700D03*
X121370200Y-119939700D03*
%TD*%
D17*
%TO.C,Q3*%
X114250000Y-107815300D03*
D18*
X114250000Y-106545300D03*
X114250000Y-105275300D03*
%TD*%
D19*
%TO.C,Moving2*%
X165031500Y-125066700D03*
D20*
X165031500Y-120066700D03*
X165031500Y-115066700D03*
X165031500Y-110066700D03*
%TD*%
D11*
%TO.C,motor_c1*%
X139790800Y-127554200D03*
X141690800Y-127554200D03*
%TD*%
%TO.C,vd_c1*%
X123507600Y-72690100D03*
X125407600Y-72690100D03*
%TD*%
D21*
%TO.C,MovingBumper_back1*%
X120000000Y-57500000D03*
D20*
X125000000Y-57500000D03*
X130000000Y-57500000D03*
%TD*%
D21*
%TO.C,MovingBumper_front1*%
X138000000Y-57500000D03*
D20*
X143000000Y-57500000D03*
X148000000Y-57500000D03*
%TD*%
D22*
%TO.C,Debug_ports1*%
X166155000Y-134000000D03*
D20*
X161155000Y-134000000D03*
X156155000Y-134000000D03*
X151155000Y-134000000D03*
%TD*%
D11*
%TO.C,reg_co1*%
X128212500Y-133500000D03*
X130112500Y-133500000D03*
%TD*%
D16*
%TO.C,mix2*%
X121550100Y-115020400D03*
X121550100Y-113195400D03*
%TD*%
D23*
%TO.C,Thermistor1*%
X109250000Y-56032500D03*
D20*
X109250000Y-61032500D03*
X109250000Y-66032500D03*
X109250000Y-71032500D03*
%TD*%
D24*
%TO.C,ESP32-S3*%
X128590000Y-67792500D03*
X128590000Y-70332500D03*
X128590000Y-72872500D03*
X128590000Y-75412500D03*
X128590000Y-77952500D03*
X128590000Y-80492500D03*
X128590000Y-83032500D03*
X128590000Y-85572500D03*
X128590000Y-88112500D03*
X128590000Y-90652500D03*
X128590000Y-93192500D03*
X128590000Y-95732500D03*
X128590000Y-98272500D03*
X128590000Y-100812500D03*
X128590000Y-103352500D03*
X128590000Y-105892500D03*
X128590000Y-108432500D03*
X128590000Y-110972500D03*
X128590000Y-113512500D03*
X128590000Y-116052500D03*
X128590000Y-118592500D03*
X128590000Y-121132500D03*
X153990000Y-67792500D03*
X153990000Y-70332500D03*
X153990000Y-72872500D03*
X153990000Y-75412500D03*
X153990000Y-77952500D03*
X153990000Y-80492500D03*
X153990000Y-83032500D03*
X153990000Y-85572500D03*
X153990000Y-88112500D03*
X153990000Y-90652500D03*
X153990000Y-93192500D03*
X153990000Y-95732500D03*
X153990000Y-98272500D03*
X153990000Y-100812500D03*
X153990000Y-103352500D03*
X153990000Y-105892500D03*
X153990000Y-108432500D03*
X153990000Y-110972500D03*
X153990000Y-113512500D03*
X153990000Y-116052500D03*
X153990000Y-118592500D03*
X153990000Y-121132500D03*
%TD*%
D11*
%TO.C,reg_ci1*%
X128262500Y-138000000D03*
X130162500Y-138000000D03*
%TD*%
D25*
%TO.C,Moving1*%
X171982000Y-102106300D03*
D26*
X171982000Y-99566300D03*
X171982000Y-97026300D03*
X171982000Y-94486300D03*
X171982000Y-91946300D03*
X171982000Y-89406300D03*
X171982000Y-86866300D03*
X171982000Y-84326300D03*
X159282000Y-84326300D03*
X159282000Y-86866300D03*
X159282000Y-89406300D03*
X159282000Y-91946300D03*
X159282000Y-94486300D03*
X159282000Y-97026300D03*
X159282000Y-99566300D03*
X159282000Y-102106300D03*
%TD*%
D21*
%TO.C,J1*%
X114500000Y-135500000D03*
D20*
X119500000Y-135500000D03*
%TD*%
D27*
%TO.C,vd_r1*%
X122425000Y-67532500D03*
X124250000Y-67532500D03*
%TD*%
D16*
%TO.C,mix3*%
X121050100Y-108520400D03*
X121050100Y-106695400D03*
%TD*%
D21*
%TO.C,Rehydration_front1*%
X156000000Y-57500000D03*
D20*
X161000000Y-57500000D03*
X166000000Y-57500000D03*
%TD*%
D17*
%TO.C,Q1*%
X114504400Y-121649700D03*
D18*
X114504400Y-120379700D03*
X114504400Y-119109700D03*
%TD*%
D23*
%TO.C,Rehydration2*%
X103500000Y-79000000D03*
D20*
X103500000Y-84000000D03*
X103500000Y-89000000D03*
X103500000Y-94000000D03*
%TD*%
D25*
%TO.C,Rehydration1*%
X111090200Y-78254000D03*
D26*
X111090200Y-80794000D03*
X111090200Y-83334000D03*
X111090200Y-85874000D03*
X111090200Y-88414000D03*
X111090200Y-90954000D03*
X111090200Y-93494000D03*
X111090200Y-96034000D03*
X123790200Y-96034000D03*
X123790200Y-93494000D03*
X123790200Y-90954000D03*
X123790200Y-88414000D03*
X123790200Y-85874000D03*
X123790200Y-83334000D03*
X123790200Y-80794000D03*
X123790200Y-78254000D03*
%TD*%
D17*
%TO.C,Q2*%
X114410100Y-114965400D03*
D18*
X114410100Y-113695400D03*
X114410100Y-112425400D03*
%TD*%
D23*
%TO.C,Rehydration_back1*%
X166732900Y-68049600D03*
D20*
X166732900Y-73049600D03*
X166732900Y-78049600D03*
%TD*%
D19*
%TO.C,Mixing1*%
X103939900Y-129600900D03*
D20*
X103939900Y-124600900D03*
X103939900Y-119600900D03*
X103939900Y-114600900D03*
X103939900Y-109600900D03*
X103939900Y-104600900D03*
%TD*%
M02*
